<?xml version="1.0" encoding="utf-8"?>
<!-- Generator: Adobe Illustrator 19.2.1, SVG Export Plug-In . SVG Version: 6.00 Build 0)  -->
<svg version="1.1" id="Calque_1" xmlns="http://www.w3.org/2000/svg" xmlns:xlink="http://www.w3.org/1999/xlink" x="0px" y="0px"
	 viewBox="0 0 1024 1024" enable-background="new 0 0 1024 1024" xml:space="preserve">
<path fill="#444444" d="M775.2,54.3c315.6,269.3-58.3,273.3-58.3,273.3c8,10.4,8.6,25,8.6,25c-42.5-57.9-210.3-56.5-210.3-56.5
	s-168-1.5-210.5,56.5c0,0,0.6-14.6,8.6-25c0,0-374-4-58.3-273.3c0,0-305.5,107.1-243.7,317.5c0,0,48.2,112,254.8,112
	c0,0-13.5-30.8,25-102.2c-1.3,4-38.3,121.6,25.1,185.1c-0.4-1-4.7-12.9-0.4-24.9c0,0,29,27.4,78.6,43.8
	c49.8,16.4,57.1,38.2,66.7,68.5c0,0-27-24.6-79.2-34.8c-52.1-10.1-58.9-44.8-58.9-44.8s-0.8,0.4-2.1,1.1c-6,3.5-23.3,15-37.5,43.2
	c0,0,14.5,122.6,46.3,154.5c0,0,67.6,45.6,83,183.1c0,0,32.7,37,102.3,37c69.5,0,102.2-37,102.2-37c15.5-137.4,83-183.1,83-183.1
	c31.8-31.9,46.3-154.5,46.3-154.5c-17.4-34.8-39.6-44.4-39.6-44.4s-6.8,34.8-58.9,44.8c-52.1,10.2-79.1,34.8-79.1,34.8
	c9.6-30.3,16.9-52.1,66.6-68.5c49.7-16.4,78.7-43.8,78.7-43.8c4.2,12-0.1,23.8-0.4,24.9c63.4-63.6,26.3-181.1,25.1-185.1
	c38.6,71.4,25,102.2,25,102.2c206.6,0,254.8-112,254.8-112C1080.6,161.4,775.1,54.3,775.2,54.3L775.2,54.3z M442,904.7
	c-9.6,0-17.4-10.4-17.4-23.2s7.8-23.2,17.4-23.2c9.6,0,17.4,10.4,17.4,23.2S451.6,904.7,442,904.7z M588.4,858.4
	c9.6,0,17.4,10.4,17.4,23.2s-7.7,23.2-17.4,23.2c-9.6,0-17.4-10.4-17.4-23.2S578.8,858.4,588.4,858.4z"/>
</svg>
