<?xml version="1.0" encoding="utf-8"?>
<!-- Generator: Adobe Illustrator 19.2.1, SVG Export Plug-In . SVG Version: 6.00 Build 0)  -->
<svg version="1.1" id="Calque_1" xmlns="http://www.w3.org/2000/svg" xmlns:xlink="http://www.w3.org/1999/xlink" x="0px" y="0px"
	 viewBox="0 0 1024 1024" enable-background="new 0 0 1024 1024" xml:space="preserve">
<path fill="#444444" d="M1026.8,711c0.2-0.4,0.6-0.7,0.9-1h-1.3L843.1,293.7c22.2-0.6,33.3-16.3,33.3-16.3
	c25.5-39.6-8.2-65-9.8-66.2c15.5,15.5,6.2,32,6.2,32c-29.4,48.9-81.1-9-81.1-9c-105.5-130-228.8-72.1-228.8-72.1
	C507,127.8,552,90.9,552,90.9c-29.7,0-36.3-75.7-36.3-75.7s-6.6,75.7-36.4,75.7c0,0,45,36.9-10.8,71.2c0,0-123.3-58-228.8,72.1
	c0,0-51.6,57.9-81.1,9c0,0-9.4-16.4,6.2-32c-1.6,1.2-35.3,26.6-9.8,66.2c0,0,11.1,15.7,33.3,16.3L5.1,710H3.7c0.3,0.4,0.6,0.7,0.9,1
	l-0.8,1.8h2.3c4,5.1,8.2,10.2,12.6,15h201.8L32.5,741.5c41.9,38.4,97.6,61.8,158.8,61.8c75.3,0,142.3-35.5,185.3-90.5h1.8l-0.6-1.5
	c0.4-0.4,0.7-0.9,1.1-1.3h-1.7l-0.4-1L193.8,293.6c15.6-1.3,35.9-10.1,60.9-35c0,0,141-139.7,229.2,22.5c0,0,24.4,257.2-15.1,464.9
	c11.8,8.6,27.8,16.5,47,16.5c0,0-26.6,14.6-52.1,8.5c-17.2,78.5-44.5,147.7-86.9,190.1c0,0,26.7,40.6,139.1,40.6
	c112.3,0,139-40.6,139-40.6c-12-12-22.7-26.1-32.3-41.8c-106.7,45.6-179.8,1.3-179.8,1.3c89.5,15.4,141.9-4.8,168.4-21.7
	c-9.3-18.2-17.5-38.2-24.6-59.5c-60.1,35.5-103.3,12.3-103.3,12.3c45.2,0,76.5-22.4,94.6-40.8C517.9,596.4,547.7,281,547.7,281
	c88.3-162.2,229.2-22.5,229.2-22.5c25,25,45.3,33.7,60.9,35L654.4,710.1h-1.7c0.3,0.5,0.7,0.9,1.1,1.3l-0.7,1.5h1.8
	c43,55,110,90.5,185.3,90.5c61.1,0,116.7-23.3,158.5-61.6l-191.7-13.9h205.7c4.5-4.8,8.6-9.9,12.6-15h2.3L1026.8,711L1026.8,711z
	 M188.4,307v400.4H12.1C12.1,707.4,188.4,307,188.4,307z M193.8,307L370,707.4H193.8C193.8,707.4,193.8,307,193.8,307z M843.1,707.4
	V307l176.3,400.4H843.1z M837.6,307v400.4H661.3C661.3,707.4,837.6,307,837.6,307z"/>
</svg>
