<?xml version="1.0" encoding="utf-8"?>
<!-- Generator: Adobe Illustrator 19.2.1, SVG Export Plug-In . SVG Version: 6.00 Build 0)  -->
<svg version="1.1" id="Calque_1" xmlns="http://www.w3.org/2000/svg" xmlns:xlink="http://www.w3.org/1999/xlink" x="0px" y="0px"
	 viewBox="0 0 1024 1024" enable-background="new 0 0 1024 1024" xml:space="preserve">
<path fill="#444444" d="M547.6,19.9l4.5,50.9c103.6,43.9,87.6,223.2,87.6,223.2c38.6,17.6,58.1,38.4,58.1,38.4
	C740,74.3,545,4.1,545,4.1c-147.6,186.2-336,244.6-336,244.6c-49.6,265.6,95.3,292.9,95.3,292.9C418.5,455.5,639.9,445,639.9,445
	C483.5,213.1,547.6,19.9,547.6,19.9L547.6,19.9z"/>
<path fill="#444444" d="M583.7,288.6c302.1,165.1,210.8,634.9,210.8,634.9C926.2,367.7,583.7,288.6,583.7,288.6z"/>
<path fill="#444444" d="M592.6,313.3c226.1,186.6,177.4,665.7,177.4,665.7C868.3,443.2,592.6,313.3,592.6,313.3z"/>
<path fill="#444444" d="M610.1,350.1c145.8,237.1,137,678,137,678C805.4,534.8,610.1,350.1,610.1,350.1z"/>
</svg>
