<?xml version="1.0" encoding="utf-8"?>
<!-- Generator: Adobe Illustrator 19.2.1, SVG Export Plug-In . SVG Version: 6.00 Build 0)  -->
<svg version="1.1" id="Calque_1" xmlns="http://www.w3.org/2000/svg" xmlns:xlink="http://www.w3.org/1999/xlink" x="0px" y="0px"
	 viewBox="0 0 1024 1024" enable-background="new 0 0 1024 1024" xml:space="preserve">
<path fill="#444444" d="M998,330.2c0,0,74.3,114.9-12.2,220.4c11.7-79.1-84.6-77.8-131.9-49c-47.4,28.9-89.6,91.5-57.3,146.3
	c19,32.4,65,31.4,96.7,22.6c19.6-5.5,37.2-16.8,52.1-30.5c10.1-9.3,36.6-32.5,37.7-46.7c-2.4,31.5-5.3,61.8-14.7,89.9
	c-6.5,19.7-16.1,38.5-30.8,55.8c-33.9,40.3-82.9,65.5-135.1,70.9c18.4-17.2,54.4-47.9,34.7-77.8c-16-24.1-80-2.1-104.1,1.1
	c-55.1,7-113.3,10.8-166.5-8.4c-86.4-31.1-139.2-107.4-159.3-194.7c0,0,20.3,223,223,223c0,0-169,28.4-160.8,250
	c0,0-108.2-119-108.2-306.8c0,0-154.1,23-197.4,181.1c0,0-128.4-210.8,47.3-429.8c0,0-127.4-11-207.3,145.6
	c0,0-23.4-515.2,396.6-501c0,0-37.9-54.1-108.2-54.1c0,0,333.6-91.9,483.1,194.7c0,0-93.3-50.4-238.6,4.6c0,0-37.3,17.9-88.2-4
	c-37.9-16.2-76.4-21.4-107.5-22.2c-39.8-1-67.7,5.4-67.7,5.4s61.9,178.1,179.8,113.6c0,0-101.4,20.2-151.4-100.1
	c0,0,12.8-5.2,38.9-4.4c27.1,0.8,68.3,7.8,124.3,33.2c0,0,28.8,18.3,70.8-1.7c0,0,163.4-74.5,293.2,31c0,0,35.9,30.5,16.3,50
	C845.3,338.3,969.7,358.6,998,330.2L998,330.2z M825,347.8c-77-51.3-166.3,13.6-166.3,13.6C797.9,374.9,825,347.8,825,347.8z"/>
</svg>
