<?xml version="1.0" encoding="utf-8"?>
<!-- Generator: Adobe Illustrator 19.2.1, SVG Export Plug-In . SVG Version: 6.00 Build 0)  -->
<svg version="1.1" id="Calque_1" xmlns="http://www.w3.org/2000/svg" xmlns:xlink="http://www.w3.org/1999/xlink" x="0px" y="0px"
	 viewBox="0 0 1024 1024" enable-background="new 0 0 1024 1024" xml:space="preserve">
<path fill="#444444" d="M342.3,176c-20.1,20.1-36.9,61.9-36.9,61.9C468.6,193.5,477.8,95.6,477.8,95.6
	C446.3,159.2,342.3,176,342.3,176z"/>
<path fill="#444444" d="M723.7,237.9c0,0-16.7-41.8-36.8-61.9c0,0-104-16.7-135.6-80.4C551.3,95.7,560.5,193.6,723.7,237.9z"/>
<path fill="#444444" d="M402.5,254.6c0,8.4,26.8,41.9,26.8,41.9c-50.2,26.7-107.1,132.2-107.1,132.2s-34.7,47-43.8,119.3
	c-0.1,0.5-0.2,1-0.2,1.5c0,0-13.3,67.6,236.4,67.6S751,549.4,751,549.4c-0.1-0.5-0.1-1-0.2-1.5c-9.1-72.2-43.8-119.3-43.8-119.3
	s-56.9-105.4-107.1-132.2c0,0,26.7-33.5,26.7-41.9c0,0-10-13.4-45.2,21.8c0,0-11.3,10.1-66.8,10.1s-66.8-10.1-66.8-10.1
	C412.6,241.3,402.5,254.6,402.5,254.6L402.5,254.6z"/>
<path fill="#444444" d="M418.1,707.6c-7.6,12.3-17.5,29.8-26.7,50.2c6.6,3.6,14.6,7.4,22.2,9.5c7.8-14.6,20.2-34.2,36.7-50.1
	c4.7-4.6,9.8-8.8,15.2-12.6c-14-2.5-26.9-6.1-38.9-10.3C424.4,697.5,421.4,702.1,418.1,707.6L418.1,707.6z"/>
<path fill="#444444" d="M303.8,216.2C367.4,68.8,466.1,63.8,466.1,63.8C352.3,15.3,241.8,164.3,241.8,164.3s-47.7,66.2-77.8,96.3
	c-3,3-5.6,5.9-8.1,8.8l75.6,21.4C305.2,231.4,303.8,216.2,303.8,216.2L303.8,216.2z"/>
<path fill="#444444" d="M372.9,906.1c7,21.6,20,42.1,41.3,59.8c-0.9-1.4-15.4-23.6-22.7-59C385.7,907.1,378.8,906.7,372.9,906.1z"/>
<path fill="#444444" d="M403.8,787.8c0,0,1.4-3.3,3.9-8.7c-6.7-2.9-14.3-7.1-20.7-10.8c-6.5,15.9-12.3,33.3-16.2,51.3
	c6.6,2,14.2,4.2,21.1,6C394.5,813.4,398.3,800.8,403.8,787.8L403.8,787.8z"/>
<path fill="#444444" d="M414.7,689.6c-65.3-27.5-95.8-75-95.8-75s-6.3,2.8-18.8,4.7c-11.3,1.7-27.5,2.6-48.7,0
	c-0.3,12.7,0.1,32.9,4.7,46.5c28.2,4.6,58.4,5.5,90.5,1.1c4.7-0.7,9.4-1.3,14.2-2.2l-44.5,40.2c8.1,8.6,19.4,20.2,28.3,28
	c16.8-12.9,35.2-26.1,51.3-34.9C402.7,694.4,409,691.4,414.7,689.6z"/>
<path fill="#444444" d="M390.2,834.4c-6.8-1.9-14.6-4.6-20.9-6.9c-4,22.8-4.6,46.3,0.8,68.8c5.9,0.8,13.2,1.5,19.7,1.5
	C387,879.4,386.3,857.9,390.2,834.4L390.2,834.4z"/>
<path fill="#444444" d="M264.7,751.4l28.5,24.7c0.2-0.3,0.3-0.6,0.5-0.8c0,0,17.6-16,40.6-34.2c-8.3-8.1-18.3-20.1-25.7-29.2
	L264.7,751.4z"/>
<path fill="#444444" d="M244,835.5l27.8,1.4c2.9-17.6,7.9-35.5,16.1-51.5l-31.9-21.8L244,835.5L244,835.5z"/>
<path fill="#444444" d="M304.5,422c-25.9-17.9-55.2-67.1-71.6-97.3l-71.3,34.3l99,164C265.6,482.8,289.5,443.4,304.5,422L304.5,422z
	"/>
<path fill="#444444" d="M270.3,848.6l-28.3-0.4l-0.1,0.7l30.1,83.6C272,932.5,265.2,893,270.3,848.6L270.3,848.6z"/>
<path fill="#444444" d="M259.8,544.6c-12.9-3.1-33-9-56.5-19.8c-6.8,10.6-13.9,25-14,38.9c26.4,14.4,56.8,26.2,92,34.1
	C267.2,581.6,260.9,563.3,259.8,544.6z"/>
<path fill="#444444" d="M174,598.5c-3.8,8.7-9.5,22.4-12.9,35.5c23.1,11.8,48.3,21.7,75.9,28c-3-14.1-1.5-33.1,0-45
	C218.9,613.7,197.9,608,174,598.5L174,598.5z"/>
<path fill="#444444" d="M226.4,312.5c-4-7.8-6.3-12.6-6.3-12.6c0.3-0.2,0.7-0.5,1-0.8l-78.4-11.2c-8.7,15.4-8.8,25.4-8.8,25.4
	l15.8,26.3L226.4,312.5L226.4,312.5z"/>
<path fill="#444444" d="M175.2,555.5c1.3-13.6,7-27.6,12.5-38.3c-16.5-8.7-34.2-19.7-52-33.7c-8.3,5.2-17,12.8-21.4,23.1
	C131.4,524.2,151.5,540.8,175.2,555.5L175.2,555.5z"/>
<path fill="#444444" d="M89.6,586.8c16.7,13.7,35.7,27.3,56.8,39.3c2-11.1,7.9-25,12.1-34.1c-16.2-7.2-33.6-15.9-52.3-26.8
	C101.2,571.1,94.8,579,89.6,586.8L89.6,586.8z"/>
<path fill="#444444" d="M72.9,454.1c8.5,13.4,18.4,26.8,29.9,40c4.5-9.8,12.1-17,19.2-22c-10.9-9.6-21.8-20.4-32.3-32.5
	C83.7,443.3,77.4,448.2,72.9,454.1L72.9,454.1z"/>
<path fill="#444444" d="M2.6,492.5C4.2,495,31.1,536,79.3,578c4.7-7,10.7-13.9,15.9-19.4C67,541.4,36.1,519.7,2.6,492.5z"/>
<path fill="#444444" d="M80.8,429c-22-27.4-42.2-60.9-58.2-102.1c0.5,3.2,8.3,55.2,42,113.6C68,436.7,73.2,432.7,80.8,429z"/>
<path fill="#444444" d="M684.3,612c-60.3,15.5-169.8,20.1-169.8,20.1S405,627.4,344.7,612c0,0,40.5,69.2,169.8,77.8
	C643.8,681.2,684.3,612,684.3,612z"/>
<path fill="#444444" d="M637.7,757.8c-9.2-20.4-19-37.9-26.7-50.2c-3.4-5.5-6.4-10-8.6-13.3c-12,4.3-24.9,7.8-38.9,10.3
	c5.4,3.8,10.5,8,15.2,12.6c16.5,15.9,28.8,35.5,36.7,50.1C623.1,765.2,631.1,761.3,637.7,757.8z"/>
<path fill="#444444" d="M725.3,216.2c0,0-1.5,15.2,72.2,74.5l75.6-21.4c-2.5-2.9-5.1-5.7-8.1-8.8c-30.1-30.1-77.8-96.3-77.8-96.3
	S676.8,15.3,562.9,63.8C562.9,63.8,661.7,68.9,725.3,216.2L725.3,216.2z"/>
<path fill="#444444" d="M637.6,907c-7.2,35.4-21.8,57.7-22.7,59c21.3-17.7,34.3-38.2,41.3-59.8C650.3,906.7,643.4,907.1,637.6,907z"
	/>
<path fill="#444444" d="M637.2,825.5c6.9-1.8,14.5-4,21.1-6c-3.8-18-9.7-35.4-16.2-51.3c-6.4,3.7-14,7.9-20.7,10.8
	c2.6,5.4,3.9,8.8,3.9,8.8C630.8,800.8,634.5,813.4,637.2,825.5L637.2,825.5z"/>
<path fill="#444444" d="M712.9,704.9l-44.5-40.2c4.8,0.8,9.4,1.5,14.2,2.2c32.1,4.3,62.3,3.5,90.5-1.1c4.6-13.6,5-33.8,4.7-46.5
	c-21.2,2.6-37.4,1.7-48.7,0c-12.5-1.9-18.8-4.7-18.8-4.7s-30.6,47.6-95.9,75c5.7,1.9,12,4.8,18.8,8.5c16.2,8.8,34.6,21.9,51.4,34.9
	C693.5,725.2,704.8,713.5,712.9,704.9L712.9,704.9z"/>
<path fill="#444444" d="M638.9,834.4c3.9,23.6,3.3,44.9,0.4,63.4c6.5,0,13.8-0.7,19.7-1.5c5.4-22.5,4.8-46,0.8-68.8
	C653.5,829.9,645.7,832.5,638.9,834.4L638.9,834.4z"/>
<path fill="#444444" d="M720.5,711.8c-7.4,9.1-17.3,21.1-25.7,29.2c22.9,18.3,40.6,34.2,40.6,34.2c0.2,0.2,0.3,0.5,0.5,0.8
	l28.5-24.7L720.5,711.8L720.5,711.8z"/>
<path fill="#444444" d="M785,835.5l-12-71.9l-31.9,21.8c8.2,16,13.2,33.9,16.1,51.5C757.2,836.9,785,835.5,785,835.5z"/>
<path fill="#444444" d="M796.2,324.8c-16.4,30.2-45.7,79.4-71.6,97.3c15.1,21.4,38.9,60.8,43.9,101.1l99-164L796.2,324.8
	L796.2,324.8z"/>
<path fill="#444444" d="M758.8,848.6c5.1,44.4-1.7,83.9-1.7,83.9l30.1-83.6l-0.1-0.7C787.1,848.2,758.8,848.6,758.8,848.6z"/>
<path fill="#444444" d="M747.8,597.9c35.1-7.9,65.6-19.7,92-34.1c0-13.9-7.2-28.3-13.9-38.9c-23.5,10.8-43.6,16.7-56.5,19.8
	C768.2,563.3,761.9,581.6,747.8,597.9L747.8,597.9z"/>
<path fill="#444444" d="M792.2,617c1.5,11.8,2.9,30.8,0,45c27.4-6.3,52.8-16.2,75.8-28c-3.4-13.1-9-26.7-12.9-35.5
	C831.2,608,810.2,613.8,792.2,617z"/>
<path fill="#444444" d="M809,299.9c0,0-2.3,4.9-6.4,12.6l76.7,27l15.8-26.3c0,0,0-9.9-8.8-25.4L807.9,299
	C808.3,299.3,808.6,299.6,809,299.9L809,299.9z"/>
<path fill="#444444" d="M841.4,517.2c5.5,10.7,11.2,24.7,12.5,38.3c23.8-14.6,43.8-31.3,60.9-48.8c-4.4-10.3-13.1-17.9-21.4-23.1
	C875.6,497.5,857.9,508.5,841.4,517.2L841.4,517.2z"/>
<path fill="#444444" d="M870.6,592c4.2,9,10.1,22.9,12.1,34c21.1-12,40.1-25.6,56.8-39.3c-5.1-7.7-11.5-15.6-16.7-21.6
	C904.2,576.1,886.7,584.8,870.6,592z"/>
<path fill="#444444" d="M926.3,494c11.5-13.1,21.3-26.6,29.8-40c-4.6-5.9-10.8-10.7-16.8-14.5c-10.6,12.1-21.4,22.9-32.3,32.5
	C914.3,477.1,921.8,484.2,926.3,494L926.3,494z"/>
<path fill="#444444" d="M933.9,558.6c5.2,5.5,11.2,12.4,15.9,19.4c48.2-42,75.1-83,76.7-85.5C993,519.7,962.2,541.4,933.9,558.6
	L933.9,558.6z"/>
<path fill="#444444" d="M1006.5,326.8c-16,41.2-36.2,74.7-58.1,102.1c7.6,3.7,12.7,7.7,16.2,11.5C998.2,382,1006,330,1006.5,326.8z"
	/>
</svg>
