<?xml version="1.0" encoding="utf-8"?>
<!-- Generator: Adobe Illustrator 19.2.1, SVG Export Plug-In . SVG Version: 6.00 Build 0)  -->
<svg version="1.1" id="Calque_1" xmlns="http://www.w3.org/2000/svg" xmlns:xlink="http://www.w3.org/1999/xlink" x="0px" y="0px"
	 viewBox="0 0 1024 1024" enable-background="new 0 0 1024 1024" xml:space="preserve">
<path fill="#444444" d="M36.3,286.5c-3.8-4.6-7.6-9.6-11.4-15.5C24.9,271,28.6,278.9,36.3,286.5z"/>
<path fill="#444444" d="M851.5,395.1c-102.5-24.9-168.9-17.2-222.9-85.4c94.4-120.6,147.1-156.5,147.1-156.5l2.1,71.5l88.3-183
	L664.3,151.2l79.9-10.5c-40.8,33.5-86.2,85.4-131.8,145.4c-17.2-28.4-33.3-66.3-49-118.1C487-83,332-21.3,195.4,189.1
	C106.8,325.3,57,306.8,36.4,286.5c32.3,38.8,65.8,34,102.9,6.9l95.6,514.9c-13.5,31-75.3,154.7-75.3,154.7c26-26,81.4-48.7,94-53.6
	l0.4,2l4.4-0.4c19.5,25.2,27.4,117.2,27.4,117.2c0-31.6,24.2-88.2,41-123.7l400.9-38.1c-23.5,82,22.9,126.1,22.9,126.1
	c-56.8-119.9,13.2-147.8,147.3-281.8C1033.5,575,998.8,430.9,851.5,395.1L851.5,395.1z M304.6,775.8L240,805.2l-95.7-515.6
	c42.4-32.9,89.7-93,145.7-148.9c138.4-138.4,199.3-2.9,229,128.5c9.1,40.5,21.6,71.1,37,94.6C424,553.4,304.7,775.8,304.6,775.8
	L304.6,775.8z M822,723.2c-53.3,53.3-80.5,99.2-92.7,137.3l-399.8,37.9c7.5-15.7,13-26,13-26l-14.7-86.2
	c94.9-176.9,177.3-306.8,244.6-401.2c41.8,45.6,100.4,54.3,171.8,60.5C866.2,456.1,993.5,551.8,822,723.2L822,723.2z"/>
</svg>
