<?xml version="1.0" encoding="utf-8"?>
<!-- Generated by IcoMoon.io -->
<!DOCTYPE svg PUBLIC "-//W3C//DTD SVG 1.1//EN" "http://www.w3.org/Graphics/SVG/1.1/DTD/svg11.dtd">
<svg version="1.1" xmlns="http://www.w3.org/2000/svg" xmlns:xlink="http://www.w3.org/1999/xlink" width="32" height="32" viewBox="0 0 32 32">
<path fill="#444444" d="M11.432 7.256c-0.525 0.524-0.962 1.616-0.962 1.616 4.26-1.158 4.5-3.714 4.5-3.714-0.822 1.66-3.538 2.098-3.538 2.098z"></path>
<path fill="#444444" d="M21.388 8.873c0 0-0.437-1.092-0.961-1.616 0 0-2.716-0.437-3.539-2.098 0 0 0.24 2.556 4.5 3.714z"></path>
<path fill="#444444" d="M13.005 9.309c0 0.219 0.699 1.093 0.699 1.093-1.311 0.698-2.796 3.451-2.796 3.451s-0.906 1.228-1.144 3.113c-0.003 0.013-0.004 0.025-0.005 0.038 0 0-0.347 1.764 6.171 1.764s6.171-1.764 6.171-1.764c-0.002-0.013-0.003-0.025-0.005-0.038-0.238-1.884-1.144-3.113-1.144-3.113s-1.485-2.752-2.795-3.451c0 0 0.698-0.875 0.698-1.093 0 0-0.262-0.349-1.18 0.568 0 0-0.295 0.263-1.745 0.263s-1.744-0.263-1.744-0.263c-0.918-0.917-1.18-0.568-1.18-0.568z"></path>
<path fill="#444444" d="M13.411 21.132c-0.199 0.32-0.457 0.777-0.696 1.31 0.171 0.093 0.381 0.194 0.58 0.249 0.204-0.38 0.528-0.893 0.958-1.307 0.123-0.121 0.256-0.231 0.397-0.329-0.365-0.065-0.703-0.159-1.016-0.27-0.057 0.085-0.135 0.203-0.224 0.347z"></path>
<path fill="#444444" d="M10.427 8.306c1.661-3.848 4.239-3.979 4.239-3.979-2.971-1.267-5.855 2.623-5.855 2.623s-1.245 1.727-2.032 2.513c-0.079 0.079-0.147 0.154-0.211 0.229l1.974 0.559c1.923-1.548 1.885-1.946 1.885-1.946z"></path>
<path fill="#444444" d="M12.231 26.315c0.183 0.564 0.521 1.1 1.078 1.562-0.023-0.036-0.403-0.616-0.592-1.54-0.151 0.004-0.33-0.008-0.486-0.022z"></path>
<path fill="#444444" d="M13.038 23.225c0 0 0.036-0.086 0.102-0.228-0.174-0.076-0.373-0.185-0.54-0.281-0.17 0.415-0.322 0.868-0.422 1.338 0.173 0.052 0.371 0.11 0.551 0.157 0.068-0.316 0.167-0.645 0.309-0.985z"></path>
<path fill="#444444" d="M13.322 20.663c-1.704-0.718-2.502-1.959-2.502-1.959s-0.164 0.074-0.49 0.123c-0.294 0.044-0.717 0.068-1.27 0-0.008 0.331 0.003 0.86 0.122 1.214 0.735 0.121 1.524 0.144 2.362 0.030 0.123-0.017 0.245-0.035 0.37-0.057l-1.161 1.049c0.211 0.224 0.506 0.528 0.739 0.731 0.438-0.338 0.92-0.681 1.34-0.91 0.177-0.097 0.342-0.173 0.49-0.221z"></path>
<path fill="#444444" d="M12.684 24.443c-0.177-0.049-0.382-0.12-0.545-0.181-0.105 0.594-0.119 1.208 0.021 1.795 0.155 0.020 0.344 0.040 0.515 0.039-0.076-0.48-0.093-1.040 0.009-1.654z"></path>
<path fill="#444444" d="M9.408 22.275l0.745 0.644c0.004-0.007 0.008-0.015 0.012-0.021 0 0 0.46-0.417 1.059-0.894-0.217-0.212-0.478-0.524-0.67-0.763l-1.146 1.034z"></path>
<path fill="#444444" d="M8.868 24.47l0.726 0.037c0.075-0.46 0.206-0.926 0.42-1.344l-0.832-0.57-0.314 1.876z"></path>
<path fill="#444444" d="M10.446 13.678c-0.675-0.466-1.44-1.751-1.869-2.539l-1.862 0.896 2.585 4.282c0.132-1.053 0.754-2.080 1.147-2.639z"></path>
<path fill="#444444" d="M9.553 24.813l-0.74-0.010-0.002 0.017 0.787 2.183c0 0-0.178-1.032-0.044-2.19z"></path>
<path fill="#444444" d="M9.28 16.877c-0.337-0.080-0.862-0.234-1.474-0.516-0.178 0.276-0.363 0.652-0.365 1.016 0.688 0.376 1.483 0.684 2.401 0.891-0.37-0.424-0.534-0.903-0.562-1.391z"></path>
<path fill="#444444" d="M7.039 18.285c-0.1 0.228-0.248 0.584-0.337 0.926 0.602 0.308 1.262 0.566 1.98 0.73-0.078-0.368-0.039-0.865 0-1.174-0.471-0.085-1.019-0.235-1.643-0.483z"></path>
<path fill="#444444" d="M8.408 10.819c-0.105-0.203-0.165-0.33-0.165-0.33 0.009-0.006 0.017-0.013 0.026-0.021l-2.047-0.292c-0.228 0.403-0.229 0.663-0.229 0.663l0.412 0.686 2.003-0.705z"></path>
<path fill="#444444" d="M7.072 17.162c0.033-0.354 0.182-0.721 0.325-1-0.431-0.226-0.893-0.513-1.357-0.879-0.217 0.137-0.443 0.334-0.558 0.604 0.445 0.458 0.97 0.892 1.59 1.274z"></path>
<path fill="#444444" d="M4.838 17.979c0.436 0.358 0.932 0.712 1.482 1.025 0.053-0.291 0.206-0.652 0.317-0.889-0.422-0.188-0.877-0.416-1.364-0.7-0.134 0.155-0.301 0.362-0.435 0.563z"></path>
<path fill="#444444" d="M4.4 14.515c0.223 0.349 0.481 0.7 0.78 1.043 0.118-0.256 0.315-0.443 0.502-0.574-0.285-0.25-0.568-0.532-0.843-0.848-0.156 0.098-0.32 0.226-0.439 0.378z"></path>
<path fill="#444444" d="M2.565 15.517c0.042 0.067 0.745 1.137 2.002 2.233 0.123-0.184 0.28-0.364 0.415-0.507-0.736-0.448-1.542-1.014-2.417-1.726z"></path>
<path fill="#444444" d="M4.606 13.859c-0.573-0.716-1.101-1.59-1.518-2.665 0.012 0.083 0.216 1.44 1.096 2.966 0.088-0.099 0.224-0.204 0.422-0.301z"></path>
<path fill="#444444" d="M20.361 18.637c-1.573 0.404-4.432 0.524-4.432 0.524s-2.859-0.121-4.432-0.524c0 0 1.057 1.806 4.432 2.032 3.375-0.226 4.432-2.032 4.432-2.032z"></path>
<path fill="#444444" d="M19.143 22.443c-0.239-0.533-0.497-0.99-0.696-1.31-0.089-0.143-0.167-0.262-0.224-0.347-0.312 0.111-0.65 0.204-1.016 0.27 0.141 0.098 0.274 0.208 0.397 0.329 0.43 0.414 0.753 0.927 0.959 1.307 0.199-0.056 0.41-0.157 0.58-0.249z"></path>
<path fill="#444444" d="M21.432 8.306c0 0-0.038 0.397 1.885 1.946l1.973-0.559c-0.064-0.075-0.133-0.15-0.211-0.229-0.786-0.786-2.031-2.513-2.031-2.513s-2.883-3.89-5.855-2.623c0 0 2.578 0.131 4.239 3.979z"></path>
<path fill="#444444" d="M19.142 26.337c-0.189 0.924-0.569 1.505-0.592 1.54 0.557-0.463 0.895-0.998 1.078-1.562-0.156 0.014-0.336 0.026-0.486 0.022z"></path>
<path fill="#444444" d="M19.13 24.211c0.179-0.048 0.378-0.105 0.551-0.157-0.1-0.47-0.252-0.923-0.423-1.338-0.166 0.097-0.365 0.206-0.54 0.281 0.067 0.142 0.102 0.229 0.102 0.229 0.143 0.34 0.242 0.669 0.31 0.986z"></path>
<path fill="#444444" d="M21.107 21.063l-1.161-1.049c0.124 0.022 0.246 0.040 0.37 0.057 0.837 0.113 1.627 0.091 2.362-0.030 0.12-0.354 0.13-0.883 0.122-1.214-0.553 0.068-0.976 0.044-1.27 0-0.327-0.049-0.49-0.123-0.49-0.123s-0.798 1.242-2.503 1.959c0.149 0.049 0.314 0.125 0.49 0.222 0.422 0.229 0.904 0.572 1.341 0.91 0.233-0.204 0.529-0.508 0.74-0.732z"></path>
<path fill="#444444" d="M19.175 24.443c0.103 0.615 0.085 1.173 0.010 1.654 0.17 0.001 0.36-0.019 0.515-0.039 0.14-0.588 0.125-1.201 0.021-1.795-0.164 0.061-0.369 0.131-0.546 0.181z"></path>
<path fill="#444444" d="M21.305 21.241c-0.192 0.238-0.452 0.55-0.67 0.763 0.599 0.477 1.059 0.894 1.059 0.894 0.004 0.006 0.008 0.014 0.012 0.021l0.745-0.644-1.145-1.034z"></path>
<path fill="#444444" d="M22.99 24.47l-0.313-1.877-0.832 0.57c0.214 0.418 0.345 0.884 0.419 1.344l0.726-0.037z"></path>
<path fill="#444444" d="M23.281 11.139c-0.428 0.789-1.194 2.073-1.869 2.539 0.393 0.559 1.015 1.586 1.146 2.639l2.585-4.282-1.863-0.896z"></path>
<path fill="#444444" d="M22.306 24.813c0.134 1.158-0.044 2.19-0.044 2.19l0.786-2.183-0.003-0.017-0.739 0.010z"></path>
<path fill="#444444" d="M22.017 18.268c0.917-0.207 1.713-0.515 2.401-0.891-0.001-0.364-0.188-0.74-0.364-1.016-0.613 0.282-1.137 0.435-1.474 0.516-0.029 0.488-0.193 0.967-0.562 1.391z"></path>
<path fill="#444444" d="M23.177 18.768c0.038 0.308 0.077 0.805 0 1.174 0.716-0.165 1.377-0.422 1.979-0.731-0.089-0.342-0.236-0.698-0.337-0.926-0.624 0.247-1.172 0.398-1.642 0.483z"></path>
<path fill="#444444" d="M23.616 10.489c0 0-0.061 0.127-0.166 0.33l2.003 0.705 0.412-0.686c0 0-0.001-0.259-0.229-0.663l-2.048 0.292c0.009 0.008 0.017 0.015 0.027 0.021z"></path>
<path fill="#444444" d="M24.461 16.162c0.143 0.279 0.292 0.646 0.325 1 0.62-0.382 1.144-0.816 1.59-1.274-0.116-0.27-0.341-0.467-0.559-0.604-0.464 0.365-0.925 0.652-1.356 0.879z"></path>
<path fill="#444444" d="M25.223 18.116c0.11 0.236 0.263 0.598 0.316 0.888 0.551-0.313 1.046-0.667 1.483-1.025-0.134-0.202-0.301-0.408-0.436-0.563-0.486 0.283-0.941 0.512-1.363 0.7z"></path>
<path fill="#444444" d="M26.679 15.558c0.299-0.343 0.557-0.694 0.779-1.043-0.119-0.153-0.283-0.28-0.439-0.379-0.276 0.316-0.558 0.598-0.843 0.848 0.188 0.131 0.384 0.318 0.502 0.574z"></path>
<path fill="#444444" d="M26.877 17.243c0.135 0.143 0.292 0.323 0.416 0.507 1.257-1.096 1.96-2.166 2.002-2.233-0.875 0.712-1.681 1.278-2.417 1.726z"></path>
<path fill="#444444" d="M28.77 11.193c-0.417 1.076-0.945 1.95-1.517 2.665 0.198 0.097 0.332 0.202 0.422 0.301 0.879-1.526 1.084-2.883 1.095-2.966z"></path>
</svg>
