<?xml version="1.0" encoding="utf-8"?>
<!-- Generator: Adobe Illustrator 19.2.1, SVG Export Plug-In . SVG Version: 6.00 Build 0)  -->
<svg version="1.1" id="Calque_1" xmlns="http://www.w3.org/2000/svg" xmlns:xlink="http://www.w3.org/1999/xlink" x="0px" y="0px"
	 viewBox="0 0 1024 1024" enable-background="new 0 0 1024 1024" xml:space="preserve">
<path fill="#444444" d="M965.8,533.6c-5.8-1.7-10.3-2.3-10.3-2.3C959.2,532.2,962.6,533,965.8,533.6z"/>
<path fill="#444444" d="M1008.8,524.9c36.8-33.6,1.1-74.5,1.1-74.5l13-31.6c-176.8,33.5-227.1-188.1-227.1-188.1
	c40.9-9.3,53.9-54,53.9-54C672.9,236.2,671.1,74.2,671.1,74.2c-83.8,83.8-65,169.4-65,169.4c-22.2-37.2-5.3-92.6-5.3-92.6
	S340.3,81.4,240.6,400.4C141,719.3,1.4,732.6,1.4,732.6c39.8,0,163.2-16,271.1-263.6c108-247.7,242-163.9,242-163.9
	S306.1,550.9,442,768.7C578,986.6,862.9,893.5,862.9,893.5C680.4,740.8,730.7,601.1,730.7,601.1C496,658.9,511,444.7,511,444.7
	c20.4,203,225.7,132.2,225.7,132.2c159.2-16.7,176.7,42.6,176.7,42.6c17,48.6-58,58-58,58c48.9,13.9,88-26.6,88-26.6
	c7,47.5-33.5,61.5-33.5,61.5c122.9,11.1,115.5-78.3,72.6-103.4c-36.9-21.6-32.7-41.1-32.7-41.1c3.5-18.9,43.1-2.7,43.1-2.7
	c3.6-19.4-14.7-28.2-27-31.8c-3.2-0.5-6.6-1.3-10.3-2.3c0,0,4.5,0.6,10.3,2.3C994.2,538.1,1008.8,524.8,1008.8,524.9L1008.8,524.9z
	 M793.9,379.6c0,0-50.3,46.5-93.1-18.7c0,0,69-52.1,136,41L793.9,379.6z"/>
</svg>
