<?xml version="1.0" encoding="utf-8"?>
<!-- Generator: Adobe Illustrator 19.2.1, SVG Export Plug-In . SVG Version: 6.00 Build 0)  -->
<svg version="1.1" id="Calque_1" xmlns="http://www.w3.org/2000/svg" xmlns:xlink="http://www.w3.org/1999/xlink" x="0px" y="0px"
	 viewBox="0 0 1024 1024" enable-background="new 0 0 1024 1024" xml:space="preserve">
<path fill="#444444" d="M615.2,456c0,0-27-59.3-110.6-43c0,0-93.7,38.6-106.9,117.1c0,0,38.6,53.6,145.9,11.7
	c0,0-6.7,70.4,145.8,48.6c0,0-83.8-8.4-83.8-50.2c0,0-3.3-36,44.4-45.8c0,0,50.2-11.6,82.1,37.5C732.1,531.9,738.2,450,615.2,456
	L615.2,456z"/>
<path fill="#444444" d="M555.3,399.4c0,0,39.4-61.3,112.3-46.9c0,0-71.5-57.3-152.4,40.6c0,0-124.1-25.6-166,116.9
	c0,0-149.1,35.6-149.1,65.3c0,0,0,21.8,21.8,21.8c0,0,77.9-54,159.2-72.1C381,525.1,414.5,399.5,555.3,399.4L555.3,399.4z"/>
<path fill="#444444" d="M145.3,636c0,11.7,29.7,21.5,29.7,21.5l36.6-52.8l-27.8-13C176.3,599.2,145.3,624.2,145.3,636L145.3,636z"/>
<path fill="#444444" d="M135.4,650.1c0,0-19.1,51-12.9,77.9c0,0,17.5,16.1,27.4,6.2c0,0,24.5-59.5,19-65
	C168.9,669.2,138.4,641.1,135.4,650.1z"/>
<path fill="#444444" d="M121.7,741.9c-15.9,3.7,0.8,80,0.8,80c18.8-8.8,20.5-70.8,20.5-70.8C136.4,740.3,121.7,741.9,121.7,741.9z"
	/>
<path fill="#444444" d="M474.5,378.5C307.3,357.6,296,491.6,296,491.6c-18.8,0-144.5,20.1-144.5,20.1c0,26.4,25.1,37.7,25.1,37.7
	c12.6-12.6,153-44.6,153-44.6c56.6-137,180.1-122.6,180.1-122.6c40.2-59,90.5-57.8,90.5-57.8C521,308.1,474.5,378.5,474.5,378.5
	L474.5,378.5z"/>
<path fill="#444444" d="M116.8,600.1c0,0,8.8,1.3,42.1-44.6c0,0-15.2-43-23.9-32.7l-40.2,47.7l1.3,8.8L116.8,600.1L116.8,600.1z"/>
<path fill="#444444" d="M87.7,592c-9.5,2.7-13.1,23-15.8,30.8c-5.9,16.9-10.4,34.6-10.7,34.5c9.1,3.2,16.2,7.4,26,4.8
	c10.2-2.7,8.8-13.7,12.1-21.2c3.7-8.6,13.5-14.9,14.4-24.7C114.5,607.4,95.7,589.7,87.7,592L87.7,592z"/>
<path fill="#444444" d="M53.4,686.6c-1.7,17.6-4.9,43.7,0.1,61c2.5,8.5,16.8-15.6,18.1-19c4.2-11.3,12.6-29.4,13.1-43.1
	c0.1-2.2,0-4.2-0.4-6.2C80.9,660.1,54.9,671.1,53.4,686.6L53.4,686.6z"/>
<path fill="#444444" d="M282.1,597.2c15.9,15.9,48.6,8.3,48.6,8.3c13.4,0,78.8-45.2,78.8-45.2l-18.4-18.5
	C303.9,541.8,282.1,597.1,282.1,597.2L282.1,597.2z"/>
<path fill="#444444" d="M245.7,723c0,0,44,5.1,49,0c0,0,7.1-74.3,20.1-103.2c0,0-23.9-7.3-37.7-7.3
	C277.1,612.4,219.3,709.2,245.7,723z"/>
<path fill="#444444" d="M299.7,735.4c-12.6-12.6-56.6,16.3-56.6,16.3c-10.7,37,85.4,92.3,102.4,92.3c17,0,30.8-30.8,30.8-30.8
	C334.9,803.2,299.7,735.4,299.7,735.4L299.7,735.4z"/>
<path fill="#444444" d="M371.4,837.2c0,0,36.5,57.8,100.6,35.2c64.1-22.6,189.7,28.9,189.7,28.9
	C480.8,697.6,371.4,837.2,371.4,837.2z"/>
<path fill="#444444" d="M465.7,883.7c-40.3,8.8-76.7-15.1-76.7-15.1c49,119.3,213.7,77.9,213.7,77.9
	C484.5,946.5,465.7,883.7,465.7,883.7z"/>
<path fill="#444444" d="M568.7,404.9c12.6,0,28.9,16.3,28.9,16.3c0-12.4,59.7-30.8,65.3-36.5c5.7-5.6-13.8-21.3-13.8-21.3
	C602.7,363.5,568.7,404.9,568.7,404.9z"/>
<path fill="#444444" d="M675.5,382.3c0,0,28.9-1.2,47.7-1.2c0,0,12.6-25.2,6.3-25.2s-58.1,0.3-65.3,7.5L675.5,382.3L675.5,382.3z"/>
<path fill="#444444" d="M732.1,381.1c2.3,15.4,59.1,11.8,59.1,11.8l13.8-18.1C734.6,335.8,732.1,381.1,732.1,381.1z"/>
<path fill="#444444" d="M881.6,403.6c37.7-11.3,144.5,70.4,144.5,70.4c-133.2-197.3-218.7-88-218.7-88S843.9,415,881.6,403.6z"/>
<path fill="#444444" d="M861.5,413.7c-21.4,0-50.3-15.1-50.3-15.1c3.8,126.9,169.7,90.5,169.7,90.5
	C847.7,477.8,861.5,413.7,861.5,413.7L861.5,413.7z"/>
<path fill="#444444" d="M422.9,148.2c-26.8-10-21.8-33.5-21.8-33.5c16.7-46.9,63.7,31.8,63.7,31.8c-21.9-87.8-73.4-73.3-86-68.3
	c-2.4,5.5-4.4,12.7-5.9,21.2c0.9,0.1,1.4,0.1,1.4,0.1C374.3,144.8,422.9,148.2,422.9,148.2L422.9,148.2z"/>
<path fill="#444444" d="M350.7,389.4c0,0-19.4,2.3-46,1.2c-37.4,19.1-50.7,59-54.9,76.3c20.6,7.4,36.1,14.6,36.1,14.6
	C292.2,412.5,350.7,389.4,350.7,389.4z"/>
<path fill="#444444" d="M206.9,454.1c10.2,2.3,20.7,5.4,30.6,8.6c4.4-15.7,17.9-52.2,52-73c-8.8-0.8-18-2-27.3-3.7
	C223.8,405.9,211,438.4,206.9,454.1z"/>
<path fill="#444444" d="M145.8,451.6c3.5,4.1,3.5,4.1,3.5,4.1c12.9-3.4,34.4-0.5,44.8-4c4.8-16.2,18.6-48.6,53.7-68.7
	c-10.1-2.6-20.2-5.8-29.7-10.1C168.3,388.7,151.5,428.8,145.8,451.6L145.8,451.6z"/>
<path fill="#444444" d="M114.8,400.4c7.1,16.7,15.2,29.9,22,39.5c6.7-20.2,24.7-55.7,70.4-72.5c-7.8-4.2-15-9.3-21.6-15.1
	C145.9,358.4,124.5,384,114.8,400.4L114.8,400.4z"/>
<path fill="#444444" d="M177.2,343.8c-9.3-10.7-16.5-23.8-20.4-39.8c-26.2-4.3-45.7-0.3-58.9,4.8c-0.9,28.6,3.7,53.5,10.4,74.3
	C118.1,370.4,138.8,350.8,177.2,343.8z"/>
<path fill="#444444" d="M154.6,291.7c-1.4-10.9-1.4-22.9,0.3-36.3c1.5-7,3.3-13.6,5.2-19.9c-15-10.8-31-14.3-43.2-14.9
	c-0.1,0.5-0.4,0.9-0.6,1.3c-9.4,24.5-14.6,47.2-16.9,68.3C112.1,287.1,130.4,285.9,154.6,291.7z"/>
<path fill="#444444" d="M355.4,98.8c0.5-7.4,2.2-15.1,3.7-21.1c-24-1.3-61.8,1.3-101.5,14.1c4.3,6.3,9,14.6,11.5,23.2
	C302.9,101.6,335.7,99,355.4,98.8L355.4,98.8z"/>
<path fill="#444444" d="M255.2,120.9c-1.8-9-7.6-18.1-12.2-24.1c-22.1,8.6-44.2,20.6-64.3,37.2c8.2,6.6,18.5,15.3,26.3,22.8
	C220.5,141,237.8,129.4,255.2,120.9z"/>
<path fill="#444444" d="M196.8,166.1c-8.7-7.6-19.9-17-27.7-23.6c-18.3,17.1-34.5,38.4-46.8,65c12,2.4,27.9,7.1,41.5,16.6
	C172.3,200.7,183.7,181.6,196.8,166.1z"/>
<path fill="#444444" d="M419.5,368.5c13.4,0,47,0.8,47,0.8c31.2-46.6,68.7-48.9,68.7-48.9C456.3,297.8,419.5,368.5,419.5,368.5z"/>
<path fill="#444444" d="M460.6,315.7c0,0-62.9-16.8-100.6,66.2c0,0,31.8-11.7,46.9-11.7C407,370.2,434.7,317.4,460.6,315.7z"/>
<path fill="#444444" d="M124.6,478.2c0,0-10,8.4,15.9,28.5c0,0,54.6-10.6,138.3-20.9l-34.4-12.6
	C244.5,473.2,140.6,474.1,124.6,478.2L124.6,478.2z"/>
<path fill="#444444" d="M84.5,514.4c-2,3.3-3.8,6.2-5.5,8.2c-4.7,5.8-10,9.4-10.4,17.8c-0.2,3.8,2.7,7.6,3.9,11
	c1,3.1,1.4,9,4.5,10.2c14,5.4,42.1-32.7,47.2-41.6c5.7-10.1-3.9-24.6-14.6-27.1C99.3,490.5,90.9,504.1,84.5,514.4L84.5,514.4z"/>
<path fill="#444444" d="M55.5,619.1c6.7-11.1,16.8-25,16-38.6c-0.1-2.8-8.6-25.6-8.8-25.4c-13.9,7-22,24.2-27.3,37.8
	c-4.9,12.9-12.7,29.5,7.7,34.4c1.8,0.4,3.2,0.6,4.4,0.4C51.4,627.2,52.7,623.7,55.5,619.1L55.5,619.1z"/>
<path fill="#444444" d="M19.2,639.4c-4.2,7.5-4,21.5-5.1,31.7c-0.2,1.7-0.4,3.2-0.7,4.6c-0.3,1.3,0.3,29.5,6.3,24.4
	c10.4-9,12.3-18.2,16.9-30.5c3.1-8.3,11.9-21.1,6.6-30.2C38.4,630.9,24,630.9,19.2,639.4L19.2,639.4z"/>
<path fill="#444444" d="M117.5,475.2c0,0,28.9-6.9,113.7-6.9c0,0-33.3-9.4-39-9.4c-5.7,0-73.5,1.3-81.7,1.3
	C110.6,460.2,104.7,466.7,117.5,475.2z"/>
<path fill="#444444" d="M60.3,515.8c8.7,8.6,17.6-9.5,22.8-16c5.4-6.7,13.9-10.2,19.7-16.4c6.9-7.5,0.2-16.3-8.5-17.2
	c-14.3-1.3-45.9,33.8-35.5,47.9C59.3,514.8,59.7,515.4,60.3,515.8z"/>
<path fill="#444444" d="M45.8,555.5c5-6.3,15.2-15.1,15.7-23.6c0.6-9.9-12.4-15-19.1-9.4c-6.6,5.5-27.3,38.7-20.6,47.1
	C29.6,579.2,41.5,560.9,45.8,555.5L45.8,555.5z"/>
<path fill="#444444" d="M27.3,585.2c-3.5-8.5-12.2-13.3-16.8-5.3c-3.8,6.6-2.7,15.4-4.7,22.5c-2,7.3-4.4,13.1-3.4,21.3
	c0.6,4.3,13.9-12.2,14.3-12.8C20.9,604.7,30.7,593.4,27.3,585.2z"/>
</svg>
