<?xml version="1.0" encoding="utf-8"?>
<!-- Generator: Adobe Illustrator 19.2.1, SVG Export Plug-In . SVG Version: 6.00 Build 0)  -->
<svg version="1.1" id="Calque_1" xmlns="http://www.w3.org/2000/svg" xmlns:xlink="http://www.w3.org/1999/xlink" x="0px" y="0px"
	 viewBox="0 0 1024 1024" enable-background="new 0 0 1024 1024" xml:space="preserve">
<path fill="#444444" d="M1016.3,292.6c-21.9-51.8-68.2-60.1-68.2-60.1c0,22.1-25.3,32.9-25.3,32.9c12.4-12.3,9.4-38.2,9.4-38.2
	c-56.9-18.6-114.7,5.2-114.7,5.2c15.3,27.2,9.4,52.6,9.4,52.6c-4.6-27.6-28.9-41.6-28.9-41.6c-55.2,19.6-82.7,69.3-82.7,69.3
	c36.8,0,58,26.8,58,26.8c-32.3-17-71.4,0-71.4,0c-16.9,50.3,30,91.8,30,91.8c14.4,12.5,30,19.8,45.1,24.1
	c14.9-9.8,36.7-30.5,43.3-70.6c0,0,12.5,40.4-20.7,74.9c32.9,3.3,59.1-5.9,59.1-5.9c42.8-15.8,60.8-42.8,66.8-70.2
	c-26.8-35.1-71.2-29.4-71.2-29.4s33.2-20.9,73.5,6.2c0.1-37-16.1-69.4-16.1-69.4s-89.2-5.9-96.8,72.2c0,0-28.1-72,80.7-85
	c9.6-0.8,18.3-0.8,26.2,0c99.6,9.3,74.1,132.6,74.1,132.6C1018.8,387.8,1037.3,342.1,1016.3,292.6L1016.3,292.6z"/>
<path fill="#444444" d="M696.9,419.4c-14.5,11-48,32.5-90.3,33.7c25.9-12.3,52.9-30.6,80.3-56.6c-9.8-32.1-2-58.9-2-58.9
	c13.5-40.9,38.1-68.9,64.1-87.9c46.5-33.9,97.4-39.5,97.4-39.5c-33.4-21.2-66.2-31.1-97.4-33.3c2.6,30.7-6.2,60.6-6.2,60.6
	c0-26.8-8.7-46.9-18.1-60.8c-42.4,2.2-81.2,17.9-113.5,37.2c58.5,32.1,58.6,98.4,58.6,98.4c-9.5-47.7-52.7-70.9-84-81.7
	c-44.7,32.2-72.2,66.9-72.2,66.9s-27.4-34.7-72.2-66.9c-31.2,10.7-74.4,34-83.9,81.7c0,0,0-66.2,58.5-98.4
	c-32.4-19.3-71.1-35-113.6-37.2c-9.4,13.9-18.1,34-18.1,60.8c0,0-8.9-29.8-6.3-60.6c-31.1,2.2-63.9,12.1-97.4,33.3
	c0,0,124,13.6,161.5,127.5c0,0,7.7,26.3-1.8,58c12.6,12.6,41.3,38.2,81,56.8c-46.6-1-78.5-23.8-90.6-34.3
	c-7.4,13.2-18.4,26.4-34.6,38.5c0,0-22.1,35.7,28.9,69.7c0,0-8.5-23.8,0-47.6c0,0,6.8,74.8,69.7,83.2s62.9,95.2,62.9,95.2
	s-18.7-45.9-66.2-56.1c-47.6-10.2-47.6-47.6-47.6-47.6S337,618.1,418.6,771c0,0,10.2,76.5,94.9,76.5s94.9-76.5,94.9-76.5
	c81.6-153,74.8-217.5,74.8-217.5s0,37.4-47.6,47.6c-47.6,10.2-66.3,56.1-66.3,56.1s0-86.7,62.9-95.2c62.9-8.5,69.7-83.2,69.7-83.2
	c8.5,23.8,0,47.6,0,47.6c51-34,28.8-69.7,28.8-69.7C715.2,445,704.4,432.2,696.9,419.4L696.9,419.4z M513.5,489
	c0,0-14.7-8.4-23.9-25.2c0,0,23.9,9.3,23.9-7.9c0,17.2,23.8,7.9,23.8,7.9C528.1,480.6,513.5,489,513.5,489z"/>
<path fill="#444444" d="M325.1,339.4c0,0-39.1-17-71.4,0c0,0,21.2-26.8,58-26.8c0,0-27.4-49.7-82.6-69.3c0,0-24.2,14-28.9,41.6
	c0,0-5.9-25.5,9.3-52.6c0,0-57.8-23.8-114.7-5.2c0,0-3,25.9,9.3,38.2c0,0-25.2-10.8-25.2-32.9c0,0-46.3,8.3-68.2,60.1
	c-21,49.5-2.6,95.2,20.4,118.1c0,0-25.5-123.2,73.9-132.6c7.9-0.7,16.7-0.7,26.3,0c108.8,13,80.8,85,80.8,85
	c-7.7-78.2-96.9-72.2-96.9-72.2S99,323.3,99.1,360.3c40.3-27.2,73.6-6.2,73.6-6.2s-44.3-5.7-71.2,29.4c5.9,27.4,24,54.4,66.8,70.2
	c0,0,26.2,9.2,59.1,5.9c-33.2-34.5-20.7-74.9-20.7-74.9c6.6,40.1,28.4,60.8,43.3,70.6c15.1-4.3,30.6-11.7,45.1-24.1
	C295,431.3,341.9,389.7,325.1,339.4L325.1,339.4z"/>
</svg>
