<?xml version="1.0" encoding="utf-8"?>
<!-- Generator: Adobe Illustrator 19.2.1, SVG Export Plug-In . SVG Version: 6.00 Build 0)  -->
<svg version="1.1" id="Calque_1" xmlns="http://www.w3.org/2000/svg" xmlns:xlink="http://www.w3.org/1999/xlink" x="0px" y="0px"
	 viewBox="0 0 1024 1024" enable-background="new 0 0 1024 1024" xml:space="preserve">
<path fill="#444444" d="M411.3,210.1c-164.9-90.7-274.1,79.6-274.1,79.6C53.5,274.2,1.4,381.2,1.4,381.2c19.9-30,63,19.7,63,19.7
	c28.9,19.3,39.8-4.6,41.2-7.9c-7.1,30.8-5.4,59.9,1.3,87.1c4.1,16.6,9.8,33.3,14.2,45.1C164.6,641.4,262.6,693.6,272,699.4
	c0.5,0.3,0.8,0.5,0.8,0.5c20,11.6,32,16.6,32,16.6c7.1,2.7,11.7,5.3,15.1,8.5c10.9,10.1,8.4,26.3,8.4,26.3
	c-16.5,103.1,97.5,141.8,101.3,143.1c-42.7-24.6-21.1-75.6-21.1-75.6c13.4-36.7-13.5-52.4-15.8-53.5l25.6,10.9
	c41.9-44.9,110.8-28.8,110.8-28.8c-43.6-40.7-125.2-26.7-173.5-25c-10.7,0.4-18.8-3.1-24.8-8.8c-7-6.5-11.3-15.8-13.9-25.4
	c0,0-0.1-0.1,0-0.1c-2.2-6.2-4.2-12.2-5.8-18c-4.4-15.2-7.1-29.1-8.6-41.4c-5.1-42.6,3.8-67.2,3.8-67.2l-0.1,0
	c-78.6-5-92.3-66.6-92.3-66.6c23.7,65.1,130.5,52.8,130.5,52.8c-38.8-117.7-120.4-93.3-126.8-91.2c64.1-26.7,95.6,15.1,95.6,15.1
	c-2.4-47.9,45.2-105.6,45.2-105.6c-126.4,80.7-145.9-63.8-146.9-72.4c16.5,82.3,82.2,79.9,82.2,79.9
	C407,359.3,420.1,237.9,420.5,234.2l-48.9,73.2l39.7-97.4V210.1z M308.2,263.9c-13.2,2.6-26.1-6-28.8-19.2
	c-2.6-13.3,6-26.2,19.2-28.8c13.3-2.7,26.2,6,28.8,19.2C330.1,248.3,321.5,261.2,308.2,263.9L308.2,263.9z"/>
<path fill="#444444" d="M609.5,789.2c161.4,96.7,276.9-69.5,276.9-69.5c83,18.6,139-86.4,139-86.4c-21.1,29.2-62.2-22-62.2-22
	c-28.2-20.4-40,3.2-41.4,6.4c8.2-30.5,7.6-59.6,1.9-87.1c-3.5-16.7-8.5-33.6-12.5-45.5c-39.2-117.8-135.3-173.4-144.5-179.6
	c-0.5-0.4-0.8-0.5-0.8-0.5c-19.5-12.4-31.4-17.8-31.4-17.8c-7-2.9-11.5-5.7-14.7-9c-10.5-10.5-7.4-26.6-7.4-26.6
	c20.3-102.5-92.2-145.3-96-146.7c41.7,26.1,18.4,76.4,18.4,76.4c-14.7,36.1,11.6,52.8,13.8,54.1l-25.2-11.8
	C579.8,266.7,511.5,248,511.5,248c42.1,42.2,124.1,31.2,172.5,31.3c10.7,0,18.7,3.8,24.5,9.7c6.7,6.7,10.7,16.2,13,25.9
	c0,0,0,0.1,0,0.1c2,6.2,3.7,12.4,5.2,18.2c3.9,15.3,6,29.3,7.1,41.7c3.5,42.8-6.2,67.1-6.2,67.1l0,0c78.4,7.9,89.9,70,89.9,70
	c-21.3-65.9-128.5-57.5-128.5-57.5c34.5,119,116.9,97.6,123.5,95.7c-65.1,24.4-95-18.5-95-18.5c0.6,47.9-49.1,104-49.1,104
	c129.2-76.1,143.5,69.1,144.2,77.7c-13.6-82.8-79.2-82.8-79.2-82.8c-114.1,9.5-131.7,130.5-132.2,134.1l51.5-71.4L609.5,789.2
	L609.5,789.2z M714.5,739.2c13.3-2.1,25.9,6.9,28,20.3c2.1,13.4-6.9,26-20.2,28.1c-13.4,2.2-26-6.9-28.1-20.2
	C692,754,701.1,741.4,714.5,739.2z"/>
</svg>
