<?xml version="1.0" encoding="utf-8"?>
<!-- Generator: Adobe Illustrator 19.2.1, SVG Export Plug-In . SVG Version: 6.00 Build 0)  -->
<svg version="1.1" id="Calque_1" xmlns="http://www.w3.org/2000/svg" xmlns:xlink="http://www.w3.org/1999/xlink" x="0px" y="0px"
	 viewBox="0 0 1024 1024" enable-background="new 0 0 1024 1024" xml:space="preserve">
<path fill="#444444" d="M832.7,713.7c-13.1,9.3-29.1,4.1-29.1,4.1c-21.6,10.2-35.7,6.9-44.2,0.8c-8.9-6.1-12.1-15.1-12.1-15.1
	s44.4-11.3,47.4-14.2c3.1-3.1,45.8,7.2,49.7,10.8c3.7,3.8,4.7,41.3,4.7,41.3l-18.3,3.8l-10.8-2.5l-3.2-0.7l-1.6-19.1
	C832.1,723,832.7,713.7,832.7,713.7L832.7,713.7z"/>
<path fill="#444444" d="M741.2,822.7c13.1,13.1,25.8-1.9,25.8-1.9c2.7,2.7,9,3.3,9,3.3c-59.1,51.1-39.8,100.3-39.8,100.3
	c-10-73.2,94.9-128.3,94.9-128.3l11.8-11.8h-19c-24,43-49.8,30.8-49.8,30.8s14.4-23.6,22.6-42.6c8.1-19,57-25.3,72.3-25.3
	s10.9,57,10.9,72.3c0,15.3-87.3,138.4-87.3,138.4l-16.6,60.8c-28.3,5.2-57.3,8.4-86.9,9.4c9.6-20.4,23.5-53.2,30.2-86.6
	c0,0-34-59.7-34-88.2c0-28.5,54.3-101.7,39.4-141.1c0,0,15.9-3.2,27.8,6.5c9.8,8.1,16.9,25,10.1,60l-18.6,37.5L741.2,822.7
	L741.2,822.7z"/>
<path fill="#444444" d="M785.3,780.6c-27,52.1-35.4,38.5-35.4,38.5c28-49.9,29.2-67,29.2-67c19.4-7.6,39.3-2.9,39.3-2.9
	c-21.7,7.8-24.4,14.7-24.4,14.7S785.3,780.6,785.3,780.6z"/>
<path fill="#444444" d="M529.1,601.7l-3.4-7.7c15.7-15.7,13.2-35.6,13.2-35.6c1.6-1.5,14.5-5.8,14.5-5.8
	c-43.4,0-79.6,14.5-79.6,14.5C493.6,571.7,527.1,599.9,529.1,601.7L529.1,601.7z M577.9,485.7c-40.6-30-95,19.3-97.6,21.7
	c57.9-34.3,87.6-9,87.6-9C575.2,498.4,577.9,485.7,577.9,485.7z M376.7,948.7c-52.6-30.9-100-70-140.5-115.5
	c8.7-18,23.2-32.3,30.5-51.6c5.6-14.8,0.3-35.6,11.6-47.6c9.1-9.7,25.5-8.9,37.2-13c14.2-5,29.7-11.9,40-23.1
	c15.3-16.7,21.4-43.1,23.9-65c4.5-37.9,3.3-83.6,42.9-105.2c17.3-9.4,34.2-12.5,47.2-28.5c24.4-30-10.9-100,46.3-105.2
	c11.7-1.1,19.7,5.1,29.6-3.8c9.6-8.6,2.2-26.8,17-31.2c14.1-4.2,31,19.5,31.1,32.2c0-0.6,0-1.2,0-1.9v0l5.3-0.2
	c5.3,30.5,12.1,61,12.3,92.2c0,0.3,0,0.8,0,1.2c0,22.2-6.1,37.4-17.8,56c-9.3,14.7-15.5,30.4-15.5,46.7c0,8.1,1.6,16.3,5,24.5
	c4.1,9.6,18.1,18.3,19.1,27.9c0,0.7,0,1.3,0,2c0,16-21,21-31.7,28.1c-15.4,10.2-10.3,22.3-12.3,37.6c-2,15.2-23.5,16.2-26.8,29.1
	c-0.1,0.5-0.1,1-0.1,1.4c0,4.4,5.1,8,5.1,12.2c0,0.3,0,0.7-0.2,1.2c-1.8,7.5-12.8,5.8-18.2,9.9c-7.4,5.5-6.5,9.3-7.8,17.1
	c-3,17.4-3.6,32.9-25.3,36.3c-16.4,2.5-28.1-4.2-41.9-10.7c-28.1-13.4-56.4-21.6-76,10.8c-7.9,13.2-11.5,30.8-11.5,48.8
	c0,21.2,5,42.8,13.8,58.1c2.2,3.8,4.5,7.1,7.1,9.8c2.5,2.8,5.3,5,8.1,6.6c0.7,0.4,1.4,0.9,2.2,1.2l-7.4,13
	C378.2,949.6,377.4,949.1,376.7,948.7z"/>
<path fill="#444444" d="M598.7,389l-5.3,0.2c-0.6-20.3-25-65.1-45.5-39.7c-10.4,13,2.1,26.1-21.6,28.7c-19.6,2.2-41.7,5.2-54.5,22.5
	c-16.3,22.2-1.3,55.7-14.4,80.7c-15.8,30-47.3,30.1-65.2,54.8c-18.7,25.8-26.3,56.3-29.7,87.5c-2.8,26.4-9.5,45.1-26.9,65.4
	c-16.9,19.7-41.6,16.2-62.6,28.4c-21.6,12.5-15.1,25.1-16.5,46c-1.5,23.5-22.2,36.2-33.8,54c-41.6-50.1-75-107.2-98.3-169.4
	c6.6-14.7,17.6-27.4,32.4-33.2c22.4-8.9,48.6,10,72-2.4c29.8-15.7,37.1-57.9,53.9-84.2c19.9-31,31.2-12.4,60.1-20.7
	c23.3-6.8,33.1-40,44.6-58.5c9.9-16.1,25.9-38.8,47.6-42.1c-26.3,3.1-42.1,19.8-60.6,39.2c-11.9,12.6-27.5,38.3-43.8,44.6
	c-13.4,5.1-24-4.2-36.5-0.1c-20.5,6.7-31.7,44.9-41.1,62.2c-10.6,19.4-25.8,44-50.4,45.6c-24.4,1.6-41.3-11.3-64.5,6.1
	c-8.3,6.2-15.1,14.9-20.4,24.7c-20-59.5-30.9-123.3-30.9-189.7c0-2,0.1-3.9,0.1-5.9c34.7-31.9,83.8-47.1,128.8-26
	c24.9,11.6,53.7,8.5,76.6-8.2c27.6-20.2,55.6-58.2,94.5-46.2c19.1,5.8,28.1,7.5,47.3,0c11.7-4.7,28-15.7,36,0.7
	c-16.6-34.1-26.9-6.2-54.6-11.4c-24.9-4.7-40.7-16-66.6-4.5c-33.8,15.1-59.1,47.7-95.9,56.8c-22.3,5.6-39.2-10-60.8-13.2
	c-43.2-6.5-75.6,7.9-104.8,32.6c4.5-108,37.8-208.5,92.4-293.9c59.8,4.3,131.1-6.3,149.7,61.6c8.3,30.3,12.5,79.4,50.3,86.9
	c23,4.5,45.9-12.1,69.7-6.3c16.6,3.9,29.7,17,46.6,20.7c15.6,3.4,48.9,1.9,46.9,26.7c6.6-43.7-17.2-28.3-49.8-42.8
	c-20.6-9.1-19.1-23.1-46.4-22.3c-27.3,0.9-70.2,15.5-83.3-18.8c-12.8-33.4-17.6-87.9-53.8-105.4c-34.1-16.5-78.9-14.1-117.3-19.2
	c24.8-35.6,53.3-68.2,85.1-97.4l1.1,1.1c32,11.6,80.1,20,105.9,43.2c0.7,0.8,1.6,1.6,2.3,2.3c4.9,5.2,6.8,10.6,6.8,16.1
	c0,17.3-18.5,35.4-18.5,53c0,4.7,1.3,9.3,4.7,13.9c1.3,1.7,2.8,3.4,4.3,4.9c19.2,18.1,53.8,11.9,70.4,30.1c3.3,3.8,5.9,8.3,7.4,14.3
	c3.4,12.9,4,19.8,10.4,26.6c3,3.1,7.1,6.1,13.2,9.7c31.3,18.1,71.7,25.7,97.4,52.5c1.7,1.8,3.3,3.7,4.9,5.7
	c17.4,21.7,26,40.4,26,60.6C613.5,353.6,608.5,369.8,598.7,389L598.7,389z"/>
<path fill="#444444" d="M552,981.7c0,11.3-1.4,23-3.5,34.1C488,1002.8,431,980.3,378.9,950l7.4-13c12,6.1,26.3,4.2,41.8-1.7
	c27.5-10.7,55.7-29.4,86.4-19.4c8,2.7,14.5,6.7,19.7,11.8C547.4,940.8,552.1,960.8,552,981.7L552,981.7z"/>
<path fill="#444444" d="M739.9,707.5c0,0,13.3-29.7-16.5-47.7C723.3,659.8,711.4,689.1,739.9,707.5z"/>
<path fill="#444444" d="M773.1,642.3c0,0,6.3,40.4-26.3,48.4C746.8,690.7,738,653.3,773.1,642.3z"/>
<path fill="#444444" d="M742.1,666.3c0,0,12.5-33.2-17.2-42.5C724.9,623.9,713.4,655.2,742.1,666.3z"/>
<path fill="#444444" d="M776.3,609.2c0,0,2.5,35.2-28,36.9C748.3,646.1,739.4,619.3,776.3,609.2z"/>
<path fill="#444444" d="M744.9,627.3c0,0,21-24.1-14.3-44.7C730.6,582.6,717.7,623.6,744.9,627.3z"/>
<path fill="#444444" d="M756.6,609.1c0,0,26,7.5,33.5-47.4C790,561.7,744.5,581.9,756.6,609.1z"/>
<path fill="#444444" d="M752.8,588.8c0,0,21.2-25.4-13.3-56.4C739.5,532.4,717.6,581.4,752.8,588.8z"/>
<path fill="#444444" d="M763.4,568.6c0,0,31.4,1,28.5-49.4C791.9,519.2,751.2,535.8,763.4,568.6z"/>
<path fill="#444444" d="M758.4,542.9c0,0,19.1-19.1-6-52.2C752.4,490.8,730.5,532.3,758.4,542.9z"/>
<path fill="#444444" d="M770,524.8c0,0,25.5,4.1,23.8-45C793.9,479.8,758.4,489.6,770,524.8z"/>
<path fill="#444444" d="M764.6,497.1c0,0,25.3-16.3-5.7-44.8C759,452.2,745.6,487.2,764.6,497.1z"/>
<path fill="#444444" d="M779.2,477.4c0,0,17.2-0.9,16.4-42.5C795.6,434.9,766.1,452.4,779.2,477.4z"/>
<path fill="#444444" d="M772.3,456c0,0,22.6-21.2-5.8-44.2C766.5,411.8,753.2,446.6,772.3,456z"/>
<path fill="#444444" d="M786.4,432.5c0,0,22.5-12.5,7.2-47.9C793.7,384.6,766.7,409.5,786.4,432.5z"/>
</svg>
