<?xml version="1.0" encoding="utf-8"?>
<!-- Generator: Adobe Illustrator 22.0.1, SVG Export Plug-In . SVG Version: 6.00 Build 0)  -->
<svg version="1.1" id="Calque_1" xmlns="http://www.w3.org/2000/svg" xmlns:xlink="http://www.w3.org/1999/xlink" x="0px" y="0px"
	 viewBox="0 0 2223.6 1024" style="enable-background:new 0 0 2223.6 1024;" xml:space="preserve">
<style type="text/css">
	.st0{fill:#444444;}
</style>
<g>
	<g>
		<path class="st0" d="M1974.8,5.1c-23.6,19.5-48.8,44.2-63.3,63.2c-0.2,10.1-0.3,12.2-0.6,18.1c24,2.8,58.8,11.7,58.8,11.7
			L1974.8,5.1z"/>
	</g>
	<g>
		<path class="st0" d="M2055,291c9.5-100.2-54.8-147.9-81.1-162.2c-26.2-14.3-83.5-16.7-83.5-16.7L1888.1,0
			c-28.6,28.3-52.8,55.2-88.2,107.3c-212.2,85.9-359.2,209.3-369.6,410.3c-14.3,276.7,124.8,502.1,387.5,502.1
			c-257.5-238.5-44.2-461.6-44.2-461.6c-100.2-124,7.1-224.2,7.1-224.2c-71.5,157.4,47.7,212.3,112.1,212.3
			c37.9,0,53.5-18.2,59.9-33.2c1.8-11.4,4.5-19.3,4.5-19.3s0,8.9-4.5,19.3c-2.8,17.2-3.7,42.2,9.3,59.4c21.5,28.6,93,85.9,124,100.2
			s35.8-2.4,95.4-38.2c59.6-35.8,35.8-88.3,19.1-114.5C2183.7,493.8,2136.1,388.8,2055,291z"/>
	</g>
	<g>
		<path class="st0" d="M1952.7,513.1c4.5-10.4,4.5-19.3,4.5-19.3S1954.6,501.7,1952.7,513.1z"/>
	</g>
	<path class="st0" d="M463.3,218.8c0,0-48.8-95.6-160.6-95.6C190.9,123.2,0,124.6,0,124.6v889.5h199.5V609.4
		c0,0,110.1-12,114.9,67.6c0,80.4,2,235.2,2,263.8c0,13.1,19.3,73.8,38.2,73.8c11.6,0,186,0.2,186,0.2S502,969.1,502,923.3
		s2-186.1,1-210.5c0-40.7-33.5-164.7-123-163.7c0,0,7.2-1,17.6-4.8c36-12.2,102.2-80.8,102.2-188c0,0-0.8-52.2-7.9-70.5h123v727.9
		h199.3V285.9h149.5V128.3H463.3V218.8z M197.2,478.2V266.4c0,0,113.3-24.6,113.3,104.7C310.4,500.3,197.2,478.2,197.2,478.2z"/>
	<polygon class="st0" points="1171,128 996.4,128 996.4,1015.5 1359.1,1015.5 1359.1,851.7 1171,851.7 	"/>
</g>
</svg>
