<?xml version="1.0" encoding="utf-8"?>
<!-- Generator: Adobe Illustrator 19.2.0, SVG Export Plug-In . SVG Version: 6.00 Build 0)  -->
<svg version="1.1" id="Calque_1" xmlns="http://www.w3.org/2000/svg" xmlns:xlink="http://www.w3.org/1999/xlink" x="0px" y="0px"
	 viewBox="0 0 3873 1024" style="enable-background:new 0 0 3873 1024;" xml:space="preserve">
<g>
	<g>
		<path fill="#444444" d="M1974.8,5.1c-23.6,19.5-48.8,44.2-63.3,63.2c-0.2,10.1-0.3,12.2-0.6,18.1c24,2.8,58.8,11.7,58.8,11.7
			L1974.8,5.1z"/>
	</g>
	<g>
		<path fill="#444444" d="M2055,291c9.5-100.2-54.8-147.9-81.1-162.2c-26.2-14.3-83.5-16.7-83.5-16.7L1888.1,0
			c-28.6,28.3-52.8,55.2-88.2,107.3c-212.2,85.9-359.2,209.3-369.6,410.3c-14.3,276.7,124.8,502.1,387.5,502.1
			c-257.5-238.5-44.2-461.6-44.2-461.6c-100.2-124,7.1-224.2,7.1-224.2c-71.5,157.4,47.7,212.3,112.1,212.3
			c37.9,0,53.5-18.2,59.9-33.2c1.8-11.4,4.5-19.3,4.5-19.3s0,8.9-4.5,19.3c-2.8,17.2-3.7,42.2,9.3,59.4c21.5,28.6,93,85.9,124,100.2
			c31,14.3,35.8-2.4,95.4-38.2c59.6-35.8,35.8-88.3,19.1-114.5C2183.7,493.8,2136.1,388.8,2055,291z"/>
	</g>
	<g>
		<path fill="#444444" d="M1952.7,513.1c4.5-10.4,4.5-19.3,4.5-19.3S1954.6,501.7,1952.7,513.1z"/>
	</g>
	<path fill="#444444" d="M463.3,218.8c0,0-48.8-95.6-160.6-95.6C190.9,123.2,0,124.6,0,124.6v889.5h199.5V609.4
		c0,0,110.1-12,114.9,67.6c0,80.4,2,235.2,2,263.8c0,13.1,19.3,73.8,38.2,73.8c11.6,0,186,0.2,186,0.2S502,969.1,502,923.3
		c0-45.8,2-186.1,1-210.5c0-40.7-33.5-164.7-123-163.7c0,0,7.2-1,17.6-4.8c36-12.2,102.2-80.8,102.2-188c0,0-0.8-52.2-7.9-70.5h123
		v727.9h199.3V285.9h149.5V128.3H463.3V218.8z M197.2,478.2V266.4c0,0,113.3-24.6,113.3,104.7C310.4,500.3,197.2,478.2,197.2,478.2z
		"/>
	<polygon fill="#444444" points="1171,128 996.4,128 996.4,1015.5 1359.1,1015.5 1359.1,851.7 1171,851.7 	"/>
	<path fill="#444444" d="M2556.8,584.4c9.4-10.3,16.7-22.6,21.7-37.1c5.1-14.5,7.6-30.8,7.6-48.9c0-17.9-2.5-34.2-7.6-48.8
		c-5.1-14.5-12.3-26.9-21.7-37.2c-9.4-10.3-20.9-18.2-34.4-23.8c-13.5-5.6-28.6-8.4-45.4-8.4c-16.8,0-31.9,2.8-45.4,8.4
		c-13.5,5.6-25,13.5-34.5,23.8c-9.5,10.3-16.8,22.7-22,37.2c-5.1,14.6-7.7,30.8-7.7,48.8c0,18.1,2.6,34.4,7.7,48.9
		c5.1,14.5,12.4,26.8,22,37.1c9.5,10.3,21,18.1,34.5,23.7c13.5,5.5,28.6,8.2,45.4,8.2c16.7,0,31.8-2.7,45.4-8.2
		C2535.9,602.6,2547.4,594.7,2556.8,584.4z M2447.2,579c-8.4-3.9-15.5-9.5-21.2-16.9c-5.7-7.3-9.9-16.3-12.7-27
		c-2.8-10.7-4.2-22.9-4.2-36.4s1.4-25.8,4.2-36.5c2.8-10.8,7-19.9,12.7-27.3c5.7-7.4,12.7-13,21.2-17c8.4-3.9,18.4-5.9,29.9-5.9
		c22.6,0,39.5,7.6,50.7,22.9c11.2,15.2,16.8,36.5,16.8,63.8c0,27.1-5.6,48.3-16.8,63.5c-11.2,15.2-28.1,22.7-50.7,22.7
		C2465.6,584.9,2455.6,582.9,2447.2,579z"/>
	<path fill="#444444" d="M2658,444.4c8.8-9.8,18.3-17.6,28.6-23.3c10.3-5.7,21.5-8.6,33.4-8.6c16.3,0,28.4,4.8,36.3,14.4
		c7.9,9.6,11.9,23,11.9,40.4v145.9h40.3V467.3c0-13-1.6-24.8-5-35.5c-3.3-10.7-8.2-19.9-14.6-27.5c-6.4-7.6-14.4-13.5-24-17.7
		c-9.6-4.1-20.6-6.2-33.1-6.2c-16.2,0-30.4,3.4-42.6,10.2c-12.3,6.8-23.4,15.7-33.4,26.7l-3.2-24.9c-1.5-5.6-5.1-8.4-10.9-8.4h-24
		v229.2h40.3V444.4z"/>
	<path fill="#444444" d="M2960.7,467.3c6.3-15.5,14.2-27.4,23.7-35.5c9.4-8.1,21.2-12.2,35.2-12.2c7.8,0,13.9,0.7,18.3,2.2
		c4.4,1.4,7.6,2.1,9.7,2.1c3.6,0,5.9-1.9,7-5.7l5.2-30.1c-4.4-2.6-9.1-4.6-14.2-6c-5.1-1.4-10.9-2.1-17.2-2.1
		c-15.5,0-29.1,4.5-40.6,13.5c-11.5,9-21.2,21.5-29.1,37.4l-2.7-35.7c-0.6-4.1-1.7-6.9-3.4-8.6c-1.7-1.7-4.7-2.5-9-2.5h-23.1v229.2
		h40.3V467.3z"/>
	<path fill="#444444" d="M3202.8,614.2c8.5-1.4,16.6-3.6,24.5-6.4c7.9-2.9,15.4-6.5,22.3-11c6.9-4.4,12.9-9.7,17.9-15.7l-11.3-14.7
		c-1.8-2.6-4.4-3.9-7.7-3.9c-2.6,0-5.6,1.2-9.2,3.5c-3.6,2.3-8,4.9-13.2,7.6s-11.6,5.2-18.9,7.6c-7.3,2.3-16,3.5-26.1,3.5
		c-10.9,0-20.7-1.8-29.4-5.3c-8.8-3.5-16.3-8.9-22.6-16.1c-6.3-7.1-11.3-16.1-14.9-26.8c-3.6-10.7-5.6-23.3-5.9-37.8h152.5
		c3.8,0,6.3-1,7.7-3.2c1.3-2.1,2-6.3,2-12.7c0-16.3-2.4-30.8-7.1-43.6c-4.8-12.7-11.4-23.5-19.8-32.1c-8.4-8.7-18.5-15.3-30.1-19.9
		c-11.6-4.6-24.3-6.9-38-6.9c-16.6,0-31.5,2.9-44.8,8.7c-13.3,5.8-24.5,13.8-33.7,24c-9.2,10.2-16.2,22.2-21.1,36.1
		c-4.9,13.9-7.4,28.8-7.4,44.8c0,19.8,2.7,37.2,8.2,52.5c5.4,15.2,13,28,22.7,38.4c9.7,10.3,21.3,18.2,34.6,23.5
		c13.3,5.4,27.9,8,43.8,8C3186,616.3,3194.4,615.6,3202.8,614.2z M3130.4,426.9c11.2-11.3,26.5-16.9,45.9-16.9
		c9.2,0,17.4,1.5,24.5,4.6s13.2,7.5,18.2,13.1c5,5.7,8.7,12.4,11.3,20.1c2.6,7.8,3.8,16.3,3.8,25.7h-124.7
		C3112.3,453.7,3119.3,438.1,3130.4,426.9z"/>
	<path fill="#444444" d="M3279.6,411.9c2,1.6,4.6,2.7,7.8,3.5l25.3,2.9v194.8h40.5V417.7h64.9v-29.2h-66.3v-21c0-9.8,1.1-18,3.3-24.6
		c2.2-6.6,5.3-12,9.4-16.1c4.1-4.1,8.9-7,14.6-8.8c5.7-1.8,11.9-2.7,18.9-2.7h7c4.4,0,7.8-0.3,10.2-0.9c2.4-0.6,3.7-2.4,3.8-5.4
		l0.9-20.1c-8.8-3-18.2-4.5-28.5-4.5c-12.1,0-22.9,1.8-32.6,5.4c-9.7,3.6-17.9,8.9-24.8,16s-12.1,15.6-15.8,25.8
		c-3.7,10.2-5.6,21.8-5.6,35v22.2h-36.2V405C3276.5,408.1,3277.6,410.4,3279.6,411.9z"/>
	<path fill="#444444" d="M3444.6,601.8c5.7,5,12.5,8.7,20.3,11.2c7.8,2.5,16.1,3.7,25,3.7c8.7,0,16.7-0.7,23.9-2.2
		c7.2-1.5,13.9-3.7,20.3-6.7c6.3-2.9,12.3-6.5,18.1-10.9c5.7-4.3,11.6-9.2,17.7-14.6l4.5,21.3c0.8,3.9,2.3,6.5,4.8,7.7
		c2.4,1.2,5.6,1.8,9.5,1.8h17.9V466.6c0-12.8-1.7-24.6-5.2-35.3c-3.5-10.7-8.6-19.8-15.4-27.4c-6.8-7.5-15.2-13.4-25.1-17.7
		c-10-4.2-21.3-6.3-34.2-6.3c-17.8,0-34,3-48.6,9.1c-14.6,6-28.3,15.1-41,27.4l7.2,12.9c1.2,2.1,2.8,3.9,4.9,5.3
		c2,1.4,4.4,2.1,7.1,2.1c3.5,0,7-1.2,10.5-3.7c3.6-2.5,7.8-5.3,12.7-8.4s10.7-5.9,17.4-8.4c6.7-2.5,15-3.7,24.8-3.7
		c14.9,0,26.2,4.6,33.8,13.8c7.6,9.2,11.4,22.7,11.4,40.6v18c-25.9,0-47.9,2.1-65.8,6.2c-17.9,4.2-32.5,9.5-43.5,16
		c-11.1,6.5-19.1,14-24.1,22.4c-5,8.4-7.5,17.2-7.5,26.2c0,10.4,1.7,19.5,5.1,27.1C3434.4,590.5,3438.9,596.8,3444.6,601.8z
		 M3470.1,536.6c3.7-5.2,9.6-9.6,17.8-13.4c8.1-3.8,18.7-6.8,31.7-9.2c13-2.3,28.7-3.5,47.3-3.5v47.3c-4.5,4.8-9.2,9.1-13.9,12.9
		c-4.8,3.8-9.7,7-14.9,9.6s-10.8,4.7-16.6,6.1c-5.9,1.4-12.4,2.1-19.5,2.1c-5.3,0-10.2-0.6-14.7-1.9c-4.5-1.3-8.5-3.3-11.8-6.1
		c-3.3-2.8-6-6.4-7.9-10.8s-2.9-9.6-2.9-15.7C3464.6,547.6,3466.4,541.8,3470.1,536.6z"/>
	<path fill="#444444" d="M3703.2,312.1c0-3.9-0.8-7.7-2.4-11.2s-3.7-6.6-6.3-9.3c-2.6-2.6-5.7-4.7-9.2-6.2c-3.5-1.5-7.2-2.3-11.1-2.3
		c-3.9,0-7.6,0.7-11,2.3c-3.4,1.5-6.4,3.6-9.1,6.2c-2.6,2.7-4.7,5.8-6.2,9.3c-1.5,3.5-2.3,7.3-2.3,11.2c0,3.9,0.8,7.6,2.3,11
		c1.5,3.4,3.6,6.4,6.2,9c2.6,2.6,5.7,4.7,9.1,6.2c3.4,1.5,7,2.3,11,2.3c3.9,0,7.6-0.7,11.1-2.3c3.5-1.5,6.5-3.6,9.2-6.2
		c2.6-2.6,4.7-5.7,6.3-9C3702.4,319.6,3703.2,316,3703.2,312.1z"/>
	<rect x="3653.9" y="384" fill="#444444" width="40.3" height="229.2"/>
	<path fill="#444444" d="M3726.5,415.6c1.6,1.4,3.7,2.2,6.1,2.2h27.6V558c0,19,4.9,33.6,14.6,43.7c9.7,10.1,23.7,15.1,41.8,15.1
		c10.4,0,20.5-1.8,30.3-5.5c9.8-3.7,18.2-8.8,25.1-15.3l-11.8-19.2c-1.6-2.6-3.5-3.9-5.7-3.9c-1.2,0-2.6,0.6-4.2,1.7
		c-1.6,1.1-3.5,2.4-5.8,3.7c-2.3,1.3-4.9,2.6-8,3.7c-3.1,1.1-6.7,1.7-11,1.7c-7.4,0-13.4-2.3-18.1-7c-4.7-4.7-7-11.9-7-21.5V417.7
		h65.6v-29.2h-65.6v-78.9h-20.4c-2.6,0-4.7,0.7-6.3,2.1c-1.7,1.4-2.6,3.3-2.9,5.6l-9.3,70.8l-37.5,4.8v16.1
		C3724,411.9,3724.9,414.1,3726.5,415.6z"/>
	<rect x="1938.2" y="687.1" fill="#444444" width="40.3" height="333.3"/>
	<path fill="#444444" d="M2190.2,814.4c-8.4-8.7-18.5-15.3-30.1-19.9c-11.6-4.6-24.3-6.9-38-6.9c-16.6,0-31.5,2.9-44.8,8.7
		c-13.3,5.8-24.5,13.8-33.7,24c-9.2,10.2-16.2,22.2-21.1,36.1c-4.9,13.9-7.4,28.8-7.4,44.8c0,19.8,2.7,37.2,8.2,52.5
		c5.4,15.2,13,28,22.7,38.4c9.7,10.3,21.3,18.2,34.6,23.5c13.3,5.4,27.9,8,43.8,8c8.3,0,16.7-0.7,25.1-2.1
		c8.5-1.4,16.6-3.6,24.5-6.4s15.4-6.5,22.3-11c6.9-4.4,12.9-9.7,17.9-15.7l-11.3-14.7c-1.8-2.6-4.4-3.9-7.7-3.9
		c-2.6,0-5.6,1.2-9.2,3.5c-3.6,2.3-8,4.9-13.2,7.6c-5.3,2.7-11.6,5.2-18.9,7.6c-7.3,2.3-16,3.5-26.1,3.5c-10.9,0-20.7-1.8-29.4-5.3
		c-8.8-3.5-16.3-8.9-22.6-16.1c-6.3-7.1-11.3-16.1-14.9-26.8c-3.6-10.7-5.6-23.3-5.9-37.8h152.5c3.8,0,6.3-1,7.7-3.2
		c1.3-2.1,2-6.3,2-12.7c0-16.3-2.4-30.8-7.1-43.6C2205.3,833.8,2198.7,823.1,2190.2,814.4z M2056.3,880.8
		c2.7-19.9,9.7-35.5,20.8-46.7c11.2-11.3,26.5-16.9,45.9-16.9c9.2,0,17.4,1.5,24.5,4.6s13.2,7.5,18.2,13.1c5,5.7,8.7,12.4,11.3,20.1
		c2.6,7.8,3.8,16.3,3.8,25.7H2056.3z"/>
	<path fill="#444444" d="M2376,910c-5.6-4.5-11.9-8.3-19-11.3c-7.1-3-14.4-5.8-21.8-8.3c-7.5-2.5-14.7-4.8-21.8-7
		c-7.1-2.2-13.4-4.7-19-7.6c-5.6-2.9-10.1-6.2-13.5-10.2c-3.4-3.9-5.1-8.8-5.1-14.7c0-4.7,1-9,3-13c2-4,5-7.5,8.8-10.5
		c3.8-3,8.5-5.4,13.9-7.1c5.5-1.7,11.6-2.6,18.3-2.6c7.8,0,14.6,0.9,20.3,2.6c5.8,1.7,10.7,3.6,14.8,5.7c4.1,2,7.6,3.9,10.5,5.6
		c2.9,1.7,5.4,2.5,7.7,2.5c3.8,0,6.6-1.7,8.4-5l9.1-14.7c-8.8-8.3-19.1-14.8-31.1-19.6c-12-4.7-25.5-7.1-40.6-7.1
		c-13,0-24.5,1.8-34.6,5.4c-10.1,3.6-18.6,8.5-25.6,14.6c-6.9,6.1-12.2,13.2-15.8,21.3c-3.6,8.1-5.4,16.5-5.4,25.2
		c0,9.8,1.7,18.1,5.1,25c3.4,6.9,7.9,12.6,13.5,17.3s12,8.6,19.1,11.7c7.1,3.1,14.5,5.9,21.9,8.3c7.5,2.4,14.8,4.7,22,6.9
		c7.1,2.2,13.5,4.8,19.1,7.7c5.6,2.9,10.1,6.5,13.4,10.6c3.4,4.2,5.1,9.4,5.1,15.7c0,5.1-0.9,9.9-2.8,14.5c-1.9,4.5-4.8,8.5-8.7,12
		c-3.9,3.5-8.8,6.2-14.7,8.3c-5.9,2-12.7,3-20.6,3c-9.2,0-16.9-1-23-3.2c-6.1-2.1-11.3-4.5-15.6-7c-4.3-2.6-7.9-4.9-11-7
		c-3-2.1-5.9-3.2-8.6-3.2c-2.7,0-4.9,0.5-6.5,1.6c-1.7,1-3.1,2.6-4.3,4.5l-9.5,15.4c9.1,8.1,20.1,14.8,33,20
		c13,5.2,27.5,7.8,43.4,7.8c14,0,26.4-1.9,37.1-5.7c10.7-3.8,19.8-8.9,27.2-15.5c7.4-6.6,13-14.3,16.7-23.3c3.8-9,5.7-18.7,5.7-29.3
		c0-9.2-1.7-17.1-5.1-23.7C2386,920.1,2381.5,914.5,2376,910z"/>
	<path fill="#444444" d="M2648.3,969.7c-2.7,0-5.4,1.2-8.1,3.5c-2.7,2.3-6.2,5-10.4,7.8c-4.2,2.9-9.5,5.5-15.8,7.8
		c-6.3,2.3-14.4,3.5-24.2,3.5c-10.3,0-19.5-1.9-27.7-5.8c-8.2-3.8-15.2-9.4-20.9-16.7c-5.7-7.3-10.2-16.4-13.3-27.1
		c-3.2-10.8-4.8-23.1-4.8-37c0-13.3,1.5-25.3,4.4-36c2.9-10.7,7.3-19.8,13.1-27.4c5.8-7.5,13-13.3,21.6-17.3c8.6-4,18.5-6,29.6-6
		c8.4,0,15.6,0.9,21.4,2.8c5.8,1.9,10.7,4,14.8,6.2c4.1,2.3,7.4,4.3,10.1,6.2c2.6,1.9,5.1,2.8,7.4,2.8c2.3,0,4-0.4,5.2-1.3
		c1.2-0.9,2.4-2.2,3.6-3.9l10.6-14.5c-9.5-9.5-20.4-16.9-32.8-22.1c-12.3-5.2-26.5-7.8-42.5-7.8c-17.4,0-32.7,2.9-46.2,8.8
		c-13.4,5.9-24.7,14.1-33.8,24.5c-9.1,10.5-16.1,23-20.8,37.4c-4.8,14.5-7.1,30.2-7.1,47.3c0,18.7,2.6,35.4,7.8,50
		c5.2,14.6,12.3,27,21.4,37c9,10,19.7,17.7,32,23c12.3,5.3,25.6,7.9,39.9,7.9c16.6,0,32.4-2.8,47.3-8.5
		c14.9-5.7,27.4-14.6,37.3-26.8l-11.3-14.7C2654.4,971,2651.8,969.7,2648.3,969.7z"/>
	<path fill="#444444" d="M2863.6,819.7c-9.4-10.3-20.9-18.2-34.4-23.8c-13.5-5.6-28.6-8.4-45.4-8.4c-16.8,0-31.9,2.8-45.4,8.4
		c-13.5,5.6-25,13.5-34.5,23.8c-9.5,10.3-16.8,22.7-22,37.2c-5.1,14.6-7.7,30.8-7.7,48.8c0,18.1,2.6,34.4,7.7,48.9
		c5.1,14.5,12.4,26.8,22,37.1c9.5,10.3,21,18.1,34.5,23.7c13.5,5.5,28.6,8.2,45.4,8.2c16.7,0,31.8-2.7,45.4-8.2
		c13.5-5.5,24.9-13.4,34.4-23.7c9.4-10.3,16.7-22.6,21.7-37.1c5.1-14.5,7.6-30.8,7.6-48.9c0-17.9-2.5-34.2-7.6-48.8
		C2880.2,842.4,2873,830,2863.6,819.7z M2834.5,969.4c-11.2,15.2-28.1,22.7-50.7,22.7c-11.5,0-21.4-2-29.9-5.9
		c-8.4-3.9-15.5-9.5-21.2-16.9c-5.7-7.3-9.9-16.3-12.7-27c-2.8-10.7-4.2-22.9-4.2-36.4s1.4-25.8,4.2-36.5c2.8-10.8,7-19.9,12.7-27.3
		c5.7-7.4,12.7-13,21.2-17c8.4-3.9,18.4-5.9,29.9-5.9c22.6,0,39.5,7.6,50.7,22.9s16.8,36.5,16.8,63.8
		C2851.3,933.1,2845.7,954.2,2834.5,969.4z"/>
	<path fill="#444444" d="M3069.6,960.2c-8.8,10-18.3,17.7-28.7,23.3c-10.4,5.6-21.5,8.4-33.3,8.4c-16.2,0-28.2-4.8-36.2-14.2
		c-8-9.5-12-22.9-12-40.3V791.2h-40.3v146.1c0,13,1.6,24.8,4.9,35.5c3.2,10.7,8.1,19.8,14.6,27.4c6.5,7.5,14.5,13.4,24.1,17.5
		c9.6,4.2,20.6,6.2,33.1,6.2c16,0,30.2-3.3,42.5-10.1c12.3-6.7,23.5-15.6,33.5-26.6l3.2,24.7c1.5,5.6,5.1,8.4,10.9,8.4h24V791.2
		h-40.3V960.2z"/>
	<path fill="#444444" d="M3265.9,787.1c-15.5,0-29.1,4.5-40.6,13.5c-11.5,9-21.2,21.5-29.1,37.4l-2.7-35.7c-0.6-4.1-1.7-6.9-3.4-8.6
		c-1.7-1.7-4.7-2.5-9-2.5H3158v229.2h40.3V874.5c6.3-15.5,14.2-27.4,23.7-35.5c9.4-8.1,21.2-12.2,35.2-12.2c7.8,0,13.9,0.7,18.3,2.2
		c4.4,1.4,7.6,2.1,9.7,2.1c3.6,0,6-1.9,7-5.7l5.2-30.1c-4.4-2.6-9.1-4.6-14.2-6C3278,787.9,3272.3,787.1,3265.9,787.1z"/>
	<path fill="#444444" d="M3447.8,910c-5.6-4.5-11.9-8.3-19-11.3c-7.1-3-14.4-5.8-21.8-8.3c-7.5-2.5-14.7-4.8-21.8-7s-13.4-4.7-19-7.6
		c-5.6-2.9-10.1-6.2-13.5-10.2c-3.4-3.9-5.1-8.8-5.1-14.7c0-4.7,1-9,3-13c2-4,5-7.5,8.8-10.5c3.8-3,8.5-5.4,13.9-7.1
		c5.5-1.7,11.6-2.6,18.3-2.6c7.8,0,14.6,0.9,20.3,2.6c5.8,1.7,10.7,3.6,14.8,5.7c4.1,2,7.6,3.9,10.5,5.6c2.9,1.7,5.4,2.5,7.7,2.5
		c3.8,0,6.6-1.7,8.4-5l9.1-14.7c-8.8-8.3-19.1-14.8-31.1-19.6c-12-4.7-25.5-7.1-40.6-7.1c-13,0-24.5,1.8-34.6,5.4
		c-10.1,3.6-18.6,8.5-25.6,14.6c-6.9,6.1-12.2,13.2-15.8,21.3c-3.6,8.1-5.4,16.5-5.4,25.2c0,9.8,1.7,18.1,5.1,25
		c3.4,6.9,7.9,12.6,13.5,17.3c5.6,4.7,11.9,8.6,19.1,11.7c7.1,3.1,14.5,5.9,21.9,8.3s14.8,4.7,22,6.9c7.1,2.2,13.5,4.8,19.1,7.7
		c5.6,2.9,10.1,6.5,13.4,10.6c3.4,4.2,5.1,9.4,5.1,15.7c0,5.1-0.9,9.9-2.8,14.5c-1.9,4.5-4.8,8.5-8.7,12c-3.9,3.5-8.8,6.2-14.7,8.3
		c-5.9,2-12.7,3-20.6,3c-9.2,0-16.9-1-23-3.2c-6.1-2.1-11.3-4.5-15.6-7c-4.3-2.6-7.9-4.9-11-7c-3-2.1-5.9-3.2-8.6-3.2
		s-4.9,0.5-6.5,1.6c-1.7,1-3.1,2.6-4.3,4.5l-9.5,15.4c9.1,8.1,20.1,14.8,33,20c13,5.2,27.5,7.8,43.4,7.8c14,0,26.4-1.9,37.1-5.7
		c10.7-3.8,19.8-8.9,27.2-15.5c7.4-6.6,13-14.3,16.7-23.3c3.8-9,5.7-18.7,5.7-29.3c0-9.2-1.7-17.1-5.1-23.7
		C3457.9,920.1,3453.4,914.5,3447.8,910z"/>
	<path fill="#444444" d="M3659.3,814.4c-8.4-8.7-18.5-15.3-30.1-19.9c-11.6-4.6-24.3-6.9-38-6.9c-16.6,0-31.5,2.9-44.8,8.7
		c-13.3,5.8-24.5,13.8-33.7,24c-9.2,10.2-16.2,22.2-21.1,36.1c-4.9,13.9-7.4,28.8-7.4,44.8c0,19.8,2.7,37.2,8.2,52.5
		s13,28,22.7,38.4c9.7,10.3,21.3,18.2,34.6,23.5c13.3,5.4,27.9,8,43.8,8c8.3,0,16.7-0.7,25.1-2.1c8.5-1.4,16.6-3.6,24.5-6.4
		s15.4-6.5,22.3-11c6.9-4.4,12.9-9.7,17.9-15.7l-11.3-14.7c-1.8-2.6-4.4-3.9-7.7-3.9c-2.6,0-5.6,1.2-9.2,3.5
		c-3.6,2.3-8,4.9-13.2,7.6c-5.3,2.7-11.6,5.2-18.9,7.6c-7.3,2.3-16,3.5-26.1,3.5c-10.9,0-20.7-1.8-29.4-5.3
		c-8.8-3.5-16.3-8.9-22.6-16.1c-6.3-7.1-11.3-16.1-14.9-26.8c-3.6-10.7-5.6-23.3-5.9-37.8h152.5c3.8,0,6.3-1,7.7-3.2
		c1.3-2.1,2-6.3,2-12.7c0-16.3-2.4-30.8-7.1-43.6C3674.4,833.8,3667.8,823.1,3659.3,814.4z M3525.4,880.8
		c2.7-19.9,9.7-35.5,20.8-46.7c11.2-11.3,26.5-16.9,45.9-16.9c9.2,0,17.4,1.5,24.5,4.6s13.2,7.5,18.2,13.1c5,5.7,8.7,12.4,11.3,20.1
		c2.6,7.8,3.8,16.3,3.8,25.7H3525.4z"/>
	<path fill="#444444" d="M3845.1,910c-5.6-4.5-11.9-8.3-19-11.3c-7.1-3-14.4-5.8-21.8-8.3c-7.5-2.5-14.7-4.8-21.8-7s-13.4-4.7-19-7.6
		c-5.6-2.9-10.1-6.2-13.5-10.2c-3.4-3.9-5.1-8.8-5.1-14.7c0-4.7,1-9,3-13c2-4,5-7.5,8.8-10.5c3.8-3,8.5-5.4,13.9-7.1
		c5.5-1.7,11.6-2.6,18.3-2.6c7.8,0,14.6,0.9,20.3,2.6c5.8,1.7,10.7,3.6,14.8,5.7c4.1,2,7.6,3.9,10.5,5.6c2.9,1.7,5.4,2.5,7.7,2.5
		c3.8,0,6.6-1.7,8.4-5l9.1-14.7c-8.8-8.3-19.1-14.8-31.1-19.6c-12-4.7-25.5-7.1-40.6-7.1c-13,0-24.5,1.8-34.6,5.4
		c-10.1,3.6-18.6,8.5-25.6,14.6c-6.9,6.1-12.2,13.2-15.8,21.3c-3.6,8.1-5.4,16.5-5.4,25.2c0,9.8,1.7,18.1,5.1,25
		c3.4,6.9,7.9,12.6,13.5,17.3c5.6,4.7,11.9,8.6,19.1,11.7c7.1,3.1,14.5,5.9,21.9,8.3s14.8,4.7,22,6.9c7.1,2.2,13.5,4.8,19.1,7.7
		c5.6,2.9,10.1,6.5,13.4,10.6c3.4,4.2,5.1,9.4,5.1,15.7c0,5.1-0.9,9.9-2.8,14.5c-1.9,4.5-4.8,8.5-8.7,12c-3.9,3.5-8.8,6.2-14.7,8.3
		c-5.9,2-12.7,3-20.6,3c-9.2,0-16.9-1-23-3.2c-6.1-2.1-11.3-4.5-15.6-7c-4.3-2.6-7.9-4.9-11-7c-3-2.1-5.9-3.2-8.6-3.2
		c-2.7,0-4.9,0.5-6.5,1.6c-1.7,1-3.1,2.6-4.3,4.5l-9.5,15.4c9.1,8.1,20.1,14.8,33,20c13,5.2,27.5,7.8,43.4,7.8
		c14,0,26.4-1.9,37.1-5.7c10.7-3.8,19.8-8.9,27.2-15.5c7.4-6.6,13-14.3,16.7-23.3c3.8-9,5.7-18.7,5.7-29.3c0-9.2-1.7-17.1-5.1-23.7
		C3855.2,920.1,3850.7,914.5,3845.1,910z"/>
</g>
</svg>
