<?xml version="1.0" encoding="utf-8"?>
<!-- Generator: Adobe Illustrator 21.1.0, SVG Export Plug-In . SVG Version: 6.00 Build 0)  -->
<svg version="1.1" id="Calque_1" xmlns="http://www.w3.org/2000/svg" xmlns:xlink="http://www.w3.org/1999/xlink" x="0px" y="0px"
	 viewBox="0 0 1024 244" style="enable-background:new 0 0 1024 244;" xml:space="preserve">
<g>
	<path d="M595.5,78.3c-16.8,0-33.6,0-50.2,0c9.3-22.9,7.6-52.9,27.3-65.2c10.3-6.3,24.8-7.5,43.1-7.2
		C608.7,30,601.7,53.9,595.5,78.3z"/>
	<path d="M238.2,78.8c-15.8-1.1-33.7-0.2-50.2-0.5c2-10.3,3.8-27.1-4.8-31.1c-7.6-3.5-24.3-0.9-36.4-0.9c-13.6,0-26.8,0-37.3,0
		c-3.2,10.3-6.3,20.8-8.6,32.1c-16.8,0-33.6,0-50.2,0c4.3-15.3,9-30.2,12.5-46.4c-8.8-2.4-20.3-5.6-30.2-8.2
		c-9.7-2.5-21.6-3.9-20.6-17.3c45.4,0,98.3,0,146.1,0c23.2,0,52.6-3.8,66.6,5.7c16.4,11,19.2,40.1,13.4,65.2
		C238.5,77.8,239,78.7,238.2,78.8z"/>
	<path d="M342.2,78.3c-26.5,0-53,0-79.5,0c7.1-23.5,13.4-47.9,20.2-71.8c20.1-0.9,34.1,1.1,41.2,13.4c4.1,7.1,6,18.1,9.1,28.2
		C336.3,59.3,339.3,69.7,342.2,78.3z"/>
	<path d="M513.5,78.3c-28.8,0-57.8,0-86.7,0c12.6-15,25.8-31,38.8-47c4.2-5.1,8.2-11.5,12.9-15.3C491,6,510,6.5,533.2,6.4
		C526.5,30.3,519.7,54,513.5,78.3z"/>
	<path d="M50.5,78.3c16.8,0,33.6,0,50.2,0c-3.3,12.6-6.8,24.9-10,37.3c11.9,0.9,24.2,0.5,36.8,0.5c12.5,0,26.7,2.4,37.3-0.5
		c9.1-2.5,16.7-16.7,20.2-25.9c1.4-3.8,1.8-7.5,2.9-11.5c16.6,0.3,34.5-0.6,50.2,0.5c-8.3,31.1-22.2,54.5-48.4,67.5
		s-70.4,4.9-108.7,7.2c-11.2,23-9,61-28.2,75.2c-10.4,7.8-25.7,9.3-45.9,8.6C21.2,184.2,35.5,130.9,50.5,78.3z"/>
	<path d="M262.7,78.3c26.5,0,53,0,79.5,0c0.2,0,0.3,0,0.5,0c7.2,25.2,14.9,49.5,22,74.7c21.6-24,40.9-50.4,62.3-74.7
		c28.8,0,57.8,0,86.7,0c-8.9,32.7-20.1,73.4-29.7,108.7c-4.8,17.6-7.9,36-21.1,44.1c-10.2,6.2-25.4,6.6-41.6,6.2
		c11.9-44,24-87.7,36.4-131.3c-24.8,28.3-50.8,63-76.1,93.8c-3.9,4.7-8,10.2-12,12.5c-6.6,3.7-28.1,5.3-34.5,0.5
		c-5.4-4.1-7.1-17.4-9.6-25.9c-8-27.1-16.3-54.2-24.5-80.4c-7,28.8-16.5,62.3-24.9,92.9c-3,10.7-5.5,20.3-12,26.8
		c-9.9,10.1-25.4,11.7-45.5,11C233,184.1,247.7,131.1,262.7,78.3z"/>
	<path d="M545.1,78.3c16.8,0,33.6,0,50.2,0c-6.6,23.3-13.7,50.5-21.1,76.6c-2.1,7.8-7.5,19-6.8,25.9c1.4,11.8,22.5,14.7,35.4,15.8
		c1.4,0.8,6.2,0.8,7.7,0c8.8,0.3,16.7-1.7,23.9-3.8c6.4-1.8,14.4-3.8,18.7-8.6c4.6-5.3,6.6-16.9,9.1-25.4c7.5-26.5,15.2-55.4,22-80
		c15.9-1.1,33.7-0.2,50.2-0.5c-7.4,28.2-15.4,55.8-23,83.8c-32.6-0.7-54.1,27.8-43.6,61.3c-37.6,19.7-110.7,22-137.9-7.7
		c-7.4-8.1-13.6-19.6-12.5-35.9c0.6-8.5,3.8-17.3,6.2-25.9C530.6,130.7,538.8,100.7,545.1,78.3z"/>
	<path d="M848.3,82.7c1.6-0.8,6.5-0.8,8.2,0C853.7,82.7,851,82.7,848.3,82.7z"/>
	<path d="M962.8,82.7c1.4-0.8,6.2-0.8,7.7,0C967.9,82.7,965.3,82.7,962.8,82.7z"/>
	<path d="M807.6,170.3c-2.9,9.9-6.5,23-9.6,34.5c-3,11.3-5,22.9-10.5,32.1c-7.4,0.5-18.8,1.3-25.4-0.5c-0.2-7.9,3.1-15.6,5.2-23.4
		c6.1-22.5,12.3-46.4,18.7-69.5c9.6-34.3,17.6-61.4,62.3-60.8c2.8,0,5.4,0,8.2,0c13.5,0.3,27.3,0.2,36.8,4.3
		c-2.5,4.8-1.2,16.1-6.2,19.1c-4.7,3-19.3,0.9-27.7,0.9c-13.2,0-25.8-1.6-32.1,3.8c-9.4,8.2-7.9,21.9-12.9,35.4
		c-0.5,0-0.4,0.6-0.5,0.9c19.1,0,38.3,0,57.5,0c4.7,0.1-0.9,22.4-6.2,22.5C846,170.2,825.8,169.2,807.6,170.3z"/>
	<path d="M970.4,82.7c23.9,0.8,44.2,6.9,46.4,28.2c1.5,14.8-4.9,30.4-12,40.2c-7.7,10.7-19,17.7-30.2,21.6
		c2.5,10.9,5.3,21.5,8.2,32.1c2.8,10.2,7,20.6,7.2,31.6c-8,1.8-21,1-29.7,0.5c-5.7-19.3-10.5-39.6-16.3-58.9
		c-7.6,0.4-13.7-0.7-21.1-0.5c-3.2,9.5-5.8,19.8-8.6,30.2c-2.7,10.1-4.7,20.9-9.6,29.3c-7.5,0.5-19.1,1.3-25.9-0.5
		c1.3-12.5,5.6-25.1,9.1-37.9c8.4-30.5,17.1-61.4,25.9-93.4c1.3-4.9,3.1-15.2,5.7-17.7c3.6-3.3,13.6-3.3,20.2-3.8
		c8.4-0.7,15.8-1,23-0.9C965.3,82.7,967.9,82.7,970.4,82.7z M987.2,124.4c1.8-21.6-26.5-17.1-45.5-16.8c-3.8,16-8.8,30.8-12.5,47
		C961.6,158.5,984.9,151.1,987.2,124.4z"/>
	<path d="M814.3,146.3c17.9,1.4,39.1-0.5,57,0.9c-19.1,0-38.3,0-57.5,0C813.9,147,813.8,146.3,814.3,146.3z"/>
	<path d="M807.6,170.3c18.2-1.1,38.5-0.2,57.5-0.5C846.8,170.9,826.6,170,807.6,170.3z"/>
	<path d="M707,174.6c20.3-1.8,35.9,13.2,35,33c-0.7,16.5-14.1,29.1-30.2,29.7c-20.9,0.9-35.8-16.4-33-36.4
		C680.6,187.7,693,175.9,707,174.6z"/>
	<path d="M603.2,196.7c2.6,0,5.1,0,7.7,0C609.3,197.4,604.6,197.4,603.2,196.7z"/>
	<path d="M734.8,78.3c-16.6,0.3-34.5-0.6-50.2,0.5c9.7-19.4,8-45.9,22-60.4C716.8,7.9,732.5,5.6,754.5,6
		C747.9,30.1,741,53.9,734.8,78.3z"/>
</g>
</svg>
