<?xml version="1.0" encoding="utf-8"?>
<!-- Generator: Adobe Illustrator 19.2.1, SVG Export Plug-In . SVG Version: 6.00 Build 0)  -->
<svg version="1.1" id="Calque_1" xmlns="http://www.w3.org/2000/svg" xmlns:xlink="http://www.w3.org/1999/xlink" x="0px" y="0px"
	 viewBox="0 0 1024 1024" enable-background="new 0 0 1024 1024" xml:space="preserve">
<path fill="#444444" d="M623,203.1c11.1,2.4,22.1-5.4,24.8-16.6L674,42.7c2.1-11.2-5.1-22.1-16.9-24.3C646,16.2,635,23.7,633,35.1
	L606.1,179C604,190.2,611.9,201.1,623,203.1L623,203.1z"/>
<path fill="#444444" d="M445.5,202.2c4,11,15.6,16.9,26.6,12.9c10.9-4,16.5-15.9,12.9-26.8L436,50.5c-3.6-11-15.6-16.6-26.5-12.8
	c-10.9,3.9-16.5,15.8-12.9,26.7L445.5,202.2L445.5,202.2z"/>
<path fill="#444444" d="M317.9,303.1c8.6,7.5,22,6.5,29.6-2.4c7.5-8.6,6.1-22-2.4-29.5l-111.1-95.1c-8.9-7.5-22-6.5-29.5,2.4
	c-7.5,8.6-6.5,22,2.1,29.5C206.5,208,317.9,303.1,317.9,303.1z"/>
<path fill="#444444" d="M1022.9,330.6c-3.9-11-15.9-16.5-26.9-12.6l-138,48.6c-11,4-16.2,16-12.9,26.6c3.9,10.9,15.9,16.8,26.9,12.9
	l138-48.9C1021,353.6,1026.5,341.6,1022.9,330.6L1022.9,330.6z"/>
<path fill="#444444" d="M789,266.1l95-111.1c7.9-8.9,6.9-22-2.1-29.5c-8.9-7.5-22-6.5-29.8,2.2l-95,111.3c-7.2,8.8-6.2,22,2.8,29.5
	C768.8,276.1,781.9,275,789,266.1z"/>
<path fill="#444444" d="M830.1,539.2c-21.9,0-42.1,4.5-61.2,12c2.1-7.1,5.1-14.5,6.2-22.1c21-113.5-53.9-222.5-167.1-243.6
	c-94.9-17.9-185.5,32-225.5,114.6c-17-4.4-34.5-6.9-52.9-6.9c-105.5,0-193,77.4-209.5,178.1C50.5,593.1,0,658.1,0,734.4
	c0,94.8,76.5,171,170.9,171c12.5,0,24.6-1.2,36.3-4c24.7,63.9,86.7,108.9,158.8,108.9c59.9,0,112-30.2,142.9-76.5
	c32.3,25.7,74,41.5,119,41.5c71.3,0,134.1-39.2,167-98c11.1,2.8,23.1,4,35.1,4c94.2,0,171-76.9,171-171
	C1001,616.1,924.2,539.3,830.1,539.2L830.1,539.2z M830.1,839.2c-8.9,0-18-1-26.9-2.9l-29.9-6.1l-15,26.9
	c-26.2,47.1-76.2,76.2-130.3,76.2c-34,0-66.1-11.1-93.2-32.2L499,873l-25,37.5c-24,36.5-64.5,57.8-108,57.8
	c-53.3,0-100.5-32.1-120-82.1l-13-33l-34.6,7.9c-9.4,2-18.4,3-27.5,3c-71.3,0-129.1-58-129.1-129.7c0-56.3,36.5-106.2,90.6-123.2
	l24.5-7.9l4.1-25.1c13.8-83,84.4-143,168.4-143c13.4,0,26,1.5,38.5,4.4c38.1,8.6,72.5,30.5,97,62.6l21.9,28.1l31.1-17
	c18.9-10.1,40-15.5,61.9-15.5c53,0,101.1,33.5,120.2,82.7l18.8,47.8l15.2-10l27.8-17c20.2-13,44.1-20,68.2-20
	c71.1,0,129.1,58,129.1,129.1C959.2,781.3,901.2,839.2,830.1,839.2L830.1,839.2z"/>
</svg>
