<?xml version="1.0" encoding="utf-8"?>
<!-- Generator: Adobe Illustrator 19.2.1, SVG Export Plug-In . SVG Version: 6.00 Build 0)  -->
<svg version="1.1" id="Calque_1" xmlns="http://www.w3.org/2000/svg" xmlns:xlink="http://www.w3.org/1999/xlink" x="0px" y="0px"
	 viewBox="0 0 1024 1024" enable-background="new 0 0 1024 1024" xml:space="preserve">
<path fill="#444444" d="M512,200.4c12.3,0,22.3-10,22.3-22.3V22.3C534.3,10,524.3,0,512,0c-12.3,0-22.3,10-22.3,22.3v155.8
	C489.8,190.3,499.7,200.4,512,200.4z"/>
<path fill="#444444" d="M325.7,234c6.2,10.7,19.8,14.3,30.4,8.1c10.6-6.1,14.2-19.7,8.1-30.4L286.4,76.7
	c-6.1-10.7-19.8-14.3-30.4-8.1c-10.7,6.1-14.3,19.7-8.2,30.4L325.7,234L325.7,234z"/>
<path fill="#444444" d="M233.9,325.8L99,247.8c-10.6-6.1-24.2-2.5-30.4,8.1c-6.1,10.7-2.5,24.3,8.1,30.4l134.9,77.9
	c10.7,6.2,24.3,2.6,30.5-8.1C248.2,345.5,244.6,331.9,233.9,325.8z"/>
<path fill="#444444" d="M200.4,511.9c0-12.2-10-22.2-22.3-22.2H22.3C10,489.7,0,499.6,0,511.9c0,12.3,10,22.3,22.3,22.3h155.8
	C190.4,534.2,200.4,524.2,200.4,511.9z"/>
<path fill="#444444" d="M211.7,659.7L76.8,737.6c-10.7,6.1-14.3,19.7-8.2,30.4c6.2,10.7,19.8,14.3,30.4,8.2l134.9-77.9
	c10.7-6.2,14.3-19.8,8.2-30.5C235.9,657.1,222.4,653.5,211.7,659.7L211.7,659.7z"/>
<path fill="#444444" d="M356.2,781.9c-10.7-6.1-24.3-2.6-30.4,8.1l-77.9,134.9c-6.1,10.6-2.5,24.3,8.1,30.4
	c10.7,6.2,24.3,2.6,30.4-8.1l77.9-135C370.4,801.6,366.8,788,356.2,781.9L356.2,781.9z"/>
<path fill="#444444" d="M512,823.6c-12.3,0-22.3,10-22.3,22.3v155.8c0,12.3,10,22.3,22.3,22.3c12.3,0,22.3-10,22.3-22.2V846
	C534.3,833.7,524.3,823.7,512,823.6L512,823.6z"/>
<path fill="#444444" d="M698.3,790.1c-6.2-10.7-19.8-14.3-30.4-8.1c-10.6,6.2-14.3,19.7-8.1,30.4l77.9,134.9
	c6.1,10.7,19.8,14.3,30.4,8.1c10.7-6.1,14.3-19.8,8.2-30.4C776.2,925,698.3,790.1,698.3,790.1z"/>
<path fill="#444444" d="M947.3,737.6l-134.9-77.9c-10.7-6.1-24.3-2.5-30.5,8.1c-6.1,10.6-2.5,24.3,8.2,30.5L925,776.1
	c10.7,6.2,24.3,2.5,30.4-8.1C961.6,757.3,958,743.7,947.3,737.6L947.3,737.6z"/>
<path fill="#444444" d="M1001.8,489.7H846c-12.3,0-22.3,10-22.3,22.3c0.1,12.3,10,22.2,22.3,22.2h155.7c12.3,0,22.3-10,22.3-22.2
	C1024,499.7,1014,489.7,1001.8,489.7z"/>
<path fill="#444444" d="M812.4,364.3l134.9-77.9c10.7-6.1,14.3-19.7,8.1-30.4c-6.1-10.7-19.7-14.3-30.4-8.2l-134.9,77.9
	c-10.7,6.2-14.3,19.8-8.2,30.5C788.1,366.8,801.7,370.5,812.4,364.3L812.4,364.3z"/>
<path fill="#444444" d="M667.8,242.1c10.7,6.1,24.3,2.5,30.4-8.2L776.1,99c6.2-10.7,2.5-24.3-8.1-30.4c-10.6-6.2-24.2-2.6-30.4,8.1
	l-77.9,134.9C653.6,222.3,657.2,235.9,667.8,242.1z"/>
<path fill="#444444" d="M512,289.4c-122.9,0-222.6,99.7-222.6,222.6S389.1,734.6,512,734.6c122.9,0,222.6-99.7,222.6-222.6
	S635,289.4,512,289.4z M512,690.1C413.8,690.1,334,610.2,334,512c0-98.2,79.9-178.1,178.1-178.1S690.1,413.8,690.1,512
	C690.1,610.2,610.2,690.1,512,690.1z"/>
</svg>
