<?xml version="1.0" encoding="utf-8"?>
<!-- Generator: Adobe Illustrator 19.2.1, SVG Export Plug-In . SVG Version: 6.00 Build 0)  -->
<svg version="1.1" id="Calque_1" xmlns="http://www.w3.org/2000/svg" xmlns:xlink="http://www.w3.org/1999/xlink" x="0px" y="0px"
	 viewBox="0 0 1024 1024" enable-background="new 0 0 1024 1024" xml:space="preserve">
<path fill="#444444" d="M849.3,190.8c-34.1,0-66,10-93,27c-25.1-65.9-88.2-112.4-163-112.4c-30.1,0-58.9,7.9-83.2,21.4
	c-39.9-51.9-102.5-85.4-172.8-85.4c-108,0-197.5,79-214.1,182.4c-71.4,22-123,88.5-123,166.6c0,96.9,78.4,174.9,175,174.9
	c12.6,0,25.1-1.1,37-4c25.5,65,88.5,111.1,162.6,111.1c61.3,0,114.5-31.1,145.6-78.1c33.8,26.2,75.9,42.1,121.9,42.1
	c73.1,0,137.1-40.1,171-100c11.9,2.8,23.9,3.9,36.1,3.9c96.8,0,174.9-78.1,174.9-174.6C1024.2,268.8,946.1,190.8,849.3,190.8
	L849.3,190.8z M849.3,495.3c-9,0-18-1-27-2.9l-32.2-6.9l-16.1,29c-26.9,47.8-77.7,77-131.8,77c-34.1,0-66.2-11.1-93.2-32.9
	l-38.9-30.2l-27.1,41.1c-24,36.1-64.8,58.1-108.3,58.1c-53.6,0-101-32.1-120.5-82.1l-14-36.7l-37.9,8.8c-9,2-18.1,3-27.1,3
	c-71.5,0-129.5-58-129.5-129.8c0-57,36.5-106.6,91-123.6l26.6-8.4l4.5-27.5c13.5-83.5,85-144.1,169.5-144.1
	c53.9,0,103.8,24.5,136.8,67.5l23.2,30.9l34-18.9c18.9-10.1,40.8-15.6,62-15.6c53,0,101.9,33.5,120.9,83l19.9,51.5l46.2-29.5
	c20.9-13,44.8-19.7,68.9-19.7c71.8,0,129.8,58,129.8,129.5S921.1,495.2,849.3,495.3L849.3,495.3z"/>
<path fill="#444444" d="M126.2,884.5c-16.9,16.9-16.9,43.8,0,60c16.5,16.9,43.5,16.8,60,0c16.5-16.2,158.6-215,168.6-229
	C340.8,725.5,142.7,868.3,126.2,884.5z"/>
<path fill="#444444" d="M309.7,881.5c-19.9,19.9-19.5,51.8,0,70.9c19.5,19.9,51.1,19.9,70.6,0c19.9-19.2,187.8-253.2,199-270
	C563.2,694.4,329.2,862.3,309.7,881.5z"/>
<path fill="#444444" d="M532.3,844.3c-14.2,14.9-14.2,38.1,0,53c14.9,14.9,38.8,14.9,53,0c14.9-14.9,140.1-189.9,149-202
	C722.2,704.3,547.2,829.4,532.3,844.3L532.3,844.3z"/>
<path fill="#444444" d="M61.7,755.3c-10.4,10.1-10.4,27,0,37.1c10.1,10.8,27,10.8,37.5,0c10.1-10.1,99-134,105.1-142.2
	C195.7,656.3,71.8,744.5,61.7,755.3z"/>
<path fill="#444444" d="M719.2,891.4c10.1,10.8,27,10.1,37.1,0c10.8-10.1,99-134,105.1-142.2c-8.2,6.1-132.1,94.3-142.2,105.1
	C708.4,864.4,708.4,881.3,719.2,891.4z"/>
</svg>
