<?xml version="1.0" encoding="utf-8"?>
<!-- Generator: Adobe Illustrator 19.2.1, SVG Export Plug-In . SVG Version: 6.00 Build 0)  -->
<svg version="1.1" id="Calque_1" xmlns="http://www.w3.org/2000/svg" xmlns:xlink="http://www.w3.org/1999/xlink" x="0px" y="0px"
	 viewBox="0 0 1024 1024" enable-background="new 0 0 1024 1024" xml:space="preserve">
<path fill="#444444" d="M962.5,553.2c-31.7,38.6-72.4,67.2-117.9,84c-16.3-62.2-72.8-108.2-140.1-108.2c-18.5,0-36,3.8-52.3,10.2
	c-8.6,3.4-17,7.3-24.8,12.2c-20.9-54.4-73.5-93.1-135.3-93.1c-2.4,0-4.7,0.3-7,0.4c-7.8-25.4-12-52.4-12-80.3
	c0-100.2,54.5-192.7,142.3-241.4L699.8,90l-95.9,10.7C438.4,119.1,309.3,245.5,283,405.1c-1.1,0-2.2-0.1-3.3-0.1
	c-89.6,0-163.8,65.5-177.9,151.2C42.9,574.6,0,629.6,0,694.7c0,80.1,64.9,145,145.1,145c10.6,0,20.8-1.2,30.8-3.4
	c21.1,54,73.5,92.3,135,92.3c50.5,0,95-25.9,120.9-65c27.8,22,62.8,35.3,101,35.3c54.4,0,102.4-26.8,132-67.8
	c152.4-8.4,287-112.8,331.4-260l27.9-92.7L962.5,553.2L962.5,553.2z M521.6,160.9c-55.1,57.8-87.2,135.3-87.2,217.3
	c0,30.3,4.4,59.7,12.5,87.4c-8.4,2.7-16.5,6-24.1,10.1c-24.2-31.5-58.6-54.8-98.3-65c-1-0.3-2-0.4-3-0.7
	C340.5,297.2,417,203.1,521.6,160.9L521.6,160.9z M813.5,686.2c-6.1,54.7-52.6,97.4-108.9,97.4c-7.5,0-15.2-0.8-22.8-2.4l-25.4-5.4
	l-12.7,22.6c-7,12.4-16.1,23.1-26.4,32.3c-23,20.6-52.9,32.7-84.6,32.7c-28.9,0-56.2-9.5-79-27.6l-30.2-24l-21.3,32.2
	c-20.4,30.8-54.7,49.2-91.4,49.2c-45.4,0-85.4-27.4-102-69.8l-11-28.1l-29.5,6.4c-7.8,1.7-15.6,2.5-23.2,2.5
	c-60.5,0-109.7-49.2-109.7-109.7c0-48.3,31-90.4,77-104.7l20.9-6.5l3.5-21.6c11.5-70.1,71.2-121,142.2-121.4c0.3,0,0.5,0,0.8,0
	c11.1,0,22,1.3,32.6,3.8c1.7,0.4,3.4,0.9,5.1,1.4c30.3,8.2,57.4,25.9,77.3,51.8l18.4,24l26.6-14.5c5.9-3.3,12.3-5.7,18.8-7.8
	c10.8-3.5,22.1-5.5,33.6-5.5c2.3,0,4.6,0.4,6.8,0.6c42.3,2.7,80.1,29.9,95.5,69.9l15.4,40.2l13.3-8.3l23.2-14.6
	c17.6-11.1,37.7-16.9,58.3-16.9c51.2,0,94.2,35.4,106.2,83c2.2,8.6,3.4,17.5,3.4,26.7C814.2,678.2,813.9,682.2,813.5,686.2z
	 M838.6,729.3c6.7-16.3,10.5-34.2,10.8-52.8c25.2-8.5,49.3-19.9,71.6-34.5C899,676,870.9,705.6,838.6,729.3z"/>
<path fill="#444444" d="M683.5,305.5l-40.4-68.6l-7.6,79.2l-77.6,17.2l73.4,34l-7.2,81.4l52.7-59.9l72.8,31.1L709,350.2l52.2-61.9
	L683.5,305.5z"/>
<path fill="#444444" d="M845.6,437.5l17.8,36.1l7.4-40.4l40.6-6.6l-35.7-19l7.1-39.8l-29.1,28l-35.7-19.1l17.1,37.4l-29.7,29.1
	L845.6,437.5z"/>
</svg>
