<?xml version="1.0" encoding="utf-8"?>
<!-- Generator: Adobe Illustrator 19.2.1, SVG Export Plug-In . SVG Version: 6.00 Build 0)  -->
<svg version="1.1" id="Calque_1" xmlns="http://www.w3.org/2000/svg" xmlns:xlink="http://www.w3.org/1999/xlink" x="0px" y="0px"
	 viewBox="0 0 1024 1024" enable-background="new 0 0 1024 1024" xml:space="preserve">
<path fill="#444444" d="M376,842c-1.7-2.7-5.5-3.7-8.5-2.1l-16.4,8.6l2.2-7.7c0.9-3-1.1-6.1-4.4-6.9c-3.3-0.8-6.7,1-7.6,4l-5.5,18.6
	l-10.6,5.6l7.9-27c0.9-3.1-1.1-6.2-4.4-7c-3.3-0.8-6.7,1.1-7.6,4l-11.1,38l-22.3,11.7v-23.5l30.4-27.8c2.5-2.2,2.4-5.8,0-8
	c-2.4-2.2-6.3-2.2-8.8,0l-21.6,19.7v-11.2l14.8-13.6c2.5-2.3,2.4-5.8,0-8.1c-2.4-2.2-6.3-2.2-8.7,0l-6.1,5.6v-17.3
	c0-3.1-6.1-5.6-9.5-5.6s-9.6,2.5-9.6,5.6V815l-2.9-5.6c-2.4-2.2-4.8-2.2-7.2,0c-2.4,2.2-4.8,5.8-2.4,8.1l12.5,13.6v11.2l-18.5-19.7
	c-2.4-2.2-4.8-2.2-7.2,0c-2.4,2.2-4.8,5.8-2.4,8l28,27.8v23.5l-19.1-11.7l-9.6-38c-0.9-3-3.5-4.8-6.8-4c-3.3,0.8-4.9,3.9-4,7l8.2,27
	l-10.5-5.6l-5.4-18.6c-0.9-3.1-4.3-4.9-7.6-4c-3.3,0.8-5.3,4-4.4,6.9l2.2,7.7l-16.3-8.6c-3-1.6-6.8-0.6-8.5,2.1s-0.7,6.1,2.3,7.7
	l16.4,8.6l-8.4,2.1c-3.3,0.8-5.3,3.9-4.4,6.9c0.7,2.5,3.2,4.2,6,4.2c0.5,0,1.1-0.1,1.6-0.2l20.4-5l10.6,5.5l-29.7,7.3
	c-3.3,0.8-5.3,4-4.4,6.9c0.8,2.5,3.2,4.2,6,4.2c0.5,0,1.1-0.1,1.6-0.2l41.7-10.2l22.3,11.7l-22.3,11.8L205,893.3
	c-3.4-0.8-6.8,1-7.6,4c-0.9,3,1,6.1,4.4,6.9l29.7,7.2l-10.6,5.6l-20.4-5c-3.3-0.8-6.7,1-7.6,4c-0.9,3,1.1,6.1,4.4,6.9l8.4,2.1
	l-16.4,8.6c-3,1.6-4,5.1-2.3,7.7c1.2,1.8,3.3,2.8,5.4,2.8c1,0,2.1-0.2,3.1-0.7l16.3-8.6l-2.2,7.6c-0.9,3.1,1.1,6.2,4.4,7
	c0.5,0.1,1.1,0.2,1.6,0.2c2.7,0,5.2-1.7,6-4.2L227,927l10.6-5.6l-7.9,27c-0.9,3.1,1.1,6.2,4.4,6.9c0.5,0.2,1.1,0.3,1.6,0.3
	c2.7,0,5.3-1.7,6-4.2l7.9-38l19.1-11.7v23.5l-27.2,27.8c-2.4,2.2-0.8,5.7,1.6,8c1.2,1.1,3.6,1.6,5.3,1.6s0.4-0.6,1.5-1.6l18.9-19.7
	v11.2L257,966c-2.4,2.3-0.7,5.8,1.6,8.1c1.2,1.1,3.6,1.6,5.3,1.6c1.6,0,0.4-0.6,1.6-1.6l3.2-5.6v17.2c0,3.2,6.1,5.7,9.6,5.7
	c3.5,0,9.5-2.5,9.5-5.7v-17.2l6,5.6c1.2,1.1,2.8,1.6,4.4,1.6c1.6,0,3.2-0.6,4.4-1.6c2.5-2.3,2.5-5.8,0.1-8.1l-14.8-13.6v-11.2
	l21.6,19.7c1.2,1.1,2.8,1.6,4.4,1.6c1.6,0,3.2-0.6,4.4-1.6c2.5-2.3,2.5-5.8,0-8l-30.4-27.8v-23.5l22.3,11.7l11.1,38
	c0.8,2.5,3.3,4.2,6,4.2c0.5,0,1.1-0.1,1.6-0.3c3.3-0.7,5.3-3.9,4.4-6.9l-7.9-27l10.6,5.6l5.5,18.6c0.7,2.5,3.3,4.2,6,4.2
	c0.5,0,1.1-0.1,1.6-0.2c3.3-0.8,5.3-4,4.4-7l-2.2-7.6l16.4,8.6c1,0.5,2.1,0.7,3.1,0.7c2.1,0,4.3-1,5.4-2.8c1.7-2.7,0.7-6.1-2.2-7.7
	l-16.4-8.6l8.4-2.1c3.3-0.8,5.3-3.9,4.4-6.9c-0.9-3.1-4.3-4.9-7.6-4l-20.4,5l-10.6-5.6l29.7-7.2c3.4-0.8,5.3-3.9,4.4-6.9
	c-0.9-3.1-4.3-4.9-7.6-4l-41.7,10.2L294,891.7l22.3-11.7l41.7,10.2c0.5,0.1,1.1,0.2,1.6,0.2c2.7,0,5.3-1.7,6-4.2
	c0.9-3-1.1-6.1-4.4-6.9l-29.7-7.3l10.6-5.5l20.4,5c0.5,0.1,1.1,0.2,1.6,0.2c2.8,0,5.3-1.7,6-4.2c0.9-3-1.1-6.1-4.4-6.9l-8.4-2.1
	l16.4-8.6C376.8,848.2,377.7,844.7,376,842L376,842z"/>
<path fill="#444444" d="M856.7,875c-1.7-2.7-5.5-3.6-8.5-2l-16.3,8.6l2.2-7.6c0.9-3.1-1.1-6.2-4.4-7c-3.3-0.8-6.7,1-7.6,4l-5.4,18.6
	l-10.7,5.6l7.9-27c1-3.1-1-6.1-4.4-6.9c-3.3-0.8-6.7,1-7.6,3.9l-13,38l-24.2,11.7v-23.4l32.3-27.9c2.4-2.1,3.4-5.7,1-8
	c-2.5-2.3-7.8-2.3-10.3,0l-23,19.7v-11.2l16.7-13.6c2.5-2.3,3.4-5.8,0.9-8.1c-2.4-2.2-7.7-2.2-10.2,0l-7.5,5.6V831
	c0-3.1-6.1-5.7-9.5-5.7s-9.6,2.5-9.6,5.7v17.2l-1-5.6c-2.5-2.2-3.8-2.2-6.2,0c-2.4,2.3-6.3,5.8-3.9,8.1l11.1,13.6v11.2l-16.5-19.7
	c-2.5-2.3-3.9-2.3-6.3,0c-2.4,2.2-6.2,5.8-3.8,8l26.6,27.9v23.4l-17.1-11.7l-8.6-38c-0.9-3-3.1-4.8-6.4-3.9
	c-3.4,0.8-4.6,3.8-3.7,6.9l8.3,27l-10.5-5.6l-5.3-18.6c-0.9-3-4.3-4.9-7.6-4c-3.3,0.8-5.3,3.9-4.5,7l2.3,7.6l-16.3-8.6
	c-3-1.6-6.8-0.6-8.5,2c-1.7,2.7-0.7,6.2,2.2,7.7l16.5,8.6l-8.4,2.1c-3.3,0.8-5.4,3.9-4.4,6.9c0.7,2.5,3.2,4.2,6,4.2
	c0.5,0,1.1-0.1,1.6-0.2l20.4-5l10.7,5.7l-29.7,7.2c-3.3,0.8-5.3,4-4.4,7c0.7,2.6,3.3,4.3,6,4.3c0.5,0,1-0.2,1.6-0.3l41.7-10.2
	l22.3,11.7l-22.3,11.7l-41.7-10.2c-3.3-0.8-6.7,1-7.6,4c-0.9,3,1,6.1,4.4,6.9l29.7,7.3l-10.7,5.5l-20.4-5c-3.3-0.8-6.7,1-7.6,4
	c-1,3.1,1.1,6.1,4.4,6.9l8.4,2.1l-16.5,8.6c-2.9,1.6-3.9,5.1-2.2,7.7c1.1,1.8,3.2,2.9,5.4,2.9c1,0,2.2-0.3,3.1-0.8l16.3-8.6
	l-2.3,7.6c-0.9,3,1.2,6.1,4.5,6.9c0.5,0.1,1,0.2,1.6,0.2c2.7,0,5.2-1.7,6-4.3l5.4-18.6l10.7-5.6l-8,27c-0.9,3.1,1.2,6.2,4.5,7
	c0.5,0.1,1,0.2,1.6,0.2c2.7,0,5.2-1.7,6-4.2l6-38l17.1-11.8V958l-25.4,27.8c-2.5,2.2,0.1,5.8,2.5,8c1.3,1.2,4.1,1.7,5.7,1.7
	s-1.4-0.5-0.1-1.7l17.2-19.7v11.1l-9.7,13.6c-2.5,2.3,0.1,5.8,2.5,8.1c1.2,1.1,4.1,1.6,5.7,1.6c1.5,0-1.4-0.5-0.2-1.6l1.6-5.6v17.3
	c0,3.1,6.2,5.6,9.6,5.6s9.5-2.5,9.5-5.6v-17.3l7.9,5.6c1.3,1.1,3.8,1.6,5.4,1.6c1.6,0,3.6-0.5,4.9-1.6c2.4-2.3,0.8-5.8-1.6-8.1
	l-16.5-13.6v-11.2l23.5,19.7c1.2,1.2,3.7,1.7,5.3,1.7c1.6,0,3.7-0.5,4.9-1.7c2.5-2.2,0.8-5.8-1.6-8L764.6,958v-23.5l24.2,11.8l12,38
	c0.8,2.5,3.7,4.2,6.5,4.2c0.5,0,1.3,0,1.8-0.2c3.3-0.8,5.4-4,4.5-7l-7.8-27l10.7,5.6l5.5,18.6c0.7,2.5,3.3,4.2,6,4.2
	c0.5,0,1.2-0.1,1.7-0.2c3.3-0.8,5.3-4,4.4-6.9l-2.2-7.6l16.3,8.6c1,0.5,2.1,0.8,3.1,0.8c2.1,0,4.3-1.1,5.4-2.9
	c1.7-2.7,0.7-6.2-2.2-7.7l-16.4-8.6l8.4-2.1c3.4-0.8,5.3-3.9,4.4-6.9c-0.9-3-4.3-4.8-7.6-4l-20.4,5l-10.6-5.5l29.7-7.3
	c3.3-0.8,5.3-4,4.4-6.9c-0.9-3.1-4.3-4.9-7.6-4l-41.7,10.2l-22.3-11.7l22.3-11.7l41.7,10.2c0.5,0.1,1,0.3,1.6,0.3
	c2.7,0,5.3-1.7,6-4.3c0.9-3-1-6.2-4.4-7l-29.7-7.2l10.6-5.7l20.4,5c0.5,0.1,1.1,0.2,1.6,0.2c2.7,0,5.3-1.7,6-4.2
	c0.9-3-1.1-6.1-4.4-6.9l-8.4-2.1l16.4-8.6C857.4,881.1,858.4,877.7,856.7,875L856.7,875z"/>
<path fill="#444444" d="M596.3,804.1c-1.1-1.7-3.5-2.4-5.5-1.4l-10.4,5.5l1.5-4.9c0.5-1.9-0.7-3.9-2.8-4.4c-2.1-0.5-4.3,0.5-4.8,2.5
	l-3.6,11.8l-6.8,3.5l5-17.2c0.6-2-0.6-3.9-2.7-4.5c-2.1-0.5-4.3,0.7-4.9,2.5l-9.2,24.2l-16.3,7.5v-15l21.6-17.7
	c1.4-1.5,2.5-3.7,1-5.1c-1.6-1.4-5.7-1.4-7.3,0l-15.4,12.6v-7.1l11.6-8.7c1.6-1.4,2.6-3.7,1-5.1c-1.6-1.4-5.7-1.5-7.1,0l-5.5,3.5
	V776c0-2,2.3-3.6,0-3.6c-2.2,0,0,1.6,0,3.6v10.9l-5.8-3.5c-1.5-1.5-5-1.5-6.5,0c-1.5,1.4-0.1,3.7,1.4,5.1l10.9,8.7v7.1l-15.7-12.6
	c-1.5-1.4-5-1.4-6.5,0c-1.5,1.4-0.2,3.7,1.4,5.1l20.8,17.7v15l-16-7.5l-8.1-24.2c-0.6-1.9-3.2-3-5.3-2.5c-2.1,0.6-3.6,2.5-3,4.5
	l4.9,17.2l-6.9-3.5l-3.5-11.8c-0.5-2-2.7-3.1-4.9-2.5c-2.1,0.5-3.3,2.5-2.7,4.4l1.4,4.9l-10.4-5.5c-1.9-1-4.4-0.4-5.4,1.4
	c-1.1,1.7-0.4,3.9,1.5,5l10.4,5.4l-5.4,1.4c-2.1,0.5-3.3,2.5-2.8,4.4c0.5,1.6,2.1,2.6,3.9,2.6c0.3,0,0.6,0,1-0.1l13-3.2l6.8,3.5
	l-18.9,4.6c-2.1,0.5-3.4,2.5-2.7,4.4c0.5,1.6,2,2.7,3.8,2.7c0.3,0,0.6,0,1-0.1l26.5-6.5l14.2,7.5l-14.2,7.5l-26.5-6.5
	c-2.1-0.5-4.3,0.6-4.8,2.6c-0.6,1.9,0.6,3.8,2.7,4.4l18.9,4.5l-6.8,3.6l-13-3.2c-2.1-0.6-4.3,0.5-4.9,2.5c-0.5,1.9,0.7,3.9,2.8,4.4
	l5.4,1.3l-10.4,5.5c-1.9,1-2.5,3.2-1.5,4.9c0.7,1.1,2.1,1.8,3.4,1.8c0.6,0,1.4-0.1,2-0.4l10.4-5.5l-1.4,4.9
	c-0.6,1.9,0.7,3.8,2.8,4.4c0.4,0.1,0.7,0.1,1,0.1c1.7,0,3.4-1.1,3.8-2.7l3.5-11.8l6.8-3.5l-5.1,17.1c-0.5,1.9,0.7,4,2.8,4.4
	c0.4,0.2,0.7,0.2,1,0.2c1.8,0,3.4-1.1,3.9-2.8l8.9-24.1l16-7.5v15l-21.2,17.7c-1.5,1.4-2.5,3.7-0.9,5.1c0.8,0.6,1.3,1,2.3,1
	c1.1,0,3.7-0.4,4.5-1l15.4-12.6v7.1l-11.3,8.6c-1.6,1.4-2.5,3.8-1,5.1c0.8,0.7,1.4,1.1,2.4,1.1s3.7-0.4,4.4-1.1l5.5-3.5v11
	c0,2-2.2,3.6,0,3.6c2.3,0,0-1.6,0-3.6v-11l6,3.5c0.8,0.7,2.9,1.1,3.9,1.1c1,0,2.5-0.4,3.3-1.1c1.5-1.3-0.4-3.6-1.9-5.1l-11.3-8.6
	v-7.1l15.9,12.6c0.8,0.6,2.8,1,3.8,1c1.1,0,2.6-0.4,3.4-1c1.5-1.4-0.3-3.7-1.8-5.1l-21.3-17.7v-15l16.3,7.5l8.2,24.1
	c0.5,1.6,2.6,2.8,4.4,2.8c0.4,0,0.9,0,1.3-0.2c2.1-0.5,3.5-2.5,2.9-4.4l-5-17.2l6.8,3.5l3.6,11.8c0.4,1.6,2,2.7,3.7,2.7
	c0.4,0,0.7-0.1,1.1-0.1c2.1-0.5,3.3-2.5,2.8-4.4l-1.5-4.9l10.4,5.5c0.6,0.3,1.4,0.4,2.1,0.4c1.3,0,2.7-0.7,3.4-1.8
	c1.1-1.7,0.4-4-1.5-4.9l-10.4-5.5l5.3-1.3c2.2-0.5,3.4-2.5,2.8-4.4c-0.5-2-2.7-3.1-4.8-2.5l-13,3.2l-6.8-3.6l18.9-4.5
	c2.1-0.6,3.4-2.5,2.8-4.4c-0.6-2-2.7-3.1-4.9-2.6l-26.5,6.5l-14.2-7.5l14.2-7.5l26.5,6.5c0.4,0.1,0.7,0.1,1,0.1c1.7,0,3.4-1,3.9-2.7
	c0.6-1.9-0.7-3.9-2.8-4.4l-18.9-4.6l6.8-3.5l13,3.2c0.3,0.1,0.6,0.1,1,0.1c1.7,0,3.4-1,3.8-2.6c0.6-1.9-0.6-3.9-2.8-4.4l-5.3-1.4
	l10.4-5.4C596.6,808,597.3,805.8,596.3,804.1L596.3,804.1z"/>
<path fill="#444444" d="M586.4,128.4c7.8,1.5,15.4-3.7,16.9-11.6l18.5-99.5c1.5-7.9-3.7-15.4-11.6-16.9c-7.8-1.5-15.4,3.7-16.9,11.5
	l-18.5,99.6C573.4,119.4,578.6,126.9,586.4,128.4L586.4,128.4z"/>
<path fill="#444444" d="M789.3,367.6c-28.7,0-55.5,8.4-78.2,22.6c-4.9-12.8-11.7-24.6-19.7-35.4c0.1-0.3,0.2-0.6,0.2-0.9
	c14.5-78.6-37.2-154.1-115.8-168.7c-61.5-11.4-120.8,18.3-150.7,69.4c-20.7-8.1-43.2-12.8-66.7-12.8c-90.9,0-166.2,66.4-180.4,153.3
	c-59.9,18.6-103.4,74.5-103.4,140.5c0,81.3,65.9,147.2,147.2,147.2c10.7,0,21.2-1.3,31.2-3.4c21.5,54.7,74.6,93.6,136.9,93.6
	c51.3,0,96.3-26.3,122.7-66c28.2,22.3,63.7,35.7,102.5,35.7c61.7,0,115.5-34,143.8-84.2c9.9,2,20,3.2,30.4,3.2
	c81.3,0,147.2-65.9,147.2-147.2S870.7,367.5,789.3,367.6L789.3,367.6z M789.3,623.7c-7.5,0-15.1-0.7-22.6-2.3l-27.3-5.8L725.7,640
	c-22.5,39.9-65,64.8-110.6,64.8c-28.8,0-56-9.6-78.6-27.5l-32.6-25.8l-23,34.7c-20.3,30.6-54.3,48.9-90.9,48.9
	c-45.1,0-85-27.3-101.4-69.4l-11.9-30.3l-31.8,6.9c-7.7,1.7-15.4,2.5-23.1,2.5c-60.1,0-109-48.9-109-108.9
	c0-48,30.7-89.9,76.5-104.1l22.5-7l3.8-23.2C227.1,331.1,287.2,280,358.4,280c45.3,0,87.1,20.7,114.9,56.8l19.9,25.9l28.6-15.6
	c15.9-8.7,34-13.3,52.1-13.3c44.7,0,85.6,28.2,101.7,70l16.7,43.4l39.3-24.8c17.5-11,37.5-16.8,57.9-16.8
	c60.2,0,109.1,48.9,109.1,109C898.4,574.7,849.5,623.6,789.3,623.7L789.3,623.7z"/>
<path fill="#444444" d="M463.4,127.7c2.6,7.5,10.9,11.5,18.5,8.8c7.5-2.6,11.5-10.9,8.8-18.5l-33.8-95.4c-2.7-7.5-11-11.5-18.5-8.8
	c-7.5,2.6-11.5,10.9-8.8,18.4L463.4,127.7L463.4,127.7z"/>
<path fill="#444444" d="M375,197.5c6.1,5.2,15.2,4.5,20.4-1.6c5.2-6.1,4.5-15.2-1.6-20.4l-76.9-65.9c-6.1-5.2-15.2-4.5-20.4,1.6
	c-5.2,6.1-4.5,15.2,1.6,20.4L375,197.5L375,197.5z"/>
<path fill="#444444" d="M740.3,260c2.6,7.5,10.9,11.5,18.5,8.8l95.4-33.8c7.6-2.6,11.5-11,8.8-18.4c-2.6-7.5-10.9-11.5-18.4-8.8
	l-95.5,33.7C741.6,244.2,737.7,252.5,740.3,260z"/>
<path fill="#444444" d="M701.4,171.9l65.8-76.9c5.2-6.1,4.5-15.3-1.6-20.4c-6-5.2-15.2-4.5-20.4,1.5l-65.8,77
	c-5.3,6.1-4.5,15.2,1.5,20.4C687.1,178.7,696.2,178,701.4,171.9L701.4,171.9z"/>
</svg>
