<?xml version="1.0" encoding="utf-8"?>
<!-- Generator: Adobe Illustrator 19.2.1, SVG Export Plug-In . SVG Version: 6.00 Build 0)  -->
<svg version="1.1" id="Calque_1" xmlns="http://www.w3.org/2000/svg" xmlns:xlink="http://www.w3.org/1999/xlink" x="0px" y="0px"
	 viewBox="0 0 1024 1024" enable-background="new 0 0 1024 1024" xml:space="preserve">
<path fill="#444444" d="M585.8,181.5c8.7,1.6,17-4.1,18.6-12.8l20.4-109.8c1.6-8.7-4.1-17-12.8-18.6c-8.7-1.6-17,4.1-18.6,12.8
	L573,162.9C571.4,171.6,577.1,179.9,585.8,181.5z"/>
<path fill="#444444" d="M450.1,180.8c2.9,8.3,12,12.7,20.4,9.7c8.3-2.9,12.7-12,9.7-20.4L443,64.8c-3-8.3-12.1-12.7-20.4-9.7
	c-8.3,2.9-12.7,12-9.7,20.3L450.1,180.8L450.1,180.8z"/>
<path fill="#444444" d="M352.6,257.8c6.7,5.7,16.8,4.9,22.5-1.7c5.7-6.7,4.9-16.8-1.8-22.5l-84.9-72.6c-6.8-5.7-16.8-4.9-22.5,1.8
	c-5.7,6.7-5,16.8,1.7,22.5L352.6,257.8L352.6,257.8z"/>
<path fill="#444444" d="M755.7,326.8c2.9,8.3,12,12.7,20.4,9.7l105.3-37.3c8.4-2.9,12.7-12.1,9.7-20.4c-2.9-8.3-12-12.7-20.3-9.8
	l-105.3,37.3C757.1,309.4,752.8,318.5,755.7,326.8z"/>
<path fill="#444444" d="M712.8,229.6l72.6-84.9c5.8-6.7,5-16.8-1.8-22.5c-6.7-5.7-16.8-5-22.5,1.7l-72.6,85
	c-5.7,6.8-4.9,16.8,1.8,22.5C697,237.1,707,236.3,712.8,229.6z"/>
<path fill="#444444" d="M977.8,603.9c0-0.7,0.2-1.2,0.2-1.9c0-92.2-74.7-167-166.9-167c-21.3,0-41.5,4.4-60.2,11.7
	c-9.9,3.9-19.6,8.4-28.5,14c-5-13-11.7-25.1-19.6-36.3c12.4-84.4-44-164.3-128.6-180c-64.8-12-127.3,17.4-161.6,69.2
	c-12.4-6-25.4-11-39.1-14.5c-16.5-4.2-33.7-6.6-51.5-6.6c-103.1,0-188.5,75.4-204.7,174C49.3,487.4,0,550.8,0,625.8
	c0,92.2,74.7,167,167,167c12.2,0,24-1.4,35.4-3.9C226.7,851,287,895.1,357.8,895.1c24.4,0,47.4-5.5,68.3-14.9
	c24,33.4,62.8,55.3,107,55.3c46,0,86.6-23.6,110.2-59.3c25.3,20,57.2,32.1,92,32.1c55.5,0,103.7-30.5,129.2-75.7
	c8.8,1.9,18,2.9,27.4,2.9c73,0,132.1-59.2,132.1-132.1C1024,663.5,1005.9,628.1,977.8,603.9L977.8,603.9z M811.1,728.1
	c-8.7,0-17.5-0.9-26.2-2.7l-29.2-6.1l-14.6,26c-26.1,46.2-75,74.8-127.7,74.8c-33.2,0-64.7-11-90.9-31.8l-34.8-27.6l-24.5,37
	c-20.9,31.5-54.3,51.6-91.2,55.7c-4.6,0.5-9.3,0.9-14,0.9c-52.3,0-98.3-31.5-117.4-80.3l-12.7-32.4l-34,7.4c-9,2-17.9,2.9-26.8,2.9
	c-69.6,0-126.3-56.7-126.3-126.3c0-55.6,35.7-104,88.7-120.6l24-7.5l4-24.8c13.3-81,82.5-139.8,164.5-139.8
	c12.8,0,25.4,1.5,37.6,4.3c37.3,8.6,70.7,29.8,94.8,61.2l21.2,27.6l30.7-16.7c18.3-10,39.2-15.3,60.3-15.3
	c42.2,0,81,21.8,104.2,55.9c1.3,2.8,2.8,5.4,4,8.3c0.4-0.3,0.8-0.5,1.2-0.7c3.2,5.6,6,11.4,8.4,17.5l12.1,31.7l5.6,14.6l15.3-9.6
	l4.4-2.8l22.2-14c20.2-12.7,43.4-19.4,67-19.4c61.7,0,113.1,44.7,123.9,103.4c1.4,7.4,2.4,15,2.4,22.8
	C937.3,671.6,880.7,728.1,811.1,728.1L811.1,728.1z"/>
</svg>
