<?xml version="1.0" encoding="utf-8"?>
<!-- Generator: Adobe Illustrator 19.2.1, SVG Export Plug-In . SVG Version: 6.00 Build 0)  -->
<svg version="1.1" id="Calque_1" xmlns="http://www.w3.org/2000/svg" xmlns:xlink="http://www.w3.org/1999/xlink" x="0px" y="0px"
	 viewBox="0 0 1024 1024" enable-background="new 0 0 1024 1024" xml:space="preserve">
<path fill="#444444" d="M849.3,224c-34.2,0-66,10.1-92.9,27.3c-25.2-66.6-88.5-113.8-163.1-113.8c-30.2,0-58.8,7.8-83.6,21.6
	C470,106.5,407.6,72.5,337.3,72.5c-108,0-197.5,80-214.3,184.8C51.8,279.7,0.1,347.1,0.1,426.6c0,98,78.3,177.3,174.9,177.3
	c12.7,0,25.1-1.3,37.1-4.1c16.4,42.7,48.6,77,89.4,96.1l10.2-44.2c-26-14.5-47-38-58.4-67.8l-13.6-35.3l-37,8.2
	c-9,2-18.4,3.1-27.5,3.1c-72.2,0-130.8-59.7-130.8-133.2c0-58.8,37-109.9,92-127.4l25.9-8.1l4.4-26.9
	c13.7-85.6,85.6-147.7,170.8-147.7c54,0,104,25.1,137.3,69l23,30.4l33.4-18.5c19.2-10.6,40.2-16.1,62.2-16.1
	c54.5,0,102.1,33.6,121.9,85.5l19.2,50.7l45.8-29.2c20.9-13.4,44.8-20.4,69.1-20.4c72,0,130.8,59.7,130.8,133.2
	s-58.7,133.3-130.8,133.3c-8.9,0-18-1-27-2.9l-31.9-6.9l-15.9,28.7c-26.2,47.2-74.7,76.9-127.6,78.4L636.4,676
	c1.9,0.3,3.8,0.4,5.7,0.4c73.3,0,137.2-40.9,171-101.7c11.8,2.6,23.8,3.9,36.2,3.9c96.7,0,174.9-79.4,174.9-177.4
	C1024.1,303.5,945.9,224,849.3,224L849.3,224z"/>
<path fill="#444444" d="M693.4,436.7H443.8l-85.2,264.6h63.1L319.5,980.7L598.4,657h-63.1L693.4,436.7z"/>
</svg>
