<?xml version="1.0" encoding="utf-8"?>
<!-- Generated by IcoMoon.io -->
<!DOCTYPE svg PUBLIC "-//W3C//DTD SVG 1.1//EN" "http://www.w3.org/Graphics/SVG/1.1/DTD/svg11.dtd">
<svg version="1.1" xmlns="http://www.w3.org/2000/svg" xmlns:xlink="http://www.w3.org/1999/xlink" width="32" height="32" viewBox="0 0 32 32">
<path fill="#444444" d="M29.203 22.763l-2.361-1.356 1.208-0.323c0.481-0.13 0.769-0.622 0.638-1.1-0.131-0.481-0.62-0.77-1.1-0.639l-2.939 0.785-1.534-0.886 4.276-1.139c0.471-0.131 0.759-0.62 0.628-1.101-0.127-0.481-0.619-0.769-1.1-0.638l-6.005 1.611-3.222-1.857 3.222-1.857 6.005 1.612c0.078 0.018 0.157 0.030 0.235 0.030 0.4 0 0.757-0.267 0.865-0.668 0.131-0.476-0.157-0.971-0.628-1.101l-4.276-1.144 1.533-0.886 2.94 0.79c0.079 0.018 0.157 0.029 0.235 0.029 0.399 0 0.758-0.261 0.865-0.663 0.13-0.481-0.157-0.975-0.637-1.101l-1.209-0.323 2.361-1.365c0.43-0.246 0.581-0.796 0.331-1.225s-0.796-0.578-1.226-0.329l-2.361 1.363 0.323-1.208c0.132-0.48-0.158-0.971-0.635-1.101-0.475-0.127-0.974 0.158-1.097 0.635l-0.793 2.943-1.534 0.886 1.149-4.275c0.124-0.48-0.157-0.971-0.638-1.101-0.481-0.126-0.97 0.158-1.101 0.637l-1.611 6.011-3.222 1.857v-3.715l4.404-4.403c0.35-0.35 0.35-0.918 0-1.269-0.35-0.353-0.917-0.353-1.268 0l-3.136 3.129v-1.77l2.163-2.156c0.35-0.35 0.35-0.918 0-1.27s-0.927-0.35-1.277 0l-0.886 0.885v-2.725c0-0.496-0.402-0.898-0.893-0.898-0.497 0-0.899 0.403-0.899 0.898v2.725l-0.886-0.885c-0.349-0.35-0.917-0.35-1.267 0-0.351 0.351-0.351 0.92 0 1.27l2.153 2.156v1.77l-3.131-3.129c-0.351-0.353-0.917-0.353-1.27 0-0.349 0.351-0.349 0.919 0 1.269l4.4 4.403v3.715l-3.216-1.857-1.612-6.012c-0.13-0.478-0.62-0.763-1.101-0.636-0.481 0.13-0.765 0.621-0.635 1.1l1.145 4.276-1.534-0.886-0.79-2.943c-0.129-0.477-0.62-0.761-1.101-0.635-0.478 0.13-0.763 0.621-0.633 1.101l0.323 1.208-2.36-1.363c-0.429-0.248-0.98-0.101-1.227 0.329s-0.101 0.98 0.329 1.225l2.359 1.365-1.209 0.323c-0.48 0.126-0.764 0.62-0.635 1.101 0.108 0.401 0.47 0.663 0.867 0.663 0.077 0 0.155-0.011 0.234-0.029l2.943-0.79 1.533 0.886-4.275 1.145c-0.48 0.13-0.764 0.625-0.636 1.101 0.107 0.402 0.469 0.668 0.868 0.668 0.077 0 0.155-0.011 0.232-0.029l6.015-1.612 3.216 1.857-3.216 1.857-6.015-1.612c-0.477-0.13-0.971 0.158-1.099 0.639s0.155 0.971 0.636 1.102l4.275 1.139-1.533 0.886-2.944-0.785c-0.479-0.131-0.973 0.158-1.1 0.639-0.13 0.479 0.155 0.97 0.635 1.1l1.209 0.323-2.359 1.356c-0.43 0.255-0.577 0.801-0.329 1.231 0.166 0.29 0.469 0.452 0.779 0.452 0.151 0 0.307-0.044 0.447-0.126l2.36-1.356-0.323 1.201c-0.13 0.48 0.155 0.979 0.633 1.101 0.080 0.021 0.159 0.037 0.234 0.037 0.396 0 0.76-0.266 0.867-0.668l0.79-2.949 1.534-0.886-1.146 4.276c-0.129 0.48 0.155 0.979 0.636 1.101 0.079 0.023 0.155 0.037 0.232 0.037 0.398 0 0.762-0.265 0.869-0.667l1.612-6.015 3.216-1.857v3.714l-4.4 4.403c-0.349 0.35-0.349 0.917 0 1.268 0.176 0.18 0.406 0.266 0.635 0.266 0.228 0 0.458-0.085 0.634-0.266l3.131-3.126v1.772l-2.153 2.154c-0.351 0.351-0.351 0.917 0 1.268 0.175 0.179 0.404 0.265 0.633 0.265 0.231 0 0.459-0.086 0.634-0.265l0.886-0.886v2.729c0 0.493 0.403 0.896 0.899 0.896 0.492 0 0.893-0.403 0.893-0.896v-2.729l0.886 0.886c0.18 0.179 0.404 0.265 0.639 0.265s0.458-0.086 0.638-0.265c0.35-0.351 0.35-0.918 0-1.268l-2.163-2.153v-1.772l3.136 3.125c0.171 0.18 0.405 0.266 0.639 0.266 0.224 0 0.459-0.085 0.629-0.266 0.35-0.35 0.35-0.918 0-1.268l-4.404-4.403v-3.714l3.222 1.857 1.61 6.015c0.108 0.401 0.476 0.668 0.864 0.668 0.079 0 0.158-0.015 0.238-0.038 0.481-0.122 0.759-0.621 0.638-1.1l-1.149-4.277 1.534 0.886 0.793 2.949c0.109 0.402 0.467 0.668 0.866 0.668 0.078 0 0.157-0.016 0.23-0.037 0.477-0.123 0.767-0.621 0.635-1.101l-0.323-1.201 2.361 1.356c0.139 0.081 0.295 0.126 0.447 0.126 0.31 0 0.611-0.161 0.779-0.452 0.25-0.43 0.099-0.976-0.331-1.231z"></path>
</svg>
