<?xml version="1.0" encoding="utf-8"?>
<!-- Generator: Adobe Illustrator 19.2.1, SVG Export Plug-In . SVG Version: 6.00 Build 0)  -->
<svg version="1.1" id="Calque_1" xmlns="http://www.w3.org/2000/svg" xmlns:xlink="http://www.w3.org/1999/xlink" x="0px" y="0px"
	 viewBox="0 0 1024 1024" enable-background="new 0 0 1024 1024" xml:space="preserve">
<path fill="#444444" d="M642.3,324.5L597,247.6l-8.6,88.8l-87,19.3l82.3,38.1l-8,91.3l59-67.2l81.7,34.9l-45.6-78.1l58.5-69.5
	L642.3,324.5z"/>
<path fill="#444444" d="M824,472.6l19.9,40.5l8.3-45.2l45.6-7.4l-40-21.3l8-44.7l-32.7,31.4l-40-21.4l19.1,41.9L779,479L824,472.6z"
	/>
<path fill="#444444" d="M955.1,602.2c-36.8,44.9-84.6,77.8-137.9,96.3c1.9-9.1,2.8-18.5,2.8-28.2c0-77.4-62.7-140-140-140
	c-17.9,0-34.7,3.6-50.5,9.8c-8.4,3.2-16.5,7.1-23.9,11.7c-20.3-52.5-71-89.8-130.7-89.8c-21.8,0-42.3,5-60.7,13.8
	c-5.2-22.4-7.9-45.7-7.9-69.7c0-112.3,61.1-216,159.6-270.7L660.5,83L552.9,95c-182.6,20.3-325.8,157.9-358.3,332.9
	c-50.2,24.2-87,71.9-96.3,128.7C41.3,574.3,0,627.5,0,690.3c0,77.3,62.7,140.1,140,140.1c10.2,0,20.2-1.2,29.7-3.3
	c20.4,52.1,71,89.1,130.3,89.1c42.7,0,80.9-19.1,106.6-49.3c57.4,30.5,122.9,47.9,192.4,47.9c179.9,0,341.8-120.2,393.7-292.4
	l31.3-104L955.1,602.2L955.1,602.2z M460.7,162.5c-61.8,64.8-97.8,151.6-97.8,243.6c0,11,0.5,21.9,1.5,32.7
	c-15.6-10.1-32.8-17.7-51.3-22.5c-13.8-3.6-28.2-5.6-43.2-5.6c-9.4,0-18.7,0.8-27.7,2.3C270.9,299.3,352.4,206.2,460.7,162.5
	L460.7,162.5z M437.9,826.6l-29.2-23.2l-7,10.5l-13.6,20.5c-3.5,5.3-7.5,10.2-11.8,14.8C356.6,870,329.1,882,300,882
	c-43.9,0-82.4-26.4-98.4-67.3l-10.6-27.2l-28.5,6.1c-7.6,1.7-15.1,2.6-22.5,2.6c-58.4,0-105.8-47.5-105.8-105.9
	c0-46.6,29.9-87.2,74.4-101.1l20.1-6.3l3.4-20.8c6.2-38.3,27.4-70.6,57-91.6c13.7-9.7,29.3-17,46-21.3c11.2-2.9,22.9-4.4,34.9-4.4
	c10.8,0,21.3,1.3,31.5,3.6c27.5,6.4,52.3,20.9,71.7,42c2.8,3,5.4,6.1,7.9,9.3l17.8,23.2l25.7-14c15.4-8.4,32.8-12.8,50.5-12.8
	c43.5,0,83.1,27.3,98.7,67.9l15,38.9l12.8-8.1l22.4-14c16.9-10.7,36.3-16.3,56.2-16.3c58.4,0,105.9,47.5,105.9,105.9
	c0,13.7-2.6,26.8-7.4,38.8c-8,20-21.8,37.1-39.4,49c-16.9,11.4-37.2,18.1-59.1,18.1c-7.2,0-14.6-0.8-21.9-2.3l-24.5-5.1l-12.3,21.7
	c-21.8,38.6-62.9,62.7-107.2,62.7C486.2,853.2,459.9,844.1,437.9,826.6L437.9,826.6z M598.9,871.4c-5,0-10-0.2-14.9-0.3
	c28.2-14.1,51.6-36.4,66.9-63.8c9.4,2,19,3.1,29,3.1c47.8,0,89.9-23.9,115.2-60.5c40.4-9.2,78.8-25.5,113.3-48.2
	C841.9,805,725.4,871.4,598.9,871.4L598.9,871.4z"/>
</svg>
