<?xml version="1.0" encoding="utf-8"?>
<!-- Generator: Adobe Illustrator 19.2.1, SVG Export Plug-In . SVG Version: 6.00 Build 0)  -->
<svg version="1.1" id="Calque_1" xmlns="http://www.w3.org/2000/svg" xmlns:xlink="http://www.w3.org/1999/xlink" x="0px" y="0px"
	 viewBox="0 0 1024 1024" enable-background="new 0 0 1024 1024" xml:space="preserve">
<path fill="#444444" d="M462.7,847.7L304.4,711.7l121.8-115.9l-37.7-0.8L216.2,707.4l173.3,165.2l-134.1,87.5l37.8,42.2l172.2-153.8
	l-3.6-0.1L462.7,847.7z"/>
<path fill="#444444" d="M692.7,870.2l0.9-0.8L535.3,733.5l121.8-115.9l-37.7-0.9L447.2,729.2l173.3,165.2l-134.1,87.6l37.7,42.2
	l172.2-153.8L692.7,870.2z"/>
<path fill="#444444" d="M798.8,152.8c-5.2-8.4-16.9-11.2-26-6.4l-50.2,26.3l6.9-23.4c2.6-9.3-3.3-18.8-13.5-21.3
	c-10.2-2.5-20.6,3.1-23.4,12.3l-16.7,57l-32.7,17.2l24.4-82.8c2.7-9.3-3.3-18.9-13.5-21.3c-10.1-2.5-20.7,3-23.4,12.3l-34,116.5
	l-68.1,36v-72.1l93.3-85.3c7.4-6.8,7.3-17.8-0.2-24.6c-7.4-6.8-19.4-6.8-26.8,0l-66.3,60.7v-34.3l45.4-41.8
	c7.6-6.8,7.4-17.9-0.1-24.6c-7.4-6.8-19.2-6.8-26.7,0l-18.6,17.1V17.6c0-9.6-18.7-17.4-29.3-17.4c-10.5,0-29.2,7.8-29.2,17.4v52.7
	l-8.8-17.1c-7.5-6.8-14.6-6.8-22.2,0c-7.4,6.7-14.9,17.8-7.4,24.6l38.4,41.8v34.3l-56.6-60.7c-7.5-6.8-14.6-6.8-22.1,0
	c-7.4,6.8-14.9,17.8-7.4,24.6l86.1,85.3v72.1l-58.5-36l-29.3-116.5c-2.7-9.2-10.7-14.8-20.8-12.3c-10.3,2.4-15.1,12-12.3,21.3
	l25,82.8l-32.4-17.2l-16.6-57c-2.7-9.2-13.1-14.8-23.3-12.3c-10.2,2.5-16.2,12-13.4,21.3l6.8,23.4l-50.1-26.3
	c-9.1-4.8-20.8-1.9-26.1,6.4c-5.3,8.3-2.1,18.9,7,23.7l50.1,26.4l-25.7,6.3c-10.2,2.5-16.2,12.1-13.5,21.3
	c2.3,7.8,10,12.9,18.4,12.9c1.6,0,3.3-0.2,4.9-0.5l62.6-15.4l32.6,17.2l-90.9,22.1c-10.1,2.5-16.2,12.1-13.4,21.3
	c2.3,7.8,10,13,18.4,13c1.6,0,3.3-0.2,5-0.6l127.7-31.2l68.4,36l-68.4,36L274.6,310c-10.3-2.5-20.7,3-23.4,12.4
	c-2.8,9.2,3.2,18.8,13.4,21.3l90.9,22.2L323,382.9l-62.6-15.2c-10.1-2.6-20.6,3-23.4,12.2c-2.7,9.3,3.3,18.8,13.5,21.3l25.7,6.3
	l-50.1,26.3c-9.1,4.8-12.3,15.5-7,23.8c3.6,5.6,9.9,8.8,16.6,8.8c3.2,0,6.5-0.8,9.5-2.4l50.1-26.4l-6.8,23.4
	c-2.7,9.3,3.4,18.9,13.5,21.3c1.6,0.4,3.3,0.6,4.9,0.6c8.4,0,16.1-5.1,18.4-13l16.7-57l32.6-17.2l-24.4,82.8
	c-2.7,9.3,3.3,18.8,13.5,21.3c1.6,0.4,3.4,0.6,4.9,0.6c8.4,0,16.2-5.1,18.4-12.9l24.4-116.5l58.5-36v72l-83.6,85.3
	c-7.4,6.8-2.5,17.8,4.9,24.6c3.8,3.4,11.1,5.1,16,5.1c4.9,0,1.1-1.7,4.8-5.1l57.8-60.6v34.3l-35.9,41.8c-7.4,6.8-2.5,17.8,4.9,24.5
	c3.7,3.5,11.1,5.1,16,5.1c4.9,0,1.1-1.6,4.9-5.1l10.1-17.1v52.8c0,9.5,18.8,17.4,29.2,17.4c10.5,0,29.3-7.8,29.3-17.4v-52.8
	l18.5,17.1c3.7,3.5,8.6,5.1,13.4,5.1c4.8,0,9.8-1.6,13.4-5.1c7.5-6.8,7.7-17.8,0.2-24.5l-45.5-41.8v-34.3l66.2,60.6
	c3.8,3.4,8.5,5.1,13.4,5.1c4.9,0,9.7-1.7,13.6-5.1c7.4-6.8,7.6-17.8,0.2-24.6l-93.3-85.3v-72l68.1,36l34.1,116.5
	c2.3,7.7,9.9,12.9,18.4,12.9c1.6,0,3.3-0.2,4.9-0.6c10.2-2.5,16.2-12,13.5-21.3l-24.4-82.9l32.6,17.2l16.8,57
	c2.3,7.8,10,12.9,18.3,12.9c1.7,0,3.3-0.2,5-0.6c10.2-2.5,16.1-12,13.5-21.3l-6.9-23.4l50.2,26.4c3,1.6,6.3,2.4,9.5,2.4
	c6.6,0,13-3.2,16.5-8.8c5.3-8.3,2.2-19-6.9-23.8l-50.2-26.3l25.7-6.3c10.1-2.5,16.1-12,13.5-21.3c-2.7-9.3-13.3-14.8-23.4-12.2
	l-62.6,15.2l-32.6-17.2l90.8-22.2c10.3-2.5,16.3-12,13.6-21.3c-2.7-9.3-13.2-14.9-23.4-12.4l-127.8,31.3l-68.4-36l68.4-36
	l127.8,31.2c1.6,0.4,3.3,0.6,4.9,0.6c8.4,0,16.1-5.1,18.4-12.9c2.7-9.3-3.3-18.9-13.6-21.4l-90.8-22.1l32.6-17.2l62.6,15.4
	c1.6,0.3,3.3,0.5,4.9,0.5c8.4,0,16.1-5.1,18.5-12.9c2.7-9.2-3.3-18.8-13.5-21.3l-25.7-6.3l50.2-26.4
	C800.9,171.6,804,161,798.8,152.8L798.8,152.8z"/>
</svg>
