<?xml version="1.0" encoding="utf-8"?>
<!-- Generator: Adobe Illustrator 19.2.1, SVG Export Plug-In . SVG Version: 6.00 Build 0)  -->
<svg version="1.1" id="Calque_1" xmlns="http://www.w3.org/2000/svg" xmlns:xlink="http://www.w3.org/1999/xlink" x="0px" y="0px"
	 viewBox="0 0 1024 1024" enable-background="new 0 0 1024 1024" xml:space="preserve">
<path fill="#444444" d="M1024.2,390.7c0-76.4-62-138.4-138.4-138.4c-27,0-52.2,7.9-73.5,21.3c-20-51.9-70.2-88.8-129.1-88.8
	c-24,0-46.5,6.1-66.2,16.8c-31.5-41-80.8-67.5-136.5-67.5c-71.4,0-132.4,43.6-158.4,105.6c-101.1,7.1-182.9,83.2-199,181.5
	C51.9,443.3,0.2,509.7,0.2,588.1c0,96.6,78.3,174.8,174.8,174.8c12.7,0,25.1-1.4,37.1-4c25.5,65,88.6,111.2,162.7,111.2
	c60.9,0,114.4-31.2,145.8-78.4c33.5,26.5,75.7,42.5,121.7,42.5c73.4,0,137.2-40.4,170.9-100c11.7,2.5,23.8,3.8,36.2,3.8
	c96.6,0,174.9-78.3,174.9-174.9c0-33.9-9.8-65.4-26.5-92.1C1014.1,448.3,1024.2,420.8,1024.2,390.7L1024.2,390.7z M849.4,695.3
	c-9,0-18.3-1-27.4-2.9l-30.6-6.4L776,713.2c-27.2,48.3-78.5,78.4-133.7,78.4c-34.8,0-67.8-11.5-95.1-33.3l-36.4-28.9l-25.7,38.7
	c-24.7,37.2-65.8,59.3-110.2,59.3c-54.7,0-103-33-123-84.1l-13.3-33.9l-35.6,7.7c-9.3,2-18.7,3-28,3c-72.8,0-132.2-59.3-132.2-132.2
	c0-58.2,37.3-108.9,92.8-126.2l25.2-7.8l4.2-26c13.9-84.9,86.3-146.4,172.3-146.4c54.6,0,105.1,25,138.6,68.6l22.2,29l32-17.5
	c19.5-10.7,40.7-16.1,63.1-16.1c54.2,0,103.7,34.1,123.3,84.9l18.6,48.5l43.9-27.6c21.2-13.3,45.5-20.4,70.2-20.4
	c72.9,0,132.2,59.3,132.2,132.2S922.3,695.3,849.4,695.3L849.4,695.3z"/>
</svg>
