<?xml version="1.0" encoding="utf-8"?>
<!-- Generator: Adobe Illustrator 19.2.1, SVG Export Plug-In . SVG Version: 6.00 Build 0)  -->
<svg version="1.1" id="Calque_1" xmlns="http://www.w3.org/2000/svg" xmlns:xlink="http://www.w3.org/1999/xlink" x="0px" y="0px"
	 viewBox="0 0 1024 1024" enable-background="new 0 0 1024 1024" xml:space="preserve">
<path fill="#444444" d="M479.6,641.6c-1.1-1.1-2.4-2.1-3.5-3.2c0.6,1.3,1.4,2.4,1.9,4C478.5,641.9,479.1,641.8,479.6,641.6z"/>
<path fill="#444444" d="M621.4,314.7l-47.6-81l-9,93.6L473,347.7l86.9,40.1l-8.6,96.3l62.4-70.8l86.1,36.8l-48-82.4l61.5-73.3
	L621.4,314.7z"/>
<path fill="#444444" d="M813.1,470.8l21,42.8l8.8-47.8l48-7.8l-42.1-22.5l8.3-47.1l-34.3,33.1l-42.1-22.5l20.1,44.1l-35,34.4
	L813.1,470.8z"/>
<path fill="#444444" d="M951.3,607.6C889,683.6,797.1,727,699,727c-18.2,0-36.1-1.7-53.7-4.6c-3.6-29.7-18.6-55.8-41.2-73.4
	c-18.8-14.5-42-23.5-67.5-23.5c-21.1,0-40.6,6.1-57.2,16.2c-0.5,0.2-1.1,0.3-1.6,0.8c-0.5-1.5-1.3-2.7-1.9-4
	c-9.1-21.1-24.6-38.9-44.1-50.8c-37.3-53-59.3-117.4-59.3-186.9c0-118.5,64.5-227.7,168.4-285.4L640.7,60L527.3,72.6
	C307.6,97,142,282.2,142,503.5c0,15.5,0.9,30.9,2.5,46c-34.9,20.1-60.1,55.2-66.9,96.5c-45,14-77.6,56-77.6,105.6
	c0,61,49.5,110.4,110.5,110.4c8,0,15.9-0.9,23.4-2.4c16.1,41.1,56,70.2,102.8,70.2c38.5,0,72.4-19.8,92.2-49.4
	c21.1,16.6,47.7,26.6,76.8,26.6c3.6,0,6.9-0.3,10.4-0.6c49.5,19.5,103.3,30.9,159.8,30.9c189.5,0,360.3-126.9,415.1-308.6l33-109.6
	L951.3,607.6L951.3,607.6z M430,143.8c-65.1,68.3-103.1,159.9-103.1,256.9c0,61.8,15.3,120,42.2,171.3c-16.9,0.9-33,5.3-47,12.8
	c-13.8-17.9-32.1-31.9-53-41.2c-17.1-7.8-36-12.7-56-12.7c-8.1,0-16,0.8-23.8,2.1c-0.7-9.7-1.4-19.5-1.4-29.5
	C187.9,341.8,286.7,201.7,430,143.8L430,143.8z M448.3,869.5c-13.2,6.4-27.5,10.7-42.6,10.7c-22,0-42.7-7.4-60.1-21l-23-18.4
	l-6.2,9.6l-10,15.1c-15.6,23.3-41.6,37.4-69.7,37.4c-34.5,0-65-20.9-77.7-53.1l-8.4-21.3l-22.5,4.9c-5.8,1.2-11.8,1.7-17.7,1.7
	c-46.1,0-83.6-37.4-83.6-83.4c0-36.8,23.6-68.9,58.6-79.8l15.9-5l2.6-16.4c5-30,21.8-55,44.9-71.7c12.8-9.1,27.4-15.9,43.4-18.9
	c6.7-1.2,13.6-2,20.6-2c23,0,44.4,7.7,62.7,20.5c9.3,6.3,17.8,13.6,24.9,23l14,18.2l20.3-11c12.1-6.7,26-10.1,39.9-10.1
	c3.6,0,7,1.1,10.3,1.5c30,4,56.5,23.5,67.5,52l11.8,30.7l27.8-17.4c3.1-2,6.7-3,10.1-4.6c10.8-5,22.2-8.3,34.3-8.3
	c18.1,0,34.7,6,48.5,15.9c16,11.4,27.8,28.4,32.6,48.2c1.4,6.2,2.3,12.5,2.3,19.3c0,9.6-2,18.7-5,27.1
	c-11.3,32.7-42.1,56.5-78.4,56.5c-5.8,0-11.7-0.7-17.4-1.8l-19.4-4l-9.8,17.1C480.4,847.8,465.5,860.8,448.3,869.5L448.3,869.5z
	 M575.9,891.5c-32,0-62.9-4.5-92.7-11.7c12.4-9.9,22.8-22.1,30.6-36c7.4,1.6,15.1,2.5,23,2.5c49.5,0,91.2-33.1,105.1-78.5
	c18.6,2.9,37.6,4.9,57.2,4.9c73.2,0,143.6-21.2,203.2-60.2C832,821.4,709.1,891.5,575.9,891.5L575.9,891.5z"/>
</svg>
