<?xml version="1.0" encoding="utf-8"?>
<!-- Generator: Adobe Illustrator 19.2.1, SVG Export Plug-In . SVG Version: 6.00 Build 0)  -->
<svg version="1.1" id="Calque_1" xmlns="http://www.w3.org/2000/svg" xmlns:xlink="http://www.w3.org/1999/xlink" x="0px" y="0px"
	 viewBox="0 0 1024 1024" enable-background="new 0 0 1024 1024" xml:space="preserve">
<path fill="#444444" d="M858.6,323.4c-32.4,0-62.6,9.5-88.1,25.6c-23.9-62.2-84.1-106.5-154.7-106.5c-28.8,0-55.8,7.3-79.3,20.2
	c-37.7-49.1-96.9-80.9-163.5-80.9c-102.5,0-187.4,74.8-203.4,172.9C102,375.6,53,437.5,53,511.9c0,7.9,1.3,0.6,2.3,21.9h4
	c15.2,0,22.8,0,30.5,0c1.7,0,3.3,0,5.1,0c-0.5,0-1.4-12.5-1.4-17.1c0-55.2,35.4-105.1,88-121.6l23.9-8.4l4-25.1
	c13.2-80.5,81.9-139.1,163.5-139.1c51.8,0,99.7,23.6,131.5,64.9l21.1,27.4l30.4-16.6c18.2-10,39-15.2,59.9-15.2
	c51.5,0,98.4,32.4,116.9,80.6l17.7,46l41.7-26.2c20.1-12.6,43.1-19.3,66.6-19.3c69.1,0,125.4,54.9,125.4,124.1
	c0,2.3-0.5,5.4-0.7,5.4c-2.8,67.7-38,103.2-85.7,115.1c8.1,10.2,15.4,21.2,22,33c59.4-24.7,102-83.5,104.7-148.1
	c0.1,0,0.3-3.1,0.3-5.4C1024.6,396.5,950.3,323.5,858.6,323.4L858.6,323.4z"/>
<path fill="#444444" d="M834.2,581.7H70.3c-9.6,0-17.3,15.2-17.3,24s7.8,24,17.3,24h763.9c9.6,0,17.3-15.1,17.3-24
	S843.8,581.7,834.2,581.7z"/>
<path fill="#444444" d="M833.1,661.6h-814c-10.3,0-18.5,12.2-18.5,24c0,11.8,8.3,24,18.5,24h814c10.3,0,18.5-12.2,18.5-24
	C851.6,673.8,843.3,661.6,833.1,661.6z"/>
<path fill="#444444" d="M722.3,741.5H67.8c-8.3,0-14.9,12.2-14.9,24c0,11.7,6.7,24,14.9,24h654.5c8.2,0,14.9-12.2,14.9-24
	C737.2,753.7,730.5,741.5,722.3,741.5z"/>
</svg>
