<?xml version="1.0" encoding="utf-8"?>
<!-- Generator: Adobe Illustrator 19.2.1, SVG Export Plug-In . SVG Version: 6.00 Build 0)  -->
<svg version="1.1" id="Calque_1" xmlns="http://www.w3.org/2000/svg" xmlns:xlink="http://www.w3.org/1999/xlink" x="0px" y="0px"
	 viewBox="0 0 1024 1024" enable-background="new 0 0 1024 1024" xml:space="preserve">
<path fill="#444444" d="M552.7,753.5h-53.9l135.1-201H420.4l-72.9,226.7h53.9l-87.3,244.9L552.7,753.5z"/>
<path fill="#444444" d="M121.8,999.8c13.7,13.6,35.8,13.6,49.4,0c13.7-13.7,130.7-176.8,138.9-188.4
	c-11.5,8.3-174.7,125.3-188.3,138.9C108.1,964,108.2,986.1,121.8,999.8z"/>
<path fill="#444444" d="M456.2,917.1c-12.1,12-12,31.5,0,43.6c12,12,31.6,12,43.6,0c12-12.1,115.3-156,122.5-166.2
	C612.1,801.9,468.2,905.1,456.2,917.1z"/>
<path fill="#444444" d="M68.8,843.8c-8.5,8.5-8.5,22.3,0,30.8c8.5,8.5,22.3,8.5,30.8,0c8.5-8.5,81.4-110.1,86.5-117.3
	C179,762.5,77.3,835.3,68.8,843.8L68.8,843.8z"/>
<path fill="#444444" d="M609.5,956c8.5,8.5,22.3,8.5,30.8,0c8.5-8.5,81.4-110.1,86.5-117.3c-7.1,5.1-108.8,78-117.3,86.5
	C601,933.7,601,947.4,609.5,956z"/>
<path fill="#444444" d="M698.4,183.2L664,125l-6.5,67.3l-66,14.7l62.4,28.9l-6.1,69.2l44.7-50.9l61.9,26.4L720,221.2l44.3-52.7
	L698.4,183.2z"/>
<path fill="#444444" d="M836.1,295.4l15.1,30.7l6.3-34.3l34.5-5.6l-30.3-16.1l6.1-33.9L843.1,260l-30.3-16.2l14.5,31.8L802,300.3
	L836.1,295.4z"/>
<path fill="#444444" d="M987.7,330.2l-52.2,63.6c-13.5,16.4-29,30.6-45.9,42.5c-27-39.3-71.8-65.1-122.6-65.1
	c-29.2,0-56.4,8.7-79.4,23.4c-21.6-56.9-75.8-97.3-139.5-97.3c-7.5,0-14.8,0.7-22,1.8c-4.2-17.3-6.7-35.3-6.7-53.9
	c0-85.2,46.3-163.8,121-205.2l71.7-39.8l-81.5,9.1C498,24,393.2,120.4,363,245.1c-10.9-2-22.1-3.4-33.6-3.4
	c-92.3,0-168.8,68.4-183.3,158C85.4,418.9,41.2,476.4,41.2,544.4c0,83.7,66.9,151.6,149.4,151.6c10.9,0,21.5-1.2,31.7-3.5
	c14,36.4,41.6,65.8,76.3,82.2l8.8-37.8c-22.2-12.5-40.1-32.5-49.9-57.9l-11.7-30.3l-31.7,7.1c-7.7,1.7-15.7,2.6-23.5,2.6
	c-61.6,0-111.8-51.1-111.8-113.9c0-50.2,31.6-93.9,78.6-108.8l22.2-7l3.7-22.9c11.8-73.2,73.2-126.3,146.1-126.3
	c46.1,0,88.9,21.5,117.3,59l19.7,26l28.5-15.7c16.5-9.1,34.4-13.8,53.2-13.8c46.5,0,87.3,28.7,104.2,73l16.5,43.4l39.1-25
	c17.8-11.4,38.3-17.4,59.1-17.4c61.6,0,111.7,51.1,111.7,113.9s-50.1,113.9-111.7,113.9c-7.6,0-15.4-0.8-23.1-2.4l-27.2-5.8
	L703,652.7c-22.4,40.4-64,65.7-109.2,67.1l-8.7,37.7c1.6,0.1,3.2,0.2,4.8,0.2c62.7,0,117.3-35,146.1-86.8c10,2.2,20.3,3.3,31,3.3
	c82.5,0,149.4-67.9,149.4-151.6c0-6.2-0.5-12.2-1.2-18.2c21.4-28.4,38.1-60.4,48.7-95.6l23.7-78.8L987.7,330.2z M394.5,253.7
	c20.9-87.6,83.1-159.8,166.2-193.3c-46.9,49.1-74.1,115-74.1,184.7c0,21.5,2.8,42.4,7.7,62.4c-6,2.4-11.9,5.1-17.6,8.2
	C455.8,287.9,427.3,266.2,394.5,253.7z"/>
</svg>
