<?xml version="1.0" encoding="utf-8"?>
<!-- Generator: Adobe Illustrator 19.2.1, SVG Export Plug-In . SVG Version: 6.00 Build 0)  -->
<svg version="1.1" id="Calque_1" xmlns="http://www.w3.org/2000/svg" xmlns:xlink="http://www.w3.org/1999/xlink" x="0px" y="0px"
	 viewBox="0 0 1024 1024" enable-background="new 0 0 1024 1024" xml:space="preserve">
<path fill="#444444" d="M437.5,205.5c2.5,11.9,14.3,19.5,26.1,17c11.9-2.5,19.5-14.2,17-26.1L448.8,45.5
	c-2.5-11.9-14.3-19.5-26.2-17c-11.8,2.5-19.5,14.2-17,26.1C405.6,54.6,437.5,205.5,437.5,205.5z"/>
<path fill="#444444" d="M290.1,293.3c8.1,9,22.1,9.7,31.2,1.6c9-8.1,9.8-22.1,1.6-31.1L219.7,149c-8.1-9.1-22-9.8-31.1-1.7
	c-9,8.2-9.8,22.1-1.6,31.1L290.1,293.3z"/>
<path fill="#444444" d="M59.6,395.1l146.6,47.8c11.6,3.8,24.1-2.5,27.9-14.1c3.8-11.5-2.6-24-14.2-27.7L73.3,353.2
	c-11.6-3.8-24,2.6-27.8,14.1C41.7,378.9,48.1,391.4,59.6,395.1L59.6,395.1z"/>
<path fill="#444444" d="M995.5,653.9l-146.8-47.8c-11.6-3.8-24,2.5-27.8,14.1c-3.7,11.6,2.6,24,14.2,27.8l146.6,47.8
	c11.6,3.8,24.1-2.5,27.8-14.1C1013.3,670.1,1007,657.6,995.5,653.9L995.5,653.9z"/>
<path fill="#444444" d="M1023.5,419.6c-2.5-11.9-14.3-19.5-26.1-17l-150.9,31.9c-12,2.5-19.5,14.3-17,26.2
	c2.5,11.9,14.3,19.5,26.1,17l150.8-31.9C1018.4,443.2,1026,431.5,1023.5,419.6L1023.5,419.6z"/>
<path fill="#444444" d="M904.6,185.7c-8.1-9.1-22.1-9.8-31.2-1.7L758.8,287c-9.1,8.2-9.8,22.1-1.7,31.2c8.1,9,22,9.8,31.1,1.6
	l114.7-103.1C912.1,208.6,912.8,194.7,904.6,185.7L904.6,185.7z"/>
<path fill="#444444" d="M623.2,231.1c11.6,3.7,24-2.6,27.8-14.2l47.8-146.6c3.8-11.6-2.6-24.1-14.1-27.8c-11.5-3.8-24,2.5-27.7,14.1
	l-47.8,146.6C605.4,214.9,611.7,227.3,623.2,231.1L623.2,231.1z"/>
<path fill="#444444" d="M694.3,667.1c42.9-50.3,63.5-118.6,48.8-188.2C717.9,359.8,601,283.6,481.9,308.8
	c-111,23.5-183.6,126.7-172.7,237c-19.7-8.9-41.3-14.5-64.4-14.5c-78.4,0-143.4,57.3-155.6,132.3C37.6,679.8,0,728,0,784.9
	c0,70.1,56.8,127,127,127c9.3,0,18.2-1.1,26.9-2.9c18.5,47.3,64.4,80.8,118.2,80.8c44.3,0,83.2-22.6,105.9-56.9
	c24.3,19.2,54.9,30.8,88.3,30.8c53.3,0,99.7-29.3,124.1-72.7c8.5,1.8,17.2,2.8,26.3,2.8c70.1,0,126.9-56.9,126.9-126.9
	C743.6,726.1,724.1,690.3,694.3,667.1L694.3,667.1z M616.7,862.8c-6.6,0-13.3-0.6-19.9-2.1l-22.2-4.7l-11.2,19.8
	c-19.8,35.1-57,56.9-97.1,56.9c-25.3,0-49.2-8.3-69.1-24.1l-26.5-21l-18.6,28.2c-17.9,26.9-47.9,43-80.1,43
	c-39.7,0-74.7-24-89.3-61.1l-9.6-24.6l-25.8,5.6c-6.8,1.5-13.7,2.3-20.4,2.3c-52.9,0-96-43.1-96-96c0-42.3,27.1-79.1,67.5-91.6
	l18.3-5.7l3.1-18.9c10.1-61.5,62.7-106.3,125.1-106.3c26.4,0,51.1,8.7,72,23.4c10.5,7.4,20.4,15.8,28.6,26.4l16.1,21l23.3-12.7
	c14-7.6,29.8-11.6,45.9-11.6c39.4,0,75.3,24.8,89.5,61.6l13.5,35.2l31.9-20.1c15.4-9.6,33-14.8,51-14.8c20.9,0,40.1,6.9,55.9,18.3
	c24.2,17.4,40.1,45.7,40.1,77.7C712.7,819.8,669.6,862.8,616.7,862.8L616.7,862.8z"/>
</svg>
