<?xml version="1.0" encoding="utf-8"?>
<!-- Generated by IcoMoon.io -->
<!DOCTYPE svg PUBLIC "-//W3C//DTD SVG 1.1//EN" "http://www.w3.org/Graphics/SVG/1.1/DTD/svg11.dtd">
<svg version="1.1" xmlns="http://www.w3.org/2000/svg" xmlns:xlink="http://www.w3.org/1999/xlink" width="32" height="32" viewBox="0 0 32 32">
<path fill="#444444" d="M1.365 25.008c-1.452 1.452-1.45 3.803 0 5.253s3.802 1.448 5.251 0c1.45-1.45 13.884-18.786 14.758-20.012-1.224 0.875-18.56 13.311-20.009 14.759z"></path>
<path fill="#444444" d="M15.176 11.798c0.816-0.816 7.814-10.572 8.305-11.262-0.688 0.493-10.443 7.49-11.259 8.306-0.817 0.817-0.816 2.139 0 2.956s2.14 0.815 2.954 0z"></path>
<path fill="#444444" d="M2.819 16.289c0.581-0.582 5.567-7.533 5.917-8.024-0.49 0.351-7.441 5.336-8.022 5.918s-0.581 1.525 0 2.107c0.581 0.581 1.525 0.581 2.105 0z"></path>
<path fill="#444444" d="M20.585 24.488c-0.816 0.816-0.815 2.139 0 2.956 0.815 0.816 2.14 0.815 2.956 0 0.814-0.817 7.813-10.572 8.304-11.262-0.688 0.493-10.445 7.49-11.26 8.306z"></path>
<path fill="#444444" d="M23.515 14.533c0.369 0.369 0.967 0.369 1.336 0 0.37-0.369 3.535-4.781 3.757-5.093-0.312 0.223-4.724 3.387-5.092 3.756s-0.37 0.968 0 1.337z"></path>
<path fill="#444444" d="M10.8 31.012c0.369 0.368 0.967 0.368 1.336 0 0.369-0.37 3.535-4.782 3.756-5.094-0.311 0.223-4.723 3.388-5.092 3.756-0.369 0.37-0.369 0.968-0 1.337z"></path>
</svg>
