<?xml version="1.0" encoding="utf-8"?>
<!-- Generator: Adobe Illustrator 19.2.1, SVG Export Plug-In . SVG Version: 6.00 Build 0)  -->
<svg version="1.1" id="Calque_1" xmlns="http://www.w3.org/2000/svg" xmlns:xlink="http://www.w3.org/1999/xlink" x="0px" y="0px"
	 viewBox="0 0 1024 1024" enable-background="new 0 0 1024 1024" xml:space="preserve">
<path fill="#444444" d="M810.6,374.1c-29.7,0-57.4,8.8-80.8,23.8c-5.4-14.3-12.9-27.6-22.1-39.6c0.4-1.6,1-3.2,1.3-4.9
	c14.6-78.5-37.2-153.9-115.6-168.4c-63.1-11.7-123.8,20-152.8,73.6c-23-10.2-48.4-16.2-75.2-16.2c-93.9,0-171.7,69.6-186.4,160.7
	c-61.9,19.5-106.8,78.1-106.8,147.3c0,85.1,68.1,154.2,152,154.2c11.1,0,21.8-1.2,32.3-3.5c14.3,37,42.3,66.9,77.6,83.6l8.9-38.5
	c-22.6-12.7-40.9-33.1-50.8-58.9l-11.9-30.8l-32.2,7.2c-7.8,1.8-16,2.7-23.9,2.7c-62.7,0-113.7-51.9-113.7-115.9
	c0-51.1,32.1-95.6,80-110.7l22.5-7.1l3.8-23.3c12-74.5,74.5-128.5,148.6-128.5c46.9,0,90.4,21.9,119.4,60.1l20,26.5l29-16.1
	c16.8-9.3,35-14,54.1-14c47.3,0,88.8,29.2,106,74.3l16.7,44.1l39.8-25.4c18.1-11.6,39-17.7,60.1-17.7c62.7,0,113.7,52,113.7,115.9
	s-51,115.9-113.7,115.9c-7.8,0-15.6-0.8-23.5-2.5l-27.7-5.9l-13.8,24.8c-22.8,41.1-65.1,66.8-111.1,68.2l-8.9,38.4
	c1.6,0.1,3.2,0.3,4.9,0.3c63.8,0,119.3-35.6,148.6-88.3c10.2,2.2,20.7,3.4,31.5,3.4c84,0,152-69,152-154.2
	C962.6,443.2,894.6,374.1,810.6,374.1L810.6,374.1z"/>
<path fill="#444444" d="M592.5,723.5h-54.9l137.5-180.1H458l-74.2,216.2h54.9l-88.8,244.2L592.5,723.5z"/>
<path fill="#444444" d="M604,128.1c7.8,1.4,15.3-3.7,16.9-11.6l18.4-99.4c1.5-7.8-3.7-15.4-11.5-16.9S612.4,4,611,11.9l-18.6,99.5
	C591,119.2,596.1,126.7,604,128.1L604,128.1z"/>
<path fill="#444444" d="M481.2,127.5c2.6,7.5,10.9,11.5,18.4,8.8c7.5-2.7,11.5-10.9,8.8-18.5l-33.6-95.3C472,15,463.8,11,456.3,13.7
	c-7.5,2.6-11.4,10.9-8.8,18.4C447.4,32.1,481.2,127.5,481.2,127.5z"/>
<path fill="#444444" d="M392.9,197.1c6.1,5.2,15.2,4.4,20.4-1.6c5.1-6.1,4.5-15.2-1.7-20.4l-76.8-65.7c-6.1-5.2-15.2-4.4-20.4,1.6
	c-5.2,6-4.5,15.2,1.6,20.3L392.9,197.1L392.9,197.1z"/>
<path fill="#444444" d="M757.7,259.6c2.6,7.5,10.9,11.5,18.5,8.8l95.2-33.6c7.6-2.7,11.5-10.9,8.7-18.4c-2.6-7.6-10.8-11.5-18.4-8.8
	l-95.4,33.7C759,243.8,755,252.1,757.7,259.6L757.7,259.6z"/>
<path fill="#444444" d="M718.9,171.7l65.7-76.8c5.2-6.1,4.5-15.2-1.6-20.4c-6-5.2-15.1-4.5-20.3,1.6l-65.7,76.8
	c-5.1,6.1-4.4,15.2,1.6,20.4C704.5,178.5,713.6,177.7,718.9,171.7L718.9,171.7z"/>
<path fill="#444444" d="M154.1,1013.7c13.9,13.9,36.4,13.9,50.3,0c13.9-13.9,132.9-179.9,141.3-191.7
	C334,830.4,168,949.5,154.1,963.4C140.3,977.2,140.3,999.8,154.1,1013.7L154.1,1013.7z"/>
<path fill="#444444" d="M494.4,929.5c-12.3,12.3-12.3,32.1,0,44.4c12.2,12.2,32.1,12.2,44.4,0C551,961.6,656,815.2,663.4,804.8
	C653.1,812.2,506.6,917.3,494.4,929.5L494.4,929.5z"/>
<path fill="#444444" d="M100.3,854.9c-8.7,8.7-8.7,22.7,0,31.4c8.6,8.6,22.7,8.6,31.3,0c8.6-8.7,82.8-112,88-119.4
	C212.3,772.1,108.9,846.3,100.3,854.9z"/>
<path fill="#444444" d="M650.4,969.1c8.7,8.7,22.6,8.7,31.3,0c8.7-8.7,82.8-112.1,88-119.4c-7.2,5.2-110.7,79.4-119.3,88.1
	S641.7,960.4,650.4,969.1z"/>
</svg>
