<?xml version="1.0" encoding="utf-8"?>
<!-- Generator: Adobe Illustrator 19.2.1, SVG Export Plug-In . SVG Version: 6.00 Build 0)  -->
<svg version="1.1" id="Calque_1" xmlns="http://www.w3.org/2000/svg" xmlns:xlink="http://www.w3.org/1999/xlink" x="0px" y="0px"
	 viewBox="0 0 1024 1024" enable-background="new 0 0 1024 1024" xml:space="preserve">
<path fill="#444444" d="M790.6,395.1c-10.1,0-20,1.5-29.6,3.5c1.7-9.2,2.9-18.6,2.9-28.4c0-87.1-70.7-157.7-157.8-157.7
	c-61.5,0-114.6,35.2-140.5,86.5c-26.3-15.7-56.8-24.9-89.6-24.9c-87.5,0-159.9,63.9-173.6,147.5c-57.6,18-99.5,71.7-99.5,135.3
	c0,78.1,63.4,141.6,141.6,141.6c10.3,0,20.3-1.2,30-3.2c20.6,52.6,71.8,90,131.8,90c49.3,0,92.7-25.3,118.1-63.5
	c27,21.5,61.3,34.4,98.5,34.4c59.4,0,111.2-32.7,138.5-81c9.4,2,19.2,3,29.2,3c78.3,0,141.6-63.4,141.6-141.6
	C932.3,458.5,868.9,395.1,790.6,395.1L790.6,395.1z M790.6,631.5c-6.5,0-13.1-0.7-19.6-2.1l-33.5-7l-16.9,29.9
	c-19.9,35.2-57.3,57.2-97.6,57.2c-25.4,0-49.4-8.4-69.4-24.3l-40.1-31.8L485.3,696c-17.6,26.7-47.1,42.5-79,42.5
	c-39.2,0-73.8-23.6-88.2-60.3L303.6,641l-39.1,8.6c-6.6,1.4-13.3,2.1-20,2.1c-52.3,0-94.7-42.4-94.7-94.6
	c0-41.8,26.7-78.1,66.5-90.6l27.6-8.6l4.7-28.6C258.9,366.5,312.5,321,376,321c40.3,0,77.7,18.5,102.5,50.8l24.4,31.8l35.1-19.2
	c14-7.6,29.3-11.5,45.4-11.5c38.8,0,74.3,24.5,88.3,60.9L692,487l48.3-30.4c15.2-9.6,32.6-14.6,50.2-14.6
	c52.2,0,94.8,42.5,94.8,94.7C885.4,589,842.8,631.5,790.6,631.5L790.6,631.5z"/>
<path fill="#444444" d="M171.3,957.1c-13.5,13.5-13.4,35.3,0,48.8c13.4,13.4,35.2,13.3,48.7,0c13.4-13.5,128.6-174.1,136.8-185.5
	C345.4,828.5,184.7,943.8,171.3,957.1L171.3,957.1z"/>
<path fill="#444444" d="M320,954.7c-15.9,15.9-15.8,41.6,0,57.4c15.8,15.9,41.5,15.9,57.4,0c15.8-15.8,151.7-205.3,161.3-218.7
	C525.3,803.1,335.8,938.9,320,954.7L320,954.7z"/>
<path fill="#444444" d="M500.5,924.5c-11.8,11.9-11.8,31,0,43c11.9,11.9,31.1,11.9,43,0c11.8-11.9,113.6-153.6,120.6-163.6
	C654.1,810.9,512.4,912.6,500.5,924.5z"/>
<path fill="#444444" d="M119.1,852.2c-8.4,8.4-8.4,22,0,30.3s21.9,8.3,30.3,0c8.4-8.3,80.1-108.4,85.2-115.5
	C227.6,772.1,127.5,843.8,119.1,852.2z"/>
<path fill="#444444" d="M651.5,962.7c8.4,8.4,22,8.4,30.4,0c8.4-8.3,80.1-108.4,85.2-115.6c-7.1,5.1-107.2,76.9-115.6,85.2
	C643.1,940.7,643.1,954.4,651.5,962.7z"/>
<path fill="#444444" d="M667.7,0.3c-8.7-1.3-16.7,4.5-18.1,13.1l-17.3,109.1c-1.4,8.6,4.5,16.7,13.1,18.1
	c8.5,1.4,16.7-4.5,18.1-13.1l17.3-109.1C682.2,9.7,676.3,1.7,667.7,0.3L667.7,0.3z"/>
<path fill="#444444" d="M501.3,28.9c-3.1-8.1-12.3-12.2-20.4-9.1c-8.2,3.1-12.2,12.3-9.1,20.4l39.4,103.1
	c3.2,8.1,12.3,12.2,20.4,9.1c8.1-3.2,12.1-12.3,9.1-20.4L501.3,28.9L501.3,28.9z"/>
<path fill="#444444" d="M351.1,127.8c-6.8-5.5-16.7-4.4-22.2,2.3s-4.4,16.7,2.3,22.2l85.8,69.6c6.8,5.5,16.7,4.4,22.2-2.3
	c5.5-6.8,4.4-16.7-2.4-22.2L351.1,127.8L351.1,127.8z"/>
<path fill="#444444" d="M949.5,228.8c-3.1-8.1-12.2-12.2-20.4-9.1l-103.1,39.5c-8.2,3.1-12.2,12.2-9.1,20.4
	c3.2,8.1,12.3,12.2,20.4,9.1l103-39.5C948.6,246.1,952.7,237,949.5,228.8L949.5,228.8z"/>
<path fill="#444444" d="M839.3,76.8c-6.7-5.5-16.7-4.5-22.2,2.3l-69.5,85.8c-5.4,6.8-4.3,16.7,2.4,22.3c6.7,5.5,16.6,4.4,22.2-2.4
	L841.6,99C847.1,92.2,846,82.2,839.3,76.8L839.3,76.8z"/>
</svg>
