<?xml version="1.0" encoding="utf-8"?>
<!-- Generator: Adobe Illustrator 19.2.1, SVG Export Plug-In . SVG Version: 6.00 Build 0)  -->
<svg version="1.1" id="Calque_1" xmlns="http://www.w3.org/2000/svg" xmlns:xlink="http://www.w3.org/1999/xlink" x="0px" y="0px"
	 viewBox="0 0 1024 1024" enable-background="new 0 0 1024 1024" xml:space="preserve">
<path fill="#444444" d="M679.1,188.8l-35.4-60l-6.7,69.3l-68,15.1l64.3,29.7l-6.2,71.3l46.1-52.4L737,289l-35.6-61.1l45.7-54.2
	L679.1,188.8z"/>
<path fill="#444444" d="M821,304.4l15.6,31.6l6.5-35.3l35.6-5.8l-31.2-16.6l6.2-34.9l-25.5,24.5l-31.3-16.7l15,32.7l-26,25.4
	L821,304.4z"/>
<path fill="#444444" d="M121.3,956.6c-13.6,13.6-13.6,35.6,0,49.1s35.6,13.5,49.1,0c13.5-13.6,129.8-175.7,138-187.1
	C297,826.8,134.8,943.1,121.3,956.6z"/>
<path fill="#444444" d="M271.3,954.2c-16,16-16,41.9,0,57.9c16,16,42,16,57.9,0c16-16,153.1-207.2,162.8-220.7
	C478.5,801.1,287.3,938.2,271.3,954.2z"/>
<path fill="#444444" d="M453.5,923.6c-12,12-12,31.4,0,43.3c12,12,31.4,11.9,43.3,0c12-12,114.6-155,121.8-165.1
	C608.5,809.1,465.5,911.7,453.5,923.6z"/>
<path fill="#444444" d="M68.7,850.7c-8.4,8.5-8.4,22.2,0,30.6s22.1,8.4,30.6,0s80.9-109.4,85.9-116.6
	C178.1,769.9,77.1,842.3,68.7,850.7z"/>
<path fill="#444444" d="M605.9,962.2c8.4,8.4,22.2,8.4,30.6,0c8.4-8.4,80.9-109.4,86-116.6c-7.1,5.1-108.1,77.5-116.6,85.9
	C597.4,940.1,597.4,953.7,605.9,962.2L605.9,962.2z"/>
<path fill="#444444" d="M977.3,340.2l-53.8,65.5c-12.5,15.3-26.8,28.5-42.3,40c-27.4-36.4-70.3-59.9-118.5-59.9
	c-24.4,0-48.5,6.2-70.1,18c-24.4-53.1-77.6-88.1-135.4-88.1c-17.3,0-34.5,3.2-50.8,9.2c-7.3-22.8-11.6-47-11.6-72.3
	c0-87.8,47.8-168.8,124.6-211.5l73.9-41l-84,9.3C468.5,25.1,358.2,130.2,330.9,264.3c-79.4,9-144.3,69.3-159.7,150.8
	c-59.9,21.6-99.7,78.9-99.7,144.3c0,84.4,67.1,153.1,149.7,153.1c8,0,16-0.7,24-2c24.2,55,76.9,90.2,136.3,90.2
	c47,0,90.9-22.4,119.1-60.5c28.1,20.2,61,30.9,95.6,30.9c57.8,0,111.6-30.9,142-81.2c8.1,1.3,16.2,2.1,24.3,2.1
	c82.5,0,149.6-68.7,149.6-153c0-10-1-19.6-2.8-29c18.6-26.7,33.6-56.3,43.2-88.4L977.3,340.2L977.3,340.2z M537.3,62.2
	c-48.3,50.6-76.4,118.5-76.4,190.3c0,17.7,1.9,34.9,5.2,51.7c-28.7-23.5-63.5-37.6-100.7-40.4C386.4,172.4,450.8,97.1,537.3,62.2
	L537.3,62.2z M762.7,647.5c-7.3,0-14.7-0.8-22-2.4l-24.6-5.3l-12.3,22.4c-21.9,39.7-63,64.4-107.3,64.4c-28,0-54.4-9.5-76.4-27.3
	l-29.2-23.7l-20.6,31.8c-19.8,30.6-52.8,48.8-88.5,48.8c-43.9,0-82.7-27.1-98.7-69.1l-10.6-27.9l-28.5,6.4
	c-7.5,1.7-15.1,2.5-22.5,2.5c-58.5,0-106.1-48.8-106.1-108.7c0-47.8,29.9-89.5,74.5-103.8l20.2-6.5l3.4-21.4
	c11.2-69.7,69.3-120.4,138.3-120.4c43.8,0,84.3,20.6,111.3,56.4l17.8,23.8l25.7-14.4c15.5-8.6,33-13.2,50.7-13.2
	c43.5,0,83.3,28,98.9,69.8l14.9,39.8l35.3-22.7c17-11,36.5-16.7,56.3-16.7c58.5,0,106.1,48.7,106.1,108.7
	C868.7,598.7,821.2,647.5,762.7,647.5L762.7,647.5z"/>
</svg>
