<?xml version="1.0" encoding="utf-8"?>
<!-- Generated by IcoMoon.io -->
<!DOCTYPE svg PUBLIC "-//W3C//DTD SVG 1.1//EN" "http://www.w3.org/Graphics/SVG/1.1/DTD/svg11.dtd">
<svg version="1.1" xmlns="http://www.w3.org/2000/svg" xmlns:xlink="http://www.w3.org/1999/xlink" width="32" height="32" viewBox="0 0 32 32">
<path fill="#444444" d="M31.602 11.941c0-2.34-1.898-4.239-4.239-4.239-0.828 0-1.599 0.242-2.252 0.653-0.611-1.59-2.149-2.721-3.954-2.721-0.735 0-1.424 0.187-2.027 0.516-0.964-1.255-2.476-2.067-4.18-2.067-2.187 0-4.054 1.336-4.851 3.235-3.095 0.217-5.603 2.547-6.096 5.558-2.178 0.678-3.76 2.711-3.76 5.112 0 2.957 2.398 5.354 5.354 5.354 0.39 0 0.77-0.043 1.136-0.123 0.78 1.992 2.714 3.406 4.983 3.406 1.865 0 3.505-0.955 4.464-2.402 1.025 0.813 2.318 1.302 3.727 1.302 2.247 0 4.203-1.237 5.234-3.064 0.358 0.076 0.728 0.117 1.108 0.117 2.957 0 5.355-2.398 5.355-5.355 0-1.037-0.3-2.002-0.811-2.822 0.5-0.694 0.81-1.536 0.81-2.459zM26.248 21.271c-0.277 0-0.559-0.030-0.839-0.089l-0.937-0.197-0.47 0.834c-0.834 1.48-2.404 2.4-4.096 2.4-1.066 0-2.075-0.353-2.914-1.019l-1.115-0.884-0.786 1.186c-0.755 1.138-2.016 1.817-3.375 1.817-1.675 0-3.154-1.011-3.766-2.576l-0.406-1.038-1.089 0.237c-0.284 0.062-0.572 0.093-0.857 0.093-2.231 0-4.048-1.816-4.048-4.048 0-1.782 1.142-3.336 2.843-3.865l0.771-0.24 0.13-0.797c0.426-2.599 2.644-4.484 5.276-4.484 1.671 0 3.218 0.766 4.244 2.1l0.681 0.887 0.981-0.536c0.597-0.327 1.248-0.492 1.933-0.492 1.661 0 3.177 1.045 3.775 2.6l0.57 1.484 1.345-0.846c0.649-0.408 1.392-0.624 2.15-0.624 2.232 0 4.048 1.816 4.048 4.048s-1.816 4.048-4.047 4.048z"></path>
</svg>
