<?xml version="1.0" encoding="utf-8"?>
<!-- Generator: Adobe Illustrator 19.2.1, SVG Export Plug-In . SVG Version: 6.00 Build 0)  -->
<svg version="1.1" id="Calque_1" xmlns="http://www.w3.org/2000/svg" xmlns:xlink="http://www.w3.org/1999/xlink" x="0px" y="0px"
	 viewBox="0 0 1024 1024" enable-background="new 0 0 1024 1024" xml:space="preserve">
<path fill="#444444" d="M613.4,208.2c9.1,1.7,17.9-4.3,19.5-13.4l21.4-115c1.7-9.1-4.3-17.8-13.4-19.5c-9.1-1.7-17.8,4.3-19.5,13.4
	l-21.4,115C598.3,197.8,604.3,206.5,613.4,208.2L613.4,208.2z"/>
<path fill="#444444" d="M471.3,207.4c3,8.7,12.6,13.3,21.4,10.2c8.7-3.1,13.3-12.6,10.2-21.4l-39-110.3
	c-3.1-8.7-12.7-13.3-21.4-10.2c-8.7,3.1-13.3,12.6-10.2,21.3L471.3,207.4L471.3,207.4z"/>
<path fill="#444444" d="M369.2,288c7.1,6,17.6,5.2,23.6-1.8c6-7,5.2-17.6-1.9-23.6l-88.9-76c-7.1-6-17.5-5.2-23.6,1.9
	c-6,7-5.2,17.6,1.8,23.5L369.2,288L369.2,288z"/>
<path fill="#444444" d="M791.3,360.3c3.1,8.7,12.6,13.3,21.4,10.2l110.2-39c8.8-3.1,13.3-12.7,10.2-21.3c-3-8.7-12.6-13.3-21.3-10.2
	l-110.3,39C792.8,342,788.2,351.6,791.3,360.3L791.3,360.3z"/>
<path fill="#444444" d="M746.3,258.5l76-88.9c6-7.1,5.2-17.6-1.9-23.6c-7-6-17.5-5.2-23.5,1.8l-76,88.9c-6,7.1-5.2,17.6,1.8,23.6
	C729.8,266.4,740.3,265.6,746.3,258.5L746.3,258.5z"/>
<path fill="#444444" d="M849.2,473.5c-22.3,0-43.4,4.6-63.1,12.2c-10.4,4.1-20.5,8.8-29.9,14.7c-5.2-13.6-12.2-26.3-20.5-38
	c13-88.4-46-172-134.7-188.5c-67.9-12.6-133.3,18.2-169.2,72.4c-13-6.3-26.6-11.6-40.9-15.2c-17.3-4.4-35.3-7-53.9-7
	c-108,0-197.4,78.9-214.4,182.2C51.7,528.5,0,594.9,0,673.3c0,96.6,78.2,174.8,174.9,174.8c12.8,0,25.1-1.4,37.1-4
	c25.4,65.1,88.6,111.2,162.7,111.2c60.9,0,114.5-31.2,145.8-78.4c33.5,26.5,75.7,42.5,121.7,42.5c73.4,0,137.3-40.4,170.9-100.1
	c11.7,2.4,23.8,3.8,36.2,3.8c96.6,0,174.8-78.3,174.8-174.8C1024,551.8,945.8,473.5,849.2,473.5L849.2,473.5z M849.2,780.5
	c-9.1,0-18.3-1-27.5-2.9l-30.6-6.4l-15.3,27.2c-27.3,48.3-78.5,78.3-133.7,78.3c-34.8,0-67.7-11.5-95.2-33.2l-36.4-28.9l-25.6,38.8
	c-24.6,37.1-65.9,59.3-110.2,59.3c-54.7,0-103-33-122.9-84.1l-13.3-33.9l-35.6,7.7c-9.4,2.1-18.8,3.1-28,3.1
	c-72.9,0-132.2-59.3-132.2-132.2c0-58.2,37.3-108.9,92.8-126.2l25.2-7.8l4.2-26c13.9-84.8,86.3-146.4,172.3-146.4
	c13.5,0,26.6,1.6,39.3,4.5c39.1,9,74,31.2,99.3,64.1l22.2,28.9l32.1-17.5c19.2-10.5,41-16,63.1-16c44.1,0,84.8,22.8,109.1,58.5
	c1.4,2.9,3,5.7,4.1,8.8c0.4-0.3,0.9-0.5,1.3-0.7c3.4,5.8,6.3,12,8.8,18.4l18.6,48.5l43.9-27.7c21.2-13.3,45.4-20.4,70.2-20.4
	c72.8,0,132.1,59.3,132.1,132.2C981.4,721.2,922.1,780.5,849.2,780.5L849.2,780.5z"/>
</svg>
