<?xml version="1.0" encoding="utf-8"?>
<!-- Generator: Adobe Illustrator 19.2.1, SVG Export Plug-In . SVG Version: 6.00 Build 0)  -->
<svg version="1.1" id="Calque_1" xmlns="http://www.w3.org/2000/svg" xmlns:xlink="http://www.w3.org/1999/xlink" x="0px" y="0px"
	 viewBox="0 0 1024 1024" enable-background="new 0 0 1024 1024" xml:space="preserve">
<path fill="#444444" d="M849.2,201.1c-34.1,0-66,10-93,27c-25.1-65.5-88.2-112.4-163-112.4c-30.1,0-58.9,7.9-83.5,21.4
	c-39.6-51.9-102-85.4-172.5-85.4c-108,0-197.5,79-214.1,182.4c-71.4,22-123,88.5-123,167c0,96.5,78.4,174.6,175,174.6
	c12.6,0,25.1-1.1,37-4c25.5,65,88.5,111.1,162.6,111.1c61,0,114.5-31.1,145.7-78.1c33.7,26.9,75.8,42.1,121.8,42.1
	c73.1,0,137.1-40.1,171-100c11.9,2.8,23.9,3.9,36.1,3.9c96.8,0,174.9-78.1,174.9-174.6S946.1,201,849.2,201.1L849.2,201.1z
	 M849.2,505.5c-9,0-18-1-27-2.9l-32.2-6.9l-16.8,29c-26.2,47.8-77,77-131.1,77c-34.1,0-66.2-11.1-93.2-32.9l-38.9-30.2l-27.4,41.1
	c-24,36.1-64.5,58.1-108,58.1c-53.5,0-101-32.1-120.5-82.1l-14-36.3l-37.6,8.4c-9.4,2-18.4,3-27.5,3c-71.5,0-129.5-58-129.5-129.5
	c0-57,36.5-106.9,91-123.9l26.6-8.1l4.5-27.9c13.6-83.5,85-144.1,169.5-144.1c53.9,0,103.5,24.5,136.5,67.5l23.5,30.9l34-18.5
	c18.9-10.4,40.8-15.9,62-15.9c53,0,101.9,33.5,120.9,83l19.9,51.5l46.2-29.1c20.9-13,44.8-20,68.9-20c71.8,0,129.8,58,129.8,129.5
	S921,505.6,849.2,505.5L849.2,505.5z"/>
<path fill="#444444" d="M358.2,764.6c-2-3.1-6.5-4.1-10-2.2l-19.5,10.1l2.6-9c1.4-3.9-1.1-7.1-5.1-8.1c-4-1-8,1.1-9,4.2l-6.5,22
	l-12.5,6.9l9.1-32c1.4-3.9-1.1-7.1-5.1-8.1c-4-1-8,1.1-9,4.9l-13.1,45.1l-26.5,14v-28l36-33c3-2.9,2.9-7,0-9.9
	c-3-2.2-7.5-2.2-10.5,0l-25.6,23.9v-13.8l17.6-16.1c3-2.2,2.9-7,0-9.2c-3-2.9-7.5-2.9-10.4,0l-7.1,6.2v-20.1c0-3.9-7.4-6.9-11.4-6.9
	c-4,0-11.4,3-11.4,6.9v20.1l-3.5-6.2c-2.6-2.9-5.6-2.9-8.5,0c-2.6,2.2-5.6,7-2.6,9.2l14.6,16.1v13.8l-22-23.9
	c-2.6-2.2-5.6-2.2-8.5,0c-2.6,2.9-5.6,7-2.6,9.9l33.1,33v28l-22.6-14l-11.4-45.1c-1-3.9-4-5.9-8-4.9c-4,1-5.9,4.2-4.6,8.1l9.6,32
	l-12.5-6.9l-6.5-22c-1-3.2-5-5.2-9-4.2c-4,1-6.4,4.2-5.1,8.1l2.6,9l-19.5-10.1c-3.5-2-8-0.9-10,2.2c-2,3.1-0.9,7.8,2.6,9.1
	l19.5,10.8l-10,2.1c-4,1-6.1,4.9-5.1,8.1c0.6,3,3.6,5,7,5c0.5,0,1.4,0,2-0.1l24.1-6l12.9,6.9l-35.4,8.2c-4,1-6.1,4.9-5,8.8
	c1,3,3.6,5,7,5c0.5,0,1.4,0,2-0.8l49.5-12l26.5,14l-26.5,14l-49.5-12c-4-1-8,1.1-9,4.9c-1,3.8,1.1,7.1,5,8.1l35.4,8.9l-12.9,6.2
	l-24.1-5.3c-4-1-8,1-9,4.2c-1,3.9,1.1,7.8,5.1,8.8l10,2.1l-19.5,10.1c-3.5,2-4.6,6-2.6,9.1c1.5,2.7,3.9,3.8,6.5,3.8
	c1.1,0,2.5-0.1,3.6-1l19.5-10.1l-2.6,9c-1.4,3.2,1.1,7.1,5.1,8.1c0.5,0.1,1.4,0.1,2,0.1c3.1,0,6.1-2,7-5l6.5-22l12.5-6.2l-9.1,32
	c-1.4,3.2,1.1,7.1,5.1,8.1c0.5,0,1.4,0.1,2,0.1c3.1,0,6.1-2,7-5l9.5-45.1l22.6-14v28l-32.1,33c-3,2.9-1,7,1.6,9.8
	c1.5,1.1,4.4,1.3,6.4,1.3c2,0,0.5-0.2,1.6-1.3l22.5-23.8v13.1l-14,16.1c-2.6,2.9-0.6,7,2,9.9c1.5,1.1,4.4,2,6.4,2s0.5-0.9,2-2
	l3.6-6.9v20.8c0,3.9,7.4,6.9,11.4,6.9s11.4-3,11.4-6.9v-20.8l7,6.9c1.5,1.1,3.5,2,5.1,2c2,0,3.9-0.9,5.4-2c3-2.9,3-7,0-9.9
	l-17.6-16.1v-13.1l25.6,23.8c1.5,1.1,3.4,1.3,5,1.3c2,0,3.9-0.2,5.4-1.3c3-2.9,3-7,0-9.8l-36-33v-28l26.5,14l13.1,45.1
	c1,3,3.9,5,7,5c0.5,0,1.4,0,2-0.1c4-1,6.4-4.9,5.1-8.1l-9.1-32.7l12.5,6.9l6.5,22c1,3,3.9,5,7,5c0.5,0,1.4,0,2-0.1
	c4-1,6.4-4.9,5.1-8.1l-2.6-9l19.5,10.1c1,0.9,2.5,1,3.6,1c2.5,0,5-1.1,6.5-3.8c2-3.1,0.9-7.1-2.6-9.1l-19.5-10.1l10-2.1
	c4-1,6.1-4.9,5.1-8.8c-1-3.2-5-5.2-9-4.2l-24.1,5.3l-12.9-6.2l35.4-8.9c4-1,6.1-4.2,5.1-8.1c-1-3.9-5-5.9-9-4.9l-49.5,12l-26.5-14
	l26.5-14l49.5,12c0.5,0.7,1.4,0.8,2,0.8c3.4,0,6.4-2,7-5c1-3.9-1.1-7.8-5.1-8.8l-35.4-8.2l12.9-6.9l24.1,6c0.5,0,1.4,0.1,2,0.1
	c3.4,0,6.4-2,7-5c1-3.2-1.1-7.1-5.1-8.1l-10-2.1l19.5-10.8C359.1,772.4,360.2,767.7,358.2,764.6L358.2,764.6z"/>
<path fill="#444444" d="M929.2,803.7c-2-3.1-6.2-4.1-10-2.2l-19.1,10.1l2.2-9c1-3.9-1.1-7.1-5.1-8.1c-4-1-8,1.1-9,4.9l-6.1,22
	l-12.9,6.2l9.1-32c1-3.2-1.1-7.1-5.1-8.1c-4-1-8,1-9,4.9l-15.1,45.1l-28.9,14v-28l38.1-33c3-2.9,4-7,1-9.9c-2.3-2.2-9.1-2.2-12,0
	l-27.1,23.9v-13.1l20-16.7c3-2.2,4-7,1-9.2c-3-2.9-9.1-2.9-12,0l-9,6.2v-20.1c0-3.9-7.1-6.9-11.1-6.9c-4,0-11.8,3-11.8,6.9v20.1
	l-1.1-6.2c-3-2.9-4.2-2.9-7.1,0c-2.9,2.2-7.8,7-4.8,9.2l13.1,16.7v13.1l-19.2-23.9c-3-2.2-4.8-2.2-7.8,0c-2.9,2.9-7.1,7-4.2,9.9
	l31.2,33v28l-20.1-14l-10.1-45.1c-1-3.9-3.9-5.9-7.9-4.9c-4,1-5.2,4.9-4.1,8.1l9.9,32l-12.8-6.2l-6.1-22c-1-3.9-5-5.9-9-4.9
	c-4,1-6.8,4.2-5.8,8.1l2.9,9l-19.1-10.1c-3.8-2-8-0.9-10,2.2c-2,3.7-0.9,7.8,2.2,9.8l19.8,10.1l-10,2.1c-4,1-6.1,4.9-5.1,8.8
	c0.3,3,3.3,5,7,5c0.2,0,1.1-0.7,2-0.7l24.1-6l12.2,6.9l-35.1,8.9c-4,1-6.1,4.2-5.1,8.1c1,3,4,5,7,5c0.9,0,1.1,0,2-0.1l49.8-12
	l26.2,14l-26.2,13.3l-49.8-12c-4-1-8,1.7-9,4.9c-1,3.9,1.1,7.1,5.1,8.1l35.1,8.9l-12.2,6.9l-24.1-6c-4-1-8,1-9,4.9
	c-1,3.2,1.1,7.1,5.1,8.1l10,2.1l-19.8,10.1c-3.2,2-4.2,6-2.2,9.8c1.1,2,3.3,3.1,6.1,3.1c1.1,0,2.8-0.1,3.9-1l19.1-10.1l-2.9,9
	c-1,3.9,1.8,7.1,5.8,8.1c0.2,0.1,1.1,0.1,2,0.1c3.1,0,6.1-2,7-5l6.1-22l12.9-6.2l-9.8,32c-1,3.2,1.8,7.1,5.8,8.1
	c0.2,0.1,1.1,0.1,2,0.1c3.1,0,6.1-2,7-5l7-45.1l20.1-14v28l-30.1,33c-3,2.9,0.1,7,3,9.9c1.8,1.1,5,2,6.9,2s-1.8-0.9,0-2l20.1-23.9
	v13.1l-11.2,16.7c-3,2.2,0.1,7,3,9.2c1.1,1.8,5,2,6.2,2c2,0-1.2-0.2,0-2l2-6.2v20.1c0,3.9,7.8,6.9,11.8,6.9s11.1-3,11.1-6.9v-20.1
	l9.1,6.2c1.8,1.8,4.8,2,6.8,2s4.1-0.2,5.9-2c2.3-2.2,1-7-2-9.2l-19.9-16.1v-13.8l28,23.9c1.1,1.1,4.1,2,6.1,2s4.8-0.9,5.9-2
	c3-2.9,1-7-2-9.9l-38-33v-28l28.9,14l14.1,45.1c1,3,4.1,5,7.9,5c0.2,0,1.2,0,2-0.1c4-1,6.1-4.9,5.1-8.1l-9.1-32l12.9,6.2l6.1,22
	c1,3,4,5,7,5c0.9,0,1.8,0,2-0.1c4-1,6.1-4.2,5.1-8.1l-2.2-9l19.1,10.1c1.1,0.9,2.8,1,3.9,1c2.2,0,5-1.1,6.1-3.1c2-3.7,1-7.8-2.2-9.8
	l-19.8-10.1l10-2.1c4-1,6.1-4.9,5.1-8.1c-1-3.9-5-5.9-9-4.9l-24.1,6l-12.9-6.9l35.7-8.9c4-1,6.1-4.2,5.1-8.1c-1-3.2-5-5.9-9-4.9
	l-49.8,12l-26.1-13.3l26.1-14l49.8,12c0.2,0.1,1.1,0.1,2,0.1c3.1,0,6.1-2,7-5c1-3.9-1.1-7.1-5.1-8.1l-35.7-8.9l12.9-6.9l24.1,6
	c0.9,0.1,1.8,0.7,2,0.7c3.1,0,6.1-2,7-5c1-3.9-1.1-7.8-5.1-8.8l-10-2.1l19.8-10.1c3.2-1.9,4.2-6,2.2-9.7L929.2,803.7z"/>
<path fill="#444444" d="M620.1,719.6c-1.1-2-4-2.9-6.8-1.2l-12.1,6.2l1.9-5.9c0.2-2.1-0.9-4.2-3.8-5.1c-2.2-0.9-5,0.9-5.2,3l-4.7,14
	l-8,4.1l6-20.1c0.9-2.1-0.3-4.9-3.1-5.1c-2.2-0.9-5,0.3-5.9,3l-11,28.2l-19.1,9v-17.2l25.9-21.7c1.3-1.2,3-4.1,1.1-6
	c-1.9-1.2-6.9-1.2-8.9,0l-18.1,15v-8.1l13.9-10.1c2-1.9,3-4.8,1.1-6c-1.9-1.9-6.9-1.9-8.1,0l-6.9,4.1v-13c0-2.8,2.9-4.8,0-4.8
	c-2.9,0,0,2,0,4.8v13l-6.9-4.1c-1.9-1.9-6-1.9-7.9,0c-1.3,1.2-0.1,4.1,1.9,6l13,10.1v8.1l-18.9-15c-1.3-1.2-5.9-1.2-7.4,0
	c-1.8,1.9-0.5,4.8,1.4,6l24.8,21.7v17.2l-19-9l-9.7-28.2c-0.6-2.8-3.8-3.9-6.3-3c-2.5,0.2-4.1,3-3.5,5.1l5.9,20.1l-8.4-4.1l-4-14
	c-0.5-2.1-3.1-3.9-5.9-3c-2.5,0.9-3.7,3-3.1,5.1l1.6,5.9l-12.1-6.2c-2.4-1.7-5.4-0.8-6.5,1.2c-1.4,2-0.5,4.9,1.6,5.9l12.4,6.1
	l-6.5,1.8c-2.5,0.9-4,3-3.5,5.1c0.9,2,2.5,3.1,4.9,3.1c0.1,0,0.6,0,1.1,0l15.5-3.2l8,4.1l-22.5,5.1c-2.5,0.9-4,3-3.4,5.1
	c0.9,2,2.5,3.7,4.8,3.7c0.1,0,0.6,0,1.1-0.1l31.5-7.9l17,9l-17,9l-31.5-7.9c-2.5-0.9-5,0.9-5.9,3c-0.5,2.1,0.9,4.9,3.4,5.1l22.5,5.8
	l-8,4.1l-15.5-3.9c-2.5-0.2-5,0.9-5.9,3c-0.5,2.1,0.9,4.9,3.5,5.1l6.5,1.8l-12.4,6.2c-2.1,1.7-3,3.9-1.6,5.9c0.6,1.8,2.1,2.7,4,2.7
	c0.6,0,1.6-0.7,2.5-0.9l12.1-6.9l-1.6,5.9c-0.9,2.1,0.6,4.9,3.1,5.1c0.5,0.7,0.9,0.7,1.4,0.7c2,0,4-1.8,4.5-3.7l4-14l8-4.1l-6,20.8
	c-0.5,2.1,0.9,4.2,3.5,5.1c0.5,0,0.9,0,1.1,0c2.4,0,4-1.1,4.8-3.1l10.6-28.9l19-9v17.9l-25.2,21c-1.8,1.9-2.9,4.1-1.1,6
	c1,0.9,1.3,1.1,2.4,1.1c1.7,0,4.8-0.1,5.7-1.1l18.1-15v8.8L535,813.4c-1.9,1.2-3,4.1-1.7,6c1,1,1.9,1.1,2.9,1.1
	c1.1,0,4.8-0.1,5.1-1.1l6.9-4.1v13c0,2.1-2.9,4.1,0,4.1c2.9,0,0-2,0-4.1v-13l7,4.1c1,1,3.8,1.1,4.9,1.1s3-0.1,4-1.1
	c1.3-1.9-0.8-4.8-2.7-6l-13.2-10.1v-8.8l19,15c1,0.9,3.1,1.1,4.2,1.1c1.7,0,3.7-0.1,4-1.1c1.9-1.9-0.1-4.1-2.1-6l-25.1-21v-17.9
	l19.1,9l9.9,28.9c0.9,2,3,3.1,5.1,3.1c0.8,0,1,0,1.8,0c2.2-0.9,4-3,3.1-5.1l-6-20.8l8,4.1l4.8,14c0.2,2,2.1,3.7,4.2,3.7
	c0.8,0,0.9,0,1.1-0.7c2.8-0.2,4-3,3.8-5.1l-1.9-5.9l12.1,6.9c0.9,0.1,1.8,0.9,2.8,0.9c1.2,0,3.1-0.9,4-2.7c1.1-2,0.2-4.2-1.9-5.9
	l-12.1-6.2l6.1-1.8c2.8-0.2,4-3,3.1-5.1c-0.2-2.1-3.1-3.2-5.2-3l-15.8,3.9l-8-4.1l22.8-5.8c2.2-0.2,4-3,3.1-5.1
	c-0.9-2.1-3.1-3.9-5.9-3l-31.2,7.9l-17-9l17-9l31.2,7.9c0.8,0,0.9,0.1,1.1,0.1c2,0,4-1.8,4.8-3.1c0.9-2.8-0.9-4.9-3.1-5.8l-22.8-5.1
	l8-4.1l15.8,3.2c0.1,0,0.3,0,1.1,0c2,0,4-1.1,4.2-3.1c0.9-2.1-0.3-4.2-3.1-5.1l-6.1-1.8l12.1-6.1
	C620.2,724.4,621.2,721.5,620.1,719.6L620.1,719.6z"/>
</svg>
