<?xml version="1.0" encoding="utf-8"?>
<!-- Generator: Adobe Illustrator 19.2.1, SVG Export Plug-In . SVG Version: 6.00 Build 0)  -->
<svg version="1.1" id="Calque_1" xmlns="http://www.w3.org/2000/svg" xmlns:xlink="http://www.w3.org/1999/xlink" x="0px" y="0px"
	 viewBox="0 0 1024 1024" enable-background="new 0 0 1024 1024" xml:space="preserve">
<path fill="#444444" d="M858.8,204.6c-32.4,0-62.6,9.4-88.2,25.6c-23.9-62.2-84.1-106.5-154.7-106.5c-28.7,0-55.8,7.3-79.3,20.2
	C498.8,94.7,439.7,62.9,373,62.9c-102.5,0-187.4,74.9-203.5,172.9C102,256.8,53,318.2,53,392.6c0,7.9,1.3,10.8,2.3,21.4h4
	c15.2,0,22.9,0,30.4,0c1.7,0,3.3,0,5.2,0c-0.5,0-1.4-12.1-1.4-16.7c0-55.2,35.4-104.9,88.1-121.4l23.9-8.3l4-25.1
	c13.2-80.5,81.9-139.1,163.5-139.1c51.8,0,99.7,23.6,131.5,65l21.1,27.4l30.4-16.6c18.2-9.9,39-15.2,59.9-15.2
	c51.5,0,98.4,32.4,116.9,80.5l17.7,46l41.7-26.2c20.1-12.6,43.1-19.3,66.6-19.3c69.1,0,125.4,55,125.4,124.1c0,2.3-0.5,5.4-0.7,5.4
	c-2.8,67.7-38,103.2-85.8,115.1c8.1,10.1,15.4,21.2,22,33c59.4-24.7,101.9-83.5,104.7-148.1c0.1,0,0.3-3.1,0.3-5.4
	C1024.6,277.6,950.4,204.6,858.8,204.6L858.8,204.6z"/>
<path fill="#444444" d="M834.4,462h-764c-9.6,0-17.4,15.1-17.4,24c0,8.8,7.8,24,17.4,24h764c9.6,0,17.4-15.1,17.4-24
	C851.8,477.1,844,462,834.4,462z"/>
<path fill="#444444" d="M833.2,541.8H19.1c-10.2,0-18.5,12.2-18.5,24c0,11.7,8.3,24,18.5,24h814.1c10.2,0,18.5-12.2,18.5-24
	C851.7,554,843.5,541.8,833.2,541.8z"/>
<path fill="#444444" d="M722.4,621.7H67.9c-8.3,0-14.9,12.2-14.9,24c0,11.7,6.7,24,14.9,24h654.5c8.2,0,14.8-12.2,14.8-24
	C737.2,633.8,730.6,621.7,722.4,621.7L722.4,621.7z"/>
<path fill="#444444" d="M344.1,768.6c-1.9-3.1-6.3-4.2-9.6-2.4l-18.6,9.7l2.6-8.6c1-3.4-1.2-7-5-7.9s-7.7,1.1-8.6,4.6l-6.2,21.1
	l-12.1,6.4l9-30.6c1-3.5-1.2-7-5-7.9c-3.8-0.9-7.7,1.1-8.6,4.6l-12.6,43.1L244.1,814v-26.7l34.5-31.6c2.8-2.5,2.7-6.6-0.1-9.1
	s-7.2-2.5-9.9,0L244.1,769v-12.7l16.8-15.5c2.8-2.5,2.7-6.6,0-9.1c-2.8-2.5-7.1-2.5-9.9,0l-6.9,6.4v-19.5c0-3.6-6.9-6.4-10.8-6.4
	c-3.9,0-10.8,2.9-10.8,6.4v19.5l-3.3-6.4c-2.8-2.5-5.4-2.5-8.2,0c-2.7,2.5-5.5,6.6-2.7,9.1l14.2,15.5V769l-21-22.5
	c-2.8-2.5-5.4-2.5-8.2,0s-5.5,6.6-2.7,9.1l31.9,31.6V814l-21.7-13.3L190,757.5c-1-3.4-4-5.5-7.7-4.6s-5.6,4.5-4.6,7.9l9.3,30.6
	l-12-6.4L169,764c-1-3.4-4.9-5.5-8.6-4.6c-3.7,0.9-6,4.5-5,7.9l2.5,8.6l-18.5-9.7c-3.4-1.8-7.7-0.7-9.6,2.4c-2,3.1-0.8,7,2.6,8.8
	l18.5,9.7l-9.5,2.3c-3.8,0.9-6,4.5-5,7.9c0.8,2.9,3.7,4.8,6.8,4.8c0.6,0,1.2-0.1,1.8-0.2l23.2-5.7l12.1,6.4l-33.7,8.2
	c-3.8,0.9-6,4.5-5,7.9c0.8,2.9,3.7,4.8,6.8,4.8c0.6,0,1.2-0.1,1.8-0.2l47.3-11.5l25.3,13.3l-25.3,13.3l-47.3-11.6
	c-3.8-0.9-7.7,1.1-8.6,4.6c-1,3.4,1.2,7,5,7.9l33.7,8.2l-12.1,6.4l-23.2-5.6c-3.7-0.9-7.6,1.1-8.6,4.5c-1,3.4,1.2,7,5,7.9l9.5,2.3
	l-18.5,9.7c-3.4,1.8-4.6,5.8-2.6,8.8c1.3,2.1,3.7,3.3,6.1,3.3c1.2,0,2.4-0.3,3.5-0.9l18.5-9.7l-2.5,8.6c-1,3.4,1.3,7,5,7.9
	c0.6,0.2,1.2,0.2,1.8,0.2c3.1,0,6-1.9,6.8-4.8l6.2-21.1l12.1-6.4l-9,30.7c-1,3.4,1.2,7,5,7.9c0.6,0.1,1.3,0.2,1.8,0.2
	c3.1,0,6-1.9,6.8-4.8l9-43.1l21.7-13.3v26.6l-30.9,31.6c-2.8,2.5-0.9,6.6,1.8,9.1c1.4,1.3,4.1,1.9,5.9,1.9s0.4-0.6,1.8-1.9
	l21.4-22.5v12.7l-13.3,15.5c-2.7,2.5-0.9,6.6,1.8,9.1c1.4,1.3,4.1,1.9,5.9,1.9c1.8,0,0.4-0.6,1.8-1.9l3.7-6.4v19.6
	c0,3.5,6.9,6.5,10.8,6.5c3.9,0,10.8-2.9,10.8-6.5v-19.6l6.9,6.4c1.4,1.3,3.2,1.9,5,1.9c1.8,0,3.6-0.6,5-1.9c2.8-2.5,2.8-6.6,0.1-9.1
	l-16.9-15.5v-12.7l24.5,22.5c1.4,1.3,3.2,1.9,5,1.9c1.8,0,3.6-0.6,5-1.9c2.8-2.5,2.8-6.6,0.1-9.1l-34.5-31.6v-26.6l25.2,13.3
	l12.6,43.1c0.9,2.9,3.7,4.8,6.8,4.8c0.6,0,1.2-0.1,1.8-0.2c3.8-0.9,6-4.5,5-7.9l-9-30.7l12.1,6.4l6.2,21.1c0.8,2.9,3.7,4.8,6.8,4.8
	c0.6,0,1.2-0.1,1.9-0.2c3.8-0.9,6-4.5,5-7.9l-2.6-8.6l18.6,9.7c1.1,0.6,2.3,0.9,3.5,0.9c2.4,0,4.8-1.2,6.1-3.3c2-3.1,0.8-7-2.6-8.8
	L323,863l9.5-2.3c3.8-0.9,6-4.5,5-7.9c-1-3.4-4.9-5.5-8.6-4.5l-23.2,5.6l-12.1-6.4l33.6-8.2c3.8-0.9,6-4.5,5-7.9s-4.9-5.5-8.6-4.6
	l-47.3,11.6L251,825.1l25.3-13.3l47.3,11.5c0.6,0.2,1.2,0.2,1.8,0.2c3.1,0,6-1.9,6.8-4.8c1-3.5-1.2-7-5-7.9l-33.6-8.2l12.1-6.4
	l23.2,5.7c0.6,0.1,1.2,0.2,1.8,0.2c3.1,0,6-1.9,6.9-4.8c1-3.4-1.2-7-5-7.9l-9.5-2.3l18.6-9.7C345,775.7,346.2,771.7,344.1,768.6
	L344.1,768.6z"/>
<path fill="#444444" d="M889.6,806c-1.9-3.1-6.3-4.1-9.6-2.4l-18.5,9.8l2.6-8.7c1-3.4-1.2-7-5-7.9c-3.8-0.9-7.7,1.1-8.6,4.6
	l-6.2,21.1l-12.1,6.4l9-30.7c1-3.4-1.2-7-5-7.9s-7.7,1.1-8.7,4.5L812.7,838l-27.4,13.3v-26.6l36.7-31.6c2.7-2.5,3.8-6.6,1-9.1
	c-2.8-2.5-8.8-2.5-11.6,0l-26.1,22.5v-12.7l19-15.4c2.8-2.5,3.8-6.6,1-9.1s-8.7-2.5-11.5,0l-8.5,6.4V756c0-3.5-7-6.5-10.8-6.5
	c-3.9,0-10.8,2.9-10.8,6.5v19.5l-1.1-6.4c-2.8-2.5-4.3-2.5-7.1,0c-2.7,2.5-7.1,6.6-4.3,9.1l12.6,15.4v12.7L744.8,784
	c-2.8-2.5-4.4-2.5-7.1,0c-2.8,2.5-7.1,6.6-4.4,9.1l30.3,31.6v26.6L744.1,838l-9.8-43.1c-1-3.4-3.4-5.5-7.2-4.5
	c-3.8,0.9-5.3,4.4-4.3,7.9l9.3,30.7l-11.9-6.4l-6.1-21.1c-1-3.5-4.9-5.5-8.6-4.6c-3.8,0.9-6,4.5-5,7.9l2.6,8.7l-18.5-9.8
	c-3.4-1.8-7.7-0.7-9.6,2.4c-2,3.1-0.8,7,2.6,8.8l18.6,9.8l-9.5,2.3c-3.8,0.9-6,4.5-5,7.9c0.9,2.9,3.7,4.8,6.8,4.8
	c0.6,0,1.2-0.1,1.8-0.2l23.2-5.7l12.1,6.4l-33.7,8.2c-3.8,0.9-6,4.5-5,7.9c0.8,2.9,3.7,4.8,6.8,4.8c0.6,0,1.2-0.1,1.8-0.3l47.3-11.5
	l25.4,13.3l-25.4,13.3l-47.3-11.6c-3.8-0.9-7.7,1.1-8.6,4.6c-1.1,3.4,1.2,7,5,7.9l33.7,8.2l-12.1,6.4l-23.2-5.7
	c-3.8-0.9-7.7,1.1-8.6,4.6c-1,3.5,1.3,7,5,7.9l9.5,2.3l-18.6,9.8c-3.4,1.8-4.5,5.7-2.6,8.8c1.3,2.1,3.7,3.2,6.1,3.2
	c1.2,0,2.4-0.3,3.5-0.9l18.5-9.8l-2.5,8.7c-1,3.4,1.2,7,5,7.9c0.6,0.2,1.2,0.3,1.9,0.3c3.1,0,6-1.9,6.8-4.8l6.2-21.1l12.1-6.3
	l-9,30.6c-1,3.4,1.2,7,5,7.9c0.6,0.1,1.2,0.2,1.8,0.2c3.1,0,6-1.9,6.8-4.8l6.9-43.1l19.5-13.3v26.7l-28.8,31.6
	c-2.8,2.5,0.1,6.6,2.9,9.1c1.4,1.2,4.7,1.9,6.5,1.9s-1.5-0.7-0.1-1.9l19.5-22.5v12.7l-11.1,15.5c-2.8,2.5,0.2,6.6,2.9,9.1
	c1.4,1.3,4.7,1.9,6.5,1.9s-1.5-0.6-0.1-1.9l1.9-6.3V969c0,3.6,7,6.4,10.8,6.4s10.8-2.9,10.8-6.4v-19.5l9,6.3c1.4,1.3,4.3,1.9,6,1.9
	c1.8,0,4.2-0.6,5.5-1.9c2.8-2.5,0.9-6.6-1.9-9.1l-18.7-15.4v-12.7l26.7,22.5c1.4,1.2,4.2,1.9,6,1.9c1.8,0,4.2-0.7,5.6-1.9
	c2.8-2.5,0.9-6.6-1.8-9.1l-36.4-31.6v-26.7l27.4,13.3l13.7,43.1c0.9,2.9,4.2,4.8,7.4,4.8c0.6,0,1.5-0.1,2.1-0.2
	c3.8-0.9,6.1-4.5,5.1-7.9l-8.9-30.7l12.1,6.4l6.2,21.1c0.8,2.9,3.7,4.8,6.8,4.8c0.6,0,1.2-0.1,1.9-0.3c3.8-0.9,6-4.5,5-7.9l-2.6-8.7
	l18.5,9.8c1.1,0.6,2.3,0.9,3.5,0.9c2.5,0,4.8-1.2,6.1-3.2c2-3.1,0.8-7-2.5-8.8l-18.6-9.8l9.5-2.3c3.8-0.9,6-4.5,5-7.9
	c-1-3.4-4.9-5.5-8.6-4.6l-23.2,5.7l-12-6.4l33.6-8.2c3.8-0.9,6-4.5,5-7.9c-1-3.4-4.9-5.5-8.6-4.6l-47.3,11.6l-25.3-13.3l25.3-13.3
	l47.3,11.5c0.6,0.2,1.2,0.3,1.8,0.3c3.1,0,6-1.9,6.8-4.8c1-3.4-1.2-7-5-7.9l-33.6-8.2l12-6.4l23.2,5.7c0.6,0.1,1.2,0.2,1.8,0.2
	c3.2,0,6-1.9,6.9-4.8c1-3.4-1.2-7-5-7.9l-9.5-2.3l18.6-9.8c3.4-1.8,4.5-5.7,2.6-8.8L889.6,806z"/>
<path fill="#444444" d="M594.1,725.5c-1.2-2-4-2.6-6.2-1.5l-11.8,6.2l1.6-5.5c0.6-2.2-0.8-4.4-3.2-5c-2.4-0.6-4.9,0.7-5.5,2.9
	l-4,13.4l-7.7,4.1l5.7-19.5c0.6-2.2-0.8-4.4-3.2-5c-2.4-0.6-4.9,0.7-5.5,2.9L544,745.9l-18.5,8.5v-16.9l24.5-20.1
	c1.7-1.6,2.9-4.2,1.2-5.8c-1.7-1.6-6.4-1.6-8.2,0l-17.4,14.3v-8.1l13.2-9.8c1.8-1.6,3-4.2,1.2-5.8c-1.7-1.6-6.4-1.6-8.2,0l-6.2,4
	v-12.4c0-2.3,2.5-4.1,0-4.1c-2.5,0,0,1.8,0,4.1v12.4l-6.5-4c-1.7-1.6-5.7-1.6-7.4,0c-1.7,1.6-0.2,4.2,1.6,5.8l12.4,9.8v8.1
	l-17.8-14.3c-1.8-1.6-5.6-1.6-7.4,0c-1.7,1.6-0.2,4.2,1.6,5.8l23.6,20.1v16.9l-18.2-8.5l-9.1-27.4c-0.6-2.2-3.6-3.5-6-2.9
	c-2.4,0.6-4.1,2.8-3.4,5l5.6,19.5l-7.8-4.1l-4-13.4c-0.6-2.2-3.1-3.5-5.6-2.9s-3.8,2.8-3.2,5l1.6,5.5l-11.8-6.2
	c-2.2-1.1-4.9-0.5-6.2,1.5s-0.5,4.5,1.7,5.6l11.8,6.2l-6.1,1.5c-2.4,0.6-3.8,2.8-3.2,5c0.6,1.8,2.4,3.1,4.4,3.1c0.4,0,0.8,0,1.2-0.1
	l14.7-3.6l7.7,4.1l-21.5,5.2c-2.4,0.6-3.8,2.8-3.2,5c0.5,1.9,2.3,3.1,4.3,3.1c0.4,0,0.8-0.1,1.2-0.2l30.1-7.4l16.1,8.5l-16.1,8.5
	l-30.1-7.4c-2.4-0.6-4.9,0.7-5.5,2.9c-0.6,2.2,0.8,4.4,3.2,5l21.5,5.2l-7.7,4.1l-14.7-3.6c-2.4-0.6-4.9,0.7-5.5,2.9
	c-0.6,2.2,0.8,4.5,3.2,5l6.1,1.5l-11.8,6.2c-2.2,1.1-2.9,3.7-1.7,5.6c0.8,1.3,2.3,2,3.9,2c0.8,0,1.5-0.2,2.3-0.5l11.8-6.2l-1.6,5.5
	c-0.7,2.2,0.8,4.4,3.2,5c0.4,0.1,0.8,0.1,1.2,0.1c2,0,3.8-1.2,4.4-3l4-13.4l7.7-4.1l-5.7,19.5c-0.7,2.2,0.8,4.5,3.2,5.1
	c0.4,0.1,0.8,0.1,1.2,0.1c2,0,3.8-1.2,4.3-3l10.2-27.4l18.2-8.5v17l-24.2,20.1c-1.7,1.6-2.8,4.2-1.1,5.8c0.9,0.8,1.5,1.2,2.7,1.2
	c1.2,0,4.1-0.4,5-1.2l17.5-14.3v8.1l-12.9,9.8c-1.8,1.6-2.8,4.2-1.1,5.8c0.9,0.8,1.5,1.2,2.7,1.2s4.1-0.4,5-1.2l6.3-4v12.5
	c0,2.3-2.5,4.1,0,4.1c2.5,0,0-1.8,0-4.1v-12.4l6.8,4c0.9,0.8,3.3,1.2,4.4,1.2c1.1,0,2.9-0.4,3.8-1.2c1.7-1.6-0.3-4.2-2.1-5.8
	l-12.9-9.8v-8.1l18.1,14.3c0.9,0.8,3.2,1.2,4.4,1.2c1.2,0,2.9-0.4,3.8-1.2c1.7-1.6-0.4-4.2-2.1-5.8l-24.1-20.1v-17l18.5,8.5
	l9.2,27.4c0.5,1.8,2.9,3,5,3c0.4,0,1.1,0,1.4-0.1c2.4-0.6,4-2.8,3.3-5.1l-5.7-19.5l7.7,4.1l4,13.4c0.5,1.8,2.3,3,4.3,3
	c0.4,0,0.8-0.1,1.2-0.1c2.4-0.6,3.8-2.8,3.2-5l-1.6-5.5L588,799c0.7,0.4,1.5,0.5,2.3,0.5c1.6,0,3.1-0.7,3.9-2c1.2-2,0.5-4.5-1.6-5.6
	l-11.8-6.2l6.1-1.5c2.4-0.6,3.8-2.8,3.2-5c-0.6-2.2-3.1-3.5-5.5-2.9l-14.7,3.6l-7.7-4.1l21.4-5.2c2.4-0.6,3.8-2.8,3.2-5
	s-3.1-3.5-5.5-2.9L551,770l-16.1-8.5L551,753l30.1,7.4c0.4,0.1,0.8,0.2,1.2,0.2c2,0,3.8-1.2,4.4-3.1c0.6-2.2-0.8-4.4-3.2-5
	l-21.4-5.2l7.7-4.1l14.7,3.6c0.4,0.1,0.8,0.1,1.1,0.1c2,0,3.8-1.2,4.4-3.1c0.6-2.2-0.8-4.4-3.2-5l-6.1-1.5l11.8-6.2
	C594.6,730,595.4,727.5,594.1,725.5L594.1,725.5z"/>
</svg>
