<?xml version="1.0" encoding="utf-8"?>
<!-- Generator: Adobe Illustrator 19.2.1, SVG Export Plug-In . SVG Version: 6.00 Build 0)  -->
<svg version="1.1" id="Calque_1" xmlns="http://www.w3.org/2000/svg" xmlns:xlink="http://www.w3.org/1999/xlink" x="0px" y="0px"
	 viewBox="0 0 1024 1024" enable-background="new 0 0 1024 1024" xml:space="preserve">
<path fill="#444444" d="M943.4,434.2c-29.8,36.1-68.1,62.9-110.5,78.7c-15.5-58.4-68.3-101.5-131.3-101.5c-17.5,0-33.7,3.6-49.2,9.5
	c-7.9,3.2-15.9,6.9-23.3,11.5c-19.3-51-68.7-87.2-126.7-87.2c-2.1,0-4.3,0.2-6.5,0.3c-7.2-23.7-11.3-49-11.3-75.2
	c0-94,51.3-180.7,133.3-226.3L697.1,0l-89.9,10.1C452,27.2,331.1,145.7,306.4,295.4c-1-0.2-2-0.2-3.2-0.2
	c-83.9,0-153.4,61.4-166.6,141.8c-55.3,17.1-95.5,68.9-95.5,129.6c0,75.1,60.8,135.9,135.9,135.9c9.9,0,19.6-1.1,28.9-3
	c19.8,50.6,68.9,86.4,126.5,86.4c47.3,0,89-24.3,113.4-60.9c25.9,20.6,58.7,33.3,94.7,33.3c50.8,0,95.8-25.1,123.7-63.6
	c142.7-8.1,269-105.8,310.4-243.9l26.2-86.8L943.4,434.2L943.4,434.2z M530.1,66.5c-51.8,54.2-81.8,126.9-81.8,203.7
	c0,28.3,4.2,55.8,11.7,81.9c-7.9,2.5-15.4,5.6-22.5,9.5c-22.8-29.5-55.1-51.4-92.2-60.9c-0.9-0.3-1.9-0.4-2.8-0.7
	C360.2,194.4,431.9,106.2,530.1,66.5L530.1,66.5z M540.5,724.9c-27.1,0-52.8-8.8-74.2-25.7l-28.2-22.5l-19.9,30.1
	c-19.2,28.9-51.3,46-85.7,46c-42.6,0-80.1-25.5-95.6-65.5l-10.3-26.3L199,667c-7.4,1.7-14.8,2.5-21.9,2.5
	c-56.7,0-102.7-46-102.7-102.9c0-45.2,29-84.5,72.2-98.1l19.6-6.1l3.3-20.2c10.8-65.7,66.7-113.4,133.2-113.8c0.2,0,0.4,0,0.6,0
	c10.6,0,20.8,1.3,30.7,3.6c1.5,0.3,3.2,0.9,4.7,1.2c28.5,7.8,53.8,24.3,72.3,48.6l17.3,22.5l25.1-13.6c5.4-3.1,11.4-5.5,17.5-7.4
	c10.2-3.3,20.7-5.1,31.4-5.1c2.2,0,4.3,0.4,6.4,0.5c39.5,2.6,75,28.1,89.3,65.5l14.7,37.8l12.3-7.9l21.7-13.6
	c16.6-10.3,35.4-15.9,54.8-15.9c47.9,0,88.2,33.2,99.5,77.7c2,7.8,3.1,16.2,3.1,25.1c0,3.8-0.2,7.6-0.8,11.4
	c-5.7,51.4-49.1,91.1-101.8,91.1c-7.2,0-14.5-0.8-21.4-2.1l-24-4.9l-8.9,16.1l-2.8,4.9c-6.5,11.8-15,21.6-24.9,30.2
	C597.9,713.5,569.9,724.9,540.5,724.9L540.5,724.9z M827.2,599.2c6.1-15.2,9.7-31.9,9.9-49.6c23.9-7.8,46.4-18.7,67.2-32.3
	C883.7,549.4,857.4,576.9,827.2,599.2z"/>
<path fill="#444444" d="M681.9,202l-38-64.2l-6.9,74.2l-72.9,16.2l68.7,31.8l-6.6,76.3l49.5-56.2l68.3,29.1L705.7,244l48.8-58.1
	L681.9,202z"/>
<path fill="#444444" d="M833.8,325.7l16.4,34l7.2-37.9l37.9-6.2L862,297.8l6.6-37.4l-27.3,26.3l-33.5-17.8l16,35.1l-27.6,27.2
	L833.8,325.7z"/>
<path fill="#444444" d="M306.4,843.9c-1.8-2.7-5.5-3.7-8.4-2l-16.1,8.5l2.1-7.5c0.9-2.9-1-6.3-4.3-6.8c-3.3-0.9-6.6,1-7.5,3.9
	l-5.5,18.2l-10.4,5.5l7.9-26.5c0.9-2.9-1.2-6.3-4.5-7.1c-3.3-0.5-6.6,1.3-7.5,4.2l-10.9,37.5l-22,11.5v-23.3l30.1-27.4
	c2.4-2.1,2.3-5.7,0-7.8c-2.4-2.4-6.2-2.4-8.6,0l-21.5,19.3v-10.8l14.6-13.7c2.6-2.1,2.4-5.7,0-7.8c-2.4-2.4-6.2-2.4-8.6,0l-6,5.5
	v-17c0-3.3-6.1-5.6-9.4-5.6c-3.3,0-9.4,2.3-9.4,5.6v17l-2.8-5.5c-2.4-2.4-4.7-2.4-7.3,0c-2.4,2.1-4.7,5.7-2.4,7.8l12.4,13.7v10.8
	l-18.3-19.3c-2.4-2.4-4.7-2.4-7.1,0c-2.4,2.1-4.9,5.7-2.4,7.8l27.7,27.4v23.3l-18.8-11.5l-9.6-37.5c-0.7-2.9-3.4-4.7-6.7-4.2
	c-3.3,0.8-4.8,4.2-3.9,7.1l8,26.5l-10.4-5.5l-5.5-18.2c-0.9-2.9-4.2-4.7-7.5-3.9c-3.3,0.5-5.2,3.8-4.3,6.8l2.2,7.5l-16.2-8.5
	c-2.9-1.7-6.6-0.7-8.4,2c-1.6,2.7-0.6,6.3,2.3,7.6l16.1,8.5l-8.2,2c-3.3,0.8-5.2,4.2-4.5,7.1c0.8,2.3,3.2,4,6,4c0.5,0,1-0.1,1.7-0.1
	l20.2-4.8l10.4,5.6l-29.4,7c-3.1,0.9-5.2,3.8-4.3,7.1c0.8,2.3,3.2,4,6,4c0.5,0,1-0.1,1.5-0.1l41.2-10.1l22,11.8l-22,11.5l-41.2-10.2
	c-3.3-0.8-6.6,1-7.5,3.9c-0.9,3.3,1.2,6.2,4.3,7.1l29.4,7l-10.4,5.5l-20.2-4.8c-3.2-0.9-6.8,0.9-7.7,3.9c-0.7,2.9,1.2,6.3,4.5,7.1
	l8.2,2l-16.1,8.5c-2.9,1.7-3.9,4.9-2.3,7.6c1.2,1.8,3.2,2.8,5.5,2.8c1,0,2-0.2,3-0.8l16.2-8.5l-2.2,7.5c-0.9,3,1,6.3,4.3,7.1
	c0.5,0.1,1,0.1,1.7,0.1c2.6,0,5.2-1.7,5.8-4.4L159,928l10.4-5.6l-7.9,26.6c-0.7,3.3,1.2,6.3,4.5,7.1c0.5,0.1,1,0.1,1.5,0.1
	c2.8,0,5.2-1.7,6-4.4l7.9-37.5l18.8-11.5v23.3l-27,27.4c-2.4,2.1-0.7,5.7,1.7,8.1c1.1,1,3.5,1.4,5.2,1.4c1.5,0,0.2-0.4,1.5-1.4
	l18.7-19.6v10.8l-11.6,13.7c-2.4,2.1-0.8,5.7,1.5,7.8c1.3,1.1,3.6,1.7,5.2,1.7c1.7,0,0.4-0.7,1.7-1.7l3.2-5.6V986
	c0,3,6.1,5.6,9.4,5.6c3.4,0,9.4-2.6,9.4-5.6v-17.3l6,5.6c1.1,1.1,2.8,1.7,4.3,1.7c1.5,0,3.2-0.7,4.3-1.7c2.4-2.1,2.6-5.7,0.1-7.8
	l-14.6-13.7v-10.8l21.4,19.6c1.1,1,2.8,1.4,4.3,1.4s3.2-0.4,4.3-1.4c2.4-2.4,2.4-6,0-8.1l-30.1-27.4v-23.3l22,11.5l10.9,37.5
	c0.8,2.6,3.2,4.4,6,4.4c0.5,0,1,0,1.5-0.1c3.5-0.8,5.4-3.8,4.5-7.1l-7.9-26.6l10.4,5.6l5.5,18.2c0.8,2.6,3.2,4.4,6,4.4
	c0.5,0,1,0,1.5-0.1c3.3-0.8,5.2-4.2,4.3-7.1l-2.1-7.5l16.1,8.5c1,0.6,2,0.8,3.1,0.8c2,0,4.2-1,5.3-2.8c1.8-2.7,0.8-5.9-2.3-7.6
	l-16.1-8.5l8.2-2c3.3-0.8,5.4-4.2,4.5-7.1c-0.9-2.9-4.3-4.7-7.5-3.9l-20.2,4.8l-10.6-5.5l29.4-7c3.3-0.9,5.2-3.8,4.3-7.1
	c-0.9-3-4.2-4.7-7.5-3.9l-41.2,10.2l-22-11.5l22-11.8l41.2,10.1c0.5,0.1,1,0.1,1.5,0.1c2.7,0,5.2-1.7,6-4c0.9-3.3-1-6.3-4.3-7.1
	l-29.4-7l10.6-5.6l20.2,4.8c0.5,0.1,1,0.1,1.5,0.1c2.8,0,5.2-1.7,6-4c0.9-2.9-1.2-6.3-4.5-7.1l-8.2-2l16.1-8.5
	C307.2,850.2,308.2,846.6,306.4,843.9L306.4,843.9z"/>
<path fill="#444444" d="M781.6,876.6c-1.7-2.7-5.5-3.7-8.4-2l-16.1,8.5l2.1-7.5c0.9-3.3-1-6.3-4.1-7.1c-3.5-0.9-6.6,1-7.5,4.2
	l-5.5,18.2l-10.5,5.6l7.7-26.6c0.9-3.3-1-6.3-4.5-7.1c-3.1-0.9-6.6,0.9-7.5,4.2l-12.6,37.6l-24.1,11.5v-23.3l31.9-27.4
	c2.5-2.1,3.5-5.7,0.9-8.1c-2.2-2.1-7.6-2.1-10.2,0l-22.7,19.6v-11.2l16.6-13.3c2.2-2.1,3.1-5.7,0.9-7.8c-2.5-2.4-7.6-2.4-10.1,0
	l-7.4,5.5v-17.3c0-3-5.9-5.6-9.4-5.6c-3.5,0-9.4,2.6-9.4,5.6v17.3l-1-5.5c-2.6-2.4-3.8-2.4-6.3,0c-2.2,2.1-6,5.7-3.8,7.8l11,13.3
	v11.2l-16.2-19.6c-2.6-2.1-4.1-2.1-6.3,0c-2.5,2.4-6.3,6-3.8,8.1l26.3,27.4v23.3L655,904.6l-8.5-37.6c-0.9-3.3-2.9-5.1-6.4-4.2
	c-3.1,0.8-4.7,3.8-3.7,7.1l8.2,26.6l-10.4-5.6l-5.4-18.2c-0.9-3.3-4-5.1-7.5-4.2c-3.1,0.8-5,3.8-4.1,7.1l2.1,7.5l-16.1-8.5
	c-3.2-1.7-7-0.7-8.4,2c-1.8,2.7-0.8,5.9,2.1,7.6l16.1,8.5l-8.3,2c-3.1,0.9-5,3.8-4.2,7.1c0.8,2.3,3.1,4,5.8,4c0.7,0,1,0,1.7-0.1
	l20-4.8l10.8,5.6l-29.5,6.9c-3.1,0.9-5,3.8-4.1,6.8c0.5,2.6,3.1,4.4,5.8,4.4c0.7,0,1-0.1,1.7-0.1l41.2-10.1l21.9,11.5L654,937.4
	l-41.2-10.1c-3.5-0.9-6.6,1-7.5,3.9c-0.9,2.9,1,6.2,4.1,7.1l29.5,7l-10.8,5.6l-20-4.8c-3.4-0.9-6.6,1-7.5,3.9
	c-0.9,2.9,1,6.3,4.2,6.7l8.3,2.3l-16.1,8.5c-2.9,1.3-3.9,4.9-2.1,7.6c1.1,1.8,3.1,2.8,5.1,2.8c1,0,2.4-0.1,3.3-0.8l16.1-8.5
	l-2.1,7.5c-0.9,2.9,1,6.2,4.1,6.7c0.7,0.1,1,0.4,1.7,0.4c2.7,0,5-1.7,5.8-4.4l5.5-18.2l10.5-5.6l-7.7,26.6c-0.9,3,1,6.3,4.1,6.8
	c0.6,0.4,1.3,0.4,1.7,0.4c2.7,0,5.4-1.7,5.8-4.4L655,947l16.9-11.5v23.3l-25.1,27.4c-2.2,2.1,0.1,5.7,2.6,7.8c1.1,1,3.9,1.7,5.6,1.7
	c1.7,0-1.2-0.7-0.1-1.7l17-19.6v11.1l-9.6,13.7c-2.5,2.1,0.1,5.7,2.3,7.8c1.4,1.1,4.3,1.7,5.6,1.7c1.7,0-1.2-0.7-0.1-1.7l1.7-5.5v17
	c0,3.3,5.9,5.6,9.4,5.6c3.5,0,9.4-2.3,9.4-5.6v-17l7.7,5.5c1.4,1.1,3.7,1.7,5.4,1.7c1.7,0,3.7-0.7,4.8-1.7c2.6-2.1,0.8-5.7-1.4-7.8
	l-16.5-13.7v-11.1l23.3,19.6c1.1,1,3.7,1.7,5,1.7c1.7,0,3.7-0.7,5.1-1.7c2.2-2.1,0.8-5.7-1.7-7.8l-31.8-27.4v-23.3l24.1,11.5
	l11.7,37.5c0.8,2.6,3.7,4.4,6.5,4.4c0.6,0,1.5,0,1.8-0.4c3.5-0.5,5.5-3.8,4.5-6.8l-7.7-26.6l10.5,5.6l5.5,18.2
	c0.4,2.6,3.1,4.4,5.8,4.4c0.4,0,1-0.4,1.7-0.4c3.1-0.5,5-3.8,4.1-6.7l-2.1-7.5l16.1,8.5c1,0.7,2,0.8,3,0.8c2.4,0,4.4-1,5.4-2.8
	c1.8-2.7,0.8-6.3-2.1-7.6l-16.4-8.5l8.3-2.3c3.5-0.5,5.4-3.8,4.5-6.7c-0.9-2.9-4.4-4.7-7.5-3.9l-20.4,4.8l-10.4-5.6l29.2-7
	c3.5-0.8,5.4-4.2,4.5-7.1c-0.9-2.9-4.1-4.7-7.5-3.9l-41.2,10.1l-21.9-11.8l21.9-11.5l41.2,10.1c0.7,0.1,1,0.1,1.7,0.1
	c2.7,0,5-1.7,5.8-4.4c0.9-2.9-1-5.9-4.5-6.8l-29.2-6.9l10.4-5.6l20.4,4.8c0.3,0.1,1,0.1,1.7,0.1c2.4,0,5-1.7,5.8-4
	c0.9-3.3-1-6.2-4.5-7.1l-8.3-2l16.4-8.5c2.9-1.7,3.8-4.9,2.1-7.6L781.6,876.6z"/>
<path fill="#444444" d="M524.1,806.4c-1.1-1.8-3.5-2.1-5.4-1.2l-10.3,5.2l1.4-4.8c0.7-1.9-0.6-3.8-2.6-4.1c-2.2-0.6-4.4,0.4-4.9,2.3
	l-3.4,11.9l-6.6,3.6l4.9-17.3c0.5-1.9-0.6-3.8-2.8-4.2c-2-0.7-4.2,0.4-4.7,2.3l-9,24.1l-16.3,7.4v-14.9l21.4-17.6
	c1.4-1.2,2.5-3.7,1-4.9c-1.5-1.3-5.6-1.2-7.1,0l-15.3,12.3v-6.9l11.5-8.5c1.5-1.6,2.5-3.7,1-5.3c-1.5-1.3-5.6-1.3-7.1,0l-5.5,3.6
	v-11c0-1.9,2.2-3.3,0-3.3c-2.1,0,0,1.3,0,3.3v11l-5.6-3.6c-1.5-1.3-4.8-1.3-6.5,0c-1.5,1.6-0.1,3.7,1.4,5.3l10.8,8.5v6.9l-15.5-12.3
	c-1.5-1.2-4.8-1.2-6.5,0c-1.5,1.3-0.1,3.7,1.4,4.9l20.6,17.6v14.9l-15.9-7.4l-8-24.1c-0.5-1.9-3-3-5.2-2.3c-2,0.4-3.5,2.3-3,4.2
	l4.8,17.3l-6.7-3.6l-3.6-11.9c-0.5-1.9-2.6-3-4.8-2.3c-2,0.4-3.3,2.3-2.8,4.1l1.4,4.8l-10.3-5.2c-1.9-1-4.3-0.6-5.3,1.2
	s-0.4,3.8,1.4,4.8l10.3,5.5l-5.2,1.2c-2.2,0.7-3.3,2.6-2.8,4.5c0.5,1.7,2,2.7,3.8,2.7c0.4,0,0.6,0,1-0.1l12.8-3.4l6.8,3.6l-18.7,4.6
	c-2.2,0.7-3.3,2.6-2.8,4.5c0.4,1.4,2,2.7,3.8,2.7c0.4,0,0.6-0.4,1-0.4l26.2-6.1l14,7.1l-14,7.4l-26.2-6.5c-2-0.3-4.2,0.7-4.7,2.6
	c-0.5,1.9,0.6,3.8,2.8,4.5l18.7,4.6l-6.8,3.3l-12.8-3c-2.2-0.4-4.2,0.7-4.8,2.6c-0.5,1.9,0.6,3.8,2.8,4.2l5.2,1.5l-10.3,5.5
	c-1.9,1-2.5,3-1.4,4.8c0.6,1.1,2,1.8,3.3,1.8c0.8,0,1.4-0.1,1.9-0.6l10.3-5.5l-1.4,5.1c-0.5,1.9,0.8,3.8,2.8,4.1
	c0.4,0,0.8,0.1,1,0.1c1.8,0,3.3-1,3.8-2.4l3.6-11.9l6.7-3.6l-5.1,16.9c-0.5,1.9,0.8,4.2,2.8,4.5c0.4,0.1,0.8,0.1,1,0.1
	c1.8,0,3.5-1,3.8-2.7l8.9-23.7l15.9-7.4v14.9l-21,17.3c-1.5,1.6-2.4,3.7-0.9,5.3c0.8,0.8,1.3,1,2.3,1c1.2,0,3.7-0.2,4.5-1l15.2-12.3
	v6.9l-11.2,8.5c-1.5,1.6-2.4,3.7-0.9,5.3c0.8,0.4,1.3,1,2.3,1s3.7-0.5,4.5-1l5.3-3.6v10.6c0,2.2-2.1,3.6,0,3.6c2.2,0,0-1.3,0-3.6
	v-10.6l6,3.6c0.8,0.4,2.8,1,3.8,1c1,0,2.4-0.5,3.3-1c1.5-1.6-0.4-3.7-1.9-5.3l-11.2-8.5V869l15.8,12.3c0.7,0.8,2.8,1,3.8,1
	s2.5-0.2,3.3-1c1.5-1.6-0.4-3.7-1.9-5.3l-21-17.3V844l16.3,7.4l8,23.7c0.5,1.7,2.5,2.7,4.3,2.7c0.4,0,0.9,0,1.3-0.1
	c2-0.4,3.4-2.6,2.9-4.5l-5-17l6.8,3.6l3.4,11.9c0.4,1.4,2.1,2.4,3.8,2.4c0.4,0,0.8,0,1.2-0.1c2-0.3,3.3-2.3,2.6-4.1l-1.4-5.1
	l10.3,5.5c0.7,0.5,1.3,0.6,2.1,0.6c1.2,0,2.5-0.7,3.3-1.8c1.3-1.8,0.5-3.8-1.3-4.8l-10.3-5.5l5.2-1.5c2-0.3,3.3-2.2,2.8-4.2
	c-0.5-1.9-2.8-3-4.7-2.6l-13,3l-6.6-3.3l18.7-4.6c2-0.7,3.3-2.6,2.8-4.5c-0.7-1.9-2.8-3-4.9-2.6l-26,6.5l-14-7.4l14-7.1l26,6.1
	c0.4,0,0.8,0.4,1.2,0.4c1.6,0,3.3-1.3,3.8-2.7c0.5-1.9-0.8-3.8-2.8-4.5l-18.7-4.6l6.6-3.6l13,3.4c0.2,0.1,0.6,0.1,1,0.1
	c1.6,0,3.3-1,3.8-2.7c0.5-1.9-0.8-3.8-2.8-4.5l-5.2-1.2l10.3-5.5C524.6,810.3,525.4,808.2,524.1,806.4L524.1,806.4z"/>
</svg>
