<?xml version="1.0" encoding="utf-8"?>
<!-- Generator: Adobe Illustrator 19.2.1, SVG Export Plug-In . SVG Version: 6.00 Build 0)  -->
<svg version="1.1" id="Calque_1" xmlns="http://www.w3.org/2000/svg" xmlns:xlink="http://www.w3.org/1999/xlink" x="0px" y="0px"
	 viewBox="0 0 1024 1024" enable-background="new 0 0 1024 1024" xml:space="preserve">
<path fill="#444444" d="M854.9,314c-23.9,0-47.4,5-69.2,14.7c-29.8-53.1-86.9-87.4-148.7-87.4c-22.5,0-44.7,4.4-65.3,13
	c-39.2-43.1-93.9-67.5-152.6-67.5c-97.4,0-180.1,66.7-201.4,160.5c-63.6,25.3-106.1,86.4-107.2,155.8c-0.2,12,9.4,22,21.4,22.1
	c0.1,0,0.2,0,0.4,0c11.9,0,21.6-9.5,21.8-21.4c0.8-55,36.6-103,89-119.3l12.8-4l2.2-13.3c13-79.2,80.7-136.8,161-136.8
	c51,0,98.2,23.3,129.5,64.1l11.4,14.8l16.4-9c18.5-10.1,39.4-15.4,60.7-15.4c52.9,0,99.4,32,118.5,81.5l9.5,24.8l22.5-14.1
	c20.3-12.8,43.6-19.6,67.4-19.6c70,0,127,57,127,127c0,78.7-72.9,141.1-153.4,124.2l-15.6-3.3l-7.8,13.9
	c-25.7,45.7-74.2,74.1-126.4,74.1c-33,0-64.1-10.9-90-31.5l-18.6-14.8L557,667.1c-22,33.2-59,54.3-99,56.5
	c-12,0.6-21.2,10.9-20.6,22.9c0.6,11.6,10.2,20.6,21.7,20.6c0.4,0,0.8,0,1.2,0c46.1-2.5,89.3-23.8,119.3-58.2
	c29.8,18.5,63.5,28.1,99,28.1c62.8,0,121.3-31.5,156.3-83.1c101.8,11.9,190.5-68.8,190.5-169.4C1025.5,390.4,949,313.9,854.9,314
	L854.9,314z"/>
<path fill="#444444" d="M546.2,481.7c0-60-48.9-108.9-108.9-108.9c-60.1,0-108.9,48.9-108.9,108.9c0,12,9.7,21.8,21.8,21.8
	s21.8-9.7,21.8-21.8c0-36,29.3-65.3,65.3-65.3s65.3,29.3,65.3,65.3c0,36-29.3,65.4-65.3,65.4H1.6v43.6h435.7
	C497.3,590.7,546.2,541.8,546.2,481.7z"/>
<path fill="#444444" d="M306.5,612.5H1.5V656h305c36,0,65.3,29.3,65.3,65.3c0,36-29.3,65.3-65.3,65.3s-65.3-29.3-65.3-65.3
	c0-12.1-9.7-21.8-21.8-21.8c-12.1,0-21.8,9.7-21.8,21.8c0,60.1,48.8,108.9,108.9,108.9c60.1,0,108.9-48.9,108.9-108.9
	C415.5,661.3,366.6,612.5,306.5,612.5z"/>
</svg>
