<?xml version="1.0" encoding="utf-8"?>
<!-- Generator: Adobe Illustrator 19.2.1, SVG Export Plug-In . SVG Version: 6.00 Build 0)  -->
<svg version="1.1" id="Calque_1" xmlns="http://www.w3.org/2000/svg" xmlns:xlink="http://www.w3.org/1999/xlink" x="0px" y="0px"
	 viewBox="0 0 1024 1024" enable-background="new 0 0 1024 1024" xml:space="preserve">
<path fill="#444444" d="M944.8,639.3c-72.7,88.6-180.1,139.4-294.6,139.4c-210,0-381-170.9-381-380.9
	c0-138.3,75.3-265.9,196.4-333.2L582.1,0L449.8,14.7C193.4,43.2,0,259.5,0,517.7C0,796.9,227.1,1024,506.4,1024
	c221.5,0,420.8-148,484.7-360.1l38.6-128L944.8,639.3L944.8,639.3z M506.4,970.6c-249.7,0-452.9-203.1-452.9-452.9
	c0-188.7,115.4-352.3,282.8-419.8c-76.1,79.7-120.4,186.7-120.4,299.9c0,239.5,194.9,434.4,434.4,434.4
	c85.5,0,167.5-24.8,237.3-70.4C805.6,888.9,662.1,970.6,506.4,970.6L506.4,970.6z"/>
<path fill="#444444" d="M559.7,297.4L504,202.7L493.4,312l-107.1,23.8l101.4,46.8L477.8,495l72.7-82.6l100.5,42.9L594.9,359l72-85.5
	L559.7,297.4z"/>
<path fill="#444444" d="M783.4,479.6l24.5,49.9l10.3-55.7l56.1-9.1L825,438.4l9.8-55l-40.2,38.7l-49.3-26.3l23.6,51.6L728,487.5
	L783.4,479.6z"/>
</svg>
