<?xml version="1.0" encoding="utf-8"?>
<!-- Generator: Adobe Illustrator 19.2.1, SVG Export Plug-In . SVG Version: 6.00 Build 0)  -->
<svg version="1.1" id="Calque_1" xmlns="http://www.w3.org/2000/svg" xmlns:xlink="http://www.w3.org/1999/xlink" x="0px" y="0px"
	 viewBox="0 0 1024 1024" enable-background="new 0 0 1024 1024" xml:space="preserve">
<path fill="#444444" d="M35.6,802.4c-47.1,47.1-47,123.4,0,170.4c47,47,123.3,47,170.3,0c47-47,450.4-609.4,478.7-649.1
	C644.9,352,82.6,755.4,35.6,802.4z"/>
<path fill="#444444" d="M483.6,373.8C510,347.4,737,30.9,753,8.5c-22.3,16-338.7,243-365.2,269.4c-26.5,26.5-26.5,69.4,0,95.9
	S457.2,400.3,483.6,373.8z"/>
<path fill="#444444" d="M82.7,519.5c18.8-18.9,180.6-244.4,191.9-260.3c-15.9,11.4-241.4,173.1-260.2,192
	c-18.8,18.9-18.8,49.5,0,68.3C33.3,538.4,63.9,538.4,82.7,519.5L82.7,519.5z"/>
<path fill="#444444" d="M659,785.5c-26.5,26.5-26.4,69.4,0,95.9c26.4,26.5,69.4,26.4,95.9,0c26.4-26.5,253.4-342.9,269.4-365.3
	C1002,532,685.5,759,659,785.5z"/>
<path fill="#444444" d="M754.1,462.6c12,12,31.4,12,43.3,0c12-12,114.7-155.1,121.9-165.2c-10.1,7.2-153.2,109.9-165.2,121.8
	C742.2,431.2,742.1,450.6,754.1,462.6L754.1,462.6z"/>
<path fill="#444444" d="M341.6,997.1c12,11.9,31.4,11.9,43.3,0c12-12,114.7-155.1,121.8-165.2c-10.1,7.2-153.2,109.9-165.2,121.8
	C329.7,965.7,329.7,985.1,341.6,997.1L341.6,997.1z"/>
</svg>
