<?xml version="1.0" encoding="utf-8"?>
<!-- Generator: Adobe Illustrator 19.2.1, SVG Export Plug-In . SVG Version: 6.00 Build 0)  -->
<svg version="1.1" id="Calque_1" xmlns="http://www.w3.org/2000/svg" xmlns:xlink="http://www.w3.org/1999/xlink" x="0px" y="0px"
	 viewBox="0 0 1024 1024" enable-background="new 0 0 1024 1024" xml:space="preserve">
<path fill="#444444" d="M554.1,697.5c0,50.3-40.9,89.6-125.5,89.6c-66.2,0-114-41.9-114-92.2c0-49.3,56.1-91.9,122.2-91.1
	C510.3,603.8,554.1,649.5,554.1,697.5L554.1,697.5z M1024,512c0,282.8-229.2,512-512,512S0,794.8,0,512C0,229.2,229.2,0,512,0
	S1024,229.2,1024,512z M611.1,691.7c0-46.4-17.4-76.8-69.8-116.1c-53.2-38.8-66.2-60.8-15.4-100.1c28.6-22.2,48.7-51.6,48.7-88.1
	c0-39.7-16.2-75.7-46.8-93.2H571l36.8-38.6c0,0-138.8,0-164.8,0c-102.9,0-153.3,61.7-153.3,129.5c0,69.3,47.6,123.9,140.4,123.9
	c-14.4,29.1-8.6,55.9,14.9,75.1c-158.6,0-192.5,69.6-192.5,123.2c0,69.5,79.8,110.8,175.5,110.8
	C559.1,818.1,611.1,748.7,611.1,691.7L611.1,691.7z M826.1,339.3h-76v-76h-38v76h-76v38h76v76h38v-76h76
	C826.1,377.3,826.1,339.3,826.1,339.3z M508.3,389.9c-7.7-58.3-45.7-106.2-90-107.5c-44.4-1.3-74.2,43.3-66.6,101.7
	c7.7,58.3,49.9,99.1,94.3,100.4S516,448.3,508.3,389.9z"/>
</svg>
