<?xml version="1.0" encoding="utf-8"?>
<!-- Generator: Adobe Illustrator 19.2.1, SVG Export Plug-In . SVG Version: 6.00 Build 0)  -->
<svg version="1.1" id="Calque_1" xmlns="http://www.w3.org/2000/svg" xmlns:xlink="http://www.w3.org/1999/xlink" x="0px" y="0px"
	 viewBox="0 0 1024 1024" enable-background="new 0 0 1024 1024" xml:space="preserve">
<path fill="#444444" d="M629.9,16.9H372.4c-34.2,0-70.8,4.1-109.8,12.3c-39.5,9.5-77.5,29.7-114.1,60.6
	c-53.3,52.9-79.9,111.8-79.9,176.7c0,53.8,18.8,100.8,56.5,141.2c35.9,43.5,88.2,65.6,156.7,66.5c12.9,0,26.7-0.9,41.4-2.6
	c-2.4,6.9-5.1,14.5-7.9,22.7c-3.2,7.8-4.8,17.5-4.8,29.2c0,19.5,4.2,36.2,12.7,50c7.2,14.3,15.6,27.7,24.8,40.2
	c-30,0.8-67.8,4.7-113.3,11.6c-45.9,8.2-89.7,24.5-131.4,48.9c-37.1,22.7-62.8,49.1-76.9,79.3c-14.6,30-21.9,57.3-21.9,81.8
	c0,50.3,22.5,93.4,67.3,129.4c44.5,38.6,111.8,58.4,202,59.3c107.7-1.7,190.2-28.2,247.3-79.4c55.1-49.4,82.6-106.2,82.6-170.3
	c-0.8-45.2-10.8-81.7-30.1-109.7c-20.5-27.5-44.3-52.7-71.4-75.5l-43.7-36.8c-6.3-6.5-12.8-14-19.5-22.6c-7.9-9-11.8-20.4-11.8-34.2
	c0-14.2,3.9-26.6,11.5-37.4c6.5-10.3,13.6-19.5,21.3-27.7c13.4-12,26.1-23.9,38-35.5c10.7-11.6,20.9-24.3,30.5-38
	c19.6-28.5,29.7-66.3,30.5-113.6c0-25.8-2.9-48.4-8.5-67.8c-6.9-19.4-14.8-36.1-23.7-50.3c-9.3-15-18.8-27.7-28.5-38
	c-10.1-9.9-19.2-17.4-27.3-22.6h79.4L629.8,17L629.9,16.9z M488.7,738.2c21.3,24.9,32,54.2,32,87.8c0,41.3-15.6,75-46.7,101.3
	c-32,26.6-78.3,40.4-138.9,41.3c-67.6-0.8-120.9-16.4-159.9-46.4c-41-30.2-61.5-68.4-61.5-114.9c0-23.7,4.7-43.9,14.1-60.6
	c8.2-15.9,18.2-29.3,30.1-40c12.3-10.3,24.4-18.3,36.3-23.9c11.9-5.1,21.1-9,27.7-11.6c27.8-8.6,55.1-14.8,81.8-18.7
	c27.1-2.6,43.9-3.4,50.4-2.6c11.1,0,20.7,0.4,28.9,1.3C430.9,685.6,466.1,714.6,488.7,738.2L488.7,738.2z M446.9,349
	c-3.1,17.7-10.1,34.9-21,51.7c-22.6,23.7-50.8,36.2-84.7,37.5c-26.8,0-50.7-8.4-71.5-25.2c-20.9-16.8-37.9-37.3-51.1-61.4
	c-27.2-51.7-40.9-101.5-40.9-149.3c-0.8-36.2,8.5-69,28-98.3c23.1-28,52.1-42.5,87-43.3c26.4,0.9,49.7,8.8,70,23.9
	c19.9,15.9,35.9,36.6,48.1,62.1c26,53,38.9,105.6,38.9,157.7C449.7,316.5,448.8,331.3,446.9,349z M887.2,433.5V294.7h-67.9v138.8
	H683.5V503h135.8v138.9h67.9V503H1023v-69.5C1023,433.5,887.2,433.5,887.2,433.5z"/>
</svg>
