<?xml version="1.0" encoding="utf-8"?>
<!-- Generator: Adobe Illustrator 19.2.1, SVG Export Plug-In . SVG Version: 6.00 Build 0)  -->
<svg version="1.1" id="Calque_1" xmlns="http://www.w3.org/2000/svg" xmlns:xlink="http://www.w3.org/1999/xlink" x="0px" y="0px"
	 viewBox="0 0 1024 1024" enable-background="new 0 0 1024 1024" xml:space="preserve">
<path fill="#444444" d="M965,0H78.5C39.8,0,0,21.7,0,60.2v882.5c0,38.5,39.8,81.3,78.5,81.3H965c38.7,0,59-42.8,59-81.3V60.2
	C1024,21.7,1003.7,0,965,0z M511.4,207.6c6.7,6.9,13.2,18.7,19.6,28.8c6.1,9.5,11.5,21.3,16.3,34.2c3.9,12.9,5.8,28.3,5.8,45.6
	c-0.5,31.6-7.5,57.1-21,76.1c-6.6,9.2-13.6,17.8-21,25.5c-8.2,7.8-16.8,15.7-26.1,23.8c-5.3,5.5-10.2,11.7-14.6,18.6
	c-5.3,7.2-7.9,15.5-7.9,25c0,9.2,2.7,16.8,8.1,22.9c4.6,5.7,9,10.8,13.4,15.1l30,24.6c18.6,15.2,35,32.1,49.1,50.5
	c13.3,18.7,20.1,43.2,20.7,73.3c0,42.9-18.9,80.9-56.8,113.9c-39.2,34.2-95.9,51.9-169.9,53.1c-61.9-0.6-108.2-13.8-138.8-39.6
	c-30.8-24.1-46.3-53-46.3-86.6c0-16.4,5-34.6,15.1-54.7c9.7-20.1,27.4-37.7,52.9-53c28.6-16.4,58.8-27.3,90.3-32.8
	c31.2-4.6,57.2-7.2,77.8-7.8c-6.4-8.4-12.1-17.4-17.1-26.9c-5.8-9.2-8.7-20.4-8.7-33.4c0-7.8,1.1-14.3,3.3-19.5
	c2-5.5,3.7-10.5,5.4-15.2c-10.1,1.2-19.5,1.7-28.4,1.7c-47.1-0.6-83-15.4-107.7-44.4c-25.9-27-38.8-58.5-38.8-94.5
	c0-43.4,18.3-82.7,54.9-118.1c25.1-20.7,51.3-36,78.4-42.3c26.8-5.5,52-9.8,75.5-9.8h176.9l-54.6,26.1h-54.6
	C498.3,203.7,504.5,201,511.4,207.6L511.4,207.6z M726.2,449.3v-99.3h52.2v99.3H862v41.8h-83.6v94h-52.2v-94h-94v-41.8H726.2z"/>
<path fill="#444444" d="M412.3,588.4c-4.5-0.6-16.1,0-34.6,1.7c-18.3,2.6-37,6.8-56.2,12.5c-4.5,1.7-10.8,4.3-19,7.8
	c-8.2,3.7-16.5,9.1-24.9,16c-8.2,7.2-15.1,16.1-20.7,26.7c-6.5,11.2-9.7,24.8-9.7,40.6c0,31.1,14.1,56.7,42.3,76.8
	c26.8,20.1,63.4,30.5,109.8,31.1c41.7-0.6,73.5-9.8,95.5-27.6c21.4-17.6,32.1-40.1,32.1-67.8c0-22.4-7.3-42-22-58.7
	c-15.5-15.8-39.7-35.3-72.7-58.3C426.5,588.7,420,588.4,412.3,588.4L412.3,588.4z"/>
<path fill="#444444" d="M418.3,210.4c-13.9-10.1-30-15.4-48.1-16c-24,0.6-43.9,10.3-59.8,29c-13.4,19.6-19.8,41.5-19.2,65.7
	c0,32,9.4,65.3,28.1,99.9c9.1,16.1,20.8,29.8,35.1,41.1c14.3,11.2,30.7,16.8,49.1,16.8c23.3-0.9,42.7-9.2,58.2-25.1
	c7.5-11.3,12.3-22.8,14.4-34.6c1.3-11.8,1.9-21.7,1.9-29.8c0-34.9-8.9-70-26.7-105.5C443,234.9,432,221.1,418.3,210.4z"/>
</svg>
