<?xml version="1.0" encoding="utf-8"?>
<!-- Generated by IcoMoon.io -->
<!DOCTYPE svg PUBLIC "-//W3C//DTD SVG 1.1//EN" "http://www.w3.org/Graphics/SVG/1.1/DTD/svg11.dtd">
<svg version="1.1" xmlns="http://www.w3.org/2000/svg" xmlns:xlink="http://www.w3.org/1999/xlink" width="32" height="32" viewBox="0 0 32 32">
<path fill="#444444" d="M30.965 11.417l0.012-3.828-0.58-0.169c-0.906-0.362-1.824-1.027-2.319-2.138-0.157-0.411-0.254-0.713-0.29-0.882h-5.096c0.012 0.060-0.012 0.133-0.012 0.205 0 0.761-0.628 1.654-1.884 1.654s-1.944-0.894-1.944-1.654c0-0.072-0.024-0.133-0.012-0.205h-5.108l-0.012 0.060c-0.060 0.254-0.29 1.123-0.954 1.872-0.072 0.085-0.145 0.181-0.217 0.278-0.205 0.205-0.386 0.314-0.568 0.386-0.35 0.205-0.918 0.507-1.425 0.604v2.029c-0.302-0.048-0.616-0.072-0.93-0.072-3.852 0-6.413 3.683-2.826 10.181 1.208 2.198-1.304 2.717-3.852 3.285-2.609 0.592-2.403 1.944-2.403 4.396h18.175c0-0.35 0-0.688 0-1.002 0.543 0.254 1.256 0.604 2.053 1.002 1.51-0.725 2.778-1.304 2.971-1.401 1.244-0.628 2.79-1.341 3.889-2.162 0.386-0.29 0.809-0.676 1.292-1.159 0.954-0.99 1.437-2.246 1.437-3.756 0-0.785-0.085-1.884-0.519-2.693-0.302-0.664-0.556-1.184-0.556-1.751 0-0.966 0.012-1.86 0.495-2.391 0.242-0.278 0.737-0.568 1.183-0.688zM29.274 11.622l-0.012 0.012c-0.676 0.737-0.676 1.86-0.676 2.85 0 0.664 0.254 1.232 0.556 1.884l0.060 0.133 0.024 0.048c0.29 0.531 0.435 1.353 0.435 2.379 0 1.341-0.411 2.427-1.244 3.285-0.447 0.459-0.857 0.821-1.208 1.087-0.894 0.664-2.162 1.292-3.261 1.836l-0.507 0.254c-0.048 0.024-0.169 0.072-0.338 0.157-0.471 0.217-1.328 0.616-2.331 1.099-0.845-0.411-1.57-0.761-2.077-1.002-0.085-1.365-0.495-2.21-2.391-2.633-1.365-0.314-2.681-0.604-3.454-1.123-0.242-0.278-0.338-0.435-0.362-0.483l-0.036-0.036-0.024-0.036c-0.072-0.097-0.205-0.471-0.29-0.7 0.024-0.266 0.109-0.58 0.302-0.918 3.043-5.64 1.594-9.045-1.22-9.939v-1.679c0.423-0.157 0.821-0.362 1.063-0.507 0.205-0.097 0.471-0.242 0.749-0.519l0.024-0.024c0.085-0.097 0.157-0.193 0.229-0.29 0.507-0.592 0.797-1.244 0.954-1.679h3.985c0.242 0.966 1.171 1.86 2.56 1.86s2.295-0.882 2.512-1.86h3.985c0.048 0.133 0.097 0.278 0.157 0.447l0.024 0.048c0.64 1.425 1.811 2.138 2.693 2.488l0.024 0.012 0.036 0.012 0.085 0.024-0.012 2.85c-0.386 0.169-0.749 0.411-1.014 0.664v0z"></path>
<path fill="#444444" d="M18.212 16.537l1.92-7.029h-1.775l-1.425 5.41h-0.048l-1.389-5.41h-1.751l1.908 7.029z"></path>
<path fill="#444444" d="M23.948 14.738h1.57c1.848 0 2.27-0.676 2.27-2.645 0-1.836-0.616-2.572-2.27-2.572h-3.478v7.017h1.908v-1.799zM23.948 11.139h1.123c0.688 0 0.797 0.229 0.797 0.942 0 0.906-0.097 0.99-0.797 1.027h-1.123v-1.969z"></path>
<path fill="#444444" d="M19.48 16.537h1.92v-7.029h-0.628l-1.292 4.493z"></path>
<path fill="#444444" d="M16.062 19.677c0 0.447-0.205 0.471-0.628 0.471-0.616 0-0.64-0.217-0.64-0.785v-0.592c0-0.543 0.060-0.713 0.64-0.713 0.35 0 0.592 0.024 0.628 0.362v0.145h1.063v-0.145c-0.024-1.135-0.507-1.232-1.57-1.232-1.123 0-1.812 0.181-1.812 1.425v0.978c0 1.377 0.761 1.425 1.812 1.425 0.447 0 0.87 0 1.22-0.278 0.35-0.29 0.35-0.664 0.35-1.075v-0.109h-1.063v0.121z"></path>
<path fill="#444444" d="M20.277 20.136h-1.654v-2.947h-1.051v3.828h2.705z"></path>
<path fill="#444444" d="M23.006 19.653c0 0.447-0.157 0.483-0.592 0.483s-0.688 0-0.688-0.435v-2.512h-1.063v2.536c0 0.918 0.169 1.292 1.739 1.292 1.147 0 1.642-0.278 1.642-1.292v-2.536h-1.051v2.464z"></path>
<path fill="#444444" d="M27.161 19.098v-0.036c0.519-0.085 0.616-0.399 0.616-0.882 0-0.833-0.459-0.978-1.244-0.978h-2.077v3.828h2.101c0.833 0 1.292-0.133 1.292-1.063 0-0.495-0.097-0.833-0.688-0.869zM25.518 18.023h0.882c0.29 0.012 0.326 0.097 0.326 0.326 0 0.302-0.085 0.362-0.459 0.362h-0.761v-0.688zM26.303 20.185h-0.797v-0.749h0.821c0.338 0 0.459 0.048 0.459 0.362 0.012 0.314-0.133 0.386-0.483 0.386z"></path>
<path fill="#444444" d="M21.074 24.242l-0.242-0.7-0.242 0.7-0.749 0.012 0.592 0.459-0.217 0.712 0.616-0.435 0.616 0.435-0.217-0.713 0.592-0.459z"></path>
</svg>
