<?xml version="1.0" encoding="utf-8"?>
<!-- Generator: Adobe Illustrator 19.2.0, SVG Export Plug-In . SVG Version: 6.00 Build 0)  -->
<svg version="1.1" id="Calque_1" xmlns="http://www.w3.org/2000/svg" xmlns:xlink="http://www.w3.org/1999/xlink" x="0px" y="0px"
	 viewBox="0 0 48 48" style="enable-background:new 0 0 48 48;" xml:space="preserve">
<g>
	<path d="M48,19.6c-0.2-3.8-0.9-7.3-2.1-10c-0.6-1.5-1.5-2.8-2.6-3.9c-1-1-2.2-1.8-3.6-2.4C37,2,34,1.6,31.7,1.4
		C29,1.1,26.4,1,24.1,1h-0.1c-2.4,0-4.9,0.1-7.7,0.4C14,1.6,11,2,8.3,3.3C6.9,3.9,5.7,4.7,4.7,5.7c-1.1,1.1-2,2.4-2.6,3.9
		C1,12.3,0.2,15.8,0,19.6c0,0.8,0,1.6,0,2.4c0.2,3.8,0.9,7.3,2.1,10c0.7,1.7,1.8,3.2,3.1,4.4c0.9,0.8,1.9,1.4,3.1,2
		c0.2,0.1,0.3,0.2,0.3,0.4l0.8,7.4c0.1,0.5,0.5,0.8,0.9,0.8h0c0.2,0,0.4-0.1,0.5-0.2l9.1-6.1c0.2-0.1,0.5-0.2,0.7-0.2
		c1.1,0,2.2,0.1,3.2,0.1h0.1c2.4,0,4.9-0.1,7.7-0.4c2.3-0.2,5.3-0.6,8-1.9c1.4-0.6,2.6-1.5,3.6-2.4c1.1-1.1,2-2.4,2.6-3.9
		c1.1-2.7,1.9-6.2,2.1-10C48,21.2,48,20.4,48,19.6z M11,27.3c-0.6,0-1.3-0.1-1.8-0.2c-0.6-0.1-1.1-0.7-1-1.3l0-0.1
		c0.1-0.6,0.8-1,1.5-0.9C10.2,25,10.6,25,11,25c1.4,0,2.1-0.6,2.1-1.5c0-1-0.7-1.5-2-2.2c-2.1-1.1-2.9-2.5-2.9-3.7
		c0-2.2,1.6-3.9,4.8-3.9c0.4,0,0.8,0,1.2,0.1c0.7,0.1,1.1,0.7,1,1.3l0,0c-0.1,0.6-0.8,1-1.5,0.9c-0.2,0-0.5-0.1-0.7-0.1
		c-1.3,0-1.9,0.7-1.9,1.4c0,0.8,0.5,1.2,2.1,2.1c2,1.1,2.8,2.4,2.8,3.8C16,25.7,14,27.3,11,27.3z M28.7,27.2h-0.1
		c-0.7,0-1.2-0.5-1.3-1.1l-0.2-3.7c-0.1-1.3-0.2-3-0.1-4.4h-0.1c-0.3,1.4-0.7,3.1-1,4.1l-1.1,4c-0.1,0.5-0.6,0.9-1.2,0.9h-0.1
		c-0.6,0-1.1-0.4-1.2-0.9l-1-3.9c-0.3-1.1-0.7-2.8-0.9-4.2h-0.1c0,1.5-0.1,3.2-0.2,4.5l-0.2,3.6c0,0.6-0.6,1.1-1.3,1.1
		c-0.7,0-1.3-0.5-1.3-1.2l0.9-11.2c0-0.6,0.6-1,1.3-1h0.9c0.6,0,1.1,0.4,1.2,0.9l1,4c0.4,1.7,0.8,3.2,1.1,4.7h0c0.2-1.5,0.6-3,1-4.7
		l1-4c0.1-0.5,0.6-0.9,1.2-0.9h0.9c0.7,0,1.2,0.5,1.3,1L30,26C30,26.7,29.4,27.2,28.7,27.2z M34.4,27.3c-0.6,0-1.3-0.1-1.8-0.2
		c-0.6-0.1-1.1-0.7-1-1.3l0-0.1c0.1-0.6,0.8-1,1.5-0.9C33.6,25,34,25,34.4,25c1.4,0,2.1-0.6,2.1-1.5c0-1-0.7-1.5-2-2.2
		c-2.1-1.1-2.9-2.5-2.9-3.7c0-2.2,1.6-3.9,4.8-3.9c0.4,0,0.8,0,1.2,0.1c0.7,0.1,1.1,0.7,1,1.3l0,0c-0.1,0.6-0.8,1-1.5,0.9
		c-0.2,0-0.5-0.1-0.7-0.1c-1.3,0-1.9,0.7-1.9,1.4c0,0.8,0.5,1.2,2.1,2.1c2,1.1,2.8,2.4,2.8,3.8C39.4,25.7,37.4,27.3,34.4,27.3z"/>
</g>
</svg>
