<?xml version="1.0" encoding="utf-8"?>
<!-- Generator: Adobe Illustrator 19.2.1, SVG Export Plug-In . SVG Version: 6.00 Build 0)  -->
<svg version="1.1" id="Calque_1" xmlns="http://www.w3.org/2000/svg" xmlns:xlink="http://www.w3.org/1999/xlink" x="0px" y="0px"
	 viewBox="0 0 1068 1024" enable-background="new 0 0 1068 1024" xml:space="preserve">
<g>
	<path fill="#444444" d="M1068.5,414.1c-4.5-84.6-20-162.5-46.7-222.6c-13.4-33.4-33.4-62.3-57.9-86.8c-22.3-22.3-49-40.1-80.1-53.4
		C823.7,22.3,756.9,13.4,705.7,8.9C645.6,2.2,587.7,0,536.5,0h-2.2c-53.4,0-109.1,2.2-171.4,8.9c-51.2,4.5-118,13.4-178.1,42.3
		c-31.2,13.4-57.9,31.2-80.1,53.4c-24.5,24.5-44.5,53.4-57.9,86.8C22.3,251.5,4.5,329.5,0,414.1c0,17.8,0,35.6,0,53.4
		C4.5,552.1,20,630,46.7,690.1c15.6,37.8,40.1,71.2,69,97.9c20,17.8,42.3,31.2,69,44.5c4.5,2.2,6.7,4.5,6.7,8.9l17.8,164.7
		c2.2,11.1,11.1,17.8,20,17.8l0,0c4.5,0,8.9-2.2,11.1-4.5L443,883.8c4.5-2.2,11.1-4.5,15.6-4.5c24.5,0,49,2.2,71.2,2.2h2.2
		c53.4,0,109.1-2.2,171.4-8.9c51.2-4.5,118-13.4,178.1-42.3c31.2-13.4,57.9-33.4,80.1-53.4c24.5-24.5,44.5-53.4,57.9-86.8
		c24.5-60.1,42.3-138,46.7-222.6C1068.5,449.7,1068.5,431.9,1068.5,414.1z M244.9,585.5c-13.4,0-28.9-2.2-40.1-4.5
		c-13.4-2.2-24.5-15.6-22.3-28.9v-2.2c2.2-13.4,17.8-22.3,33.4-20c11.1,4.5,20,4.5,28.9,4.5c31.2,0,46.7-13.4,46.7-33.4
		c0-22.3-15.6-33.4-44.5-49c-46.7-24.5-64.6-55.7-64.6-82.4c0-49,35.6-86.8,106.9-86.8c8.9,0,17.8,0,26.7,2.2
		c15.6,2.2,24.5,15.6,22.3,28.9l0,0c-2.2,13.4-17.8,22.3-33.4,20c-4.5,0-11.1-2.2-15.6-2.2c-28.9,0-42.3,15.6-42.3,31.2
		c0,17.8,11.1,26.7,46.7,46.7c44.5,24.5,62.3,53.4,62.3,84.6C356.2,549.8,311.7,585.5,244.9,585.5z M638.9,583.2h-2.2
		c-15.6,0-26.7-11.1-28.9-24.5l-4.5-82.4c-2.2-28.9-4.5-66.8-2.2-97.9h-2.2c-6.7,31.2-15.6,69-22.3,91.3l-24.5,89
		c-2.2,11.1-13.4,20-26.7,20h-2.2c-13.4,0-24.5-8.9-26.7-20l-22.3-86.8c-6.7-24.5-15.6-62.3-20-93.5h-2.2c0,33.4-2.2,71.2-4.5,100.2
		l-4.5,80.1c0,13.4-13.4,24.5-28.9,24.5c-15.6,0-28.9-11.1-28.9-26.7l20-249.3c0-13.4,13.4-22.3,28.9-22.3h20
		c13.4,0,24.5,8.9,26.7,20l22.3,89c8.9,37.8,17.8,71.2,24.5,104.6l0,0c4.5-33.4,13.4-66.8,22.3-104.6l22.3-89
		c2.2-11.1,13.4-20,26.7-20h20c15.6,0,26.7,11.1,28.9,22.3l20,249.3C667.8,572.1,654.5,583.2,638.9,583.2z M765.8,585.5
		c-13.4,0-28.9-2.2-40.1-4.5c-13.4-2.2-24.5-15.6-22.3-28.9v-2.2c2.2-13.4,17.8-22.3,33.4-20c11.1,4.5,20,4.5,28.9,4.5
		c31.2,0,46.7-13.4,46.7-33.4c0-22.3-15.6-33.4-44.5-49c-46.7-24.5-64.6-55.7-64.6-82.4c0-49,35.6-86.8,106.9-86.8
		c8.9,0,17.8,0,26.7,2.2c15.6,2.2,24.5,15.6,22.3,28.9l0,0c-2.2,13.4-17.8,22.3-33.4,20c-4.5,0-11.1-2.2-15.6-2.2
		c-28.9,0-42.3,15.6-42.3,31.2c0,17.8,11.1,26.7,46.7,46.7c44.5,24.5,62.3,53.4,62.3,84.6C877.1,549.8,832.6,585.5,765.8,585.5z"/>
</g>
</svg>
