<?xml version="1.0" encoding="utf-8"?>
<!-- Generated by IcoMoon.io -->
<!DOCTYPE svg PUBLIC "-//W3C//DTD SVG 1.1//EN" "http://www.w3.org/Graphics/SVG/1.1/DTD/svg11.dtd">
<svg version="1.1" xmlns="http://www.w3.org/2000/svg" xmlns:xlink="http://www.w3.org/1999/xlink" width="32" height="32" viewBox="0 0 32 32">
<path fill="#444444" d="M12.352 20.72h1.68v-7.008h-1.68v7.008zM8.656 18.352c-0.592 0.624-1.344 0.928-2.24 0.928-0.912 0-1.68-0.32-2.304-0.944-0.64-0.624-0.944-1.392-0.944-2.304s0.32-1.68 0.944-2.304c0.624-0.624 1.392-0.944 2.288-0.944 0.496 0 0.976 0.112 1.424 0.352 0.432 0.24 0.784 0.544 1.040 0.944h2.096c-0.368-0.88-0.976-1.584-1.792-2.112-0.832-0.528-1.76-0.8-2.784-0.8-1.376 0-2.544 0.48-3.504 1.424s-1.456 2.096-1.456 3.44c0 1.344 0.496 2.496 1.472 3.44s2.176 1.424 3.568 1.424v0c1.376 0 2.544-0.48 3.504-1.424 0.64-0.624 1.072-1.216 1.28-1.92h-2.016c-0.16 0.288-0.352 0.56-0.576 0.8zM12.352 12.912h1.68v-1.536h-1.68v1.536zM29.552 18.752c-0.544 0-0.992 0.448-0.992 0.992s0.448 0.992 0.992 0.992 0.992-0.448 0.992-0.992c0-0.544-0.448-0.992-0.992-0.992zM25.072 16.368c-0.432-0.128-0.72-0.256-0.88-0.352s-0.224-0.24-0.224-0.4c0-0.176 0.064-0.32 0.176-0.432 0.128-0.112 0.272-0.16 0.48-0.16 0.176 0 0.336 0.048 0.448 0.144s0.192 0.24 0.24 0.448h1.648c-0.032-0.608-0.272-1.104-0.704-1.52-0.432-0.4-0.96-0.608-1.568-0.608-0.688 0-1.264 0.208-1.712 0.624s-0.672 0.944-0.672 1.6c0 0.544 0.16 0.992 0.496 1.328s0.896 0.624 1.68 0.864c0.384 0.112 0.656 0.24 0.784 0.352s0.208 0.288 0.208 0.512c0 0.208-0.080 0.368-0.224 0.496s-0.336 0.192-0.576 0.192c-0.24 0-0.448-0.080-0.592-0.224s-0.256-0.384-0.304-0.672h-1.728c0.032 0.736 0.288 1.312 0.768 1.776 0.48 0.448 1.088 0.672 1.824 0.672s1.328-0.224 1.792-0.672c0.464-0.448 0.704-1.024 0.704-1.728 0-0.56-0.16-1.008-0.464-1.344-0.336-0.4-0.864-0.672-1.6-0.896zM17.168 14.128l-0.080 0.112v-0.528h-1.568v7.008h1.68v-4.064c0-0.544 0.144-0.96 0.432-1.216 0.256-0.208 0.608-0.336 1.088-0.368v-1.6h-0.112c-0.656 0-1.136 0.208-1.44 0.656zM19.44 20.72h1.68v-9.36h-1.68v9.36zM5.328 16.624h6.080v-1.616h-6.080v1.616z"></path>
</svg>
