<?xml version="1.0" encoding="utf-8"?>
<!-- Generated by IcoMoon.io -->
<!DOCTYPE svg PUBLIC "-//W3C//DTD SVG 1.1//EN" "http://www.w3.org/Graphics/SVG/1.1/DTD/svg11.dtd">
<svg version="1.1" xmlns="http://www.w3.org/2000/svg" xmlns:xlink="http://www.w3.org/1999/xlink" width="32" height="32" viewBox="0 0 32 32">
<path fill="#444444" d="M16.070 20.103c2.305 0 4.172-1.868 4.172-4.17 0-2.303-1.867-4.17-4.172-4.17-2.302 0-4.169 1.867-4.169 4.17 0 2.302 1.867 4.17 4.169 4.17z"></path>
<path fill="#444444" d="M22.739 15.921c0 3.684-2.985 6.675-6.67 6.675-3.683 0-6.671-2.994-6.671-6.678 0-0.577 0.083-1.198 0.219-1.678h-1.938v9.196c0 0.46 0.425 0.884 0.887 0.884h15.007c0.463 0 0.905-0.423 0.905-0.884v-9.196h-1.959c0.138 0.48 0.218 1.105 0.218 1.681z"></path>
<path fill="#444444" d="M23.575 7.52h-2.501c-0.46 0-0.754 0.447-0.754 0.909v2.5c0 0.46 0.293 0.91 0.754 0.91h2.501c0.463 0 0.905-0.45 0.905-0.91v-2.5c0-0.462-0.443-0.909-0.905-0.909z"></path>
<path fill="#444444" d="M29.506 0.32h-26.159c-1.141 0-2.547 0.988-2.547 2.155v26.753c0 1.166 1.406 2.292 2.547 2.292h26.159c1.14 0 1.534-1.126 1.534-2.292v-26.753c0-1.167-0.394-2.155-1.534-2.155zM26.88 24.27c0 1.382-1.090 2.45-2.471 2.45h-16.677c-1.379 0-2.452-1.068-2.452-2.45v-16.675c0-1.381 1.072-2.475 2.452-2.475h16.677c1.381 0 2.471 1.094 2.471 2.475v16.675z"></path>
</svg>
