<?xml version="1.0" encoding="utf-8"?>
<!-- Generated by IcoMoon.io -->
<!DOCTYPE svg PUBLIC "-//W3C//DTD SVG 1.1//EN" "http://www.w3.org/Graphics/SVG/1.1/DTD/svg11.dtd">
<svg version="1.1" xmlns="http://www.w3.org/2000/svg" xmlns:xlink="http://www.w3.org/1999/xlink" width="32" height="32" viewBox="0 0 32 32">
<path fill="#444444" d="M31.287 11.992c0-4.703-3.281-8.515-7.328-8.515-0.097 0-0.194 0.004-0.291 0.008-4.42-0.211-7.629 4.82-7.629 4.82s-3.209-5.031-7.629-4.82c-0.097-0.004-0.193-0.009-0.291-0.009-4.047 0-7.328 3.812-7.328 8.515 0 0.030 0.002 0.060 0.002 0.090-0.027 1.668 0.336 3.731 1.708 5.813 1.819 2.76 13.537 12.015 13.537 12.015s11.72-9.254 13.537-12.015c1.37-2.080 1.734-4.142 1.708-5.809 0-0.031 0.002-0.062 0.002-0.093z"></path>
</svg>
