<?xml version="1.0" encoding="utf-8"?>
<!-- Generator: Adobe Illustrator 19.2.1, SVG Export Plug-In . SVG Version: 6.00 Build 0)  -->
<svg version="1.1" id="Calque_1" xmlns="http://www.w3.org/2000/svg" xmlns:xlink="http://www.w3.org/1999/xlink" x="0px" y="0px"
	 viewBox="0 0 1024 1024" enable-background="new 0 0 1024 1024" xml:space="preserve">
<path fill="#444444" d="M906,433.2h-89.1c6.5,25.2,10.3,51.6,10.3,78.8c0,174-141.1,315.1-315.1,315.1S197,686,197,512
	c0-27.2,3.9-53.6,10.3-78.8h-89.2v433.2c0,21.7,17.7,39.4,39.4,39.4h708.9c21.8,0,39.4-17.7,39.4-39.4L906,433.2L906,433.2z
	 M906,157.5c0-21.7-17.7-39.4-39.4-39.4H748.5c-21.8,0-39.4,17.6-39.4,39.4v118.2c0,21.7,17.6,39.4,39.4,39.4h118.1
	c21.8,0,39.4-17.7,39.4-39.4C906,275.7,906,157.5,906,157.5z M512.1,315.1c-108.8,0-196.9,88.1-196.9,196.9s88.2,196.9,196.9,196.9
	S709.1,620.7,709.1,512S620.9,315.1,512.1,315.1z M906,1024H118.2C53,1024,0.1,971.1,0.1,905.8V118.2C0.1,52.9,53,0,118.2,0H906
	c65.3,0,118.1,52.9,118.1,118.2v787.7C1024.1,971.1,971.2,1024,906,1024z"/>
</svg>
