<?xml version="1.0" encoding="utf-8"?>
<!-- Generated by IcoMoon.io -->
<!DOCTYPE svg PUBLIC "-//W3C//DTD SVG 1.1//EN" "http://www.w3.org/Graphics/SVG/1.1/DTD/svg11.dtd">
<svg version="1.1" xmlns="http://www.w3.org/2000/svg" xmlns:xlink="http://www.w3.org/1999/xlink" width="32" height="32" viewBox="0 0 32 32">
<path fill="#444444" d="M19.891 15.878c0 2.161-1.751 3.916-3.912 3.916-2.16 0-3.913-1.758-3.913-3.919 0-0.338 0.048-0.617 0.129-0.986h-1.12v5.398c0 0.27 0.231 0.499 0.502 0.499h8.804c0.271 0 0.523-0.229 0.523-0.499v-5.398h-1.141c0.081 0.369 0.127 0.65 0.127 0.988z"></path>
<path fill="#444444" d="M15.979 18.333c1.352 0 2.447-1.095 2.447-2.446s-1.095-2.446-2.447-2.446c-1.35 0-2.445 1.095-2.445 2.446s1.094 2.446 2.445 2.446z"></path>
<path fill="#444444" d="M20.381 10.959h-1.467c-0.27 0-0.467 0.256-0.467 0.527v1.467c0 0.27 0.197 0.464 0.467 0.464h1.467c0.271 0 0.523-0.194 0.523-0.464v-1.467c-0-0.271-0.252-0.527-0.523-0.527z"></path>
<path fill="#444444" d="M16 4.12c-6.565 0-11.887 5.322-11.887 11.887s5.322 11.887 11.887 11.887c6.565 0 11.887-5.322 11.887-11.887s-5.322-11.887-11.887-11.887zM22.378 20.778c0 0.811-0.697 1.484-1.508 1.484h-9.783c-0.809 0-1.487-0.674-1.487-1.484v-9.781c0-0.81 0.677-1.512 1.487-1.512h9.783c0.811 0 1.508 0.701 1.508 1.512v9.781z"></path>
</svg>
