<?xml version="1.0" encoding="utf-8"?>
<!-- Generator: Adobe Illustrator 19.2.1, SVG Export Plug-In . SVG Version: 6.00 Build 0)  -->
<svg version="1.1" id="Calque_1" xmlns="http://www.w3.org/2000/svg" xmlns:xlink="http://www.w3.org/1999/xlink" x="0px" y="0px"
	 viewBox="0 0 1024 1024" enable-background="new 0 0 1024 1024" xml:space="preserve">
<path fill="#444444" d="M679.6,506.4c0,93.1-75.4,168.7-168.5,168.7c-93,0-168.5-75.7-168.5-168.8c0-14.6,2.1-26.6,5.6-42.5h-48.2
	v232.5c0,11.6,9.9,21.5,21.6,21.5h379.2c11.7,0,22.5-9.9,22.5-21.5V463.8h-49.1C677.6,479.7,679.6,491.8,679.6,506.4L679.6,506.4z"
	/>
<path fill="#444444" d="M511.1,612.2c58.2,0,105.4-47.2,105.4-105.4s-47.2-105.4-105.4-105.4c-58.1,0-105.3,47.2-105.3,105.4
	S452.9,612.2,511.1,612.2z"/>
<path fill="#444444" d="M700.7,294.6h-63.2c-11.6,0-20.1,11-20.1,22.7v63.2c0,11.6,8.5,20,20.1,20h63.2c11.7,0,22.5-8.4,22.5-20
	v-63.2C723.2,305.6,712.4,294.6,700.7,294.6z"/>
<path fill="#444444" d="M512,0C229.2,0,0,229.2,0,512s229.2,512,512,512s512-229.2,512-512S794.8,0,512,0z M786.7,717.5
	c0,34.9-30,63.9-65,63.9H300.4c-34.8,0-64-29-64-63.9V296.2c0-34.9,29.2-65.1,64-65.1h421.4c34.9,0,65,30.2,65,65.1
	C786.7,296.2,786.7,717.5,786.7,717.5z"/>
</svg>
