<?xml version="1.0" encoding="utf-8"?>
<!-- Generator: Adobe Illustrator 19.2.0, SVG Export Plug-In . SVG Version: 6.00 Build 0)  -->
<svg version="1.1" id="Calque_1" xmlns="http://www.w3.org/2000/svg" xmlns:xlink="http://www.w3.org/1999/xlink" x="0px" y="0px"
	 viewBox="0 0 1024 1024" style="enable-background:new 0 0 1024 1024;" xml:space="preserve">
<style type="text/css">
	.st0{fill:#444444;}
</style>
<g>
	<path class="st0" d="M512,0C229.2,0,0,229.2,0,512s229.2,512,512,512s512-229.2,512-512S794.8,0,512,0z M787.3,600.2
		c-0.5,22-1.4,43.9-6.8,65.4c-6.2,25-17,47.6-34.7,66.7c-10.7,10.9-22.3,20.7-35.9,27.9c-19.1,10.1-39.5,16.2-60.9,18.6
		c-31.6,3.5-63.4,3.6-95.1,3.7c-46.4,0-92.8,0.6-139.2-0.7c-10.2-0.3-20.4-0.7-30.5-1.5c-13.5-1.1-27-3.2-39.8-7.6
		c-13.8-4.7-27.6-9.8-39.6-18.3c-9.3-6.6-17.9-14-25.7-22.4c-12-12.9-20.9-27.8-27.4-44.1c-4.5-11.3-7.3-23-9.6-35
		c-3.4-18.1-3.6-36.4-4.2-54.7c-0.9-23.9-0.8-47.8-0.8-71.8c0-1.2-0.1-2.4-0.1-3.6c0.1-29.5,0.1-59,0.4-88.4
		c0.3-21.5,0.7-43,3.3-64.4c4.1-33.4,15.7-63.7,38.8-88.7c20.6-22.3,46.4-35.9,75.8-42.7c15.1-3.5,30.4-5.1,45.9-5.7
		c68.2-2.5,136.5-1.9,204.8-0.7c14.4,0.2,28.9,0.9,43.3,2.8c32.4,4.3,62.1,14.8,86.9,37.1c23.6,21.2,37.8,47.7,44.9,78.4
		c4.8,20.8,5.8,41.8,6.3,62.9C788.7,475.7,788.7,538,787.3,600.2z"/>
	<path class="st0" d="M733.7,364.8c-8.2-40.3-31.7-66.4-71.6-77.3c-18.8-5.1-38.2-5.5-57.5-6c-50.7-1.5-101.5-0.8-152.2-0.6
		c-17.1,0-34.2,0.8-51.3,1.8c-14.3,0.8-28.4,2.1-42.1,6.1c-25.1,7.2-44.3,22.1-56.8,45.1c-8.7,16.1-12.4,33.6-13.6,51.7
		c-2.8,41.4-2.3,82.8-2.2,124.3c-0.2,32-0.3,64,0.9,96c0.6,14.5,1.2,28.9,4.1,43.2c8.4,41.1,32.3,67.5,73.4,77.8
		c18.4,4.6,37.3,5.2,56.1,5.6c67.4,1.2,134.8,1.9,202.2-0.6c19.5-0.7,38.8-3.2,56.8-11.4c23.3-10.6,39.6-27.9,48.4-52.1
		c5-11.4,6.4-23.5,7.9-35.7c1.3-10.1,1.7-20.4,1.9-30.6c1.4-63.3,1.4-126.6,0-189.9C737.6,396.2,736.9,380.4,733.7,364.8z
		 M634.2,579.2c-0.6,1-1.2,2.1-1.8,3.1c-10.9,16.7-24.3,30.9-40.9,42c-19.2,12.8-40.3,21-63.3,23.1c-48.3,4.5-89.2-11.1-121.6-47.2
		c-25.1-28-36.2-61.5-35.2-99.1c0-1.2,0-2.4,0.1-3.6c1-12.4,3.5-24.6,7.3-36.4c3.1-9.6,7.4-18.8,12.8-27.4
		c10.3-16.5,23-31.1,39.1-41.8c48.1-32,98.6-35.9,149.8-8.6C621,405,644.9,440,652.2,485.4C657.6,518.6,651.2,550.1,634.2,579.2z
		 M659.4,393.1c-18.3,0-33-14.9-33-33.3c0.2-19.8,16.2-32.5,32.7-32.7c18.5-0.1,33.3,14.7,33.3,33
		C692.4,378.3,677.6,393.1,659.4,393.1z"/>
	<path class="st0" d="M496.5,416.3c-44,7.1-77.6,48-76,92.6c0.2,14.7,3.8,28.5,10.7,41.5c18.4,34.7,58.2,54.5,96.4,47.4
		c33.4-6.2,57.1-24.8,70.1-56.5c0.5-1,1.1-1.9,1.4-2.9c5.8-16.3,7.3-33,3.6-49.9C592,438.9,546.7,408.2,496.5,416.3z"/>
</g>
</svg>
