<?xml version="1.0" encoding="utf-8"?>
<!-- Generator: Adobe Illustrator 19.2.0, SVG Export Plug-In . SVG Version: 6.00 Build 0)  -->
<svg version="1.1" id="Calque_1" xmlns="http://www.w3.org/2000/svg" xmlns:xlink="http://www.w3.org/1999/xlink" x="0px" y="0px"
	 viewBox="0 0 40 34" style="enable-background:new 0 0 40 34;" xml:space="preserve">
<g>
	<circle cx="20" cy="17" r="4.9"/>
	<path d="M31.4,8.4c-0.3-0.7-0.6-1.2-1.1-1.7c-0.5-0.5-1-0.8-1.7-1.1c-0.5-0.2-1.3-0.4-2.7-0.5C24.4,5,23.9,5,20,5s-4.4,0-5.9,0.1
		c-1.4,0.1-2.2,0.3-2.7,0.5c-0.7,0.3-1.2,0.6-1.7,1.1c-0.5,0.5-0.8,1-1.1,1.7c-0.2,0.5-0.4,1.3-0.5,2.7C8,12.6,8,13.1,8,17
		c0,3.9,0,4.4,0.1,5.9c0.1,1.4,0.3,2.2,0.5,2.7c0.3,0.7,0.6,1.2,1.1,1.7c0.5,0.5,1,0.8,1.7,1.1c0.5,0.2,1.3,0.4,2.7,0.5
		c1.5,0.1,2,0.1,5.9,0.1c3.9,0,4.4,0,5.9-0.1c1.4-0.1,2.2-0.3,2.7-0.5c0.7-0.3,1.2-0.6,1.7-1.1c0.5-0.5,0.8-1,1.1-1.7
		c0.2-0.5,0.4-1.3,0.5-2.7c0.1-1.5,0.1-2,0.1-5.9c0-3.9,0-4.4-0.1-5.9C31.8,9.7,31.6,8.9,31.4,8.4z M20,24.5c-4.1,0-7.5-3.4-7.5-7.5
		c0-4.1,3.4-7.5,7.5-7.5c4.1,0,7.5,3.4,7.5,7.5C27.5,21.1,24.1,24.5,20,24.5z M27.8,10.9c-1,0-1.8-0.8-1.8-1.8c0-1,0.8-1.8,1.8-1.8
		c1,0,1.8,0.8,1.8,1.8C29.6,10.2,28.8,10.9,27.8,10.9z"/>
	<path d="M35,0H5.6C4.3,0,3,0.7,3,2v29.3C3,32.6,4.3,34,5.6,34H35c1.3,0,2-1.4,2-2.7V2C37,0.7,36.3,0,35,0z M34.6,17.4
		c0,3.6,0,4.1-0.1,5.6c-0.1,1.6-0.3,2.6-0.7,3.6c-0.4,1-0.9,1.8-1.7,2.6c-0.8,0.8-1.6,1.3-2.6,1.7c-0.9,0.4-2,0.6-3.6,0.7
		c-1.6,0.1-2.1,0.1-6,0.1s-4.5,0-6-0.1c-1.6-0.1-2.6-0.3-3.6-0.7c-1-0.4-1.8-0.9-2.6-1.7c-0.8-0.8-1.3-1.6-1.7-2.6
		c-0.4-0.9-0.6-2-0.7-3.6c-0.1-1.6-0.1-2.1-0.1-6c0-4,0-4.5,0.1-6c0.1-1.6,0.3-2.6,0.7-3.6c0.4-1,0.9-1.8,1.7-2.6
		C8.6,4,9.5,3.5,10.4,3.1c0.9-0.4,2-0.6,3.6-0.7c1.5-0.1,2-0.1,5.5-0.1h1.1c3.5,0,4,0,5.5,0.1c1.6,0.1,2.6,0.3,3.6,0.7
		c1,0.4,1.8,0.9,2.6,1.7c0.8,0.8,1.3,1.6,1.7,2.6c0.4,0.9,0.6,2,0.7,3.6c0.1,1.5,0.1,2,0.1,5.6V17.4z"/>
</g>
</svg>
