<?xml version="1.0" encoding="utf-8"?>
<!-- Generated by IcoMoon.io -->
<!DOCTYPE svg PUBLIC "-//W3C//DTD SVG 1.1//EN" "http://www.w3.org/Graphics/SVG/1.1/DTD/svg11.dtd">
<svg version="1.1" xmlns="http://www.w3.org/2000/svg" xmlns:xlink="http://www.w3.org/1999/xlink" width="32" height="32" viewBox="0 0 32 32">
<path fill="#444444" d="M27.98 13.689h-2.707c0.197 0.766 0.313 1.566 0.313 2.393 0 5.285-4.284 9.568-9.568 9.568s-9.568-4.283-9.568-9.568c0-0.827 0.117-1.627 0.314-2.393h-2.708v13.157c0 0.659 0.536 1.195 1.197 1.195h21.528c0.662 0 1.197-0.536 1.197-1.195v-13.157zM27.98 5.317c0-0.66-0.536-1.196-1.197-1.196h-3.587c-0.661 0-1.196 0.535-1.196 1.196v3.589c0 0.66 0.535 1.196 1.196 1.196h3.587c0.662 0 1.197-0.536 1.197-1.196v-3.589zM16.019 10.101c-3.303 0-5.981 2.676-5.981 5.98s2.678 5.981 5.981 5.981c3.303 0 5.981-2.678 5.981-5.981s-2.678-5.98-5.981-5.98zM27.98 31.63h-23.923c-1.981 0-3.588-1.607-3.588-3.589v-23.92c0-1.982 1.606-3.588 3.588-3.588h23.923c1.982 0 3.587 1.606 3.587 3.588v23.92c0 1.983-1.606 3.589-3.587 3.589z"></path>
</svg>
