<?xml version="1.0" encoding="utf-8"?>
<!-- Generator: Adobe Illustrator 19.2.1, SVG Export Plug-In . SVG Version: 6.00 Build 0)  -->
<svg version="1.1" id="Calque_1" xmlns="http://www.w3.org/2000/svg" xmlns:xlink="http://www.w3.org/1999/xlink" x="0px" y="0px"
	 viewBox="0 0 1024 1024" enable-background="new 0 0 1024 1024" xml:space="preserve">
<path fill="#444444" d="M516.1,649.8c75.6,0,136.7-61.2,136.7-136.7c0-75.5-61.2-136.7-136.7-136.7c-75.5,0-136.6,61.2-136.6,136.7
	C379.5,588.6,440.7,649.8,516.1,649.8z"/>
<path fill="#444444" d="M734.7,512.7c0,120.8-97.8,218.8-218.6,218.8c-120.7,0-218.7-98.1-218.7-218.9c0-18.9,2.7-39.3,7.2-55h-63.5
	V759c0,15.1,13.9,29,29.1,29H762c15.2,0,29.7-13.9,29.7-29V457.6h-64.2C732,473.3,734.6,493.8,734.7,512.7L734.7,512.7z"/>
<path fill="#444444" d="M762.1,237.3h-82c-15.1,0-24.7,14.7-24.7,29.8v81.9c0,15.1,9.6,29.8,24.7,29.8h82
	c15.2,0,29.7-14.7,29.7-29.8v-81.9C791.8,252,777.2,237.3,762.1,237.3z"/>
<path fill="#444444" d="M972.1,0H86.2C47.6,0,0,32.4,0,70.7v878C0,987,47.6,1024,86.2,1024h885.8c38.6,0,51.9-37,51.9-75.2v-878
	C1024,32.4,1010.7,0,972.1,0z M883.1,786.1c0,45.4-36.9,80.4-83.7,80.4H234.7c-46.7,0-83-35.1-83-80.4V238.8
	c0-45.3,36.3-81.2,83-81.2h564.7c46.8,0,83.7,35.9,83.7,81.2V786.1z"/>
</svg>
