<?xml version="1.0" encoding="utf-8"?>
<!-- Generator: Adobe Illustrator 19.2.0, SVG Export Plug-In . SVG Version: 6.00 Build 0)  -->
<svg version="1.1" id="Layer_1" xmlns="http://www.w3.org/2000/svg" xmlns:xlink="http://www.w3.org/1999/xlink" x="0px" y="0px"
	 viewBox="0 0 1024 1024" style="enable-background:new 0 0 1024 1024;" xml:space="preserve">
<style type="text/css">
	.st0{fill:#010101;}
</style>
<g>
	<path class="st0" d="M1023.8,497.4c0-53.3-0.1-87.2-0.4-112.7v112.7c0-125.9-0.7-143.8-3.1-196.5c-2.5-54.5-11.2-91.8-23.8-124.3
		c-13-33.7-30.5-62.1-59-90.6c-28.5-28.5-57-46-90.6-59C814.3,14.4,777,5.6,722.7,3.4c-52-2.5-70.2-3.1-191.6-3.1h71.5
		c-19.1-0.1-42.3-0.2-71.3-0.2h-39c-0.1,0-0.2,0-0.2,0C389,0.2,360.2,0.5,322.1,2.2c-6.7,0.3-13.6,0.6-21.3,1
		c-54.5,2.5-91.7,11.2-124.3,23.8c-33.6,13-62.1,30.5-90.6,59c-28.5,28.5-46,57-59,90.6C14.4,209.1,5.6,246.4,3.1,300.9
		C0.7,355.4,0,372.9,0,512s0.7,156.4,3.1,211.1c2.5,54.5,11.2,91.8,23.8,124.3c13,33.7,30.5,62.1,59,90.6c28.5,28.5,57,46,90.6,59
		c32.5,12.6,69.8,21.3,124.3,23.8c37.7,1.7,57.7,2.6,112.6,2.9h196.8c54.8-0.4,74.9-1.2,112.6-2.9c54.5-2.5,91.7-11.2,124.3-23.8
		c33.6-13,62.1-30.5,90.6-59c28.5-28.5,46-57,59-90.6c12.6-32.5,21.3-69.8,23.8-124.3c2.2-52.7,2.9-70.9,3.1-196.5v89.7
		c0.2-22.5,0.2-51,0.2-89.7V497.4z M928.7,718.9c-2.5,50-10.8,77.2-17.7,95.1c-3.5,8.9-7.3,16.9-11.6,24.3
		c-2.1,3.6-4.3,7.2-6.7,10.6c0,0.1-0.1,0.1-0.1,0.2c-0.5,0.8-1.1,1.6-1.7,2.4c-0.3,0.4-0.6,0.8-0.9,1.2c-0.3,0.4-0.6,0.8-1,1.3
		c-0.6,0.8-1.1,1.5-1.7,2.3c0,0.1-0.1,0.1-0.1,0.2c-4.3,5.5-9.2,10.9-14.6,16.4c0,0-0.1,0.1-0.1,0.1c0,0-0.1,0.1-0.1,0.1
		c-5.5,5.5-10.9,10.3-16.4,14.6c-0.1,0-0.1,0.1-0.2,0.1c-0.8,0.6-1.5,1.2-2.3,1.7c-0.4,0.3-0.8,0.6-1.2,0.9
		c-0.4,0.3-0.8,0.6-1.2,0.9c-0.8,0.6-1.5,1.1-2.3,1.7c-0.1,0-0.1,0.1-0.2,0.1c-3.4,2.4-6.9,4.6-10.6,6.7c-7.4,4.3-15.4,8-24.3,11.6
		c-17.9,7-45.1,15.3-95.1,17.7c-54.1,2.5-70.2,2.9-206.8,2.9s-152.8-0.4-206.8-2.9c-49.8-2.2-76.9-10.5-95.1-17.7
		C186,902.2,168.9,891,151,873c-17.9-17.9-28.9-35-38.4-58.8c-7-17.9-15.3-45.1-17.7-95.1c-2.1-50.9-2.6-68.3-2.7-182.8
		c0-7.6,0-15.7,0-24.2c0-10.7,0-20.6,0-29.9c0.1-109.5,0.6-127.1,2.7-177c2.5-50,10.8-77.2,17.7-95.1c9.4-23.8,20.4-40.8,38.4-58.8
		c14.1-14.1,27.7-23.9,44.4-31.9c4.6-2.2,9.4-4.4,14.6-6.4c17.9-7,45.1-15.3,95.1-17.7c49.6-2.1,67.2-2.6,176.7-2.7
		c3.7,0,7.5,0,11.5,0c5.9,0,12,0,18.4,0c10.7,0,20.6,0,29.9,0c109.5,0.1,127.1,0.6,177.2,2.7c50,2.5,77.2,10.8,95.1,17.7
		c23.8,9.4,40.8,20.4,58.8,38.4c17.9,17.9,29.2,35,38.4,58.8c7.2,18.2,15.5,45.3,17.7,95.1c2.5,54.1,2.9,70.2,2.9,206.9
		S931.1,664.8,928.7,718.9z"/>
	<path class="st0" d="M511.7,249c-145.1,0-262.9,117.8-262.9,263s117.8,263,262.9,263s262.9-117.8,262.9-263S656.8,249,511.7,249z
		 M511.7,682.5c-94.2,0-170.5-76.3-170.5-170.5s76.3-170.5,170.5-170.5S682.1,417.8,682.1,512S605.9,682.5,511.7,682.5z"/>
	<path class="st0" d="M784.9,177.2c-33.9,0-61.5,27.6-61.5,61.5c0,33.9,27.6,61.5,61.5,61.5c33.9,0,61.5-27.6,61.5-61.5
		C846.3,204.8,818.8,177.2,784.9,177.2z"/>
</g>
</svg>
