<?xml version="1.0" encoding="utf-8"?>
<!-- Generator: Adobe Illustrator 19.2.1, SVG Export Plug-In . SVG Version: 6.00 Build 0)  -->
<svg version="1.1" id="Calque_1" xmlns="http://www.w3.org/2000/svg" xmlns:xlink="http://www.w3.org/1999/xlink" x="0px" y="0px"
	 viewBox="0 0 1024 1024" enable-background="new 0 0 1024 1024" xml:space="preserve">
<path fill="#444444" d="M1024,369.2c0-157.9-110.2-285.9-246.1-285.9c-3.3,0-6.5,0.2-9.8,0.3C619.7,76.5,512,245.4,512,245.4
	S404.3,76.5,255.9,83.5c-3.3-0.2-6.5-0.3-9.8-0.3C110.2,83.2,0,211.2,0,369.2c0,1,0.1,2,0.1,3c-0.9,56,11.3,125.2,57.4,195.2
	C118.5,660,512,970.8,512,970.8S905.5,660,966.5,567.3c46-69.9,58.2-139.1,57.4-195C1023.8,371.2,1023.9,370.2,1024,369.2
	L1024,369.2z"/>
</svg>
