<?xml version="1.0" encoding="utf-8"?>
<!-- Generated by IcoMoon.io -->
<!DOCTYPE svg PUBLIC "-//W3C//DTD SVG 1.1//EN" "http://www.w3.org/Graphics/SVG/1.1/DTD/svg11.dtd">
<svg version="1.1" xmlns="http://www.w3.org/2000/svg" xmlns:xlink="http://www.w3.org/1999/xlink" width="1024" height="1024" viewBox="0 0 1024 1024"><g id="icomoon-ignore">
</g>
<path d="M754.688 648.704c-49.152 113.664-156.672 192.512-282.112 192.512-9.728 0-19.456-0.512-29.184-1.536 0-44.544-4.608-70.144-58.88-82.432-63.488-14.336-122.88-27.136-94.208-80.384 87.040-161.792 23.040-248.32-69.12-248.32-18.944 0-36.352 3.584-51.712 10.752 31.232-147.456 154.624-257.536 302.592-257.536 124.416 0 231.424 77.824 281.088 189.952h24.064c-50.688-124.928-167.936-212.48-304.128-212.48-164.352 0-300.544 126.976-326.656 293.888-43.52 36.864-54.784 113.664 5.632 223.232 29.696 53.248-31.744 66.048-94.208 80.384-63.488 14.336-58.88 47.616-58.88 107.008h443.392c0-1.024 0-1.536 0-2.56 9.728 1.024 19.968 1.536 30.208 1.536 137.216 0 254.976-88.576 305.152-215.040h-23.040z"></path>
<path d="M793.088 443.904v78.336c0 7.68 1.024 14.848 3.584 21.504s6.144 12.288 10.752 16.896c4.608 4.608 10.24 8.704 16.896 11.264s14.336 4.096 22.528 4.096c8.192 0 15.872-1.536 22.528-4.096s12.288-6.656 16.896-11.264c4.608-4.608 8.192-10.24 10.752-16.896s3.584-13.824 3.584-21.504v-78.336h-24.576v78.336c0 5.12-0.512 9.728-2.048 13.312-1.536 4.096-3.072 7.68-5.632 10.24-2.56 3.072-5.632 5.12-9.216 6.656s-7.68 2.56-12.8 2.56c-4.608 0-8.704-1.024-12.8-2.56-3.584-1.536-6.656-3.584-9.216-6.656s-4.608-6.144-6.144-10.24c-1.536-4.096-2.048-8.704-2.048-13.312v-78.336c1.536 0-23.040 0-23.040 0z"></path>
<path d="M377.344 446.976v128h70.144v-8.192h-60.928v-119.808z"></path>
<path d="M705.024 443.904v131.072h76.8v-20.48h-52.224v-110.592z"></path>
<path d="M996.864 507.392c4.096-1.536 7.68-3.072 10.24-5.12 3.072-2.048 5.12-4.096 7.168-6.656s3.072-5.12 4.096-7.68c1.024-2.56 1.536-5.632 1.536-8.704 0-5.12-1.024-10.24-2.56-14.336-2.048-4.096-4.608-7.68-8.704-10.752s-8.704-5.12-14.848-7.168c-6.144-1.536-13.312-2.56-22.016-2.56h-45.056v131.072h49.664c7.68 0 14.336-1.024 20.48-3.072s10.752-4.608 14.848-8.192c4.096-3.584 7.168-7.68 9.216-12.288s3.072-9.728 3.072-15.36c0-15.872-9.216-25.6-27.136-29.184zM951.296 462.848v0h20.992c8.192 0 14.336 1.536 17.92 4.096 4.096 3.072 5.632 7.68 5.632 14.336s-2.048 11.264-6.144 14.336c-4.096 3.072-10.752 4.608-18.944 4.608h-19.456v-37.376zM998.4 543.232c-1.024 2.56-2.048 4.608-4.096 6.144-2.048 2.048-4.096 3.072-7.168 4.608-3.072 1.024-6.656 1.536-11.264 1.536h-24.576v-37.888h24.576c4.096 0 8.192 0.512 11.264 1.024 3.072 1.024 5.632 2.048 7.68 3.584s3.584 3.584 4.096 5.632c1.024 2.048 1.536 4.608 1.536 7.68-0.512 3.072-1.024 5.632-2.048 7.68z"></path>
<path d="M546.304 454.656v-7.68h-76.8v128h76.8v-7.68h-67.584v-53.76h56.32v-7.168h-56.32v-51.712z"></path>
<path d="M608.768 475.136c3.584-4.096 7.68-7.168 12.8-9.216s10.24-3.072 15.872-3.072c3.584 0 6.656 0.512 9.216 0.512 2.56 0.512 5.12 1.024 7.168 2.048 2.048 0.512 3.584 1.536 5.12 2.56s3.072 1.536 4.096 2.56c1.024 0.512 2.048 1.536 3.072 2.048s2.048 1.024 2.56 1.024c1.536 0 2.56-0.512 3.072-1.024s1.536-1.024 2.048-2.048l8.192-11.264c-5.12-5.12-11.264-9.216-18.944-12.288-7.168-3.072-15.872-4.608-25.6-4.608s-18.432 1.536-26.112 5.12c-7.68 3.072-14.848 7.68-20.48 13.824s-10.24 12.8-13.312 20.992c-3.072 8.192-4.608 17.408-4.608 27.136s1.536 18.432 4.608 26.624c3.072 8.192 7.168 15.36 12.8 20.992 5.632 6.144 12.288 10.752 19.968 13.824s16.384 5.12 26.112 5.12c10.752 0 19.968-1.536 28.16-5.12 7.68-3.584 14.336-8.704 19.456-15.36l-9.728-10.24c-1.024-1.024-2.048-1.536-3.584-1.536-0.512 0-1.536 0-2.048 0.512s-1.536 1.024-2.048 1.536c-2.048 2.048-4.096 3.584-6.144 4.608s-4.096 2.048-6.656 3.072c-2.048 1.024-4.608 1.536-7.68 1.536-2.56 0.512-5.632 0.512-9.216 0.512-5.632 0-10.752-1.024-15.36-3.072s-9.216-5.12-12.8-9.216c-3.584-4.096-6.144-8.704-8.704-14.336-2.048-5.632-3.072-12.288-3.072-19.456s1.024-13.824 3.072-19.456c2.56-5.632 5.12-10.752 8.704-14.848z"></path>
</svg>
