<?xml version="1.0" encoding="utf-8"?>
<!-- Generated by IcoMoon.io -->
<!DOCTYPE svg PUBLIC "-//W3C//DTD SVG 1.1//EN" "http://www.w3.org/Graphics/SVG/1.1/DTD/svg11.dtd">
<svg version="1.1" xmlns="http://www.w3.org/2000/svg" xmlns:xlink="http://www.w3.org/1999/xlink" width="32" height="32" viewBox="0 0 32 32">
<path fill="#444444" d="M26.72 21.6v-14.24h-4.32v17.44h8.16v-3.2z"></path>
<path fill="#444444" d="M11.2 9.020c-0.48-1.049-2.063-1.66-3.203-1.66h-6.557v17.434l4.273-0.022-0.004-7.651h1.693c0.571 0.16 0.758 0.85 0.758 2.028v1.655c0 2.403 0.189 3.107 1.147 3.997h4.068c-0.958-0.594-1.17-1.274-1.146-3l-0.019-2.084c0-3.26-0.904-3.502-2.359-4.204 1.862-0.94 2.256-1.88 2.256-3.828 0-0.408-0.122-0.844-0.225-1.216l2.516-0.011v14.342h4.32v-14.24h3.2v-3.2h-10.72v1.66zM5.76 10.4h0.6c0.024 0 0.043-0.085 0.067-0.091 1.109-0.102 1.668 1.070 1.668 2.166 0 1.085-0.443 1.802-1.668 1.807-0.024 0.006-0.022-0.003-0.046-0.003l-0.621 0.003v-3.882z"></path>
</svg>
