<?xml version="1.0" encoding="utf-8"?>
<!-- Generator: Adobe Illustrator 19.1.0, SVG Export Plug-In . SVG Version: 6.00 Build 0)  -->
<svg version="1.1" id="Calque_1" xmlns="http://www.w3.org/2000/svg" xmlns:xlink="http://www.w3.org/1999/xlink" x="0px" y="0px"
	 viewBox="206 -116 1024 1024" style="enable-background:new 206 -116 1024 1024;" xml:space="preserve">
<g>
	<path d="M718-116c-282.5,0-512,229.5-512,512s229.5,512,512,512s512-229.5,512-512S1000.5-116,718-116z M1035.5,567.1
		c-3.4,8.9-20.6,21.3-79.7,30.2c-4.8,0.7-6.9,6.9-9.6,20.6c-1.4,4.8-2.1,9.6-3.4,14.4c-1.4,4.1-4.1,6.2-8.2,6.2h-0.7
		c-3.4,0-7.6-0.7-13.1-1.4c-10.3-2.1-21.3-3.4-35.7-3.4c-8.2,0-17.2,0.7-25.4,2.1c-17.9,2.7-33,13.7-48.8,24.7
		c-23.4,16.5-47.4,33.7-84.5,33.7c-1.4,0-3.4,0-4.8,0l0,0c-0.7,0-2.1,0-3.4,0c-37.1,0-61.2-17.2-84.5-33.7
		c-15.8-11-30.9-22-48.8-24.7c-8.9-1.4-17.2-2.1-25.4-2.1c-15.1,0-26.8,2.1-35.7,4.1c-5.5,1.4-9.6,2.1-13.1,2.1
		c-3.4,0-7.6-0.7-8.9-6.9c-1.4-4.8-2.7-9.6-3.4-14.4c-2.7-12.4-4.8-19.9-9.6-20.6c-59.1-8.9-76.3-21.3-79.7-30.2
		c-0.7-1.4-0.7-2.7-0.7-4.1c0-3.4,2.1-6.2,5.5-6.9c91.4-15.1,132-107.9,134-112l0,0c5.5-11,6.9-21.3,3.4-28.9
		c-6.2-14.4-26.8-21.3-39.9-25.4c-3.4-1.4-6.2-2.1-8.9-2.7c-26.8-11-28.9-21.3-28.2-27.5c2.1-9.6,14.4-15.8,24.7-15.8
		c2.7,0,5.5,0.7,7.6,1.4c12.4,5.5,23.4,8.2,32.3,8.2c13.1,0,18.6-5.5,19.2-6.2c0-6.2-0.7-12.4-1.4-19.2
		c-2.7-43.3-6.2-96.9,7.6-127.1c38.5-92.8,125.1-99.7,150.5-99.7c0.7,0,11,0,11,0h1.4c25.4,0,112.7,6.9,153.3,99
		c13.7,30.2,10.3,83.8,7.6,127.1v2.1c-0.7,6.2-0.7,11.7-1.4,17.2c0.7,0.7,6.2,5.5,17.9,6.2l0,0c8.9-0.7,19.2-3.4,30.9-8.2
		c3.4-1.4,6.9-2.1,9.6-2.1c4.1,0,7.6,0.7,11,2.1l0,0c8.9,3.4,15.1,9.6,15.1,16.5c0,6.2-4.8,15.8-28.2,25.4c-2.7,0.7-5.5,2.1-8.9,2.7
		c-13.7,4.1-33.7,11-39.9,25.4c-3.4,8.2-2.1,17.9,3.4,28.9l0,0c1.4,4.1,42.6,96.9,134,112c3.4,0.7,5.5,3.4,5.5,6.9
		C1036.2,564.4,1036.2,565.8,1035.5,567.1z"/>
</g>
</svg>
