<?xml version="1.0" encoding="utf-8"?>
<!-- Generator: Adobe Illustrator 19.1.0, SVG Export Plug-In . SVG Version: 6.00 Build 0)  -->
<svg version="1.1" id="Calque_1" xmlns="http://www.w3.org/2000/svg" xmlns:xlink="http://www.w3.org/1999/xlink" x="0px" y="0px"
	 viewBox="206 -116 1024 1024" style="enable-background:new 206 -116 1024 1024;" xml:space="preserve">
<g>
	<path d="M1067.8-116.2H369.6c-90,0-162.9,72.8-162.9,162.9v697.5c0,90,72.8,162.9,162.9,162.9h697.5c90,0,162.9-72.8,162.9-162.9
		V46.6C1230.7-43.4,1157.8-116.2,1067.8-116.2z M1091.9,597.1c-4.8,10.3-24.7,25.4-94.8,36.4c-5.5,0.7-8.2,8.2-11.7,24.1
		c-1.4,5.5-2.7,11.7-4.1,17.2c-1.4,4.8-4.8,7.6-10.3,7.6h-0.7c-3.4,0-8.9-0.7-15.8-2.1c-11.7-2.1-25.4-4.8-42.6-4.8
		c-9.6,0-19.9,0.7-30.2,2.7c-21.3,3.4-39.2,16.5-58.4,29.5c-27.5,19.2-56.3,39.9-100.3,39.9c-2.1,0-4.1,0-5.5,0l0,0
		c-1.4,0-2.7,0-3.4,0c-44.7,0-72.8-19.9-100.3-39.9c-19.2-13.7-37.1-26.1-58.4-29.5c-10.3-1.4-20.6-2.7-30.2-2.7
		c-17.9,0-32.3,2.7-42.6,4.8c-6.2,1.4-11.7,2.1-15.8,2.1s-8.9-0.7-11-7.6c-2.1-6.2-2.7-11.7-4.1-17.2c-3.4-14.4-5.5-23.4-11.7-24.1
		c-70.8-11-90.7-25.4-94.8-36.4c-0.7-1.4-0.7-2.7-1.4-4.8c0-4.1,2.7-7.6,6.9-8.2C459,566.2,507.1,455.5,509.1,450.7c0,0,0,0,0-0.7
		c6.9-13.7,8.2-25.4,4.1-34.4c-7.6-17.2-31.6-25.4-47.4-30.2c-4.1-1.4-7.6-2.7-10.3-3.4c-32.3-12.4-34.4-25.4-33.7-32.3
		c2.1-11,17.2-19.2,29.5-19.2c3.4,0,6.2,0.7,8.9,2.1c14.4,6.9,27.5,10.3,38.5,10.3c15.8,0,22-6.2,23.4-7.6
		c-0.7-7.6-0.7-15.1-1.4-22.7c-3.4-51.5-7.6-114.8,8.9-151.2C578.5,52.8,681.6,43.9,711.9,43.9c0.7,0,13.1,0,13.1,0h2.1
		c30.2,0,134,8.2,182.1,117.5c16.5,36.4,12.4,100.3,8.9,151.2v2.1c-0.7,6.9-0.7,13.7-1.4,20.6c0.7,0.7,6.9,6.9,21.3,7.6l0,0
		c11-0.7,22.7-4.1,36.4-10.3c4.1-2.1,8.2-2.1,11-2.1c4.8,0,8.9,0.7,13.1,2.7l0,0c11,4.1,17.9,11.7,17.9,19.2
		c0,7.6-5.5,18.6-33.7,29.5c-2.7,1.4-6.9,2.1-10.3,3.4c-15.8,4.8-40.5,13.1-47.4,30.2c-4.1,9.6-2.7,21.3,4.1,34.4c0,0,0,0,0,0.7
		c2.1,4.8,50.9,115.4,158.7,133.3c4.1,0.7,6.9,4.1,6.9,8.2C1092.6,594.3,1092.6,595.7,1091.9,597.1z"/>
</g>
</svg>
