<?xml version="1.0" encoding="utf-8"?>
<!-- Generator: Adobe Illustrator 19.1.0, SVG Export Plug-In . SVG Version: 6.00 Build 0)  -->
<svg version="1.1" id="Calque_1" xmlns="http://www.w3.org/2000/svg" xmlns:xlink="http://www.w3.org/1999/xlink" x="0px" y="0px"
	 viewBox="206 -116 1024 1024" style="enable-background:new 206 -116 1024 1024;" xml:space="preserve">
<g>
	<path d="M1228.6,668c-6.2,14.4-33.6,34.3-129.8,49.4c-7.6,1.4-11,11.7-15.8,33c-1.4,7.6-3.4,15.8-5.5,23.3
		c-2.1,6.9-6.2,10.3-13.7,10.3h-1.4c-4.8,0-12.4-0.7-21.3-2.7c-16.5-3.4-34.3-6.2-57.7-6.2c-13.7,0-27.5,1.4-41.9,3.4
		c-28.8,4.8-53.6,22-79,40.5c-37.8,26.8-76.9,54.2-137.3,54.2c-2.7,0-5.5,0-7.6,0l0,0c-1.4,0-3.4,0-4.8,0
		c-60.4,0-99.6-27.5-137.3-54.2c-26.1-18.5-50.8-35.7-79.7-40.5c-14.4-2.1-28.2-3.4-41.9-3.4c-24.7,0-43.9,3.4-57.7,6.2
		c-8.2,1.4-15.8,3.4-21.3,3.4c-6.2,0-12.4-1.4-15.1-11c-2.1-8.2-4.1-15.8-5.5-24c-4.1-19.9-7.6-31.6-15.8-33
		c-96.1-15.1-123.6-35-129.8-49.4c-0.7-2.1-1.4-4.1-1.4-6.2c0-5.5,3.4-10.3,8.9-11c147.6-24,214.2-175.1,217-182v-0.7
		c8.9-18.5,11-34.3,5.5-47.4c-10.3-24-43.3-34.3-65.2-41.2c-5.5-1.4-10.3-3.4-14.4-4.8c-43.9-17.2-47.4-35-45.3-43.9
		c2.7-15.1,23.3-26.1,39.8-26.1c4.8,0,8.2,0.7,11.7,2.1c19.9,8.9,37.1,13.7,52.9,13.7c21.3,0,30.2-8.9,31.6-10.3
		c-0.7-10.3-1.4-20.6-2.1-30.9c-4.1-70-9.6-156.6,12.4-206c65.9-148.3,206.7-160,247.9-160c1.4,0,17.9,0,17.9,0h2.7
		c41.9,0,182.7,11.7,248.6,160c22,49.4,16.5,136.7,12.4,206v2.7c-0.7,9.6-1.4,19.2-1.4,28.2c1.4,1.4,9.6,8.9,28.8,10.3l0,0
		c14.4-0.7,31.6-5.5,49.4-13.7c5.5-2.7,11.7-2.7,15.1-2.7c6.2,0,12.4,1.4,17.9,3.4l0,0c15.1,5.5,24.7,15.8,24.7,26.8
		c0,10.3-7.6,25.4-46,40.5c-4.1,1.4-8.9,3.4-14.4,4.8c-22,6.9-54.9,17.2-65.2,41.2c-5.5,13-3.4,28.8,5.5,47.4v0.7
		c2.7,6.2,68.7,157.3,217,182c5.5,0.7,9.6,5.5,8.9,11C1229.9,663.9,1229.2,665.9,1228.6,668z"/>
</g>
</svg>
