<?xml version="1.0" encoding="utf-8"?>
<!-- Generator: Adobe Illustrator 19.2.1, SVG Export Plug-In . SVG Version: 6.00 Build 0)  -->
<svg version="1.1" id="Calque_1" xmlns="http://www.w3.org/2000/svg" xmlns:xlink="http://www.w3.org/1999/xlink" x="0px" y="0px"
	 viewBox="0 0 1639 1024" enable-background="new 0 0 1639 1024" xml:space="preserve">
<g>
	<circle fill="#444444" cx="917.5" cy="269.9" r="28.5"/>
	<circle fill="#444444" cx="881.2" cy="346.5" r="28.5"/>
	<ellipse fill="#444444" cx="855.9" cy="427" rx="28.5" ry="28.5"/>
	<circle fill="#444444" cx="966.6" cy="199.5" r="28.5"/>
	<circle fill="#444444" cx="1024.4" cy="140.3" r="28.5"/>
	<path fill="#444444" d="M989.7,99.6L850.9,1.1c-24.2-5-47.8,8.5-63.4,22.1c60.3,36.2,120.6,69.4,183.1,101.6
		C977.7,118.7,990.8,110.7,989.7,99.6z"/>
	<path fill="#444444" d="M926.3,160.9L717.2,54.3c-20.2,6.1-48.5,23.2-54.9,39.5l242.9,96.3C915.3,183.1,926.3,171,926.3,160.9z"/>
	<path fill="#444444" d="M871.1,231.3l-257.5-88.5c-21.1,11-34.2,32.6-40.2,50.2L849,269.6C858.9,259.5,874.1,246.5,871.1,231.3z"/>
	<path fill="#444444" d="M1053.2,278.7h65.3c22.1,21.1,42.2,46.2,51.4,74.4c-31.2,14.1-14.1,52.3-42.2,68.3
		c-56.3,2.1-116.6-4-169.9,5c-15,8-28.2,25.1-29.1,40.2c11-5,22.1-11,33.1-16.2l188-4c35.2-10.1,14.1-46.2,30.2-68.3
		c8-11,29.1-7,26.1-25.1c-24.2-36.2-53.3-70.4-65.4-110.7c-15-23.2-35.2-41.3-52.3-61.3c-9.1-9.1-22.1-9.1-29.1,1
		c4,24.2,31.2,45.3,45.3,65.4C1086.3,254.5,1061.2,261.5,1053.2,278.7z"/>
	<path fill="#444444" d="M808.7,353.1c10.1-8,20.2-21.1,18.1-36.2c-94.6-24.2-191.1-41.3-287.7-60.3c-13.8,9.6-29,35.7-23.8,62.4
		L808.7,353.1z"/>
	<path fill="#444444" d="M788.1,448.4c7.5-11.4,13.6-33,4.5-43l-283.7-22.1c-20.2-0.3-18.1,49.3-8,65.4L788.1,448.4z"/>
	<path fill="#444444" d="M1636.4,519H0v29.1h1638.5C1637.5,539.2,1639.5,528.1,1636.4,519z"/>
	<polygon fill="#444444" points="682,656.8 724.2,620.6 518.8,620.6 561.3,656.8 561.3,984.8 519.1,1024 725,1023.8 682,984.8 	"/>
	<path fill="#444444" d="M1050.1,620.6H759.4l46.2,38.2v329l-42.2,36.2h205.1l-40-36.2l-0.3-106.6c69.4-2.1,143.8,10.1,194.1-38.2
		c38.2-35.2,48.3-90.6,32.2-138.9C1139.6,658.9,1095.4,626.7,1050.1,620.6z M1039.1,772.5c-18.1,46.2-70.4,40.2-113.6,40.2V683.8
		c0,0,72.5-8,97.6,16.2C1041,719.2,1048.1,747.3,1039.1,772.5z"/>
</g>
</svg>
