<?xml version="1.0" encoding="utf-8"?>
<!-- Generator: Adobe Illustrator 22.1.0, SVG Export Plug-In . SVG Version: 6.00 Build 0)  -->
<svg version="1.1" id="Calque_1" xmlns="http://www.w3.org/2000/svg" xmlns:xlink="http://www.w3.org/1999/xlink" x="0px" y="0px"
	 viewBox="0 0 1024 372" style="enable-background:new 0 0 1024 372;" xml:space="preserve">
<style type="text/css">
	.st0{fill:#444444;}
</style>
<g>
	<path class="st0" d="M658.7,229.9c0,15.7,9.8,23.6,29.5,23.6c18.3,0,30.6-6.1,36.9-18.4c5-9.3,7-23.5,6.2-42.7
		c-4.7,2.9-14.1,5.6-28.2,8c-7.5,1.6-12.6,2.7-15.3,3.2C668.4,208,658.7,216.9,658.7,229.9 M662.8,146.1h-65.2
		c1.9-46.5,35.5-69.8,100.9-69.8c22.1,0,41,2.5,56.6,7.6c17.8,5.9,30.2,16.5,37.3,31.9c3.5,8.5,5.3,18.5,5.3,29.9v90.5
		c0,24.5,2.7,42.2,8.2,53.1h-70.1c-1.6-4.3-3-10.8-4.1-19.6c-16.7,17-40.1,25.6-70.2,25.6c-21.6,0-38.8-5.1-51.7-15.2
		C596,269,589,253.2,589,232.7c0-20.2,7-35.8,20.9-46.7c11.2-8.5,27.6-14.2,49.2-17.2l28.3-4c13.4-1.9,20.2-2.8,20.5-2.8
		c9.6-1.8,15.8-4.2,18.9-7c3-2.8,4.5-7.3,4.5-13.4c0-7.4-3.9-13-11.9-16.7c-6-3.2-13.3-4.8-21.7-4.8
		C677.7,120.2,666.1,128.8,662.8,146.1 M501.7,289.4h69.8V0.1h-69.8V289.4z M1023,82.2l-84.1,225.4c-7.9,21.3-19,35.5-33.2,42.7
		c-11.5,5.6-30.1,8.4-55.8,8.4h-32.8v-55h24.2c18.6,0,27.9-7.7,27.9-23.2c0-5-2.3-13.9-7-26.7c-2-5.5-4-10.9-6.1-16.4l-4.5-11.2
		l-55-144h73.8L910.6,217h0.8l40.2-134.8L1023,82.2L1023,82.2z M414.1,210.2c-13.6,24-44.7,32.7-69.5,19.4s-33.7-43.5-20.1-67.5
		c13.7-24.1,44.7-32.7,69.5-19.4C418.8,155.9,427.8,186,414.1,210.2 M470,240.2c30.5-53.7,10.2-121.4-45.5-151.3
		C369,58.9,299.1,78.2,268.6,131.9c-4.8,8.5-8.4,17.5-10.9,26.9c-12.1,41.7-12,112.8-4.5,176.4l68.3,36.7c-2.5-21.9-4.3-57.3-5-90
		C371.8,310,440,293,470,240.2 M116.1,235.7c-28.3,0-51.2-22.1-51.2-49.6c0-27.4,22.9-49.6,51.2-49.6s51.2,22.2,51.2,49.6
		C167.3,213.5,144.4,235.7,116.1,235.7 M118.8,75.2c16.9-28.2,34.7-56.2,47.8-74.2h-78C50.5,53.1,14.9,115.2,4.9,157.4
		C2.3,166.7,1,176.4,1,186c0,61.4,51.5,111,115.1,111s115-49.7,115-111C231.1,125.7,181.1,76.6,118.8,75.2"/>
</g>
</svg>
