<?xml version="1.0" encoding="utf-8"?>
<!-- Generated by IcoMoon.io -->
<!DOCTYPE svg PUBLIC "-//W3C//DTD SVG 1.1//EN" "http://www.w3.org/Graphics/SVG/1.1/DTD/svg11.dtd">
<svg version="1.1" xmlns="http://www.w3.org/2000/svg" xmlns:xlink="http://www.w3.org/1999/xlink" width="32" height="32" viewBox="0 0 32 32">
<path fill="#444444" d="M15.972 4.199c-6.536 0-11.848 5.312-11.848 11.848s5.312 11.848 11.848 11.848 11.848-5.312 11.848-11.848-5.312-11.848-11.848-11.848zM23.893 16.191c0 1.288-0.159 2.576-0.159 2.576s-0.159 1.097-0.62 1.574c-0.604 0.636-1.272 0.636-1.59 0.668-2.211 0.159-5.535 0.159-5.535 0.159s-4.103-0.032-5.376-0.159c-0.35-0.064-1.145-0.048-1.749-0.684-0.477-0.477-0.62-1.574-0.62-1.574s-0.159-1.288-0.159-2.576v-1.209c0-1.288 0.159-2.576 0.159-2.576s0.159-1.097 0.62-1.575c0.604-0.636 1.272-0.636 1.59-0.668 2.211-0.159 5.535-0.159 5.535-0.159v0c0 0 3.324 0 5.535 0.159 0.302 0.032 0.986 0.048 1.59 0.668 0.477 0.477 0.62 1.575 0.62 1.575s0.159 1.288 0.159 2.576v1.225zM14.35 17.718l0.016 0.095 4.215-2.306-4.23-2.242v4.453z"></path>
</svg>
