<?xml version="1.0" encoding="utf-8"?>
<!-- Generator: Adobe Illustrator 19.2.0, SVG Export Plug-In . SVG Version: 6.00 Build 0)  -->
<svg version="1.1" id="Calque_1" xmlns="http://www.w3.org/2000/svg" xmlns:xlink="http://www.w3.org/1999/xlink" x="0px" y="0px"
	 viewBox="0 0 1024 1024" style="enable-background:new 0 0 1024 1024;" xml:space="preserve">
<style type="text/css">
	.st0{fill:#454545;}
</style>
<g>
	<g>
		<g>
			<path class="st0" d="M629.2,573.4c-41.2,0-60.9-63.7-85.7-144.4c-7.7-25.2-15.8-51.2-23.6-71.5c-7-17.9-12-26.4-14.9-30.3
				c-5.2,4.6-17.2,19.2-32,63.2c-11.4,33.9-18.1,66.5-18.2,66.9c-0.1,0.4-0.2,0.8-0.3,1.3c-9.4,35.7-31.2,58.9-59.1,60.4
				c-15.3,0.8-52.1-4.5-77.8-71.9c-7.2-18.8-20.6-20.5-57.1-20.5c-0.1,0-0.2,0-0.4,0l-1.8,0H22.8C10.2,426.6,0,416.2,0,403.4
				s10.2-23.2,22.8-23.2l237.3,0c18.2,0,36.9,0,54,5.5c21.9,7.1,37.4,22.1,46,44.7c11.4,29.8,24.3,42.8,32.7,42.3
				c5.8-0.3,12.7-8.4,17.3-25.5c1.2-5.6,8.9-41.3,21.6-77.6c13.6-38.9,36.3-90.6,75.2-90.6c38.2,0,55.8,57.1,80.1,136.2
				c8.3,27.1,16.9,55.1,25.7,77c6.6,16.6,11.7,25.6,15.1,30.4c3.3-5.7,8.5-16.4,15.2-36.3c8.5-25.2,17-56.7,25.9-90.1
				c12.2-45.4,24.7-92.3,39-129c13.4-34.4,33.2-74,67.1-75.1c0.2,0,0.5,0,0.7,0c25.2,0,46.5,24.3,63.5,72.3
				c12.6,35.7,20.4,78.6,20.4,112.1c0,12.8-10.2,23.2-22.8,23.2c-12.6,0-22.8-10.4-22.8-23.2c0-25.5-5.8-59.4-15.1-88.5
				c-9.6-30.1-19.1-43.8-23.7-48.4c-4,3.3-13.6,14.4-27.2,51c-12.4,33.5-23.9,76.3-35,117.7c-10.5,39.3-20.5,76.4-31,104.8
				C671.1,543,656.2,573.4,629.2,573.4z M507.8,325.3L507.8,325.3L507.8,325.3z"/>
		</g>
	</g>
	<g>
		<path class="st0" d="M1016,915.4l-128.3-182c-8.8-12.5-22.9-18.9-37.1-18.4l-12.7-17.8c4.3-11.1,4.2-23.9-1.6-35.4l-4.2-8.4
			c-1-1.9-2-3.7-3.2-5.4c4.8-4.3,9.5-8.7,14.1-13.3c66.9-66.9,103.7-155.8,103.7-250.4s-36.8-183.5-103.7-250.4
			C776,66.8,687.1,30,592.5,30S409,66.8,342.1,133.7C282.6,193.2,246.9,271,239.8,353H250c11.4,0,23.7,0,36.2,1.4
			c6.8-71,37.7-136.8,88.7-187.9c58.1-58.1,135.4-90.1,217.6-90.1c82.2,0,159.5,32,217.6,90.1c58.1,58.1,90.1,135.4,90.1,217.6
			s-32,159.5-90.1,217.6c-58.1,58.1-135.4,90.1-217.6,90.1s-159.5-32-217.6-90.1c-40.3-40.3-68.6-91.3-81.8-145.3
			c-14-1.3-37.3-1.4-42.7-1.4h-4.8c13.7,68,46.8,129.5,96.5,179.2C409,701.1,498,738.1,592.5,738.1c58.2,0,114.3-13.9,164.4-40.2
			l1.4,2.8c7.6,15.3,23,24.1,39,24.1c1.1,0,2.1,0,3.2-0.1l11.7,16.4c-5.9,13.5-4.8,29.7,4.3,42.6l128.3,182
			c8.5,12,22,18.5,35.6,18.5c8.7,0,17.4-2.6,25.1-8C1025.2,962.2,1029.9,935.1,1016,915.4z"/>
	</g>
</g>
</svg>
