<svg xmlns="http://www.w3.org/2000/svg" viewBox="0 0 1000 1000"><title>icon-barn</title><g id="icon-C"><polygon points="626.17 833.49 700.36 699.42 626.17 565.46 626.17 833.49"/><polygon points="211.93 856.1 357.06 856.1 284.56 724.91 211.93 856.1"/><polygon points="372.81 833.49 372.81 565.46 298.62 699.42 372.81 833.49"/><polygon points="196.17 833.49 270.37 699.42 196.17 565.46 196.17 833.49"/><polygon points="357.06 542.86 211.93 542.86 284.56 673.92 357.06 542.86"/><polygon points="802.69 833.49 802.69 565.46 728.5 699.42 802.69 833.49"/><polygon points="787.06 542.86 641.8 542.86 714.43 673.92 787.06 542.86"/><polygon points="641.8 856.1 787.06 856.1 714.43 724.91 641.8 856.1"/><path d="M936,508.63,827.24,287.82,498.93,132,171,288.57,64,509c-3.24,6.65,1.49,11.6,8.13,14.84A13.33,13.33,0,0,0,78,525.23c5,0,7.77.3,10.09-4.45l8.81-18.15V868l76.59-.12V520.13H395.66v.24H603.32v-.24H825.54V867.4l76.59-.12V500.41L912,520.48c3.28,6.63,9.09,4.7,15.72,1.42S939.32,515.27,936,508.63ZM497.12,252.25a77.38,77.38,0,1,1-77.38,77.38A77.38,77.38,0,0,1,497.12,252.25ZM817.57,498.54H179.7c-6,0-7.57-4.89-7.57-10.92s1.54-10.92,7.57-10.92H817.57c6,0,7.57,4.89,7.57,10.92S823.6,498.54,817.57,498.54Z"/></g></svg>