<svg xmlns="http://www.w3.org/2000/svg" viewBox="0 0 1000 1000"><title>icon-horserace-trot</title><g id="icon-D1-trot"><path d="M82.31,472.47a77.52,77.52,0,0,0,7.42,7.85c25,23,64.43,34.9,97.89,28.61,21.56-4.06,44.49-18.79,57.49-36.41,6.82-9.23,10.38-20.94,19.27-28.59,6.84-5.88,17.16-8.67,26.09-8.67,9.29,0,17.45,5.77,26.73,5.82-1.55,0-5.78,7-6.67,8.26-1.86,2.67-3.54,5.46-5.12,8.3a99.71,99.71,0,0,0-8.68,20.19c-4.16,14.05-8.2,28.15-12.75,42.07-3.75,11.49-7.25,25.94-15,35.47-7.09,8.72-16.19,15.33-24,23.32-12.39,12.68-27,21.24-42.76,28.83-5.36,2.58-22.76,36.6-37.23,59.24-19.49,30.51-40.26,56.72-55.85,70.15-4.8,4.14,1,11.69,5.66,8.84,3.83-2.33,19-15.85,25.1-21.74,16.87-16.32,25.33-25.44,35-38.07,11.39-14.93,31.36-44.07,46.81-54.66,25.71-17.62,34.9-17.89,59.45-28.09,22.93-9.51,43.57-23.62,65.92-34.35,1.72-.82,11.7-6.42,21-11.62,11.12,13.47,29.59,25.25,25.89,44.24-2.16,11.05-7.46,20.54-6.44,32.18.61,6.91,9.07,11.87,21.8,20,3.2,2,35.64,16.69,53.37,27.08,12.45,7.3,24.74,15.76,34.69,26.3,4.9,5.19,9.31,9.67,13.77,15-11.88,13.72-21.71,23.59-27.88,32.62-3.64,5.34,2.59,14.64,8.6,7.84,2.48-2.81,14.21-15.1,27.71-29.21,2,3,4.11,6.31,6.33,10.1,3.92,6.71,11.93,1.66,9.67-3.88S531,728.92,528.46,724c15.91-16.63,32-33.5,37.25-39.23,9.39-10.33,63.84-83.61,77.19-100.58q7.73-.75,15.43-1.67c22.07,12,44.67,22.82,66.13,36.06,22.61,14,44.47,29.23,65.85,45,23.25,17.2,41.31,31.25,117.85,89.08,6.65,5,14.27-3.67,5.77-10.32C888,722.19,819.29,659.67,807,648.06c-21.72-20.56-68.86-66.19-87.18-86.62,13.8-16.78,25.11-39.24,20.32-60.3a12.27,12.27,0,0,0-.1-2.35c-.73-5.05-2.93-10.94-1.24-16,1.28-3.79,3.25-7.46,4.77-11.17a215.47,215.47,0,0,0,8.48-24.51c2.58-9.45,4.9-18.95,7.6-28.36,1.18-4.11,2.39-8.22,3.59-12.33a84.34,84.34,0,0,1,5.87-15.63c2.09-4.05,4.17-11.8,9-13.47s6.2,4.68,10.2,6.73c14.83,7.6,31.55,2.85,47.24,4.15,8.24.68,16.38,2.58,24.56,3.74,7.81,1.11,15.21,3.28,20.21,9.85,3.42,4.49,5.69,7.83,12,7.5,11.21-.61,31,4.77,22.36-28.89-2.51-9.74-14-15.3-21.87-21.16-9.94-7.36-20.86-15.24-29.22-23.46-11.89-11.71-22.57-24.61-35-35.79-10.45-9.4-3.17-4.06-14.47-11.15-4.62-2.89-9.85-4.24-14.6-6.83-5.91-3.22-8.06-10.19-12.71-14.71a29.72,29.72,0,0,0-5.79-4.84c-.92-.52-4-1-4.33-1.3-.67-.56-1.77.24-1.22,1,.31.41.6.85.91,1.27,1.26,1.71.89,8.38,1.63,10.81,1,3.21,3.22,6.42,3.57,9.68a51.28,51.28,0,0,0-8.47,3c-29.09,12.77-53.67,29.4-77.17,50.74q-10,9.09-19.6,18.6c-11.31,11.26-22.46,22.14-34.63,31.81-3.47-1-6-1.81-6.34-2-6.29-3-17.17-7.1-24-13.11a32.07,32.07,0,0,1-5.53-4.27c-4.44-4.38-1.93-9.41.1-14.23,1.54-6.26,5-12.27,7.49-17.95.75-1.7,1.56-3.38,2.33-5.07,2.24-4.86,4.71-9.58,7.22-14.28.87-1.63,1-3.21,2.51-3.33a3.48,3.48,0,0,1,4.37-.23,45.83,45.83,0,0,1,7,7,27.77,27.77,0,0,0,3.31,2.4c6.28,3.81,9.62-.8,13.09-4.58a21,21,0,0,1,5.29-4.44c1.82-1,3.77-.91,5.61-1.67,3.14-1.31,2.29-4.19,2-6.94-1.12-10.62,1.1-8.15,2.2-11.79a6.72,6.72,0,0,1,3-3.92c2.24-1.08,6.61.85,9.11.92a3.14,3.14,0,0,0,3-4.45c-1.54-3.05-5.7-2.56-6-6.45-.26-3,1.76-5.87,2-8.81.68-6.92-.08-16.08-6.09-20.67-4.42-3.38-7.74-7.43-12.79-10.09-15.21-8-38.82-7.65-49,8.35-3.21,5.05-3.48,10.56-3.42,16.4a62.67,62.67,0,0,1,.07,6.7c-.32,3.42-.75,6.24-4.5,7.13-2.95.69-6.07-.37-9-.93-5.09-1-10.29-.9-15.47-.83a194,194,0,0,0-71,14.37c-5.74,2.35-11.46,4.79-17,7.5-10.68,5.19-21,11.62-29.32,20.23-4.18,4.35-7.76,9.41-9.29,15.33-1.45,5.65-1.71,14.39.52,19.89,2.37,5.86,7,10.67,12.06,14.36,8,5.89,17.14,10.2,25.82,15a309,309,0,0,0,34.49,16.86c5.46,2.21,18.66,1.86,19.79,9.58.38,2.61-5.41,11.46-7.22,13.12A144.56,144.56,0,0,1,524.81,433a275.75,275.75,0,0,1-34.87-2c-21.14-2.51-41.51-9.2-62.47-12.69-20.1-3.34-40.21-2.13-60.45-1a73.35,73.35,0,0,0-33,10.28c-.81-.27-1.43-.46-1.75-.53A71.77,71.77,0,0,1,308,417.25c-6.92-4.45-13.72-9.73-21.61-12-10.38-3-23.43-5.46-33.93-1.67-10.69,3.88-21,12.78-28.89,20.71C218.16,429.7,214,436.21,209,442a217.11,217.11,0,0,1-16.51,16.66q-1.57,1.44-3.17,2.84c-14.12,12.21-30.87,21.41-49.74,23.19a86.74,86.74,0,0,1-28.86-2.47c-4.83-1.19-9.58-2.69-14.27-4.35C93.25,476.7,84.44,475.07,82.31,472.47Zm529.83-65.1c-11.38,5.86-23.33,13.33-35.56,17.81-3.23-1.75,1-9.49,2-13,1.79-6.59,3.18-11.24.41-17.88a42.14,42.14,0,0,0-10.66-14.47q-7-6.41-14.53-12.27c-4.82-3.75-9.17-8.34-14.73-11-2.83-1.36-6.32-4.59-1.49-6.26,2.82-1,6.11.25,9,.25a138.16,138.16,0,0,0,15.11-.7c3-.33,8.43-2.84,10.93-.56,1.84,1.69.52,6.67.25,8.79a79.4,79.4,0,0,0-1,10.07c0,6.57,7.34,12.08,12,15.78,9,7.18,19.39,12.62,29.28,18.42C615.77,403.9,614.22,405.83,612.15,407.37ZM434.07,608.52c3.75-18.31,9.63-36.3,10.8-55,22.53,6.49,49.23,18,65.22,20.73,25.51,4.42,51.06,8.86,76.88,11-7.9,23.55-31.72,74.41-35.64,81.11a359.23,359.23,0,0,1-30.55,44.3c-14.28-22.54-32-38.11-53.74-51.72-9.53-6-19.42-11.89-27.8-19.46C428.66,629.84,431.4,621.53,434.07,608.52Z"/></g></svg>