<svg xmlns="http://www.w3.org/2000/svg" viewBox="0 0 1000 1000"><title>icon-horserace-flat-2</title><g id="icon-D3-plat-2"><path d="M69.29,494.43c8.08,7.32,21.43,12.27,32,14.23,40.28,7.49,91.82,6.74,123.57-23.06,19.32-18.14,24.59-38,33.84-61.81,5.5-14.19,14.6-29.82,32.33-24.89,8.35,2.33,19.79,4.93,26.48,10.63-5,7.38-12.3,12.74-16.77,20.65-23.3,41.13-1.69,91.08,32.07,111.24,7.46,4.45,26.14,10.24,26.83,20.14,1.24,17.6-15.56,30-26.46,41.46-5.54,5.82-18.59,14.74-16.42,24.32,1.65,7.31,12.47,9.24,18.34,11.62a329.75,329.75,0,0,0,35.07,12.13c4.79,1.39,24,9.92,28.88,11.19,2.52,5.23,4.44,6.26,10.16,10.06,8.29,5.51,135.57,94.66,148.83,103,3.85,2.43,10.55-1.69,4.93-7.35-7.71-7.75-96.08-84.6-105.49-92.21-16.92-13.68-23.16-30.9-22.57-52.34.25-9.62,1.36-19.19,1.54-28.81.12-6.72-.39-13.42.27-20.12,1.28-13.09,6.58-28.2,22.66-21.16,24.53,10.75,47.84,25.32,73.43,33.5,19,6.08,43.76,2.45,52.64,24.57,6.81,16.71,5,73.86,5.33,82.09.3,7.57-6.91,6.45-15.4,4.24-17.78-4.64-85-21.6-90.05-22.85-6.18-1.51-10.31,5.41-2.07,9.34,4.5,2.15,78.91,26.34,95.71,31.38,8.92,2.68,19.83,6.5,27-2.06,4.26-5.08,5.58-12,7.32-18.2,2.16-7.73,4.39-15.44,6.35-23.23,4.23-16.83,9.22-38.66,11.75-55.83,1.82-12.36-.61-20.83,12-16.27,4.05,1.45,7.85,3.52,11.73,5.35,11.63,5.48,23.1,11.31,34.31,17.6,10.5,5.89,32.08,15.71,29.12,24.82-1.91,5.88-73.42,71.08-83.51,79.27-6.78,5.51,1.51,13,8.27,8.27,58.28-40.9,77.88-56.9,101-75.35,11.79-9.43,8.22-21.39,1.56-31a146.47,146.47,0,0,0-22.56-26.06c-6.68-6.16-12.73-12.81-19.09-19.3-9.86-10.06-2.55-13.08,4-22.48a109,109,0,0,0,10.75-20.33c5.9-14.17,9.88-29.19,16.23-43.1,7-15.45,13.77-30.9,18.24-47.31,2.78-10.17,5.27-20.41,8.19-30.55,1.27-4.43,2.58-8.84,3.86-13.27a91.23,91.23,0,0,1,6.32-16.83c2.26-4.37,4.5-12.71,9.66-14.5s6.67,5,11,7.25c16,8.19,34,3.07,50.88,4.47,8.88.73,17.64,2.78,26.46,4,8.41,1.2,16.38,3.54,21.76,10.6,3.68,4.83,6.13,8.44,12.88,8.07,12.07-.66,33.43,5.14,24.08-31.11-2.71-10.49-15-16.48-23.55-22.78-10.71-7.94-22.46-16.41-31.46-25.27-12.81-12.6-24.31-26.51-37.68-38.53-11.26-10.13-3.42-4.38-15.59-12-5-3.12-10.6-4.57-15.72-7.36-6.37-3.47-8.69-11-13.68-15.84a31.75,31.75,0,0,0-6.23-5.21c-1-.55-4.29-1.08-4.67-1.4-.72-.6-1.91.26-1.32,1,.34.44.65.92,1,1.37,1.35,1.83,1,9,1.75,11.64,1,3.45,3.47,6.92,3.84,10.42A55,55,0,0,0,776,277.9c-31.33,13.74-57.8,31.65-83.1,54.63q-10.77,9.79-21.12,20c-2,2-20.54,23-21.6,22.5-6.29-3-17.17-7.1-24-13.11a32.06,32.06,0,0,1-5.53-4.27c-4.44-4.38-1.93-9.41.1-14.23,1.54-6.26,5-12.27,7.49-17.95.75-1.7,1.56-3.38,2.33-5.07,2.24-4.86,4.71-9.58,7.22-14.28.87-1.63,1-3.21,2.51-3.33a3.48,3.48,0,0,1,4.37-.23,45.83,45.83,0,0,1,7,7,27.82,27.82,0,0,0,3.31,2.4c6.28,3.81,9.63-.8,13.09-4.58a21,21,0,0,1,5.29-4.44c1.82-1,3.77-.91,5.61-1.67,3.14-1.31,2.29-4.19,2-6.94-1.12-10.62,1.1-8.15,2.2-11.8a6.72,6.72,0,0,1,3-3.92c2.24-1.08,6.61.85,9.11.92a3.14,3.14,0,0,0,3-4.45c-1.54-3.05-5.7-2.56-6-6.45-.26-3,1.76-5.87,2-8.81.68-6.92-.08-16.08-6.09-20.67-4.41-3.38-7.74-7.43-12.79-10.09-15.21-8-38.82-7.65-49,8.35-3.21,5.05-3.48,10.56-3.42,16.4a62.69,62.69,0,0,1,.07,6.7c-.33,3.42-.75,6.24-4.5,7.13-2.95.69-6.07-.37-9-.93-5.09-1-10.29-.9-15.47-.83a194,194,0,0,0-71,14.37c-5.74,2.35-11.46,4.79-17,7.5-10.67,5.19-21,11.62-29.32,20.23-4.18,4.35-7.76,9.41-9.29,15.33-1.45,5.65-1.71,14.39.52,19.89,2.37,5.86,7,10.67,12.06,14.36,8,5.89,17.14,10.2,25.82,15a309,309,0,0,0,34.49,16.86c5.46,2.21,18.66,1.86,19.79,9.58.38,2.61-5.41,11.46-7.22,13.12-4.51,4.17-13.41,6-19,4.74-16-3.5-31.79-8.47-47.48-13-19-5.49-38-11.44-57.72-13.91-21-2.64-42.47-1.32-63.58-.09a84.52,84.52,0,0,0-17.93,2.74c-2.78.77-16.54,8.63-18,8-25.75-10.81-45.51-33.33-71.13-44.65-19.62-8.67-47.1-12.74-62.16,6-7.67,9.56-12.17,23.52-15,35.23-3,12.49-5.3,25.1-10.11,37.08-14.29,35.58-54.9,68.45-95.07,62.41A16,16,0,0,1,69.29,494.43Zm499.29-138c-4.82-3.75-9.17-8.34-14.73-11-2.83-1.36-6.32-4.59-1.49-6.26,2.82-1,6.11.25,9,.25a138.15,138.15,0,0,0,15.11-.71c3-.33,8.43-2.84,10.93-.56,1.84,1.69.52,6.67.25,8.79a79.37,79.37,0,0,0-1,10.07c0,6.57,7.34,12.08,12,15.78,9,7.18,19.39,12.62,29.28,18.42,4.5,2.63-2.89,6.28-4.69,7.36-2.83,1.7-5.59,3.49-8.44,5.13-5.74,3.3-11.58,7.2-17.66,9.82a12.13,12.13,0,0,1-2,.64c-9.09,2-2.88-8.77-1.71-13.1,1.79-6.59,3.18-11.24.41-17.88a42.14,42.14,0,0,0-10.66-14.47Q576.08,362.32,568.58,356.45Zm-193,264.25c2.84-3.62,13.54-13.2,13.72-13,4.44,6,7.76,23,6.47,30.4-6.66-3.89-10.1-5.53-11.87-6.5C379.88,629.43,372.3,624.86,375.57,620.7Z"/></g></svg>