<?xml version="1.0" encoding="utf-8"?>
<!-- Generator: Adobe Illustrator 19.2.0, SVG Export Plug-In . SVG Version: 6.00 Build 0)  -->
<svg version="1.1" id="Calque_1" xmlns="http://www.w3.org/2000/svg" xmlns:xlink="http://www.w3.org/1999/xlink" x="0px" y="0px"
	 viewBox="0 0 1024 1024" style="enable-background:new 0 0 1024 1024;" xml:space="preserve">
<style type="text/css">
	.st0{fill:#454545;}
</style>
<path class="st0" d="M763.2,758.8c-7.6-6.9-14.5-10.1-21.2-10.2L544.3,492.9l185.8-240.3c11.6,2.8,22.7,0.1,30.7-8.5
	C812,170,912.1,72.3,912.1,72.3c10-13-15.2-33.4-32.6-46.9C862,11.9,834-8.9,824,4.1c0,0-75.5,131.9-126.4,191.1
	c-6.1,11.9-6.3,22.1-1.5,31.2L517.2,457.8L338.3,226.4c4.7-9.2,4.6-19.3-1.5-31.2C285.9,136,210.4,4.1,210.4,4.1
	c-10-13-38,7.8-55.5,21.3c-17.4,13.5-42.7,33.9-32.6,46.9c0,0,100.1,97.7,151.3,171.8c7.9,8.5,19.1,11.2,30.7,8.5L490,492.9
	L292.4,748.6c-6.7,0.1-13.6,3.2-21.2,10.2L125.8,946.6c-9.1,11.8,0.4,23,14.4,33.9c14,10.9,27.3,17.2,36.4,5.4l123.1-159
	c0.3,86.1,16,132.7,29.6,156.7c14.8,25.9,32.6,40.4,50.4,40.4c0,0,0,0,0,0c10.4,0,20-5.2,27.1-14.3c1.3-1.7,2.5-3.6,3.6-5.5
	c13-22.7,9.8-56.9-8-87.1c-25-42.2-59.4-114.7-73-143.9l-0.7-1.4L517.2,528l188.5,243.8l-0.7,1.4c-16.9,36.3-48.9,103.2-73,143.9
	c-17.8,30.1-21,64.3-8,87c1.1,1.9,2.3,3.9,3.6,5.6c7,9.1,16.6,14.3,27.1,14.3c0,0,0,0,0,0c17.7,0,35.6-14.5,50.4-40.4
	c13.7-24,29.3-70.4,29.6-156.6l123.1,159c9.1,11.8,22.4,5.4,36.4-5.5c14-10.9,23.5-22.1,14.4-33.9L763.2,758.8z M319.8,801l0.7-0.9
	c16.3,34.4,43.9,91.2,65.1,126.9c16.3,27.5,15.7,53.6,7.9,67.3c-3.2,5.7-7.3,8.8-12,9.4c-0.5,0.1-1.1,0.1-1.7,0.1
	c-10.1,0-22.6-11.3-33.4-30.3C320.6,928.3,318.4,849,319.8,801z M688,973.6c-10.8,19-23.3,30.3-33.4,30.3c-0.6,0-1.1,0-1.7-0.1
	c-4.7-0.6-8.7-3.8-12-9.4c-7.8-13.7-8.4-39.8,7.9-67.3c21.1-35.7,48.8-92.5,65.1-126.9l0.7,0.9C716,849,713.7,928.3,688,973.6z"/>
</svg>
