<svg id="icon-D4-obstacle" xmlns="http://www.w3.org/2000/svg" viewBox="0 0 1000 1000"><title>icon-horserace-obstacle</title><path d="M116.12,746.14c11.59-1.76,23.08-8.55,32.69-14.87,31.25-20.55,55.49-48,66.91-84.11,7.74-24.47,7.74-51.11,16.37-75.12,5.33-14.82,15.6-27.75,29.35-35.56,7.76-4.4,17-7.4,25.63-9.32,16.54-3.67,7.6,18.47,6.56,27.84-1.47,13.22,2.35,28.19,7,43.17s11.46,35.82,9.4,45.8-22.9,30.53-30,38.46S267.79,694.18,264.56,698c-3.59,4.24-5.18,9.68-6,15.06-1.78,11-24.82,150.18-26.5,158.57-1.1,5.46,7.48,8.51,9.54,1.8,3-9.62,23.55-111.37,42-131.51,2.22-2.43,5.44-4.83,5.32-5.31a106.2,106.2,0,0,1,3.3,17.63c2.53,31.91.75,55-.48,116.34-.16,7.81,8.77,6.67,9.54,1,.73-5.29,7.37-79,14-110,4.21-19.69,13.49-38.6,27.29-53.35,11.59-12.39,21.31-26.3,33.44-38.32,11.58-11.48,21.46-22.48,29-37.17,5-9.79,7.82-21.42,14.63-30.16a37.82,37.82,0,0,1,8.9-7.77c16.15-10.89,38.37-20.5,57.23-25.21A446.68,446.68,0,0,0,547,549.43c24.66-10,80.16-34.06,93.37-41.39,8.09-4.5,11.77-5.57,13.41-5.74,1.84-.18,5.29,3.46,7.29,4a14.14,14.14,0,0,0,8-.61c13.35-4.2,26.2-11.28,38.71-17.49,6.65-3.3,17.38-9.4,17.38-9.4,1.43-.82,1.86-.36.94,1,0,0-10.37,15.57-42.81,62.33-3.61,5.22,3.05,9.51,6.7,5.41,33.58-37.62,58.65-66.91,65.4-75.63a39.6,39.6,0,0,1,4-4.33c1.22-1.12,2.37-1.9,2.55-1.75l-.77,3.07c-.4,1.61-53.89,76.05-62.91,88.51-2.88,4,1.92,10.24,6.19,5.59,56.6-61.53,69-78.07,81.21-93.33,5.16-6.46,10.48-14.07,11.09-22.43.4-5.49-2.56-12.27-7.73-15.21-1.22-.69-8.94.66-8.94.66a6.49,6.49,0,0,1-5.08-1.6s-14.62-14.63-25.69-11.18c-9,2.8-22.55,8.39-22.55,8.39-1.53.63-2.6-.2-2.38-1.83a19,19,0,0,0,.13-2.13c.07-10,.31-20.2-3.32-29.71-6.23-16.31,8.37-27.06,19.64-35.61a86.93,86.93,0,0,1,22.38-12c5.18-1.92,12.75-5.19,18.34-4,8.08,1.75,5.88,10.61,7.71,16.66a38.43,38.43,0,0,0,6.66,12.77c6.11,7.69,14.84,12.69,23.58,16.85,10.66,5.08,18.61,13.6,24,23.62,4.67,8.71,6.9,16.1,17.28,19.08,6.33,1.82,12.55,1.37,17.2-3.6s9.49-13.55,8.25-20.67c-.69-3.92-3.29-7.17-5.08-10.6A117.36,117.36,0,0,1,874.81,382a187,187,0,0,1-6.9-26.35c-4-20.34-8.7-40.55-14.33-60.5l-.12-.43c-.27-.27,0-1.74.68-3.26,0,0,1.19-2.82,2.94-6.32s6.17-12.63,7.92-15.86-.87-2.34-3.52-.89S857.67,272,852.1,274a83.57,83.57,0,0,0-11.81,5.79,7.14,7.14,0,0,1-5.39.51s-6-2.19-13.33-5.42-20.55-9.4-48.44-15-54-4.11-85.44,7.64c-6.65,2.49-17.83,8.12-17.83,8.12a17.65,17.65,0,0,1-3,1.3,30.15,30.15,0,0,0-3.53.35l-13.43,1c-1.61-.37-4.21-1.08-5.78-1.58,0,0-12.53-4-19.48-6.44-17.91-6.34.67-24.5,4.51-33.89,2.69-6.58,5-13.4,9.62-19,2.76-3.37,5.71-5.61,7.88-9.43a19.92,19.92,0,0,1,4.24-5.1c1.28-1,2.94-1.56,3.68-1.15s2.73,1.28,2.77,1.31,1.43.37,3,.71a7.22,7.22,0,0,0,4.58-1c2.35-1.27,3.88-3.82,5.66-5.7a16.5,16.5,0,0,1,8-4.52c4.39-1.26,3.47-4.41,3.4-8.1s-.47-6.19.12-8.67c.47-2,3.76-1.25,4.75-1.06s8.76,2.8,12.89,4.11,4.43,1.12,2.73-.76-8.07-7.31-8.11-8.79c-.43-13.85-1.39-18.69-4.44-26.5-4.66-11.92-20.86-19.85-34.34-20-8.75-.12-17.43,1.63-26.08,9.42-6.51,5.87-9.53,17.4-10,25.91-.19,3.26-.34,5,1.92,7.92,2.52,3.25,9.09,5.75,3.7,10.28-2.68,2.26-8.12,2.48-11.37,3-23.14,3.47-40.29,13.89-60.55,26.72-17.64,11.17-37.57,27.31-53,41.25-25.49,23.05-35.94,46.5-15.41,77.18,11.63,17.38,22.23,29.67,32,48.1,4.87,9.15,3.34,9.23-3.32,16-13.8,14.1-28.48,24.08-56.08,36.71s-45.21,20.56-52.26,23.19-19.38,6.47-30.84,10.58-25,14.67-29.07,17.9-21.71,14.68-25.53,18.5-10.57,8.52-14.39,10l-1.49.57a14.38,14.38,0,0,1-5.12,2.19s-30.12,5.53-46.09,10.82c-26.65,8.84-58.19,20.12-74.92,44.23-16.14,23.25-24,52.7-27.16,80.53-4,35.84,2.06,80-36,98.88C112.5,743.66,114.12,746.44,116.12,746.14ZM539.45,294.27c2.82-5.3,8.3-9.15,13-12.59,5.31-3.85,11.33-6.65,17-9.91,4.76-2.73,11.3-5.89,16-1.35,3.2,3.08,2.52,7.93,4.26,11.68s5.3,5.18,8.84,6.82a136.69,136.69,0,0,0,14.78,5.92c1.17.39,14,3.73,14,3.73,1.6.42,1.76,1.48.37,2.37,0,0-9.22,5.86-15.3,9.23-6.63,3.68-13.92,6-20.57,9.59-5.14,2.8-9.81,6.41-14.66,9.68-10,6.78-16.94,14.58-24.24,21.33-.22.2-5.6-19.67-5.95-21.56-1.52-8.29-8.66-18-9.2-27A14.57,14.57,0,0,1,539.45,294.27Z"/><path d="M626.65,638a3.59,3.59,0,0,1,3.44,3L664.51,874.3a2.52,2.52,0,0,1-2.56,3h-84a2.52,2.52,0,0,1-2.56-3L609.81,641a3.59,3.59,0,0,1,3.44-3Z"/></svg>