<svg xmlns="http://www.w3.org/2000/svg" viewBox="0 0 1000 1000"><title>icon-horserace-harness</title><g id="icon-D2-trot-attele"><path d="M.62,393.39c-.93,14.71,1.55,29.8,3.05,44.41,1.53,14.87,4,30,10.88,43.45a117.88,117.88,0,0,1,4.83,12c1.22,3.25,3.59,6.66,4.45,10,1.86,7.17,5,14.09,8.91,18.77,6.79,8.1,16.6,10.77,26.64,10.86L41.11,536a12.36,12.36,0,0,0-.47,24.25A9.6,9.6,0,0,0,45,579l88.37-15.89a103,103,0,1,0,148.37,71.59c7.48-9.12,15.2-17.45,22-22.14,25.71-17.62,34.9-17.89,59.45-28.09,22.93-9.51,43.57-23.62,65.92-34.35,1.72-.82,11.7-6.42,21-11.62C461.23,552,479.7,563.76,476,582.75c-2.16,11.05-7.46,20.54-6.44,32.18.61,6.91,9.07,11.87,21.8,20,3.2,2,35.64,16.69,53.37,27.08,12.45,7.3,24.74,15.76,34.69,26.3,4.9,5.19,9.31,9.67,13.77,15C581.32,717.09,571.48,727,565.32,736c-3.64,5.34,2.59,14.64,8.6,7.84,2.48-2.81,14.21-15.1,27.71-29.21,2,3,4.11,6.31,6.33,10.1,3.92,6.71,11.93,1.66,9.67-3.88s-4.63-10.64-7.12-15.52c15.91-16.63,32-33.5,37.25-39.23,9.39-10.33,63.84-83.61,77.19-100.58q7.73-.75,15.43-1.67c22.07,12,44.67,22.82,66.13,36.06,22.61,14,44.47,29.23,65.85,45.05,23.25,17.2,41.31,31.25,117.85,89.08,6.65,5,14.27-3.67,5.77-10.32-25.93-20.26-94.62-82.78-106.88-94.38-21.72-20.56-68.86-66.19-87.18-86.62,13.8-16.78,25.11-39.24,20.32-60.3a12.39,12.39,0,0,0-.1-2.35c-.73-5.05-2.93-10.94-1.24-16,1.28-3.79,3.25-7.46,4.77-11.17a215.47,215.47,0,0,0,8.48-24.51c2.58-9.45,4.9-18.95,7.6-28.36,1.18-4.11,2.39-8.22,3.59-12.33a84.15,84.15,0,0,1,5.87-15.63c2.09-4.05,4.17-11.8,9-13.47s6.2,4.68,10.2,6.73c14.83,7.6,31.55,2.85,47.24,4.15,8.24.68,16.38,2.58,24.56,3.74,7.81,1.11,15.21,3.28,20.21,9.85,3.42,4.49,5.69,7.83,12,7.5,11.21-.61,31,4.77,22.36-28.89-2.51-9.74-14-15.3-21.87-21.16-9.94-7.36-20.86-15.24-29.22-23.46-11.89-11.71-22.57-24.61-35-35.79-10.45-9.4-3.17-4.06-14.47-11.15-4.62-2.89-9.85-4.24-14.6-6.83-5.91-3.22-8.07-10.19-12.71-14.71a29.72,29.72,0,0,0-5.79-4.84c-.92-.52-4-1-4.33-1.3-.67-.56-1.77.24-1.22,1,.31.41.6.85.91,1.27,1.26,1.71.89,8.38,1.63,10.81,1,3.21,3.22,6.42,3.57,9.68a51.32,51.32,0,0,0-8.47,3C826,281,801.45,297.65,778,319q-10,9.09-19.6,18.6c-19.57,19.48-38.56,38-63.46,50.68-13.53,6.9-27.89,16.27-42.57,20.22-25.64,7-54.14,6.85-80.33,3.74-21.14-2.51-41.51-9.2-62.47-12.69-20.1-3.34-40.21-2.13-60.45-1a73.35,73.35,0,0,0-33,10.28c-.81-.27-1.43-.46-1.75-.53A71.77,71.77,0,0,1,390,398.52c-6.92-4.45-13.72-9.73-21.61-12-10.38-3-23.43-5.46-33.93-1.67-10.69,3.88-21,12.78-28.89,20.71-5.37,5.42-9.51,11.92-14.52,17.67a217.11,217.11,0,0,1-16.51,16.66q-1.57,1.44-3.17,2.84c-14.12,12.21-30.87,21.41-49.74,23.19a86.74,86.74,0,0,1-28.86-2.47c-4.83-1.19-9.58-2.69-14.27-4.35-3.22-1.13-12-2.76-14.16-5.36a77.52,77.52,0,0,0,7.42,7.85c25,23,64.43,34.9,97.89,28.61,21.56-4.06,44.49-18.79,57.49-36.41,6.82-9.23,10.38-20.94,19.27-28.59,6.84-5.88,17.16-8.67,26.09-8.67,9.29,0,17.45,5.77,26.73,5.82-1.55,0-5.78,7-6.67,8.26-1.86,2.67-3.54,5.46-5.12,8.3a99.71,99.71,0,0,0-8.68,20.19c-4.16,14.05-8.2,28.15-12.75,42.07l-.18.56-70.66,12.7c0-.09,0-.19,0-.28.11-4.33-.73-10.06-6.42-7.11-4.41,2.28-8.91,6.52-12.73,10.83l-32.25,5.8c-2.87-1.82-5.57-3.72-8-5.31-17.79-11.74-36-23.28-52.26-37.15-4.09-3.5-9-4.92-14.15-6.09-5.39-1.22-10.79-2.81-16.33-3.12-6.73-.37-13.48-.58-20.22-.5a254.62,254.62,0,0,0-35.24,3.21c-3.38.52-5.93,1.24-8-2.05-2.76-4.42-2.91-9.77-3.93-14.73s-3.33-9.73-4.39-14.78c-.25-1.18-.39-10.26-.83-10.42,11.64,4.28,23.84,5.21,36.1,6.18,8.72.68,17.47.88,26.21.79,5.15-.06,11.69.07,16.74.36,3.78.22,5.1-3.48,10.23-2.41a10,10,0,0,1,3.4,2.86c.48,1,5.56,2,6.61,2.27a31.53,31.53,0,0,0,8.91,1.48c2.43-.1,2.67-1.35,4.7-2.11a15.25,15.25,0,0,0,3.72-2.14c2.33-1.73,1.93-2.06,2.61-4.5a11.64,11.64,0,0,1,1.43-3,13.66,13.66,0,0,0,1.55-4c1-6.17-4.91-8.54-9.72-10.06-2.42-.77-2.63-1.37-3.81-3.36-1.67-2.79-6-3.15-8.8-2.14a17.15,17.15,0,0,0-4.81,2.3,3.62,3.62,0,0,0-1.08,1.39c-1,.45-5.49,1.42-6.52.7-3.07-2.14-3.88-3.29-7.55-3.41-1.17,0-2.37.24-3.53.12-3.47-.37-7-.29-10.45-.59-5.91-.51-11.71-1.85-17.62-2.43-5.53-.53-11.09-.69-16.59-1.56s-9.82-4.5-14.6-7.26c-5.1-2.94-10.87-4.52-15.85-7.69-6.48-4.13-10-11.08-14.82-16.81-4.21-5-9-9.6-13.34-14.43-1.85-2.07-1-8,1.25-9.34s5.69,0,8.19,0a27.2,27.2,0,0,0,3.93-.18c7-.88,6.77-6.35,7.12-11.27A20.27,20.27,0,0,1,75.47,336c.78-1.84,2.3-2.95,3.22-4.61,1.58-2.85-.78-4.53-2.64-6.42-7.19-7.32-4-6.79-5.38-10.19-3.8-9.55,12-6,11.29-11.07,1.34-5-11.61-3.16-13.31-5.7-1.4-2.09-1.78-4.89-3.13-7-9-13.92-25.19-19.58-41-14.37-12,3.94-22.55,14.61-24,27.45-1.21,10.45,2.14,23.09,11,29.61.54.4,3.38,1.64,3.59,2.2,1,2.67,2,5.31,3,8,0,.11.12.15.16.24a25.4,25.4,0,0,1-.95,9.49c-.25.87-.47,1.7-.69,2.51.16-.6-2.56,1.36-3.43,2.07a1.9,1.9,0,0,0-.25.23c-1,1.35-1.69,3-2.63,4.37a59.27,59.27,0,0,0-4,6.92C2.88,376.88,1.12,385.52.62,393.39Zm515.5,196.4c3.75-18.31,9.63-36.3,10.8-55,22.53,6.49,49.23,18,65.22,20.73,25.51,4.42,51.06,8.86,76.88,11-7.9,23.55-31.72,74.41-35.64,81.11a359.23,359.23,0,0,1-30.55,44.3c-14.28-22.54-32-38.11-53.74-51.72-9.53-6-19.42-11.89-27.8-19.46C510.71,611.12,513.46,602.8,516.12,589.79ZM271.7,606.48A103.08,103.08,0,0,0,193,552.37l40.19-7.23c4.08,1.84,8.18,3.66,12.33,5.35a168,168,0,0,0,15.93,5.68c3.63,1.07,10.52,4.41,14.22,3.53,2.8-.67,4.4-4,5.43-6.4,1.8-4.31,4.23-8.28,6.16-12.53.86-1.91,1.67-3.85,2.45-5.8l69.2-12.44a54.86,54.86,0,0,1-7.84,14.1c-7.09,8.72-16.19,15.33-24,23.32-12.39,12.68-27,21.24-42.76,28.83C282,589.92,277.36,597,271.7,606.48Zm-91.09-37.68a85.89,85.89,0,0,1,80.48,55.9c-4.65,8-9.48,16.24-14,23.35-19.49,30.51-40.26,56.72-55.85,70.15-4.8,4.14,1,11.69,5.66,8.84,3.83-2.33,19-15.85,25.1-21.74,16.87-16.32,25.33-25.44,35-38.07,2.74-3.59,6-8,9.53-12.78,0,.07,0,.15,0,.22a85.86,85.86,0,1,1-85.86-85.86ZM123,521.59a90.15,90.15,0,0,0,15.79-5.79c8.84-4.3,17.26-10.7,26.44-3.17,6.69,5.49,15.74,10.07,23.46,14a105.75,105.75,0,0,0,11.81,4.88l-48.07,8.64a12.34,12.34,0,0,0-9.57-22Z"/></g></svg>