<svg xmlns="http://www.w3.org/2000/svg" viewBox="0 0 1000 1000"><title>icon-horserace-flat</title><g id="icon-D3-plat"><path d="M21.33,411.42c5.13,14,19.64,28.15,33.14,34,17,7.31,37.66,4.36,55.45,2.57a247.82,247.82,0,0,0,57.79-13.12,297.45,297.45,0,0,0,45.39-20.94c23.67-13.21,36.64-24.8,65.53-19.31,23.25,4.41,7.68,19.1,1.37,33.16-4.91,10.95-8.66,22.37-12.77,33.64-6,16.55-12.72,33.31-24,47-7.44,9-17,15.86-25.19,24.12-13,13.11-28.28,22-44.88,29.81-5.62,2.66-23.88,37.83-39.06,61.25-20.46,31.55-36.58,54.41-52.94,68.3-5,4.29,1,12.08,5.93,9.14,4-2.41,19.94-16.38,26.35-22.48,17.7-16.88,20.92-22.07,31-35.13,11.95-15.43,32.9-45.56,49.12-56.51,27-18.22,36.61-18.5,62.38-29,18.73-7.66,36.11-18.16,54-27.61,0,.15,0,.31,0,.47-2.67,18.63-8.91,35.69-22.74,52.14-8.13,9.68-19.94,15.41-22.59,28-5.4,25.57-19.88,122.61-23.85,150-.89,7.73,6.79,8.22,8.56,1.88,16.9-60.57,23.85-86.07,26.93-99.46,6.89-30,13.29-29.29,32.62-53,16.46-20.16,36.92-36.58,56.49-53.55,7.78-6.75,16.23-12.91,23.47-20.25,6.28-6.38,11.24-16.09,20.73-17.76,9.13-1.62,20.09,4.13,28.76,6.35,9.84,2.51,19.91,4,29.78,6.34,19.94,4.8,39.82,9.39,59.88,13.68,38.49,8.23,78.63,12.35,117.95,9.19,1-.08,6-1.43,6.69-.94C659.1,558.16,762.11,636,768,640.4c17.35,13.19,105.43,87.18,127.58,102.9,5.54,3.93,12.21-2.21,5.67-8.38-58.57-55.2-86.32-80.88-101.95-96.25-17.75-17.46-55-57.54-69.54-73.39,2.67.51,95.54,22.66,100.91,24,7.51,1.83,128.36,36.63,142.26,40.61,9.07,2.6,12.84-6.5,3.61-10.33C960.65,613,867.84,578.76,839.23,568c-31-11.71-65.3-27.64-95.43-41.36-6.9-3.14-13.95-6.77-21.09-10.47,2.23-7.16,3.06-15.2,3.57-20.64.67-7.12,1.45-17.76-.65-26.65-1.52-6.48,8.85-21.19,11.95-26.43a242.58,242.58,0,0,1,20.75-29c10.4-12.85,28.15-28.09,41.32-38.23,1-.73,5.16,13.06,13.41,16.16,8.76,3.28,18.77,3.27,28,4.3,10.49,1.18,21,2.56,31.31,4.64,8.6,1.72,18.06,3.09,25.71,7.64a20.58,20.58,0,0,1,8.39,8.44c2,4,2.93,8.45,7.82,10,9.51,2.95,26-3.4,25.31-15-1.31-22-4-19.14-12.82-26.8-16.31-14.12-31.6-28.58-47.12-43.6-8.31-8-15.91-16.79-24.17-24.89a280.64,280.64,0,0,0-21.92-18.74c-3.81-3-7.63-6-11.35-9.18-2.26-1.91-11.52-10.72-14.62-10.86,0,0,.34,12.38,9.63,21.66a158.14,158.14,0,0,0-49,6.67c-21.94,6.48-42.68,17-63.31,26.74-8.62,4.08-17.07,8.39-25.43,12.83-17.74-2.21-32.17-.81-47.93-4.37-.95-5.12-5-17.8-5.67-23-.35-2.55-.57-5.11-.91-7.65-.14-.95-.88-2.5-.27-3.36.44-.61,2.12-.88,2.82-1.11a4.76,4.76,0,0,1,5.12,1.92c1.55,5,4.91,11.25,10.09,13.23,5.71,2.18,10.88-4.69,15.49-6.82,2.87-1.33,4.06,1.23,7,.12,2.05-.77,3.15-3.8,3.41-5.45.28-1.83,1.5-6.86,3.13-7.86a5.18,5.18,0,0,1,2.1-.69c3.92,2,7.73,4.11,11.77,3.77a1.81,1.81,0,0,0,1.66-2.18,7.08,7.08,0,0,0-1.56-2.71c-1.3-2.23-5.34-5.88-3.9-8.58.75-1.41,2-2.51,2.74-3.91a48.59,48.59,0,0,0,3.14-7.25c3.09-9.21,1-17.63-3.14-26-6.38-13-21.76-20.11-35.65-20.27-14.61-.16-27,10.78-33.5,23.06-2,3.72-14.63,0-17.89-.3a74.85,74.85,0,0,0-24.91,1.77c-7.65,1.83-15.26,3.75-22.88,5.71-23.56,6-49.5,10.3-68.57,26.63-6.46,5.53-13.92,10.57-17.66,18.48-3,6.31-4.35,14.77-4.41,21.69-.1,11.9,4.77,21.39,15.52,26.75,9.17,4.57,19.23,7,29.24,8.85,3.3.62,28.9,2.1,28.66,8.44s-3.63,15.41-6.49,21.44a4.41,4.41,0,0,1-5.51,2.59l-1.11-.08c-.09.08-.19.15-.28.22-7.87-1.21-15.76-2.29-23.62-3.51l-.54-.14c-5.45-.8-10.81-1.71-16.14-2.92q-10.61-2.41-21.11-5.3a29,29,0,0,0-7-2.12c-4.2-1.38-8.45-2.7-12.79-2.88a255.44,255.44,0,0,0-30.68-6.51c-16.09-2.25-32.89-2.12-49.09-1.25-6.56.35-13.34,2.31-19.75,3.67s-13.3,4.47-19.84,5.33c-6,.8-9.67-2.3-14.93-4.59-16.87-7.36-29.75-17-47.38-22.17a83.42,83.42,0,0,0-46.36-.18c-13,3.9-22.73,13.84-33.65,21.41a263.42,263.42,0,0,1-38.19,21.59C102.3,415.45,61.29,435.2,24.05,409,13.63,402.54,19.91,407.57,21.33,411.42ZM547.47,329c12-3.11,25.17-1.12,36.77-5.2,2.31-.81,6.16-1.46,8.28.14,1.75,1.32,2.26,3.95,3,5.89a70.34,70.34,0,0,0,4.06,8.7c3.9,7.24,8.21,14.24,14,20.17,2.43,2.51,4.55,4.91,8.2,5.43,3.41.49,11.31,1.64,25.52.09-7.11,3.11-19.14,5.94-20.73,6.45q-7.93,2.58-15.74,5.49A218.63,218.63,0,0,0,585,387.59c-3.85,2-7.54,4.47-11.49,6.32-1.13.53-4.91,2-3.29-.84,2.61-4.62,11.28-15.29,13.29-20,3.06-5.7,6-11.81,3-18.19-3.16-6.74-9-9.44-15.33-12.57-5.13-2.55-10.11-5.39-15.07-8.26C553.26,332.33,550.38,330.64,547.47,329Z"/></g></svg>