<svg xmlns="http://www.w3.org/2000/svg" viewBox="0 0 1000 1000"><title>icon-horse-profile</title><g id="icon-A"><path d="M275.44,713.29c-99.58-146.91-29.35-261.58-29.35-261.58C220.17,444.54,177.62,484,177.62,484c29.06-143.08,190.87-201.89,190.87-201.89-28.9-10.57-72,3.16-72,3.16C416.24,157,593.62,208.66,593.62,208.66,623,136.7,678.37,132,678.37,132c-13.24,13.69-11.4,52.18-11.4,52.18C678.38,161.3,702.51,157,702.51,157c-17.61,40.54-1.31,105.36-1.31,105.36,42.43,42.43,89.73,189.31,89.73,189.31l18,26c22.92,32.7,14.24,83.58-8.08,96.29-76.73,43.67-93.08-37.55-93.08-37.55-78-11.75-122.29-86.42-122.29-86.42-89.18,54.08-48.83,177.11-1.11,239.85C641.51,765.09,606,868,606,868s-232.31-9.47-330.58-154.71Zm0,0"/></g></svg>