<svg xmlns="http://www.w3.org/2000/svg" viewBox="0 0 1000 1000"><title>icon-laurel</title><g id="icon-B"><path d="M295.26,758.39c-76.3-3.56-140.72,48.26-140.72,48.26s59.3,57.61,135.61,61.17,140.72-48.26,140.72-48.26S371.57,762,295.26,758.39Z"/><path d="M321,720.59S264.66,640,176.34,618.75,1.18,643.57,1.18,643.57s56.35,80.57,144.67,101.84S321,720.59,321,720.59Z"/><path d="M256,617.71s7.38-98-47.53-170.41S57.12,355.64,57.12,355.64s-7.38,98,47.53,170.41S256,617.71,256,617.71Z"/><path d="M380.47,236.28c19.81-49.75.2-104.28.2-104.28s-51.73,26.12-71.55,75.87-.2,104.28-.2,104.28S360.66,286,380.47,236.28Z"/><path d="M245.27,444.55s45.67-67.17,36.16-141.61-70.61-128-70.61-128-45.67,67.17-36.16,141.61S245.27,444.55,245.27,444.55Z"/><path d="M731.12,477.44c-7.88-79.52-33.68-129.89-85.95-182.68C665.48,336.93,684.53,382,691.56,431,713.35,582.88,653,722.68,500,811.33,347,722.68,286.65,582.88,308.44,431c7-49,26.09-94.06,46.39-136.23-52.27,52.79-78.07,103.16-85.95,182.68-15,151.16,76.29,281.15,209.21,345.87a631.23,631.23,0,0,1-93.25,38.94c10.86-.3,25-1.73,44.94-6.33A434.14,434.14,0,0,0,500,833.22a434.11,434.11,0,0,0,70.21,22.69c19.95,4.6,34.08,6,44.94,6.33a631.23,631.23,0,0,1-93.25-38.94C654.83,758.58,746.1,628.6,731.12,477.44Z"/><path d="M704.74,758.39c-76.31,3.57-135.61,61.17-135.61,61.17s64.41,51.83,140.72,48.26,135.6-61.17,135.6-61.17S781,754.82,704.74,758.39Z"/><path d="M823.66,618.75C735.34,640,679,720.59,679,720.59s86.85,46.09,175.17,24.82S998.82,643.57,998.82,643.57,912,597.48,823.66,618.75Z"/><path d="M791.56,447.3C736.65,519.66,744,617.71,744,617.71s96.41-19.29,151.32-91.66,47.53-170.41,47.53-170.41S846.47,374.93,791.56,447.3Z"/><path d="M691.07,312.15s19.61-54.53-.2-104.28S619.33,132,619.33,132s-19.61,54.53.2,104.28S691.07,312.15,691.07,312.15Z"/><path d="M825.34,316.58C834.85,242.14,789.18,175,789.18,175s-61.09,53.53-70.61,128,36.16,141.61,36.16,141.61S815.82,391,825.34,316.58Z"/></g></svg>