<svg id="icon-level-3" xmlns="http://www.w3.org/2000/svg" viewBox="0 0 1024 1024"><defs><style>.cls-1{fill:#444;}</style></defs><title>icon-level-9</title><path class="cls-1" d="M307.26,770.39c-76.3-3.56-140.72,48.26-140.72,48.26s59.3,57.61,135.61,61.17,140.72-48.26,140.72-48.26S383.57,774,307.26,770.39Z"/><path class="cls-1" d="M333,732.59S276.66,652,188.34,630.75,13.18,655.57,13.18,655.57s56.35,80.57,144.67,101.84S333,732.59,333,732.59Z"/><path class="cls-1" d="M268,629.71s7.38-98-47.53-170.41S69.12,367.64,69.12,367.64s-7.38,98,47.53,170.41S268,629.71,268,629.71Z"/><path class="cls-1" d="M392.47,248.28c19.81-49.75.2-104.28.2-104.28s-51.73,26.12-71.55,75.87-.2,104.28-.2,104.28S372.66,298,392.47,248.28Z"/><path class="cls-1" d="M257.27,456.55s45.67-67.17,36.16-141.61-70.61-128-70.61-128-45.67,67.17-36.16,141.61S257.27,456.55,257.27,456.55Z"/><path class="cls-1" d="M743.12,489.44c-7.88-79.52-33.68-129.89-85.95-182.68C677.48,348.93,696.53,394,703.56,443,725.35,594.88,665,734.68,512,823.33,359,734.68,298.65,594.88,320.44,443c7-49,26.09-94.06,46.39-136.23-52.27,52.79-78.07,103.16-85.95,182.68-15,151.16,76.29,281.15,209.21,345.87a631.23,631.23,0,0,1-93.25,38.94c10.86-.3,25-1.73,44.94-6.33A434.14,434.14,0,0,0,512,845.22a434.11,434.11,0,0,0,70.21,22.69c19.95,4.6,34.08,6,44.94,6.33a631.23,631.23,0,0,1-93.25-38.94C666.83,770.58,758.1,640.6,743.12,489.44Z"/><path class="cls-1" d="M716.74,770.39c-76.31,3.57-135.61,61.17-135.61,61.17s64.41,51.83,140.72,48.26,135.6-61.17,135.6-61.17S793,766.82,716.74,770.39Z"/><path class="cls-1" d="M835.66,630.75C747.34,652,691,732.59,691,732.59s86.85,46.09,175.17,24.82,144.67-101.84,144.67-101.84S924,609.48,835.66,630.75Z"/><path class="cls-1" d="M803.56,459.3C748.65,531.66,756,629.71,756,629.71s96.41-19.29,151.32-91.66,47.53-170.41,47.53-170.41S858.47,386.93,803.56,459.3Z"/><path class="cls-1" d="M703.07,324.15s19.61-54.53-.2-104.28S631.33,144,631.33,144s-19.61,54.53.2,104.28S703.07,324.15,703.07,324.15Z"/><path class="cls-1" d="M837.34,328.58C846.85,254.14,801.18,187,801.18,187s-61.09,53.53-70.61,128,36.16,141.61,36.16,141.61S827.82,403,837.34,328.58Z"/></svg>