<svg id="icon-level-3" xmlns="http://www.w3.org/2000/svg" viewBox="0 0 1024 1024"><defs><style>.cls-1{fill:#444;}</style></defs><title>icon-level-6</title><path class="cls-1" d="M512,633,447.7,762.63l-146.2,19.69,106.36,99.95-26,141.72L512,956l130.17,68-26-141.72,106.28-99.95-146-19.69Z"/><polygon class="cls-1" points="512 357.7 0 599.7 0 710.3 512 468.3 1024 710.3 1024 599.7 512 357.7"/><polygon class="cls-1" points="512 179.7 0 421.7 0 532.3 512 290.3 1024 532.3 1024 421.7 512 179.7"/><polygon class="cls-1" points="512 1.7 0 243.7 0 354.3 512 112.3 1024 354.3 1024 243.7 512 1.7"/></svg>