<svg xmlns="http://www.w3.org/2000/svg" viewBox="0 0 1024 1024"><defs><style>.cls-1{fill:#444;}</style></defs><title>icon-level-5 copie</title><g id="icon-level-2"><path class="cls-1" d="M220.47,522.58,156.12,652.21,9.92,671.9l106.36,99.95-26,141.72,130.17-68,130.17,68-26-141.72L430.93,671.9,285,652.21Zm583.11,0L739.23,652.25,593,671.94l106.36,99.95-26,141.72,130.17-68,130.17,68-26-141.72L1014,671.94l-146-19.69ZM512,50.39,447.7,180l-146.2,19.69,106.36,99.95-26,141.72,130.17-68,130.17,68-26-141.72,106.28-99.95L576.55,180Z"/></g></svg>