<?xml version="1.0" encoding="utf-8"?>
<!-- Generator: Adobe Illustrator 19.2.0, SVG Export Plug-In . SVG Version: 6.00 Build 0)  -->
<svg version="1.1" id="Calque_1" xmlns="http://www.w3.org/2000/svg" xmlns:xlink="http://www.w3.org/1999/xlink" x="0px" y="0px"
	 viewBox="0 0 1024 1024" style="enable-background:new 0 0 1024 1024;" xml:space="preserve">
<style type="text/css">
	.st0{fill:#454545;}
</style>
<g>
	<path class="st0" d="M455.8,538c-12.2,0-22,9.9-22,22c0,12.2,9.9,22,22,22h112.3c12.2,0,22-9.9,22-22c0-12.2-9.9-22-22-22H534
		V333.4c0-8.7-5.1-16.6-13-20.1c-7.9-3.5-17.2-2.1-23.7,3.6l-56.2,49.9c-9.1,8.1-9.9,22-1.8,31.1c8.1,9.1,22,9.9,31.1,1.8l19.5-17.3
		V538H455.8z"/>
	<path class="st0" d="M1021,513.9c-6.1-10.5-19.6-14.2-30.1-8.1l-42.4,24.5c2.7-18.2,4.3-36.7,4.8-55.5l63.2-63.2
		c8.6-8.6,8.6-22.6,0-31.2c-8.6-8.6-22.6-8.6-31.2,0l-34.7,34.7c-2.1-18.5-5.4-36.8-9.8-54.8l44.8-77.5c6.1-10.5,2.5-24-8.1-30.1
		c-10.5-6.1-24-2.5-30.1,8.1l-24.6,42.7c-6.8-17.3-14.7-34.1-23.5-50.4l23.2-86.7c3.2-11.8-3.8-23.9-15.6-27
		c-11.8-3.1-23.9,3.8-27,15.6l-12.8,47.6C832,154.9,787.1,113.8,734.4,83c-10.5-6.1-24-2.6-30.2,7.9c-6.1,10.5-2.6,24,7.9,30.2
		c121.7,71.1,197.2,202.6,197.2,343.4c0,206.6-158.5,376.8-360.3,395.6c-7.9-12.2-21.5-20.3-37-20.3c-15.5,0-29.2,8.1-37,20.3
		c-201.8-18.8-360.3-189-360.3-395.6c0-140.7,75.6-272.3,197.2-343.4c10.5-6.1,14.1-19.6,7.9-30.2c-6.1-10.5-19.6-14.1-30.2-7.9
		c-52.7,30.8-97.6,71.8-132.8,119.7l-12.8-47.6c-3.2-11.8-15.3-18.7-27-15.6c-11.8,3.2-18.7,15.2-15.6,27l23.2,86.7
		c-8.9,16.3-16.7,33.1-23.5,50.4l-24.6-42.7c-6.1-10.5-19.6-14.2-30.1-8.1c-10.5,6.1-14.2,19.6-8.1,30.1l44.8,77.5
		c-4.4,17.9-7.6,36.2-9.7,54.8l-34.7-34.7c-8.6-8.6-22.6-8.6-31.2,0c-8.6,8.6-8.6,22.6,0,31.2l63.2,63.2c0.4,18.8,2.1,37.3,4.8,55.5
		l-42.4-24.5c-10.5-6.1-24-2.5-30.1,8.1c-6.1,10.5-2.5,24,8.1,30.1l77.3,44.6c5.3,18,11.7,35.5,19.1,52.4l-47.3-12.7
		c-11.7-3.1-23.9,3.8-27,15.6c-3.2,11.8,3.8,23.9,15.6,27l86.4,23.2c9.7,15.9,20.4,31.1,32,45.6h-49.2c-12.2,0-22,9.9-22,22
		c0,12.2,9.9,22,22,22h89.6c13.4,12.8,27.7,24.7,42.6,35.8l-47.5,12.7c-11.8,3.2-18.7,15.2-15.6,27c2.6,9.8,11.5,16.3,21.3,16.3
		c1.9,0,3.8-0.2,5.7-0.8l86.4-23.1c16.2,8.9,33,16.8,50.4,23.6l-42.4,24.5c-10.5,6.1-14.2,19.6-8.1,30.1c4.1,7.1,11.5,11,19.1,11
		c3.7,0,7.5-1,11-3l77.3-44.6c21.2,5.1,42.9,8.8,65.2,10.7C480.3,918.3,495,928,512,928s31.7-9.7,39.1-23.8c22.2-2,44-5.6,65.2-10.7
		l77.3,44.6c3.5,2,7.3,3,11,3c7.6,0,15-4,19.1-11c6.1-10.5,2.5-24-8.1-30.1l-42.4-24.5c17.3-6.8,34.2-14.7,50.4-23.6L810,875
		c1.9,0.5,3.8,0.8,5.7,0.8c9.7,0,18.6-6.5,21.3-16.3c3.2-11.8-3.8-23.9-15.6-27l-47.5-12.7c14.9-11,29.2-23,42.6-35.8h89.6
		c12.2,0,22-9.9,22-22c0-12.2-9.9-22-22-22h-49.2c11.6-14.5,22.3-29.7,32-45.6l86.4-23.2c11.8-3.2,18.7-15.2,15.6-27
		c-3.2-11.8-15.2-18.7-27-15.6l-47.3,12.7c7.4-16.9,13.8-34.4,19.1-52.4L1013,544C1023.5,537.9,1027.1,524.5,1021,513.9z"/>
	<path class="st0" d="M307.2,228.5c-8.6-8.6-22.6-8.6-31.2,0c-62.9,62.9-97.6,146.7-97.6,236c0,89.2,34.7,173,97.6,236
		c4.3,4.3,9.9,6.5,15.6,6.5c5.6,0,11.3-2.2,15.6-6.5c8.6-8.6,8.6-22.6,0-31.2c-54.6-54.6-84.7-127.3-84.7-204.8
		c0-77.4,30.1-150.2,84.7-204.8C315.8,251.1,315.8,237.1,307.2,228.5z"/>
	<path class="st0" d="M716.8,700.4c4.3,4.3,9.9,6.5,15.6,6.5c5.6,0,11.3-2.2,15.6-6.5c62.9-62.9,97.6-146.7,97.6-236
		c0-89.2-34.7-173-97.6-236c-8.6-8.6-22.6-8.6-31.2,0c-8.6,8.6-8.6,22.6,0,31.2c54.6,54.6,84.7,127.3,84.7,204.8
		c0,77.4-30.1,150.2-84.7,204.8C708.2,677.9,708.2,691.8,716.8,700.4z"/>
	<path class="st0" d="M423.8,753.3c12.2,0,22-9.9,22-22v-51.6c0-12.2-9.9-22-22-22c-12.2,0-22,9.9-22,22v51.6
		C401.8,743.4,411.6,753.3,423.8,753.3z"/>
	<path class="st0" d="M490,679.7v51.6c0,12.2,9.9,22,22,22c12.2,0,22-9.9,22-22v-51.6c0-12.2-9.9-22-22-22
		C499.8,657.6,490,667.5,490,679.7z"/>
	<path class="st0" d="M578.1,679.7v51.6c0,12.2,9.9,22,22,22c12.2,0,22-9.9,22-22v-51.6c0-12.2-9.9-22-22-22
		C588,657.6,578.1,667.5,578.1,679.7z"/>
</g>
</svg>
