<?xml version="1.0" encoding="utf-8"?>
<!-- Generator: Adobe Illustrator 18.1.1, SVG Export Plug-In . SVG Version: 6.00 Build 0)  -->
<svg version="1.1" id="Calque_1" xmlns="http://www.w3.org/2000/svg" xmlns:xlink="http://www.w3.org/1999/xlink" x="0px" y="0px"
	 viewBox="0 0 35 35" enable-background="new 0 0 35 35" xml:space="preserve">
<g>
	<path d="M34.7,0H0.3H0v0.3v34.4V35h0.3h34.4H35v-0.3V0.3V0L34.7,0L34.7,0z M34,12.6c0,0.1,0,0.2,0,0.3l0,0.7l-0.1,0.7
		c-0.1,0.8-0.2,1.4-0.4,2c-0.1,0.6-0.3,1.2-0.6,2l-0.1,0.2c-0.1,0.3-0.2,0.5-0.3,0.8c0,0.1-0.1,0.1-0.1,0.2
		c-0.1,0.1-0.1,0.2-0.2,0.3L32,20.3c-0.1,0.2-0.1,0.3-0.2,0.4l-0.1,0.1c0,0.1-0.1,0.1-0.1,0.2c-0.1,0.1-0.1,0.2-0.2,0.3
		c-0.1,0.1-0.1,0.2-0.2,0.3c-0.1,0.2-0.3,0.5-0.4,0.7c-0.4,0.7-0.9,1.3-1.3,1.9c-0.4,0.5-1,1.2-1.6,1.8c-0.2,0.3-0.5,0.5-0.8,0.8
		l-0.1,0.1c-0.2,0.2-0.4,0.3-0.6,0.5c-0.1,0.1-0.2,0.2-0.3,0.3c-1.2,1-2.5,2-3.8,2.7c-0.6,0.3-1.3,0.7-2.1,1.1
		c-0.2,0.1-0.5,0.2-0.7,0.3c-0.1,0.1-0.2,0.1-0.3,0.1c-0.1,0.1-0.2,0.1-0.3,0.1c-0.1,0-0.1,0.1-0.2,0.1l-0.1,0
		c-0.1,0.1-0.3,0.1-0.4,0.2c-1.4,0.5-2.8,0.8-4.2,0.9c-0.6,0.1-1.2,0.1-1.9,0.1l0,0h-0.1l-0.7,0l-0.7-0.1c-0.1,0-0.2,0-0.3,0
		c-0.1,0-0.1,0-0.2,0c-0.5-0.1-1-0.2-1.7-0.3c-0.3-0.1-0.5-0.2-0.8-0.2c-0.1,0-0.2-0.1-0.2-0.1c-0.2-0.1-0.3-0.1-0.5-0.2
		c-0.8-0.4-1.6-0.8-2.2-1.3c-0.1-0.1-0.2-0.1-0.3-0.2c0,0-0.1-0.1-0.1-0.1c0,0-0.1-0.1-0.1-0.1c-0.1-0.1-0.2-0.1-0.2-0.2
		c-0.1-0.1-0.1-0.1-0.2-0.2c-0.1-0.1-0.2-0.2-0.3-0.3l-0.4-0.4h0h0L3,28.9c-0.1-0.1-0.2-0.2-0.2-0.3c-0.1-0.1-0.1-0.1-0.2-0.2
		c-0.1-0.1-0.1-0.2-0.2-0.2c0,0-0.1-0.1-0.1-0.1c0-0.1-0.1-0.1-0.1-0.1c-0.1-0.1-0.1-0.2-0.2-0.3c-0.4-0.6-0.7-1.5-0.9-2.3
		C1.1,25.2,1.1,25,1,24.8c0-0.1,0-0.2-0.1-0.3c-0.1-0.2-0.1-0.5-0.1-0.8c-0.1-0.6-0.1-1.2-0.1-1.7v-0.2c0-0.1,0-0.2,0-0.3l0-0.7
		l0.1-0.7c0.1-0.8,0.2-1.4,0.4-2c0.1-0.6,0.3-1.2,0.6-2l0.1-0.2c0.1-0.3,0.2-0.5,0.3-0.8c0-0.1,0.1-0.1,0.1-0.2
		c0.1-0.1,0.1-0.2,0.2-0.3l0.2-0.5c0.1-0.1,0.1-0.3,0.2-0.4L3,13.8c0-0.1,0.1-0.1,0.1-0.2c0.1-0.1,0.1-0.2,0.2-0.3
		c0.1-0.1,0.1-0.2,0.2-0.3c0.1-0.2,0.3-0.5,0.4-0.7c0.4-0.7,0.9-1.3,1.3-1.9c0.4-0.5,1-1.2,1.6-1.8C7,8.4,7.3,8.1,7.5,7.9l0.1-0.1
		C7.8,7.6,8,7.5,8.2,7.3C8.3,7.2,8.4,7.1,8.5,7c1.2-1,2.5-2,3.8-2.7c0.6-0.3,1.3-0.7,2.1-1.1c0.2-0.1,0.5-0.2,0.7-0.3
		c0.1-0.1,0.2-0.1,0.3-0.1c0.1-0.1,0.2-0.1,0.3-0.1L16,2.5c0.1-0.1,0.3-0.1,0.4-0.2c1.4-0.5,2.8-0.8,4.2-0.9
		c0.6-0.1,1.2-0.1,1.9-0.1h0.1l0.7,0l0.7,0.1c0.1,0,0.2,0,0.3,0c0.1,0,0.1,0,0.2,0c0.5,0.1,1,0.2,1.7,0.3c0.3,0.1,0.5,0.2,0.8,0.2
		c0.1,0,0.2,0.1,0.2,0.1c0.2,0.1,0.3,0.1,0.4,0.2c0.8,0.4,1.6,0.8,2.2,1.3C29.9,3.7,30,3.8,30,3.9c0,0,0.1,0.1,0.1,0.1
		c0,0,0.1,0.1,0.1,0.1c0.1,0.1,0.2,0.1,0.2,0.2c0.1,0.1,0.1,0.1,0.2,0.2c0.1,0.1,0.2,0.2,0.3,0.3l0.4,0.4l0,0l0,0l0.4,0.4
		c0.1,0.1,0.2,0.2,0.2,0.3C32,6,32.1,6.1,32.1,6.1c0.1,0.1,0.1,0.2,0.2,0.2c0,0,0.1,0.1,0.1,0.1c0,0.1,0.1,0.1,0.1,0.1
		c0.1,0.1,0.1,0.2,0.2,0.3c0.4,0.6,0.7,1.5,0.9,2.3c0.1,0.2,0.1,0.3,0.1,0.5c0,0.1,0,0.2,0.1,0.3c0.1,0.2,0.1,0.5,0.1,0.8
		c0.1,0.6,0.1,1.2,0.1,1.7L34,12.6z"/>
	<path d="M32.4,7.1c-0.1-0.1-0.1-0.2-0.1-0.3c0-0.1-0.1-0.1-0.1-0.1c0,0-0.1-0.1-0.1-0.1C32,6.5,32,6.4,31.9,6.3
		c-0.1-0.1-0.1-0.2-0.2-0.2c-0.1-0.1-0.2-0.2-0.2-0.3l-0.3-0.4l-0.4-0.4c-0.1-0.1-0.2-0.2-0.3-0.3c-0.1-0.1-0.1-0.1-0.2-0.2
		c-0.1-0.1-0.1-0.1-0.2-0.2c0,0-0.1-0.1-0.1-0.1c0,0-0.1-0.1-0.1-0.1C29.8,4,29.7,4,29.6,3.9c-0.6-0.4-1.3-0.8-2.1-1.1
		c-0.9-0.3-1.9-0.6-3-0.7c-0.1,0-0.1,0-0.2,0c-0.1,0-0.2,0-0.3,0l-0.9,0h-0.5c-0.6,0-1.3,0.1-1.9,0.1c-1.3,0.2-2.6,0.5-4,1
		c-1.3,0.4-2.6,1.1-4,1.9C11.4,5.8,10.2,6.6,9,7.7C8.9,7.7,8.8,7.9,8.7,7.9C8.5,8.1,8.3,8.3,8.2,8.4L8.1,8.5C7.8,8.7,7.6,9,7.3,9.2
		C7,9.6,6.6,10,6.2,10.6c0,0,0,0-0.1,0.1h3.6c2.7,0,3.1,1.6,2.8,3.7c-0.3,2.1-2.7,3.1-2.7,3.1c0.6,0.3,1.3,1.4,1.8,2.1
		c0.5,0.7,1.3,2.4,1.4,2.8h-2.4c0-0.2-0.4-1.1-1.2-2.3c-0.8-1.2-1.6-1.7-2.1-1.7L7.4,17c2-0.3,2.7-1.6,2.8-2.6s-0.4-2.1-0.8-2.1H7.5
		L6,22.4H3.8l1.7-10.9c0,0.1-0.1,0.1-0.1,0.2c-0.8,1-1.4,2-1.9,3c-0.7,1.3-1.2,2.6-1.5,3.8c-0.2,0.6-0.3,1.3-0.4,1.9l-0.1,0.7
		l-0.1,0.7c0,0.1,0,0.2,0,0.3c0,0.1,0,0.1,0,0.2c0,1.1,0.1,2.2,0.3,3.1c0.2,0.8,0.5,1.6,0.8,2.3c0.1,0.1,0.1,0.2,0.1,0.3
		c0,0.1,0.1,0.1,0.1,0.1c0,0,0.1,0.1,0.1,0.1c0.1,0.1,0.1,0.2,0.1,0.2C2.9,28.4,3,28.5,3,28.6c0.1,0.1,0.2,0.2,0.2,0.3l0.3,0.4
		L4,29.7c0.1,0.1,0.2,0.2,0.3,0.3c0.1,0.1,0.1,0.1,0.2,0.2c0.1,0.1,0.1,0.1,0.2,0.2c0,0,0.1,0.1,0.1,0.1s0.1,0.1,0.1,0.1
		c0.1,0.1,0.2,0.1,0.2,0.2c0.6,0.4,1.3,0.8,2.1,1.1c0.9,0.3,1.9,0.6,3,0.7c0.1,0,0.1,0,0.2,0c0.1,0,0.2,0,0.3,0l0.7,0h0.7
		c0.6,0,1.3-0.1,1.9-0.1c1.3-0.2,2.6-0.5,4-1c1.3-0.4,2.6-1.1,4-1.9c1.3-0.8,2.5-1.7,3.7-2.7c0.1-0.1,0.2-0.2,0.3-0.3
		c0.2-0.2,0.4-0.3,0.5-0.5l0.1-0.1c0.2-0.2,0.5-0.5,0.7-0.7c0.6-0.6,1.1-1.2,1.5-1.7c0.3-0.4,0.6-0.8,0.9-1.2c0,0,0-0.1,0.1-0.1H25
		c0,0,2.7-4,3.4-5.4c0.7-1.4,1-2,0.9-3c-0.1-1-0.8-2.5-4.2-0.6l0.2-1.6c0,0,1.4-1,2.9-1.3s2.9-0.1,3.3,1.3c0.4,1.5,0.1,3.3-1.1,5.3
		c-1.2,2-1.6,2.5-1.7,2.7c-0.1,0.2-0.4,0.5,0.2,0.5c0.4,0,1.6,0,2.3,0c0-0.1,0.1-0.1,0.1-0.1c0.1-0.1,0.1-0.3,0.2-0.4
		c0.7-1.3,1.2-2.6,1.5-3.8c0.2-0.6,0.3-1.3,0.4-1.9l0.1-0.9l0-0.4c0-0.1,0-0.2,0-0.3c0-0.1,0-0.1,0-0.2c0-1.1-0.1-2.2-0.3-3.1
		C33,8.5,32.7,7.7,32.4,7.1z M17.3,14.1c-0.1,0.8-1.3,8.3-1.3,8.3h-2.4c0,0,1.5-9.9,1.5-10c0-0.2-0.1-0.3-0.3-0.3h-2l0.2-1.5H20
		l-0.2,1.5C17.5,12.1,17.5,13,17.3,14.1z M24.6,22.4h-5.7l1.8-11.7h2.2c0,0-1.2,8.1-1.3,8.4c-0.1,0.7-0.2,1.6,0.9,1.6
		c0.5,0,2.2,0,2.2,0L24.6,22.4z"/>
</g>
</svg>