<?xml version="1.0" encoding="utf-8"?>
<!-- Generator: Adobe Illustrator 19.2.0, SVG Export Plug-In . SVG Version: 6.00 Build 0)  -->
<svg version="1.1" id="Calque_1" xmlns="http://www.w3.org/2000/svg" xmlns:xlink="http://www.w3.org/1999/xlink" x="0px" y="0px"
	 viewBox="0 0 1024 1019.7" style="enable-background:new 0 0 1024 1019.7;" xml:space="preserve">
<style type="text/css">
	.st0{fill:#444444;}
</style>
<g>
	<g>
		<path class="st0" d="M1015.1,1011.9H8.9V7.5h1005.9v1004.4H1015.1z M1024-1.6h-8.9H8.9H0v8.9v1004.4v8.9h8.9h1005.9h8.9v-8.9V7.5
			v-9.1C1023.7-1.6,1024-1.6,1024-1.6z"/>
	</g>
	<g>
		<path class="st0" d="M584,309.1H385.8l-7.1,42.1h58c6,0,8.4,2.6,7.9,7.6c-0.5,4.5-45.1,292.9-45.1,292.9h69.7
			c0,0,33.5-217.9,37-242.5c4.1-29.8,5.8-58.3,70.4-57.6L584,309.1z"/>
		<path class="st0" d="M632.3,555.6c1.2-10.7,37.7-246.7,37.7-246.7h-65.2l-52.5,342.7h165.5l6-47.8c0,0-49.4-0.5-64.3-1
			C625.8,601.7,629.9,576.5,632.3,555.6z"/>
		<path class="st0" d="M993,312c-1.2-8.1-2.6-15.8-4-23c-0.7-2.6-1.2-5-1.7-7.6c-1-4.5-2.1-9.3-3.4-13.8
			c-7.2-25.3-16.9-48.9-27.9-67.9c-1.5-3.1-3.3-5.8-5-8.6c-0.9-1.4-1.7-2.6-2.6-4.1c-0.7-1-1.4-2.2-2.1-3.3c-1.7-2.8-3.3-5.2-5-7.4
			c-1.5-2.1-3.1-4.1-4.6-6.4c-2.8-3.8-5-6.9-7.4-9.6l-10.7-12.4l0,0l0,0l-10.7-12.2c-2.4-2.8-5.2-5.7-8.6-8.9
			c-1.7-1.7-3.6-3.4-5.5-5.3c-2.1-2.2-4.3-4.1-6.7-6.2c-1-0.9-1.9-1.7-3.1-2.6c-1-0.9-2.1-1.7-3.4-2.9c-2.4-2.1-4.8-4.3-7.6-6
			C855.5,90,833.4,77,809.5,66.3c-4.3-1.9-8.6-3.6-13.1-5.3l-0.5-0.2c-2.2-0.9-4.5-1.7-7.1-2.8c-7.1-2.4-14.4-4.8-22.2-7.2
			c-18.4-5-34.1-8.3-49.2-10.3c-1.5-0.2-3.1-0.3-4.6-0.7c-2.8-0.3-5.7-0.9-8.6-1.2l-20.3-1.9l-21.7-1H659c-21,0-38.5,0.9-54.9,2.8
			c-39.9,4.1-81.4,13.2-122.6,27.4c-4.5,1.4-8.8,2.9-13.1,4.6l-7.9,2.9c-3.4,1.2-6.7,2.6-10.1,4c-3.1,1.4-6.2,2.6-9.6,4
			c-7.1,2.9-14.1,5.8-21,9.1c-21.7,9.6-42.8,21.2-60.5,31.3c-39.2,23-77.2,50.2-112.8,80.8c-2.8,2.6-5.7,5.2-8.8,7.9
			c-5.5,5-11.2,10-16.7,15.5l-2.1,2.1c-7.6,7.2-15.3,14.8-22.5,22.5c-17.2,17.5-32.7,36.1-45.6,51.9c-13.2,17.2-27.4,35.8-39.4,55.2
			c-4.3,6.5-8.3,13.2-12.2,19.8c-1.7,2.9-3.4,5.8-5.3,8.9c-1.7,3.1-3.4,6.2-5.2,9.5l-4.1,7.6c-2.1,4-4.3,7.9-6.4,12L71,429.9
			c-1.5,3.1-2.9,6.4-4.5,9.6c-0.7,1.7-1.5,3.4-2.2,5c-3.8,7.9-6.9,16-10,23.9l-2.2,5.7c-8.3,22.7-14.1,41.5-18.4,58.7
			c-4.5,16.7-7.9,34.9-11,57.6l-2.1,20.8l-1,20.3c-0.2,2.9,0,5.8,0,8.8v4.5c-0.2,15.3,0.9,31.3,3.3,50.4c1.2,8.1,2.6,15.8,4.1,23
			c0.7,2.6,1.2,5,1.7,7.6c1,4.8,2.1,9.3,3.4,13.8c7.2,25.3,16.9,48.9,27.9,67.8c1.5,3.1,3.3,5.8,5.2,8.8c0.9,1.2,1.5,2.6,2.4,4
			c0.7,1,1.2,1.9,2.1,3.3c1.7,2.8,3.3,5.2,5,7.4c1.5,2.1,3.1,4.1,4.6,6.4c2.8,3.8,5,6.9,7.4,9.6L97.2,859l0,0l0,0l10.8,12.2
			c2.4,2.8,5.2,5.5,8.6,8.8c1.7,1.7,3.6,3.6,5.5,5.5c2.1,2.2,4.3,4.1,6.7,6.2c1,0.9,1.9,1.7,3.1,2.8c1,0.9,2.2,1.9,3.6,2.9
			c2.2,2.1,4.8,4.3,7.6,6c17.5,13.8,39.6,26.8,63.5,37.5c4.3,1.9,8.6,3.6,13.2,5.3c2.4,0.9,4.8,1.9,7.4,2.9
			c7.1,2.4,14.4,4.8,22.2,7.2c18.4,5,34.1,8.3,49.2,10.3l4.6,0.7c2.8,0.3,5.7,0.9,8.6,1.2l20.3,1.9l21,0.9h3.3c21,0,38.5-0.9,55-2.8
			c40.1-4.1,81.4-13.2,122.6-27.4c4.5-1.4,8.8-2.9,12.9-4.6c0,0,6.2-2.4,8.1-2.9c3.4-1.2,6.7-2.4,10.1-3.8c3.1-1.4,6.4-2.8,9.6-4
			c6.9-2.9,14.1-5.8,21-9.1c21.7-9.6,42.7-21.2,60.5-31.3c39-23,77.1-50.1,112.7-80.7c2.8-2.4,5.3-4.8,8.1-7.2l0.7-0.7
			c5.8-5.2,11.2-10,16.9-15.5l2.1-1.9c7.6-7.4,15.5-15,22.7-22.7c17.2-17.5,32.7-36.1,45.6-51.9c13.2-17,27.2-35.6,39.4-55.2
			c4.3-6.5,8.3-13.2,12.2-19.6c1.7-2.9,3.4-5.8,5.3-8.9c1.7-3.1,3.4-6.2,5.2-9.5l4.1-7.7c2.1-4,4.3-7.9,6.4-12.2l7.1-14.3
			c1.5-3.3,2.9-6.4,4.6-10c0.7-1.5,1.4-3.1,2.1-4.6c3.8-7.9,6.9-16,10-23.7l2.2-5.8c8.4-22.7,14.3-41.5,18.4-58.7
			c4.5-16.7,7.9-34.9,11.2-57.6l2.1-21l1-20.3c0.2-2.8,0.2-5.7,0-8.8v-4.5C996.5,347.2,995.4,331.2,993,312z M975.8,362
			c0,1.5-0.2,3.1-0.2,4.6c0,2.6-0.2,5.3-0.3,7.9l-1,12.9l-3.3,26.3c-2.9,17.4-6.5,36-11.9,54.5c-9.8,35.8-24.8,73.5-44.9,111.8
			c-1.9,3.8-4,7.6-6,11.4c0,0-0.9,1.5-2.4,4c-22,0-54,0.2-64.7-0.2c-17.5-0.3-10.1-8.9-6.7-15.7s14.4-21.5,48.7-80.5
			c34.2-59,43.9-113.4,31.5-156c-12.4-42.7-54.5-45.4-95.5-38.7c-40.9,6.7-83.1,37-83.1,37l-7.2,46.1
			c101.7-54.5,121.8-10.3,124.4,17.7c2.6,28-6,47.5-26.1,87.9s-98.2,158.6-98.2,158.6h141.6c-0.3,0.3-0.5,0.7-0.9,1
			c-8.1,11.5-17,23.4-26.1,35.1c-12.6,15.3-27.5,33-44.2,49.9c-6.9,7.2-14.1,14.3-21.2,21l-2.6,2.4c-4.8,4.8-10.3,9.5-15.7,14.3
			c-3.1,2.8-6.4,5.7-9.3,8.3c-34.2,29.6-70.5,55.9-108,78.1c-41.5,24.1-79.6,42-116.8,55c-40.9,14.3-80.3,23.9-117.1,28.6
			c-18.9,2.8-37.8,3.6-55.4,4l-20-0.2l-19.6-1.2c-2.8-0.2-5.3-0.5-7.9-0.9l-4.5-0.5c-32.2-3.6-61.8-10.8-88.2-21.2
			c-23.2-9.1-44.7-20.5-62.1-33c-2.4-1.5-4.8-3.4-7.2-5.3c-1.2-1-2.6-2.1-3.6-2.8c-1.2-0.9-2.4-1.9-3.6-2.8
			c-2.1-1.5-4.1-3.1-5.8-4.8c-2.1-1.9-4.1-3.6-6-5.3c-3.3-2.8-6.2-5.3-8.4-7.7l-11.4-11.4L95,839.4c-1.9-2.4-4-5.7-6.4-9.3
			c-1.4-2.1-2.8-4.3-4.5-6.7c-1.4-1.9-2.4-4-3.8-6.4c-0.7-1.4-1.5-2.8-2.2-3.8c-0.7-1.4-1.5-2.9-2.4-4.3c-1.4-2.4-2.9-5-4.3-7.9
			c-9.3-18.6-17.5-41.3-23.2-65.5c-6.5-27.7-9.3-58-8.4-90.3c0-1.5,0.2-3.1,0.2-4.6c0-2.8,0.2-5.3,0.3-7.9l1.5-19.3l2.8-19.8
			c2.9-17.4,6.5-36,11.9-54.5c9.8-35.8,24.8-73.5,44.7-111.8c14.8-28.7,33.2-57.5,56.1-88.2c0.2-0.2,0.2-0.3,0.3-0.5l-47.5,313.2
			h65.2l44.7-298h50.9c13.8,0,27.7,30.6,24.8,62.1s-21.7,68.1-80.9,77l-5.8,41.3c15.7,1.7,38.2,16.9,62.3,50.7
			c24.1,33.9,36,61.2,36,66.6h71.6c-0.3-13.2-26-61.1-39.7-82.2c-13.8-21-35.8-52.6-53.2-62.1c0,0,71-28.9,80.3-89.8
			s-4.1-108.5-82.6-108.5H181c0.5-0.5,0.7-0.9,0.7-0.9c13.1-15.7,23.9-27.5,34.6-38.5c6.9-7.2,14.1-14.3,21.2-21.2l2.4-2.4
			c5-4.8,10.5-9.8,15.8-14.4c3.1-2.8,6.4-5.5,9.3-8.3c34.2-29.6,70.5-55.7,108-78.1c41.5-24.1,79.6-42,116.8-55
			c40.9-14.3,80.3-23.9,117.1-28.6c18.9-2.8,37.8-3.6,55.4-4l13.4,0.2l26,1.2c2.8,0.2,5.5,0.5,8.1,0.9c1.5,0.2,2.9,0.3,4.5,0.5
			c32.2,3.6,61.8,10.8,88.2,21.2c23.2,9.1,44.6,20.5,62.1,33c2.4,1.5,4.6,3.3,7.1,5.2c1.4,1,2.6,2.1,3.8,2.9
			c1.2,0.9,2.2,1.7,3.6,2.8c2.1,1.5,4.1,3.1,5.8,4.6c2.1,1.9,4,3.6,6,5.3c3.3,2.9,6.2,5.3,8.4,7.7l11.2,11.4l9.8,12.9
			c1.9,2.4,4,5.7,6.4,9.3c1.4,2.1,2.8,4.3,4.5,6.9c1.4,1.9,2.6,4.1,3.8,6.4c0.7,1.4,1.4,2.6,2.1,3.8c0.7,1.4,1.5,2.9,2.4,4.3
			c1.4,2.4,2.9,5,4.3,8.1c9.8,18.7,18.1,41.5,23.7,65.9C973.9,299.4,976.7,329.7,975.8,362z"/>
	</g>
</g>
</svg>
