<?xml version="1.0" encoding="utf-8"?>
<!-- Generated by IcoMoon.io -->
<!DOCTYPE svg PUBLIC "-//W3C//DTD SVG 1.1//EN" "http://www.w3.org/Graphics/SVG/1.1/DTD/svg11.dtd">
<svg version="1.1" xmlns="http://www.w3.org/2000/svg" xmlns:xlink="http://www.w3.org/1999/xlink" width="32" height="32" viewBox="0 0 32 32">
<path fill="#444444" d="M18.327 9.663h-6.219l-0.221 1.323h1.819c0.189 0 0.264 0.081 0.248 0.238-0.016 0.14-1.414 9.193-1.414 9.193h2.186c0 0 1.053-6.839 1.161-7.611 0.13-0.934 0.184-1.83 2.208-1.808l0.232-1.333z"></path>
<path fill="#444444" d="M19.843 17.398c0.038-0.335 1.182-7.741 1.182-7.741h-2.046l-1.646 10.753h5.193l0.189-1.501c0 0-1.549-0.016-2.019-0.032-1.058-0.032-0.928-0.82-0.853-1.479z"></path>
<path fill="#444444" d="M31.163 9.754c-0.038-0.254-0.081-0.497-0.124-0.723-0.022-0.081-0.038-0.157-0.054-0.238-0.032-0.14-0.065-0.291-0.108-0.432-0.227-0.794-0.529-1.533-0.875-2.132-0.049-0.097-0.103-0.184-0.157-0.27-0.027-0.043-0.054-0.081-0.081-0.13-0.022-0.032-0.043-0.070-0.065-0.103-0.054-0.086-0.103-0.162-0.157-0.232-0.049-0.065-0.097-0.13-0.146-0.2-0.086-0.119-0.157-0.216-0.232-0.302l-0.335-0.389-0.335-0.383c-0.076-0.086-0.162-0.178-0.27-0.281-0.054-0.054-0.113-0.108-0.173-0.167-0.065-0.070-0.135-0.13-0.211-0.194-0.032-0.027-0.059-0.054-0.097-0.081-0.032-0.027-0.065-0.054-0.108-0.092-0.076-0.065-0.151-0.135-0.238-0.189-0.551-0.432-1.242-0.842-1.992-1.177-0.135-0.059-0.27-0.113-0.41-0.167l-0.016-0.005c-0.070-0.027-0.14-0.054-0.221-0.086-0.221-0.076-0.453-0.151-0.696-0.227-0.578-0.157-1.069-0.259-1.544-0.324-0.049-0.005-0.097-0.011-0.146-0.022-0.086-0.011-0.178-0.027-0.27-0.038l-0.637-0.059-0.68-0.032h-0.108c-0.659 0-1.209 0.027-1.722 0.086-1.252 0.13-2.553 0.416-3.849 0.858-0.14 0.043-0.275 0.092-0.41 0.146l-0.248 0.092c-0.108 0.038-0.211 0.081-0.319 0.124-0.097 0.043-0.194 0.081-0.302 0.124-0.221 0.092-0.443 0.184-0.659 0.286-0.68 0.302-1.344 0.664-1.9 0.982-1.231 0.723-2.424 1.576-3.541 2.537-0.086 0.081-0.178 0.162-0.275 0.248-0.173 0.157-0.351 0.313-0.524 0.486l-0.065 0.065c-0.238 0.227-0.48 0.464-0.707 0.707-0.54 0.551-1.026 1.134-1.431 1.63-0.416 0.54-0.858 1.123-1.236 1.733-0.135 0.205-0.259 0.416-0.383 0.621-0.054 0.092-0.108 0.184-0.167 0.281-0.054 0.097-0.108 0.194-0.162 0.297l-0.13 0.238c-0.065 0.124-0.135 0.248-0.2 0.378l-0.227 0.453c-0.049 0.097-0.092 0.2-0.14 0.302-0.022 0.054-0.049 0.108-0.070 0.157-0.119 0.248-0.216 0.502-0.313 0.75l-0.070 0.178c-0.259 0.713-0.443 1.301-0.578 1.841-0.14 0.524-0.248 1.096-0.345 1.808l-0.065 0.653-0.032 0.637c-0.005 0.092 0 0.184 0 0.275v0.14c-0.005 0.48 0.027 0.982 0.103 1.582 0.038 0.254 0.081 0.497 0.13 0.723 0.022 0.081 0.038 0.157 0.054 0.238 0.032 0.151 0.065 0.291 0.108 0.432 0.227 0.794 0.529 1.533 0.875 2.127 0.049 0.097 0.103 0.184 0.162 0.275 0.027 0.038 0.049 0.081 0.076 0.124 0.022 0.032 0.038 0.059 0.065 0.103 0.054 0.086 0.103 0.162 0.157 0.232 0.049 0.065 0.097 0.13 0.146 0.2 0.086 0.119 0.157 0.216 0.232 0.302l0.335 0.389 0.34 0.383c0.076 0.086 0.162 0.173 0.27 0.275 0.054 0.054 0.113 0.113 0.173 0.173 0.065 0.070 0.135 0.13 0.211 0.194 0.032 0.027 0.059 0.054 0.097 0.086 0.032 0.027 0.070 0.059 0.113 0.092 0.070 0.065 0.151 0.135 0.238 0.189 0.551 0.432 1.242 0.842 1.992 1.177 0.135 0.059 0.27 0.113 0.416 0.167 0.076 0.027 0.151 0.059 0.232 0.092 0.221 0.076 0.453 0.151 0.696 0.227 0.578 0.157 1.069 0.259 1.544 0.324l0.146 0.022c0.086 0.011 0.178 0.027 0.27 0.038l0.637 0.059 0.659 0.027h0.103c0.659 0 1.209-0.027 1.727-0.086 1.258-0.13 2.553-0.416 3.849-0.858 0.14-0.043 0.275-0.092 0.405-0.146 0 0 0.194-0.076 0.254-0.092 0.108-0.038 0.211-0.076 0.319-0.119 0.097-0.043 0.2-0.086 0.302-0.124 0.216-0.092 0.443-0.184 0.659-0.286 0.68-0.302 1.339-0.664 1.9-0.982 1.225-0.723 2.418-1.571 3.536-2.532 0.086-0.076 0.167-0.151 0.254-0.227l0.022-0.022c0.184-0.162 0.351-0.313 0.529-0.486l0.065-0.059c0.238-0.232 0.486-0.47 0.713-0.713 0.54-0.551 1.026-1.134 1.43-1.63 0.416-0.534 0.853-1.117 1.236-1.733 0.135-0.205 0.259-0.416 0.383-0.615 0.054-0.092 0.108-0.184 0.167-0.281 0.054-0.097 0.108-0.194 0.162-0.297l0.13-0.243c0.065-0.124 0.135-0.248 0.2-0.383l0.221-0.448c0.049-0.103 0.092-0.2 0.146-0.313 0.022-0.049 0.043-0.097 0.065-0.146 0.119-0.248 0.216-0.502 0.313-0.745l0.070-0.184c0.265-0.713 0.448-1.301 0.578-1.841 0.14-0.524 0.248-1.096 0.351-1.808l0.065-0.659 0.032-0.637c0.005-0.086 0.005-0.178 0-0.275v-0.14c0.005-0.475-0.027-0.977-0.103-1.582zM30.623 11.325c0 0.049-0.005 0.097-0.005 0.146 0 0.081-0.005 0.167-0.011 0.248l-0.032 0.405-0.103 0.826c-0.092 0.545-0.205 1.128-0.372 1.711-0.308 1.123-0.777 2.305-1.409 3.509-0.059 0.119-0.124 0.238-0.189 0.356 0 0-0.027 0.049-0.076 0.124-0.691 0-1.695 0.005-2.030-0.005-0.551-0.011-0.319-0.281-0.211-0.491s0.453-0.675 1.528-2.526 1.377-3.557 0.988-4.896c-0.389-1.339-1.711-1.425-2.996-1.215s-2.607 1.161-2.607 1.161l-0.227 1.447c3.19-1.711 3.822-0.324 3.903 0.556s-0.189 1.49-0.82 2.758c-0.632 1.269-3.082 4.977-3.082 4.977h4.443c-0.011 0.011-0.016 0.022-0.027 0.032-0.254 0.362-0.534 0.734-0.82 1.101-0.394 0.48-0.864 1.036-1.387 1.565-0.216 0.227-0.443 0.448-0.664 0.659l-0.081 0.076c-0.151 0.151-0.324 0.297-0.491 0.448-0.097 0.086-0.2 0.178-0.291 0.259-1.074 0.928-2.213 1.754-3.39 2.451-1.301 0.756-2.499 1.317-3.665 1.727-1.285 0.448-2.521 0.75-3.676 0.896-0.594 0.086-1.188 0.113-1.738 0.124l-0.626-0.005-0.615-0.038c-0.086-0.005-0.167-0.016-0.248-0.027l-0.14-0.016c-1.009-0.113-1.938-0.34-2.769-0.664-0.729-0.286-1.404-0.642-1.949-1.036-0.076-0.049-0.151-0.108-0.227-0.167-0.038-0.032-0.081-0.065-0.113-0.086-0.038-0.027-0.076-0.059-0.113-0.086-0.065-0.049-0.13-0.097-0.184-0.151-0.065-0.059-0.13-0.113-0.189-0.167-0.103-0.086-0.194-0.167-0.264-0.243l-0.356-0.356-0.308-0.405c-0.059-0.076-0.124-0.178-0.2-0.291-0.043-0.065-0.086-0.135-0.14-0.211-0.043-0.059-0.076-0.124-0.119-0.2-0.022-0.043-0.049-0.086-0.070-0.119-0.022-0.043-0.049-0.092-0.076-0.135-0.043-0.076-0.092-0.157-0.135-0.248-0.292-0.583-0.551-1.296-0.729-2.057-0.205-0.869-0.291-1.819-0.264-2.834 0-0.049 0.005-0.097 0.005-0.146 0-0.086 0.005-0.167 0.011-0.248l0.049-0.605 0.086-0.621c0.092-0.545 0.205-1.128 0.372-1.711 0.308-1.123 0.777-2.305 1.403-3.509 0.464-0.902 1.042-1.803 1.76-2.769 0.005-0.005 0.005-0.011 0.011-0.016l-1.49 9.83h2.046l1.404-9.35h1.598c0.432 0 0.869 0.961 0.777 1.949s-0.68 2.138-2.537 2.418l-0.184 1.296c0.491 0.054 1.198 0.529 1.954 1.592s1.128 1.922 1.128 2.089h2.246c-0.011-0.416-0.815-1.916-1.247-2.58-0.432-0.659-1.123-1.652-1.668-1.949 0 0 2.229-0.907 2.521-2.818s-0.13-3.406-2.591-3.406h-3.223c0.016-0.016 0.022-0.027 0.022-0.027 0.41-0.491 0.75-0.864 1.085-1.209 0.216-0.227 0.443-0.448 0.664-0.664l0.076-0.076c0.157-0.151 0.329-0.308 0.497-0.453 0.097-0.086 0.2-0.173 0.291-0.259 1.074-0.928 2.213-1.749 3.39-2.451 1.301-0.756 2.499-1.317 3.665-1.727 1.285-0.448 2.521-0.75 3.676-0.896 0.594-0.086 1.188-0.113 1.738-0.124l0.421 0.005 0.815 0.038c0.086 0.005 0.173 0.016 0.254 0.027 0.049 0.005 0.092 0.011 0.14 0.016 1.009 0.113 1.938 0.34 2.769 0.664 0.729 0.286 1.398 0.642 1.949 1.036 0.076 0.049 0.146 0.103 0.221 0.162 0.043 0.032 0.081 0.065 0.119 0.092s0.070 0.054 0.113 0.086c0.065 0.049 0.13 0.097 0.184 0.146 0.065 0.059 0.124 0.113 0.189 0.167 0.103 0.092 0.194 0.167 0.265 0.243l0.351 0.356 0.308 0.405c0.059 0.076 0.124 0.178 0.2 0.292 0.043 0.065 0.086 0.135 0.14 0.216 0.043 0.059 0.081 0.13 0.119 0.2 0.022 0.043 0.043 0.081 0.065 0.119 0.022 0.043 0.049 0.092 0.076 0.135 0.043 0.076 0.092 0.157 0.135 0.254 0.308 0.588 0.567 1.301 0.745 2.067 0.205 0.864 0.291 1.814 0.265 2.829z"></path>
</svg>
