<?xml version="1.0" encoding="utf-8"?>
<!-- Generator: Adobe Illustrator 19.2.1, SVG Export Plug-In . SVG Version: 6.00 Build 0)  -->
<svg version="1.1" id="Calque_1" xmlns="http://www.w3.org/2000/svg" xmlns:xlink="http://www.w3.org/1999/xlink" x="0px" y="0px"
	 viewBox="0 0 1024 1024" enable-background="new 0 0 1024 1024" xml:space="preserve">
<g>
	<path fill="#444444" d="M1015.2,0H8.8H0v8.8v1006.4v8.8h8.8h1006.4h8.8v-8.8V8.8V0H1015.2L1015.2,0z M994.7,368.6c0,2.9,0,5.9,0,8.8v20.5
		l-2.9,20.5c-2.9,23.4-5.9,41-11.7,58.5c-2.9,17.6-8.8,35.1-17.6,58.5l-2.9,5.9c-2.9,8.8-5.9,14.6-8.8,23.4c0,2.9-2.9,2.9-2.9,5.9
		c-2.9,2.9-2.9,5.9-5.9,8.8l-5.9,14.6c-2.9,5.9-2.9,8.8-5.9,11.7l-2.9,2.9c0,2.9-2.9,2.9-2.9,5.9c-2.9,2.9-2.9,5.9-5.9,8.8
		c-2.9,2.9-2.9,5.9-5.9,8.8c-2.9,5.9-8.8,14.6-11.7,20.5c-11.7,20.5-26.3,38-38,55.6c-11.7,14.6-29.3,35.1-46.8,52.7
		c-5.9,8.8-14.6,14.6-23.4,23.4l-2.9,2.9c-5.9,5.9-11.7,8.8-17.6,14.6c-2.9,2.9-5.9,5.9-8.8,8.8c-35.1,29.3-73.1,58.5-111.2,79
		c-17.6,8.8-38,20.5-61.4,32.2c-5.9,2.9-14.6,5.9-20.5,8.8c-2.9,2.9-5.9,2.9-8.8,2.9c-2.9,2.9-5.9,2.9-8.8,2.9s-2.9,2.9-5.9,2.9
		h-2.9c-2.9,2.9-8.8,2.9-11.7,5.9c-41,14.6-81.9,23.4-122.9,26.3c-17.6,2.9-35.1,2.9-55.6,2.9l0,0h-2.9h-20.5l-20.5-2.9
		c-2.9,0-5.9,0-8.8,0s-2.9,0-5.9,0c-14.6-2.9-29.3-5.9-49.7-8.8c-8.8-2.9-14.6-5.9-23.4-5.9c-2.9,0-5.9-2.9-5.9-2.9
		c-5.9-2.9-8.8-2.9-14.6-5.9c-23.4-11.7-46.8-23.4-64.4-38c-2.9-2.9-5.9-2.9-8.8-5.9l-2.9-2.9l-2.9-2.9c-2.9-2.9-5.9-2.9-5.9-5.9
		c-2.9-2.9-2.9-2.9-5.9-5.9c-2.9-2.9-5.9-5.9-8.8-8.8L90.7,866l0,0l0,0l-2.9-20.5c-2.9-2.9-5.9-5.9-5.9-8.8
		c-2.9-2.9-2.9-2.9-5.9-5.9c-2.9-2.9-2.9-5.9-5.9-5.9l-2.9-2.9c0-2.9-2.9-2.9-2.9-2.9c-2.9-2.9-2.9-5.9-5.9-8.8
		c-11.7-17.6-20.5-43.9-26.3-67.3c0-5.9,0-11.7-2.9-17.6c0-2.9,0-5.9-2.9-8.8c-2.9-5.9-2.9-14.6-2.9-23.4
		c-2.9-17.6-2.9-35.1-2.9-49.7v-5.9c0-2.9,0-5.9,0-8.8v-20.5l2.9-20.5c2.9-23.4,5.9-41,11.7-58.5C38,512,43.9,494.4,52.7,471
		l2.9-5.9c2.9-8.8,5.9-14.6,8.8-23.4c0-2.9,2.9-2.9,2.9-5.9c2.9-2.9,2.9-5.9,5.9-8.8l5.9-14.6c2.9-2.9,2.9-8.8,5.9-11.7l2.9,2.9
		c0-2.9,2.9-2.9,2.9-5.9c2.9-2.9,2.9-5.9,5.9-8.8c2.9-2.9,2.9-5.9,5.9-8.8c2.9-5.9,8.8-14.6,11.7-20.5c11.7-20.5,26.3-38,38-55.6
		c11.7-14.6,29.3-35.1,46.8-52.7c5.9-5.9,14.6-14.6,20.5-20.5l2.9-2.9c5.9-5.9,11.7-8.8,17.6-14.6c2.9-2.9,5.9-5.9,8.8-8.8
		c35.1-29.3,73.1-58.5,111.2-79c17.6-8.8,38-20.5,61.4-32.2c5.9-2.9,14.6-5.9,20.5-8.8c2.9-2.9,5.9-2.9,8.8-2.9
		c2.9-2.9,5.9-2.9,8.8-2.9l8.8-5.9c2.9-2.9,8.8-2.9,11.7-5.9c41-14.6,81.9-23.4,122.9-26.3c17.6-2.9,35.1-2.9,55.6-2.9h2.9h20.5
		l20.5,2.9c2.9,0,5.9,0,8.8,0c2.9,0,2.9,0,5.9,0c14.6,2.9,29.3,5.9,49.7,8.8c8.8,2.9,14.6,5.9,23.4,5.9c2.9,0,5.9,2.9,5.9,2.9
		c5.9,2.9,8.8,2.9,11.7,5.9c23.4,11.7,46.8,23.4,64.4,38c2.9,5.9,5.9,8.8,5.9,11.7l2.9,2.9l2.9,2.9c2.9,2.9,5.9,2.9,5.9,5.9
		c2.9,2.9,2.9,2.9,5.9,5.9c2.9,2.9,5.9,5.9,8.8,8.8l11.7,11.7l0,0l0,0l11.7,11.7c2.9,2.9,5.9,5.9,5.9,8.8c2.9,2.9,5.9,5.9,5.9,5.9
		c2.9,2.9,2.9,5.9,5.9,5.9l2.9,2.9c0,2.9,2.9,2.9,2.9,2.9c2.9,2.9,2.9,5.9,5.9,8.8c11.7,17.6,20.5,43.9,26.3,67.3
		c2.9,5.9,2.9,8.8,2.9,14.6c0,2.9,0,5.9,2.9,8.8c2.9,5.9,2.9,14.6,2.9,23.4c2.9,17.6,2.9,35.1,2.9,49.7L994.7,368.6z"/>
	<path fill="#444444" d="M947.9,207.7c-2.9-2.9-2.9-5.9-2.9-8.8c0-2.9-2.9-2.9-2.9-2.9l-2.9-2.9c-2.9-2.9-2.9-5.9-5.9-8.8c-2.9-2.9-2.9-5.9-5.9-5.9
		c-2.9-2.9-5.9-5.9-5.9-8.8l-8.8-11.7l-11.7-11.7c-2.9-2.9-5.9-5.9-8.8-8.8c-2.9-2.9-2.9-2.9-5.9-5.9c-2.9-2.9-2.9-2.9-5.9-5.9
		l-2.9-2.9l-2.9-2.9c-2.9-2.9-5.9-2.9-8.8-5.9c-17.6-11.7-38-23.4-61.4-32.2c-26.3-8.8-55.6-17.6-87.8-20.5c-2.9,0-2.9,0-5.9,0
		s-5.9,0-8.8,0h-26.3h-14.6c-17.6,0-38,2.9-55.6,2.9c-38,5.9-76.1,14.6-117,29.3c-38,11.7-76.1,32.2-117,55.6
		c-38,20.5-73.1,43.9-108.3,76.1c-2.9,0-5.9,5.9-8.8,5.9c-5.9,5.9-11.7,11.7-14.6,14.6l-2.9,2.9c-8.8,5.9-14.6,14.6-23.4,20.5
		c-8.8,11.7-20.5,23.4-32.2,41c0,0,0,0-2.9,2.9h105.3c79,0,90.7,46.8,81.9,108.3c-8.8,61.4-79,90.7-79,90.7
		c17.6,8.8,38,41,52.7,61.4s38,70.2,41,81.9h-70.2c0-5.9-11.7-32.2-35.1-67.3c-23.4-35.1-46.8-49.7-61.4-49.7l2.9-41
		c58.5-8.8,79-46.8,81.9-76.1s-11.7-61.4-23.4-61.4h-55.6l-43.9,295.5h-64.4l49.7-318.9c0,2.9-2.9,2.9-2.9,5.9
		c-23.4,29.3-41,58.5-55.6,87.8c-20.5,38-35.1,76.1-43.9,111.2c-5.9,17.6-8.8,38-11.7,55.6l-2.9,20.5L41,637.8c0,2.9,0,5.9,0,8.8
		c0,2.9,0,2.9,0,5.9c0,32.2,2.9,64.4,8.8,90.7c5.9,23.4,14.6,46.8,23.4,67.3c2.9,2.9,2.9,5.9,2.9,8.8c0,2.9,2.9,2.9,2.9,2.9l2.9,2.9
		c2.9,2.9,2.9,5.9,2.9,5.9c0,0,2.9,2.9,2.9,5.9c2.9,2.9,5.9,5.9,5.9,8.8l8.8,11.7l14.6,11.7c2.9,2.9,5.9,5.9,8.8,8.8
		c2.9,2.9,2.9,2.9,5.9,5.9c2.9,2.9,2.9,2.9,5.9,5.9l2.9,2.9l2.9,2.9c2.9,2.9,5.9,2.9,5.9,5.9c17.6,11.7,38,23.4,61.4,32.2
		c26.3,8.8,55.6,17.6,87.8,20.5c2.9,0,2.9,0,5.9,0s5.9,0,8.8,0h20.5H354c17.6,0,38-2.9,55.6-2.9c38-5.9,76.1-14.6,117-29.3
		c38-11.7,76.1-32.2,117-55.6c38-23.4,73.1-49.7,108.3-79c2.9-2.9,5.9-5.9,8.8-8.8c5.9-5.9,11.7-8.8,14.6-14.6l2.9-2.9
		c5.9-5.9,14.6-14.6,20.5-20.5c17.6-17.6,32.2-35.1,43.9-49.7c8.8-11.7,17.6-23.4,26.3-35.1c0,0,0-2.9,2.9-2.9H731.4
		c0,0,79-117,99.5-158c20.5-41,29.3-58.5,26.3-87.8c-2.9-29.3-23.4-73.1-122.9-17.6l5.9-46.8c0,0,41-29.3,84.8-38
		c43.9-8.8,84.8-2.9,96.5,38c11.7,43.9,2.9,96.5-32.2,155.1c-35.1,58.5-46.8,73.1-49.7,79S828,591,845.5,591c11.7,0,46.8,0,67.3,0
		c0-2.9,2.9-2.9,2.9-2.9c2.9-2.9,2.9-8.8,5.9-11.7c20.5-38,35.1-76.1,43.9-111.2c5.9-17.6,8.8-38,11.7-55.6l2.9-26.3v-11.7
		c0-2.9,0-5.9,0-8.8c0-2.9,0-2.9,0-5.9c0-32.2-2.9-64.4-8.8-90.7C965.5,248.7,956.7,225.3,947.9,207.7z M506.1,412.5
		c-2.9,23.4-38,242.8-38,242.8h-70.2c0,0,43.9-289.6,43.9-292.6c0-5.9-2.9-8.8-8.8-8.8h-58.5l5.9-43.9h204.8l-5.9,43.9
		C512,354,512,380.3,506.1,412.5z M719.7,655.4H553l52.7-342.3H670c0,0-35.1,237-38,245.8c-2.9,20.5-5.9,46.8,26.3,46.8
		c14.6,0,64.4,0,64.4,0L719.7,655.4z"/>
</g>
</svg>
