<?xml version="1.0" encoding="utf-8"?>
<!-- Generator: Adobe Illustrator 19.1.0, SVG Export Plug-In . SVG Version: 6.00 Build 0)  -->
<svg version="1.1" id="Calque_1" xmlns="http://www.w3.org/2000/svg" xmlns:xlink="http://www.w3.org/1999/xlink" x="0px" y="0px"
	 viewBox="206 -116 1024 1024" style="enable-background:new 206 -116 1024 1024;" xml:space="preserve">
<style type="text/css">
	.st0{fill:#444444;}
	.st1{fill:#FFFFFF;}
</style>
<g>
	<rect x="188" y="-125" class="st0" width="1054" height="1039"/>
	<path class="st1" d="M797.6,181.9H590l-7.4,46.1h60.7c6.3,0,8.8,2.8,8.3,8.3c-0.5,4.9-47.2,320.6-47.2,320.6h73
		c0,0,35.2-238.5,38.8-265.4c4.3-32.6,6.1-63.8,73.7-63L797.6,181.9L797.6,181.9z"/>
	<path class="st1" d="M848.2,451.6c1.3-11.7,39.5-269.9,39.5-269.9h-68.3l-55,375h173.4l6.3-52.3c0,0-51.7-0.6-67.4-1.1
		C841.4,502.1,845.7,474.6,848.2,451.6z"/>
	<path class="st1" d="M1226.2,185.1c-1.3-8.9-2.7-17.3-4.1-25.2c-0.7-2.8-1.3-5.5-1.8-8.3c-1.1-4.9-2.2-10.1-3.6-15.1
		c-7.6-27.7-17.7-53.5-29.2-74.3c-1.6-3.4-3.4-6.4-5.2-9.4c-0.9-1.5-1.8-2.8-2.7-4.5c-0.7-1.1-1.4-2.4-2.2-3.6
		c-1.8-3-3.4-5.6-5.2-8.1c-1.6-2.3-3.2-4.5-4.9-7c-2.9-4.1-5.2-7.5-7.7-10.5l-11.2-13.6l-11.2-13.4c-2.5-3-5.4-6.2-9-9.8
		c-1.8-1.9-3.8-3.8-5.8-5.8c-2.2-2.4-4.5-4.5-7-6.8c-1.1-0.9-2-1.9-3.2-2.8c-1.1-0.9-2.2-1.9-3.6-3.2c-2.5-2.3-5-4.7-7.9-6.6
		c-18.4-15.1-41.5-29.4-66.5-41c-4.5-2.1-9-3.9-13.7-5.8L1020-90c-2.3-0.9-4.7-1.9-7.4-3c-7.4-2.7-15.1-5.3-23.2-7.9
		c-19.3-5.5-35.7-9-51.6-11.3c-1.6-0.2-3.2-0.4-4.9-0.8c-2.9-0.4-5.9-0.9-9-1.3l-21.3-2.1l-22.9-1.1h-3.6c-22,0-40.4,0.9-57.5,3
		c-41.8,4.5-85.2,14.5-128.5,29.9c-4.7,1.5-9.2,3.2-13.7,5.1l-8.3,3.2c-3.6,1.3-7,2.8-10.7,4.3c-3.2,1.5-6.5,2.8-10.1,4.3
		c-7.4,3.2-14.8,6.4-22,10c-22.6,10.6-44.8,23.2-63.4,34.3c-41.1,25.2-80.9,55-118.2,88.5c-2.9,2.8-5.9,5.6-9.2,8.6
		c-5.8,5.5-11.7,10.9-17.5,16.9l-2.2,2.3c-7.9,7.9-16,16.2-23.6,24.7c-18,19.2-34.3,39.5-47.8,56.8c-13.9,18.8-28.6,39.2-41.3,60.4
		c-4.5,7.1-8.6,14.5-12.8,21.7c-1.8,3.2-3.6,6.4-5.6,9.8c-1.8,3.4-3.6,6.8-5.4,10.4L274,285c-2.2,4.3-4.5,8.6-6.7,13.2l-7.6,15.8
		c-1.6,3.4-3.1,7-4.7,10.5c-0.7,1.9-1.6,3.8-2.3,5.5c-4,8.6-7.2,17.5-10.5,26.2l-2.3,6.2c-8.6,24.9-14.8,45.4-19.3,64.2
		c-4.7,18.3-8.3,38.2-11.5,63l-2.2,22.8l-0.9,22.1c-0.2,3.2,0,6.4,0,9.6v4.9c-0.2,16.7,0.9,34.2,3.4,55.2c1.3,8.9,2.7,17.3,4.3,25.2
		c0.7,2.8,1.3,5.5,1.8,8.3c1.1,5.3,2.2,10.1,3.6,15.1c7.6,27.7,17.7,53.5,29.2,74.2c1.6,3.4,3.4,6.4,5.4,9.6
		c0.9,1.3,1.6,2.8,2.5,4.3c0.7,1.1,1.3,2.1,2.2,3.6c1.8,3,3.4,5.6,5.2,8.1c1.6,2.3,3.2,4.5,4.9,7c2.9,4.1,5.2,7.5,7.7,10.5
		l11.2,13.6l11.5,13.2c2.5,3,5.4,6,9,9.6c1.8,1.9,3.8,3.9,5.8,6c2.2,2.4,4.5,4.5,7,6.8c1.1,0.9,2,1.9,3.2,3c1.1,0.9,2.3,2.1,3.8,3.2
		c2.3,2.3,5,4.7,7.9,6.6c18.4,15.1,41.5,29.4,66.5,41c4.5,2.1,9,3.9,13.9,5.8c2.5,0.9,5,2.1,7.7,3.2c7.4,2.7,15.1,5.3,23.2,7.9
		c19.3,5.5,35.7,9,51.6,11.3l4.9,0.8c2.9,0.4,5.9,0.9,9,1.3l21.3,2.1l22,0.9h3.4c22,0,40.4-0.9,57.7-3c42-4.5,85.2-14.5,128.5-29.9
		c4.7-1.5,9.2-3.2,13.5-5.1c0,0,6.5-2.7,8.5-3.2c3.6-1.3,7-2.7,10.7-4.1c3.2-1.5,6.7-3,10.1-4.3c7.2-3.2,14.8-6.4,22-10
		c22.7-10.5,44.7-23.2,63.4-34.2c40.9-25.2,80.7-54.8,118.1-88.3c2.9-2.7,5.6-5.3,8.5-7.9l0.7-0.8c6.1-5.6,11.7-10.9,17.7-16.9
		l2.2-2.1c7.9-8.1,16.2-16.4,23.8-24.9c18-19.2,34.3-39.5,47.7-56.8c13.9-18.6,28.5-39,41.3-60.4c4.5-7.1,8.6-14.5,12.8-21.4
		c1.8-3.2,3.6-6.4,5.6-9.8c1.8-3.4,3.6-6.8,5.4-10.4l4.3-8.5c2.2-4.3,4.5-8.6,6.7-13.4l7.4-15.6c1.6-3.6,3.1-7,4.9-10.9
		c0.7-1.7,1.4-3.4,2.2-5.1c4-8.6,7.2-17.5,10.5-26l2.3-6.4c8.8-24.9,15-45.4,19.3-64.2c4.7-18.3,8.3-38.2,11.7-63l2.2-23l1.1-22.2
		c0.2-3,0.2-6.2,0-9.6v-4.9c0.2-16.6-0.9-34.1-3.4-55.2L1226.2,185.1z M1208.2,239.9c0,1.7-0.2,3.4-0.2,5.1c0,2.8-0.2,5.8-0.4,8.6
		l-1.1,14.1l-3.4,28.8c-3.1,19-6.8,39.3-12.4,59.7c-10.3,39.2-25.9,80.4-47,122.4c-2,4.1-4.1,8.3-6.3,12.4c0,0-0.9,1.7-2.5,4.3
		c-23.1,0-56.6,0.2-67.8-0.2c-18.4-0.4-10.7-9.8-7-17.1c3.6-7.3,15.1-23.5,51-88.1c35.9-64.5,46-124,33-170.7s-57.1-49.7-100-42.4
		c-42.9,7.3-87,40.5-87,40.5l-7.6,50.5c106.5-59.7,127.6-11.3,130.3,19.4c2.7,30.7-6.3,52-27.4,96.2c-21.2,44.2-103,173.5-103,173.5
		h148.3c-0.4,0.4-0.5,0.8-0.9,1.1c-8.5,12.6-17.8,25.6-27.4,38.4c-13.2,16.7-28.8,36.1-46.3,54.6c-7.2,7.9-14.8,15.6-22.2,23
		l-2.7,2.7c-5,5.3-10.8,10.4-16.4,15.6c-3.2,3-6.7,6.2-9.7,9c-35.9,32.4-73.9,61.2-113.2,85.5c-43.4,26.4-83.4,45.9-122.4,60.2
		c-42.9,15.6-84.2,26.2-122.7,31.2c-19.8,3-39.7,3.9-58,4.3l-20.9-0.2l-20.5-1.3c-2.9-0.2-5.6-0.6-8.3-0.9l-4.7-0.6
		c-33.7-3.9-64.7-11.9-92.5-23.2c-24.3-10-46.9-22.4-65.1-36.1c-2.5-1.7-5-3.8-7.6-5.8c-1.3-1.1-2.7-2.3-3.8-3
		c-1.3-0.9-2.5-2.1-3.8-3c-2.2-1.7-4.3-3.4-6.1-5.3c-2.2-2.1-4.3-3.9-6.3-5.8c-3.4-3-6.5-5.8-8.8-8.5l-11.9-12.4l-10.3-14.1
		c-2-2.7-4.1-6.2-6.7-10.1c-1.4-2.3-2.9-4.7-4.7-7.4c-1.4-2.1-2.5-4.3-4-7c-0.7-1.5-1.6-3-2.3-4.1c-0.7-1.5-1.6-3.2-2.5-4.7
		c-1.4-2.7-3.1-5.5-4.5-8.6c-9.6-20.4-18.3-45.2-24.2-71.8c-6.8-30.3-9.7-63.4-8.8-98.8c0-1.7,0.2-3.4,0.2-5.1c0-3,0.2-5.8,0.4-8.6
		l1.6-21.1l2.9-21.7c3.1-19,6.8-39.3,12.4-59.7c10.3-39.2,25.9-80.4,46.8-122.4c15.5-31.5,34.8-62.9,58.8-96.6
		c0.2-0.2,0.2-0.4,0.4-0.6l-49.8,342.9h68.3l46.9-326h53.4c14.4,0,29,33.5,25.9,68S473,373.5,411,383.1l-6.1,45.2
		c16.4,1.9,40,18.4,65.2,55.5c25.2,37.1,37.7,67,37.7,72.8h75c-0.4-14.5-27.2-66.8-41.6-90c-14.4-23-37.5-57.6-55.7-68
		c0,0,74.4-31.6,84.2-98.3c9.7-66.6-4.3-118.8-86.5-118.8H375.4c0.5-0.6,0.7-0.9,0.7-0.9c13.7-17.1,25-30.1,36.2-42.2
		c7.2-7.9,14.8-15.6,22.2-23.2l2.5-2.7c5.2-5.3,11-10.7,16.6-15.8c3.2-3,6.7-6,9.7-9c35.9-32.4,73.9-61,113.2-85.5
		c43.4-26.4,83.4-45.9,122.4-60.2c42.9-15.6,84.2-26.2,122.7-31.2c19.8-3,39.7-3.9,58-4.3l14.1,0.2l27.2,1.3
		c2.9,0.2,5.8,0.6,8.5,0.9c1.6,0.2,3.1,0.4,4.7,0.6c33.7,3.9,64.7,11.9,92.5,23.2c24.3,10,46.7,22.4,65.1,36.1
		c2.5,1.7,4.9,3.6,7.4,5.6c1.4,1.1,2.7,2.3,4,3.2c1.3,0.9,2.3,1.9,3.8,3c2.2,1.7,4.3,3.4,6.1,5.1c2.2,2.1,4.1,3.9,6.3,5.8
		c3.4,3.2,6.5,5.8,8.8,8.5l11.7,12.4l10.3,14.1c2,2.7,4.1,6.2,6.7,10.2c1.4,2.3,2.9,4.7,4.7,7.5c1.4,2.1,2.7,4.5,4,7
		c0.7,1.5,1.4,2.8,2.2,4.1c0.7,1.5,1.6,3.2,2.5,4.7c1.4,2.7,3.1,5.5,4.5,8.9c10.3,20.5,18.9,45.4,24.9,72.1
		c6.8,30.1,9.7,63.3,8.8,98.7L1208.2,239.9z"/>
</g>
</svg>
