<?xml version="1.0" encoding="utf-8"?>
<!-- Generated by IcoMoon.io -->
<!DOCTYPE svg PUBLIC "-//W3C//DTD SVG 1.1//EN" "http://www.w3.org/Graphics/SVG/1.1/DTD/svg11.dtd">
<svg version="1.1" xmlns="http://www.w3.org/2000/svg" xmlns:xlink="http://www.w3.org/1999/xlink" width="32" height="32" viewBox="0 0 32 32">
<path fill="#444444" d="M27.733 11.625c0 0 1.796 2.776-0.295 5.324 0.282-1.912-2.044-1.88-3.187-1.184-1.146 0.699-2.164 2.21-1.384 3.535 0.46 0.784 1.57 0.758 2.336 0.546 0.474-0.132 0.898-0.407 1.258-0.738 0.243-0.224 0.885-0.786 0.911-1.128-0.057 0.761-0.129 1.492-0.355 2.173-0.157 0.477-0.39 0.929-0.743 1.349-0.819 0.973-2.002 1.583-3.264 1.714 0.444-0.415 1.315-1.157 0.838-1.879-0.387-0.583-1.932-0.050-2.515 0.026-1.332 0.17-2.738 0.261-4.023-0.202-2.088-0.752-3.363-2.595-3.848-4.703 0 0 0.49 5.388 5.388 5.388 0 0-4.082 0.686-3.886 6.041 0 0-2.613-2.874-2.613-7.413 0 0-3.724 0.555-4.77 4.376 0 0-3.102-5.094 1.143-10.385 0 0-3.079-0.265-5.008 3.517 0 0-0.566-12.448 9.583-12.104 0 0-0.915-1.307-2.615-1.307 0 0 8.059-2.22 11.672 4.703 0 0-2.255-1.217-5.764 0.111 0 0-0.901 0.432-2.131-0.096-0.916-0.391-1.845-0.518-2.598-0.537-0.961-0.023-1.636 0.13-1.636 0.13s1.495 4.303 4.345 2.745c0 0-2.451 0.487-3.659-2.419 0 0 0.309-0.125 0.94-0.106 0.654 0.020 1.65 0.189 3.003 0.802 0 0 0.696 0.441 1.711-0.040 0 0 3.947-1.799 7.083 0.749 0 0 0.868 0.736 0.393 1.208 0 0 3.005 0.49 3.691-0.196zM23.552 12.050c-1.861-1.24-4.017 0.328-4.017 0.328 3.364 0.326 4.017-0.328 4.017-0.328z"></path>
</svg>
