<?xml version="1.0" encoding="utf-8"?>
<!-- Generated by IcoMoon.io -->
<!DOCTYPE svg PUBLIC "-//W3C//DTD SVG 1.1//EN" "http://www.w3.org/Graphics/SVG/1.1/DTD/svg11.dtd">
<svg version="1.1" xmlns="http://www.w3.org/2000/svg" xmlns:xlink="http://www.w3.org/1999/xlink" width="32" height="32" viewBox="0 0 32 32">
<path fill="#444444" d="M13.083 7.751c-4.7-2.585-7.813 2.269-7.813 2.269-2.384-0.444-3.869 2.607-3.869 2.607 0.568-0.854 1.795 0.561 1.795 0.561 0.825 0.55 1.135-0.132 1.174-0.224-0.201 0.877-0.154 1.706 0.037 2.483 0.116 0.472 0.278 0.949 0.404 1.284 1.241 3.313 4.033 4.798 4.302 4.965 0.014 0.009 0.022 0.014 0.022 0.014 0.57 0.331 0.913 0.473 0.913 0.473 0.202 0.077 0.333 0.151 0.429 0.241 0.31 0.289 0.239 0.749 0.239 0.749-0.471 2.939 2.779 4.042 2.887 4.078-1.216-0.701-0.602-2.155-0.602-2.155 0.383-1.045-0.385-1.492-0.45-1.526l0.729 0.31c1.195-1.281 3.158-0.82 3.158-0.82-1.244-1.16-3.567-0.76-4.945-0.712-0.306 0.010-0.536-0.089-0.708-0.251-0.199-0.185-0.322-0.45-0.397-0.725-0.001-0.001-0.002-0.002-0.001-0.004-0.064-0.176-0.119-0.348-0.166-0.514-0.126-0.432-0.202-0.828-0.245-1.181-0.145-1.214 0.107-1.916 0.107-1.916l-0.002 0.001c-2.24-0.142-2.631-1.899-2.631-1.899 0.676 1.855 3.718 1.504 3.718 1.504-1.107-3.354-3.431-2.659-3.615-2.599 1.827-0.762 2.725 0.429 2.725 0.429-0.068-1.364 1.288-3.011 1.288-3.011-3.601 2.301-4.158-1.819-4.186-2.064 0.471 2.345 2.342 2.278 2.342 2.278 3.238-0.392 3.613-3.854 3.624-3.958l-1.394 2.087 1.131-2.777zM10.145 9.284c-0.376 0.075-0.745-0.17-0.82-0.548s0.171-0.746 0.548-0.821c0.378-0.076 0.747 0.17 0.821 0.547 0.075 0.377-0.169 0.745-0.548 0.822z"></path>
<path fill="#444444" d="M18.732 24.256c4.601 2.755 7.891-1.982 7.891-1.982 2.366 0.531 3.962-2.463 3.962-2.463-0.6 0.832-1.773-0.627-1.773-0.627-0.804-0.58-1.139 0.090-1.181 0.181 0.233-0.869 0.216-1.699 0.054-2.483-0.099-0.476-0.243-0.958-0.357-1.298-1.118-3.356-3.855-4.943-4.117-5.12-0.014-0.010-0.022-0.015-0.022-0.015-0.557-0.352-0.895-0.506-0.895-0.506-0.199-0.084-0.327-0.163-0.42-0.256-0.3-0.3-0.212-0.757-0.212-0.757 0.579-2.92-2.628-4.141-2.736-4.182 1.189 0.745 0.523 2.176 0.523 2.176-0.42 1.030 0.33 1.504 0.394 1.541l-0.717-0.337c-1.241 1.237-3.187 0.704-3.187 0.704 1.201 1.204 3.537 0.89 4.916 0.892 0.306 0.001 0.532 0.109 0.699 0.277 0.191 0.192 0.304 0.461 0.37 0.739 0 0.001 0.001 0.002 0 0.004 0.057 0.178 0.105 0.352 0.147 0.52 0.11 0.437 0.172 0.835 0.202 1.189 0.101 1.219-0.177 1.911-0.177 1.911l0.001-0.001c2.233 0.224 2.561 1.994 2.561 1.994-0.608-1.879-3.662-1.639-3.662-1.639 0.984 3.392 3.332 2.783 3.519 2.728-1.854 0.695-2.708-0.528-2.708-0.528 0.018 1.366-1.398 2.963-1.398 2.963 3.683-2.168 4.089 1.97 4.109 2.215-0.387-2.36-2.257-2.361-2.257-2.361-3.251 0.272-3.753 3.719-3.767 3.821l1.469-2.034-1.232 2.735zM21.724 22.83c0.38-0.061 0.738 0.197 0.799 0.578s-0.198 0.74-0.577 0.8c-0.381 0.062-0.74-0.198-0.801-0.577-0.062-0.38 0.197-0.739 0.579-0.801z"></path>
</svg>
