<?xml version="1.0" encoding="utf-8"?>
<!-- Generated by IcoMoon.io -->
<!DOCTYPE svg PUBLIC "-//W3C//DTD SVG 1.1//EN" "http://www.w3.org/Graphics/SVG/1.1/DTD/svg11.dtd">
<svg version="1.1" xmlns="http://www.w3.org/2000/svg" xmlns:xlink="http://www.w3.org/1999/xlink" width="32" height="32" viewBox="0 0 32 32">
<path fill="#444444" d="M16.834 4.474l0.104 1.183c2.408 1.020 2.036 5.187 2.036 5.187 0.898 0.409 1.351 0.893 1.351 0.893 0.979-5.999-3.551-7.631-3.551-7.631-3.429 4.326-7.806 5.683-7.806 5.683-1.153 6.172 2.214 6.805 2.214 6.805 2.652-2 7.797-2.245 7.797-2.245-3.635-5.386-2.146-9.875-2.146-9.875z"></path>
<path fill="#444444" d="M17.673 10.717c7.019 3.836 4.897 14.752 4.897 14.752 3.060-12.915-4.897-14.752-4.897-14.752z"></path>
<path fill="#444444" d="M17.878 11.289c5.253 4.336 4.121 15.466 4.121 15.466 2.286-12.447-4.121-15.466-4.121-15.466z"></path>
<path fill="#444444" d="M18.286 12.146c3.387 5.509 3.183 15.752 3.183 15.752 1.353-11.461-3.183-15.752-3.183-15.752z"></path>
</svg>
