<?xml version="1.0" encoding="utf-8"?>
<!-- Generated by IcoMoon.io -->
<!DOCTYPE svg PUBLIC "-//W3C//DTD SVG 1.1//EN" "http://www.w3.org/Graphics/SVG/1.1/DTD/svg11.dtd">
<svg version="1.1" xmlns="http://www.w3.org/2000/svg" xmlns:xlink="http://www.w3.org/1999/xlink" width="32" height="32" viewBox="0 0 32 32">
<path fill="#444444" d="M22.555 4.282c7.956 6.788-1.47 6.889-1.47 6.889 0.201 0.263 0.218 0.629 0.218 0.629-1.072-1.46-5.301-1.423-5.301-1.423s-4.234-0.037-5.305 1.423c0 0 0.016-0.367 0.217-0.629 0 0-9.426-0.101-1.47-6.889 0 0-7.7 2.7-6.143 8.004 0 0 1.216 2.824 6.423 2.824 0 0-0.341-0.776 0.631-2.576-0.032 0.101-0.966 3.064 0.632 4.666-0.009-0.025-0.118-0.325-0.010-0.627 0 0 0.73 0.69 1.982 1.103 1.256 0.414 1.439 0.962 1.681 1.727 0 0-0.681-0.619-1.997-0.876-1.314-0.254-1.485-1.13-1.485-1.13s-0.020 0.009-0.054 0.028c-0.152 0.087-0.587 0.378-0.944 1.090 0 0 0.365 3.091 1.168 3.894 0 0 1.703 1.15 2.093 4.614 0 0 0.825 0.933 2.579 0.933 1.751 0 2.575-0.933 2.575-0.933 0.39-3.464 2.092-4.614 2.092-4.614 0.802-0.803 1.168-3.894 1.168-3.894-0.438-0.876-0.997-1.118-0.997-1.118s-0.171 0.876-1.485 1.13c-1.314 0.256-1.994 0.876-1.994 0.876 0.243-0.765 0.425-1.314 1.679-1.727 1.252-0.413 1.983-1.103 1.983-1.103 0.107 0.302-0.002 0.601-0.011 0.627 1.599-1.603 0.664-4.566 0.632-4.666 0.973 1.8 0.631 2.576 0.631 2.576 5.207 0 6.423-2.824 6.423-2.824 1.558-5.304-6.143-8.004-6.143-8.004zM14.155 25.718c-0.243 0-0.439-0.262-0.439-0.584s0.196-0.584 0.439-0.584c0.242 0 0.438 0.262 0.438 0.584s-0.196 0.584-0.438 0.584zM17.847 24.55c0.243 0 0.438 0.262 0.438 0.584s-0.195 0.584-0.438 0.584c-0.242 0-0.438-0.262-0.438-0.584s0.196-0.584 0.438-0.584z"></path>
</svg>
