<?xml version="1.0" encoding="utf-8"?>
<!-- Generated by IcoMoon.io -->
<!DOCTYPE svg PUBLIC "-//W3C//DTD SVG 1.1//EN" "http://www.w3.org/Graphics/SVG/1.1/DTD/svg11.dtd">
<svg version="1.1" xmlns="http://www.w3.org/2000/svg" xmlns:xlink="http://www.w3.org/1999/xlink" width="32" height="32" viewBox="0 0 32 32">
<path fill="#444444" d="M28.626 17.142c-0.163-0.049-0.289-0.065-0.289-0.065 0.102 0.028 0.198 0.050 0.289 0.065z"></path>
<path fill="#444444" d="M29.837 16.897c1.036-0.946 0.032-2.101 0.032-2.101l0.367-0.891c-4.985 0.944-6.402-5.302-6.402-5.302 1.154-0.263 1.52-1.523 1.52-1.523-4.985 1.68-5.038-2.887-5.038-2.887-2.363 2.362-1.832 4.776-1.832 4.776-0.625-1.048-0.148-2.609-0.148-2.609s-7.344-1.964-10.153 7.028c-2.81 8.99-6.743 9.365-6.743 9.365 1.121 0 4.6-0.45 7.643-7.431 3.044-6.982 6.823-4.62 6.823-4.62s-5.878 6.928-2.046 13.069c3.832 6.142 11.863 3.518 11.863 3.518-5.144-4.305-3.727-8.242-3.727-8.242-6.614 1.628-6.193-4.409-6.193-4.409 0.576 5.722 6.363 3.727 6.363 3.727 4.487-0.472 4.981 1.2 4.981 1.2 0.479 1.371-1.635 1.634-1.635 1.634 1.378 0.393 2.48-0.749 2.48-0.749 0.197 1.339-0.944 1.733-0.944 1.733 3.464 0.314 3.257-2.207 2.047-2.914-1.041-0.61-0.923-1.159-0.923-1.159 0.098-0.534 1.216-0.075 1.216-0.075 0.102-0.548-0.414-0.796-0.762-0.896-0.091-0.014-0.187-0.036-0.289-0.065 0 0 0.126 0.016 0.289 0.065 0.8 0.131 1.211-0.244 1.211-0.244zM23.778 12.803c0 0-1.418 1.312-2.625-0.526 0 0 1.944-1.469 3.833 1.156l-1.208-0.63z"></path>
</svg>
