<?xml version="1.0" encoding="utf-8"?>
<!-- Generated by IcoMoon.io -->
<!DOCTYPE svg PUBLIC "-//W3C//DTD SVG 1.1//EN" "http://www.w3.org/Graphics/SVG/1.1/DTD/svg11.dtd">
<svg version="1.1" xmlns="http://www.w3.org/2000/svg" xmlns:xlink="http://www.w3.org/1999/xlink" width="32" height="32" viewBox="0 0 32 32">
<path fill="#444444" d="M12.391 10.602v-5.46c0.001-0.373-0.226-0.708-0.571-0.848-0.111-0.046-0.226-0.065-0.34-0.065-0.243 0-0.484 0.098-0.659 0.283l-8.992 9.854c-0.279 0.279-0.368 0.521-0.356 0.787-0.018 0.246 0.158 0.582 0.34 0.774l0.025 0.009-0.009 0.007 8.992 9.855c0.176 0.182 0.416 0.282 0.659 0.282 0.114 0 0.229-0.021 0.34-0.065 0.344-0.14 0.572-0.475 0.571-0.85v-5.458c17.575 0 18.176 5.962 18.197 6.373-0.021-14.601-18.197-15.478-18.197-15.478z"></path>
</svg>
