<?xml version="1.0" encoding="utf-8"?>
<!-- Generated by IcoMoon.io -->
<!DOCTYPE svg PUBLIC "-//W3C//DTD SVG 1.1//EN" "http://www.w3.org/Graphics/SVG/1.1/DTD/svg11.dtd">
<svg version="1.1" xmlns="http://www.w3.org/2000/svg" xmlns:xlink="http://www.w3.org/1999/xlink" width="32" height="32" viewBox="0 0 32 32">
<path fill="#444444" d="M23.464 11.674v-6.789c0-0.388-0.314-0.702-0.702-0.702h-0.094c-0.388 0-0.702 0.315-0.702 0.702v0.796h-11.985v-0.796c0-0.388-0.315-0.702-0.702-0.702h-0.094c-0.388 0-0.702 0.315-0.702 0.702v6.789h-4.494c0 0 0 0.314 0 0.702v0.094c0 0.388 0.315 0.703 0.702 0.703h0.796v5.29c0 0.388 0.314 0.703 0.702 0.703h2.508l5.802 3.348-6.891 3.977c-0.335 0.195-0.448 0.625-0.253 0.96l0.047 0.081c0.196 0.335 0.625 0.449 0.96 0.253l7.636-4.406 7.635 4.406c0.335 0.196 0.765 0.082 0.96-0.253l0.047-0.081c0.195-0.335 0.082-0.765-0.252-0.96l-6.892-3.977 5.802-3.348h2.46c0.388 0 0.703-0.315 0.703-0.703v-5.29h0.796c0.388 0 0.702-0.315 0.702-0.703v-0.094c0-0.388 0-0.702 0-0.702h-4.495zM21.966 11.627v3.043h-11.985v-3.043h11.985zM8.482 13.173v2.912l-1.498 1.616v-4.528h1.498zM15.997 21.649l-4.304-2.483h8.607l-4.304 2.483zM24.962 17.702c-0.32-0.332-0.921-0.949-1.498-1.542v-2.987h1.498v4.529z"></path>
</svg>
