<?xml version="1.0" encoding="utf-8"?>
<!-- Generated by IcoMoon.io -->
<!DOCTYPE svg PUBLIC "-//W3C//DTD SVG 1.1//EN" "http://www.w3.org/Graphics/SVG/1.1/DTD/svg11.dtd">
<svg version="1.1" xmlns="http://www.w3.org/2000/svg" xmlns:xlink="http://www.w3.org/1999/xlink" width="32" height="32" viewBox="0 0 32 32">
<path fill="#444444" d="M13.983 18.946c1.122 0 2.030-0.908 2.030-2.028v-7.644l6.090-0.936v5.318c-0.212-0.075-0.439-0.118-0.676-0.118-1.121 0-2.031 0.909-2.031 2.028 0 1.12 0.91 2.028 2.031 2.028s2.030-0.908 2.030-2.028c0-0.055-0.004-0.109-0.008-0.164l0.008 0.007v-11.336l-8.797 1.352v9.583c-0.212-0.075-0.439-0.118-0.677-0.118-1.121 0-2.030 0.908-2.030 2.028s0.909 2.028 2.030 2.028zM22.78 23.679c-1.121 0-2.031 0.909-2.031 2.028s0.91 2.028 2.031 2.028c1.121 0 2.030-0.908 2.030-2.028s-0.908-2.028-2.030-2.028zM22.78 26.383c-0.374 0-0.678-0.303-0.678-0.676s0.304-0.676 0.678-0.676c0.374 0 0.676 0.303 0.676 0.676s-0.303 0.676-0.676 0.676zM11.277 25.707c0 1.121 0.909 2.028 2.030 2.028s2.030-0.908 2.030-2.028c0-1.12-0.909-2.028-2.030-2.028s-2.030 0.909-2.030 2.028zM13.306 25.031c0.374 0 0.677 0.303 0.677 0.676s-0.303 0.676-0.677 0.676c-0.374 0-0.677-0.303-0.677-0.676s0.303-0.676 0.677-0.676zM24.719 23.636l0.065 0.043 2.706-9.954-1.301-0.372-2.566 8.974h-11.367l-2.616-8.789h-5.131v2.028h4.426l2.341 8.024v0.089h13.44l0.003-0.043z"></path>
</svg>
