<?xml version="1.0" encoding="utf-8"?>
<!-- Generator: Adobe Illustrator 18.0.0, SVG Export Plug-In . SVG Version: 6.00 Build 0)  -->
<svg version="1.1" id="Calque_1" xmlns="http://www.w3.org/2000/svg" xmlns:xlink="http://www.w3.org/1999/xlink" x="0px" y="0px"
	 viewBox="0 0 32 32" enable-background="new 0 0 32 32" xml:space="preserve">
<path d="M25,13.2v-4C25,4.2,20.6,0,15.5,0S6,4.2,6,9.3V13c-1,0.5-2,1.7-2,3.1v13.1c0,2,2.7,2.8,4.9,2.8h14.5c2.2,0,3.6-0.8,3.6-2.8
	V16.1C27,14.9,26,13.8,25,13.2z M15.5,3.4c3.4,0,6.5,2.7,6.5,6.1V11H9V9.5C9,6.1,12.1,3.4,15.5,3.4z M17,23.4v3.3
	c0,0.8-0.6,1.2-1.4,1.2S14,27.3,14,26.4v-2.9c-0.6-0.5-1.2-1.2-1.2-2.1c0-1.5,1.3-2.9,2.9-2.9c1.6,0,2.7,1.1,2.7,2.6
	C18.4,21.9,17.8,23.2,17,23.4z"/>
</svg>
