<?xml version="1.0" encoding="utf-8"?>
<!-- Generated by IcoMoon.io -->
<!DOCTYPE svg PUBLIC "-//W3C//DTD SVG 1.1//EN" "http://www.w3.org/Graphics/SVG/1.1/DTD/svg11.dtd">
<svg version="1.1" xmlns="http://www.w3.org/2000/svg" xmlns:xlink="http://www.w3.org/1999/xlink" width="32" height="32" viewBox="0 0 32 32">
<path fill="#444444" d="M16 4.16c-6.553 0-11.866 5.299-11.866 11.838s5.313 11.842 11.866 11.842c6.553 0 11.866-5.301 11.866-11.842s-5.313-11.838-11.866-11.838zM16 25.866c-5.452 0-9.889-4.427-9.889-9.868s4.437-9.868 9.889-9.868c5.452 0 9.888 4.428 9.888 9.868s-4.436 9.868-9.888 9.868zM19.36 15.102c-0.006-0.003-0.014-0.006-0.020-0.012l-3.998-3.816c-0.343-0.325-0.896-0.325-1.237 0l-0.31 0.295c-0.34 0.326-0.34 0.856 0 1.183l3.398 3.241-3.398 3.275c-0.34 0.324-0.34 0.852 0 1.18l0.31 0.293c0.341 0.329 0.895 0.329 1.237 0l3.998-3.847c0.007-0.005 0.014-0.007 0.020-0.012l0.309-0.295c0.171-0.163 0.256-0.377 0.254-0.593 0.002-0.214-0.083-0.431-0.254-0.593l-0.309-0.296z"></path>
</svg>
