<?xml version="1.0" encoding="utf-8"?>
<!-- Generated by IcoMoon.io -->
<!DOCTYPE svg PUBLIC "-//W3C//DTD SVG 1.1//EN" "http://www.w3.org/Graphics/SVG/1.1/DTD/svg11.dtd">
<svg version="1.1" xmlns="http://www.w3.org/2000/svg" xmlns:xlink="http://www.w3.org/1999/xlink" width="32" height="32" viewBox="0 0 32 32">
<path fill="#444444" d="M16 4.16c-6.542 0-11.84 5.298-11.84 11.84s5.298 11.84 11.84 11.84 11.84-5.298 11.84-11.84c0-6.542-5.298-11.84-11.84-11.84zM19.957 20.829c0.482 0.486 0.482 1.272 0 1.743l-0.422 0.439c-0.482 0.486-1.249 0.486-1.731 0l-5.584-5.671c-0.011-0.003-0.022-0.018-0.025-0.021l-0.436-0.439c-0.235-0.236-0.358-0.56-0.351-0.88-0.008-0.322 0.116-0.637 0.351-0.888l0.436-0.431c0.003-0.011 0.015-0.012 0.025-0.023l5.584-5.677c0.482-0.485 1.249-0.485 1.731 0l0.422 0.439c0.482 0.485 0.482 1.272 0 1.758l-4.742 4.822 4.742 4.83z"></path>
</svg>
