<?xml version="1.0" encoding="utf-8"?>
<!-- Generated by IcoMoon.io -->
<!DOCTYPE svg PUBLIC "-//W3C//DTD SVG 1.1//EN" "http://www.w3.org/Graphics/SVG/1.1/DTD/svg11.dtd">
<svg version="1.1" xmlns="http://www.w3.org/2000/svg" xmlns:xlink="http://www.w3.org/1999/xlink" width="32" height="32" viewBox="0 0 32 32">
<path fill="#444444" d="M7.137 13.36c0.568 0.055 1.304-0.23 1.632-0.704l3.892-5.535c0.278-0.402 0.049-0.561-0.501-0.561h-6.464c-0.457 0-1.057 0.125-1.348 0.484l-4.041 4.901c-0.338 0.417-0.243 0.753 0.22 0.798l6.611 0.617zM8.958 7.775c0.234-0.319 0.764-0.57 1.189-0.565 0.43 0.006 0.595 0.271 0.363 0.596-0.234 0.328-0.78 0.586-1.212 0.574-0.427-0.012-0.576-0.284-0.34-0.606zM6.817 7.731c0.237-0.309 0.749-0.553 1.15-0.549 0.406 0.005 0.548 0.263 0.313 0.579-0.237 0.318-0.764 0.569-1.172 0.557-0.403-0.012-0.531-0.275-0.292-0.587zM6.557 11.037c0.256-0.348 0.808-0.608 1.238-0.584 0.436 0.025 0.588 0.332 0.334 0.688-0.257 0.36-0.825 0.627-1.263 0.594-0.432-0.033-0.568-0.346-0.309-0.697zM4.724 7.688c0.239-0.3 0.735-0.538 1.114-0.533 0.382 0.005 0.504 0.255 0.266 0.561-0.24 0.309-0.75 0.552-1.134 0.541-0.38-0.011-0.487-0.267-0.246-0.57zM4.392 10.894c0.258-0.337 0.792-0.59 1.197-0.567 0.41 0.024 0.539 0.32 0.282 0.664-0.26 0.348-0.808 0.607-1.22 0.576-0.407-0.031-0.52-0.334-0.259-0.674zM2.282 10.754c0.26-0.327 0.775-0.572 1.157-0.55 0.386 0.022 0.493 0.308 0.234 0.642-0.261 0.337-0.792 0.588-1.178 0.559-0.383-0.029-0.475-0.321-0.213-0.651z"></path>
<path fill="#444444" d="M8.563 14.963c-0.172-0.479-0.724-0.903-1.231-0.944l-6.277-0.516c-0.473-0.039-0.7 0.306-0.511 0.768l2.338 5.694c0.175 0.425 0.686 0.823 1.143 0.877l6.051 0.708c0.487 0.057 0.756-0.261 0.598-0.7l-2.112-5.888zM3.173 16.248c-0.38-0.036-0.807-0.361-0.955-0.727-0.148-0.368 0.040-0.64 0.423-0.606 0.384 0.034 0.816 0.363 0.962 0.733 0.145 0.369-0.048 0.636-0.43 0.6zM8.646 20.178c-0.389-0.043-0.812-0.365-0.946-0.72-0.134-0.357 0.073-0.614 0.466-0.573s0.82 0.368 0.952 0.727c0.131 0.358-0.081 0.61-0.472 0.566z"></path>
<path fill="#444444" d="M13.903 7.811c-0.166-0.468-0.527-0.519-0.805-0.108l-3.7 5.466c-0.3 0.443-0.383 1.176-0.186 1.631l2.363 5.467c0.173 0.4 0.532 0.373 0.801-0.055l3.341-5.296c0.252-0.399 0.337-1.054 0.19-1.467l-2.004-5.637zM12.424 18.317c-0.219 0.343-0.508 0.355-0.648 0.025-0.14-0.333-0.073-0.886 0.149-1.231 0.222-0.343 0.512-0.347 0.648-0.012 0.135 0.332 0.068 0.876-0.15 1.218zM12.951 14.832c-0.219 0.338-0.508 0.334-0.647-0.012-0.139-0.348-0.071-0.909 0.152-1.249 0.222-0.338 0.512-0.325 0.647 0.025 0.134 0.348 0.066 0.9-0.152 1.237zM13.445 11.362c-0.219 0.333-0.509 0.312-0.646-0.049-0.138-0.364-0.069-0.934 0.154-1.268 0.223-0.333 0.512-0.304 0.646 0.062 0.133 0.363 0.064 0.924-0.155 1.255z"></path>
<path fill="#444444" d="M23.003 16.845c0.426 0.547 1.327 0.809 1.968 0.57l6.495-2.427c0.394-0.147 0.303-0.564-0.174-0.923l-4.894-3.679c-0.3-0.225-0.832-0.361-1.203-0.307l-5.735 0.839c-0.53 0.077-0.785 0.379-0.55 0.681l4.094 5.246zM27.831 13.14c0.336-0.089 0.867 0.052 1.201 0.32 0.345 0.276 0.364 0.589 0.024 0.695-0.348 0.108-0.921-0.046-1.262-0.34-0.331-0.285-0.307-0.584 0.037-0.675zM25.099 10.876c0.321-0.055 0.781 0.064 1.037 0.268 0.263 0.21 0.221 0.438-0.107 0.503-0.335 0.067-0.824-0.061-1.082-0.283-0.251-0.216-0.177-0.433 0.152-0.489zM24.52 12.326c0.371-0.078 0.887 0.058 1.172 0.312 0.291 0.26 0.234 0.553-0.144 0.647-0.388 0.097-0.945-0.054-1.228-0.331-0.276-0.268-0.178-0.547 0.201-0.627zM23.683 14.235c0.438-0.116 1.032 0.048 1.347 0.373 0.326 0.335 0.244 0.726-0.206 0.866-0.461 0.144-1.109-0.038-1.423-0.399-0.303-0.348-0.168-0.721 0.281-0.839zM21.2 11.542c0.405-0.069 0.911 0.066 1.144 0.305 0.24 0.246 0.11 0.518-0.308 0.602-0.426 0.086-0.97-0.061-1.197-0.324-0.221-0.254-0.052-0.513 0.361-0.584z"></path>
<path fill="#444444" d="M22.757 17.933l-4.062-4.89c-0.369-0.445-0.8-0.353-0.943 0.207l-1.622 6.332c-0.117 0.457 0.074 1.089 0.422 1.411l3.879 3.594c0.276 0.256 0.615 0.165 0.747-0.204l1.816-5.032c0.159-0.438 0.047-1.073-0.238-1.417zM18.295 20.288c-0.104 0.353-0.401 0.429-0.667 0.17-0.271-0.263-0.412-0.774-0.311-1.142 0.101-0.372 0.409-0.449 0.683-0.171 0.269 0.274 0.399 0.785 0.295 1.142zM19.365 16.629c-0.115 0.394-0.427 0.47-0.7 0.168-0.279-0.306-0.417-0.888-0.304-1.301 0.114-0.417 0.438-0.492 0.72-0.168 0.276 0.319 0.402 0.901 0.285 1.3zM20.903 22.88c-0.109 0.315-0.381 0.389-0.61 0.166-0.233-0.226-0.338-0.674-0.23-1.001 0.108-0.33 0.39-0.404 0.625-0.166 0.231 0.235 0.326 0.684 0.215 1.001zM22.031 19.635c-0.121 0.348-0.405 0.422-0.639 0.164-0.238-0.261-0.337-0.767-0.217-1.13 0.121-0.367 0.416-0.441 0.656-0.164 0.236 0.272 0.324 0.778 0.201 1.131z"></path>
<path fill="#444444" d="M31.348 16.060l-6.291 1.998c-0.509 0.161-1.029 0.685-1.157 1.164l-1.532 5.755c-0.112 0.421 0.186 0.622 0.663 0.454l5.904-2.087c0.445-0.157 0.918-0.618 1.058-1.034l1.92-5.667c0.159-0.47-0.092-0.734-0.565-0.584zM27.702 20.688c-0.11 0.356-0.506 0.748-0.885 0.877-0.381 0.129-0.606-0.053-0.5-0.41 0.106-0.36 0.508-0.758 0.893-0.887 0.384-0.128 0.603 0.061 0.492 0.42z"></path>
</svg>
