<?xml version="1.0" encoding="utf-8"?>
<!-- Generator: Adobe Illustrator 18.0.0, SVG Export Plug-In . SVG Version: 6.00 Build 0)  -->
<svg version="1.1" id="Calque_1" xmlns="http://www.w3.org/2000/svg" xmlns:xlink="http://www.w3.org/1999/xlink" x="0px" y="0px"
	 viewBox="0 0 32 32" enable-background="new 0 0 32 32" xml:space="preserve">
<path d="M30.5,11.6h-29c-1.5,0-1.5,0.7-1.5,1.6l1.3,14.4c0.1,0.9,0.3,1.6,1.8,1.6h25.8c1.5,0,1.7-0.7,1.8-1.6L32,13.1
	C32.1,12.3,32,11.6,30.5,11.6z M29.4,8.5c-0.2-0.7-1-1.3-1.9-1.3H16.6c-0.9,0-2.1-0.5-2.8-1.1l-1-0.9C12.3,4.5,11,4,10.1,4H4.9
	C4.1,4,3.2,4.7,3.1,5.6L2.7,9.8h27.1L29.4,8.5z"/>
</svg>
