<?xml version="1.0" encoding="utf-8"?>
<!-- Generator: Adobe Illustrator 18.0.0, SVG Export Plug-In . SVG Version: 6.00 Build 0)  -->
<svg version="1.1" id="Calque_1" xmlns="http://www.w3.org/2000/svg" xmlns:xlink="http://www.w3.org/1999/xlink" x="0px" y="0px"
	 viewBox="0 0 32 32" enable-background="new 0 0 32 32" xml:space="preserve">
<path fill-rule="evenodd" clip-rule="evenodd" d="M28,9.8c-0.1-0.7-0.5-1.3-1-1.9l-6.9-6.8c-0.6-0.6-1.3-0.9-2-1l0,0L18,0H7.7
	C5.6,0,4,1.6,4,3.7v24.8C4.1,30.4,5.7,32,7.7,32h16.6c2,0,3.7-1.6,3.7-3.7l0-18.4L28,9.8L28,9.8z M22.3,17.9c0.7,0,1.2,0.5,1.2,1.2
	c0,0.7-0.5,1.2-1.2,1.2h-2.4l-10.2,0c-0.7,0-1.2-0.5-1.2-1.2c0-0.7,0.5-1.2,1.2-1.2h9.5h2.3H22.3L22.3,17.9z M22.3,22.8
	c0.7,0,1.2,0.5,1.2,1.2c0,0.7-0.5,1.2-1.2,1.2h-3.2h-8.6H9.7c-0.7,0-1.2-0.5-1.2-1.2c0-0.7,0.5-1.2,1.2-1.2h2.4H22.3L22.3,22.8z
	 M19.1,3.5l5.3,5.3h-4c-0.7,0-1.3-0.6-1.3-1.3V3.5L19.1,3.5z M25.6,28.3c0,0.7-0.6,1.2-1.2,1.2H7.7c-0.7,0-1.2-0.6-1.2-1.2V3.7
	C6.4,3,7,2.4,7.7,2.4h9v5.1c0,2.1,1.7,3.7,3.7,3.7h5.2V28.3z"/>
</svg>
