<?xml version="1.0" encoding="utf-8"?>
<!-- Generated by IcoMoon.io -->
<!DOCTYPE svg PUBLIC "-//W3C//DTD SVG 1.1//EN" "http://www.w3.org/Graphics/SVG/1.1/DTD/svg11.dtd">
<svg version="1.1" xmlns="http://www.w3.org/2000/svg" xmlns:xlink="http://www.w3.org/1999/xlink" width="32" height="32" viewBox="0 0 32 32">
<path fill="#444444" d="M7.092 10.115l4.412 4.412 3-3.001-4.411-4.412 2.942-2.941-8.85-0.013 0.013 8.85 2.895-2.895zM24.909 21.884l-4.412-4.411-3 3 4.412 4.412-2.942 2.941 8.85 0.013-0.013-8.85-2.895 2.894zM18.989 4.196l2.896 2.896-4.412 4.411 3 3 4.412-4.41 2.942 2.941 0.012-8.85-8.851 0.013zM11.526 17.497l-4.412 4.41-2.943-2.941-0.012 8.85 8.851-0.013-2.896-2.896 4.412-4.41-3-3z"></path>
</svg>
