<?xml version="1.0" encoding="utf-8"?>
<!-- Generated by IcoMoon.io -->
<!DOCTYPE svg PUBLIC "-//W3C//DTD SVG 1.1//EN" "http://www.w3.org/Graphics/SVG/1.1/DTD/svg11.dtd">
<svg version="1.1" xmlns="http://www.w3.org/2000/svg" xmlns:xlink="http://www.w3.org/1999/xlink" width="32" height="32" viewBox="0 0 32 32">
<path fill="#444444" d="M4.4 15.231c0-0.891 0.656-1.531 1.537-1.531 0.891 0 1.547 0.64 1.547 1.531v3.21h0.368v-3.21c0-0.891 0.632-1.531 1.514-1.531 0.892 0 1.524 0.64 1.524 1.531v3.21h0.368v-3.21c0-1.095-0.794-1.899-1.899-1.899-0.804 0-1.424 0.436-1.686 1.105-0.281-0.669-0.93-1.105-1.744-1.105-0.678 0-1.208 0.31-1.531 0.804v-0.666h-0.368v4.971h0.368v-3.21z"></path>
<path fill="#444444" d="M14.73 18.554c1.173 0 1.977-0.573 2.326-1.677h-0.378c-0.242 0.69-0.775 1.323-1.948 1.323-1.211 0-2.18-0.954-2.19-2.243h4.622c0.019-1.289-0.998-2.62-2.49-2.62-1.376 0-2.49 1.175-2.49 2.628s1.124 2.589 2.548 2.589zM14.672 13.698c1.047 0 1.928 0.831 2.103 1.89h-4.196c0.165-1.059 1.037-1.89 2.093-1.89z"></path>
<path fill="#444444" d="M18.486 15.435c0-1.008 0.772-1.754 1.779-1.754 1.095 0 1.673 0.659 1.673 1.754v3.007h0.368v-3.007c0-1.298-0.748-2.103-2.027-2.103-0.794 0-1.425 0.378-1.794 0.969v-0.831h-0.368v4.971h0.368v-3.007z"></path>
<path fill="#444444" d="M25.634 18.564c0.785 0 1.414-0.359 1.736-0.94v0.817h0.368v-4.971h-0.368v3.002c0 1.008-0.713 1.734-1.731 1.734-0.998 0-1.721-0.727-1.721-1.734v-3.002h-0.368v3.002c0 1.211 0.873 2.093 2.085 2.093z"></path>
<path fill="#444444" d="M0.718 11.399v9.16h30.564v-9.16h-30.564zM30.776 20.052h-29.597v-8.101h29.597v8.101z"></path>
</svg>
