<?xml version="1.0" encoding="utf-8"?>
<!-- Generated by IcoMoon.io -->
<!DOCTYPE svg PUBLIC "-//W3C//DTD SVG 1.1//EN" "http://www.w3.org/Graphics/SVG/1.1/DTD/svg11.dtd">
<svg version="1.1" xmlns="http://www.w3.org/2000/svg" xmlns:xlink="http://www.w3.org/1999/xlink" width="32" height="32" viewBox="0 0 32 32">
<path fill="#444444" d="M24.888 8.675h-2.222c-0.41 0-0.741 0.33-0.741 0.739v1.48c0 0.409 0.331 0.74 0.741 0.74h2.222v8.888h-5.926v-3.702c0-0.301-0.181-0.571-0.457-0.684-0.090-0.039-0.188-0.058-0.283-0.058-0.193 0-0.382 0.076-0.524 0.218l-5.185 5.183c-0.289 0.289-0.289 0.759 0 1.049l2.963 2.96 2.222 2.225c0.142 0.14 0.331 0.217 0.524 0.217 0.095 0 0.193-0.020 0.283-0.057 0.277-0.114 0.457-0.386 0.457-0.684v-3.704h5.926c1.638 0 2.963-1.325 2.963-2.96v-8.89c-0-1.636-1.325-2.961-2.963-2.961zM9.333 20.525h-2.222v-8.89h5.925v3.705c0 0.3 0.181 0.569 0.458 0.684 0.091 0.038 0.188 0.055 0.283 0.055 0.194 0 0.382-0.075 0.524-0.216l5.185-5.187c0.289-0.288 0.289-0.758 0-1.046l-5.185-5.186c-0.142-0.142-0.33-0.217-0.524-0.217-0.096 0-0.192 0.017-0.283 0.056-0.276 0.114-0.458 0.386-0.458 0.684v3.705h-5.925c-1.636 0-2.963 1.325-2.963 2.961v8.89c0 1.635 1.326 2.963 2.963 2.963h2.222c0.41 0 0.741-0.331 0.741-0.743v-1.48c-0-0.41-0.331-0.741-0.741-0.741z"></path>
</svg>
