<?xml version="1.0" encoding="utf-8"?>
<!-- Generated by IcoMoon.io -->
<!DOCTYPE svg PUBLIC "-//W3C//DTD SVG 1.1//EN" "http://www.w3.org/Graphics/SVG/1.1/DTD/svg11.dtd">
<svg version="1.1" xmlns="http://www.w3.org/2000/svg" xmlns:xlink="http://www.w3.org/1999/xlink" width="32" height="32" viewBox="0 0 32 32">
<path fill="#444444" d="M27.773 25.329c-0.377-3.649-1.495-7.039-3.456-10.139-2.973-4.701-7.073-7.994-12.314-9.865-2.106-0.752-4.272-1.090-6.505-1.208-0.092-0.005-0.175 0.042-0.266 0.042-0.355 0-0.805 0-1.071 0 0 0.96 0 2.813 0 4.3 4.787 0.033 8.73 1.478 12.29 4.413 3.512 2.896 5.724 6.618 6.666 11.073 0.27 1.276 0.391 2.773 0.391 3.893 1.487 0 3.14 0 4.334 0 0-0.32 0-0.718 0-1.059 0-0.484-0.018-0.968-0.067-1.452z"></path>
<path fill="#444444" d="M4.187 12.745c6.512 0 12.029 4.124 14.136 9.859 0.617 1.678 0.92 3.412 0.923 5.2-1.506 0-3.012 0-4.518 0-0.029-0.437-0.038-0.877-0.090-1.312-0.247-2.053-1.035-3.883-2.376-5.453-2.114-2.476-4.818-3.726-8.075-3.776-0-1.506-0-3.012-0-4.518z"></path>
<path fill="#444444" d="M4.187 24.416c0.035-0.143 0.068-0.287 0.107-0.428 0.351-1.279 1.544-2.198 2.862-2.205 1.375-0.007 2.551 0.863 2.934 2.171 0.379 1.291-0.141 2.69-1.305 3.379-0.368 0.217-0.804 0.318-1.21 0.473-0.251 0-0.502 0-0.753 0-0.043-0.015-0.085-0.035-0.129-0.044-1.222-0.252-2.021-0.974-2.398-2.163-0.044-0.14-0.072-0.285-0.109-0.428 0-0.251 0-0.502 0-0.753z"></path>
</svg>
