<?xml version="1.0" encoding="utf-8"?>
<!-- Generated by IcoMoon.io -->
<!DOCTYPE svg PUBLIC "-//W3C//DTD SVG 1.1//EN" "http://www.w3.org/Graphics/SVG/1.1/DTD/svg11.dtd">
<svg version="1.1" xmlns="http://www.w3.org/2000/svg" xmlns:xlink="http://www.w3.org/1999/xlink" width="32" height="32" viewBox="0 0 32 32">
<path fill="#444444" d="M16.566 4.276c-0.183-0.071-0.375-0.11-0.566-0.11-0.384 0-0.763 0.149-1.045 0.43l-5.612 5.484h-3.699c-0.817 0-1.48 0.662-1.48 1.48v8.875c0 0.82 0.662 1.479 1.48 1.479h3.726l5.585 5.488c0.283 0.279 0.661 0.432 1.045 0.432 0.191 0 0.383-0.041 0.566-0.114 0.552-0.228 0.913-0.77 0.913-1.366v-20.711c0-0.601-0.361-1.138-0.913-1.367zM20.722 11.092l-1.949 1.945c0.797 0.67 1.336 1.73 1.336 2.961s-0.531 2.296-1.329 2.968l1.974 1.972c1.165-1.214 1.903-2.977 1.903-4.94-0-1.967-0.765-3.692-1.936-4.906zM24.481 7.329l-2.088 2.090c1.517 1.618 2.483 3.957 2.483 6.58 0 2.627-0.966 4.959-2.482 6.583l2.086 2.084c2.053-2.155 3.355-5.226 3.355-8.667s-1.301-6.512-3.355-8.669z"></path>
</svg>
