<?xml version="1.0" encoding="utf-8"?>
<!-- Generated by IcoMoon.io -->
<!DOCTYPE svg PUBLIC "-//W3C//DTD SVG 1.1//EN" "http://www.w3.org/Graphics/SVG/1.1/DTD/svg11.dtd">
<svg version="1.1" xmlns="http://www.w3.org/2000/svg" xmlns:xlink="http://www.w3.org/1999/xlink" width="32" height="32" viewBox="0 0 32 32">
<path fill="#444444" d="M26.13 13.46c-2.116 0-3.876 0-5.732 0 0-4.285 0-8.458 0-12.721-3.163 0-6.131 0-9.24 0 0 4.282 0 8.492 0 12.839-1.887 0-3.635 0-5.598 0 3.496 4.171 6.831 8.15 10.243 12.221 3.384-4.043 6.754-8.070 10.326-12.338z"></path>
<path fill="#444444" d="M28.408 27.228c-8.344 0-16.575 0-25.028 0 0-2.145 0-4.133 0-6.124-1.166 0-2.203 0-3.22 0 0 3.206 0 6.309 0 9.439 10.579 0 21.080 0 31.604 0 0-3.213 0-6.347 0-9.445-1.152 0-2.199 0-3.356 0 0 2.083 0 4.073 0 6.13z"></path>
</svg>
