<?xml version="1.0" encoding="utf-8"?>
<!-- Generated by IcoMoon.io -->
<!DOCTYPE svg PUBLIC "-//W3C//DTD SVG 1.1//EN" "http://www.w3.org/Graphics/SVG/1.1/DTD/svg11.dtd">
<svg version="1.1" xmlns="http://www.w3.org/2000/svg" xmlns:xlink="http://www.w3.org/1999/xlink" width="32" height="32" viewBox="0 0 32 32">
<path fill="#444444" d="M0.32 15.994c0.082-8.825 7.125-15.848 15.822-15.773 8.612 0.073 15.623 7.229 15.538 15.859-0.087 8.747-7.137 15.769-15.742 15.699-8.671-0.071-15.574-7.079-15.618-15.784zM11.633 9.296c-0.347 0.207-0.647 0.407-0.968 0.563-0.095 0.046-0.33 0.009-0.366-0.061-0.219-0.425-0.631-0.43-1.009-0.515-0.344-0.077-0.535-0.040-0.568 0.417-0.058 0.851-0.421 1.079-1.276 0.931-0.218-0.038-0.432-0.1-0.651-0.122-0.113-0.012-0.311 0.008-0.334 0.068-0.144 0.369-0.279 0.747-0.357 1.134-0.041 0.206 0.070 0.439 0.051 0.655-0.017 0.187-0.087 0.394-0.204 0.534-0.038 0.047-0.348-0.043-0.437-0.151-0.107-0.129-0.183-0.36-0.146-0.518 0.16-0.702 0.16-0.734-0.496-1.045-0.123-0.058-0.244-0.118-0.394-0.191-0.165 0.33-0.322 0.62-0.458 0.919-0.408 0.903-0.249 1.48 0.475 2.172 0.207 0.198 0.379 0.579 0.347 0.851-0.068 0.582 0.323 0.921 0.589 1.29 0.155 0.214 0.207 0.333 0.127 0.555-0.040 0.111-0.044 0.236-0.076 0.423 0.38-0.137 0.691-0.29 1.020-0.353 0.202-0.039 0.432 0.050 0.645 0.1 0.211 0.048 0.428 0.195 0.622 0.164 0.84-0.132 0.828-0.144 1.31 0.579 0.153 0.229 0.376 0.591 0.561 0.588 0.684-0.013 0.962 0.494 1.306 0.893 0.551 0.638 1.179 1.13 1.988 1.389 0.314 0.101 0.646 0.2 0.914 0.38 0.383 0.259 0.744 0.565 1.058 0.904 0.24 0.259 0.207 0.572-0.076 0.839-0.333 0.315-0.646 0.649-0.968 0.974-0.294 0.295-0.397 0.577-0.056 0.935 0.259 0.27 0.177 0.547-0.193 0.628-0.279 0.061-0.587-0.028-0.881-0.019-0.174 0.006-0.445 0.016-0.502 0.119-0.457 0.827-0.924 1.656-0.781 2.67 0.040 0.28 0.144 0.392 0.407 0.477 3.045 0.987 6.057 0.899 9.028-0.28 1.479-0.587 2.802-1.43 4.037-2.608-0.234-0.188-0.415-0.417-0.65-0.506-0.627-0.237-0.665-0.33-0.483-1.002 0.197-0.727 0.368-1.467 0.471-2.212 0.12-0.86 0.057-0.929-0.768-1.172-0.402-0.118-0.526-0.334-0.465-0.728 0.054-0.347 0.067-0.7 0.097-1.051-0.043-0.031-0.087-0.063-0.13-0.094-0.353 0.214-0.696 0.448-1.063 0.636-0.457 0.236-0.917 0.501-1.408 0.624-0.275 0.069-0.82-0.040-0.889-0.212-0.207-0.51-0.652-0.59-1.025-0.827-0.252-0.16-0.504-0.384-0.644-0.641-0.362-0.666-0.404-1.404-0.412-2.157-0.004-0.46 0.118-0.774 0.526-0.937 0.696-0.278 0.998-0.719 0.706-1.463-0.022-0.057-0.049-0.151-0.022-0.183 0.344-0.405 0.632-1 1.068-1.148 0.448-0.151 0.797-0.322 1.136-0.632 0.211-0.193 0.498-0.334 0.775-0.416 0.988-0.292 1.499-0.354 1.773 0.941 0.027 0.124 0.263 0.315 0.363 0.293 0.588-0.127 1.245-0.166 1.53-0.853 0.109-0.262 0.29-0.292 0.572-0.244 0.466 0.080 0.947 0.073 1.501 0.106-0.286-0.78-0.579-1.445-0.771-2.138-0.211-0.761-0.539-1.316-1.429-1.306-0.119 0.001-0.239-0.1-0.36-0.105-0.323-0.014-0.666-0.066-0.97 0.013-0.615 0.16-0.765 0.784-0.316 1.221 0.225 0.219 0.491 0.395 0.803 0.641-0.401 0.375-0.676 0.633-0.952 0.892 0.068-0.694-0.375-1.594-0.875-1.644-0.406-0.040-0.818-0.027-1.227-0.033s-0.627 0.165-0.541 0.602c0.068 0.343-0.054 0.58-0.318 0.819-0.287 0.259-0.514 0.59-0.738 0.91-0.094 0.135-0.115 0.321-0.217 0.631-0.23-0.329-0.477-0.525-0.479-0.724-0.003-0.279-0.128-0.353-0.321-0.438-0.533-0.237-0.632-0.752-0.228-1.184 0.369-0.395 0.805-0.639 1.478-0.483-0.123-0.271-0.175-0.428-0.261-0.566-0.329-0.532-0.235-0.749 0.38-0.734 0.336 0.009 0.452-0.131 0.508-0.411 0.037-0.186 0.099-0.368 0.121-0.554 0.057-0.494 0.349-0.687 0.821-0.744 0.339-0.041 0.672-0.156 0.999-0.265 0.383-0.128 0.391-0.376 0.221-0.709-0.283-0.559-0.763-0.557-1.286-0.543-0.965 0.026-0.966 0.010-1.035 0.982-0.067 0.929-0.791 1.564-1.702 1.492-0.707-0.056-0.868-0.263-0.58-0.903 0.296-0.654 0.368-1.288 0.156-1.973-0.046-0.149-0.007-0.432 0.094-0.499 0.308-0.204 0.33-0.464 0.309-0.794-1.698-0.355-3.379-0.414-5.132-0.072 0.208 0.073 0.352 0.123 0.519 0.181-0.030 0.286-0.067 0.55-0.083 0.816-0.028 0.488-0.244 0.747-0.767 0.743-0.635-0.006-1.141 0.321-1.612 0.71s-0.449 0.471-0.119 0.97c0.165 0.251 0.24 0.59 0.266 0.896 0.023 0.266-0.081 0.542-0.132 0.833-0.196 0.061-0.443 0.139-0.758 0.238 0.249 0.3 0.444 0.536 0.68 0.82zM7.232 25.834c0.116-0.321 0.17-0.485 0.235-0.646 0.424-1.059 0.343-1.335-0.567-2.044-0.655-0.511-1.091-1.165-1.269-1.989-0.028-0.131-0.136-0.273-0.247-0.352-0.644-0.459-0.662-0.515-0.092-1.041 0.296-0.274 0.495-0.59 0.251-0.949-0.269-0.397-0.277-0.81-0.285-1.253-0.004-0.197-0.142-0.391-0.205-0.59-0.067-0.215-0.112-0.438-0.173-0.655-0.057-0.201-0.064-0.517-0.191-0.578-0.399-0.192-0.511-0.498-0.599-0.888-0.092-0.412-0.462-0.404-0.804-0.399-0.364 0.004-0.276 0.286-0.291 0.48-0.235 3.203 0.554 6.131 2.418 8.746 0.524 0.736 1.166 1.388 1.82 2.157z"></path>
</svg>
