<?xml version="1.0" encoding="utf-8"?>
<!-- Generator: Adobe Illustrator 19.2.1, SVG Export Plug-In . SVG Version: 6.00 Build 0)  -->
<svg version="1.1" id="Calque_1" xmlns="http://www.w3.org/2000/svg" xmlns:xlink="http://www.w3.org/1999/xlink" x="0px" y="0px"
	 viewBox="0 0 1024 1024" enable-background="new 0 0 1024 1024" xml:space="preserve">
<path fill="#444444" d="M384,324.1v-192c0-13.1-7.9-24.9-20.1-29.8c-3.9-1.6-7.9-2.3-12-2.3c-8.5,0-17,3.4-23.2,10L12.6,456.5
	C2.8,466.3-0.4,474.8,0,484.2c-0.6,8.7,5.6,20.5,12,27.2l0.9,0.3l-0.3,0.2l316.2,346.6c6.2,6.4,14.6,9.9,23.2,9.9
	c4,0,8.1-0.7,12-2.3c12.1-4.9,20.1-16.7,20.1-29.9v-192c618.1,0,639.2,209.7,640,224.1C1023.3,355,384,324.1,384,324.1z"/>
</svg>
