<?xml version="1.0" encoding="utf-8"?>
<!-- Generator: Adobe Illustrator 19.2.1, SVG Export Plug-In . SVG Version: 6.00 Build 0)  -->
<svg version="1.1" id="Calque_1" xmlns="http://www.w3.org/2000/svg" xmlns:xlink="http://www.w3.org/1999/xlink" x="0px" y="0px"
	 viewBox="0 0 1024 1024" enable-background="new 0 0 1024 1024" xml:space="preserve">
<path fill="#444444" d="M511.9,0C229.1,0,0,229.2,0,512s229.1,512,511.9,512c282.9,0,512.1-229.2,512.1-512S794.8,0,511.9,0z
	 M511.9,938.7C276.7,938.7,85.2,747.2,85.2,512S276.7,85.3,511.9,85.3c235.3,0,426.7,191.4,426.7,426.7S747.2,938.7,511.9,938.7z
	 M550.6,367.9c-0.2-0.3-0.3-0.6-0.5-0.9l-12.8-13.3c-7-7.4-16.3-11-25.6-11c-9.3-0.1-18.6,3.6-25.6,11l-12.8,13.3
	c-0.1,0.3-0.3,0.6-0.5,0.9l-165,172.5c-14.1,14.8-14.1,38.7,0,53.4l12.8,13.4c14.1,14.7,37,14.7,51.2,0l140.2-146.6l141.6,146.6
	c14,14.7,36.8,14.7,51,0l12.7-13.4c14.2-14.8,14.2-38.6,0-53.4L550.7,367.9H550.6z"/>
</svg>
