<?xml version="1.0" encoding="utf-8"?>
<!-- Generator: Adobe Illustrator 19.2.1, SVG Export Plug-In . SVG Version: 6.00 Build 0)  -->
<svg version="1.1" id="Calque_1" xmlns="http://www.w3.org/2000/svg" xmlns:xlink="http://www.w3.org/1999/xlink" x="0px" y="0px"
	 viewBox="0 0 1024 1024" enable-background="new 0 0 1024 1024" xml:space="preserve">
<path fill="#444444" d="M512,0C229.1,0,0,229.1,0,512s229.1,512,512,512s512-229.1,512-512S794.9,0,512,0z M683.1,720.8
	c20.8,21,20.8,55,0,75.4l-18.2,19c-20.8,21-54,21-74.9,0L348.5,569.9c-0.5-0.1-1-0.8-1.1-0.9l-18.9-19
	c-10.2-10.2-15.5-24.2-15.2-38.1c-0.3-13.9,5-27.5,15.2-38.4l18.9-18.6c0.1-0.5,0.6-0.5,1.1-1L590,208.5c20.8-21,54-21,74.9,0
	l18.2,19c20.8,21,20.8,55,0,76L478.1,512L683.1,720.8L683.1,720.8z"/>
</svg>
