<?xml version="1.0" encoding="utf-8"?>
<!-- Generator: Adobe Illustrator 19.2.1, SVG Export Plug-In . SVG Version: 6.00 Build 0)  -->
<svg version="1.1" id="Calque_1" xmlns="http://www.w3.org/2000/svg" xmlns:xlink="http://www.w3.org/1999/xlink" x="0px" y="0px"
	 viewBox="0 0 1024 1024" enable-background="new 0 0 1024 1024" xml:space="preserve">
<path fill="#444444" d="M512,0C229.2,0,0,229.1,0,511.9S229.2,1024,512,1024s512-229.2,512-512.1S794.8,0,512,0z M512,938.6
	c-235.2,0-426.7-191.4-426.7-426.7S276.8,85.2,512,85.2s426.7,191.5,426.7,426.7S747.2,938.6,512,938.6z M657,473.2
	c-0.3-0.1-0.6-0.3-0.9-0.5l-172.5-165c-14.8-14.1-38.7-14.1-53.4,0l-13.4,12.8c-14.7,14.1-14.7,37,0,51.2l146.6,140.2L416.9,653.3
	c-14.7,14-14.7,36.8,0,51l13.4,12.7c14.7,14.2,38.6,14.2,53.4,0l172.5-166.4c0.3-0.2,0.6-0.3,0.9-0.5l13.3-12.8
	c7.4-7,11-16.3,11-25.6c0.1-9.3-3.6-18.6-11-25.6L657,473.3L657,473.2z"/>
</svg>
