<?xml version="1.0" encoding="utf-8"?>
<!-- Generator: Adobe Illustrator 19.2.1, SVG Export Plug-In . SVG Version: 6.00 Build 0)  -->
<svg version="1.1" id="Calque_1" xmlns="http://www.w3.org/2000/svg" xmlns:xlink="http://www.w3.org/1999/xlink" x="0px" y="0px"
	 viewBox="0 0 1024 1024" enable-background="new 0 0 1024 1024" xml:space="preserve">
<path fill="#444444" d="M511.9,1026.2c282.9,0,512.1-229.8,512.1-513.1S794.8,0,511.9,0C229.1,0,0,229.8,0,513.1
	S229.1,1026.2,511.9,1026.2z M511.9,940.7c-235.2,0-426.7-191.8-426.7-427.6S276.7,85.5,511.9,85.5c235.3,0,426.7,191.9,426.7,427.6
	S747.2,940.7,511.9,940.7z M486,671.8c7,7.4,16.4,11.1,25.6,11c9.3,0.1,18.6-3.6,25.6-11l12.8-13.4c0.2-0.3,0.3-0.6,0.5-0.9
	l166.4-172.9c14.2-14.8,14.2-38.7,0-53.5l-12.7-13.4c-14.1-14.7-37-14.7-51,0L511.6,564.7L371.4,417.8c-14.1-14.7-37.1-14.7-51.2,0
	l-12.8,13.4c-14.1,14.8-14.1,38.7,0,53.5l165,172.9c0.3,0.3,0.4,0.6,0.5,0.9l12.8,13.4L486,671.8z"/>
</svg>
