<?xml version="1.0" encoding="utf-8"?>
<!-- Generator: Adobe Illustrator 19.2.1, SVG Export Plug-In . SVG Version: 6.00 Build 0)  -->
<svg version="1.1" id="Calque_1" xmlns="http://www.w3.org/2000/svg" xmlns:xlink="http://www.w3.org/1999/xlink" x="0px" y="0px"
	 viewBox="0 0 1024 1024" enable-background="new 0 0 1024 1024" xml:space="preserve">
<path fill="#444444" d="M0,511.9C0,794.8,229.2,1024,512,1024s512-229.2,512-512.1C1024,229.1,794.8,0,512,0S0,229.1,0,511.9z
	 M85.3,511.9C85.3,276.7,276.8,85.2,512,85.2s426.7,191.5,426.7,426.7c0,235.3-191.4,426.7-426.7,426.7S85.3,747.2,85.3,511.9z
	 M353.7,486c-7.4,7-11,16.4-11,25.6c-0.1,9.3,3.6,18.6,11,25.6L367,550c0.3,0.2,0.6,0.3,0.9,0.5l172.5,166.4
	c14.8,14.2,38.7,14.2,53.4,0l13.4-12.7c14.7-14.1,14.7-37,0-51L460.5,511.6l146.6-140.2c14.7-14.1,14.7-37.1,0-51.2l-13.4-12.8
	c-14.8-14.1-38.6-14.1-53.4,0l-172.5,165c-0.3,0.3-0.6,0.4-0.9,0.5l-13.3,12.8V486z"/>
</svg>
