<?xml version="1.0" encoding="utf-8"?>
<!-- Generated by IcoMoon.io -->
<!DOCTYPE svg PUBLIC "-//W3C//DTD SVG 1.1//EN" "http://www.w3.org/Graphics/SVG/1.1/DTD/svg11.dtd">
<svg version="1.1" xmlns="http://www.w3.org/2000/svg" xmlns:xlink="http://www.w3.org/1999/xlink" width="32" height="32" viewBox="0 0 32 32">
<path fill="#444444" d="M4.16 16c0 6.542 5.298 11.84 11.84 11.84s11.84-5.298 11.84-11.84c0-6.542-5.298-11.84-11.84-11.84s-11.84 5.298-11.84 11.84zM16.784 15.999l-4.741-4.822c-0.482-0.486-0.482-1.272 0-1.758l0.422-0.439c0.482-0.485 1.249-0.485 1.731 0l5.584 5.677c0.010 0.011 0.022 0.012 0.025 0.023l0.436 0.431c0.235 0.25 0.358 0.566 0.351 0.888 0.008 0.32-0.116 0.644-0.351 0.88l-0.436 0.439c-0.003 0.003-0.015 0.018-0.025 0.021l-5.584 5.671c-0.482 0.486-1.249 0.486-1.731 0l-0.422-0.439c-0.482-0.471-0.482-1.257 0-1.743l4.741-4.829z"></path>
</svg>
