<?xml version="1.0" encoding="utf-8"?>
<!-- Generator: Adobe Illustrator 19.2.1, SVG Export Plug-In . SVG Version: 6.00 Build 0)  -->
<svg version="1.1" id="Calque_1" xmlns="http://www.w3.org/2000/svg" xmlns:xlink="http://www.w3.org/1999/xlink" x="0px" y="0px"
	 viewBox="0 0 1024 1024" style="enable-background:new 0 0 1024 1024;" xml:space="preserve">
<style type="text/css">
	.st0{fill:#444444;}
</style>
<path class="st0" d="M512,554.7L177.5,239.4c-33.7-31.7-88.2-31.7-121.8,0l-30.5,28.7c-33.7,31.7-33.7,83.1,0,114.8L419,754.1
	c0.6,0.6,0.7,1.4,1.2,1.9l30.4,28.7c17,16,39.2,23.8,61.3,23.8c22.1,0.1,44.3-7.8,61.3-23.8l30.3-28.7c0.7-0.6,0.9-1.3,1.6-1.9
	l393.8-371.2c33.5-31.7,33.5-83.1,0-114.8l-30.4-28.7c-33.7-31.7-88.1-31.7-121.9,0L512,554.7L512,554.7z"/>
</svg>
