<?xml version="1.0" encoding="utf-8"?>
<!-- Generator: Adobe Illustrator 19.2.1, SVG Export Plug-In . SVG Version: 6.00 Build 0)  -->
<svg version="1.1" id="Calque_1" xmlns="http://www.w3.org/2000/svg" xmlns:xlink="http://www.w3.org/1999/xlink" x="0px" y="0px"
	 viewBox="0 0 1024 1024" enable-background="new 0 0 1024 1024" xml:space="preserve">
<path fill="#444444" d="M790.1,177.5c31.7-33.8,31.7-88.3,0-121.9l-28.7-30.4c-31.7-33.5-83.1-33.5-114.8,0L275.3,418.8
	c-0.6,0.6-1.4,0.9-1.9,1.6l-28.7,30.3c-16,17-23.8,39.2-23.8,61.3c-0.1,22.1,7.8,44.3,23.8,61.3l28.7,30.4c0.6,0.5,1.3,0.7,1.9,1.2
	l371.2,393.8c31.7,33.7,83.1,33.7,114.8,0l28.7-30.5c31.7-33.6,31.7-88.1,0-121.8L474.7,512L790.1,177.5L790.1,177.5z"/>
</svg>
