<?xml version="1.0" encoding="utf-8"?>
<!-- Generator: Adobe Illustrator 19.2.1, SVG Export Plug-In . SVG Version: 6.00 Build 0)  -->
<svg version="1.1" id="Calque_1" xmlns="http://www.w3.org/2000/svg" xmlns:xlink="http://www.w3.org/1999/xlink" x="0px" y="0px"
	 viewBox="0 0 1024 1024" enable-background="new 0 0 1024 1024" xml:space="preserve">
<path fill="#444444" d="M0,512c0,282.9,229.1,512,512,512s512-229.1,512-512S794.9,0,512,0S0,229.1,0,512z M545.9,512l-205-208.5
	c-20.8-21-20.8-55,0-76l18.2-19c20.8-21,54-21,74.9,0l241.5,245.5c0.4,0.5,1,0.5,1.1,1l18.9,18.6c10.2,10.8,15.5,24.5,15.2,38.4
	c0.3,13.8-5,27.8-15.2,38.1l-18.9,19c-0.1,0.1-0.6,0.8-1.1,0.9L434,815.1c-20.8,21-54,21-74.9,0l-18.2-19
	c-20.8-20.4-20.8-54.4,0-75.4C340.9,720.8,545.9,512,545.9,512z"/>
</svg>
