<svg id="Layer_1" data-name="Layer 1" xmlns="http://www.w3.org/2000/svg" viewBox="0 0 1018.73 598.6"><title>betting</title><path d="M1021.36,241.53l-.86-8.43-20.82-42,.34-.1-.25-.93L958.2,126.68h0L955.59,112l1.31-3.28-2.42-5.5,0-.56-1.85-1.88v0l-4-3.28,0,.13-6.09-2.09-3.52.6-1.32-.47L909.26,72.07,918.51,84l-18.18-7.64,9.75,12.43-3.35.59L907,89l-4.27,5.31,0,.67-.62,1.23-3.86,1.18-4.78-4.86-27.94-4.4,17.16,10.12-4,7.29,5.26-4,.36,5-1.13,1.24-1.82.71-2.71-.15-3.1-1.42-2.43-2.17-.52-7.18-1.21.72-6.51,14.27-8.28.91-.58-.86,6.07-19.31-3.16.57.16-.11L856,95.65l-2.59,3.4-1.94,6.67.59,7.41L851,114.22l-12.7-3-.68-.37-15.77-.94,4.72.24h0l8,1.62,2.65,4.37-.47.07-10.4-2,5.38,2.6-16-1.91,14,4.39-.28,2.26-2.52-1.1-2.59-.26,4.65,4.71-.27.81-.5.62-.64.42-1.27.19-1.85-1,.23.2-.33-.26.09.06-.09-.06L823,124.35l-1.48-6.65-1.44,8.5-13.22-3.82L801,123.59h0l-.22.14,14,12.74-3.15.2L791,127.08l-19.67-3.42,23,7.2.89,2.23-10.4-4.41h0l-.2-.11,11.6,8.63.91,2.24-41.16-16.77,31.2,13.67L786,140l-6.31-4.53h0l-29.4-8.68,6.1-38.22,2.83-1.29-2.83.85,0-1,2.22-1,5.31.14.37-1,.23.73,5.45,4.2,0-.1.18,0,7.09,5.41h0l.51.39L785,88.09l2.13-.82.56-1.77,2.64-.71,3-3.41,4,3L802.5,71l.53.19,8.13-9.78-.08-.21,20.54,6.57,1.19-1.27-14.54-15.2-8.48-35.65.27.16L805.88,12,787.24,2.63l-37,19.68-1.12,2.43,0,0-3.33,10.43.11.07-.15,1.85-.09,0,.9,4.55-18.62-4.52-48,4.2-.22-.12-18.17,6-.24.43-12.77,4.64-.35-.2-29.67,7.84-.74.8,0,0-.18.33-1.4,1.46-.21,0-2.82-.73h0l-2.41-.67-13.25,9.39L588,73l-6.13,5-9.74,2-2,7.68,4.7,3.07-.32.3-3.06-2.25,1.29,4-11.41,13.5-.5,41.86,1.59.9v0l39.7,28.08,35.28,10.74-64,20.79-71.94-45.51-1.14.3h0l-.72.78,3.4,35.47-35.37-6.76L464,194.28l-.1,0v-.05l-83.14-3.76-115.39,44-149.41,3L78.78,222.7l.19-.81-.5.33-.3,12.43.91,2.46,10.41,7.28-18.1-3.74-.18-.16-.52-1,1.8,6.48,5.26,4.53L66,251l-3.21,6.2-2.73.34-.5-.38-.33-.5.16.89h-.21l.64,1.95-6.56-1.84h-.66l.92.38,4,4.68-7-.69-1.21-.55.13.12.28.13-.23-.09,0,0L48.08,261l4.1,4.49L62.79,271,51.3,274.65l20.2,4.86,24.29-5.64-16.3,7.45-.29,0,.26,0L61,285.78l-18.36-3.67-11.4-12-.39-1.48h0v0l-.06-.44-.14-.33v0l-.14-.3,2.77,13.22,8.76,11.42-22.92-7.21,0-.13-.09-.07.1.19-.08-.05,11.76,14.65L2.64,302.33l23,6.44,25-.53L8.72,311.7l.57.34h0l1.09.67-.07,0,12.12,8.23,39.07,3.76L87.2,313.17,75.12,323l-16.05,6.92,3.6-.35-3.41.66L79,324.89,97,313.19,80.14,338.88l.33-.16.27-.74-.14.65,45.14-33-21.23,15.57L87.67,345.71l30.06-27.81L186.36,289l18.05,10.41-1.4-.8.11,0-.36-.17-6.88-6.23-1.6-10.86L206,293.08l19.78,3.28,0,0,.35,0h-.32l.12-.12-1,.07-6.89-5.08,1.1-.44,6.33.87,14.78-3.73H238.7l.37-.53-1.58.52-14.62-4,16.21,3.41v0l8.51-3.85L233.73,274l13.15-14.73,17-3.66-7.08,33,5.06,33.73,15.5,23.25,36.39,27.34-.84-.81,7.23,3.52-57.59,66.18,4.14,10.61,115.45,78.92-5.24,16.19,1.56,3.48-4.7,3.27L387,599.45v0l1.93,1.81,17.59-21.52,1.09-2.47.09.17,1.33-8.55-.67-6.07,4.19,4.79,1.88,1,80.88,10.18-.21,1.66,2.46,4.21-.05,1.37,37.53,14.72h0l5.26,0L533.74,575l33.74.76.08.1,7.56-2.45,20.4-14.82,7,3.3,28.5,1.21,24.69,16.81,2.18.62,78-30.83,20.91-18.46L729.23,416.58l10.46-11.27,16.42-5.73,11-8.91,23.11-38.89,3.92-23.09L797,323l0,0,62.35-75.87L885,263.28l60-26.09,5.47-.07,22.59,11,5.09,14.24,2.17,2,18,.13.67,2.41,1.42.29,7.54-1,4.8-3.51,7.8-15,.8-6.15ZM717,536.91,664.4,553.63l-29.12-9.13-8.16-13.1H627l-1.59-2.08-8.89.26,28.56-37.16v0l31.35-39.33,59.66,59.2-6.27,13.52-.44,6.94L717,536.91Zm-350.9-71-7,19.77-33.73-31.9,55.49-43.9-14.71,56ZM733.46,175.28l1.87-3.53-2.54,4.72.68-1.18ZM677.64,124l24.23-8.58-1.73,18.91-30-8.35,7.54-2ZM911.1,90.61l2.18,4.49-4.08.8-.11-.09,2-5.21ZM562.76,149.13l4,.83,2,1.92.17.88,11.88,11.29-18.06-14.93ZM95.86,273.79l3-1.18-2.88,1.19ZM457.66,555.31l-6.67-6-2.66-1.06-3.52,1h0l-39.32-2.38-2.4-5.89L405,529.55l1-1.48-4.41-15.69L489,550.17l.18,2.18-1,.13-3.33-1.73-27.1,4.57Zm93.7,6.78-39-6.85-3-10.45,1.51-2.75-2.44-7.74-17.74-15.09-21.8-3.43-62.56-39.64L449.62,368.7l61,25.28h0L543,406.07l.13.75,83.28,5.11,3.52,1.39,12.93,12.56L567.43,562.37l-16.07-.28Zm335-303L863.23,242.2l15.52-19.54,20.66-10h1.23l8.06-2.35,0,0h0l20.19,8.79,6.88,6.83,4,8.57-53.39,24.63Z" transform="translate(-2.64 -2.63)"/></svg>