<?xml version="1.0" encoding="utf-8"?>
<!-- Generator: Adobe Illustrator 19.2.1, SVG Export Plug-In . SVG Version: 6.00 Build 0)  -->
<svg version="1.1" id="Calque_1" xmlns="http://www.w3.org/2000/svg" xmlns:xlink="http://www.w3.org/1999/xlink" x="0px" y="0px"
	 viewBox="0 0 1024 1024" enable-background="new 0 0 1024 1024" xml:space="preserve">
<path fill="#444444" d="M429,643.6c48.6,0,87.9-39.3,87.9-87.8V225.1l263.6-40.5v230.1c-9.2-3.2-19-5.1-29.3-5.1
	c-48.5,0-87.9,39.3-87.9,87.8c0,48.5,39.4,87.8,87.9,87.8c48.5,0,87.9-39.3,87.9-87.8c0-2.4-0.2-4.7-0.3-7.1l0.3,0.3V0L458.3,58.5
	v414.7c-9.2-3.2-19-5.1-29.3-5.1c-48.5,0-87.9,39.3-87.9,87.8C341.1,604.4,380.5,643.6,429,643.6z M809.7,848.5
	c-48.5,0-87.9,39.3-87.9,87.8c0,48.4,39.4,87.8,87.9,87.8s87.9-39.3,87.9-87.8C897.5,887.8,858.3,848.5,809.7,848.5z M809.7,965.5
	c-16.2,0-29.3-13.1-29.3-29.3c0-16.1,13.2-29.3,29.3-29.3c16.2,0,29.3,13.1,29.3,29.3C839,952.4,825.8,965.5,809.7,965.5z
	 M311.9,936.2c0,48.5,39.3,87.8,87.9,87.8s87.9-39.3,87.9-87.8c0-48.5-39.3-87.8-87.9-87.8S311.9,887.8,311.9,936.2z M399.7,907
	c16.2,0,29.3,13.1,29.3,29.3c0,16.1-13.1,29.3-29.3,29.3c-16.2,0-29.3-13.1-29.3-29.3C370.4,920.1,383.5,907,399.7,907z
	 M893.6,846.6l2.8,1.9l117.1-430.8l-56.3-16.1L846.2,790H354.3L241,409.6H19v87.8h191.5l101.3,347.2v3.9h581.6
	C893.5,848.5,893.6,846.6,893.6,846.6z"/>
</svg>
