<?xml version="1.0" encoding="utf-8"?>
<!-- Generator: Adobe Illustrator 19.2.1, SVG Export Plug-In . SVG Version: 6.00 Build 0)  -->
<svg version="1.1" id="Layer_1" xmlns="http://www.w3.org/2000/svg" xmlns:xlink="http://www.w3.org/1999/xlink" x="0px" y="0px"
	 viewBox="0 0 1024 1024" enable-background="new 0 0 1024 1024" xml:space="preserve">
<g id="calendar_1_">
	<path fill="#444444" d="M938.7,96H800V32c0-17.7-14.3-32-32-32s-32,14.3-32,32v64H544V32c0-17.7-14.3-32-32-32s-32,14.3-32,32v64
		H288V32c0-17.7-14.3-32-32-32s-32,14.3-32,32v64H85.3C38.2,96,0,134.2,0,181.3v757.3c0,47.1,38.2,85.3,85.3,85.3h853.3
		c47.1,0,85.3-38.2,85.3-85.3V181.3C1024,134.2,985.8,96,938.7,96z M960,938.7c0,11.8-9.6,21.3-21.3,21.3H85.3
		c-11.8,0-21.3-9.6-21.3-21.3V181.3c0-11.7,9.6-21.3,21.3-21.3H224v64c0,17.7,14.3,32,32,32s32-14.3,32-32v-64h192v64
		c0,17.7,14.3,32,32,32s32-14.3,32-32v-64h192v64c0,17.7,14.3,32,32,32s32-14.3,32-32v-64h138.7c11.7,0,21.3,9.6,21.3,21.3V938.7z"
		/>
	<rect x="224" y="384" fill="#444444" width="128" height="96"/>
	<rect x="224" y="544" fill="#444444" width="128" height="96"/>
	<rect x="224" y="704" fill="#444444" width="128" height="96"/>
	<rect x="448" y="704" fill="#444444" width="128" height="96"/>
	<rect x="448" y="544" fill="#444444" width="128" height="96"/>
	<rect x="448" y="384" fill="#444444" width="128" height="96"/>
	<rect x="672" y="704" fill="#444444" width="128" height="96"/>
	<rect x="672" y="544" fill="#444444" width="128" height="96"/>
	<rect x="672" y="384" fill="#444444" width="128" height="96"/>
</g>
</svg>
