<?xml version="1.0" encoding="utf-8"?>
<!-- Generator: Adobe Illustrator 19.2.1, SVG Export Plug-In . SVG Version: 6.00 Build 0)  -->
<svg version="1.1" id="Calque_1" xmlns="http://www.w3.org/2000/svg" xmlns:xlink="http://www.w3.org/1999/xlink" x="0px" y="0px"
	 viewBox="0 0 1024 1024" enable-background="new 0 0 1024 1024" xml:space="preserve">
<path fill="#444444" d="M538.9,269.4H431.2v323.4h323.3V485H538.9C538.9,485,538.9,269.4,538.9,269.4z M512,0
	C229.2,0,0,229.2,0,511.9C0,794.8,229.2,1024,512,1024s512-229.2,512-512.1C1024,229.2,794.8,0,512,0z M512,910.2
	c-219.9,0-398.1-178.3-398.1-398.2S292.1,113.8,512,113.8c219.9,0,398.1,178.1,398.1,398.1S731.9,910.2,512,910.2z"/>
</svg>
