<?xml version="1.0" encoding="utf-8"?>
<!-- Generator: Adobe Illustrator 19.1.0, SVG Export Plug-In . SVG Version: 6.00 Build 0)  -->
<svg version="1.1" id="Calque_1" xmlns="http://www.w3.org/2000/svg" xmlns:xlink="http://www.w3.org/1999/xlink" x="0px" y="0px"
	 viewBox="206 -116 1024 1024" style="enable-background:new 206 -116 1024 1024;" xml:space="preserve">
<path d="M718,908c-282.3,0-512-229.7-512-512s229.7-512,512-512s512,229.7,512,512S1000.3,908,718,908L718,908z M718-9.5
	C494.4-9.5,312.5,172.4,312.5,396S494.4,801.5,718,801.5c223.7,0,405.6-181.9,405.6-405.5S941.6-9.5,718-9.5L718-9.5z"/>
<path d="M969,500.7H622v-328c0-35.3,28.7-64,64-64s64,28.7,64,64v200h219c35.3,0,64,28.7,64,64S1004.3,500.7,969,500.7z"/>
</svg>
