<?xml version="1.0" encoding="utf-8"?>
<!-- Generator: Adobe Illustrator 19.1.0, SVG Export Plug-In . SVG Version: 6.00 Build 0)  -->
<svg version="1.1" id="Calque_1" xmlns="http://www.w3.org/2000/svg" xmlns:xlink="http://www.w3.org/1999/xlink" x="0px" y="0px"
	 viewBox="206 -116 1024 1024" style="enable-background:new 206 -116 1024 1024;" xml:space="preserve">
<g>
	<g>
		<path d="M716.7,905.4C435.1,905.4,206,676.3,206,394.7C206,113.1,435.1-116,716.7-116c281.6,0,510.7,229.1,510.7,510.7
			S998.3,905.4,716.7,905.4z M716.7-81.4c-262.5,0-476.1,213.6-476.1,476.1s213.6,476.1,476.1,476.1s476.1-213.6,476.1-476.1
			S979.2-81.4,716.7-81.4z"/>
		<path d="M985.2,412H716.7c-4.6,0-9-1.8-12.2-5.1L514.6,217.1c-6.8-6.8-6.8-17.7,0-24.5c6.8-6.8,17.7-6.8,24.5,0l184.8,184.8h261.3
			c9.6,0,17.3,7.8,17.3,17.3S994.7,412,985.2,412z"/>
	</g>
</g>
</svg>
