<?xml version="1.0" encoding="utf-8"?>
<!-- Generator: Adobe Illustrator 19.2.1, SVG Export Plug-In . SVG Version: 6.00 Build 0)  -->
<svg version="1.1" id="Calque_1" xmlns="http://www.w3.org/2000/svg" xmlns:xlink="http://www.w3.org/1999/xlink" x="0px" y="0px"
	 viewBox="0 0 1024 1024" style="enable-background:new 0 0 1024 1024;" xml:space="preserve">
<path d="M512,1024C229.7,1024,0,794.3,0,512C0,229.7,229.7,0,512,0c282.3,0,512,229.7,512,512C1024,794.3,794.3,1024,512,1024
	L512,1024z M512,106.5c-223.6,0-405.5,181.9-405.5,405.5S288.4,917.5,512,917.5c223.7,0,405.6-181.9,405.6-405.5
	S735.6,106.5,512,106.5L512,106.5z"/>
<path d="M763,616.7H416v-328c0-35.3,28.7-64,64-64s64,28.7,64,64v200h219c35.3,0,64,28.7,64,64C827,588,798.3,616.7,763,616.7z"/>
</svg>
