<?xml version="1.0" encoding="utf-8"?>
<!-- Generator: Adobe Illustrator 19.1.0, SVG Export Plug-In . SVG Version: 6.00 Build 0)  -->
<svg version="1.1" id="Calque_1" xmlns="http://www.w3.org/2000/svg" xmlns:xlink="http://www.w3.org/1999/xlink" x="0px" y="0px"
	 viewBox="206 -116 1024 1024" style="enable-background:new 206 -116 1024 1024;" xml:space="preserve">
<path d="M786.6,395.2l427.5-427.5c19.2-19.2,19.2-50.2,0-69.3s-50.2-19.2-69.3,0L717.2,325.9L289.7-101.6
	c-19.2-19.2-50.2-19.2-69.3,0s-19.2,50.2,0,69.3l427.5,427.5L220.4,822.8c-19.2,19.2-19.2,50.2,0,69.3c9.6,9.5,22.1,14.4,34.6,14.4
	s25.1-4.8,34.6-14.4l427.5-427.5l427.5,427.5c9.6,9.5,22.1,14.4,34.6,14.4s25.1-4.8,34.6-14.4c19.2-19.2,19.2-50.2,0-69.3
	L786.6,395.2z"/>
</svg>
