<?xml version="1.0" encoding="utf-8"?>
<!-- Generator: Adobe Illustrator 19.2.0, SVG Export Plug-In . SVG Version: 6.00 Build 0)  -->
<svg version="1.1" id="Calque_1" xmlns="http://www.w3.org/2000/svg" xmlns:xlink="http://www.w3.org/1999/xlink" x="0px" y="0px"
	 viewBox="0 0 1024 1024" style="enable-background:new 0 0 1024 1024;" xml:space="preserve">
<style type="text/css">
	.st0{fill:#444444;}
</style>
<g>
	<path class="st0" d="M584.8,509.7L725.5,369c11.1-11.1,11.1-29.3,0-40.4l-38.1-38.1c-11.1-11.1-29.3-11.1-40.4,0L506.3,431.3
		L377,301.9c-11.1-11.1-29.3-11.1-40.4,0L298.5,340c-11.1,11.1-11.1,29.3,0,40.4l129.3,129.3L294,643.6c-11.1,11.1-11.1,29.3,0,40.4
		l38.1,38.1c11.1,11.1,29.3,11.1,40.4,0l133.9-133.9l145.3,145.3c11.1,11.1,29.3,11.1,40.4,0l38.1-38.1c11.1-11.1,11.1-29.3,0-40.4
		L584.8,509.7z"/>
	<path class="st0" d="M512,0C229.2,0,0,229.1,0,511.9C0,794.8,229.2,1024,512,1024s512-229.2,512-512.1C1024,229.1,794.8,0,512,0z
		 M512,938.6c-235.3,0-426.7-191.4-426.7-426.7C85.3,276.7,276.8,85.2,512,85.2s426.7,191.5,426.7,426.7
		C938.7,747.2,747.3,938.6,512,938.6z"/>
</g>
</svg>
