<?xml version="1.0" encoding="utf-8"?>
<!-- Generator: Adobe Illustrator 19.2.1, SVG Export Plug-In . SVG Version: 6.00 Build 0)  -->
<svg version="1.1" id="Calque_1" xmlns="http://www.w3.org/2000/svg" xmlns:xlink="http://www.w3.org/1999/xlink" x="0px" y="0px"
	 viewBox="0 0 1024 1024" enable-background="new 0 0 1024 1024" xml:space="preserve">
<path fill="#444444" d="M955.3,0H65.2C26.4,0,0,37,0,75.5V958c0,38.5,26.4,66,65.2,66h890.1c38.8,0,68.7-27.6,68.7-66V75.5
	C1024,37,994.2,0,955.3,0z M397.1,736.2l-167.2,53.2L271.3,657c-36.6-37.1-59.5-88.9-59.5-145.1c0-132.9,131.6-240.5,294-240.5
	s294,107.7,294,240.5C799.8,659.6,629.7,797.3,397.1,736.2L397.1,736.2z"/>
</svg>
