<?xml version="1.0" encoding="utf-8"?>
<!-- Generator: Adobe Illustrator 19.2.1, SVG Export Plug-In . SVG Version: 6.00 Build 0)  -->
<svg version="1.1" id="Calque_1" xmlns="http://www.w3.org/2000/svg" xmlns:xlink="http://www.w3.org/1999/xlink" x="0px" y="0px"
	 viewBox="0 0 1024 1024" enable-background="new 0 0 1024 1024" xml:space="preserve">
<path fill="#444444" d="M514.9,71.3c-30.7,0-60.7,1.8-89.9,5.3c14.2,23.2,24.8,48.7,31.1,76c19.6-1.7,39.3-2.5,58.8-2.5
	c237.3,0,430.3,157.4,430.3,350.9c0,86.4-41.4,172.9-113.6,237.4c-80.2,71.7-191.4,111.2-313.2,111.2c-55.3,0-112.9-8-171.1-23.8
	l-22.8-6.2l-168.1,55.2L197.6,739l-31.9-33.2C114.2,652,84.7,577.4,84.7,501c0-20.4,1.5-39.6,4.2-58c-26.3-13.1-50.1-30.4-70.4-51.3
	C10.4,425.5,5.9,461.9,5.9,501c0,100.5,39.5,193,103,259.3L37.2,996.8l289.6-95c67.2,18.2,131.4,26.6,191.7,26.6
	c301.1,0,505.5-207.5,505.5-427.3C1024,263.7,796.1,71.4,514.9,71.3L514.9,71.3z"/>
<path fill="#444444" d="M142.6,20h105.2v388H142.6C142.6,408,142.6,20,142.6,20z"/>
<path fill="#444444" d="M407.2,155.2l0.5,109.7L0.5,266.7L0,157.1L407.2,155.2z"/>
</svg>
