<?xml version="1.0" encoding="utf-8"?>
<!-- Generator: Adobe Illustrator 18.0.0, SVG Export Plug-In . SVG Version: 6.00 Build 0)  -->
<svg version="1.1" id="Calque_1" xmlns="http://www.w3.org/2000/svg" xmlns:xlink="http://www.w3.org/1999/xlink" x="0px" y="0px"
	 viewBox="0 0 32 32" enable-background="new 0 0 32 32" xml:space="preserve">
<path fill-rule="evenodd" clip-rule="evenodd" d="M12.6,7l7.7,0C20.7,7,21,7.3,21,7.7l0,17.4c0,0.1,0,0.2-0.1,0.3L19,29.1l-1.3,2.6
	c-0.1,0.2-0.3,0.3-0.6,0.3l0,0l-1.2,0c-0.2,0-0.5-0.1-0.6-0.4L14,29.1l-1.9-3.8c0-0.1-0.1-0.2-0.1-0.3l0,0l0-17.4
	C12,7.3,12.3,7,12.6,7L12.6,7z M13.5,24.8l2.3,4.5l1.4,0l2.3-4.5l-3-0.6L13.5,24.8z M14.5,0l4.1,0c0.7,0,1.3,0.3,1.7,0.7
	C20.7,1.2,21,1.8,21,2.5l0,2.1c0,0.4-0.3,0.6-0.6,0.6l-7.7,0c-0.3,0-0.6-0.3-0.6-0.6l0-2.1c0-0.7,0.3-1.3,0.7-1.7
	C13.2,0.3,13.8,0,14.5,0L14.5,0z"/>
</svg>
