<?xml version="1.0" encoding="utf-8"?>
<!-- Generator: Adobe Illustrator 19.2.1, SVG Export Plug-In . SVG Version: 6.00 Build 0)  -->
<svg version="1.1" id="Calque_1" xmlns="http://www.w3.org/2000/svg" xmlns:xlink="http://www.w3.org/1999/xlink" x="0px" y="0px"
	 viewBox="0 0 1024 1024" enable-background="new 0 0 1024 1024" xml:space="preserve">
<path fill="#444444" d="M0,223.1c0-19.3,0-38.6,0-57.9c3.4-0.8,6.9-2.3,10.3-2.3c58-0.1,116-0.1,174-0.1c3.2,0,6.5,0,10.3,0
	c-0.9-14.4-1.8-27.4-2.6-40.4c-2.6-40.8-5.1-81.6-7.7-122.3c219,0,438,0,657,0c-0.1,4,0,8-0.2,11.9c-3.1,47.2-6.3,94.5-9.5,141.8
	c-0.2,2.7,0,5.5,0,8.9c4.1,0,7.5,0,10.8,0c56.9,0,113.7,0,170.5,0c3.7,0,7.3,0.6,11,0.9c0,28.4,0,56.8,0,85.2
	c-0.5,2.5-1.1,4.9-1.5,7.4c-5.2,32.2-7.8,65-16,96.3c-36.4,139.4-118.2,242.1-250.8,302.1c-27.6,12.5-56.9,21.1-85.2,32.1
	c-7.5,2.9-15.1,7.1-20.9,12.5c-27.9,25.6-59,45.2-96.5,53.3c-7.2,1.5-9.9,5.6-9.9,12.6c0.1,20.2,0,40.3,0.3,60.5
	c0.2,16.1,5.1,30.9,15.5,43.2c7.4,8.9,15.6,17.3,24.4,24.9c32,27.5,69,46.6,107.2,63.9c9.8,4.4,19.2,9.9,28.3,15.5
	c9.5,5.9,16,14.1,12.9,26.2c-3.2,12.5-10.9,21.2-24.4,23c-7.3,1-14.7,1.4-22.1,1.4c-114.9,0.2-229.8,0.4-344.7,0.5
	c-6.8,0-13.7,0.2-20.5-0.4c-12.8-1.3-23.4-10.4-26-21.4c-2.5-10.5,2.1-20.2,13.6-27.8c6.6-4.4,13.5-8.3,20.6-11.9
	c17.2-8.8,34.8-16.8,51.7-26.1c29.2-16,57.3-33.9,79.9-58.9c16.1-17.8,24.1-38.7,23.3-63c-0.5-16.4-0.5-32.9-0.3-49.3
	c0.1-7-2-11.1-9.5-12.6c-36.1-7.5-66.6-25.7-93.2-50.5c-9.2-8.6-19.4-14.1-31.5-17.5c-53.5-14.9-103.6-37.2-149.2-69.1
	C81.6,533.1,22.1,417.3,5.2,277.2C3,259.3,1.7,241.2,0,223.1L0,223.1z M63.4,224.6c-0.4,7.6-1.2,14.7-0.9,21.7
	c0.7,14.4,0.7,29,3.2,43.2C83.5,390.4,131.2,475.3,205,545.7c26.3,25.1,56.2,45,91.3,56.3c3.2,1.1,6.6,1.8,10.5,2.9
	c-10.6-24.2-21.3-46.8-30.3-70c-37.3-96.2-57.6-196.6-71.8-298.4c-1.5-10.8-3.9-13.1-14.8-13c-36.9,0-73.9,0.1-110.8,0.3
	C74.1,223.7,69,224.3,63.4,224.6L63.4,224.6z M962.7,224.5c-4.1-0.3-7.2-0.6-10.3-0.6c-39-0.1-77.9-0.3-116.9-0.3
	c-11.9,0-12.7,1-14.7,12.6c-7.3,43-13.9,86.2-22.5,129c-16.2,80.6-39.8,158.8-77,232.6c-1.1,2.1-1.7,4.4-3.1,8.3
	c66.5-27.3,120.4-68,161.8-124.5C935.8,405.4,959.7,319,962.7,224.5L962.7,224.5z"/>
</svg>
