<?xml version="1.0" encoding="utf-8"?>
<!-- Generator: Adobe Illustrator 21.1.0, SVG Export Plug-In . SVG Version: 6.00 Build 0)  -->
<svg version="1.1" id="icone" xmlns="http://www.w3.org/2000/svg" xmlns:xlink="http://www.w3.org/1999/xlink" x="0px" y="0px"
	 viewBox="0 0 1024 876" style="enable-background:new 0 0 1024 876;" xml:space="preserve">
<g>
	<g>
		<rect x="124.1" y="8.2" width="37.6" height="61.8"/>
	</g>
	<g>
		<rect x="307.3" y="8.2" width="37.6" height="61.8"/>
	</g>
	<g>
		<rect x="492.6" y="8.2" width="37.6" height="61.8"/>
	</g>
	<g>
		<rect x="676.9" y="8.2" width="37.6" height="61.8"/>
	</g>
	<g>
		<rect x="859.1" y="8.2" width="37.6" height="61.8"/>
	</g>
	<g>
		<path d="M969,92h-916C27.8,92,9,112.9,9,135.9v685.8c0,25.2,21,46,43.9,46h916c25.2,0,46-21,46-46V135.9
			C1014.1,111.9,993.1,92,969,92z M327.2,148.5c22,0,40.8,18.9,40.8,40.8c0,22-18.9,40.8-40.8,40.8c-21.9,0-40.8-18.9-40.8-40.8
			C286.3,166.3,304.2,148.5,327.2,148.5z M103.2,189.4c0-22,18.9-40.8,40.8-40.8s40.8,18.9,40.8,40.8s-18.9,40.8-40.8,40.8
			S103.2,211.3,103.2,189.4z M207.9,757.8h-81.7v-81.7h81.7V757.8z M207.9,599.8h-81.7v-81.7h81.7V599.8z M380.6,757.8h-81.7v-81.7
			h81.7V757.8L380.6,757.8z M375.4,622.8l-21-30.4c-8.4-11.5-14.7-18.9-18.9-27.3l0,0c-5.2,8.4-9.4,15.7-17.8,27.3l-18.9,30.4h-24.1
			l49.2-69.1l-47.1-68.1h24.1l22,31.5c6.3,9.4,11.5,15.7,14.7,24.1l0,0c5.2-8.4,9.4-14.7,14.7-24.1l22-31.5h24.1l-49.2,66l50.2,71.2
			C398.4,622.8,375.4,622.8,375.4,622.8z M511.5,148.5c22,0,40.8,18.9,40.8,40.8c0,22-18.9,40.8-40.8,40.8
			c-22,0-40.8-18.9-40.8-40.8C469.6,166.3,489.5,148.5,511.5,148.5z M555.4,757.8h-81.7v-81.7h81.7V757.8z M555.4,599.8h-81.7v-81.7
			h81.7V599.8z M555.4,442.7h-81.7V361h81.7V442.7z M728.2,757.8h-81.7v-81.7h81.7V757.8z M728.2,599.8h-81.7v-81.7h81.7V599.8z
			 M728.2,442.7h-81.7V361h81.7V442.7z M694.7,230.2c-22,0-40.8-18.9-40.8-40.8s18.9-40.8,40.8-40.8s40.8,18.9,40.8,40.8
			S717.7,230.2,694.7,230.2z M903,757.8h-81.7v-81.7H903V757.8z M903,599.8h-81.7v-81.7H903V599.8z M903,442.7h-81.7V361H903V442.7z
			 M878,230.2c-22,0-40.8-18.9-40.8-40.8s18.9-40.8,40.8-40.8s40.8,18.9,40.8,40.8S900.9,230.2,878,230.2z"/>
	</g>
</g>
</svg>
