<?xml version="1.0" encoding="utf-8"?>
<!-- Generator: Adobe Illustrator 21.1.0, SVG Export Plug-In . SVG Version: 6.00 Build 0)  -->
<svg version="1.1" xmlns="http://www.w3.org/2000/svg" xmlns:xlink="http://www.w3.org/1999/xlink" x="0px" y="0px"
	 viewBox="0 0 1024 1024" style="enable-background:new 0 0 1024 1024;" xml:space="preserve">
<g id="Calque_2">
</g>
<g id="Calque_1">
	<g>
		<g>
			<path d="M896.4,100.4H787.6V69.8c0-18.7-15.3-34-34-34s-34,15.3-34,34v30.6H546V69.8c0-18.7-15.3-34-34-34s-34,15.3-34,34v30.6
				H304.5V69.8c0-18.7-15.3-34-34-34s-34,15.3-34,34v30.6H127.6C18,100,0,158.3,0,228v632.8C0,930.5,22,988,127.6,988.4h768.9
				c119.5-0.4,127.6-57.8,127.6-127.6V228C1024,158.3,1010,99,896.4,100.4z M975.6,878.3c0,33.3-6.6,61.7-61.4,61.4H109.8
				C54,938,48.4,911.6,48.4,878.3V417.5h927.2L975.6,878.3z M915,154.2c33,0,60.9,27.8,60.9,60.9c-0.1,0-0.1,162-0.1,162l-926.6-6
				v-156c0-33,27.8-60.9,60.9-60.9h124.3v47.3c0,19.1,15.6,34.8,34.8,34.8c19.1,0,34.8-15.6,34.8-34.8v-47.3h173.4v47.3
				c0,19.1,15.6,34.8,34.8,34.8s34.8-15.6,34.8-34.8v-47.3h172.4v47.3c0,19.1,15.6,34.8,34.8,34.8s34.8-15.6,34.8-34.8v-47.3H915z"
				/>
		</g>
		<path d="M790.5,683H604.6c-2.8,0-5-2.2-5-5V524.7c0-2.8,2.2-5,5-5h185.9c2.8,0,5,2.2,5,5V678C795.5,680.7,793.2,683,790.5,683z"/>
	</g>
</g>
</svg>
