<?xml version="1.0" encoding="utf-8"?>
<!-- Generator: Adobe Illustrator 21.1.0, SVG Export Plug-In . SVG Version: 6.00 Build 0)  -->
<svg version="1.1" id="Calque_1" xmlns="http://www.w3.org/2000/svg" xmlns:xlink="http://www.w3.org/1999/xlink" x="0px" y="0px"
	 viewBox="0 0 1024 1024" style="enable-background:new 0 0 1024 1024;" xml:space="preserve">
<g>
	<path d="M921.4,303.8c11.1,11.1,29,11.1,40.3,0c11.1-11.1,11.1-29,0-40.3l-85.4-85.4c-11.1-11.1-29-11.1-40.3,0
		c-11.1,11.1-11.1,29,0,40.3l22.6,22.6l-34.5,34.5c-70.9-66.5-164.2-109.2-267-115.9V57.4h81c15.7,0,28.4-12.7,28.4-28.4l0,0
		c0.2-15.7-12.7-28.4-28.4-28.4h-219c-15.7,0-28.4,12.7-28.4,28.4l0,0c0,15.7,12.7,28.4,28.4,28.4h81.2v102.2
		C274.8,174.2,95.9,362.2,95.9,591.3c0,238.6,194.2,432.8,432.8,432.8s432.8-194.2,432.8-432.8c0-104-36.9-199.7-98.3-274.4
		l35.7-35.7L921.4,303.8z M908.9,562.5h-31.7c-15.9,0-28.8,12.9-28.8,28.8l0,0c0,15.9,12.9,28.8,28.8,28.8h31.7
		c-6.3,83.4-39.5,159.5-91.2,219.6l-22.3-22.3c-11.2-11.2-29.4-11.2-40.9,0c-11.2,11.2-11.2,29.4,0,40.9l22.3,22.3
		c-59.9,51.5-136,84.6-219.6,91v-31.5c0-15.9-12.9-28.8-28.8-28.8l0,0c-15.9,0-28.8,12.9-28.8,28.8v31.5
		c-83.4-6.3-159.5-39.5-219.6-91l22.3-22.3c11.2-11.2,11.2-29.4,0-40.9c-11.2-11.2-29.4-11.2-40.9,0l-22.3,22.3
		c-51.3-59.9-84.4-136-90.8-219.6h31.7c15.9,0,28.8-12.9,28.8-28.8l0,0c0-15.9-12.9-28.8-28.8-28.8h-31.7
		c6.3-83.4,39.5-159.5,91.2-219.6l22.3,22.3c11.2,11.2,29.4,11.2,40.9,0c11.2-11.2,11.2-29.4,0-40.9l-22.3-22.3
		c59.9-51.5,136-84.8,219.6-91.2v31.7c0,15.9,12.9,28.8,28.8,28.8l0,0c15.9,0,28.8-12.9,28.8-28.8v-31.7
		c83.4,6.3,159.5,39.5,219.6,91.2L755,324.3c-11.2,11.2-11.2,29.4,0,40.9c11.2,11.2,29.4,11.2,40.9,0l22.3-22.3
		C869.3,402.8,902.6,478.9,908.9,562.5z"/>
	<path d="M528.7,339.3L528.7,339.3c-15.7,0-28.4,12.7-28.4,28.4v223.7c0,15.7,12.7,28.4,28.4,28.4l0,0c15.7,0,28.4-12.7,28.4-28.4
		V367.7C557.1,352,544.4,339.3,528.7,339.3z"/>
</g>
</svg>
