<?xml version="1.0" encoding="utf-8"?>
<!-- Generator: Adobe Illustrator 21.1.0, SVG Export Plug-In . SVG Version: 6.00 Build 0)  -->
<svg version="1.1" id="icone" xmlns="http://www.w3.org/2000/svg" xmlns:xlink="http://www.w3.org/1999/xlink" x="0px" y="0px"
	 viewBox="0 0 1024 1024" style="enable-background:new 0 0 1024 1024;" xml:space="preserve">
<g>
	<rect x="429.7" y="5.2" width="157.1" height="73.6"/>
	<path d="M798.8,208.4L830,151L716.5,87.4L686.6,141C633,118.6,574.3,106,512,106C260.2,106.1,55.6,310.6,55.6,562.5
		s204.6,456.3,456.4,456.3s456.4-204.5,456.4-456.3C969.6,420.4,903.5,292,798.8,208.4z M513.3,959C295,959,118,781.9,118,563.8
		s177.1-395.2,395.2-395.2s395.2,177.1,395.2,395.2S731.4,959,513.3,959z"/>
	<polygon points="488.3,834.3 488.3,936.6 512,936.6 512,834.3 	"/>
	<rect x="291.5" y="824.2" transform="matrix(0.5069 -0.862 0.862 0.5069 -552.0848 707.014)" width="101" height="23.7"/>
	<polygon points="179.1,732 191.5,752 278.8,702.1 267.6,681 	"/>
	<rect x="141.6" y="543.8" transform="matrix(1 -2.899939e-03 2.899939e-03 1 -1.6105 0.5594)" width="101" height="23.7"/>
	<rect x="225.8" y="346.3" transform="matrix(0.4992 -0.8665 0.8665 0.4992 -225.3333 404.9334)" width="23.7" height="102.2"/>
	<polygon points="393.6,321.9 342.4,234.6 321.2,245.7 372.3,334.3 	"/>
	<polygon points="529.5,295.6 529.5,192.2 505.8,192.2 505.8,295.6 	"/>
	<polygon points="711.5,254.5 690.2,242.1 639.2,329.3 660.3,341.8 	"/>
	<polygon points="838.7,397.9 826.2,378 738.9,427.9 750.1,447.8 	"/>
	<rect x="767.9" y="680.3" transform="matrix(0.4994 -0.8664 0.8664 0.4994 -243.3525 1041.6781)" width="23.7" height="102.2"/>
	<polygon points="624.2,808.2 675.3,895.4 696.6,884.2 645.4,795.6 	"/>
	<path d="M571.8,553.8c-4.9-28.6-28.6-49.9-58.6-49.9c-29.9,0-53.6,21.2-58.6,49.9H376v18.7h78.5c4.9,28.6,28.6,49.9,58.6,49.9
		c29.9,0,53.6-21.2,58.6-49.9h296.8v-18.7H571.8z"/>
	<path d="M545.7,491.5l16.2,8.7L623,392.9l-16.2-8.7L545.7,491.5z"/>
</g>
</svg>
