<?xml version="1.0" encoding="utf-8"?>
<!-- Generator: Adobe Illustrator 19.2.1, SVG Export Plug-In . SVG Version: 6.00 Build 0)  -->
<svg version="1.1" id="Calque_1" xmlns="http://www.w3.org/2000/svg" xmlns:xlink="http://www.w3.org/1999/xlink" x="0px" y="0px"
	 viewBox="0 0 1024 1024" enable-background="new 0 0 1024 1024" xml:space="preserve">
<path fill="#444444" d="M226,438.6c18.3,1.8,41.9-7.4,52.5-22.6L403.6,238c8.9-12.9,1.6-18-16.1-18H179.7c-14.7,0-34,4-43.3,15.6
	L6.5,393.1c-10.9,13.4-7.8,24.2,7.1,25.7L226,438.6L226,438.6z M284.6,259.1c7.5-10.3,24.6-18.3,38.2-18.2
	c13.8,0.2,19.1,8.7,11.7,19.2c-7.5,10.5-25.1,18.8-39,18.5C281.8,278.1,277,269.4,284.6,259.1L284.6,259.1z M215.8,257.6
	c7.6-9.9,24.1-17.8,37-17.6c13.1,0.2,17.6,8.5,10.1,18.6c-7.6,10.2-24.6,18.3-37.7,17.9C212.2,276.1,208,267.7,215.8,257.6
	L215.8,257.6z M207.4,363.9c8.2-11.2,26-19.5,39.8-18.8c14,0.8,18.9,10.7,10.7,22.1c-8.3,11.6-26.5,20.2-40.6,19.1
	C203.4,385.3,199.1,375.2,207.4,363.9L207.4,363.9z M148.5,256.3c7.7-9.6,23.6-17.3,35.8-17.1c12.3,0.2,16.2,8.2,8.6,18
	c-7.7,9.9-24.1,17.7-36.5,17.4C144.2,274.2,140.7,266,148.5,256.3L148.5,256.3z M137.8,359.3c8.3-10.8,25.5-19,38.5-18.2
	c13.2,0.8,17.3,10.3,9.1,21.3c-8.4,11.2-26,19.5-39.2,18.5C133,380,129.4,370.2,137.8,359.3L137.8,359.3z M70,354.8
	c8.4-10.5,24.9-18.4,37.2-17.7c12.4,0.7,15.8,9.9,7.5,20.6c-8.4,10.8-25.5,18.9-37.9,18C64.5,374.8,61.6,365.4,70,354.8z"/>
<path fill="#444444" d="M271.9,490.1c-5.5-15.4-23.3-29-39.6-30.3L30.5,443.2C15.3,441.9,8,453,14.1,467.9l75.2,183
	c5.6,13.7,22.1,26.5,36.7,28.2l194.5,22.8c15.7,1.8,24.3-8.4,19.2-22.5L271.9,490.1L271.9,490.1z M98.6,531.4
	c-12.2-1.2-25.9-11.6-30.7-23.4c-4.8-11.8,1.3-20.6,13.6-19.5c12.3,1.1,26.2,11.7,30.9,23.6C117.1,524,110.9,532.6,98.6,531.4z
	 M274.5,657.8c-12.5-1.4-26.1-11.7-30.4-23.1c-4.3-11.5,2.3-19.7,15-18.4c12.6,1.3,26.4,11.8,30.6,23.4
	C293.9,651.1,287.1,659.2,274.5,657.8z"/>
<path fill="#444444" d="M443.5,260.2c-5.3-15-16.9-16.7-25.9-3.5L298.7,432.4c-9.6,14.2-12.3,37.8-6,52.4l76,175.7
	c5.6,12.9,17.1,12,25.7-1.8l107.4-170.2c8.1-12.8,10.8-33.9,6.1-47.2L443.5,260.2L443.5,260.2z M396,597.9c-7,11-16.3,11.4-20.8,0.8
	c-4.5-10.7-2.3-28.5,4.8-39.6c7.1-11,16.5-11.2,20.8-0.4C405.1,569.4,403,586.9,396,597.9L396,597.9z M412.9,485.9
	c-7,10.9-16.3,10.7-20.8-0.4c-4.5-11.2-2.3-29.2,4.9-40.1c7.1-10.9,16.5-10.4,20.8,0.8C422.1,457.4,419.9,475.1,412.9,485.9
	L412.9,485.9z M428.8,374.4c-7,10.7-16.4,10-20.8-1.6c-4.4-11.7-2.2-30,5-40.8c7.2-10.7,16.5-9.8,20.8,2
	C438,345.7,435.8,363.7,428.8,374.4L428.8,374.4z"/>
<path fill="#444444" d="M736.1,550.6c13.7,17.6,42.7,26,63.3,18.3l208.8-78c12.7-4.7,9.7-18.1-5.6-29.7L845.2,343
	c-9.6-7.2-26.7-11.6-38.7-9.9l-184.4,27c-17,2.5-25.2,12.2-17.7,21.9L736.1,550.6L736.1,550.6z M891.3,431.5
	c10.8-2.9,27.9,1.7,38.6,10.3c11.1,8.9,11.7,18.9,0.8,22.3c-11.2,3.5-29.6-1.5-40.6-10.9C879.4,444.1,880.2,434.4,891.3,431.5z
	 M803.4,358.7c10.3-1.8,25.1,2.1,33.3,8.6c8.5,6.8,7.1,14.1-3.4,16.2c-10.8,2.2-26.5-2-34.8-9.1
	C790.5,367.5,792.9,360.5,803.4,358.7L803.4,358.7z M784.8,405.3c11.9-2.5,28.5,1.9,37.7,10c9.4,8.4,7.5,17.8-4.6,20.8
	c-12.5,3.1-30.4-1.7-39.5-10.6C769.5,416.9,772.7,408,784.8,405.3L784.8,405.3z M757.9,466.7c14.1-3.7,33.2,1.5,43.3,12
	c10.5,10.8,7.8,23.3-6.6,27.8c-14.8,4.6-35.6-1.2-45.7-12.8C739.1,482.5,743.4,470.5,757.9,466.7L757.9,466.7z M678.1,380.1
	c13-2.2,29.3,2.1,36.8,9.8c7.7,7.9,3.5,16.7-9.9,19.4c-13.7,2.8-31.2-2-38.5-10.4C659.4,390.7,664.8,382.4,678.1,380.1L678.1,380.1z
	"/>
<path fill="#444444" d="M728.1,585.6L597.6,428.4c-11.9-14.3-25.7-11.3-30.3,6.7l-52.1,203.5c-3.8,14.7,2.4,35,13.6,45.4
	l124.7,115.5c8.9,8.2,19.8,5.3,24-6.6l58.4-161.8C740.9,617.1,737.3,596.7,728.1,585.6L728.1,585.6z M584.7,661.3
	c-3.3,11.3-12.9,13.8-21.4,5.5c-8.7-8.5-13.2-24.9-10-36.7c3.2-12,13.1-14.4,22-5.5C583.9,633.4,588.1,649.8,584.7,661.3
	L584.7,661.3z M619.1,543.7c-3.7,12.7-13.7,15.1-22.5,5.4c-9-9.8-13.4-28.5-9.8-41.8c3.7-13.4,14.1-15.8,23.1-5.4
	C618.9,512.1,622.9,530.8,619.1,543.7L619.1,543.7z M668.5,744.6c-3.5,10.1-12.2,12.5-19.6,5.3c-7.5-7.3-10.9-21.7-7.4-32.2
	c3.5-10.6,12.5-13,20.1-5.3C669.1,720,672.1,734.4,668.5,744.6z M704.8,640.3c-3.9,11.2-13,13.6-20.5,5.3c-7.7-8.4-10.8-24.7-7-36.3
	c3.9-11.8,13.4-14.2,21.1-5.3C706,612.7,708.8,629,704.8,640.3L704.8,640.3z"/>
<path fill="#444444" d="M1004.3,525.4l-202.2,64.2c-16.4,5.2-33.1,22-37.2,37.4l-49.2,185c-3.6,13.5,6,20,21.3,14.6l189.8-67.1
	c14.3-5,29.5-19.9,34-33.2l61.7-182.2C1027.6,529,1019.5,520.5,1004.3,525.4L1004.3,525.4z M887.1,674.1
	c-3.5,11.4-16.3,24-28.4,28.2c-12.2,4.1-19.5-1.7-16.1-13.2c3.4-11.6,16.3-24.4,28.7-28.5C883.6,656.5,890.7,662.6,887.1,674.1z"/>
</svg>
