<?xml version="1.0" encoding="utf-8"?>
<!-- Generator: Adobe Illustrator 21.1.0, SVG Export Plug-In . SVG Version: 6.00 Build 0)  -->
<svg version="1.1" xmlns="http://www.w3.org/2000/svg" xmlns:xlink="http://www.w3.org/1999/xlink" x="0px" y="0px"
	 viewBox="0 0 1024 1024" style="enable-background:new 0 0 1024 1024;" xml:space="preserve">
<g id="Calque_2">
</g>
<g id="Calque_1">
	<g transform="translate(0,-952.36218)">
		<path d="M163.5,956.4C74.3,956.4,0,1026.5,0,1119.6c0,22.7,5.1,52.3,12.8,73c43.8,94.1,88,188.3,132,282.4
			c2.7,5.7,8.2,9.8,14.3,11.2l351.6,73.9l-198.9,208.1c-9.5,9.8-4.9,29,8,33.5c173.2,54,343.2,124,516.7,174.7
			c7.7,0,15.2-4.8,18.5-11.8c49.7-105.9,101.5-211.1,150.8-317.2c8.4-22.3,14.3-53.9,14.3-79.1c0-103.6-83.2-183.6-183.9-183.6
			c-100.8,0-183.3,80.1-183.3,183.6c0,25.2,6,56.8,14.3,79.1c43.1,91.1,86.7,182.3,130,273.5l-433.8-147.6L565.5,1562
			c10-10.4,3.7-31.1-10.5-34.1l-362.4-76.2c40.2-86.5,81.6-172.5,121.1-259.1c7.6-20.7,12.8-50.2,12.8-73
			C326.4,1026.5,252.8,956.4,163.5,956.4L163.5,956.4z M163.5,997.2c68.5,0,122.1,50.4,122.1,122.4c0,15.1-5.6,45.9-10.2,58.6
			c-37.2,79.9-74.8,159.8-112.2,239.7C126.7,1337.6,88.8,1260,51,1178.2c-4.7-12.7-10.2-43.5-10.2-58.6
			C40.8,1047.6,95,997.2,163.5,997.2z M163.2,1048.2c-39.2,0-71.4,32.2-71.4,71.4c0,39.2,32.2,71.4,71.4,71.4
			c39.2,0,71.4-32.2,71.4-71.4C234.6,1080.4,202.4,1048.2,163.2,1048.2z M163.2,1089c17.1,0,30.6,13.5,30.6,30.6
			c0,17.1-13.5,30.6-30.6,30.6c-17.1,0-30.6-13.5-30.6-30.6C132.6,1102.4,146.1,1089,163.2,1089z M836.1,1425.6
			c79.5,0,143.1,60.7,143.1,142.8c0,17.4-6.1,49.1-11.8,64.4c-43.4,91.8-87.3,183.6-131,275.4c-42.8-92.2-88.6-185.1-131-275.4
			c-5.7-15.4-11.8-47-11.8-64.4C693.6,1486.2,756.6,1425.6,836.1,1425.6L836.1,1425.6z M836.4,1476.6c-50.5,0-91.8,41.3-91.8,91.8
			c0,50.5,41.3,91.8,91.8,91.8c50.5,0,91.8-41.3,91.8-91.8C928.2,1517.9,886.9,1476.6,836.4,1476.6z M836.4,1517.4
			c28.4,0,51,22.6,51,51c0,28.4-22.6,51-51,51c-28.4,0-51-22.6-51-51C785.4,1540,808,1517.4,836.4,1517.4z"/>
	</g>
</g>
</svg>
