<?xml version="1.0" encoding="utf-8"?>
<!-- Generator: Adobe Illustrator 19.2.1, SVG Export Plug-In . SVG Version: 6.00 Build 0)  -->
<svg version="1.1" id="Calque_1" xmlns="http://www.w3.org/2000/svg" xmlns:xlink="http://www.w3.org/1999/xlink" x="0px" y="0px"
	 viewBox="0 0 1024 1024" enable-background="new 0 0 1024 1024" xml:space="preserve">
<path fill="#444444" d="M841.5,442.2c-68.6,0-125.6,0-185.7,0c0-138.8,0-274,0-412.2c-102.5,0-198.7,0-299.4,0
	c0,138.7,0,275.1,0,416c-61.1,0-117.8,0-181.4,0c113.3,135.1,221.3,264.1,331.9,396C616.5,711,725.7,580.5,841.5,442.2L841.5,442.2z
	"/>
<path fill="#444444" d="M915.3,888.3c-270.4,0-537,0-810.9,0c0-69.5,0-133.9,0-198.4c-37.8,0-71.4,0-104.3,0
	c0,103.9,0,204.4,0,305.8c342.8,0,683,0,1024,0c0-104.1,0-205.6,0-306c-37.3,0-71.2,0-108.7,0C915.3,757.1,915.3,821.6,915.3,888.3z
	"/>
</svg>
