<?xml version="1.0" encoding="utf-8"?>
<!-- Generator: Adobe Illustrator 19.2.1, SVG Export Plug-In . SVG Version: 6.00 Build 0)  -->
<svg version="1.1" id="Calque_1" xmlns="http://www.w3.org/2000/svg" xmlns:xlink="http://www.w3.org/1999/xlink" x="0px" y="0px"
	 viewBox="0 0 1024 1024" style="enable-background:new 0 0 1024 1024;" xml:space="preserve">
<g>
	<polygon points="299.5,540.2 516.3,757 733.1,540.2 703,510 537.6,675.3 537.6,0 495,0 495,675.3 329.6,510 	"/>
	<path d="M620.7,184.6v44.1C780.6,275.1,898,422.6,898,597.3c0,211.7-172.3,384-384,384s-384-172.3-384-384
		c0-174.7,117.4-322.2,277.3-368.6v-44.1c-183.9,47.4-320,214-320,412.7C87.3,833,278.4,1024,514,1024s426.7-191,426.7-426.7
		C940.7,398.6,804.6,232.1,620.7,184.6z"/>
</g>
</svg>
