<?xml version="1.0" encoding="utf-8"?>
<!-- Generator: Adobe Illustrator 19.2.1, SVG Export Plug-In . SVG Version: 6.00 Build 0)  -->
<svg version="1.1" id="Calque_1" xmlns="http://www.w3.org/2000/svg" xmlns:xlink="http://www.w3.org/1999/xlink" x="0px" y="0px"
	 viewBox="0 0 1024 1024" style="enable-background:new 0 0 1024 1024;" xml:space="preserve">
<path d="M93.1,93.2c-45,0-82.3,31.6-91.1,73.8l510,510l510-510c-8.8-42.3-46.1-73.8-91.1-73.8H93.1 M0,230.8v572.6l286.3-286.3
	L0,230.8 M1024,230.8L741.8,513L1024,795.1V230.7 M708.9,545.8L528.5,726.2c-9.1,9.1-23.8,9.1-32.9,0L319.3,549.9L4,865.1
	c11.6,38.1,47,65.7,89,65.7h837.8c44.4,0,81.3-30.8,90.7-72.3L708.9,545.8"/>
</svg>
