<?xml version="1.0" encoding="utf-8"?>
<!-- Generator: Adobe Illustrator 19.2.1, SVG Export Plug-In . SVG Version: 6.00 Build 0)  -->
<svg version="1.1" id="Calque_1" xmlns="http://www.w3.org/2000/svg" xmlns:xlink="http://www.w3.org/1999/xlink" x="0px" y="0px"
	 viewBox="0 0 1024 1024" enable-background="new 0 0 1024 1024" xml:space="preserve">
<path fill="#444444" d="M512,0C229.3,0,0,229.2,0,512s229.3,512,512,512c282.8,0,512-229.2,512-512S794.8,0,512,0z M820.1,284.4
	L514.5,518.8L209.4,284.4C209.4,284.4,820.1,284.4,820.1,284.4z M207.3,348.6l179.8,138.1L207.3,666.5L207.3,348.6L207.3,348.6
	L207.3,348.6z M208,739.5l220.8-220.8l85.7,65.8L600,519l220.5,220.5H208L208,739.5z M821.7,666.9L641.8,487l179.9-138V666.9z"/>
</svg>
