<?xml version="1.0" encoding="utf-8"?>
<!-- Generator: Adobe Illustrator 19.2.1, SVG Export Plug-In . SVG Version: 6.00 Build 0)  -->
<svg version="1.1" id="Calque_1" xmlns="http://www.w3.org/2000/svg" xmlns:xlink="http://www.w3.org/1999/xlink" x="0px" y="0px"
	 viewBox="0 0 1024 1024" enable-background="new 0 0 1024 1024" xml:space="preserve">
<path fill="#444444" d="M9.6,890.6c119.8-120.2,240.4-241.3,363-364.3c37.7,28.8,77.8,58,116.1,89.4c16.8,13.8,28.3,15.4,46,0.6
	c38.1-31.8,78.5-60.8,115.4-89c122.1,122,242.5,242.2,363.8,363.4C679.9,890.6,344.3,890.6,9.6,890.6L9.6,890.6z"/>
<path fill="#444444" d="M1020.5,136c-94.9,73-183,140.7-271.2,208.4c-72.2,55.4-144.6,110.7-216.8,166.3c-11.3,8.7-20.2,16-35.6,4.1
	C336.9,391,176.4,268,16,144.7c-1.6-1.2-2.3-3.4-5.6-8.6C345.7,136,678.7,136,1020.5,136L1020.5,136z"/>
<path fill="#444444" d="M294.6,465.9C194.3,566.6,97.6,663.8,0,761.9c0-170.6,0-342.1,0-522C102.2,318.3,199.7,393.1,294.6,465.9z"
	/>
<path fill="#444444" d="M730.4,465.4c93.4-71.6,191-146.4,293.6-225c0,179.3,0,351.4,0,521.5C927.4,664.3,830.5,566.4,730.4,465.4z"
	/>
</svg>
