<?xml version="1.0" encoding="utf-8"?>
<!-- Generator: Adobe Illustrator 18.0.0, SVG Export Plug-In . SVG Version: 6.00 Build 0)  -->
<svg version="1.1" id="Calque_1" xmlns="http://www.w3.org/2000/svg" xmlns:xlink="http://www.w3.org/1999/xlink" x="0px" y="0px"
	 viewBox="0 0 32 32" enable-background="new 0 0 32 32" xml:space="preserve">
<g>
	<path d="M15,20.8v11c0,0,0,0.1,0,0.1c0,0,0,0,0,0c0,0,0,0,0,0c0,0,0,0,0,0c0,0,0,0,0,0c0,0,0,0,0,0c0,0,0,0,0,0c0,0,0.1,0,0.1-0.1
		l2.8-2.8c0.1-0.1,0.2-0.4,0.2-0.5l0-7.8H15z"/>
	<path d="M20.8,10.2V5C22.1,4,23,2.4,23.3,0.6C23.3,0.3,23,0,22.7,0H10.5c-0.4,0-0.6,0.3-0.6,0.6C10.1,2.4,11.1,4,12.4,5v5.2
		c-3,1.5-5.2,4.5-5.4,8c0,0.4,0.3,0.6,0.6,0.6c6.3,0,11.6,0,17.9,0c0.4,0,0.6-0.3,0.6-0.6C25.9,14.7,23.8,11.7,20.8,10.2z
		 M18.5,10.2h-1.9V5h1.9V10.2z"/>
</g>
</svg>
