<?xml version="1.0" encoding="utf-8"?>
<!-- Generator: Adobe Illustrator 19.2.1, SVG Export Plug-In . SVG Version: 6.00 Build 0)  -->
<svg version="1.1" id="Calque_1" xmlns="http://www.w3.org/2000/svg" xmlns:xlink="http://www.w3.org/1999/xlink" x="0px" y="0px"
	 viewBox="0 0 1024 1024" style="enable-background:new 0 0 1024 1024;" xml:space="preserve">
<g>
	<g>
		<path d="M178.1,1024H44.5C19.9,1024,0,1004.1,0,979.5S19.9,935,44.5,935h133.6c24.6,0,44.5,19.9,44.5,44.5S202.7,1024,178.1,1024z
			"/>
	</g>
	<g>
		<path d="M178.1,890.4H44.5C19.9,890.4,0,870.5,0,845.9c0-24.6,19.9-44.5,44.5-44.5h133.6c24.6,0,44.5,19.9,44.5,44.5
			C222.6,870.5,202.7,890.4,178.1,890.4z"/>
	</g>
	<g>
		<path d="M178.1,756.9H44.5C19.9,756.9,0,736.9,0,712.3s19.9-44.5,44.5-44.5h133.6c24.6,0,44.5,19.9,44.5,44.5
			S202.7,756.9,178.1,756.9z"/>
	</g>
	<g>
		<path d="M178.1,623.3H44.5C19.9,623.3,0,603.4,0,578.8s19.9-44.5,44.5-44.5h133.6c24.6,0,44.5,19.9,44.5,44.5
			S202.7,623.3,178.1,623.3z"/>
	</g>
	<g>
		<path d="M178.1,489.7H44.5C19.9,489.7,0,469.8,0,445.2c0-24.6,19.9-44.5,44.5-44.5h133.6c24.6,0,44.5,19.9,44.5,44.5
			C222.6,469.8,202.7,489.7,178.1,489.7z"/>
	</g>
	<g>
		<path d="M445.2,1024H311.7c-24.6,0-44.5-19.9-44.5-44.5S287,935,311.7,935h133.6c24.6,0,44.5,19.9,44.5,44.5
			S469.8,1024,445.2,1024z"/>
	</g>
	<g>
		<path d="M445.2,890.4H311.7c-24.6,0-44.5-19.9-44.5-44.5c0-24.6,19.9-44.5,44.5-44.5h133.6c24.6,0,44.5,19.9,44.5,44.5
			C489.7,870.5,469.8,890.4,445.2,890.4z"/>
	</g>
	<g>
		<path d="M445.2,756.9H311.7c-24.6,0-44.5-19.9-44.5-44.5s19.9-44.5,44.5-44.5h133.6c24.6,0,44.5,19.9,44.5,44.5
			S469.8,756.9,445.2,756.9z"/>
	</g>
	<g>
		<path d="M445.2,623.3H311.7c-24.6,0-44.5-19.9-44.5-44.5s19.9-44.5,44.5-44.5h133.6c24.6,0,44.5,19.9,44.5,44.5
			S469.8,623.3,445.2,623.3z"/>
	</g>
	<g>
		<path d="M445.2,489.7H311.7c-24.6,0-44.5-19.9-44.5-44.5c0-24.6,19.9-44.5,44.5-44.5h133.6c24.6,0,44.5,19.9,44.5,44.5
			C489.7,469.8,469.8,489.7,445.2,489.7z"/>
	</g>
	<g>
		<path d="M445.2,356.2H311.7c-24.6,0-44.5-19.9-44.5-44.5c0-24.6,19.9-44.5,44.5-44.5h133.6c24.6,0,44.5,19.9,44.5,44.5
			C489.7,336.2,469.8,356.2,445.2,356.2z"/>
	</g>
	<g>
		<path d="M445.2,222.6H311.7c-24.6,0-44.5-19.9-44.5-44.5s19.9-44.5,44.5-44.5h133.6c24.6,0,44.5,19.9,44.5,44.5
			S469.8,222.6,445.2,222.6z"/>
	</g>
	<g>
		<path d="M445.2,89H311.7c-24.6,0-44.5-19.9-44.5-44.5S287,0,311.7,0h133.6c24.6,0,44.5,19.9,44.5,44.5S469.8,89,445.2,89z"/>
	</g>
	<g>
		<path d="M712.3,1024H578.8c-24.6,0-44.5-19.9-44.5-44.5s19.9-44.5,44.5-44.5h133.6c24.6,0,44.5,19.9,44.5,44.5
			S737,1024,712.3,1024z"/>
	</g>
	<g>
		<path d="M712.3,890.4H578.8c-24.6,0-44.5-19.9-44.5-44.5c0-24.6,19.9-44.5,44.5-44.5h133.6c24.6,0,44.5,19.9,44.5,44.5
			C756.9,870.5,737,890.4,712.3,890.4z"/>
	</g>
	<g>
		<path d="M712.3,756.9H578.8c-24.6,0-44.5-19.9-44.5-44.5s19.9-44.5,44.5-44.5h133.6c24.6,0,44.5,19.9,44.5,44.5
			S737,756.9,712.3,756.9z"/>
	</g>
	<g>
		<path d="M979.5,1024H845.9c-24.6,0-44.5-19.9-44.5-44.5s19.9-44.5,44.5-44.5h133.6c24.6,0,44.5,19.9,44.5,44.5
			S1004.1,1024,979.5,1024z"/>
	</g>
	<g>
		<path d="M979.5,890.4H845.9c-24.6,0-44.5-19.9-44.5-44.5c0-24.6,19.9-44.5,44.5-44.5h133.6c24.6,0,44.5,19.9,44.5,44.5
			C1024,870.5,1004.1,890.4,979.5,890.4z"/>
	</g>
	<g>
		<path d="M979.5,756.9H845.9c-24.6,0-44.5-19.9-44.5-44.5s19.9-44.5,44.5-44.5h133.6c24.6,0,44.5,19.9,44.5,44.5
			S1004.1,756.9,979.5,756.9z"/>
	</g>
	<g>
		<path d="M979.5,623.3H845.9c-24.6,0-44.5-19.9-44.5-44.5s19.9-44.5,44.5-44.5h133.6c24.6,0,44.5,19.9,44.5,44.5
			S1004.1,623.3,979.5,623.3z"/>
	</g>
	<g>
		<path d="M979.5,489.7H845.9c-24.6,0-44.5-19.9-44.5-44.5c0-24.6,19.9-44.5,44.5-44.5h133.6c24.6,0,44.5,19.9,44.5,44.5
			C1024,469.8,1004.1,489.7,979.5,489.7z"/>
	</g>
	<g>
		<path d="M979.5,356.2H845.9c-24.6,0-44.5-19.9-44.5-44.5c0-24.6,19.9-44.5,44.5-44.5h133.6c24.6,0,44.5,19.9,44.5,44.5
			C1024,336.2,1004.1,356.2,979.5,356.2z"/>
	</g>
</g>
</svg>
