<?xml version="1.0" encoding="utf-8"?>
<!-- Generator: Adobe Illustrator 21.1.0, SVG Export Plug-In . SVG Version: 6.00 Build 0)  -->
<svg version="1.1" id="icone" xmlns="http://www.w3.org/2000/svg" xmlns:xlink="http://www.w3.org/1999/xlink" x="0px" y="0px"
	 viewBox="0 0 1024 1024" style="enable-background:new 0 0 1024 1024;" xml:space="preserve">
<g>
	<g>
		<rect x="275.6" y="936.5" width="474.4" height="76.6"/>
	</g>
	<g>
		<path d="M986.3,142.9c-10.6-31.9-40.4-55.4-83-61.7c-21.3-4.3-44.6-2.1-63.9,4.3l0,0c4.3-44.6,4.3-74.5,4.3-74.5H179.9
			c0,0,0,27.6,4.3,74.5l0,0c-19.1-6.4-42.5-8.5-63.9-4.3c-42.5,8.5-72.4,29.8-83,61.7c-12.8,36.1-6.4,100,89.3,204.2
			c40.4,44.6,89.4,85.1,185.1,134l0,0c27.6,40.4,59.6,80.9,100,114.9c19.1,14.9,36.1,34,49,55.4c29.8,49,51.1,129.7-74.5,187.2l0,0
			v46.9h257.5v-46.9l0,0c-125.5-57.5-104.2-138.2-74.5-187.2c12.8-21.3,29.8-38.3,49-55.4c40.4-34,72.4-72.4,100-114.9l0,0
			c95.7-48.8,144.7-89.3,185.1-134C994.8,245,999,179,986.3,142.9z M160.7,332.3c-66-70.2-95.7-134-80.9-170.2
			c6.4-21.3,27.6-36.1,55.4-40.4c6.4,0,12.8-2.1,17-2.1c12.8,0,23.4,2.1,34,4.3c10.6,78.7,31.9,191.5,83,295.7
			C216.1,387.5,186.2,359.9,160.7,332.3z M860.8,332.3c-23.4,25.5-55.4,55.4-110.6,89.4c51.1-106.4,74.5-217,83-295.7
			c10.6-4.3,21.3-4.3,34-4.3c6.4,0,12.8,0,17,2.1c27.6,4.3,49,19.1,55.4,38.3C954.4,198.2,924.5,259.9,860.8,332.3z"/>
	</g>
</g>
</svg>
