<?xml version="1.0" encoding="utf-8"?>
<!-- Generator: Adobe Illustrator 21.1.0, SVG Export Plug-In . SVG Version: 6.00 Build 0)  -->
<svg version="1.1" id="Calque_1" xmlns="http://www.w3.org/2000/svg" xmlns:xlink="http://www.w3.org/1999/xlink" x="0px" y="0px"
	 viewBox="0 0 1024 1024" style="enable-background:new 0 0 1024 1024;" xml:space="preserve">
<g transform="translate(0,-952.36218)">
	<path d="M809.3,1940.5c21.5-2.7,36.8-22.4,34.2-44.1c-0.1-0.6-0.2-1.2-0.3-1.7L793.1,1588l219.3-218.6
		c15.4-15.4,15.5-40.4,0.3-55.9c-5.9-6-13.6-9.9-21.8-11.2l-305.2-47l-138.3-278c-9.7-19.5-33.3-27.4-52.7-17.6
		c-7.5,3.8-13.6,10-17.4,17.6l-138.3,278l-305.2,47c-21.4,3.4-36.1,23.6-32.7,45.2c1.3,8.3,5.2,16.1,11.2,22L231.3,1588l-50.1,306.8
		c-3.6,21.5,10.8,41.9,32.2,45.6c8.5,1.4,17.2,0,24.9-4l274-142.9l274,142.9C793.3,1940,801.3,1941.5,809.3,1940.5L809.3,1940.5z
		 M784,1877.9l-251.4-131c-12.8-6.7-28.1-6.7-40.9,0l-251.4,131l46.1-281.4c2.3-14.3-2.4-28.8-12.6-39L72.5,1356.8l279.7-42.5
		c14.3-2.1,26.6-11.1,33.1-24.1l127-255.1l127,255.1c6.5,13,18.8,22,33.1,24.1l279.7,42.5l-201.4,200.7
		c-10.2,10.2-14.9,24.7-12.6,39C737.9,1596.5,784,1877.9,784,1877.9z"/>
</g>
</svg>
