<?xml version="1.0" encoding="utf-8"?>
<!-- Generator: Adobe Illustrator 19.2.1, SVG Export Plug-In . SVG Version: 6.00 Build 0)  -->
<svg version="1.1" id="Calque_1" xmlns="http://www.w3.org/2000/svg" xmlns:xlink="http://www.w3.org/1999/xlink" x="0px" y="0px"
	 viewBox="0 0 1024 1024" enable-background="new 0 0 1024 1024" xml:space="preserve">
<path fill="#444444" d="M975.2,333H48c-48,0-48,22.4-48,51.2l41.6,460.4c3.2,28.8,9.6,51.2,57.6,51.2H924c48,0,54.4-22.4,57.5-51.2l41.6-463.6
	C1026.3,355.4,1023.1,333,975.2,333z M940,233.9c-6.4-22.4-32-41.6-60.7-41.6H530.7c-28.8,0-67.1-16-89.5-35.2l-32-28.8
	C393.3,106,351.7,90,322.9,90H156.7c-25.6,0-54.4,22.4-57.6,51.2L86.3,275.4h866.4L940,233.9z"/>
</svg>
