<?xml version="1.0" encoding="utf-8"?>
<!-- Generator: Adobe Illustrator 19.2.1, SVG Export Plug-In . SVG Version: 6.00 Build 0)  -->
<svg version="1.1" id="Calque_1" xmlns="http://www.w3.org/2000/svg" xmlns:xlink="http://www.w3.org/1999/xlink" x="0px" y="0px"
	 viewBox="0 0 1024 1024" enable-background="new 0 0 1024 1024" xml:space="preserve">
<path fill="#444444" d="M126.8,257.5l190.8,190.8l129.7-129.8L256.6,127.7L383.8,0.6L1.1,0l0.6,382.7L126.8,257.5L126.8,257.5z
	 M897.3,766.4L706.5,575.7L576.8,705.4l190.8,190.8l-127.2,127.2l382.7,0.6l-0.6-382.7L897.3,766.4L897.3,766.4z M641.3,1.6
	l125.2,125.2L575.7,317.5l129.7,129.7l190.8-190.7l127.2,127.2L1024,1L641.3,1.6L641.3,1.6z M318.6,576.7L127.8,767.4L0.5,640.3
	L0,1023l382.7-0.6L257.5,897.2l190.8-190.7C448.3,706.5,318.6,576.7,318.6,576.7z"/>
</svg>
