<?xml version="1.0" encoding="utf-8"?>
<!-- Generator: Adobe Illustrator 19.2.1, SVG Export Plug-In . SVG Version: 6.00 Build 0)  -->
<svg version="1.1" id="Calque_1" xmlns="http://www.w3.org/2000/svg" xmlns:xlink="http://www.w3.org/1999/xlink" x="0px" y="0px"
	 viewBox="0 0 1024 1024" style="enable-background:new 0 0 1024 1024;" xml:space="preserve">
<style type="text/css">
	.st0{fill:#444444;}
</style>
<path class="st0" d="M321.6,190.8L130.8,0L1.1,129.8l190.7,190.8L64.6,447.7l382.7,0.6l-0.6-382.7L321.6,190.8L321.6,190.8z
	 M702.6,833.3L893.4,1024l129.7-129.7L832.3,703.5l127.2-127.2l-382.7-0.6l0.6,382.7L702.6,833.3L702.6,833.3z M958.4,446.6
	L833.2,321.4L1024,130.7L894.3,1L703.5,191.7L576.3,64.5l-0.6,382.7L958.4,446.6L958.4,446.6z M129.7,1023l190.8-190.7l127.3,127.1
	l0.5-382.7l-382.7,0.6l125.2,125.2L0,893.2L129.7,1023z"/>
</svg>
