<svg id="icon-gift" xmlns="http://www.w3.org/2000/svg" viewBox="0 0 1024 1024"><title>icon-gift</title><path d="M547,562v456.34H912a40,40,0,0,0,40-40V562Z"/><path d="M477,562H72V978.34a40,40,0,0,0,40,40H477Z"/><path d="M944,292H80A80,80,0,0,0,0,372v80a40,40,0,0,0,40,40H984a40,40,0,0,0,40-40V372A80,80,0,0,0,944,292Z"/><path d="M683.41,9,557.25,238.28a15,15,0,0,0,15.77,22l323.69-57.63a15,15,0,0,0,7.21-26.09L706.39,4.94A15,15,0,0,0,683.41,9Z"/><path d="M371.94,105.93,263,197.37a15,15,0,0,0,6.82,26.22L446,257.41a15,15,0,0,0,16-21.83L394.8,110.32A15,15,0,0,0,371.94,105.93Z"/></svg>