<?xml version="1.0" encoding="utf-8"?>
<!-- Generator: Adobe Illustrator 19.1.0, SVG Export Plug-In . SVG Version: 6.00 Build 0)  -->
<svg version="1.1" id="Calque_1" xmlns="http://www.w3.org/2000/svg" xmlns:xlink="http://www.w3.org/1999/xlink" x="0px" y="0px"
	 viewBox="206 -116 1024 1024" style="enable-background:new 206 -116 1024 1024;" xml:space="preserve">
<g>
	<g>
		<path d="M1159.7-116H275c-37.8,0-67.4,29.6-67.4,67.4s29.6,67.4,67.4,67.4h886.3c37.8,0,67.4-29.6,67.4-67.4
			C1227.1-86.4,1197.5-116,1159.7-116z"/>
		<path d="M1159.7,770.3H275c-37.8,0-67.4,29.6-67.4,67.4c0,37.8,29.6,67.4,67.4,67.4h886.3c37.8,0,67.4-29.6,67.4-67.4
			C1227.1,799.9,1197.5,770.3,1159.7,770.3z"/>
		<path d="M1159.7,326.3H275c-37.8,0-67.4,29.6-67.4,67.4c0,37.8,29.6,67.4,67.4,67.4h886.3c37.8,0,67.4-29.6,67.4-67.4
			C1227.1,355.9,1197.5,326.3,1159.7,326.3z"/>
	</g>
</g>
</svg>
