<?xml version="1.0" encoding="utf-8"?>
<!-- Generator: Adobe Illustrator 22.1.0, SVG Export Plug-In . SVG Version: 6.00 Build 0)  -->
<svg version="1.1" id="Capa_1" xmlns="http://www.w3.org/2000/svg" xmlns:xlink="http://www.w3.org/1999/xlink" x="0px" y="0px"
	 viewBox="0 0 1024 1024" style="enable-background:new 0 0 1024 1024;" xml:space="preserve">
<g>
	<g>
		<g>
			<path d="M512,62C230.8,62,0,290.8,0,572v240c0,49.6,40.4,90,90,90h30V602H90c-10.6,0-20.6,2.2-30,5.5V572
				c0-248.1,203.9-450,452-450s452,201.9,452,450v35.5c-9.4-3.4-19.4-5.5-30-5.5h-30v300h30c49.6,0,90-40.4,90-90V572
				C1024,290.8,793.2,62,512,62z"/>
		</g>
	</g>
	<g>
		<g>
			<path d="M270,542h-30c-33.1,0-60,26.9-60,60v300c0,33.1,26.9,60,60,60h30c16.6,0,30-13.4,30-30V572C300,555.4,286.6,542,270,542z
				"/>
		</g>
	</g>
	<g>
		<g>
			<path d="M784,542h-30c-16.6,0-30,13.4-30,30v360c0,16.6,13.4,30,30,30h30c33.1,0,60-26.9,60-60V602C844,568.9,817.1,542,784,542z
				"/>
		</g>
	</g>
</g>
</svg>
