<?xml version="1.0" encoding="utf-8"?>
<!-- Generator: Adobe Illustrator 19.1.0, SVG Export Plug-In . SVG Version: 6.00 Build 0)  -->
<svg version="1.1" id="Calque_1" xmlns="http://www.w3.org/2000/svg" xmlns:xlink="http://www.w3.org/1999/xlink" x="0px" y="0px"
	 viewBox="206 -116 1024 1024" style="enable-background:new 206 -116 1024 1024;" xml:space="preserve">
<path d="M1205.9,101.1c-31.4-80.2-91.3-141.7-168.7-173.1c-33.5-13.6-67.4-20.5-100.7-20.5c-111,0-188.6,74.3-218.9,109.1
	C687.5-18.4,610.2-93,499.3-93c-33.3,0-67.1,6.9-100.5,20.5c-77.4,31.5-137.4,93-168.7,173.1c-33.5,85.6-30.2,182.5,8.9,266
	c55.6,118.6,182.1,303.2,468.6,509.2l9.9,7.2l9.9-7.2c287.9-207,414.2-390.9,469.5-508.8C1236.2,283.6,1239.4,186.6,1205.9,101.1z"
	/>
</svg>
