<?xml version="1.0" encoding="utf-8"?>
<!-- Generator: Adobe Illustrator 21.1.0, SVG Export Plug-In . SVG Version: 6.00 Build 0)  -->
<svg version="1.1" id="Calque_1" xmlns="http://www.w3.org/2000/svg" xmlns:xlink="http://www.w3.org/1999/xlink" x="0px" y="0px"
	 viewBox="0 0 1024 1024" style="enable-background:new 0 0 1024 1024;" xml:space="preserve">
<path d="M511.8,0c-87.1,0.5-174.5,31.7-236.9,94.7c-62.3,62.9-97.8,157.8-81.7,278.4c2.1,34.5,19.9,70.1,43.8,110.3
	c24.3,40.7,56.1,85.8,89.1,133.7c65.6,95.1,136.1,201.5,163.4,298.9c11.6,29.5,38.8,29.7,46.8,0c27-97.5,95.1-199,159.3-292.2
	c64.5-93.5,126.4-176.5,134.8-253.2c0-0.2,0.3-0.5,0.4-0.7C846.7,249,811.3,154.4,749,92.1C686.5,29.7,598.8-0.5,511.8,0L511.8,0z
	 M512.1,47.5c75.9-0.4,151,26.3,203.1,78.3c52,52,82.6,129.2,67.9,238.3c0,0.2,0,0.5,0,0.7c-5.5,52.5-62.1,137.6-127,231.7
	C604.4,671.7,548.6,754,512.9,839.8c-36.5-87.3-94.7-173-147.8-249.9c-33.2-48.1-64.4-92.8-87.2-131.1c-22.8-38.3-36.2-71-37.1-89.5
	c0-0.7-0.3-1.2-0.4-1.9c-14.7-109,16.2-186.8,68.3-239.5C360.8,75.4,436.2,47.9,512.1,47.5L512.1,47.5z"/>
<path d="M412.2,816.1c-1.3,0-2.7,0.1-4,0.3c-48.7,6.6-90.4,17.3-122,32.2c-15.8,7.5-29.2,15.9-39.8,26.7
	c-10.5,10.8-18.5,25.3-18.5,41.4c0,21.5,13.4,38.9,29.9,51.4c16.5,12.5,37.6,22.1,62.9,30.2C371,1014.6,438,1024,511.9,1024
	s140.9-9.4,191.3-25.6c25.2-8.1,46.4-17.7,62.9-30.2c16.5-12.5,29.8-29.8,29.8-51.4c0-16-7.8-30.2-18.1-41
	c-10.3-10.7-23.5-19.2-39-26.6c-31-14.9-72-25.8-119.8-32.5c-6.2-1-12.8,0.6-17.8,4.4c-5,3.7-8.5,9.6-9.4,15.8
	c-0.9,6.2,0.8,12.8,4.7,17.8c3.8,5,9.7,8.4,15.9,9.1c44.4,6.3,81.7,16.7,105.8,28.3c60,26.8,4.4,50-29.5,61.1
	c-43.7,14-106.9,23.4-176.7,23.4s-133-9.3-176.7-23.4c-46.7-16.9-82-36.1-28.7-61.6c24.7-11.7,62.8-22,108.1-28.1
	c5.9-0.7,11.5-3.7,15.4-8.3c3.8-4.5,5.9-10.6,5.6-16.5c-0.3-5.9-2.9-11.7-7.2-15.9C424,818.7,418.2,816.2,412.2,816.1L412.2,816.1z"
	/>
<g>
	<path d="M309.9,326.7c-0.3-0.1-0.6-0.2-0.9-0.3C309.3,326.5,309.6,326.6,309.9,326.7z"/>
	<path d="M668.2,305.3c0-0.1,0-0.1,0-0.2c0-0.3,0-0.8-0.1-1.3c0-0.1,0-0.2,0-0.3c0-0.4-0.1-0.8-0.2-1.2c0-0.1,0-0.1,0-0.2
		c-0.1-0.5-0.2-1-0.3-1.4c-0.2-0.7-0.4-1.4-0.8-2.2c-1.2-3.1-3.1-6.1-5.1-9c0-0.1,0-0.2-0.1-0.3c-0.1-0.4-0.4-0.9-0.7-1
		c-0.1-0.2-0.2-0.5-0.3-0.7l0.1,0l-0.1-0.3c-0.4-1.4-0.8-2.5-2.1-3.5c-0.3-0.5-0.6-1.1-1-1.6c-1.8-2.7-3.3-5.9-5.4-8.4
		c-0.4-0.5-0.8-0.9-1.2-1.3c0-0.1-0.1-0.1-0.1-0.2c-0.3-0.5-1.7-2.3-2.8-3.7c-0.6-1.3-1.2-2.7-2.1-3.6c0,0,0,0,0,0
		c-0.3-0.9-0.5-1.7-0.7-2.6c0-0.2,0-0.4,0-0.6c0-0.7-0.1-1.4-0.3-2c0.1-0.1,0.1-0.2,0.1-0.3c0.2-0.2,0.3-0.5,0.3-0.8
		c0-0.4,0.1-1.3-0.5-1.2c-0.1-0.2-0.2-0.5-0.4-0.7c0-0.1,0-0.1,0-0.2c-0.1-0.2-0.4-0.6-0.7-0.7c0,0,0,0,0,0
		c-0.3-0.3-0.5-0.5-0.9-0.8c-0.1-0.2-0.2-0.3-0.5-0.3l-0.1,0c0,0,0,0,0,0c-0.7-0.4-1.4-0.7-2.1-0.7c-0.2,0-0.7,0.1-0.9,0.1
		c-0.1,0-0.2,0.1-0.3,0.1c-0.2-0.1-0.3-0.1-0.5-0.2c0.2-4.9-5.7-6.7-10-8.3c1.6,1.7,2.6,3.1,3.3,4.2c-2-1.1-4.4-1.9-6.4-2.7
		c1.7,1.8,2.7,3.2,3.4,4.4c-0.5-0.1-0.8,0-1.2,0.2c0,0,0.1-0.1,0.1-0.1c-0.7,0.3-1.2,1-1.5,1.9c0,0.1,0,0.2,0,0.2
		c-0.1,0.1-0.1,0.3-0.2,0.4c-0.4,0.7-0.2,1.1-1.4,0.4c-0.7-0.4-1-1.2-1.7-1.7c-0.9-0.7-2-0.8-3.1-0.9c-1.3-0.1-5.9,0.8-6.8-0.6
		c0.8,1.3,2.2,1.7,3.5,2.2c0.5,0.2,2.6,0.7,2.5,1.4c0,0.6-3.6,1.1-1.4,2.6c0.2-0.7,1-2,1.8-1.4c0.6,0.3,0.4,1.3,0.1,1.8
		c-0.1,0.2-0.2,0.3-0.4,0.4c0,0,0,0-0.1,0c-0.2,0.1-0.4,0.1-0.6,0.2c0,0-0.1,0-0.1,0c-0.1,0-0.2,0-0.3,0c-0.1,0-0.2,0-0.3,0
		c-0.1,0-0.2,0-0.3,0c-0.1,0-0.2-0.1-0.3-0.1c-0.1,0-0.2-0.1-0.2-0.1c-0.1-0.1-0.2-0.1-0.3-0.2c-0.1,0-0.1-0.1-0.2-0.1
		c-0.1-0.1-0.2-0.1-0.3-0.2c-0.1,0-0.1-0.1-0.2-0.1c-0.1-0.1-0.1-0.1-0.2-0.2c-0.1-0.1-0.1-0.1-0.2-0.2c-0.6-0.7-0.7-1.7-0.2-2.5
		c-0.2,0.1-0.3,0.2-0.4,0.3c-1.4,0.7-1.4,3.3-2,4.5c-0.1,0.2-0.2,0.4-0.3,0.5c-0.8,1.1-2,1.4-2.9,0.3c-0.1-0.1-0.1-0.2-0.2-0.3
		c-0.8-1.7-0.3-6.4,2.1-6.8c-0.4,0-0.8,0.1-1.1,0.2c0,0,0,0,0.1,0c0,0-0.1,0-0.1,0.1c-0.1,0-0.2,0.1-0.3,0.2
		c-0.1,0.1-0.2,0.1-0.3,0.2c-0.1,0.1-0.2,0.1-0.3,0.2c-0.1,0.1-0.3,0.3-0.4,0.4c0,0.1-0.1,0.1-0.1,0.1c-0.1,0.2-0.3,0.4-0.4,0.6
		c0,0,0,0,0,0.1c-0.2,0.3-0.3,0.6-0.4,1c-0.1,0.2-0.1,0.3-0.1,0.5c0,0.2-0.1,0.3-0.1,0.5c0,0.1-0.1,0.2-0.1,0.3c0,0.1,0,0.1,0,0.2
		c0,0.1,0,0.1,0,0.2c0,0.5,0.2,1.4,0.2,2.2c-0.1,0.2-0.2,0.3-0.4,0.4c-0.7,0.2-1.6-0.3-2.2-0.5c-0.8-0.3-1.4-0.5-2.2-0.5
		c-0.1,0-0.2-0.1-0.2-0.1c-2.1-0.9-3.6-0.8-5.5-0.3c0.6,0.1,1.2,0.1,1.7,0.1c0,0,0,0,0,0c0.5,0,1,0,1.4,0.1c0,0,0.1,0,0.1,0
		c0.2,0,0.3,0.1,0.5,0.1c0.1,0,0.1,0,0.2,0c0.2,0.1,0.4,0.2,0.6,0.3c0.4,0.2,1.7,1,0.9,1.5c0,0-0.1,0-0.2,0c0,0-0.1,0-0.1,0
		c-0.6-0.1-1.9-0.8-3.5-0.7c0.5,0.1,2.1,0.7,1.9,0.9c-0.2,0.3-1,0-1.3,0c-0.7-0.1-1.3-0.4-2-0.6c-0.7-0.2-1.6-0.1-2.4-0.1
		c0.4,0,0.9,0,1.3,0.1c0.4,0.1,0.7,0.2,1.1,0.3c0.2,0.1,0.4,0.2,0.6,0.3c0.2,0.1,0.5,0.2,0.7,0.3c0.4,0.1,0.9,0.2,1.2,0.5
		c0.3,0.3,0.5,0.9-0.1,0.8c-0.3,0-0.6-0.3-0.9-0.4c-0.3-0.1-0.7,0-0.9-0.1c0.8,0.3,1.8,0.6,1.6,1.7c0,0.1,0,0.2-0.1,0.3
		c0,0,0,0.1-0.1,0.1c0,0.1-0.1,0.1-0.1,0.1c0,0-0.1,0.1-0.1,0.1c0,0-0.1,0-0.1,0.1c-0.1,0-0.1,0-0.2,0.1c0,0-0.1,0-0.1,0
		c-0.1,0-0.1,0-0.1,0c-0.1,0-0.1,0-0.2,0c-0.2-0.1-0.3-0.2-0.5-0.3c0,0,0.1,0,0.1,0.1c0,0-0.1-0.1-0.1-0.1c0,0,0,0,0,0c0,0,0,0,0,0
		c0,0,0,0,0,0c-0.2-0.2-0.3-0.4-0.5-0.5c-0.5-0.7-0.6-1.5-0.5-2.3c-0.2,0.5-0.4,1.1-0.3,1.7c0.1,0.4,0.3,1.1-0.2,1.3
		c-0.4,0.2-2.5-1.1-4.6-1.3c-0.7-0.1-1.4,0.1-2,0.4c0,0,0,0,0,0c0,0-0.1,0-0.1,0c1.1,0.3,8.6,3.2,4.9,4.5c-0.2,0.1-0.3,0.1-0.5,0.1
		c-0.1,0-0.1,0-0.2,0c-0.1,0-0.2,0-0.3,0c-0.1,0-0.1,0-0.2,0c-0.1,0-0.2,0-0.3-0.1c0,0-0.1,0-0.1,0c-0.1,0-0.3-0.1-0.4-0.2
		c0,0,0,0-0.1,0c-0.1-0.1-0.2-0.1-0.4-0.2c0,0-0.1-0.1-0.1-0.1c-0.1-0.1-0.2-0.1-0.3-0.2c0,0-0.1,0-0.1-0.1
		c-0.3-0.2-0.5-0.4-0.8-0.5c-1.4-0.9-2.9-1.7-4.6-2c-1.5-0.3-2.9-0.7-4.4-1c-0.7-0.1-1.8-0.4-2.5-0.2c1,0.2,2.1,0.3,3.1,0.6
		c1,0.3,1.9,0.7,2.9,1.1c0.7,0.3,1.4,0.5,2.1,0.9c0.3,0.1,1.2,0.7,0.3,0.8c-0.4,0-0.8-0.3-1.1-0.4c-0.7-0.3-1.4-0.6-2.2-0.9
		c-0.1-0.1-0.3-0.1-0.4-0.2c0,0,0,0,0,0c0,0,0,0-0.1,0c0.1,0.1,0.2,0.2,0.4,0.3c0.2,0.2,0.4,0.3,0.6,0.4c0.2,0.1,0.3,0.2,0.5,0.4
		c0.4,0.3,0.9,0.6,1.3,0.9c0.1,0.1,0.2,0.1,0.3,0.2c0.4,0.3,0.7,0.6,1.1,0.9c0.2,0.2,0.6,0.6,0.3,0.8c-0.3,0.2-1-0.3-1.2-0.5
		c-0.8-0.7-1.6-1.2-2.6-1.7c-1.8-1-3.8-1.7-5.8-2.3c-0.5-0.1-1-0.2-1.5-0.3c-0.8-0.1-1.6-0.3-2.4-0.6c-0.4-0.2-0.7-0.4-1.1-0.6
		c0.7,0.6,1.5,1,2.4,1.2c1.1,0.2,2.1,0.4,3.1,0.9c0.1,0.1,0.3,0.1,0.4,0.2c0.1,0,0.2,0,0.3,0.1c0.8,0.4,1.6,0.7,2.3,1.1
		c0.9,0.4,1.8,0.6,2.4,1.3c0.6,0.6,0.7,1.6-0.4,1.3c-0.9-0.3-1.4-1.1-2.2-1.6c0,0,0,0,0,0c0,0,0,0,0,0c-0.8-0.5-1.8-0.9-2.7-1.3
		c-0.8-0.3-1.5-0.4-2.3-0.4c-1.8-0.5-3.7-1-5.4-1.3c1-4.1,1.8-8.2,2-10.1c0.1-1.2,0.2-2.3,0.2-3.3l1-0.5l-1,0.3c0-0.1,0-0.2,0-0.4
		l0.8-0.3l1.9,0.1l0.1-0.4l0.1,0.3c0,0.4,1.8,1.6,1.9,1.5l0,0c0,0,0.1,0,0.1,0l2.5,1.9c0,0,0,0,0,0l0.2,0.1l2.6-2.7l0.7-0.3l0.2-0.6
		l0.9-0.2l1-1.2l1.4,1.1l1.8-4.7l0.2,0.1l2.9-3.4c0,0,0,0,0-0.1l5.8,1.8l1.4,0.6l0.4-0.4l-5.1-5.3c0.4-5.9-0.4-9.7-3-12.5
		c0,0,0.1,0,0.1,0.1c-0.1-0.1-0.3-0.3-0.5-0.5c0,0,0,0,0,0c-0.2-0.2-0.5-0.5-0.8-0.7c-0.1-0.1-0.1-0.1-0.2-0.2c-2-1.5-4.7-3-6.6-3.3
		c-6.7-0.5-10.9,2.6-13,6.9c-0.2,0-0.5,0.8-0.4,0.9l0,0c-0.2,0.4-0.3,0.8-0.5,1.2c0,0.1-0.1,0.3-0.2,0.6c-0.2,0.6-0.4,1.2-0.5,1.7
		c0,0.1,0,0.2-0.1,0.2c0,0,0,0,0,0c0,0.2-0.1,0.4-0.1,0.6c0,0,0,0,0,0c0,0.6,0.1,1.1,0.3,1.6c-1.9-0.7-4.2-1.2-6-1.5
		c-0.2,0-0.3-0.1-0.5-0.1c-3-0.5-6.4-0.7-9.7-0.3c-1.6,0.2-3.2,0.5-4.8,1.1c-0.4,0.1-0.9,0.2-1.3,0.4c-0.4,0.1-0.7,0.2-1.1,0.3
		l-0.1,0c-2.1,0.6-4.3,1.4-6.4,2.1l-0.1,0.2c-1.2,0.4-2.3,0.8-3.5,1.3c-0.3,0.1-0.7,0.2-1,0.4l-0.1-0.1c-2.5,0.9-4.9,1.7-7.3,2.4
		c-1.1,0.1-2.2-0.4-3.1,0.3c-0.1,0.1-0.2,0.2-0.3,0.3l0,0c0,0,0,0.1-0.1,0.1c-0.1,0.2-0.3,0.4-0.5,0.5c0,0-0.1,0-0.1,0
		c-0.3,0-0.6-0.1-1-0.3c0,0,0,0,0,0c0,0-0.1,0-0.1-0.1c-0.3-0.1-0.5-0.2-0.7-0.2c-0.7,0.1-1.3,0.6-1.8,1c0,0,0,0,0,0
		c-0.1,0-0.2,0-0.2,0.1l-0.1,0.1c-0.3,0.3-0.6,0.6-0.8,0.9c0,0-0.1,0.1-0.1,0.1c-0.1,0.1-0.1,0.1-0.2,0.2c-0.1,0.1-0.2,0.2-0.3,0.3
		c-0.1,0.1-0.2,0.2-0.3,0.2c-0.1,0.1-0.2,0.1-0.3,0.2c-0.1,0.1-0.3,0.2-0.4,0.2c-0.8,0.3-1.6,0.4-2.4,0.6c-0.3,0.1-0.6,0.2-0.9,0.3
		c0,0,0,0,0,0c-0.9,0.5-1.3,1.2-2.2,1.7c-0.9,0.5-1.9,0.4-2.8,0.5c-0.2,0-0.4,0.1-0.6,0.2c-1.2,0.5-1.7,1.8-0.7,2.7
		c0.5,0.4,1,0.7,1.6,1.1c0,0,0,0,0.1,0c0,0-0.1,0.1-0.1,0.1c-0.4-0.3-0.7-0.6-1.1-0.8c0,0.5,0.2,0.9,0.5,1.4c-1.3,1.4-2.7,3-4,4.7
		c-4.1,5.2-3.2,12.3-0.2,14.7c0.2,0.1,0.4,0.2,0.6,0.3c0,0,0,0,0,0c0,0,5.3,7.1,14,9.9c0.2,0.1,0.3,0.1,0.5,0.2
		c0.7,0.3,1.5,0.6,2.3,0.9c3.6,1.2,6.6,2,9.6,2.7c-0.1,0-0.2,0-0.3,0c-0.4,0-0.7,0.1-1.1,0.1c-0.1,0-0.3,0-0.4,0.1
		c-0.5,0.1-0.9,0.2-1.4,0.3c0,0-0.1,0-0.2,0c-0.4,0.1-0.8,0.2-1.2,0.4c-0.1,0-0.2,0.1-0.4,0.1c-0.3,0.1-0.7,0.3-1,0.4
		c-0.1,0-0.2,0.1-0.3,0.1c-0.4,0.2-0.8,0.4-1.2,0.6c0,0-0.1,0-0.1,0c-0.4,0.2-0.8,0.4-1.2,0.6c0,0-0.1,0-0.1,0c-1,0.5-1.9,1-2.9,1.5
		c-0.2,0.1-0.4,0.2-0.6,0.3c-0.2,0.1-0.4,0.2-0.6,0.3c-0.3,0.1-0.5,0.2-0.8,0.4c-0.2,0.1-0.3,0.1-0.5,0.2c-2.4,1-5.1,1.7-8.5,1.8
		c-8.7,0.5-16.8-3.9-21.9-12.7c-0.6-0.9-2.2-3.3-3.4-3.3c-0.2,0-0.3,0-0.4,0.1l0,0c0,0,0,0,0,0c0,0-0.1,0.1-0.1,0.1
		c-0.1,0.1-0.1,0.1-0.2,0.2c0,0,0,0.1-0.1,0.2c0,0,0,0.1-0.1,0.1c0,0,0,0.1,0,0.1c0,0.1,0,0.1,0,0.2c0,0,0,0.1,0,0.1
		c0,0.1,0,0.1,0,0.2c0,0.1,0,0.1,0,0.2c0,0,0,0.1,0,0.1c0,0.1,0,0.2,0,0.3c0,0.1,0,0.2,0,0.3c0,0.1,0,0.1,0,0.2c0,0,0,0.1,0,0.1
		c0,0.1,0,0.2,0,0.3c0,0.1,0,0.1,0,0.2c0,0,0,0,0,0c0,0.1,0,0.2,0,0.3c0,2.3,1.1,4.7,1.1,7.1c-0.1,0.4-0.1,0.9-0.1,1.3
		c0,0.1,0,0.2,0,0.3c0,0.3,0.1,0.6,0.1,0.8c0,0.1,0.1,0.1,0.1,0.2c-0.6-0.1-1.1-0.2-1.6-0.3c-0.4-0.1-0.7-0.2-1-0.2h0
		c-1.2-0.3-2.2-0.5-3.1-0.7c-0.2,0-0.3-0.1-0.5-0.1c-3.5-0.8-5.2-1.1-6.3-1c-0.4,0-0.8,0.2-1.3,0.5c0,0,0,0,0,0c0,0,0,0,0,0
		c-0.1,0-0.1,0-0.2,0c-0.2,0-0.4-0.1-0.5-0.1c-5.5-0.8-21.9-1.2-28.5-1.2c-10.7-0.1-20.1,2.8-27.5,7.6c-2.2,0.9-4.5,2.4-6.4,3.7
		c-2.2,1.5-4.5,2.7-6.8,4.2c-7.9,5.2-16.5,2.2-25.2,2.1c-3.2,0-6.5-1-9.7-1.7c-1.7-0.4-3.8-0.4-5.8-0.3c-1.5,0.1-3.1,0.3-4.4,0.4
		c-2.6,0.3-4.9,0.6-7.5,0.5c-4.7-0.2-10.5-0.5-13.1-5.2c0-0.1,0-0.2,0.1-0.3l-0.2,0.1c0,0,0,0,0,0c-0.4,1.3-0.5,2.9-0.1,4.3
		c0,0,0,0,0,0c0,0.3,0.2,0.6,0.3,0.9c0.6,1.4,1.8,2.5,3.7,2.6c-2.6,0-4.2-0.6-6.4-1.3c0,0,0,0-0.1-0.1c-0.1-0.1-0.1-0.2-0.2-0.3
		c0,0.9,0.1,1.6,0.6,2.3c0,0,0,0,0.1,0.1c0.5,0.7,1.1,1.3,1.8,1.5c-0.7-0.3-3.5-0.2-4.1,0.1c-1,0.5-1.2,1.1-1.1,2.2
		c-0.3,0-0.6,0.1-1,0.1c-0.1,0-0.1-0.1-0.2-0.1l-0.1-0.2c0,0.1,0,0.2,0.1,0.3c0,0-0.1,0-0.1,0c0,0.2,0.1,0.5,0.2,0.7
		c-0.7,0-1.3-0.3-1.9-0.5c-0.1-0.1-0.3-0.1-0.4-0.2h-0.2c0.1,0,0.2,0.1,0.3,0.1c0.5,0.5,1,1,1.4,1.6c-0.9,0-1.7,0-2.5-0.2l-0.4-0.2
		c0,0,0,0,0,0c0,0,0.1,0,0.1,0c0,0-0.1,0-0.1,0c0,0,0,0,0,0c-0.1-0.1-0.3-0.1-0.4-0.2c0.3,0.7,0.7,1.1,1.3,1.5c0,0,0.1,0,0.1,0.1
		c1,1.1,2.2,2.1,3.7,2c-1.3,0.8-2.7,0.9-4,1.3c1.8,1.3,4.9,1.8,7.1,1.7c2.9-0.1,5.8-0.9,8.5-2c0,0,0,0,0.1,0c-2,0.8-3.8,1.5-5.7,2.6
		c0,0-0.1,0-0.1,0c0,0,0.1,0,0.1,0c0,0,0,0,0,0c-1.9,1.2-4.3,1.6-6.5,1.6c-2.4,0-4.3,0-6.5-1.3c-1.5-0.9-3.3-2.4-4-4.2
		c0-0.2-0.1-0.3-0.1-0.5c0,0,0,0,0,0c0,0,0,0,0,0c0,0,0,0,0,0c0-0.1,0-0.1,0-0.2l0-0.1c0,0,0,0,0,0c0,0,0,0,0,0l0-0.1
		c0,0.1,0,0.1,0.1,0.2c0,0.2,0.1,0.5,0.1,0.8c0.2,1.2,0.4,2.5,0.8,3.6c0.6,1.9,1.4,3.6,3.1,4c-2.8-0.4-5.8-0.8-8.1-2.5c0,0,0,0,0,0
		l0,0c0,0,0,0,0,0.1c0,0,0,0,0,0c0.2,2,1.8,3.2,3.2,4.3c0.1,0.1,0.2,0.2,0.3,0.3c0.2,0.2,0.4,0.4,0.7,0.6c-1.7,0.6-4,0.5-5.8,0.7
		c-1.4,0.2-2.8,0.5-4.1,0.2c1,0.3,2.1,0.7,3.1,1c0.3,0.1,0.7,0.2,1.1,0.3c1,0.4,2.1,0.7,3.2,0.8c0.3,0,0.5,0.1,0.8,0.1
		c0.6,0.1,1.2,0.2,1.8,0.2c0.8,0.1,1.7,0,2.5-0.1c0.7,0,1.3,0,2.1-0.2c0.3,0,0.5-0.1,0.8-0.1c0.5,0,1.1-0.1,1.6,0
		c-1.1,1.5-6.1,1.5-7.9,1.6c-2.3,0.2-4.6-0.5-6.8-0.4c0.1,0,0.1,0.1,0.2,0.1c0,0,0,0,0,0c0.1,0,0.1,0.1,0.2,0.1
		c0.1,0,0.1,0.1,0.2,0.1l0,0c0,0,0,0,0,0c0.5,0.4,0.9,0.9,1.4,1.2c0.9,0.5,1.8,1.2,2.8,1.7c4.1,2.2,9.2,2.2,13.7,1.3
		c1.6-0.3,3-0.7,4.5-1.4c1-0.5,4-1.7,4.6-2.6c-0.9,1.5-2.8,2.6-4.2,3.5c-1.4,0.8-4,2.4-5.6,2.4c0.4,0,0.8-0.1,1.3-0.1
		c-0.4,0.1-0.8,0.2-1.2,0.2c0.9,0,1.8-0.2,2.7-0.5c1.5-0.3,2.9-0.8,4.3-1.4c2-0.9,4.2-3.8,6.3-4.1c-2,2.4-5.2,5.3-5.7,8.6
		c-0.1,0.1-0.2,0.3-0.2,0.4l0.1-0.1c0-0.1,0.1-0.2,0.1-0.3c0,0.1,0,0.2,0,0.2c0.7-0.7,1.4-1.4,2.1-2.2c0.3-0.2,0.5-0.4,0.8-0.6
		c0.5-0.4,0.8-0.9,1.2-1.3c0.6-0.5,1.1-1,1.7-1.5c2.4-1.9,6.8-6.2,10-6c-0.8,1-2.3,1.5-3.4,2.2c-1.4,0.9-2.9,2.1-4.1,3.3
		c-2.5,2.5-3.9,5.8-5.9,8.6c1.6-1.7,3-3.6,4.7-5.3c1.8-1.8,4-3,5.9-4.5c1.8-1.4,4-2.8,6.1-3.6c3.1-1.2,6.4-1.7,9.4-3.2
		c2.2-1.1,6.1-4.8,8.6-3.4c2.2,1.2,3.4,3.7,6.3,3.7c-0.2-0.1-0.3-0.2-0.5-0.3c0,0,0,0,0,0c0,0-0.1,0-0.1-0.1c-1-0.6-1.9-1.3-2.4-2.2
		c0,0,0,0,0,0c-0.7-1-0.9-2.3-0.6-3.8c0.1,0.2,0.3,0.4,0.4,0.6c0.1,0.2,0.3,0.5,0.5,0.7c0.6,0.8,1.3,1.6,2.1,2.2
		c0.4,0.3,0.7,0.5,1.1,0.6c2,1.1,4.2,1.5,6.9,1.1c0,0,0,0,0.1,0l0,0c0,0,0.1,0,0.1,0c0,0-0.1,0-0.1,0l0,0c-0.1,0-0.2,0-0.3,0
		c-1-0.1-2.9-0.9-2.4-1.8c0-0.1,0.2-0.1,0.4-0.2c0.7,0.2,1.5,0.3,2.2,0.3c0.6,0,1.2-0.1,1.8-0.2c0,0,0.1,0,0.1,0
		c0.4-0.1,0.9-0.3,1.3-0.4c0.1-0.1,0.8-0.2,1.2-0.5c0.3-0.1,0.5-0.1,0.8-0.1c-0.2,0-0.4,0-0.6,0c0.1-0.1,0.1-0.1,0.1-0.2
		c-0.2,0.1-0.4,0.1-0.6,0.2c-1.9-0.1-3.3-0.5-5.1-1.4c0.3,0.1,0.6,0.2,1,0.3c0,0,0.1,0,0.1,0c1,0.2,2,0.4,2.9,0.4c0.1,0,0.1,0,0.2,0
		c0.2,0,1.5,0.2,1.6,0.5c0,0,0,0,0,0c1-0.3,2-0.8,2.8-1.3c0.1,0,0.1,0,0.2-0.1c-1.7-0.2-4.5-1.5-4.9-3.3c-0.5-2.3,2.9-4.4,4.6-5.2
		c1.6-0.7,3.8-1,6-1.3c-1.7,3.7-2.6,7.7-2.5,11.6c0,5.6,0.5,8.9,1.8,11.9c0.9,2.1,2.4,4.4,5.5,8.2c2,2.4,8.3,7.2,12.8,9.6
		c-0.1-0.1-0.2-0.2-0.3-0.3c0.4,0.2,0.9,0.4,1.3,0.6c0.4,0.2,0.8,0.4,1.2,0.6c-3.6,8.8-9.6,13.5-14.1,16.9c-1,0.7-1.9,1.4-2.8,2.1
		c-1.8,1.5-3.1,2.8-3.4,4.2c-0.3,1.2,0.4,2.5,1.5,3.7c0.9,2.3,2.5,2.9,3.9,3.3c0.3,0.2,0.6,0.4,0.9,0.6c1.1,0.7,2.3,1.1,3.4,1.3
		c12.1,6.3,20.3,12.5,25.7,17.2c3.9,3.4,3.8,4.5,6.8,5.4c0.1,1-0.1,1.9-0.6,2.7c-0.3,0.5-0.5,0.9-0.7,1.4c-0.4,0.5-0.7,1-0.6,1.6
		c0,0.2,0.1,0.5,0.2,0.6c0.1,0.2,0.2,0.4,0.3,0.6l-1.7,1.1c-0.7,0.6-0.1,4.4,1,7.3c0,0,0,0.1,0.1,0.2c0,0,0,0,0,0
		c0,0.1,0.1,0.2,0.1,0.3c0,0,0,0.1,0,0.1c0,0.1,0.1,0.2,0.1,0.3c0,0.1,0.1,0.2,0.1,0.2c0,0.1,0.1,0.2,0.1,0.2c0,0.1,0.1,0.2,0.1,0.4
		c0,0.1,0,0.1,0.1,0.2c0.2,0.5,0.4,1.1,0.6,1.7c0,0,0,0.1,0.1,0.1c0.1,0.2,0.2,0.4,0.2,0.6c0,0,0,0.1,0.1,0.1
		c0.1,0.2,0.2,0.4,0.2,0.6c0,0,0,0.1,0,0.1c0.3,0.7,0.6,1.3,0.8,1.9c0,0,0,0,0,0c0.1,0.2,0.2,0.3,0.2,0.5c0,0.1,0.1,0.1,0.1,0.2
		c0.1,0.1,0.1,0.3,0.2,0.4c0,0.1,0.1,0.1,0.1,0.2c0.1,0.1,0.1,0.2,0.2,0.3c0,0,0,0,0,0c0,0,0,0,0,0c0.3,0.4,0.5,0.7,0.7,0.6
		c2.7-1.5,4.6-4.7,6.2-7.6c0.2-0.4,0.4-0.6,0.4-0.9c0,0,0,0.1,0,0.1c0.3-0.5,0.4-1.3,0.4-2.3c0.1-0.3,0.1-0.6,0.1-0.7
		c0-0.7-0.1-1.4-0.2-2.1c0.5,0.6,0.9,1.2,1.5,1.7c0.2,0.2,0.4,0.3,0.7,0.4c2.1,1.1,6.8,2.1,9.2,2.2c2.9,0.3,5.5,0.3,6.4-0.1
		c7.3-2.4,1.1,0.8,10.1,1.4c1.1,0.1,2,0.1,2.7,0.1c0,0,0,0,0,0c0,0.2-0.1,0.4-0.1,0.6c0,0.6,0.4,1.4,0.9,1.5l0,0.5
		c0,0.8,3.1,2.5,5.9,3.2c0.2,0.1,2.7,0.8,5,1.4c0,0,0.1,0,0.1,0c0.2,0,0.3,0.1,0.5,0.1c0.1,0,0.1,0,0.2,0c0.5,0.1,0.9,0.2,1.3,0.3
		c0,0,0.1,0,0.1,0c0,0,0,0,0,0c1,0.2,1.7,0.2,1.8,0c0.4-2.8-0.9-5.9-2.1-8.7c-0.1-0.1-0.1-0.3-0.2-0.4c2.2,0.1,8.9,0.3,10.3,0.3
		c0.6,0,1.1,0,1.5,0c0,0,0,0,0,0c0.3,0.2,1.1-0.1,2.1-0.6c0.2-0.1,0.3-0.2,0.5-0.2c0.4-0.2,0.7-0.4,1-0.6c1.9-1.1,4.3-2.8,6.2-4.6
		c0.2,0.1,0.4,0.2,0.6,0.3c0,0,0.1,0.1,0.1,0.1c0.3,0.3,0.9,0.6,1.7,0.8c0,0,0,0,0,0c0,0,0,0,0,0c0.4,0.1,0.9,0.2,1.5,0.2
		c0.3,0,0.5,0.1,0.8,0.1c0.3,0,0.6,0,0.9,0.1c0.1,0,0.2,0,0.3,0c1.9,0.1,4.6,0.5,6.5,0c2.4,0.1,4.6,2.1,6.3,3.8
		c0.3,0.5,1,1.6,2.4,2.1c0.3,0.2,0.5,0.3,0.8,0.2c1.3,0.3,3.2,0,5.7-1.4c-0.2,0.1,8.6-3.6,12.4-5.1c2.2-1,7-3.2,9.4-4.4
		c1.4,0.1,6-3.2,7.4-6.5c0.8-2.3-0.1-6.1-1.1-8.1c-0.5-3.2-2.8-8.5-3.3-9.9c0-0.1-0.1-0.2-0.1-0.2c-0.1-0.2-0.1-0.4-0.2-0.6
		c-0.7-2.4-1.3-4.9-2-7.3c-0.3-1.2-0.5-2.4-0.8-3.7c0,0,0,0,0,0c-0.1-0.5-0.1-0.9-0.2-1.4c-0.4-2.7-0.7-5.5-1.7-8
		c-0.1-0.4-0.2-0.7-0.4-1.1c1.7-1.5,2.9-2.8,3.7-4c0.3-0.1,0.6-0.1,0.9-0.2c0,0,0.1,0,0.1,0c0.2,0,0.3-0.1,0.5-0.1
		c0.1,0,0.2-0.1,0.3-0.1c1.1-0.3,2.1-0.6,3-1.1c0.3-0.2,0.7-0.3,1-0.5c0,0,0,0,0,0c1.5-0.9,2.8-1.9,3.9-3.1c4.1-4.2,6.4-10,7.9-13.4
		c0.1-0.1,0.1-0.2,0.2-0.3c0.5-2.1,1.1-6.4,1.4-8.1c0.3-0.7,0.7-1.3,1-2c0,0,0,0,0,0c0-0.1,0.1-0.2,0.2-0.3c0.7-1.2,1.4-2.3,2.1-3.5
		c0.2-0.4,0.5-0.7,0.7-1.1c0.1-0.1,0.1-0.2,0.2-0.3c0.5-0.8,1.1-1.5,1.6-2.3c0.5-0.7,1-1.4,1.6-2.1c0.2-0.3,0.4-0.5,0.6-0.8
		c0.5-0.7,1.1-1.4,1.6-2c0,0,0-0.1,0.1-0.1c1.3-1.5,2.6-3,3.9-4.5c1.3-1.4,2.6-2.8,4-4.2c0.3-0.3,0.5-0.5,0.8-0.8
		c1.9-1.6,3.4-3.3,4.6-4.8c2.5,2.9,5.3,4.9,9,5.7c7.4,1.6,16.3-3.2,21.1-9.2c0.3,0.1,0.6,0.1,0.9,0.1c0.3,0,0.7-0.1,1-0.1
		c2.8,1.8,5,2.7,5.8,3c0.1,0,0.2,0.1,0.3,0.1c0.1,0.3,1.4,0.8,1.7,0.7c0.1,0,0.1,0,0.2,0c0.4,0.4,0.6,1.4,0.8,2.4
		c0.2,0.9,0.5,1.9,1,2.6c0,0,0,0,0,0c0,0,0,0,0,0c0.1,0.2,0.2,0.3,0.4,0.4c0,0,0.1,0.1,0.1,0.1c0.1,0.1,0.2,0.1,0.2,0.2
		c2.3,1.4,5.9-0.8,6.3,0c0,0,0,0.1,0,0.1c0,0.3,0,0.6,0.2,0.7c0,0,0.1,0,0.2,0c0.1,0,0.2,0.1,0.3,0.1c0.5,0.1,1,0,1.5-0.1
		c0.1,0,0.3,0,0.4-0.1c0.3-0.1,0.5-0.1,0.7-0.2c0.1-0.1,0.3-0.2,0.4-0.3c0.1,0,0.2-0.1,0.2-0.1c0.3-0.2,0.6-0.4,0.8-0.7
		c0.1-0.1,0.1-0.1,0.2-0.2c1.4-1.3,2.3-3.2,2.7-5.3C668.1,306.7,668.2,305.9,668.2,305.3C668.2,305.3,668.2,305.3,668.2,305.3z
		 M561.1,409.2c-6.5,2.2-9.9,3.5-18.3,5.9c-0.1,0-0.1,0-0.2,0c-3.8-2.7-5,0.7-10.2-3.2c-0.8-0.8-0.8-1.6-1.5-2.7
		c-0.2-0.9-0.5-1.7-1.4-1.9c0,0,0,0,0,0l-0.6-0.7c-0.3-0.3-1.6-0.2-3.1,0.1c1.4-2.1,2.4-3.8,3.2-5.2c2.1-2,4.4-4.6,6.8-7.8
		c0,0,0,0,0,0c0-0.1,0.1-0.1,0.1-0.2c0.1-0.1,0.2-0.2,0.3-0.4c0.5-0.8,1.1-1.5,1.6-2.4c0.5-0.7,1-1.5,1.4-2.1
		c0.2-0.2,0.3-0.4,0.5-0.7c0.3-0.4,0.6-0.8,0.9-1.2c0.2-0.3,0.4-0.5,0.6-0.7c0.2-0.3,0.5-0.6,0.7-1c0.2-0.2,0.4-0.5,0.6-0.7
		c0.2-0.3,0.5-0.5,0.7-0.8c0.2-0.2,0.4-0.4,0.6-0.7c0.2-0.2,0.4-0.5,0.6-0.7c0.2-0.2,0.4-0.4,0.6-0.6c0.2-0.2,0.4-0.4,0.6-0.6
		c0.2-0.2,0.4-0.4,0.6-0.6c0.2-0.2,0.4-0.4,0.6-0.5c0.9,0.8,1.8,1.6,2.7,2.4c0,0,0,0,0,0c1.1,1.1,2.1,2,3,2.8c2,2.4,4.9,4.5,7,6.9
		c1.6,1.9,4.9,6.4,8.3,8.7c-0.8,1.1-1.5,2.6-2.2,4.8c-0.1,0.5-0.2,1.4-0.2,2.4C564.1,408.2,562.6,408.8,561.1,409.2z M437.7,384.2
		c-1,2.7-1.9,5.3-2.2,6.2c-0.1,0.3-0.2,0.5-0.3,0.7c-3.6-2.8-6.6-6.3-8.8-8.2c-1.2-1-2.2-2-3.1-3c0.6-0.5,1.2-1.1,1.7-1.7
		c0.2-0.3,0.4-0.6,0.6-0.9c4-3.7,7.8-7.8,11-9.5c2.4-1.3,4.4-2.4,6.2-3.4C442.7,373.5,438.8,379.9,437.7,384.2z M566.9,282
		c0.2-0.3,0.3-0.5,0.4-0.8c0,0,0,0,0,0c0.1-0.2,0.2-0.3,0.2-0.5c0.3,0.7-0.1,1.3-0.9,1.7C566.8,282.3,566.8,282.1,566.9,282
		C566.9,282,566.9,282,566.9,282z M547.3,263.9C547.3,263.9,547.3,263.9,547.3,263.9c0.4-0.1,0.7-0.2,1-0.3c2.3-0.7,4.9-1.7,7.5-2.7
		c-0.2,1.8-0.4,4.3-0.6,6.6c-3.5-1.6-7-2.7-10.6-2.9C545.5,264.4,546.4,264.2,547.3,263.9z M629.4,252.2c0.3,0.6,0.6,1.1,0.8,1.6
		c-0.4,0-1,0.1-1.4,0.3c0,0,0,0,0,0C627.9,253.2,628.6,252.4,629.4,252.2z M506.9,272.8c0.4,0.2,0.9,0.3,1.4,0.3
		c0.2,0.2,0.4,0.4,0.7,0.7c0.1,0.1,0,0.2,0.1,0.3c0,0,1.5,1.8,4.2,4C510.9,276.5,508.6,274.6,506.9,272.8z M342.7,316.6
		c0.3-0.1,0.7-0.3,1-0.4C343.4,316.4,343.1,316.5,342.7,316.6L342.7,316.6z M469.9,415.6c-0.9-0.3-1.5-1.5-2.3-2.1
		c-0.2-0.3-0.5-0.4-0.9-0.4c-0.1,0-0.1,0-0.2,0c-0.3,0-0.6,0.1-1,0.3c0,0-0.1,0-0.1,0c0,0,0,0,0,0c-0.3-0.6-3.6-1.2-6.4-1.1
		c-0.3,0-4.3,0-6.8,0.2c0,0,0,0-0.1,0c-0.2,0-0.4,0-0.6,0.1c0,0,0,0,0,0c-0.2-0.7-0.5-1.4-0.8-2.1c-0.2-1.7,0.2-2.7,0.7-4
		c0.1-0.2,0.3-0.3,0.4-0.5c0.2-0.5,0.1-1.5-0.4-2.8c-0.2-0.7-0.4-1.2-0.6-1.5c-0.2-0.4-0.4-0.8-0.6-1.2c10.3,3.2,17.8,6.7,23.1,9.5
		c0,0,0,0,0,0c1.4,1,2.9,2,4.4,2.8c0.9,0.6,1.7,0.9,3.2,1c0,0.2,0,0.5,0.1,0.8c-0.1,0-0.2,0-0.4,0c-0.4-0.2-0.8-0.4-1.2-0.6
		C475.8,412.8,476.2,416.9,469.9,415.6z M502.9,418c-6.6-1.2-10.2-1.9-13.7-2.4c-1-1.3-1.1-2.5-1.1-3.7c0.3-0.3,0.5-0.6,0.5-1
		c0.1-0.4-0.1-1-0.5-1.9c-0.1-0.3-0.2-0.6-0.3-0.9c-0.1-0.1-0.2-0.2-0.3-0.3c-1.4-2.2-3.7-4.6-5.9-5c-2.6-0.5-5.2-0.8-7.7-1.2
		c-5.6-1.4-10.9-5.6-14.1-7.5c-3-1.7-5.7-4-7.9-6.5c5.7-6,8.6-19.2,10.6-27.5c0.9-3.8,2.7-7.1,4.7-10.3c1.1,0,2.1,0.1,3.2,0.3
		c1.3,0.3,2.5,0.7,3.6,1.1c1.8,0.7,4,1.7,6.8,3c1.5,0.8,2.9,1.7,4.4,2.5c1,0.6,2.2,1.3,3.5,2l0,0c1.9,1,4.1,2,6.6,2.9
		c0.3,0.1,0.6,0.2,0.9,0.3c0.2,0.1,0.4,0.1,0.6,0.2c1,0.3,2.1,0.6,3.3,0.9c0,0.1,0,0.2,0,0.3c0,0.8,4.9,1.6,7,1.5c1,0,1.8,0,2-0.2
		c4.3,0.5,8.7,0.5,13,0.6c2.4,0,4.8,0,7.3,0c0.4,0.2,0.8,0.4,1.2,0.5c1.7,2.1,3.6,3.6,4.5,4.4c-2.2,3.3-5.1,7.9-6.4,11.4
		c-3.2,7.6-5.4,8.7-9,15.4c-0.7,1.4-2,3.6-2.8,5.6c-1.8,2.3-3.7,4.9-5.8,7.8c-1,1.6-1.9,4.9-2.4,7.8
		C506.7,418.3,504.6,418.4,502.9,418z M620.7,311.4c-3-0.4-5.6-2.6-8.1-5.9c1.8-2.4,3.1-4.6,4.7-6.2c0.2-0.2,0.5-0.4,0.7-0.7
		c1.6-1.4,4.5-2.7,7.3-3.5c0.1,0,0.3,0,0.4,0c0.5,0.1,1.3-0.2,1.3-0.4c0.2,0,0.4-0.1,0.6-0.1c0,0,0,0,0.1,0c0.1,0,0.2-0.1,0.3-0.1
		c0.2,0,0.4-0.1,0.5-0.2c0,0,0,0,0.1,0c0,0,0,0,0,0c0,0,0,0,0,0c3.4,2.4,7.1,3.1,7.1,3.1c0.8,0.9,1.6,1.7,2.4,2.4
		c0,1.2,0.6,2.3,1.4,3C634.9,307.5,627.1,312.3,620.7,311.4z"/>
	<path d="M585,265.6c-0.2-0.1-0.3-0.3-0.5-0.4C584.7,265.4,584.8,265.5,585,265.6z"/>
	<path d="M615.9,254.6C615.9,254.6,615.9,254.6,615.9,254.6C615.9,254.6,615.9,254.6,615.9,254.6C616,254.5,616,254.5,615.9,254.6z"
		/>
	<path d="M612.2,253.1c0.2,0,0.3,0,0.5,0C612.5,253.1,612.4,253.1,612.2,253.1z"/>
	<path d="M312,330l0.6,0.2c-0.1-0.1-0.3-0.1-0.4-0.2C312.1,330.1,312.1,330,312,330z"/>
	<path d="M312,329.9c0.1,0,0.1,0.1,0.2,0.1c0,0,0,0,0,0C312.2,330,312.1,330,312,329.9z"/>
</g>
</svg>
