<?xml version="1.0" encoding="utf-8"?>
<!-- Generator: Adobe Illustrator 19.2.1, SVG Export Plug-In . SVG Version: 6.00 Build 0)  -->
<svg version="1.1" id="Calque_1" xmlns="http://www.w3.org/2000/svg" xmlns:xlink="http://www.w3.org/1999/xlink" x="0px" y="0px"
	 viewBox="0 0 1024 1024" enable-background="new 0 0 1024 1024" xml:space="preserve">
<path fill="#444444" d="M512,0C229.2,0,0,229.2,0,512s229.2,512,512,512c282.8,0,512-229.2,512-512S794.8,0,512,0z M511,898.6
	C297,898.6,123.5,725,123.5,511S297,123.5,511,123.5S898.5,297,898.5,511S725,898.6,511,898.6z"/>
<path fill="#444444" d="M512,400.8c-28.3,0-51.2,23.7-51.2,52.9v287.3c0,29.2,22.9,52.9,51.2,52.9c28.3,0,51.1-23.7,51.1-52.9V453.6
	C563.2,424.5,540.3,400.8,512,400.8z"/>
<path fill="#444444" d="M563.2,286.8c0,31-22.9,56.2-51.2,56.2s-51.2-25.1-51.2-56.2s22.9-56.2,51.2-56.2
	C540.3,230.6,563.2,255.7,563.2,286.8z"/>
</svg>
