<?xml version="1.0" encoding="utf-8"?>
<!-- Generator: Adobe Illustrator 19.2.1, SVG Export Plug-In . SVG Version: 6.00 Build 0)  -->
<svg version="1.1" id="Calque_1" xmlns="http://www.w3.org/2000/svg" xmlns:xlink="http://www.w3.org/1999/xlink" x="0px" y="0px"
	 viewBox="0 0 1024 1024" enable-background="new 0 0 1024 1024" xml:space="preserve">
<path fill="#444444" d="M633.2,0c3.9,0,7.7,0,11.5,0c0.5,0.3,0.8,0.8,1.3,1c44,12.2,70.3,41.2,79.6,85.4c7.9,37.3,5,74.8-4.9,111
	c-14.4,53.2-31.5,105.6-47.3,158.4c-2.3,7.6-4.5,15.3-5.5,23.1c-1.4,11.7,4.1,19.3,15.6,21.5c9.4,1.9,19.1,3.1,28.6,3.1
	c71.2,0.1,142.3-0.1,213.5-0.1c6.8,0,13.8,0.3,20.5,1.6c38.5,7.7,63.8,34.6,70.3,74.3c5.7,34.6-11.9,68.9-45.2,88.2
	c-3.8,2.2-7.5,4.3-12,6.9c6.9,3.4,12.9,6,18.6,9.1c19.1,10.4,34.7,24.2,41.9,45.5c1.5,4.6,2.8,9.3,4.2,14c0,7.7,0,15.4,0,23.1
	c-0.5,1.5-1.4,3-1.6,4.6c-4,26-18.1,44.9-40.6,57.8c-4.9,2.8-10,5.2-15.9,8.2c5.1,3.3,9.5,5.9,13.7,8.9
	c31.7,21.7,43.6,51.1,35.9,88.5c-6.5,31.4-24.1,52.4-56.5,59c-7,1.4-14,2.6-21.1,3.8c-8.4,1.4-16.7,2.8-27.5,4.6
	c4,2.3,5.7,3.3,7.3,4.2c24,14.6,35.1,41.4,28.1,68c-7.1,27.1-29,44.5-58.1,44.4c-127.7-0.5-255.5,4.2-382.8-9.5
	c-33.6-3.6-67.1-7.9-100.4-13c-28.4-4.3-56.6-10.7-85-15.3c-15.9-2.6-32.1-3.6-48.9-5.4c-0.5-9-1.5-17.7-1.5-26.4
	c-0.2-129.1-0.3-258.2-0.4-387.4c0-29.1-2-26.8,26.2-35.3c42.9-12.9,77.4-37.1,100.5-76.2c7.5-12.8,15.4-25.3,23.4-37.8
	c35.3-55.3,69.6-111.2,112-161.7c23.8-28.3,39.5-61.5,48.1-97.4c9.1-38.1,16.8-76.6,24.8-115C607.4,20.3,614.4,5.8,633.2,0L633.2,0z
	"/>
<path fill="#444444" d="M239.7,757.7c0,73.4,0,146.7,0,220.1c0,4.4,0,8.8-0.4,13.2c-1.6,22-12.1,32.3-34.2,32.7
	c-24.7,0.4-49.4,0.2-74.2,0.2c-31.6,0-63.2,0-94.8-0.1C12,1023.7,0.1,1012,0.1,987.9C0,835.2,0,682.4,0,529.7
	c0-26.9,11.3-38.2,38-38.2c54.4,0,108.8,0,163.2,0c26.9,0,38.2,11.1,38.3,38c0.1,76.1,0,152.2,0,228.3
	C239.6,757.7,239.6,757.7,239.7,757.7L239.7,757.7z"/>
</svg>
