<?xml version="1.0" encoding="utf-8"?>
<!-- Generator: Adobe Illustrator 19.1.0, SVG Export Plug-In . SVG Version: 6.00 Build 0)  -->
<svg version="1.1" id="Calque_1" xmlns="http://www.w3.org/2000/svg" xmlns:xlink="http://www.w3.org/1999/xlink" x="0px" y="0px"
	 viewBox="206 -116 1024 1024" style="enable-background:new 206 -116 1024 1024;" xml:space="preserve">
<style type="text/css">
	.st0{fill:#1D1D1B;}
</style>
<g>
	<g>
		<path class="st0" d="M449.5,36.1h745.5c18.3,0,33.2-14.8,33.2-33.2c0-18.3-14.8-33.2-33.2-33.2H449.5c-18.3,0-33.2,14.9-33.2,33.2
			C416.3,21.2,431.1,36.1,449.5,36.1z"/>
		<path class="st0" d="M1194.9,358.1H449.5c-18.3,0-33.2,14.9-33.2,33.2s14.8,33.2,33.2,33.2h745.5c18.3,0,33.2-14.9,33.2-33.2
			S1213.3,358.1,1194.9,358.1z"/>
		<path class="st0" d="M1194.9,747.2H449.5c-18.3,0-33.2,14.8-33.2,33.2c0,18.3,14.8,33.2,33.2,33.2h745.5
			c18.3,0,33.2-14.9,33.2-33.2C1228.1,762.1,1213.3,747.2,1194.9,747.2z"/>
		<path class="st0" d="M278.9,72.5c39.2,0,71-31.8,71-71c0-39.2-31.8-71-71-71c-39.3,0-71,31.7-71,71
			C207.9,40.7,239.6,72.5,278.9,72.5z"/>
		<path class="st0" d="M278.9,460.5c39.2,0,71-31.8,71-71s-31.8-71-71-71c-39.3,0-71,31.8-71,71S239.6,460.5,278.9,460.5z"/>
		<path class="st0" d="M278.9,709.3c-39.3,0-71.1,31.8-71.1,71.1c0,39.3,31.8,71.1,71.1,71.1c39.2,0,71-31.8,71-71.1
			C349.9,741.1,318.1,709.3,278.9,709.3z"/>
	</g>
</g>
</svg>
