<?xml version="1.0" encoding="utf-8"?>
<!-- Generator: Adobe Illustrator 21.1.0, SVG Export Plug-In . SVG Version: 6.00 Build 0)  -->
<svg version="1.1" id="icone" xmlns="http://www.w3.org/2000/svg" xmlns:xlink="http://www.w3.org/1999/xlink" x="0px" y="0px"
	 viewBox="0 0 1024 1024" style="enable-background:new 0 0 1024 1024;" xml:space="preserve">
<path d="M512.6,6.5c-179,0-323.2,144.2-323.2,323.2s333.5,687.7,333.5,687.7s311.6-510,311.6-687.7C834.6,150.8,690.3,6.5,512.6,6.5
	z M512.6,72.2c141.6,0,256.3,114.6,256.3,256.3S654.3,584.8,512.6,584.8S256.3,470.1,256.3,328.5C255.1,188.1,371,72.2,512.6,72.2z
	 M383.9,191.9v276.9h32.2V191.9H383.9z M667.2,301l-229.3,88.9V203l229.3,88.9V301z"/>
</svg>
