<?xml version="1.0" encoding="utf-8"?>
<!-- Generator: Adobe Illustrator 19.2.1, SVG Export Plug-In . SVG Version: 6.00 Build 0)  -->
<svg version="1.1" id="Calque_1" xmlns="http://www.w3.org/2000/svg" xmlns:xlink="http://www.w3.org/1999/xlink" x="0px" y="0px"
	 viewBox="0 0 1024 1024" enable-background="new 0 0 1024 1024" xml:space="preserve">
<path fill="#444444" d="M813,422.4v-128C813,134.4,672.2,0,509,0S205,134.4,205,297.6V416c-32,16-64,54.4-64,99.2v419.2c0,64,86.4,89.6,156.8,89.6
	h464c70.4,0,115.2-25.6,115.2-89.6V515.2C877,476.8,845,441.6,813,422.4z M509,108.8c108.8,0,208,86.4,208,195.2v48H301v-48
	C301,195.2,400.2,108.8,509,108.8z M557,748.8v105.6c0,25.6-19.2,38.4-44.8,38.4s-51.2-19.2-51.2-48V752
	c-19.2-16-38.4-38.4-38.4-67.2c0-48,41.6-92.8,92.8-92.8s86.4,35.2,86.4,83.2C601.8,700.8,582.6,742.4,557,748.8z"/>
</svg>
