<?xml version="1.0" encoding="utf-8"?>
<!-- Generator: Adobe Illustrator 19.1.0, SVG Export Plug-In . SVG Version: 6.00 Build 0)  -->
<svg version="1.1" id="Calque_1" xmlns="http://www.w3.org/2000/svg" xmlns:xlink="http://www.w3.org/1999/xlink" x="0px" y="0px"
	 viewBox="206 -116 1024 1024" style="enable-background:new 206 -116 1024 1024;" xml:space="preserve">
<path d="M846.9,30.6v136c36.2,15.8,69.5,38.4,98.3,67.2c60.4,60.4,93.7,140.8,93.7,226.3s-33.3,165.8-93.7,226.3
	S804.4,780,718.9,780S553,746.7,492.6,686.3S398.9,545.5,398.9,460s33.3-165.8,93.7-226.3c28.8-28.8,62.1-51.4,98.3-67.2v-136
	c-185,55.1-320,226.5-320,429.4c0,247.4,200.6,448,448,448s448-200.6,448-448C1166.9,257.1,1031.9,85.7,846.9,30.6z M654.9-116h128
	v512h-128V-116z"/>
</svg>
