<?xml version="1.0" encoding="utf-8"?>
<!-- Generator: Adobe Illustrator 19.2.1, SVG Export Plug-In . SVG Version: 6.00 Build 0)  -->
<svg version="1.1" id="Calque_1" xmlns="http://www.w3.org/2000/svg" xmlns:xlink="http://www.w3.org/1999/xlink" x="0px" y="0px"
	 viewBox="0 0 1024 1024" enable-background="new 0 0 1024 1024" xml:space="preserve">
<path fill="#444444" d="M123.4,469.8c0-29.9,22-51.3,51.5-51.3c29.9,0,51.8,21.4,51.8,51.3v107.5H239V469.8
	c0-29.9,21.2-51.3,50.7-51.3c29.9,0,51.1,21.4,51.1,51.3v107.5h12.3V469.8c0-36.7-26.6-63.6-63.6-63.6c-26.9,0-47.7,14.6-56.5,37
	c-9.4-22.4-31.2-37-58.4-37c-22.7,0-40.5,10.4-51.3,26.9v-22.3H111v166.5h12.3L123.4,469.8L123.4,469.8z"/>
<path fill="#444444" d="M469.5,581.1c39.3,0,66.2-19.2,77.9-56.2h-12.7c-8.1,23.1-26,44.3-65.3,44.3c-40.6,0-73-32-73.4-75.1h154.9
	c0.6-43.2-33.4-87.8-83.4-87.8c-46.1,0-83.4,39.4-83.4,88S421.7,581.1,469.5,581.1z M467.5,418.4c35.1,0,64.6,27.8,70.5,63.3H397.4
	C402.9,446.3,432.1,418.4,467.5,418.4z"/>
<path fill="#444444" d="M595.3,476.6c0-33.8,25.9-58.8,59.6-58.8c36.7,0,56.1,22.1,56.1,58.8v100.7h12.3V476.6
	c0-43.5-25.1-70.5-67.9-70.5c-26.6,0-47.7,12.7-60.1,32.5v-27.8h-12.3v166.5h12.3L595.3,476.6L595.3,476.6z"/>
<path fill="#444444" d="M834.8,581.5c26.3,0,47.4-12,58.2-31.5v27.4h12.3V410.8h-12.3v100.6c0,33.8-23.9,58.1-58,58.1
	c-33.4,0-57.7-24.4-57.7-58.1V410.8H765v100.6C765,551.9,794.2,581.5,834.8,581.5L834.8,581.5z"/>
<path fill="#444444" d="M0,341.4v306.9h1024V341.4C1024,341.4,0,341.4,0,341.4z M1007,631.3H15.4V359.9H1007V631.3z"/>
</svg>
