<?xml version="1.0" encoding="utf-8"?>
<!-- Generator: Adobe Illustrator 19.2.1, SVG Export Plug-In . SVG Version: 6.00 Build 0)  -->
<svg version="1.1" id="Calque_1" xmlns="http://www.w3.org/2000/svg" xmlns:xlink="http://www.w3.org/1999/xlink" x="0px" y="0px"
	 viewBox="0 0 1024 1024" enable-background="new 0 0 1024 1024" xml:space="preserve">
<path fill="#444444" d="M64,222h896c35.3,0,64-28.7,64-64.1s-28.7-64.1-64-64.1H64c-35.3,0-64,28.7-64,64.1S28.7,222,64,222z
	 M960,435.7H64c-35.3,0-64,28.8-64,64.1C0,535.2,28.7,564,64,564h896c35.3,0,64-28.8,64-64.1C1024,464.4,995.3,435.7,960,435.7z
	 M960,777.7H64c-35.3,0-64,28.7-64,64.1c0,35.4,28.7,64.1,64,64.1h896c35.3,0,64-28.7,64-64.1C1024,806.4,995.3,777.7,960,777.7z"/>
</svg>
