<?xml version="1.0" encoding="utf-8"?>
<!-- Generator: Adobe Illustrator 19.2.0, SVG Export Plug-In . SVG Version: 6.00 Build 0)  -->
<svg version="1.1" id="Calque_1" xmlns="http://www.w3.org/2000/svg" xmlns:xlink="http://www.w3.org/1999/xlink" x="0px" y="0px"
	 viewBox="0 0 1024 1024" style="enable-background:new 0 0 1024 1024;" xml:space="preserve">
<style type="text/css">
	.st0{fill:#454545;}
</style>
<g>
	<g>
		<g>
			<path class="st0" d="M925.3,60H101L0,536.1L516.2,983L1024,536.1L925.3,60z M650.7,662c0,30.9-9.1,49.7-27.1,56.1
				c-17.5,6.3-47.5,1.5-88.4-13.6L369.7,644l-21.1-101l141,51.4c10.3,3.1,15.5,1.1,15.5-5.9v-92.3c0-7-1.8-11.6-5.5-13.8
				c-3.6-2.2-10-4.2-18.9-6.1l-63.5-13.6c-8.6-1.8-16.6-4.1-24.2-6.8c-7.5-2.6-14.1-6.5-19.9-11.5c-5.7-5-10.2-11.1-13.4-18.4
				c-3.2-7.3-4.8-16.5-4.8-27.7V245.1c0-17.9,5.7-32,17.4-42.4c11.9-10.7,31.2-16.1,58.7-16.1h188.8l27.5,104.1l-164-11.2
				c-10.6-0.7-15.9,2.5-15.9,9.8V379c0,5,1.6,8.6,4.8,10.9c3.2,2.3,8.1,4,14.6,5l86.8,13.3c24.1,3.7,43,10.8,56.4,21.2
				c13.6,10.7,20.5,26.6,20.5,47.8V662z"/>
		</g>
	</g>
</g>
</svg>
