<?xml version="1.0" encoding="utf-8"?>
<!-- Generator: Adobe Illustrator 19.2.0, SVG Export Plug-In . SVG Version: 6.00 Build 0)  -->
<svg version="1.1" id="Calque_1" xmlns="http://www.w3.org/2000/svg" xmlns:xlink="http://www.w3.org/1999/xlink" x="0px" y="0px"
	 viewBox="0 0 1024 1024" style="enable-background:new 0 0 1024 1024;" xml:space="preserve">
<style type="text/css">
	.st0{fill:#454545;}
</style>
<g>
	<g>
		<path class="st0" d="M607.3,567.6c2.9,2.8,7.3,6.6,13,11.4c0.6,0.5,1.3,1.1,1.9,1.7c5.4-9.4,11-18.7,16.9-27.7
			c1.8-2.8,3.6-5.6,5.4-8.4c-16.3,4.5-32.6,8.7-48.9,12.6C603.3,564,606,566.4,607.3,567.6z"/>
	</g>
	<g>
		<g>
			<path class="st0" d="M512,0C229.2,0,0,229.2,0,512s229.2,512,512,512s512-229.2,512-512S794.8,0,512,0z M740.3,506.2l-0.6,1.4
				l-0.9,1.3c-28.1,41.8-53.2,86.3-74.5,132.1c-21.3,45.7-39.5,94.1-54,143.8c-3.2,13.8-9.8,38.3-14.8,56.8c-1.4,8.6-5.9,16-13,21.6
				c-7,5.6-14.2,8.4-21.4,8.4c-9.5,0-19.5-5-25.4-12.8c-5.6-7.4-7.4-16.4-5-25.5c7.9-32.3,13.3-50.8,18.4-66.7
				c-11.2,5.2-23,9.6-35.5,13.1c-27.1,7.7-57.7,11.7-90.9,11.7c-36.8,0-69.4-11-96.6-32.7c-35-27.6-57.5-67.9-66.9-119.6l0-0.1
				l0-0.1c-2.6-14.7-3.8-29.3-3.8-43.3c0-48.1,13.8-109.7,41.1-183.3c18.8-50.6,43-97.5,72.1-139.6c30-43.3,64.9-74.5,103.9-93
				c21.1-9.9,43.1-15,65.3-15c41.9,0,75.9,11.9,101.2,35.3c24.8,23,41.1,53.9,48.5,92l0.5,2.7l-0.4,2.7c-1.2,8.1-5.5,15.6-12.4,21.6
				c-6.9,6-15.1,9.1-23.6,9.1c-11.2,0-20.4-6.6-25.4-18L626,310l-0.1-0.2c-5.1-13-10.3-25.2-15.4-36.2l0-0.1l0-0.1
				c-7.2-16.2-16.9-28.3-28.8-36.2c-12-7.9-26.4-11.7-43.9-11.7c-14.2,0-28.5,3.2-42.4,9.4c-14.4,6.4-29,16.3-43.3,29.4
				c-38.3,35.6-70.4,87.5-95.6,154.5c-25.4,67.5-38.2,122.6-38.2,163.7c0,40.3,7.2,74.1,21.4,100.5c17.7,32.9,46.4,48.9,87.7,48.9
				c36.8,0,67.9-4.6,92.4-13.7c23.3-8.6,41.2-21.6,53.2-38.4c8-11.3,13.5-24,16.4-38.1c-0.2-1.1-0.4-2.2-0.5-3.3
				c-0.7-1-1.9-2.7-4.3-5.4c-3.3-3.8-11.4-11.9-31-29.6c-13.5-12.2-26.3-22.3-37.9-30.1c-27.6,5-58.8,9.5-92.9,13.6l-1.7,0.2
				l-1.7-0.1c-20.7-1.8-28.1-15.1-28.1-27c0-7.1,2.4-17.4,13.9-26.6l0.6-0.5l0.6-0.4c32.7-21.2,60.5-31.5,84.9-31.5
				c13.4,0,26.7,2.9,39.8,8.5c52-10.6,111.3-25.5,176.5-44.3l2.2-0.6h2.3c8.5,0,15.3,1.6,20.6,5c7.3,4.6,11.5,12.3,11.5,21.1
				C744.2,495.1,743,499.9,740.3,506.2z"/>
		</g>
	</g>
</g>
</svg>
