<?xml version="1.0" encoding="utf-8"?>
<!-- Generator: Adobe Illustrator 19.2.1, SVG Export Plug-In . SVG Version: 6.00 Build 0)  -->
<svg version="1.1" id="Calque_1" xmlns="http://www.w3.org/2000/svg" xmlns:xlink="http://www.w3.org/1999/xlink" x="0px" y="0px"
	 viewBox="0 0 1024 1024" enable-background="new 0 0 1024 1024" xml:space="preserve">
<path fill="#444444" d="M522.8,656.6c-14.8,14.4-14.8,37.9,0,52.4l13.5,13.1c14.9,14.6,38.9,14.6,53.8,0l173.8-170.8
	c0.3-0.2,0.6-0.3,0.9-0.6l13.4-13.1c7.5-7.2,11.1-16.7,11-26.3c0.1-9.5-3.6-19.1-11-26.4l-13.4-13.2c-0.3-0.2-0.6-0.3-0.9-0.6
	L590.1,301.8c-14.9-14.4-39-14.4-53.8,0l-13.5,13.1c-14.8,14.5-14.8,38,0,52.5l98.8,96.2H32c-17.7,0-32,14.5-32,32.3v21.6
	c0,17.9,14.3,32.3,32,32.3h599.4C631.4,549.8,522.8,656.6,522.8,656.6z M873.9,0H267.4c-82.9,0-150.1,67.9-150.1,151.7v225.6h85.3
	V140.1c0-29.8,23.9-53.9,53.3-53.9h629.4c29.5,0,53.3,24.1,53.3,53.9v743.7c0,29.8-23.9,53.9-53.3,53.9H255.9
	c-29.5,0-53.3-24.1-53.3-53.9V657.5h-85.3v214.8c0,83.8,67.2,151.7,150.1,151.7h606.5c82.9,0,150.1-67.9,150.1-151.7V151.7
	C1024,67.9,956.8,0,873.9,0L873.9,0z"/>
</svg>
