<?xml version="1.0" encoding="utf-8"?>
<!-- Generator: Adobe Illustrator 19.2.1, SVG Export Plug-In . SVG Version: 6.00 Build 0)  -->
<svg version="1.1" id="Calque_1" xmlns="http://www.w3.org/2000/svg" xmlns:xlink="http://www.w3.org/1999/xlink" x="0px" y="0px"
	 viewBox="0 0 1024 1024" enable-background="new 0 0 1024 1024" xml:space="preserve">
<path fill="#444444" d="M389.2,224h246.4c12.8,0,22.4,9.6,22.4,22.4v556.8c0,3.2,0,6.4-3.2,9.6L594,931.2l-41.6,83.2c-3.2,6.4-9.6,9.6-19.2,9.6l0,0
	h-38.4c-6.4,0-16-3.2-19.2-12.8l-41.6-80l-60.8-121.6c0-3.2-3.2-6.4-3.2-9.6l0,0V243.2C370,233.6,379.6,224,389.2,224L389.2,224z
	 M418,793.6l73.6,144h44.8l73.6-144l-96-19.2L418,793.6z M450,0h131.2c22.4,0,41.6,9.6,54.4,22.4C648.4,38.4,658,57.6,658,80v67.2
	c0,12.8-9.6,19.2-19.2,19.2H392.4c-9.6,0-19.2-9.6-19.2-19.2V80c0-22.4,9.6-41.6,22.4-54.4C408.4,9.6,427.6,0,450,0L450,0z"/>
</svg>
