<?xml version="1.0" encoding="utf-8"?>
<!-- Generator: Adobe Illustrator 19.2.1, SVG Export Plug-In . SVG Version: 6.00 Build 0)  -->
<svg version="1.1" id="Calque_1" xmlns="http://www.w3.org/2000/svg" xmlns:xlink="http://www.w3.org/1999/xlink" x="0px" y="0px"
	 viewBox="0 0 1024 1024" enable-background="new 0 0 1024 1024" xml:space="preserve">
<g>
	<path fill="#444444" d="M456.8,667.7v353.1v3.2l0,0l0,0l0,0l0,0l0,0l0,0c0,0,3.2,0,3.2-3.2l89.9-89.9c3.2-3.2,6.4-12.8,6.4-16.1V664.5h-99.5V667.7
		z"/>
	<path fill="#444444" d="M643,327.4V160.5c41.7-32.1,70.6-83.5,80.3-141.2C723.2,9.6,713.6,0,704,0H312.4c-12.8,0-19.3,9.6-19.3,19.3
		c6.4,57.8,38.5,109.1,80.3,141.2v166.9C277,375.6,206.4,471.9,200,584.2c0,12.8,9.6,19.3,19.3,19.3c202.2,0,372.4,0,574.6,0
		c12.8,0,19.3-9.6,19.3-19.3C806.7,471.9,739.3,375.6,643,327.4z M569.2,327.4h-61V160.5h61V327.4z"/>
</g>
</svg>
