<?xml version="1.0" encoding="utf-8"?>
<!-- Generator: Adobe Illustrator 19.1.0, SVG Export Plug-In . SVG Version: 6.00 Build 0)  -->
<svg version="1.1" id="Calque_1" xmlns="http://www.w3.org/2000/svg" xmlns:xlink="http://www.w3.org/1999/xlink" x="0px" y="0px"
	 viewBox="206 -116 1024 1024" style="enable-background:new 206 -116 1024 1024;" xml:space="preserve">
<path d="M333,908L333,908c-52,0-87-41-87-102V-14.8c0-83.1,71.4-126.6,145-85.5l743.6,413.7
        c36.2,20.1,56.8,50,56.8,82.2s-20.7,62.1-56.8,82.3L391,891.6C371.3,902.5,351.9,908,333,908L333,908z M333-54.4
        c-21.5,0-24.8,24.8-24.8,39.6v820.8c0,14.8,3.3,39.6,24.8,39.6l0,0c8,0,17.5-3,27.8-8.6l743.8-413.8c15.2-8.4,24.6-19,24.6-27.6
        c0-8.6-9.5-19.1-24.6-27.6L360.8-45.7C350.6-51.3,341.1-54.4,333-54.4L333-54.4z"/>
</svg>
