<?xml version="1.0" encoding="utf-8"?>
<!-- Generator: Adobe Illustrator 19.2.1, SVG Export Plug-In . SVG Version: 6.00 Build 0)  -->
<svg version="1.1" id="Calque_1" xmlns="http://www.w3.org/2000/svg" xmlns:xlink="http://www.w3.org/1999/xlink" x="0px" y="0px"
	 viewBox="0 0 1024 1024" enable-background="new 0 0 1024 1024" xml:space="preserve">
<path fill="#444444" d="M512,100.9c110.2,0,214.1,43,292.1,121c77.9,77.6,120.8,181,120.8,290.6c0,109.9-42.9,212.9-120.8,290.9
	c-78,78-181.9,121-292.1,121c-110.5,0-214.1-43-292.1-121C142.1,725.4,99.5,622.4,99.5,512.4c0-109.6,42.6-213,120.5-290.6
	C297.9,143.9,401.6,100.9,512,100.9z M512,0C229.1,0,0,229.4,0,512.4s229.1,512.1,512,512.1s512-229.1,512-512.1S794.9,0,512,0
	C512,0,512,0,512,0z M389,767.3V270.4l400,248.5C789,518.9,389,767.3,389,767.3z"/>
</svg>
