<?xml version="1.0" encoding="utf-8"?>
<!-- Generator: Adobe Illustrator 19.2.1, SVG Export Plug-In . SVG Version: 6.00 Build 0)  -->
<svg version="1.1" id="Calque_1" xmlns="http://www.w3.org/2000/svg" xmlns:xlink="http://www.w3.org/1999/xlink" x="0px" y="0px"
	 viewBox="0 0 1024 1024" style="enable-background:new 0 0 1024 1024;" xml:space="preserve">
<style type="text/css">
	.st0{fill:#010101;}
</style>
<g>
	<path class="st0" d="M177.4,0c-22,0-44,5.4-64.1,15.7c-0.6,0.6-1.2,0.6-1.8,0.6c-1.2,0-2.4,0.6-3,1.2c-0.6,0-0.6,0-0.6,0.6
		C63.3,42.9,38.2,87.7,38.2,134.9L38.8,816l-0.6,72c0.6,47.2,25,93.1,69.6,118c43.4,24.8,95.2,23,136.2,1.2c0,0,0,0,0.6,0l671-376.8
		c2.4-1.2,4.3-3,5.5-4.9c0.6-0.6,0.6-0.6,0.6-0.6c37.9-24.2,64.1-65.3,64.1-112.5c0-50.8-28.1-95-69.6-118.6l-671-377.4
		c-0.6,0-0.6,0-0.6,0C223.8,5.5,200.6,0,177.4,0L177.4,0z M177.4,33.9c17.7,0,34.8,4.2,50.1,12.1l671.6,377.4
		c31.8,17.5,52.5,50.8,52.5,88.9s-21.4,70.2-53.7,87.7c-1.2,1.2-2.4,1.8-3.6,3c0,0.6,0,0.6-0.6,0.6L227.5,977.5l0,0
		c-31.1,16.3-69.6,17.5-102.6-1.2C91.3,957.5,73,923,72.4,887.9l0.6-72l-0.6-680.5v-0.6c0.6-34.5,18.9-68.3,51.9-87.1
		c0,0,0.6,0,0.6-0.6C141.4,38.1,159.1,33.9,177.4,33.9L177.4,33.9z"/>
</g>
</svg>
