<?xml version="1.0" encoding="utf-8"?>
<!-- Generator: Adobe Illustrator 19.2.1, SVG Export Plug-In . SVG Version: 6.00 Build 0)  -->
<svg version="1.1"
	 id="Calque_1" xmlns:cc="http://creativecommons.org/ns#" xmlns:dc="http://purl.org/dc/elements/1.1/" xmlns:inkscape="http://www.inkscape.org/namespaces/inkscape" xmlns:rdf="http://www.w3.org/1999/02/22-rdf-syntax-ns#" xmlns:sodipodi="http://sodipodi.sourceforge.net/DTD/sodipodi-0.dtd" xmlns:svg="http://www.w3.org/2000/svg"
	 xmlns="http://www.w3.org/2000/svg" xmlns:xlink="http://www.w3.org/1999/xlink" x="0px" y="0px" viewBox="0 0 1024 1024"
	 style="enable-background:new 0 0 1024 1024;" xml:space="preserve">
<g transform="translate(0,-952.36218)">
	<path d="M512,952.4c-282.4,0-512,229.6-512,512s229.6,512,512,512s512-229.6,512-512C1024,1181.9,794.4,952.4,512,952.4z
		 M512,1051.5c227.9,0,412.9,185,412.9,412.9s-185,412.9-412.9,412.9s-412.9-185-412.9-412.9C99.1,1234.8,284.1,1051.5,512,1051.5z
		 M445.9,1150.6v247.7H198.2v132.1h247.7v247.7h132.1v-247.7h247.7v-132.1H578.1v-247.7H445.9z"/>
</g>
</svg>
