<?xml version="1.0" encoding="utf-8"?>
<!-- Generator: Adobe Illustrator 19.2.1, SVG Export Plug-In . SVG Version: 6.00 Build 0)  -->
<svg version="1.1" id="Calque_1" xmlns="http://www.w3.org/2000/svg" xmlns:xlink="http://www.w3.org/1999/xlink" x="0px" y="0px"
	 viewBox="0 0 1024 1024" enable-background="new 0 0 1024 1024" xml:space="preserve">
<path fill="#444444" d="M391.8,715.8h266.4V564.2H391.8V715.8z M428.4,585.1h209v26.1h-209C428.4,611.3,428.4,585.1,428.4,585.1z
	 M428.4,647.8h146.3V674H428.4C428.4,674,428.4,647.8,428.4,647.8z"/>
<path fill="#444444" d="M720.4,442.8c7.7,0,14-6.3,14-14s-6.3-14-14-14c-7.7,0-14,6.3-14,14S712.7,442.8,720.4,442.8z"/>
<path fill="#444444" d="M962.4,0h-898C26.9,0,0,29.7,0,68.2v880.9c0,38.4,26.9,74.9,64.5,74.9h898c37.6,0,61.6-36.5,61.6-74.9V68.2
	C1024,29.8,1000,0,962.4,0z M768,611.3h-62.7v151.5H350V611.3h-67.9V386.6H350V276.9h355.3v109.7H768V611.3z"/>
<path fill="#444444" d="M391.8,334.4h266.4v52.2H391.8V334.4z"/>
</svg>
