<?xml version="1.0" encoding="utf-8"?>
<!-- Generator: Adobe Illustrator 19.2.1, SVG Export Plug-In . SVG Version: 6.00 Build 0)  -->
<svg version="1.1" id="Calque_1" xmlns="http://www.w3.org/2000/svg" xmlns:xlink="http://www.w3.org/1999/xlink" x="0px" y="0px"
	 viewBox="0 0 1024 1024" style="enable-background:new 0 0 1024 1024;" xml:space="preserve">
<path d="M994.1,611.4V756c0,39.9-32.4,72.3-72.3,72.3h-24.1V756c0-39.9-32.4-72.3-72.3-72.3H198.6c-39.9,0-72.3,32.4-72.3,72.3v72.3
	h-24.1c-39.9,0-72.3-32.4-72.3-72.3V611.4c0-39.9,32.4-72.3,72.3-72.3h819.7C961.8,539,994.1,571.4,994.1,611.4z M849.5,808
	c0-39.9-32.4-72.3-72.3-72.3H246.8c-39.9,0-72.3,32.4-72.3,72.3v144.6c0,39.9,32.4,72.3,72.3,72.3h530.4c39.9,0,72.3-32.4,72.3-72.3
	L849.5,808L849.5,808z M849.5,73.3v337.5c0,39.9-32.4,72.3-72.3,72.3H246.8c-39.9,0-72.3-32.4-72.3-72.3V73.3
	c0-39.9,32.4-72.3,72.3-72.3h530.4C817.1,1,849.5,33.4,849.5,73.3z M753.1,341.5c0-13.3-10.8-24.1-24.1-24.1H295
	c-13.3,0-24.1,10.8-24.1,24.1s10.8,24.1,24.1,24.1H729C742.3,365.6,753.1,354.8,753.1,341.5z M753.1,245.1
	c0-13.3-10.8-24.1-24.1-24.1H295c-13.3,0-24.1,10.8-24.1,24.1s10.8,24.1,24.1,24.1H729C742.3,269.2,753.1,258.4,753.1,245.1z
	 M753.1,148.7c0-13.3-10.8-24.1-24.1-24.1H295c-13.3,0-24.1,10.8-24.1,24.1s10.8,24.1,24.1,24.1H729
	C742.3,172.8,753.1,162,753.1,148.7z"/>
</svg>
