<?xml version="1.0" encoding="utf-8"?>
<!-- Generator: Adobe Illustrator 21.1.0, SVG Export Plug-In . SVG Version: 6.00 Build 0)  -->
<svg version="1.1" xmlns="http://www.w3.org/2000/svg" xmlns:xlink="http://www.w3.org/1999/xlink" x="0px" y="0px"
	 viewBox="0 0 1024 1024" style="enable-background:new 0 0 1024 1024;" xml:space="preserve">
<style type="text/css">
	.st0{stroke:#000000;stroke-miterlimit:10;}
</style>
<g id="Calque_2">
</g>
<g id="Calque_1">
	<g>
		<g>
			<path class="st0" d="M637,816.8c2.5,9.3-2,19-10.6,23.3c-18.6,9.2-44.1,16.7-74.6,16.7c-48.5,0-91.6-18.5-121.6-53.3
				c-22.7-25.1-37.7-59.9-43.1-103H350v-29.3h34.1c0.1-0.1,0.1-0.1,0.2-0.2c-0.5-12.9,0.2-24.8,1-35.8H350v-29.9h39.5
				c7.2-41.9,25.1-76.6,49.1-101.2c30.5-31.7,69.5-49.7,118.6-49.7c25.1,0,46.3,5.1,62.5,11.4c9.9,3.8,15,14.8,12,25l0,0
				c-3.4,11.2-15.3,17.2-26.4,13.4c-13.6-4.7-30.2-7.9-47.5-7.9c-32.4,0-58.7,11.4-79,32.9c-18,17.4-30,44.3-35.9,76H610v29.9H437.4
				c-0.6,7.8-1.2,16.8-1.2,25.2c0,3.6,0,6.6,0,10.8h173.7v29.3H440.4c4.8,34.7,16.8,60.5,32.9,78.5c22.2,23.4,52.1,34.7,84.5,34.7
				c20,0,38.4-4.8,52.7-10.3C621.6,799.1,633.9,805.3,637,816.8L637,816.8z"/>
			<path d="M697.1,327.3l71.6-228.4c7-22.5,3.3-46-10.2-64.4C742.3,12.5,714.4,0,681.8,0c-31.2,0-62,12.1-84,31.6
				c-5.7-5.9-12.4-11.1-19.9-15.7C560.6,5.6,540.1,0,518.8,0c-31.5,0-60.2,12.1-79.1,31.8c-21.8-18.5-51.1-29.5-81.5-29.5
				c-32.5,0-60.5,12.5-76.7,34.5c-13.4,18.3-17,41.6-10.1,64.1l70.2,224.4c-80.3,7.8-155,43.1-212.9,101.3
				C62.3,493,25.8,580.9,25.8,674c0,193.1,157,350,350,350h271.6c93.1,0,181-36.6,247.2-102.9c66.4-66.2,102.8-154,102.8-247.1
				C997.5,497.9,867.7,351.3,697.1,327.3z M647.4,976.7H375.8C208.9,976.7,73.1,840.9,73.1,674c0-80.4,31.6-156.4,89.1-213.9
				c57.1-57.3,132.9-88.8,213.1-89h272.2c5.1,0,10.1,0.1,15.4,0.5c161.1,8,287.3,140.9,287.3,302.4c0,80.4-31.6,156.4-88.8,213.8
				C803.8,945.1,727.9,976.7,647.4,976.7z M648.6,323.8H390.7l-74-237c-2.7-8.2-1.6-15.6,3-21.9c7-9.6,21.4-15.3,38.4-15.3
				c25.4,0,51.2,13,62.8,31.7c5.4,8.8,15.9,13,25.8,10.5c1.3-0.4,2.5-0.7,3.9-1.2c7-2.1,12.7-7.3,15.4-14.2
				c5.3-14.1,24.3-29.2,52.8-29.2c12.8,0,24.8,3.2,34.7,9.1c8.8,5.3,15.3,12.3,18.3,19.9c2.4,6,7.1,10.6,13.1,13.1
				c1.1,0.4,2.2,0.8,4.4,1.5c10.8,3.9,22.7-0.5,28.5-10.4c11.4-19.5,37.7-33.2,64-33.2c17,0,31.5,5.7,38.4,15.3
				c4.7,6.4,5.8,14,3.2,22.2L648.6,323.8z"/>
		</g>
	</g>
</g>
</svg>
