<?xml version="1.0" encoding="utf-8"?>
<!-- Generator: Adobe Illustrator 21.1.0, SVG Export Plug-In . SVG Version: 6.00 Build 0)  -->
<svg version="1.1" id="icone" xmlns="http://www.w3.org/2000/svg" xmlns:xlink="http://www.w3.org/1999/xlink" x="0px" y="0px"
	 viewBox="0 0 1024 937.8" style="enable-background:new 0 0 1024 937.8;" xml:space="preserve">
<g>
	<path d="M967.8,8.4H52.6c-23.3,0-42,18.7-42,42v617.5c0,23.3,18.7,42,42,42h918.7c23.3,0,42-18.7,42-42V50.4
		C1011,24.7,991.1,8.4,967.8,8.4z M266.3,359.7c0,23.3-18.7,42-42,42s-42-18.7-42-42V355c0-23.3,18.7-42,42-42s42,18.7,42,42V359.7z
		 M590.7,299.1v45.5H460c0,4.7,0,8.2,0,15.2c0,5.9,0,12.9,0,15.2h130.7v45.5h-119c8.2,17.5,18.7,29.2,33.9,38.5
		c15.2,8.2,29.2,12.9,46.7,12.9c33.9,0,61.9-12.9,85.2-40.9l49,52.5c-18.7,22.2-40.9,38.5-64.2,49c-25.7,10.5-49,17.5-72.4,17.5
		c-38.5,0-74.7-10.5-102.7-33.9c-29.2-23.3-49-52.5-59.5-93.4h-51.6v-45.5h45.5c0-1.2,0-8.2,0-15.2c0-5.9,0-12.9,0-15.2h-45.5v-45.5
		h51.3c10.5-40.9,29.2-70.1,59.5-95.7c29.2-23.3,66.5-36.2,106.2-36.2c51.3,0,95.7,22.2,134.3,64.2l-49,59.6
		c-25.7-32.7-56.1-46.7-89.9-46.7c-38.5,0-66.5,17.5-80.5,52.5h122.6V299.1z M836,359.7c0,23.3-18.7,42-42,42s-42-18.7-42-42V355
		c0-23.3,18.7-42,42-42s42,18.7,42,42V359.7z"/>
	<rect x="66.1" y="746.1" width="891.9" height="38.5"/>
	<rect x="133.2" y="819.6" width="757.6" height="38.5"/>
	<rect x="189.8" y="890.8" width="644.4" height="38.5"/>
</g>
</svg>
