<?xml version="1.0" encoding="utf-8"?>
<!-- Generator: Adobe Illustrator 19.2.1, SVG Export Plug-In . SVG Version: 6.00 Build 0)  -->
<svg version="1.1" id="Calque_1" xmlns="http://www.w3.org/2000/svg" xmlns:xlink="http://www.w3.org/1999/xlink" x="0px" y="0px"
	 viewBox="0 0 1024 1024" enable-background="new 0 0 1024 1024" xml:space="preserve">
<path fill="#444444" d="M569.1,521.8c0,33.1-1.3,56.9-3.7,71.2c-2.5,14.3-9.8,26.3-22,36.1c-12.2,9.8-30.3,14.7-54.3,14.7
	c-23.6,0-42.3-5.2-55.9-15.6c-13.6-10.4-22.2-24.2-25.8-41.3c-2.1-10.7-3.2-34-3.2-70V290h-84.6v106.7
	c-2.9-23.4-10.5-43.2-22.9-59.4c-16.2-21-36.3-34.7-60.3-41c-15.6-4.2-49.2-6.3-100.6-6.3H0v419h84.6v-158h55.1
	c38.3,0,67.6-2,87.8-6c14.9-3.2,29.5-9.9,43.9-19.9c14.4-10,26.2-23.7,35.6-41.3c6.5-12.2,10.7-26.4,12.7-42.5v72.3
	c0,46.9,2.7,82.3,8.3,106.3c3.8,16.2,11.7,31.7,23.7,46.4c12,14.7,28.3,26.8,49,36c20.7,9.2,51,13.9,91,13.9
	c33.2,0,60-4.2,80.6-12.7c20.6-8.5,37-19.9,49.3-34.1c12.3-14.3,20.7-31.8,25.3-52.6c4.6-20.8,6.8-56.3,6.8-106.6V290h-84.6
	C569.1,290,569.1,521.8,569.1,521.8z M224.2,452.7c-6.4,9.3-15.2,16.2-26.4,20.6s-33.6,6.6-66.9,6.6H84.6V361h40.9
	c30.5,0,50.8,0.9,60.9,2.9c13.7,2.5,25,8.7,34,18.6s13.4,22.5,13.4,37.7C233.8,432.5,230.6,443.3,224.2,452.7L224.2,452.7z
	 M1003.3,524.4c-13.7-17.9-33.4-30.6-58.9-38c18.1-8.2,32.4-20.5,43-36.9c10.6-16.4,15.9-34.4,15.9-54c0-18.1-4.3-34.4-12.9-49
	c-8.6-14.6-19.3-26.2-32.1-35c-12.8-8.8-27.5-14.5-43.7-17.3c-16.3-2.8-41-4.1-74.1-4.1H673v419h142.6c53.9-0.4,87.9-1.3,102.1-2.9
	c22.4-2.5,41.4-9.1,56.8-19.9c15.3-10.8,27.5-25.1,36.3-43.1c8.9-18,13.3-36.5,13.3-55.6C1024,563.4,1017.1,542.3,1003.3,524.4
	L1003.3,524.4z M757.5,359.8h48.6c39.8,0,63.9,0.5,72.3,1.4c14.1,1.7,24.7,6.6,31.9,14.7s10.7,18.6,10.7,31.6
	c0,13.5-4.1,24.4-12.4,32.7s-19.7,13.3-34.1,15c-8,1-28.5,1.4-61.5,1.4h-55.5L757.5,359.8L757.5,359.8z M924.6,619.1
	c-7.9,8.8-18.1,14.4-30.7,16.7c-8.2,1.7-27.5,2.6-58,2.6h-78.3v-112h68.3c38.5,0,63.5,2,75,6c11.5,4,20.3,10.4,26.4,19.2
	c6.1,8.8,9.2,19.4,9.2,32C936.4,598.4,932.5,610.3,924.6,619.1L924.6,619.1z"/>
</svg>
