<?xml version="1.0" encoding="utf-8"?>
<!-- Generator: Adobe Illustrator 19.2.1, SVG Export Plug-In . SVG Version: 6.00 Build 0)  -->
<svg version="1.1" id="Calque_1" xmlns="http://www.w3.org/2000/svg" xmlns:xlink="http://www.w3.org/1999/xlink" x="0px" y="0px"
	 viewBox="0 0 1024 1024" enable-background="new 0 0 1024 1024" xml:space="preserve">
<path fill="#444444" d="M512,0C229.7,0,0,229.7,0,512s229.7,512,512,512s512-229.7,512-512S794.3,0,512,0z M512,974.5
	C257,974.5,49.5,767,49.5,512S257,49.5,512,49.5C767,49.5,974.5,257,974.5,512S767,974.5,512,974.5z"/>
<path fill="#444444" d="M517,174.2c-131.6,0-212.4,92.7-212.4,191.8h79.9c0-66.1,50.7-115.7,132.5-115.7
	c84.6,0,126.9,41.8,126.9,109.5c0,48.9-25.4,72.6-69.6,107.3c-58.3,44.2-109,82-109,184.4v22.7h77.1v-22.7
	c0-67.7,30.1-91.2,79-126.9c46.1-33.9,102-76.5,102-167.7C723.2,255.5,647.6,174.2,517,174.2L517,174.2z"/>
<path fill="#444444" d="M454.2,751.3h93.6v93.6h-93.6C454.2,844.9,454.2,751.3,454.2,751.3z"/>
</svg>
