<?xml version="1.0" encoding="utf-8"?>
<!-- Generator: Adobe Illustrator 19.2.1, SVG Export Plug-In . SVG Version: 6.00 Build 0)  -->
<svg version="1.1" id="Calque_1" xmlns="http://www.w3.org/2000/svg" xmlns:xlink="http://www.w3.org/1999/xlink" x="0px" y="0px"
	 viewBox="0 0 1024 1024" style="enable-background:new 0 0 1024 1024;" xml:space="preserve">
<path d="M667.8,895h244.9c61.5,0,111.3-49.8,111.3-111.3V538.8c0-61.5-49.8-111.3-111.3-111.3H712.4v-14.9
	c0-70.4,57.4-127.7,128-127.7c43,0,77.9-34.9,77.9-77.9S883.4,129,840.4,129c-156.5,0-283.8,127.2-283.8,283.6v371.1
	C556.5,845.1,606.4,895,667.8,895z"/>
<path d="M111.3,895h244.8c61.5,0,111.3-49.8,111.3-111.3V538.8c0-61.5-49.8-111.3-111.3-111.3H155.8v-14.9
	c0-70.4,57.4-127.7,128-127.7c43,0,77.9-34.9,77.9-77.9S326.9,129,283.8,129C127.3,129,0,256.2,0,412.6v371.1
	C0,845.1,49.8,895,111.3,895z"/>
</svg>
