<?xml version="1.0" encoding="utf-8"?>
<!-- Generator: Adobe Illustrator 19.2.1, SVG Export Plug-In . SVG Version: 6.00 Build 0)  -->
<svg version="1.1" id="Calque_1" xmlns="http://www.w3.org/2000/svg" xmlns:xlink="http://www.w3.org/1999/xlink" x="0px" y="0px"
	 viewBox="0 0 1024 1024" enable-background="new 0 0 1024 1024" xml:space="preserve">
<path fill="#444444" d="M0,619.4C0,700.9,21.1,766.2,63.4,815c42.3,48.9,97.5,73.3,165.9,73.3c58,0,103.6-18.2,136.7-54.6
	s49.6-81.8,49.6-136.1c0-48.5-15.1-89.8-45.2-124c-30.1-34.2-68.7-51.3-115.7-51.3c-8.8,0-27.2,1.8-55.1,5.5
	c-8.1,0-17.6-3.3-28.7-9.9c-11-5.9-16.5-18.4-16.5-37.5c0-55.8,29.7-114.3,89.3-175.3c33.8-33.8,86-75.7,156.5-125.6L373.7,130
	C232.6,202.8,135,283,81,370.8S0,541.5,0,619.4L0,619.4L0,619.4z M608.5,619.4c0,81.6,21.3,146.8,63.9,195.6
	c42.6,48.9,97,73.3,163.2,73.3c58,0,104-17.4,137.8-52.4s50.7-81,50.7-138.3c0-49.2-15.3-90.7-45.8-124.5
	c-30.5-33.8-68.9-50.7-115.2-50.7c-8.8,0-27.2,1.8-55.1,5.5c-14,0-25-4.8-33.1-14.3c-8.1-9.6-12.1-22-12.1-37.5
	c0-53.6,31.2-111.7,93.7-174.1c35.3-35.3,86-76.1,152.1-122.3L982.1,130c-134.5,69.1-230.4,147.3-287.7,234.8
	S608.4,537.1,608.5,619.4L608.5,619.4L608.5,619.4z"/>
</svg>
