<?xml version="1.0" encoding="utf-8"?>
<!-- Generator: Adobe Illustrator 19.2.1, SVG Export Plug-In . SVG Version: 6.00 Build 0)  -->
<svg version="1.1" id="Calque_1" xmlns="http://www.w3.org/2000/svg" xmlns:xlink="http://www.w3.org/1999/xlink" x="0px" y="0px"
	 viewBox="0 0 1024 1024" enable-background="new 0 0 1024 1024" xml:space="preserve">
<path fill="#444444" d="M1024,369c0-81.6-21.1-146.8-63.4-195.7S863.1,100,794.7,100c-58,0-103.6,18.2-136.7,54.6
	c-33.1,36.4-49.6,81.8-49.6,136.2c0,48.5,15.1,89.8,45.2,124S722.3,466,769.3,466c8.8,0,27.2-1.8,55.1-5.5c8.1,0,17.6,3.3,28.7,9.9
	c11,5.9,16.5,18.4,16.5,37.5c0,55.8-29.8,114.3-89.3,175.3c-33.8,33.8-86,75.7-156.5,125.6l26.5,49.6
	C791.4,785.6,889,705.3,943,617.5C997,529.7,1024,446.8,1024,369L1024,369L1024,369z M415.5,369c0-81.6-21.3-146.8-63.9-195.7
	s-97-73.3-163.2-73.3c-58,0-104,17.4-137.8,52.4S0,233.4,0,290.7c0,49.2,15.3,90.7,45.8,124.5s68.9,50.7,115.2,50.7
	c8.8,0,27.2-1.8,55.1-5.5c14,0,25,4.8,33.1,14.3c8.1,9.6,12.1,22,12.1,37.5c0,53.6-31.2,111.7-93.7,174.2
	c-35.3,35.2-86,76.1-152.1,122.3l26.4,49.6C176.3,789.2,272.2,711,329.6,623.5S415.5,451.2,415.5,369L415.5,369L415.5,369z"/>
</svg>
