<?xml version="1.0" encoding="utf-8"?>
<!-- Generator: Adobe Illustrator 21.1.0, SVG Export Plug-In . SVG Version: 6.00 Build 0)  -->
<svg version="1.1" xmlns="http://www.w3.org/2000/svg" xmlns:xlink="http://www.w3.org/1999/xlink" x="0px" y="0px"
	 viewBox="0 0 1024 1024" style="enable-background:new 0 0 1024 1024;" xml:space="preserve">
<g id="Calque_2">
</g>
<g id="Calque_1">
	<path d="M740.8,358.4c0-126.1-102.6-228.6-228.6-228.6S283.6,230.6,283.6,358.4S386.2,587,512.2,587S740.8,484.5,740.8,358.4z
		 M512.1,533.7c-96.9,0-176.9-78.4-176.9-176.9s79.9-175.4,176.9-175.4S689,259.8,689,358.3S609,533.7,512.1,533.7z M870.5,914.8
		L728.9,604.2c3.4-6.8,6.8-13.7,11.9-18.8c6.8-6.8,20.5-11.9,32.4-17.1c18.8-6.8,37.5-15.4,47.8-32.4c10.2-17.1,6.8-37.5,3.4-58
		c-1.7-13.7-3.4-27.3-1.7-37.5c3.4-10.2,10.2-20.5,18.8-30.7c11.9-15.4,25.6-32.4,25.6-52.9s-13.7-37.5-25.6-52.9
		c-8.5-10.2-17.1-20.5-18.8-30.7c-3.4-10.2,0-23.9,1.7-37.5c3.4-20.5,6.8-41-3.4-58c-10.2-17.1-29-25.6-47.8-32.4
		c-13.7-5.1-25.6-10.2-32.4-17.1c-6.8-6.8-11.9-20.5-17.1-32.4C716.9,77,708.3,58.3,691.3,48c-8.5-5.1-17.1-6.8-29-6.8
		c-10.2,0-18.8,1.7-29,3.4c-8.5,1.7-17.1,3.4-25.6,3.4c-5.1,0-8.5,0-11.9-1.7c-10.2-3.4-20.5-10.2-30.7-18.8
		C549.7,13.7,532.6,0,512.1,0c-20.5,0-37.5,13.7-52.9,25.6c-10.2,8.5-20.5,17.1-30.7,18.8c-3.4,1.7-6.8,1.7-11.9,1.7
		c-8.5,0-17.1-1.7-25.6-3.4c-10.2-1.7-18.8-3.4-29-3.4c-11.9,0-20.5,1.7-29,6.8c-17.1,10.2-25.6,29-32.4,47.8
		c-5.1,13.7-10.2,25.6-17.1,32.4c-6.8,6.8-20.5,11.9-32.4,17.1c-18.8,6.8-37.5,15.4-47.8,32.4c-10.2,17.1-6.8,37.5-3.4,58
		c1.7,13.7,3.4,27.3,1.7,37.5c-3.4,10.2-10.2,20.5-18.8,30.7c-15.4,18.8-29,35.8-29,56.3s13.7,37.5,25.6,52.9
		c8.5,10.2,17.1,20.5,18.8,30.7c3.4,10.2,0,23.9-1.7,37.5c-3.4,20.5-6.8,41,3.4,58c10.2,17.1,29,25.6,47.8,32.4
		c13.7,5.1,25.6,10.2,32.4,17.1c5.1,5.1,8.5,11.9,11.9,18.8L153.7,914.8c-1.7,3.4-1.7,8.5,1.7,10.2c1.7,3.4,6.8,5.1,10.2,5.1
		L290.2,913l70,105.8c1.7,3.4,5.1,5.1,8.5,5.1l0,0c3.4,0,6.8-3.4,8.5-6.8L512,723.6l135,293.6c1.7,3.4,5.1,5.1,8.5,6.8l0,0
		c3.4,0,6.8-1.7,8.5-5.1l70-105.8l124.6,17.1c3.4,0,8.5-1.7,10.2-3.4C872.2,923.3,872.2,918.2,870.5,914.8z M364,958.7l-51.7-81.8
		c-1.5-3-5.9-4.4-8.9-4.4L207,885.8L315.2,651c5.9,11.9,10.1,23.8,22,29.7c7.4,4.4,14.9,5.9,25.3,5.9c8.9,0,16.4-1.5,25.3-3
		c7.4-1.5,14.9-3,22.3-3c4.4,0,7.4,0,10.4,1.5c8.9,3,17.9,8.9,26.7,16.4c8.9,7.4,17.5,14.9,27.9,19.3L364,958.7z M512.1,669.8
		c-11.1,0-23.8-9.5-36.6-19.1c-11.1-9.5-22.2-19.1-36.6-22.2c-4.7-1.6-9.5-1.6-15.9-1.6c-9.5,0-17.5,1.6-27,3.2
		c-7.9,1.6-15.9,3.2-23.8,3.2c-6.3,0-12.7-1.6-15.9-3.2c-9.5-6.3-15.9-20.7-20.7-34.9c-4.7-14.3-11.1-27-20.7-38.2
		c-9.5-9.5-23.8-15.9-38.2-20.7c-14.3-6.3-28.6-11.1-34.9-20.7c-6.3-9.5-3.2-23.8-1.6-39.7c1.6-14.3,4.7-30.2,0-42.9
		c-3.2-12.7-12.7-25.4-22.2-36.6c-9.5-12.7-19.1-25.4-19.1-36.6s9.5-23.8,19.1-36.6c9.5-11.1,19.1-22.2,22.2-36.6
		c3.2-14.3,1.6-28.6,0-42.9c-1.6-15.9-4.7-30.2,1.6-39.7c6.3-9.5,20.7-15.9,34.9-20.7c14.3-4.7,27-11.1,38.2-20.7
		c9.5-9.5,15.9-23.8,20.7-38.2c6.3-14.3,11.1-28.6,20.7-34.9c4.7-1.6,9.5-3.2,15.9-3.2c7.9,0,15.9,1.6,23.8,3.2
		c9.5,1.6,17.5,3.2,27,3.2c6.3,0,11.1,0,15.9-1.6c12.7-3.2,25.4-12.7,36.6-22.2c12.7-9.5,25.4-19.1,36.6-19.1
		c11.1,0,23.8,9.5,36.6,19.1c11.1,9.5,22.2,19.1,36.6,22.2c4.7,1.6,9.5,1.6,15.9,1.6c9.5,0,17.5-1.6,27-3.2
		c7.9-1.6,15.9-3.2,23.8-3.2c6.3,0,12.7,1.6,15.9,3.2c9.5,6.3,15.9,20.7,20.7,34.9c4.7,14.3,11.1,27,20.7,38.2
		c9.5,9.5,23.8,15.9,38.2,20.7c14.3,6.3,28.6,11.1,34.9,20.7c6.3,9.5,3.2,23.8,1.6,39.7c-1.6,14.3-4.7,30.2,0,42.9
		c3.2,12.7,12.7,25.4,22.2,36.6c9.5,12.7,19.1,25.4,19.1,36.6s-9.5,23.8-19.1,36.6c-9.5,11.1-19.1,22.2-22.2,36.6
		c-3.2,14.3-1.6,28.6,0,42.9c1.6,15.9,4.7,30.2-1.6,39.7c-6.3,9.5-20.7,15.9-34.9,20.7c-14.3,4.7-27,11.1-38.2,20.7
		c-9.5,9.5-15.9,23.8-20.7,38.2c-6.3,14.3-11.1,28.6-20.7,34.9c-4.7,1.6-9.5,3.2-15.9,3.2c-7.9,0-15.9-1.6-23.8-3.2
		c-9.5-1.6-17.5-3.2-27-3.2c-6.3,0-11.1,0-15.9,1.6c-12.7,3.2-25.4,12.7-36.6,22.2C535.9,660.3,523.3,669.8,512.1,669.8z
		 M720.1,869.5c-3,0-7.4,1.5-8.9,4.4l-51.7,81.8L550.7,716.4c10.4-4.4,19-11.9,27.9-19.3c8.9-7.4,17.9-14.9,26.8-16.4
		c3-1.5,5.9-1.5,10.4-1.5c7.4,0,14.9,1.5,22.3,3c8.9,1.5,16.4,3,25.3,3c10.4,0,17.9-1.5,25.3-5.9c11.9-7.4,16-17.9,22-31.2
		l105.9,234.9L720.1,869.5z"/>
</g>
</svg>
