<?xml version="1.0" encoding="utf-8"?>
<!-- Generator: Adobe Illustrator 19.2.1, SVG Export Plug-In . SVG Version: 6.00 Build 0)  -->
<svg version="1.1" id="Calque_1" xmlns="http://www.w3.org/2000/svg" xmlns:xlink="http://www.w3.org/1999/xlink" x="0px" y="0px"
	 viewBox="0 0 1024 1024" enable-background="new 0 0 1024 1024" xml:space="preserve">
<path fill="#444444" d="M929.6,508.5C929,401,896,314.9,829.5,236.8c-66.8-78.5-151.9-125.8-253.8-141.7
	c-168.1-26.2-316.9,52.7-393.1,157c27.1,27.4,54.2,54.9,81.3,82.2c94.2-132.6,264.8-159.3,387.4-94.6
	c108.9,57.5,165.9,189.6,160.8,268.8c-31.4,0-62.8,0-94,0c51.4,56.6,102.4,103.2,152.9,154.2c50.8-51.2,101.8-97.6,153-154.2
	C993.4,508.5,962,508.5,929.6,508.5z"/>
<path fill="#444444" d="M579.5,803c-73.9,16.9-144.7,6.4-211.2-29.4c-111.1-59.7-161.4-163.3-157.6-265.1c31.2,0,62.4,0,92.6,0
	c-51-45.3-102-103.3-151.2-153.1C101.3,406.5,50.4,463.2,0,508.5c29.5,0,61.1,0,93.1,0c2.2,101.8,34.8,193,100.4,270
	c65.9,77.4,149.8,125.4,249.9,142.2c160.3,26.9,313.2-43.5,394.3-152.5c-27.1-27.7-54-54.9-81.4-82.9
	C711.1,745.1,653.2,786.1,579.5,803L579.5,803z"/>
</svg>
