<?xml version="1.0" encoding="utf-8"?>
<!-- Generated by IcoMoon.io -->
<!DOCTYPE svg PUBLIC "-//W3C//DTD SVG 1.1//EN" "http://www.w3.org/Graphics/SVG/1.1/DTD/svg11.dtd">
<svg version="1.1" xmlns="http://www.w3.org/2000/svg" xmlns:xlink="http://www.w3.org/1999/xlink" width="32" height="32" viewBox="0 0 32 32">
<path fill="#444444" d="M27.727 16c-0.016-3.040-0.951-5.475-2.831-7.684-1.889-2.221-4.297-3.559-7.177-4.008-4.753-0.741-8.961 1.491-11.117 4.441 0.767 0.775 1.533 1.552 2.299 2.325 2.665-3.75 7.488-4.506 10.957-2.676 3.081 1.625 4.692 5.362 4.548 7.602-0.888 0-1.777 0-2.658 0 1.453 1.6 2.895 2.919 4.323 4.36 1.438-1.449 2.88-2.76 4.326-4.36-0.864 0-1.753 0-2.67 0z"></path>
<path fill="#444444" d="M17.827 24.328c-2.089 0.479-4.092 0.18-5.972-0.831-3.141-1.689-4.566-4.617-4.457-7.497 0.882 0 1.766 0 2.619 0-1.443-1.28-2.884-2.922-4.277-4.331-1.437 1.448-2.878 3.051-4.303 4.331 0.835 0 1.727 0 2.633 0 0.063 2.88 0.984 5.459 2.84 7.636 1.864 2.189 4.237 3.546 7.067 4.021 4.534 0.762 8.859-1.231 11.152-4.312-0.766-0.782-1.527-1.553-2.303-2.344-1.278 1.69-2.917 2.849-4.997 3.327z"></path>
</svg>
