<?xml version="1.0" encoding="utf-8"?>
<!-- Generator: Adobe Illustrator 19.1.0, SVG Export Plug-In . SVG Version: 6.00 Build 0)  -->
<svg version="1.1" id="Calque_1" xmlns="http://www.w3.org/2000/svg" xmlns:xlink="http://www.w3.org/1999/xlink" x="0px" y="0px"
	 viewBox="206 -116 1024 1024" style="enable-background:new 206 -116 1024 1024;" xml:space="preserve">
<g>
	<polygon points="751,278.9 751,582.5 1003.4,430.7 	"/>
	<path d="M981.3,794.9l10.2,96.4c0,0,56.3-17.1,90.4-35.8l-44.4-83.6C1037.6,771.9,1007.7,784.7,981.3,794.9z"/>
	<path d="M935.2,806.8l10.2,93.8c0,0-34.1,8.5-73.3,6v-93.8C872.1,812.8,907.1,813.7,935.2,806.8z"/>
	<path d="M826,813.7v93.4c0,0-189.3,6.3-348.8-171.1c0,0-110.9-118.6-119.4-305.3c0,0-9.4-230.3,154.4-377.8
		c0,0,123.7-132.2,337.7-137.3V-116l169.7,85.3L849.9,53.7V10.2c0,0-272.1-4.3-374.4,268.7c0,0-75.1,182.5,45.2,354.8
		C520.7,633.7,617.1,796.6,826,813.7z"/>
</g>
</svg>
