<?xml version="1.0" encoding="utf-8"?>
<!-- Generator: Adobe Illustrator 19.2.0, SVG Export Plug-In . SVG Version: 6.00 Build 0)  -->
<svg version="1.1" id="Calque_1" xmlns="http://www.w3.org/2000/svg" xmlns:xlink="http://www.w3.org/1999/xlink" x="0px" y="0px"
	 viewBox="0 0 1024 1024" style="enable-background:new 0 0 1024 1024;" xml:space="preserve">
<style type="text/css">
	.st0{fill:#010002;}
</style>
<path d="M378.5,767.8c-32,0-54.3-25.3-54.3-61.6V309.7c0-35.4,23.2-61.2,55.3-61.2c11.1,0,22.2,3.1,33.1,9.2l359.2,199.9
	c21.4,11.8,33.7,30.2,33.7,50.5c0,20.1-12.3,38.5-33.7,50.5L412.5,758.5C401.2,764.6,389.7,767.8,378.5,767.8z M379.6,303
	c-0.5,1.6-0.8,4-0.8,6.7v396.5c0,3.3,0.4,5.5,0.8,6.7c1.5-0.3,3.6-1,6.2-2.5l359.4-199.9c1.7-1,3-1.9,3.9-2.6
	c-0.9-0.7-2.2-1.6-3.9-2.6L385.9,305.5C382.9,303.8,380.8,303.2,379.6,303z"/>
<g>
	<path class="st0" d="M1024,271.2l-51,160.5L834.7,328.1l63.7-21.3c-45.7-83.9-121.7-156.5-210-196.7
		C586,63.7,471.1,57.7,364.7,93.2C132.9,170.7,7.4,422.4,84.9,654.1c77.5,231.8,329.1,357.3,560.9,279.8
		C768.2,893,866.5,801,915.5,681.5l5.8-14.1l57.5,23.5L973,705c-55.8,136.3-167.9,241.2-307.4,287.9
		c-264.2,88.4-551.1-54.7-639.4-319c-88.4-264.2,54.7-551.1,319-639.4c122.2-40.9,254-33.6,371.2,20.4C823,104,908,186,958.9,290.3
		L1024,271.2z"/>
</g>
</svg>
