<?xml version="1.0" encoding="utf-8"?>
<!-- Generator: Adobe Illustrator 19.2.1, SVG Export Plug-In . SVG Version: 6.00 Build 0)  -->
<svg version="1.1" id="Calque_1" xmlns="http://www.w3.org/2000/svg" xmlns:xlink="http://www.w3.org/1999/xlink" x="0px" y="0px"
	 viewBox="0 0 1024 1024" enable-background="new 0 0 1024 1024" xml:space="preserve">
<path fill="#444444" d="M896,192.2h-96c-17.7,0-32,14.3-32,31.9V288c0,17.7,14.3,32,32,32h96v384H640V544c0-13-7.8-24.7-19.7-29.5
	c-3.9-1.7-8.1-2.5-12.2-2.5c-8.3,0-16.5,3.3-22.6,9.4l-224,223.9c-12.5,12.5-12.5,32.8,0,45.3l128,127.9l96,96.1
	c6.1,6,14.3,9.4,22.6,9.4c4.1,0,8.3-0.9,12.2-2.5c12-4.9,19.7-16.7,19.7-29.5V832h256c70.8,0,128-57.2,128-127.9V320
	C1024,249.4,966.8,192.1,896,192.2L896,192.2z M224,704.1h-96V320h256v160.1c0,13,7.8,24.6,19.8,29.5c3.9,1.6,8.1,2.4,12.2,2.4
	c8.4,0,16.5-3.2,22.6-9.3l224-224.1c12.5-12.4,12.5-32.7,0-45.2l-224-224C432.5,3.2,424.4,0,416,0c-4.1,0-8.3,0.7-12.2,2.4
	C391.8,7.3,384,19.1,384,32V192H128C57.3,192,0,249.3,0,319.9V704c0,70.6,57.3,128,128,128h96c17.7,0,32-14.3,32-32.1V736
	c0-17.7-14.3-32-32-32V704.1z"/>
</svg>
