<?xml version="1.0" encoding="utf-8"?>
<!-- Generator: Adobe Illustrator 19.1.0, SVG Export Plug-In . SVG Version: 6.00 Build 0)  -->
<svg version="1.1" id="Calque_1" xmlns="http://www.w3.org/2000/svg" xmlns:xlink="http://www.w3.org/1999/xlink" x="0px" y="0px"
	 viewBox="206 -116 1024 1024" style="enable-background:new 206 -116 1024 1024;" xml:space="preserve">
<g>
	<path d="M604.5,678.1c96.8,0,184.9-34.3,253.5-92.4l308.1,308.1c7,7,15.8,10.6,25.5,10.6c9.7,0,18.5-3.5,25.5-10.6
		c14.1-14.1,14.1-37,0-51.1L909.1,534.6c57.2-68.7,92.4-157.6,92.4-253.5c0-219.2-177.8-397.1-397.1-397.1
		c-218.3,0-397.1,178.7-397.1,397.1C207.4,500.3,386.1,678.1,604.5,678.1z M604.5-43.8c179.6,0,324.9,146.1,324.9,324.9
		c0,179.6-145.3,324.9-324.9,324.9S279.6,459.8,279.6,281.1C279.6,102.3,425.7-43.8,604.5-43.8z"/>
</g>
</svg>
