<?xml version="1.0" encoding="utf-8"?>
<!-- Generator: Adobe Illustrator 19.2.1, SVG Export Plug-In . SVG Version: 6.00 Build 0)  -->
<svg version="1.1" id="Calque_1" xmlns="http://www.w3.org/2000/svg" xmlns:xlink="http://www.w3.org/1999/xlink" x="0px" y="0px"
	 viewBox="0 0 1024 1024" enable-background="new 0 0 1024 1024" xml:space="preserve">
<path fill="#444444" d="M832,327.6v-290c0-16.6-13.4-30-30-30h-4c-16.6,0-30,13.5-30,30v34H256v-34c0-16.6-13.5-30-30-30h-4
	c-16.6,0-30,13.5-30,30v290H0c0,0,0,13.4,0,30v4c0,16.6,13.5,30,30,30h34v226c0,16.6,13.4,30,30,30h107.1l247.9,143L154.6,960.6
	c-14.3,8.3-19.1,26.7-10.8,41l2,3.5c8.4,14.3,26.7,19.2,41,10.8L513,827.7l326.2,188.2c14.3,8.4,32.7,3.5,41-10.8l2-3.5
	c8.3-14.3,3.5-32.7-10.8-41L577,790.7l247.9-143H930c16.6,0,30-13.5,30-30v-226h34c16.6,0,30-13.5,30-30v-4c0-16.6,0-30,0-30H832z
	 M768,325.6v130H256v-130H768z M191.9,391.7v124.4l-64,69V391.7H191.9z M513,753.8L329.1,647.7h367.7L513,753.8L513,753.8z
	 M896,585.2c-13.7-14.2-39.3-40.5-64-65.9V391.7h64V585.2z"/>
</svg>
