<?xml version="1.0" encoding="utf-8"?>
<!-- Generator: Adobe Illustrator 19.2.1, SVG Export Plug-In . SVG Version: 6.00 Build 0)  -->
<svg version="1.1" id="Layer_1" xmlns="http://www.w3.org/2000/svg" xmlns:xlink="http://www.w3.org/1999/xlink" x="0px" y="0px"
	 viewBox="0 0 1024 1024" enable-background="new 0 0 1024 1024" xml:space="preserve">
<g>
	<g>
		<path fill="#515151" d="M28.1,523c-38.8,20.3-37.2,50.1,3.5,66.3L152,637c40.7,16.1,102.2,7.3,136.8-19.7l523.1-412.5
			c34.4-27.1,38.1-23.1,8.2,8.9L406.5,656.3c-30,31.9-21.1,71,19.7,86.8l14.1,5.5c40.8,15.8,107.4,42.3,147.9,58.8l133.6,54.4
			c40.6,16.5,73.7,30.1,73.8,30.4c0,0.3,0.2,1,0.4,1.1c0.2,0.1,9.8-34.4,21.3-76.6L1021,68.2c11.5-42.2-10.8-60.2-49.6-39.8
			L28.1,523z"/>
	</g>
	<g>
		<path fill="#515151" d="M358.7,1012.9c-2.4,7.1,82.4-122.8,82.4-122.8c23.9-36.6,10.4-80.2-30.1-96.8l-92.4-37.9
			c-40.5-16.6-59.9,2.9-43.1,43.4C275.3,799,361.1,1005.6,358.7,1012.9z"/>
	</g>
</g>
</svg>
