<?xml version="1.0" encoding="utf-8"?>
<!-- Generator: Adobe Illustrator 19.2.1, SVG Export Plug-In . SVG Version: 6.00 Build 0)  -->
<svg version="1.1" id="Calque_1" xmlns="http://www.w3.org/2000/svg" xmlns:xlink="http://www.w3.org/1999/xlink" x="0px" y="0px"
	 viewBox="0 0 1024 1024" enable-background="new 0 0 1024 1024" xml:space="preserve">
<path fill="#444444" d="M898,313.6c-3.2-22.4-16-41.6-32-60.8L645.2,35.2c-19.2-19.2-41.6-28.8-64-32l0,0L578,0H248.4C181.2,0,130,51.2,130,118.4
	V912c3.2,60.8,54.4,112,118.4,112h531.2c64,0,118.4-51.2,118.4-118.4V316.8V313.6L898,313.6z M715.6,572.8c22.4,0,38.4,16,38.4,38.4
	s-16,38.4-38.4,38.4h-76.8H312.4c-22.4,0-38.4-16-38.4-38.4s16-38.4,38.4-38.4h304H690H715.6L715.6,572.8z M715.6,729.6
	c22.4,0,38.4,16,38.4,38.4s-16,38.4-38.4,38.4H613.2H338h-25.6c-22.4,0-38.4-16-38.4-38.4s16-38.4,38.4-38.4h76.8H715.6L715.6,729.6
	z M613.2,112l169.6,169.6h-128c-22.4,0-41.6-19.2-41.6-41.6L613.2,112L613.2,112z M821.2,905.6c0,22.4-19.2,38.4-38.4,38.4H248.4
	c-22.4,0-38.4-19.2-38.4-38.4V118.4c-3.2-22.4,16-41.6,38.4-41.6h288V240c0,67.2,54.4,118.4,118.4,118.4h166.4
	C821.2,358.4,821.2,905.6,821.2,905.6z"/>
</svg>
