<?xml version="1.0" encoding="utf-8"?>
<!-- Generator: Adobe Illustrator 19.2.1, SVG Export Plug-In . SVG Version: 6.00 Build 0)  -->
<svg version="1.1" id="Calque_1" xmlns="http://www.w3.org/2000/svg" xmlns:xlink="http://www.w3.org/1999/xlink" x="0px" y="0px"
	 viewBox="0 0 1024 1024" style="enable-background:new 0 0 1024 1024;" xml:space="preserve">
<path d="M480.7,951.3c0.4,0.3,0.8,0.7,1.2,1c14.6,11.1,29.3,16.7,43.5,16.7c16,0,29.9-7.2,39.3-20.2c8.1-11.3,12.2-26,12.2-43.7
	V119.8c0-44.1-25.8-63.8-51.3-63.8c-14.3,0-28.9,5.6-43.6,16.7c-0.4,0.3-0.8,0.6-1.2,1L279.1,249.1c-34.7,26.1-64,38.3-92.3,38.3
	H91.6c-51.7,0-92.3,42-92.3,95.5v258.9c0,53.9,40.5,96.1,92.3,96.1h95.3c28.4,0,57.7,12.1,92.1,38L480.7,951.3z M91.6,691.8
	c-25.8,0-46.1-21.9-46.1-49.9V383c0-27.7,20.2-49.3,46.1-49.3h95.3c51.3,0,93.5-27.5,120.8-48.2c0.4-0.3,0.8-0.6,1.2-1l201.6-175.4
	c8.7-6.4,13.8-6.9,15.2-6.9c2.5,0,5.1,7.1,5.1,17.6V905c0,11-2.7,15.6-3.5,16.8c-0.7,1-0.8,1-1.7,1c-1.4,0-6.4-0.5-15-6.9
	L308.7,740.6c-0.4-0.3-0.8-0.7-1.2-1c-27.1-20.6-69.2-47.9-120.6-47.9H91.6z"/>
<path d="M719.5,263.7c-9.4-8.7-24-8.1-32.6,1.3c-8.7,9.4-8.1,24,1.3,32.7c3.7,3.4,90,84.7,90,214.8c0,129.9-86.4,211.4-90.1,214.8
	c-9.4,8.7-9.9,23.3-1.2,32.7c4.6,4.9,10.7,7.4,16.9,7.4c5.6,0,11.3-2,15.7-6.2c4.3-4,104.8-98.9,104.8-248.7
	C824.4,362.4,723.8,267.6,719.5,263.7z"/>
<path d="M866.4,139.1c-9.4-8.7-24-8.1-32.6,1.3c-8.7,9.4-8.1,24,1.3,32.6c5.8,5.4,142.1,133.8,142.1,339.4S840.8,846.4,835,851.8
	c-9.4,8.7-9.9,23.3-1.3,32.7c4.6,4.9,10.8,7.4,17,7.4c5.6,0,11.2-2,15.7-6.1c6.4-5.9,156.9-147.7,156.9-373.3
	C1023.3,286.8,872.8,145,866.4,139.1z"/>
</svg>
