<?xml version="1.0" encoding="utf-8"?>
<!-- Generator: Adobe Illustrator 19.2.1, SVG Export Plug-In . SVG Version: 6.00 Build 0)  -->
<svg version="1.1" id="Calque_1" xmlns="http://www.w3.org/2000/svg" xmlns:xlink="http://www.w3.org/1999/xlink" x="0px" y="0px"
	 viewBox="0 0 1024 1024" enable-background="new 0 0 1024 1024" xml:space="preserve">
<path fill="#444444" d="M536.5,4.8C528.6,1.7,520.3,0,512,0c-16.6,0-33,6.4-45.2,18.6L224,255.9H64c-35.3,0-64,28.6-64,64v384
	c0,35.5,28.6,64,64,64h161.2l241.6,237.4c12.2,12.1,28.6,18.7,45.2,18.7c8.3,0,16.6-1.8,24.5-4.9c23.9-9.9,39.5-33.3,39.5-59.1V63.9
	C576,37.9,560.4,14.7,536.5,4.8z M716.3,299.7L632,383.8c34.5,29,57.8,74.8,57.8,128.1s-23,99.3-57.5,128.4l85.4,85.3
	c50.4-52.5,82.3-128.8,82.3-213.7C800,426.8,766.9,352.2,716.3,299.7L716.3,299.7z M878.9,136.8l-90.3,90.4
	C854.2,297.3,896,398.5,896,512c0,113.7-41.8,214.6-107.4,284.8l90.2,90.2c88.8-93.2,145.1-226.1,145.1-375S967.7,230.2,878.9,136.8
	L878.9,136.8z"/>
</svg>
