<?xml version="1.0" encoding="utf-8"?>
<!-- Generator: Adobe Illustrator 21.1.0, SVG Export Plug-In . SVG Version: 6.00 Build 0)  -->
<svg version="1.1" id="icone" xmlns="http://www.w3.org/2000/svg" xmlns:xlink="http://www.w3.org/1999/xlink" x="0px" y="0px"
	 viewBox="0 0 1024 660" style="enable-background:new 0 0 1024 660;" xml:space="preserve">
<path d="M169.2,635.3c-9.5,2.4-29.4-3.5-29.4-3.5s-7.1-11.7-12.9-11.7c-5.9,0-11.7,16.4-11.7,16.4l-33-4.7l-42.3,14.1h976.4
	l-3.5-11.7h-25.9h-33.1l-21.2-14.1l-15.2,14.1l-11.7-10.6h-15.3l-5.9,10.6l-17.7-9.5h-14.1h-15.3c0,0-3.5-5.9-9.5-9.5
	c-4.7-3.5-24.7-12.9-24.7-12.9s-40-51.8-44.7-61.1c-4.7-9.5-5.9-20-8.2-25.9c-2.4-7.1-14.1-9.5-14.1-9.5s-9.5-14.1-16.4-25.9
	c-7-11.8-31.7-81.2-31.7-81.2s10.6-16.4,11.7-25.9c1.1-9.5-2.4-37.6-2.4-37.6s33-25.9,40-33c7.1-7.1,50.6-55.3,54.1-64.7
	c3.5-9.5,40-4.7,40-4.7s14.1,16.4,25.9,23.5s31.7,7.1,31.7,7.1l14.1,11.7h25.8c0,0,9.5-11.7,14.1-15.3c5.9-3.5,4.7-20,0-21.2
	c-4.7-2.4-17.7-12.9-17.7-12.9l-78.8-90.6l-22.4-9.5l-23.5-21.2l-16.4,2.4v18.8c0,0-3.5,12.9-14.1,20c-9.5,7.1-36.5,20-36.5,20
	l-15.3-8.2l-17.7,12.9c0,0-16.4-1.1-25.9-9.5c-9.5-8.2-16.4-27-25.9-38.8c-9.5-11.7,4.7-20,4.7-20s17.7-4.7,28.3-12.9
	c10.6-8.2,2.4-28.3,0-37.6c-2.4-9.5-22.4-18.8-22.4-18.8V14h-14.1c0,0,1.1,11.7-4.7,10.6c-5.9-1.1-25.9,11.7-30.6,20
	S602,58.7,602,58.7s-17.7-12.9-25.9-14.1c-8.2-1.1-20,9.5-20,9.5l-70.6,4.7c0,0-25.9,17.7-43.6,25.9c-16.4,8.2-14.1,37.6-10.6,54.1
	c3.5,15.3,65.9,60,65.9,60v21.3c-12.9,2.4-24.7-4.7-24.7-4.7s-12.9,2.4-27,4.7c-14.1,2.4-23.5-7.1-23.5-7.1s-22.4-5.9-55.3-14.1
	s-78.8-2.4-92.9-1.1c-14.1,2.4-14.1,11.7-22.4,10.6c-8.2-1.1-28.3,3.5-37.6,5.9c-9.5,2.4-29.4,25.9-44.7,41.2
	c-14.1,15.3-42.3,25.9-54.1,30.6c-11.7,3.5-33-3.5-33-3.5s-5.9,14.1-12.9,14.1s-10.6-9.5-10.6-9.5s-5.8,19.9-21,22.3
	c-15.3,2.4-18.8-9.5-20-3.5c-1.1,5.9-8.2,2.4-8.2,2.4v14.1c0,0,28.3,18.8,47.1,15.3c18.8-2.4,51.8-2.4,68.2,0
	c15.3,2.4,28.3-14.1,35.2-23.5c7.1-9.5,44.7-33,40-27c-4.7,5.9-1.1,65.9-1.1,65.9s-23.5,22.4-31.7,31.7c-8.2,9.5-30.6,3.5-30.6,3.5
	s-9.5,16.4-18.8,24.7c-9.5,8.2-43.6,30.6-43.6,30.6s-15.3,14.1-20,14.1c-3.5,1.1-18.8-8.2-18.8-8.2s-24.7,12.9-27,16.4
	s11.7,15.3,11.7,15.3l27-2.4c0,0,14.1,3.5,22.4,4.7c8.2,1.1,14.1-11.7,14.1-11.7s31.7-35.2,37.6-36.5c5.9-1.1,25.9-4.7,25.9-4.7
	l8.2-11.7l17.7-10.6l5.9,9.5c0,0-9.5,34.1-9.5,42.3c0,8.2-12.9,9.5-12.9,9.5s-14.1-3.5-21.2-1.1c-7.1,2.4-14.1,21.2-14.1,21.2
	s8.2,2.4,16.4,2.4s33,1.1,38.8,0c7.1-1.1,12.9-9.5,12.9-9.5s3.5-25.9,4.7-35.2c1.1-9.5,9.5-48.2,9.5-48.2l36.5-8.2
	c0,0,31.7,4.7,62.4,2.4c31.7-2.4,42.3-14.1,48.2-18.8c5.9-4.7,0-21.2,0-21.2l10.6,2.4c0,0,54.1,37.6,72.9,45.9
	c20,8.2,74.1,14.1,74.1,14.1l24.7,10.6c0,0-15.3,15.3-22.4,23.5c-7.1,8.2-35.2,56.5-35.2,56.5l-32.8,43.2l-14.1,5.9
	c0,0-5.9,12.9-2.4,20c3.5,7.1,12.9,21.2,12.9,21.2s9.5-2.4,14.1-9.5c3.5-5.9,3.5-22.4,3.5-22.4s35.2-44.7,43.6-49.4
	c8.2-5.9,25.9-29.4,25.9-29.4l56.5-49.4c0,0,35.2-14.1,36.5-9.5c1.1,4.7,37.6,30.6,37.6,30.6s24.7,35.2,37.6,52.9
	c12.9,17.7,14.1,25.9,14.1,25.9s11.7,5.9,22.4,12.9s38.8,60,38.8,60l14.1,5.9l-3.5,5.9l11.7,14.1l-21.2-2.4c0,0-11.7,2.4-17.7,3.5
	c-5.9,1.1-18.8-3.5-21.2-2.4c-2.4,1.1-22.4,3.5-30.6,3.5c-8.2,0-8.2-8.2-11.7-10.6c-3.5-2.4-14.1,3.5-22.4,5.9
	c-8.2,2.4-18.8-9.5-21.2-7.1c-2.4,2.4-2.4,8.2-8.2,8.2c-4.7,0-7.1-8.2-14.1-2.4c-7.1,4.7-25.9,5.9-40,8.2
	c-14.1,2.4-16.4-14.1-16.4-14.1s-3.5,9.5-25.9,11.7c-22.4,2.3-17.7-12.9-28.3-12.9c-10.6,0-11.7,14.1-11.7,14.1s-11.7-1.1-21.2-7.1
	c-9.5-5.9-22.4-3.5-35.2-2.4c-12.9,2.4-17.7-7.1-17.7-7.1s-11.7,14.1-20,18.8c-8.2,3.5-17.7-14.1-17.7-14.1s-3.5,10.6-11.7,14.1
	c-8.2,2.4-24.7-14.1-24.7-14.1s-12.9,10.6-25.9,12.9c-12.9,2.4-11.7-14.1-11.7-14.1s-5.9,5.9-16.4,12.9s-14.1-9.5-24.7-7.1
	c-10.6,2.4-10.6,7.1-10.6,7.1l-4.7-12.9l-12.9,12.9c0,0-9.5-9.5-17.7-2.4s-38.8,4.7-50.6,3.5c-5.9,0-5.9-3.5-3.5-7.1
	C178.6,630.5,174,634.1,169.2,635.3z M611.6,200c-10.6-1.1-31.7-1.1-31.7-1.1l11.7,8.2c0,0-27,7.1-40,7.1c0,0,4.7-18.8,0-28.3
	c-4.7-9.5-29.4-45.9-29.4-45.9l-2.4-3.5l15.3-3.5c0,0,10.6,4.7,20,8.2c8.2,3.5,15.3,3.5,21.2,1.1c5.9-2.4,18.8-2.4,18.8-2.4
	s3.5,14.1,9.5,17.7c5.9,3.5,14.1,15.3,22.4,16.4c8.3,1.1,24.7,16.4,24.7,16.4S622.1,202.4,611.6,200z"/>
</svg>
