<?xml version="1.0" encoding="utf-8"?>
<!-- Generator: Adobe Illustrator 21.1.0, SVG Export Plug-In . SVG Version: 6.00 Build 0)  -->
<svg version="1.1" id="Calque_1" xmlns="http://www.w3.org/2000/svg" xmlns:xlink="http://www.w3.org/1999/xlink" x="0px" y="0px"
	 viewBox="0 0 1024 889" style="enable-background:new 0 0 1024 889;" xml:space="preserve">
<g id="Calque_1_1_">
	<path d="M133.2,516.8c-1.7,0.1-3.5,0.2-5.2,0.3c22.4-20.7,29.3-47.5,61.7-56.8c-4.5,0.7-9.1,1.1-13.7,1.3c16.3-4.5,33.5-6.1,50-9.5
		c20-4.2,35.8,4.3,55.4,2.2c31.5-3.4,60.9-34,89.4-47c19.5-8.9,39.8-13.8,60.5-19c12.3-3.1,51.5-6.5,60.2-15.6
		c5.6-5.8,5.4-18.7,4.2-28.9c-1.5-12.9-10.2-16.9,5-19.6c17.2-3.1,37.5,5.4,56,2.4c13.7-2.2,13.9-0.6,13.6-13.5
		c-0.2-7.4-3.1-17.1-6.1-23.9c-6.4-14.4-17.5-24.3-18.7-41.2c-0.7-9.3,1.5-34.7,5.6-43.2c6.3-13.3,25.4-26.7,35.5-37.3
		c12.8-13.4,26.3-26.3,38.1-40.5c20.7-24.9,44.3-39.6,73.3-53c-3.1-7.8-10.2-8.6-12.8-17.2c-1.8-6,0.1-17.8,1.7-23.5
		c4.6-16.6,18.3-25.8,35-28.3C766-1.6,768.6,37.5,790.6,62c-8.7,1.3-17-2.6-25.6-0.2c2.6,15,2.4,17.4-6.8,27.4
		c-4.4,4.8-7.9,13-13.8,15.5c-6.4,2.7-10.6-6.5-16.8,1.7c-2.1,2.8-1.3,22.5-2.9,27.9c-5.6,18.6-23.3,39.6-26.1,57.9
		c-2.1,14.2,3.5,14.2,16.3,16.8c9.2,1.9,23.9,8.4,32.4,8.5c18.6,0.1,46.2-20.9,66.3-26.7c27.5-8,53.7-10.4,82-8.2
		c12,1,25.2,2.4,37.1,2c10.7-0.3,20.2-5.4,30.1,0.9c8.5,5.4,9,15.5,19.1,19.5c11.3,4.5,29.3-1.1,41.7,0.1c-7,7.6-17.8,9.8-25.2,16.4
		c-7.7,0.6-10.4,4.5-8.1,11.6c-0.4,5.3-0.2,10.6,0.7,15.8c2.4,13.4,6.3,21.9,5.8,36c-0.6,15-1.8,28.5,0,43.6
		c2.8,24,10.9,48.8-2.5,71.1c-12,20-28,23.2-42.7,4.5c-7.7-9.8-3.9-11.3-8.2-22.8c-4.1-10.8-18-18.1-26.6-24.8
		c-16.7-12.9-35.9-33.9-55.1-42c-12.4-5.2-13.7-0.7-23,11.6c-6.5,8.7-14.2,20-16.6,30.7c-2.4,10.5,0.9,19.3,1.3,29.9
		c0.1,4.3-5.5,27.9-3.6,30c5.3,5.9,26.3-0.4,34.1,4c6.9,3.9,13.7,15.7,15,23.3c3.3,18.7-13.8,44.5-19.2,63.2
		c-4.9,16.8,5.4,35.7-6.3,51c-12.3,16.2-44.2,21.9-61.3,32.7c-18.5,11.7-35.7,15.3-57.2,20.7c-19.1,4.8-59.5,7.3-37.9-21.4
		c5.2-6.9,13.9-14.8,22.8-16.3c11.5-1.9,17,5.4,27.2,3.7c10.9-1.8,25.7-11.7,36.5-15.6c8.2-3,27.6-6.1,33-13.3
		c-15.5,5.3-32.2,5.2-48.3,7.5c3.6-11.9,19.4-27.4,15.1-36.8c-3.6-7.9-24.7-15.9-33.1-15c-13,1.4-30.6,14.7-42.6,20.1
		c-16.2,7.2-32.7,13.5-49.2,19.8c-33.9,12.8-68.9,20.4-104.2,28.2c-16.8,3.7-33.6,8.5-50.5,11.2c-12.5,2-37.5-3.9-47.7,2.5
		c-8.8,5.5-9.4,22.2-12.4,31.1c-5.1,15.3-13.1,29.2-21.1,43.2C397.4,686,371.5,715,367.7,745c-3.8,30.5,28.8,57.8,49.3,76.7
		c11.1,10.2,16.3,13.7,30,17.5c17.4,4.8,25.5,13.4,38.2,26.3c-17.5,11.3-35.1,4-50.7-3.1c-14.6-6.7-26.5-1.1-39-15.1
		c-15.5-17.3-29.6-36.2-44.4-54.2c-13.5-16.4-35.5-35.7-41.2-56.6c-25.5,22.3-12.1,57.8-1.5,85.2c4.6,12,9.6,22.3,21.8,27.7
		c12.9,5.7,26,3.2,37.7,12.8c33.9,27.9-18.2,29.3-36.2,16.5c-12.4-8.9-17.2-6.4-31-10.6c-15.6-4.8-16.9-20.7-21-35.4
		c-9.4-33.7-25.3-70.7-29.9-105.2c-3.7-27.3,38.4-40.6,54.7-59.1c24.9-28.3-1.7-57.4-16.1-85.4c-7.5-14.7-12.2-29.7-12.5-46.3
		c-0.3-17,12.6-40.2,9.5-55.5c-9.6,11.8-20.4,19.5-29.8,27.9c2.3-4,15.9-20.8,13-23.1c-16,10.5-33.7,19.6-40.9,37.5
		c-11.4,28.4-13.2,55.4-18.7,85.1c-1.4-23.1-1.8-45.5-7.4-68.3c-0.9,10.5-2,21-2.7,31.4c-0.9-4.9-1.7-9.8-2.6-14.7
		c-3,5.2-5.9,10.4-8.8,15.7c3-8.6,7.4-17.3,7.2-26.7c-16.6,39.8-15.2,84.7-32.4,124.3c2.7-15.4,5.4-30.9,8.1-46.3
		c-10.7,14.7-21.4,29.4-32.1,44c5.1,3.4,27.4-66.8,28-74.8c-2.7,7.6-5.4,15.3-8.1,22.9c-1.8,5.1-2.7,18.4-7.1,9.9
		c-2.1,8.7-4.5,16.3-4.1,25.2c-5.1-7.7,5.8-31-4.3-18.7c3.9-9.8,12.3-23.1,11.5-34.1c-9.9,18.8-19.9,109.8-54.1,95.8
		c17.9,2.3,24.8-18.6,29.1-32c5.5-17,13.2-41.6,13.9-58.9c-7.4,10.6-8.3,23.6-11.1,35.8c-1.3-21.5,9.1-37.6,18.1-56.2
		c-8.8,8.3-16.5,16.9-22.5,27.5c-4.9,8.5-8.3,26.4-17,31.7c1.6-3.7,16.6-33.6,13.9-35.4c-8.8,13.9-15.9,29.2-26.2,42.1
		c3.6-6.9,7.1-13.8,10.7-20.7c0.2,0.1-28.9,40.4-35,45.6c-15.3,13.2-35.5,21.1-53.3,30.5c8.7-11.1,23-15.1,33.3-24.2
		c-8.9,0.7-12.9,7.5-21.1,10c1.4-2.4,2.8-4.7,4.3-7c-3.1,1.3-6.2,2.5-9.3,3.8c3.7-4,7.3-7.9,11-11.9c-3-2.3-17.7,19.4-20.3,22.3
		c-5.1-3.4,8-16.8,8.2-22.1c0.6-13.2,3.8,4.7-5.1-1.3c1.9-2.8,3.8-5.6,5.8-8.4c-9,5.6-17.3,13.4-28,15.6c14.5-7.2,26-19,34.5-32.7
		c-4.4,4.7-7.2,8.2-13.6,9.8c7-11.7,16.2-21.3,21.8-34c-2.9,1.6-21.4,13.4-22.6,11.1c3.7-2.1,7.4-4.3,11.1-6.4
		c-1.9-9.5-20.4,8.1-22.3-1.3c4-0.2,8-0.4,12-0.7c-4.8-5.3-9.6-10.6-14.4-16c0.7-1,18.7,11.8,23.6,10.8c5.3-1,16.8-10.4,8.3-13
		c4.1-4.3,31.6-30.1,13-19.5c9.8-12.4,19-26.9,30.4-37.9c10.7-10.3,24.3-14,36.7-21.7c-6.5,1.1-21.9,4.2-27.9,1.1
		c20.6-3.3,30.8-6.5,48.3-16.6C137.1,511.4,135.3,512.3,133.2,516.8z M659.3,213.3c-3.8,0-9.9,19.2-11.4,23.2
		c-4.8,12.5-6.1,17.2-0.9,30c3.9-2.6,7.9-7.5,12.5-8.1c5.4-0.6,8.2,4.7,12.8,4.5c11.3-0.6,31.4-14.7,39.5-22
		C687.1,233.7,668.9,240.5,659.3,213.3z M820.4,496.5c10.5-12.1,37.5-48.8,6-46.6c-8.9,0.6-28,6-28.8,17.7
		C797,475.9,814,492.5,820.4,496.5z M923.2,351c-4.1-19.9-24.8-23.6-31.8-41.3c-3.4-8.6,0.3-17.5-10.8-20.3
		c-9.7-2.4-16.7,8.5-22.3,14.2C879.9,319.4,901.6,335.1,923.2,351z"/>
</g>
</svg>
