<?xml version="1.0" encoding="utf-8"?>
<!-- Generator: Adobe Illustrator 21.1.0, SVG Export Plug-In . SVG Version: 6.00 Build 0)  -->
<svg version="1.1" xmlns="http://www.w3.org/2000/svg" xmlns:xlink="http://www.w3.org/1999/xlink" x="0px" y="0px"
	 viewBox="0 0 1024 1024" style="enable-background:new 0 0 1024 1024;" xml:space="preserve">
<g id="Calque_2">
</g>
<g id="Calque_1">
	<path d="M133.2,516.8c-1.6,0.1-3.3,0.2-5.2,0.3c7.9-7.3,13.5-16,19.2-24.9c10-15.7,24.1-26.6,42.5-31.9c-2.1,0.3-4.3,0.4-6.4,0.8
		c-2.4,0.4-4.7,1.1-7.3,0.5c3.6-1,7.1-2.2,10.8-2.9c3.1-0.6,6.4-0.9,9.6-0.9c10.3,0.2,20-1.7,29.6-5.7c9.7-4,19.7-4,29.8-1.1
		c2.8,0.8,5.7,1.5,8.7,1.9c21.9,2.6,22,2.8,41.4-8.3c14.8-8.4,29.2-17.5,43.8-26.3c19.2-11.5,39.7-19.6,61.5-25
		c26.8-6.6,53.5-13.7,80.3-20.6c1.4-0.4,2.8-0.9,4.5-1.4c-0.1-6.3-3.5-12.9,1.3-17.6c-0.6-3.8-1-6.9-1.6-9.9
		c-0.3-1.6-0.9-3.1-1.5-4.7c-0.7-1.8-1.9-3.5-2.3-5.4c-2.1-8.5,0.4-11.1,8.8-9.5c18.6,3.3,37.2,5.6,56,2.4c5-0.9,9.9-2.4,15.4-3.7
		c-1.9-10.1-3.4-19.3-5.6-28.4c-0.9-3.7-3.4-7.1-5.4-10.4c-2.4-4-5.3-7.7-7.7-11.7c-9.7-15.9-10-32.6-4-49.8
		c1.3-3.8,1.8-8.3,1.2-12.2c-0.7-4.6,0.7-7.1,3.9-10.1c8.6-8.1,16.7-16.8,24.9-25.3c7.2-7.5,14.2-15.2,21.5-22.5
		c10.3-10.3,20.5-20.7,29.1-32.5c11.5-15.8,27-26.6,45-33.9c5.7-2.3,11.6-4,16-8.9c1.5-1.7,4.4-2.1,7-3.3c-1.3-3.3-3.5-5.7-6.7-7.1
		c-4.4-2-6.3-5.7-6.1-10.1c0.3-7.9-0.1-16,1.7-23.5c3.7-16,15.7-23.8,30.8-27.6c8.3-2.1,16.7-1.7,25,0.2C756.7,9,766.8,17,772,30.5
		c2.1,5.3,3.8,10.7,5,16.2c1,4.7,3.3,8,7.5,10.4c2.2,1.3,4.3,2.9,6.1,4.9c-8.5,1.3-16.6-2.7-25.6-0.2c1.1,6.4,2.1,12.4,3.1,18.6
		c-2.6,0.7-4.7,1.3-6.9,1.9c-2,4.6-2.9,9.9-8.2,12.4c-0.7,0.3-1,1.6-1.4,2.5c-3.3,7.8-5.6,9-13.5,5.9c-3-1.2-5.3-1.9-8.1,0.5
		c-2.1,1.8-3.4,3.4-2.7,6.3c0.5,1.9,0.7,3.9,1.3,5.8c1.6,5.3,0.4,9.9-2.3,14.8c-2.6,4.6-4.2,10-5.3,15.2c-1.3,6.5-4.2,12-7.6,17.5
		c-2.6,4.1-4.3,8.8-6.5,13.1c-1.7,3.2-3.3,6.6-5.6,9.4c-2.2,2.7-3.4,5.1-2.9,8.7c0.5,3.4,0.1,6.8,0.1,11c2.6,0.6,5.2,1.3,7.7,1.8
		c11.6,2.3,23.2,4.3,34.8,6.9c2.8,0.6,5.2,2.8,8.5,4.7c5.9-3.2,12.5-7,19.3-10.5c31.9-16.2,65.9-25.1,101.5-27.5
		c5.1-0.4,10.4,0,15.5,0.5c9.8,1,19.5,3.1,29.4,2c1.5-0.2,3.1-0.2,4.4,0.2c8.9,2.9,17.4,0.7,26.1-1c10.2-2,19.5,0.7,24.4,11.6
		c3.1,6.9,8.9,12,17.9,11.4c10.8-0.7,21.7-0.6,32.6-0.9c0.9,0,1.8,0.3,2.9,0.4c-4.9,5.3-20.1,14.5-33.2,20.1
		c0.4,10.4-1.9,21.1,3.2,31.5c4.3,8.8,5.1,18.3,3.2,28.2c-3.5,18.2-1.3,36.4,1.6,54.5c1.5,9.5,2.7,19.1,3.5,28.7
		c1.4,17.8-5.8,32.4-18.2,44.4c-9,8.6-20.7,6.5-27.4-4.1c-1.1-1.7-2.9-3.2-4.8-4.3c-7.2-4.2-8.4-6.7-7.4-15
		c1.1-8.7-4.3-14.5-10.3-19.2c-17.1-13.5-34.5-26.5-51.8-39.7c-9-6.9-18.1-13.8-27.5-21c-1.5,1.3-3,2.5-4.4,3.8
		c-12.7,12.5-22.2,27-28.2,43.9c-1.4,4-2.1,7.9-1.1,12.3c3.3,14.7,3.5,29.4-0.9,43.9c-0.3,0.9-0.2,1.9-0.3,3.7
		c2.3,0.2,4.4,0.5,6.5,0.7c7.4,0.6,14.8,1,22.1,1.8c6,0.7,10.6,3.7,13.2,9.4c2.4,5.2,4.8,10.3,7.3,15.4c2.1,4.3,2.1,8.6-0.2,12.8
		c-10.1,18.6-15,39.1-21.9,58.9c-1.3,3.7-1.3,6.9,0.4,10.6c5.2,11.3,1.1,21.8-3.8,31.9c-1.4,2.9-5.5,4.8-8.8,6.4
		c-15.2,7.6-30.8,14.7-45.9,22.5c-6.7,3.5-13,8.1-18.9,12.7c-3.7,2.9-7.2,4.8-12.1,4c-6-1-11.7,0-17.4,2.2
		c-7.6,2.9-15.3,6.4-23.3,7.3c-10.4,1.2-21,0.6-31.5-0.2c-5-0.4-7.3-5.2-5.4-10.2c5.5-14,15.2-24.3,29.7-29
		c5.8-1.9,11.7-0.6,16.7,3.6c5,4.2,4.9,3.6,10.5,0.1c5.2-3.2,10.8-6,16.5-8.2c16.6-6.3,33.4-12.2,50-18.3c1.1-0.4,2.1-1.2,3-2.4
		c-15.3,5.2-31.2,5.1-48.3,7.5c4-13.3,12.6-22.7,18.4-33.9c-3.9-4.6-9.2-7.4-14.2-10.2c-18.3-10.1-16.9-11.4-36.1-1.4
		c-28.4,14.8-58.1,26-87.9,37.3c-20.9,7.9-42.5,12.9-64.2,17.8c-23.4,5.2-46.8,10.3-70.1,15.7c-14,3.2-28.1,5.6-42.5,3.8
		c-2.9-0.4-5.9-0.4-8.9-0.3c-8.3,0.2-10.3,1.6-12.8,9.5c-1.9,6.1-3.4,12.4-5.1,18.6c-4.7,17.1-13.9,32.2-22.5,47.4
		c-11,19.3-22.7,38.2-34.3,57.2c-6,9.7-8.5,20.5-10.9,31.3c-1.1,5.1,0.8,11.4,2.9,16.4c2.4,5.8,6.1,11.3,10.1,16.2
		c7.7,9.6,15.9,18.9,24.2,28c4,4.4,8.6,8.1,13,12.1c4.2,3.8,8.6,7.4,12.5,11.5c3.4,3.6,7.1,6,12.3,5.7c1.7-0.1,3.5,0.2,5.2,0.3
		c8.8,0.4,16.2,3.5,22.3,10.1c5,5.4,10.3,10.5,15.9,16.2c-1.7,1.1-2.6,2.1-3.6,2.3c-10.7,2-21.4,3.9-32.4,2.2
		c-5.8-0.9-11-2.8-14.7-7.6c-3.9-5.1-8.4-6.7-14.8-4.3c-8.3,3.1-15,0.6-20.8-6.6c-24.8-30.7-50.1-61.1-75.1-91.7
		c-5.6-6.8-11.2-13.7-13.8-23.3c-10.4,9.1-17.3,18.8-15.1,32.5c3.5,21,8.7,41.6,17,61.2c4.6,11,12.8,19.3,25.6,21.1
		c3.2,0.4,6.3,1.2,9.5,1.6c17.2,2.4,27.3,13.4,35.1,27.6c-1.9,4.4-5.8,5.2-9.3,5.4c-9.4,0.5-18.7,0.6-28.1,0.4
		c-5.5-0.1-9.9-2.4-12.8-7.5c-4-7-10.4-10.3-18.4-10.4c-4.2,0-8.4-0.4-12.6-0.2c-5.4,0.3-9.2-2-11.4-6.6c-2.2-4.4-4.1-9-5.4-13.7
		c-9.4-33.5-18.5-67.1-27.8-100.6c-1.8-6.6-4.4-13.1-6.3-19.7c-3-10.5-1.5-14.6,7.1-21c10.9-8.1,21.9-16.1,32.8-24.2
		c8.8-6.5,15.9-14.7,22.5-23.4c4.7-6.3,6.3-12.9,3.5-20.2c-3.8-9.6-7.7-19.2-12.2-28.5c-4.6-9.3-10-18.2-15.1-27.2
		c-13.6-23.8-15.1-49.2-9.4-75.4c1.5-6.7,3.8-13.3,5.8-19.9c0.6-2,1.1-4,0.6-6.5c-3.5,4.3-6.9,8.7-10.6,12.7
		c-3.6,4-7.7,7.7-11.5,11.5c-0.6-0.5-1.7-1.5-1.9-1.3c-2,1.6-3.9,3.3-5.8,5c1.2-2.1,2.3-4.2,3.7-6.2c3.5-5.2,7.1-10.3,10.7-15.5
		c-0.5-0.5-0.9-1-1.4-1.4c-2.3,1.5-4.7,2.9-6.9,4.6c-3.5,2.7-6.8,5.7-10.3,8.5c-1.1,0.9-2.6,2.7-3.6,2.4c-4-0.9-6.4,1-8.9,3.6
		c-3.9,4.1-7.9,7.8-9.7,13.7c-3.9,12.5-8.6,24.7-12.9,37c-0.6,1.6-0.9,3.4-1.1,5.1c-1.7,15.9-3.3,31.9-6.2,47.7
		c-0.1-1.7-0.5-3.4-0.2-5c2.1-13.2,0.1-25.9-3.2-38.7c-2.1-7.9-2-16.4-4-24.6c-0.9,10.4-1.9,20.8-2.8,31.2l0.1,0.2
		c-0.9-5.1-1.8-10.2-2.6-14.7c-2.8,4.9-5.8,10.3-8.8,15.7c3-8.6,7.4-16.9,7.2-26.7c-4.2,10.1-8.3,19.8-12.1,29.6
		c-0.4,1,0.5,2.5,0.8,3.8c-2.5,9.6-6.4,19.2-7.2,29c-1.2,14.1-4.4,27.8-7.4,41.5c-1.5,6.9-3.6,13.7-6.5,20.4
		c2.6-14.9,5.2-29.8,8.1-46.3c-11.4,15.6-21.7,29.8-32.1,44c-0.3-0.2-0.6-0.4-0.9-0.6c3.2-5.4,6.3-10.9,9.5-16.3
		c12.7-17.2,17.7-37,19.4-57.9c-4.3,12.1-8.5,24.2-13.1,37c-0.9-1.8-1.2-2.5-2.1-4.2c-1.7,7-3.2,12.9-4.4,18.8
		c-0.4,2,0.2,4.3,0.3,6.4c-2.2-3.3-2.2-6.9-1.6-10.6c0.7-4.3,1.3-8.7,2.1-13.9c-2,2.4-3.4,4.1-4.8,5.8c2.6-6.6,5.2-13.2,7.9-19.8
		c1.9-4.6,4-9.1,3.6-14.3c-4.1,7.8-7.8,15.8-10.7,24.1c-1.1,3-0.5,6.7-0.7,10c-4.7,18.8-9.2,37.7-20.5,54c-6,8.6-13.4,11.3-22.2,7.7
		c12.3,1.6,17.9-5.9,22.4-15.3c6.5-13.7,10.9-28,12.3-43.1c0.8-8.9,2.9-17.5,6.6-25.6c1-2.1,1.6-4.4,1.7-6.9
		c-7.5,10.8-8.3,23.5-11.1,35.8c-0.6-10.2,0.9-20.3,4.7-29.6c3.8-9.2,9.1-17.7,13.4-26.6c-9.7,9.1-18.8,18.7-24.4,31
		c-3.4,7.7-7,15.2-10.6,22.8c-1,2.1-2.2,4-4.5,5.4c5-11.6,10-23.2,14.9-34.8c-0.3-0.2-0.7-0.4-1-0.6c-1.2,1.9-2.4,3.8-3.6,5.7
		c-5.6,9.6-11.1,19.2-16.8,28.8c-1.6,2.7-3.8,5.1-5.8,7.6c2.5-4.8,4.9-9.5,7.4-14.3c1.1-2.1,2.2-4.3,3.3-6.4
		c-0.4-0.2-0.9-0.4-1.3-0.6c-5.6,9.2-11.3,18.4-16.9,27.6c-1.4,1.7-2.8,3.4-4.2,5.1c-7.8,9.7-16.5,18.3-27.8,24
		c-12.5,6.4-24.8,13-38.1,20c9-11.5,23-15.1,33.3-24.2c-7.2,0.6-7.1,0.7-12.3,5.2c-2.5,2.2-5.5,3.8-8.8,4.8c1.1-1.9,2.3-3.8,4.3-7
		c-4.1,1.7-6.7,2.7-9.3,3.8c3.7-4,7.4-8,11-11.9c-0.4-0.3-0.7-0.7-1.1-1c-3.4,3.6-6.9,7.2-10.3,10.9c-0.2,0.2,0.4,1.2,0.6,1.8
		c-3.2,3.5-6.3,7.1-9.5,10.6c-0.6-0.4-1.2-0.8-1.7-1.2c4-8.4,7.9-16.8,11.9-25.1c-0.3-0.2-0.6-0.5-0.9-0.7c-1.8,1.4-3.6,2.8-5.4,4.2
		c-0.3-0.2-0.5-0.4-0.8-0.6c1.6-2.3,3.1-4.6,5.8-8.4c-10,6.2-17.6,13.5-28,15.6c14.8-7.4,25.9-18.8,34.5-32.7
		c-2.4,2.6-4.7,5.3-7.4,7.6c-1.3,1.1-3.3,1.4-5,2.1c-0.4,0-0.8,0-1.2,0.1c1.2-2,2.2-4.2,3.7-6c7.3-8.3,13.4-17.4,18.1-28
		c-7.3,4.1-14.6,8.2-21.9,12.3c-0.2-0.4-0.5-0.8-0.7-1.2c3.7-2.1,7.4-4.3,11.1-6.4c-0.1-0.5-0.2-1-0.4-1.5
		c-7.2,0.6-14.4,1.1-21.7,1.7c-0.1-0.5-0.1-1-0.2-1.5c3.8-0.2,7.6-0.4,12-0.7c-5.1-5.7-9.8-10.8-14.4-16c0.3-0.4,0.6-0.7,1-1.1
		c2.3,1.9,4.6,3.8,7,5.6c2.2,1.6,4.4,3.3,6.7,4.5c8.6,4.6,15.8,1.9,19.7-7.2c0.4-0.9,0.8-1.8,1.3-2.7c-1.1-0.4-2.2-0.8-3.8-1.3
		c7-7.5,13.7-14.8,20.5-22.1c-0.3-0.4-0.5-0.8-0.8-1.2c-1.8,1-3.7,2.1-6.7,3.8c8.9-11.3,17-21.5,25-31.7
		c6.9-8.7,15.1-15.5,25.5-19.7c5.7-2.3,11.3-4.9,16.6-8.2c-1.2,0.2-2.4,0.4-3.5,0.7c-3.3,0.9-6.2,2-9.9,0.5c-2.5-1-5.8,0.1-8.7,0.4
		c-1.9,0.2-3.7,0.6-5.8-0.5c6.3-1,12.5-2.3,18.8-3c9-1.1,17.4-3.5,24-10.2c1.8-1.1,3.6-2.3,5.5-3.4c-0.3-0.4-0.7-0.8-1-1.2
		C136.1,513.6,134.6,515.2,133.2,516.8z M659.3,213.3c-0.5,0-1,0-1.6-0.1c-4.4,10.3-8.4,20.9-13.4,30.9c-4.2,8.4-0.4,14.8,2.7,22.4
		c1.8-1.2,3.1-2,4.2-2.9c10.4-7.8,10.4-7.8,21.1-0.7c12.9-6.9,27.5-11.2,39.5-22c-2.4-0.7-4-1.4-5.7-1.6c-9.3-1.4-18.5-3.1-27.8-3.9
		c-7.9-0.7-12.8-4.7-15.6-11.7C661.5,220.3,660.5,216.7,659.3,213.3z M820.4,496.5c1.3-1.5,2.6-2.7,3.5-4.1
		c5.1-7.9,9.9-15.9,15.1-23.7c2.7-4,3.4-8.1,2.6-12.6c-1.1-6.7-3.4-8.5-10.1-7.2c-6.8,1.3-13.5,2.8-20.2,4.5c-2,0.5-4.3,1.6-5.6,3.1
		c-3,3.5-5.5,7.5-8.1,11.1C802.7,478.4,813.3,492,820.4,496.5z M923.2,351c-2.1-10.3-7.3-17.8-15.9-22.8c-1.5-0.9-2.7-2.1-4.1-3.1
		c-7.6-5.5-12.3-12.6-13.2-22.1c-0.2-2.5-0.5-5-1.2-7.3c-0.6-1.7-1.7-3.7-3.1-4.7c-4-2.7-12.4-2.2-16.1,1
		c-3.8,3.4-7.2,7.3-11.3,11.5C880.3,319.7,901.8,335.3,923.2,351z M57,595.2c10.7-6.7,25.1-23.6,26.8-31.2
		C74.2,575.1,65.6,585.2,57,595.2z M40.8,663.7c11.9-7.8,21.4-20.3,22.8-28.3C55.8,645.1,48.3,654.4,40.8,663.7z M170.8,592.4
		c-2.7,10.5-5.3,21-8,31.5C169.6,614.4,170.6,603.5,170.8,592.4z M90.8,636.5c-3.3,5.1-6.2,9.5-9.2,13.9c-3,4.5-7.3,8.1-9.5,14.5
		C81.1,657.2,89.4,644.6,90.8,636.5z M52.1,669.1c10.4-7.3,19.8-19.6,20.7-25.7C66,651.9,59,660.5,52.1,669.1z M30.5,674.7
		c4.4-7.2,8.9-14.4,13.3-21.6C36.3,658.5,32.6,666.1,30.5,674.7z M87.1,576.6c-8.3,5.6-12.7,11.8-15.1,20.3
		C76.9,590.2,81.6,583.8,87.1,576.6z M73.6,652.8c0.4,0.3,0.8,0.6,1.2,0.9c5.3-5.9,7.9-13.1,10.9-20.1c-0.4-0.2-0.9-0.5-1.3-0.7
		C80.8,639.6,77.2,646.2,73.6,652.8z M211,577.3c0-6,0-12.1,0-18.1C207.5,565.3,211,571.3,211,577.3z M153.6,618.4
		c0.5,0.3,1,0.5,1.4,0.8c2-6.3,4-12.7,6.1-19C155.7,605.3,155.9,612.3,153.6,618.4z M153.7,499.8c-5,1.3-8.1,5-10.6,9.4
		C146.7,506,150.2,502.9,153.7,499.8z M189.6,552.2c-4.5,4.4-4.5,4.4-3.4,10.8C187.6,558.7,188.6,555.4,189.6,552.2z M190.9,466
		c-0.2-0.5-0.4-1-0.6-1.4c-3.5,1.6-7,3.1-10.5,4.7c0.2,0.5,0.5,1,0.7,1.5C184,469.2,187.4,467.6,190.9,466z M66,645.6
		c-2.9,1.4-5.1,3.5-4.5,7C63,650.3,64.5,647.9,66,645.6z M165.5,581c-0.3-0.1-0.6-0.2-0.9-0.2c-0.7,1.9-1.3,3.8-2,5.7
		c0.4,0.1,0.9,0.3,1.3,0.4C164.5,584.9,165,583,165.5,581z M50.5,675.5c0.2,0.3,0.4,0.5,0.7,0.8c1.4-1.1,2.7-2.1,4.1-3.2
		c-0.2-0.3-0.5-0.6-0.7-0.9C53.2,673.4,51.8,674.5,50.5,675.5z"/>
</g>
</svg>
