<?xml version="1.0" encoding="utf-8"?>
<!-- Generator: Adobe Illustrator 19.2.1, SVG Export Plug-In . SVG Version: 6.00 Build 0)  -->
<svg version="1.1" id="Calque_1" xmlns="http://www.w3.org/2000/svg" xmlns:xlink="http://www.w3.org/1999/xlink" x="0px" y="0px"
	 viewBox="0 0 1024 1024" enable-background="new 0 0 1024 1024" xml:space="preserve">
<path fill="#444444" d="M809.4,1024c-7.4,0-14.8-2.3-21.2-6.8L511.9,823.4l-273,193.6c-6.4,4.5-13.9,6.8-21.4,6.8
	c-7.6,0-15.2-2.4-21.7-7.1c-12.9-9.2-18.2-25.6-13.3-40.7l108.6-332l-272.3-194c-13.2-9.1-18.9-25.6-14-40.7
	c4.8-15.2,19-25.5,35.1-25.5h333L477,24.6C482.1,10,496.1,0,511.8,0c15.7,0,29.7,10,34.8,24.6L650.8,384h333
	c16.1,0,30.4,10.3,35.2,25.5c4.8,15.1-0.8,31.7-14,40.7l-272.4,194L844.3,976c5,14.9-0.2,31.4-13,40.8
	C824.8,1021.6,817.1,1024,809.4,1024L809.4,1024z"/>
</svg>
