<?xml version="1.0" encoding="utf-8"?>
<!-- Generator: Adobe Illustrator 19.2.1, SVG Export Plug-In . SVG Version: 6.00 Build 0)  -->
<svg version="1.1" id="Calque_1" xmlns="http://www.w3.org/2000/svg" xmlns:xlink="http://www.w3.org/1999/xlink" x="0px" y="0px"
	 viewBox="0 0 1024 1024" enable-background="new 0 0 1024 1024" xml:space="preserve">
<path fill="#444444" d="M463.2,408v236.3c0,24,21.8,43.5,48.7,43.5s48.7-19.5,48.7-43.5V408c0-24-21.8-43.5-48.7-43.5
	S463.2,384,463.2,408z M1015.3,904.7c-19.8-37.5-419.8-786.5-454-850.4c-22.5-42-76.1-41.3-98.6,0c-25.1,46-427.2,797.9-455.1,852.4
	c-20.5,39.9,2.1,92.2,48.7,92.2h909.9C1008.6,998.8,1040,951.4,1015.3,904.7L1015.3,904.7z M121.8,901.1l390.1-731.5L902,901.1
	C902,901.1,121.8,901.1,121.8,901.1z M511.9,735.5c-26.9,0-48.7,20.7-48.7,46.2s21.8,46.2,48.7,46.2c26.9,0,48.7-20.7,48.7-46.2
	S538.9,735.5,511.9,735.5z"/>
</svg>
