<?xml version="1.0" encoding="utf-8"?>
<!-- Generator: Adobe Illustrator 19.2.1, SVG Export Plug-In . SVG Version: 6.00 Build 0)  -->
<svg version="1.1" id="Calque_1" xmlns="http://www.w3.org/2000/svg" xmlns:xlink="http://www.w3.org/1999/xlink" x="0px" y="0px"
	 viewBox="0 0 1024 1024" enable-background="new 0 0 1024 1024" xml:space="preserve">
<path fill="#444444" d="M0,511.8C2.7,225.5,232.6-2.4,516.6,0c281.2,2.4,510.1,234.6,507.4,514.6c-2.8,283.8-233,511.7-514,509.4
	C226.8,1021.7,1.4,794.3,0,511.8L0,511.8z M369.4,294.5c-11.3,6.7-21.1,13.2-31.6,18.3c-3.1,1.5-10.8,0.3-12-2
	c-7.2-13.8-20.6-14-32.9-16.7c-11.2-2.5-17.5-1.3-18.5,13.5c-1.9,27.6-13.7,35-41.7,30.2c-7.1-1.2-14.1-3.2-21.3-4
	c-3.7-0.4-10.2,0.3-10.9,2.2c-4.7,12-9.1,24.2-11.7,36.8c-1.3,6.7,2.3,14.2,1.7,21.3c-0.6,6.1-2.8,12.8-6.7,17.3
	c-1.2,1.5-11.4-1.4-14.3-4.9c-3.5-4.2-6-11.7-4.8-16.8c5.2-22.8,5.2-23.8-16.2-33.9c-4-1.9-8-3.8-12.9-6.2
	c-5.4,10.7-10.5,20.1-15,29.8c-13.3,29.3-8.1,48,15.5,70.5c6.8,6.4,12.4,18.8,11.3,27.6c-2.2,18.9,10.5,29.9,19.2,41.9
	c5.1,6.9,6.8,10.8,4.1,18c-1.3,3.6-1.4,7.7-2.5,13.7c12.4-4.4,22.6-9.4,33.3-11.5c6.6-1.3,14.1,1.6,21.1,3.2
	c6.9,1.6,14,6.3,20.3,5.3c27.4-4.3,27-4.7,42.8,18.8c5,7.4,12.3,19.2,18.3,19.1c22.3-0.4,31.4,16,42.6,29
	c18,20.7,38.5,36.7,64.9,45.1c10.3,3.3,21.1,6.5,29.8,12.3c12.5,8.4,24.3,18.3,34.5,29.3c7.8,8.4,6.8,18.6-2.5,27.2
	c-10.9,10.2-21.1,21.1-31.6,31.6c-9.6,9.6-13,18.7-1.8,30.3c8.5,8.8,5.8,17.7-6.3,20.4c-9.1,2-19.2-0.9-28.8-0.6
	c-5.7,0.2-14.5,0.5-16.4,3.9c-14.9,26.8-30.2,53.7-25.5,86.6c1.3,9.1,4.7,12.7,13.3,15.5c99.4,32,197.8,29.2,294.8-9.1
	c48.3-19,91.5-46.4,131.8-84.6c-7.6-6.1-13.6-13.5-21.2-16.4c-20.5-7.7-21.7-10.7-15.8-32.5c6.4-23.6,12-47.6,15.4-71.8
	c3.9-27.9,1.9-30.1-25.1-38c-13.1-3.8-17.2-10.8-15.2-23.6c1.8-11.3,2.2-22.7,3.2-34.1c-1.4-1-2.8-2-4.2-3
	c-11.5,6.9-22.7,14.5-34.7,20.6c-14.9,7.7-29.9,16.3-46,20.2c-9,2.2-26.8-1.3-29-6.9c-6.8-16.5-21.3-19.1-33.5-26.8
	c-8.2-5.2-16.5-12.5-21-20.8c-11.8-21.6-13.2-45.6-13.5-70c-0.1-14.9,3.9-25.1,17.2-30.4c22.7-9,32.6-23.3,23.1-47.5
	c-0.7-1.8-1.6-4.9-0.7-5.9c11.2-13.1,20.6-32.4,34.9-37.2c14.6-4.9,26-10.4,37.1-20.5c6.9-6.3,16.3-10.8,25.3-13.5
	c32.3-9.5,48.9-11.5,57.9,30.5c0.9,4,8.6,10.2,11.9,9.5c19.2-4.1,40.7-5.4,50-27.7c3.6-8.5,9.5-9.5,18.7-7.9
	c15.2,2.6,30.9,2.4,49,3.4c-9.3-25.3-18.9-46.9-25.2-69.4c-6.9-24.7-17.6-42.7-46.7-42.4c-3.9,0-7.8-3.2-11.8-3.4
	c-10.5-0.5-21.7-2.1-31.7,0.4c-20.1,5.2-25,25.4-10.3,39.6c7.3,7.1,16,12.8,26.2,20.8c-13.1,12.2-22.1,20.5-31.1,28.9
	c2.2-22.5-12.2-51.7-28.6-53.3c-13.3-1.3-26.7-0.9-40.1-1.1s-20.5,5.4-17.7,19.5c2.2,11.1-1.8,18.8-10.4,26.6
	c-9.4,8.4-16.8,19.1-24.1,29.5c-3.1,4.4-3.8,10.4-7.1,20.5c-7.5-10.7-15.6-17-15.6-23.5c-0.1-9.1-4.2-11.5-10.5-14.2
	c-17.4-7.7-20.6-24.4-7.4-38.4c12-12.8,26.3-20.7,48.3-15.7c-4-8.8-5.7-13.9-8.5-18.4c-10.7-17.3-7.7-24.3,12.4-23.8
	c11,0.3,14.8-4.3,16.6-13.3c1.2-6,3.2-11.9,4-18c1.9-16,11.4-22.3,26.8-24.1c11.1-1.3,21.9-5.1,32.6-8.6c12.5-4.2,12.8-12.2,7.2-23
	c-9.2-18.1-24.9-18.1-42-17.6c-31.5,0.8-31.5,0.3-33.8,31.9c-2.2,30.1-25.8,50.7-55.6,48.4c-23.1-1.8-28.3-8.5-18.9-29.3
	c9.7-21.2,12-41.8,5.1-64c-1.5-4.8-0.2-14,3.1-16.2c10.1-6.6,10.8-15.1,10.1-25.8C546.8,83.8,491.9,81.9,434.7,93
	c6.8,2.4,11.5,4,16.9,5.9c-1,9.3-2.2,17.8-2.7,26.5c-0.9,15.8-8,24.2-25,24.1c-20.7-0.2-37.3,10.4-52.6,23
	c-15.4,12.6-14.7,15.3-3.9,31.5c5.4,8.1,7.8,19.1,8.7,29.1c0.8,8.6-2.6,17.6-4.3,27c-6.4,2-14.5,4.5-24.8,7.7
	c8.1,9.7,14.5,17.4,22.2,26.6L369.4,294.5z M225.7,831.1c3.8-10.4,5.6-15.7,7.7-21c13.8-34.4,11.2-43.3-18.5-66.3
	c-21.4-16.6-35.6-37.8-41.4-64.5c-0.9-4.3-4.4-8.9-8.1-11.4c-21-14.9-21.6-16.7-3-33.8c9.7-8.9,16.2-19.1,8.2-30.8
	c-8.8-12.9-9-26.3-9.3-40.7c-0.1-6.4-4.6-12.7-6.7-19.1c-2.2-7-3.7-14.2-5.6-21.3c-1.9-6.5-2.1-16.8-6.2-18.8
	c-13-6.2-16.7-16.2-19.6-28.8c-3-13.4-15.1-13.1-26.3-12.9c-11.9,0.1-9,9.3-9.5,15.6c-7.7,103.9,18.1,198.9,79,283.8
	C183.4,784.9,204.4,806.1,225.7,831.1L225.7,831.1z"/>
</svg>
