<?xml version="1.0" encoding="utf-8"?>
<!-- Generator: Adobe Illustrator 19.2.1, SVG Export Plug-In . SVG Version: 6.00 Build 0)  -->
<svg version="1.1" id="Calque_1" xmlns="http://www.w3.org/2000/svg" xmlns:xlink="http://www.w3.org/1999/xlink" x="0px" y="0px"
	 viewBox="0 0 1024 1024" enable-background="new 0 0 1024 1024" xml:space="preserve">
<path fill="#444444" d="M457.2,331.7c-68.9,0-124.9,55.7-124.9,124.1c0,68.4,56,124.1,124.9,124.1s124.9-55.6,124.9-124.1
	C582.1,387.4,526,331.7,457.2,331.7z M525.9,483.2h-58.3v58.5h-37.4v-58.5H372v-37.1h58.2v-58.2h37.4v58.2h58.3V483.2z M512,0
	C229.2,0,0,229.2,0,512s229.3,512,512,512c282.8,0,512-229.2,512-512S794.8,0,512,0z M677.5,768.5L533.6,625.6
	C411,680.2,270,591.1,270,455.9C270,353.4,354,270,457.1,270c138.3,0,227.9,144.3,168.6,266.4l142.7,141.7
	C772,720.2,718.3,771.9,677.5,768.5L677.5,768.5z"/>
</svg>
