<?xml version="1.0" encoding="utf-8"?>
<!-- Generated by IcoMoon.io -->
<!DOCTYPE svg PUBLIC "-//W3C//DTD SVG 1.1//EN" "http://www.w3.org/Graphics/SVG/1.1/DTD/svg11.dtd">
<svg version="1.1" xmlns="http://www.w3.org/2000/svg" xmlns:xlink="http://www.w3.org/1999/xlink" width="32" height="32" viewBox="0 0 32 32">
<path fill="#444444" d="M16.918 20.288c0 1.163-0.945 2.071-2.9 2.071-1.529 0-2.634-0.968-2.634-2.13 0-1.14 1.296-2.123 2.825-2.106 1.696 0 2.708 1.056 2.708 2.165zM27.777 16c0 6.534-5.297 11.832-11.832 11.832s-11.833-5.297-11.833-11.832c0-6.534 5.298-11.831 11.833-11.831s11.832 5.297 11.832 11.831zM18.235 20.153c0-1.073-0.401-1.775-1.614-2.684-1.23-0.897-1.531-1.404-0.357-2.312 0.662-0.512 1.125-1.193 1.125-2.035 0-0.918-0.375-1.749-1.081-2.153h1l0.851-0.893c0 0-3.208 0-3.808 0-2.378 0-3.543 1.425-3.543 2.992 0 1.601 1.099 2.863 3.245 2.863-0.332 0.672-0.199 1.292 0.345 1.736-3.665 0-4.449 1.608-4.449 2.847 0 1.605 1.845 2.56 4.057 2.56 3.026-0.001 4.228-1.604 4.228-2.921zM23.203 12.009h-1.757v-1.757h-0.878v1.757h-1.757v0.878h1.757v1.756h0.878v-1.756h1.757v-0.878zM15.86 13.18c-0.177-1.348-1.055-2.453-2.081-2.484s-1.715 1.001-1.538 2.349c0.177 1.348 1.153 2.29 2.179 2.32s1.617-0.837 1.44-2.185z"></path>
</svg>
