<?xml version="1.0" encoding="utf-8"?>
<!-- Generated by IcoMoon.io -->
<!DOCTYPE svg PUBLIC "-//W3C//DTD SVG 1.1//EN" "http://www.w3.org/Graphics/SVG/1.1/DTD/svg11.dtd">
<svg version="1.1" xmlns="http://www.w3.org/2000/svg" xmlns:xlink="http://www.w3.org/1999/xlink" width="32" height="32" viewBox="0 0 32 32">
<path fill="#444444" d="M19.577 0.516h-7.926c-1.052 0-2.18 0.125-3.381 0.378-1.215 0.291-2.386 0.913-3.513 1.867-1.641 1.628-2.461 3.441-2.461 5.441 0 1.655 0.579 3.104 1.738 4.348 1.106 1.339 2.714 2.020 4.824 2.047 0.398 0 0.823-0.027 1.273-0.080-0.075 0.213-0.156 0.445-0.242 0.699-0.099 0.239-0.149 0.54-0.149 0.898 0 0.599 0.13 1.113 0.392 1.538 0.223 0.44 0.479 0.854 0.764 1.239-0.925 0.026-2.088 0.145-3.487 0.357-1.413 0.251-2.761 0.753-4.045 1.506-1.142 0.7-1.933 1.513-2.368 2.44-0.45 0.925-0.675 1.764-0.675 2.517 0 1.548 0.692 2.875 2.073 3.985 1.369 1.189 3.441 1.798 6.218 1.825 3.316-0.052 5.854-0.868 7.613-2.443 1.697-1.522 2.544-3.27 2.544-5.243-0.024-1.391-0.333-2.516-0.927-3.376-0.63-0.847-1.363-1.622-2.198-2.323l-1.345-1.132c-0.194-0.2-0.394-0.431-0.6-0.697-0.242-0.278-0.364-0.628-0.364-1.053 0-0.436 0.119-0.82 0.355-1.152 0.2-0.318 0.418-0.601 0.656-0.854 0.413-0.37 0.803-0.735 1.169-1.092 0.33-0.357 0.643-0.748 0.939-1.171 0.602-0.876 0.915-2.040 0.939-3.496 0-0.795-0.088-1.49-0.262-2.086-0.212-0.596-0.455-1.111-0.729-1.549-0.286-0.463-0.58-0.853-0.878-1.171-0.311-0.305-0.591-0.536-0.84-0.696h2.445l2.447-1.467zM15.231 22.722c0.657 0.768 0.985 1.668 0.985 2.703 0 1.271-0.48 2.31-1.439 3.119-0.984 0.82-2.411 1.245-4.277 1.271-2.082-0.025-3.723-0.504-4.923-1.429-1.262-0.929-1.892-2.107-1.892-3.538 0-0.729 0.144-1.35 0.435-1.867 0.253-0.49 0.561-0.901 0.928-1.231 0.379-0.318 0.75-0.563 1.116-0.735 0.366-0.158 0.65-0.278 0.852-0.358 0.857-0.264 1.697-0.457 2.517-0.576 0.833-0.079 1.35-0.106 1.553-0.079 0.341 0 0.637 0.013 0.889 0.040 1.476 1.060 2.56 1.953 3.255 2.682zM13.945 10.74c-0.096 0.545-0.311 1.074-0.647 1.592-0.696 0.73-1.564 1.114-2.608 1.155-0.826 0-1.56-0.259-2.202-0.776-0.642-0.518-1.166-1.148-1.573-1.891-0.838-1.592-1.258-3.125-1.258-4.597-0.025-1.115 0.262-2.123 0.863-3.025 0.711-0.863 1.605-1.307 2.678-1.333 0.813 0.027 1.53 0.272 2.155 0.735 0.612 0.491 1.105 1.128 1.48 1.911 0.8 1.632 1.199 3.251 1.199 4.856-0 0.372-0.029 0.829-0.087 1.373zM27.498 13.343v-4.274h-2.090v4.274h-4.181v2.139h4.181v4.277h2.090v-4.277h4.182v-2.139h-4.182z"></path>
</svg>
