<?xml version="1.0" encoding="utf-8"?>
<!-- Generator: Adobe Illustrator 19.2.1, SVG Export Plug-In . SVG Version: 6.00 Build 0)  -->
<svg version="1.1" id="Calque_1" xmlns="http://www.w3.org/2000/svg" xmlns:xlink="http://www.w3.org/1999/xlink" x="0px" y="0px"
	 viewBox="0 0 1494 1024" enable-background="new 0 0 1494 1024" xml:space="preserve">
<g>
	<path fill="#444444" d="M346,0c4.5,0,9.2,0,13.7,0c11.1,1.2,16.6,8.8,21.3,17.7c4.7,9.2,7,19,9.3,28.9c0.4,1.8,1,3.5,1.5,5.3
		c6.4,39.1,8.5,78.5,10.4,118c3.4,68.1,0.9,136.2,1.8,204.2c0.7,54.4-1.6,108.8-2.9,163.1c-1,40.3,0.3,80.7-2.5,120.8
		c-0.1,1.2,0,2.2-1,3.5c8.9-45.9,22.2-90.4,35.4-134.8c15.8-52.5,33.8-104.3,59.8-152.9c10.2-19.3,22.2-37.3,38.1-52.5
		c8.2-7.7,17.4-13.7,28.2-16.8c21.4-6.3,39.5,2.2,49,22.5c10.6,22.8,14.1,47.3,17.7,71.8c6.1,42.6,8.9,85.5,12.1,128.2
		c4.1,54.1,6.6,108.5,13.1,162.5c0.4,3.9,1,7.9,0.1,11.8c14.7-51.2,32.5-101.1,60-147.2c8-13.4,18.2-25.2,29.8-36
		c24.9-23.2,54.4-19.7,72.2,9.2c12.7,20.7,18.5,44.2,25.2,67.1c9,31.5,17.9,63,30.2,93.4c5.8,14.6,13.3,28.3,24.1,39.8
		c11.2,12.1,24.4,16.3,40.3,9.5c7.7-3.2,15.3-6.7,22.3-11.5c29-20.4,55.3-44.1,79.2-70.3c58.6-64.3,109.1-134.9,158.4-206.4
		c5.4-7.9,9.9-16.3,15.5-23.9c8.8-12.3,19.1-15.5,27.9-9.2c8.8,6.3,9.2,16.8,0.9,29.5c-22.3,34.1-45.7,67.4-69.6,100.5
		c-39.4,54.7-81.4,107.5-128.7,155.6c-26.1,26.5-53.8,51.9-89.4,66.1c-38.9,15.5-68.4,6.7-92.5-28c-19.8-28.6-30-61.4-40.1-94.1
		c-9-29.5-15.9-59.7-27.6-88.3c-9.3-22.8-17.2-23.9-33.4-5c-21.3,25.1-33.8,55-46.1,84.9c-15,36.8-26.1,74.7-36.8,112.9
		c-2.8,10.1-6.6,19.1-18.8,19.7c-11.8,0.7-19.3-6.3-24.1-16c-7.3-14.9-9.9-31.2-11.8-47.4c-4.7-38.1-7.4-76.4-10.2-114.7
		c-5.1-70.2-8-140.5-20.3-209.9c-2-11.2-4.5-22.5-8.6-33.1c-4.4-11.7-9.6-13.3-19.5-5.1c-9.2,7.4-17.1,16.2-23.5,26.3
		c-22,33.8-36.8,71-49.9,108.7c-34.6,99-59.8,200.6-79.9,303.4c-0.6,3.1-1.3,6-2.5,8.8c-3.1,7.7-7.9,13.3-16.8,13
		c-8.6-0.3-13.9-5.5-16.6-13.4c-1.9-5.4-3.5-10.9-3.9-16.6c-3.5-51.6-3.9-103.4-1-155.1c0.1-3.1,0.6-6.1,0.6-9
		c-1.5-61.7,1.9-123.3,2.9-184.8c1.2-64.6,2.8-129.4,1.3-194c-1.3-59.2-2.6-118.6-13.3-177.2c-0.1-1.6-0.6-3.4-1-5
		c-0.6-1.8-1-3.5-1.5-5.3c-2.2-7-5.4-7.3-9.8-1.6c-2,2.6-3.8,5.5-5.4,8.5c-0.6,1-1.2,2-1.8,2.9c-25.5,40-44.9,83-63.3,126.5
		c-36.8,86.5-69.1,174.9-98,264.3c-32.2,99.6-62.1,199.8-82,302.8c-3.5,17.9-6.6,35.9-8,54.1c-0.3,4.5-1.2,9-2.6,13.4
		c-2.8,8.9-9.5,13.9-17.8,13c-9-0.9-13.1-7.1-14.6-15.2c-2-11.5,1-22.8,2.6-34c11.5-78.5,31.8-154.9,53.8-231.1
		c18.2-62.9,38.4-125.2,60-186.9c31.7-90.6,65.6-180.1,107.5-266.6c7-14.3,13.9-28.9,22.5-42.3c0.9-1.5,1.8-2.9,2.6-4.4
		c6.6-9.5,13-19.3,19.8-28.6C326.9,8.9,334.8,2.3,346,0z"/>
	<path fill="#444444" d="M376.2,346.7c0-34,0-68.1,0-102.1c0.4,0,0.7,0,1.2,0c0,34,0,67.8,0,101.8
		C376.9,346.6,376.6,346.7,376.2,346.7z"/>
	<path fill="#444444" d="M397.9,258.8c0,28.7,0,57.3,0,86.1c-0.4,0-0.7,0-1.2,0c0-28.7,0-57.5,0-86.2
		C397.2,258.6,397.6,258.6,397.9,258.8z"/>
	<path fill="#444444" d="M141.2,969.9c17.5-29.5,34.3-57.6,51.1-85.8c4.8-8,16.3-11.8,25.1-8.9c3.8,1.3,2.9,3.9,2.9,6.4
		c0,31.9-0.1,63.9,0.1,95.8c0,6-2.3,6.6-7.4,6.9c-6.3,0.3-7.7-2.3-7.6-8c0.1-27.7,0.1-55.4,0.1-83.7c-4.2,0.4-4.8,3.6-6.1,6
		c-15.2,25.4-30.5,50.6-45.5,76c-8.2,13.7-16.8,14-24.8,0.6c-16.9-28.2-33.7-56.3-52.7-84.3c0,6.6,0,13,0,19.5
		c0,22.5-0.1,44.9,0.1,67.4c0,4.8-1.3,7-6.4,6.4c-4.2-0.4-8.6,0.7-8.5-6c0.1-32.4,0.1-64.6,0-97c0-4.2,1.6-5.8,6-6.1
		c11.4-1,19.3,1.3,25.4,12.8C107.8,915.2,124.6,941.7,141.2,969.9z"/>
	<path fill="#444444" d="M1077.1,888.1c0,31.1-0.1,58.8,0.1,86.4c0,6.1-0.1,9.6-8.2,9.8c-8.9,0.1-7.6-4.8-7.6-10.2
		c0-28.6-0.1-57,0.1-85.6c0-4.4-0.4-12.5,5.4-13.7c6.7-1.3,11.8-2.3,18.2,4.8c25.8,28.9,52.4,57.2,78.5,85.9c1,1,1.6,2.5,5.1,2.9
		c0-12.7,0-25.2,0-37.9c0-15.2,0-30.5,0-45.7c0-5.1-1.6-10.2,7.4-10.2c9.3,0,8.2,5.1,8.2,10.9c0,28.9,0.1,57.8-0.1,86.8
		c0,3.8,0.6,12.4-4.2,12.3c-6.4-0.3-12,2-17.7-3.5c-4.7-4.5-8.8-9.5-13.1-14.3C1126,941.4,1102.6,915.9,1077.1,888.1z"/>
	<path fill="#444444" d="M263.7,929.6c0-15.2,0.3-30.5-0.1-45.7c-0.1-6.7,1.2-9.3,8.6-9.2c22.9,0.6,45.7,0.1,68.6,0.1
		c3.6,0,7.7-1,7.7,5.1c0.1,6-3.5,5.5-7.4,5.5c-17.9,0-35.7,0.1-53.7-0.1c-6-0.1-8,1.6-7.7,7.7c0.4,8,0.4,16,0,23.9
		c-0.3,6.3,2.3,7.7,8,7.6c17.5-0.3,35-0.1,52.5,0c3.2,0,8.2-1.2,8.2,4.4c0,5.5-4.5,4.8-7.9,4.8c-17.1,0.1-34.3,0.4-51.3-0.1
		c-7.6-0.3-9.2,2.2-9.5,9.6c-0.3,9.2-1.5,23.2,1.9,27.6c3.1,4.2,17.8,1.6,27.1,1.9c11.1,0.4,22,0.1,33.1,0c3.8,0,6.6,0.1,6.6,5.3
		c0,4.8-2.3,5.5-6.3,5.5c-23.9-0.1-48-0.3-71.9,0.1c-6.3,0.1-6.6-2.9-6.6-7.6C263.7,960.8,263.7,945.2,263.7,929.6z"/>
	<path fill="#444444" d="M1226.5,929.6c0-15.2,0.3-30.5-0.1-45.7c-0.1-6.7,1.2-9.3,8.6-9.2c22.9,0.6,45.7,0.1,68.6,0.1
		c3.6,0,7.7-1,7.7,5.1c0.1,6-3.5,5.5-7.4,5.5c-17.9,0-35.7,0.1-53.7-0.1c-6-0.1-8,1.6-7.7,7.7c0.4,8,0.4,16,0,23.9
		c-0.3,6.3,2.3,7.7,8,7.6c17.5-0.3,35-0.1,52.5,0c3.2,0,8.2-1.2,8.2,4.4c0,5.5-4.5,4.8-7.9,4.8c-17.1,0.1-34.3,0.4-51.3-0.1
		c-7.6-0.3-9.2,2.2-9.5,9.6c-0.3,9.2-1.5,23.2,1.9,27.6c3.1,4.2,17.8,1.6,27.1,1.9c11.1,0.4,22,0.1,33.1,0c3.8,0,6.6,0.1,6.6,5.3
		c0,4.8-2.3,5.5-6.3,5.5c-23.9-0.1-48-0.3-71.9,0.1c-6.3,0.1-6.6-2.9-6.6-7.6C1226.5,960.8,1226.5,945.2,1226.5,929.6z"/>
	<path fill="#444444" d="M1350.6,929.6c0-15.2,0.1-30.3,0-45.5c0-5.4,0.1-9.2,7.6-9.3c7.9-0.1,8.5,3.5,8.5,9.6
		c-0.3,24.7,0.4,49.3-0.3,74c-0.4,11.4,0.9,14.4,13.1,14.7c11.8,0.3,24.9,0,36.6,0c3.9,0,8.8-1.3,8.5,5.7c-0.1,6.3-4.4,5-8,5
		c-19.4,0-38.8-0.1-58.2,0.1c-6,0.1-8-1.8-7.9-7.7C1350.9,960.8,1350.6,945.2,1350.6,929.6z"/>
	<path fill="#444444" d="M572.2,928.9c0,16-0.3,31.9,0.1,48c0.1,6.4-2.5,7.4-8,7.3c-5.3-0.1-8.3-0.3-8.3-7.1
		c0.3-31.5,0.3-63.2,0-94.7c0-6.4,2.5-7.4,8-7.3c5.3,0.1,8.5,0.3,8.3,7.1C572,897.7,572.2,913.3,572.2,928.9z"/>
	<g>
		<path fill="#444444" d="M507.6,896.2c-9.2-8.5-20.1-13.6-31.9-16.6c-25.8-6.9-52.2-3.9-78.3-4.5c-6.1-0.1-5.3,3.9-5.3,7.7
			c0,15.2,0,30.5,0,45.7c0,15.6,0.4,31.2-0.1,46.8c-0.3,7.3,2.2,9,9,8.9c13.7-0.4,27.4,0.1,41.1-0.1c19.4-0.4,38.5-3.1,55.6-13.6
			C526.4,952.7,531.1,918,507.6,896.2z M477.9,968c-21.6,8.6-44.2,4.5-66.5,5.3c-5.1,0.1-3.5-3.9-3.5-6.7c-0.1-12.5,0-25.1,0-37.6
			c0-12.1,0-24.4,0-36.5c0-3.4-0.7-7,4.8-6.7c20.7,1,41.7-2.6,62.1,4.7c19.3,6.9,30.6,20,31.2,37.3
			C506.5,944.9,495.7,960.7,477.9,968z"/>
		<path fill="#444444" d="M687.6,881.8c-3.2-5.5-6-7.1-13.4-6.9c-4.7,0.1-9.8-0.4-13.1,5.4c-19.7,34.4-38.7,67.4-59.7,103.9
			c8.5-1.3,14.9,2.8,19.7-6.1c8.5-15.8,13.6-22.9,21.7-26.5c7.3-3.2,13.9-2,29.3-2c4.1,0,10.9,0,15,0c9-0.1,15-1.2,20.4,0.7
			c9,3.1,10.4,12,15.5,21.9c5.3,10.4,10.9,14.1,21.7,10.9c0.6-2.6-1.3-4.2-2.5-6.1C724.1,945.4,705.6,913.7,687.6,881.8z M698,940
			c-17.4,0-34.9,0-55,0c10.8-19.3,20.3-36.2,30.6-54.6c9.6,16.9,18.5,32.8,27.7,48.4C704,938.2,703.1,940,698,940z"/>
		<path fill="#444444" d="M965.9,881.8c-3.2-5.5-6-7.1-13.4-6.9c-4.7,0.1-9.8-0.4-13.1,5.4c-19.7,34.4-38.7,67.4-59.7,103.9
			c8.5-1.3,14.9,2.8,19.7-6.1c8.5-15.8,13.6-22.9,21.7-26.5c7.3-3.2,13.9-2,29.3-2c4.1,0,10.9,0,15,0c9-0.1,15-1.2,20.4,0.7
			c9,3.1,10.4,12,15.5,21.9c5.3,10.4,10.9,14.1,21.7,10.9c0.6-2.6-1.3-4.2-2.5-6.1C1002.3,945.4,983.9,913.7,965.9,881.8z
			 M976.3,940c-17.4,0-34.9,0-55,0c10.8-19.3,20.3-36.2,30.6-54.6c9.6,16.9,18.5,32.8,27.7,48.4C982.3,938.2,981.3,940,976.3,940z"
			/>
		<path fill="#444444" d="M855.1,879.4c-22.3-6-45.2-3.9-68-4.2c-5.5-0.1-4.5,3.9-4.5,7.1c0,15.6,0,31.2,0,46.8
			c0,15.6,0.3,31.2-0.1,46.8c-0.1,6.4,1.8,8.3,8.2,8.5c6.7,0,8.5-2.3,8-8.5c-0.4-8-0.9-15.2-0.7-23.2c0-10.9,2.2-14.1,13.6-14.6
			c16.8-0.4,33.5,0.1,49-7.4c13-6.4,18.1-15.6,16.8-28.2C875.8,890.8,868.5,882.9,855.1,879.4z M848.4,923.4
			c-15,6.1-30.6,3.4-46.1,3.8c-5.1,0.1-3.5-3.9-3.6-6.6c-0.1-8-0.1-16.2-0.1-23.9c0-8,1.2-10.8,10.4-10.8c3.6,0,8.3,0,14,0
			c7.1,0,14.6,0.1,23.2,2.5c7.9,2.2,13.7,6.3,14.3,15.3C860.9,913.1,857.3,919.7,848.4,923.4z"/>
	</g>
	<ellipse fill="#444444" cx="1299.3" cy="241.7" rx="115.5" ry="115.4"/>
	<path fill="#444444" d="M1493.7,1024H0V45.8h1493.7V1024z M5.7,1018.3H1488V51.5H5.7V1018.3z"/>
	<rect x="52.7" y="850.1" fill="#444444" width="1382" height="5.7"/>
</g>
</svg>
