<?xml version="1.0" encoding="utf-8"?>
<!-- Generator: Adobe Illustrator 19.2.1, SVG Export Plug-In . SVG Version: 6.00 Build 0)  -->
<svg version="1.1" id="Calque_1" xmlns="http://www.w3.org/2000/svg" xmlns:xlink="http://www.w3.org/1999/xlink" x="0px" y="0px"
	 viewBox="0 0 1439 1024" style="enable-background:new 0 0 1439 1024;" xml:space="preserve">
<style type="text/css">
	.st0{fill:#444444;}
</style>
<g>
	<path class="st0" d="M307.1,0c4.7,0,9.6,0,14.2,0c11.5,1.2,17.3,9.1,22.1,18.4c4.9,9.6,7.3,19.8,9.7,30c0.4,1.9,1,3.6,1.6,5.5
		c6.7,40.6,8.8,81.6,10.8,122.7c3.5,70.8,0.9,141.6,1.9,212.3c0.7,56.6-1.7,113.1-3,169.5c-1,41.9,0.3,83.9-2.6,125.6
		c-0.1,1.2,0,2.3-1,3.6c9.3-47.7,23.1-94,36.8-140.1c16.4-54.6,35.1-108.4,62.2-158.9c10.6-20.1,23.1-38.8,39.6-54.6
		c8.5-8,18.1-14.2,29.3-17.5c22.2-6.5,41.1,2.3,50.9,23.4c11,23.7,14.7,49.2,18.4,74.6c6.3,44.3,9.3,88.9,12.6,133.3
		c4.3,56.2,6.9,112.8,13.6,168.9c0.4,4.1,1,8.2,0.1,12.3c15.3-53.2,33.8-105.1,62.4-153c8.3-13.9,18.9-26.2,31-37.4
		c25.9-24.1,56.6-20.5,75.1,9.6c13.2,21.5,19.2,45.9,26.2,69.8c9.4,32.7,18.6,65.5,31.4,97.1c6,15.2,13.8,29.4,25.1,41.4
		c11.6,12.6,25.4,16.9,41.9,9.9c8-3.3,15.9-7,23.2-12c30.1-21.2,57.5-45.8,82.3-73.1c60.9-66.8,113.4-140.2,164.7-214.6
		c5.6-8.2,10.3-16.9,16.1-24.8c9.1-12.8,19.9-16.1,29-9.6c9.1,6.5,9.6,17.5,0.9,30.7c-23.2,35.4-47.5,70.1-72.4,104.5
		c-41,56.9-84.6,111.7-133.8,161.8c-27.1,27.5-55.9,54-92.9,68.7c-40.4,16.1-71.1,7-96.2-29.1c-20.6-29.7-31.2-63.8-41.7-97.8
		c-9.4-30.7-16.5-62.1-28.7-91.8c-9.7-23.7-17.9-24.8-34.7-5.2C711,600,698,631.1,685.2,662.2c-15.6,38.3-27.1,77.7-38.3,117.4
		c-2.9,10.5-6.9,19.9-19.5,20.5c-12.3,0.7-20.1-6.5-25.1-16.6c-7.6-15.5-10.3-32.4-12.3-49.3c-4.9-39.6-7.7-79.4-10.6-119.2
		c-5.3-73-8.3-146.1-21.1-218.2c-2.1-11.6-4.7-23.4-8.9-34.4c-4.6-12.2-10-13.8-20.3-5.3c-9.6,7.7-17.8,16.8-24.4,27.3
		c-22.9,35.1-38.3,73.8-51.9,113c-36,102.9-62.2,208.5-83.1,315.4c-0.6,3.2-1.4,6.2-2.6,9.1c-3.2,8-8.2,13.8-17.5,13.5
		c-8.9-0.3-14.4-5.7-17.3-13.9c-2-5.6-3.6-11.3-4.1-17.3c-3.6-53.6-4.1-107.5-1-161.2c0.1-3.2,0.6-6.3,0.6-9.4
		c-1.6-64.1,2-128.2,3-192.1c1.2-67.2,2.9-134.5,1.4-201.7c-1.4-61.5-2.7-123.3-13.8-184.2c-0.1-1.7-0.6-3.5-1-5.2
		c-0.6-1.9-1-3.6-1.6-5.5c-2.3-7.3-5.6-7.6-10.2-1.7c-2.1,2.7-4,5.7-5.6,8.8c-0.6,1-1.2,2.1-1.9,3c-26.5,41.6-46.7,86.3-65.8,131.5
		c-38.3,89.9-71.8,181.8-101.9,274.7C97.2,564.9,66.1,669,45.4,776.1c-3.6,18.6-6.9,37.3-8.3,56.2c-0.3,4.7-1.2,9.4-2.7,13.9
		c-2.9,9.3-9.9,14.4-18.5,13.5c-9.4-0.9-13.6-7.4-15.2-15.8c-2.1-12,1-23.7,2.7-35.3c12-81.6,33.1-161,55.9-240.2
		c18.9-65.4,39.9-130.1,62.4-194.3c33-94.2,68.2-187.2,111.7-277.1c7.3-14.9,14.4-30,23.4-44c0.9-1.6,1.9-3,2.7-4.6
		c6.9-9.9,13.5-20.1,20.6-29.7C287.3,9.3,295.5,2.4,307.1,0z"/>
	<path class="st0" d="M338.5,360.4c0-35.3,0-70.8,0-106.1c0.4,0,0.7,0,1.2,0c0,35.3,0,70.5,0,105.8
		C339.3,360.3,339,360.4,338.5,360.4z"/>
	<path class="st0" d="M361.1,269c0,29.8,0,59.6,0,89.5c-0.4,0-0.7,0-1.2,0c0-29.8,0-59.8,0-89.6C360.4,268.8,360.8,268.8,361.1,269z
		"/>
	<path class="st0" d="M94.2,1008.2c18.2-30.7,35.7-59.9,53.1-89.2c5-8.3,16.9-12.3,26.1-9.3c4,1.4,3,4.1,3,6.7
		c0,33.2-0.1,66.4,0.1,99.6c0,6.2-2.4,6.9-7.7,7.2c-6.5,0.3-8-2.4-7.9-8.3c0.1-28.8,0.1-57.6,0.1-87c-4.4,0.4-5,3.7-6.3,6.2
		c-15.8,26.4-31.7,52.6-47.3,79c-8.5,14.2-17.5,14.6-25.8,0.6c-17.6-29.3-35-58.5-54.8-87.6c0,6.9,0,13.5,0,20.3
		c0,23.4-0.1,46.7,0.1,70.1c0,5-1.4,7.3-6.7,6.7c-4.4-0.4-8.9,0.7-8.8-6.2c0.1-33.7,0.1-67.2,0-100.8c0-4.4,1.7-6,6.2-6.3
		c11.9-1,20.1,1.4,26.4,13.3C59.5,951.4,77,978.9,94.2,1008.2z"/>
	<path class="st0" d="M1067.1,923.2c0,32.3-0.1,61.1,0.1,89.8c0,6.3-0.1,10-8.5,10.2c-9.3,0.1-7.9-5-7.9-10.6
		c0-29.7-0.1-59.3,0.1-89c0-4.6-0.4-13,5.6-14.2c7-1.4,12.3-2.4,18.9,5c26.8,30,54.5,59.5,81.6,89.3c1,1,1.7,2.6,5.3,3
		c0-13.2,0-26.2,0-39.4c0-15.8,0-31.7,0-47.5c0-5.3-1.7-10.6,7.7-10.6c9.7,0,8.5,5.3,8.5,11.3c0,30,0.1,60.1-0.1,90.2
		c0,4,0.6,12.9-4.4,12.8c-6.7-0.3-12.5,2.1-18.4-3.6c-4.9-4.7-9.1-9.9-13.6-14.9C1118,978.6,1093.6,952.1,1067.1,923.2z"/>
	<path class="st0" d="M221.6,966.3c0-15.8,0.3-31.7-0.1-47.5c-0.1-7,1.2-9.7,8.9-9.6c23.8,0.6,47.5,0.1,71.3,0.1c3.7,0,8-1,8,5.3
		c0.1,6.2-3.6,5.7-7.7,5.7c-18.6,0-37.1,0.1-55.8-0.1c-6.2-0.1-8.3,1.7-8,8c0.4,8.3,0.4,16.6,0,24.8c-0.3,6.5,2.4,8,8.3,7.9
		c18.2-0.3,36.4-0.1,54.6,0c3.3,0,8.5-1.2,8.5,4.6c0,5.7-4.7,5-8.2,5c-17.8,0.1-35.7,0.4-53.3-0.1c-7.9-0.3-9.6,2.3-9.9,10
		c-0.3,9.6-1.6,24.1,2,28.7c3.2,4.4,18.5,1.7,28.2,2c11.5,0.4,22.9,0.1,34.4,0c4,0,6.9,0.1,6.9,5.5c0,5-2.4,5.7-6.5,5.7
		c-24.8-0.1-49.9-0.3-74.7,0.1c-6.5,0.1-6.9-3-6.9-7.9C221.6,998.8,221.6,982.6,221.6,966.3z"/>
	<path class="st0" d="M1222.4,966.3c0-15.8,0.3-31.7-0.1-47.5c-0.1-7,1.2-9.7,8.9-9.6c23.8,0.6,47.5,0.1,71.3,0.1c3.7,0,8-1,8,5.3
		c0.1,6.2-3.6,5.7-7.7,5.7c-18.6,0-37.1,0.1-55.8-0.1c-6.2-0.1-8.3,1.7-8,8c0.4,8.3,0.4,16.6,0,24.8c-0.3,6.5,2.4,8,8.3,7.9
		c18.2-0.3,36.4-0.1,54.6,0c3.3,0,8.5-1.2,8.5,4.6c0,5.7-4.7,5-8.2,5c-17.8,0.1-35.7,0.4-53.3-0.1c-7.9-0.3-9.6,2.3-9.9,10
		c-0.3,9.6-1.6,24.1,2,28.7c3.2,4.4,18.5,1.7,28.2,2c11.5,0.4,22.9,0.1,34.4,0c4,0,6.9,0.1,6.9,5.5c0,5-2.4,5.7-6.5,5.7
		c-24.8-0.1-49.9-0.3-74.7,0.1c-6.5,0.1-6.9-3-6.9-7.9C1222.4,998.8,1222.4,982.6,1222.4,966.3z"/>
	<path class="st0" d="M1351.4,966.3c0-15.8,0.1-31.5,0-47.3c0-5.6,0.1-9.6,7.9-9.7c8.2-0.1,8.8,3.6,8.8,10
		c-0.3,25.7,0.4,51.2-0.3,76.9c-0.4,11.9,0.9,15,13.6,15.3c12.3,0.3,25.9,0,38,0c4.1,0,9.1-1.4,8.8,5.9c-0.1,6.5-4.6,5.2-8.3,5.2
		c-20.2,0-40.3-0.1-60.5,0.1c-6.2,0.1-8.3-1.9-8.2-8C1351.8,998.8,1351.4,982.6,1351.4,966.3z"/>
	<path class="st0" d="M542.3,965.6c0,16.6-0.3,33.2,0.1,49.9c0.1,6.7-2.6,7.7-8.3,7.6c-5.5-0.1-8.6-0.3-8.6-7.4
		c0.3-32.7,0.3-65.7,0-98.4c0-6.7,2.6-7.7,8.3-7.6c5.5,0.1,8.8,0.3,8.6,7.4C542.1,933.2,542.3,949.4,542.3,965.6z"/>
	<g>
		<path class="st0" d="M475.1,931.6c-9.6-8.8-20.9-14.1-33.2-17.3c-26.8-7.2-54.3-4.1-81.4-4.7c-6.3-0.1-5.5,4.1-5.5,8
			c0,15.8,0,31.7,0,47.5c0,16.2,0.4,32.4-0.1,48.6c-0.3,7.6,2.3,9.4,9.4,9.3c14.2-0.4,28.5,0.1,42.7-0.1c20.2-0.4,40-3.2,57.8-14.1
			C494.7,990.4,499.6,954.3,475.1,931.6z M444.3,1006.3c-22.5,8.9-45.9,4.7-69.1,5.5c-5.3,0.1-3.6-4.1-3.6-7c-0.1-13,0-26.1,0-39.1
			c0-12.6,0-25.4,0-37.9c0-3.5-0.7-7.3,5-7c21.5,1,43.3-2.7,64.6,4.9c20.1,7.2,31.8,20.8,32.4,38.8
			C474,982.2,462.8,998.7,444.3,1006.3z"/>
		<path class="st0" d="M662.2,916.7c-3.3-5.7-6.2-7.4-13.9-7.2c-4.9,0.1-10.2-0.4-13.6,5.6c-20.5,35.8-40.2,70.1-62.1,108
			c8.8-1.4,15.5,2.9,20.5-6.3c8.8-16.4,14.1-23.8,22.6-27.5c7.6-3.3,14.4-2.1,30.5-2.1c4.3,0,11.3,0,15.6,0
			c9.4-0.1,15.6-1.2,21.2,0.7c9.4,3.2,10.8,12.5,16.1,22.8c5.5,10.8,11.3,14.7,22.6,11.3c0.6-2.7-1.4-4.4-2.6-6.3
			C700.2,982.8,681,949.8,662.2,916.7z M673.1,977.2c-18.1,0-36.3,0-57.2,0c11.2-20.1,21.1-37.6,31.8-56.8
			c10,17.6,19.2,34.1,28.8,50.3C679.3,975.3,678.4,977.2,673.1,977.2z"/>
		<path class="st0" d="M951.5,916.7c-3.3-5.7-6.2-7.4-13.9-7.2c-4.9,0.1-10.2-0.4-13.6,5.6c-20.5,35.8-40.2,70.1-62.1,108
			c8.8-1.4,15.5,2.9,20.5-6.3c8.8-16.4,14.1-23.8,22.6-27.5c7.6-3.3,14.4-2.1,30.5-2.1c4.3,0,11.3,0,15.6,0
			c9.4-0.1,15.6-1.2,21.2,0.7c9.4,3.2,10.8,12.5,16.1,22.8c5.5,10.8,11.3,14.7,22.6,11.3c0.6-2.7-1.4-4.4-2.6-6.3
			C989.4,982.8,970.3,949.8,951.5,916.7z M962.4,977.2c-18.1,0-36.3,0-57.2,0c11.2-20.1,21.1-37.6,31.8-56.8
			c10,17.6,19.2,34.1,28.8,50.3C968.6,975.3,967.6,977.2,962.4,977.2z"/>
		<path class="st0" d="M836.4,914.2c-23.2-6.2-47-4.1-70.7-4.4c-5.7-0.1-4.7,4.1-4.7,7.4c0,16.2,0,32.4,0,48.6
			c0,16.2,0.3,32.4-0.1,48.6c-0.1,6.7,1.9,8.6,8.5,8.8c7,0,8.8-2.4,8.3-8.8c-0.4-8.3-0.9-15.8-0.7-24.1c0-11.3,2.3-14.7,14.1-15.2
			c17.5-0.4,34.8,0.1,50.9-7.7c13.5-6.7,18.8-16.2,17.5-29.3C857.9,926,850.3,917.8,836.4,914.2z M829.4,959.9
			c-15.6,6.3-31.8,3.5-47.9,4c-5.3,0.1-3.6-4.1-3.7-6.9c-0.1-8.3-0.1-16.8-0.1-24.8c0-8.3,1.2-11.2,10.8-11.2c3.7,0,8.6,0,14.6,0
			c7.4,0,15.2,0.1,24.1,2.6c8.2,2.3,14.2,6.5,14.9,15.9C842.4,949.2,838.7,956.1,829.4,959.9z"/>
	</g>
	<ellipse class="st0" cx="1298.1" cy="251.3" rx="120.1" ry="120"/>
	<rect x="2.3" y="883.7" class="st0" width="1436.6" height="5.9"/>
</g>
</svg>
