<?xml version="1.0" encoding="utf-8"?>
<!-- Generator: Adobe Illustrator 19.2.0, SVG Export Plug-In . SVG Version: 6.00 Build 0)  -->
<svg version="1.1" id="Calque_1" xmlns="http://www.w3.org/2000/svg" xmlns:xlink="http://www.w3.org/1999/xlink" x="0px" y="0px"
	 viewBox="0 0 150 35" style="enable-background:new 0 0 150 35;" xml:space="preserve">
<polygon points="45.1,28.2 45.1,0.2 37.7,0.2 37.7,34 51.6,34 51.6,28.2 "/>
<path d="M17.7,3.7c-1.2-2-3.1-3.6-6.3-3.7H0v10.5v2.9V34h7.6V18.5c2.5-0.4,4.5,0.7,4.5,3.1c0,0,0,7.5,0,9c0,1.5,0.6,2.7,1.5,3.4h7.2
	c-1.3-1.6-1.5-2.5-1.5-3.7c0,0,0-7.5,0-7.5c0-3.8-2.8-6.5-4.9-6.5c2.1-0.1,4.8-3.2,4.8-7.7c0-0.8-0.1-1.5-0.3-2.4l4.8,0V34h7.5V6.2
	h5.7v-6H17.7L17.7,3.7z M7.5,13.5v-0.3v-2.9V5.5c2.8,0,4.4,0.9,4.4,3.9C11.9,12.4,10.5,13.6,7.5,13.5z"/>
<rect x="58" y="13.8" width="21.4" height="5.7"/>
<rect x="82.7" y="1.1" width="5.9" height="5.4"/>
<path d="M69.7,25.6c-2.1,2.2-4.7,3.3-7.9,3.3c-3.2,0-5.9-1.1-8.1-3.3c-2.3-2.2-3.3-4.9-3.3-8.1c0-3.2,1.1-5.9,3.3-8.1
	c2.2-2.2,4.9-3.3,8.1-3.3c1.7,0,3.4,0.4,5,1.2c1.5,0.8,2.8,1.9,3.7,3.3h7.4c-1.3-3.1-3.4-5.6-6.3-7.4c-2.9-1.9-6.2-2.8-9.8-2.8
	c-4.8,0-9,1.7-12.3,5c-0.8,0.8-1.6,1.7-2.2,2.6v18.5h6.7v6.2c2.5,1.2,5.2,1.9,8.2,1.9c4.8,0,9-1.7,12.3-5c2.3-2.2,3.8-4.3,4.5-6.8
	h-7.1C71.1,23.8,70.5,24.8,69.7,25.6z"/>
<rect x="82.7" y="9.3" width="5.9" height="24.7"/>
<path d="M143.2,27c-1.9,0-3.5,1.6-3.5,3.5s1.6,3.5,3.5,3.5c1.9,0,3.5-1.6,3.5-3.5S145.1,27,143.2,27z"/>
<path d="M99.6,10.7l-0.3,0.4V9.3h-5.5v24.7h5.9V19.6c0-1.9,0.5-3.4,1.5-4.3c0.9-0.7,2.1-1.2,3.8-1.3V8.4h-0.4
	C102.4,8.4,100.7,9.2,99.6,10.7z"/>
<path d="M127.4,18.6c-1.5-0.5-2.5-0.9-3.1-1.2c-0.6-0.3-0.8-0.8-0.8-1.4c0-0.6,0.2-1.1,0.6-1.5c0.5-0.4,1-0.6,1.7-0.6
	c0.6,0,1.2,0.2,1.6,0.5s0.7,0.8,0.8,1.6h5.8c-0.1-2.1-1-3.9-2.5-5.3c-1.5-1.4-3.4-2.1-5.5-2.1c-2.4,0-4.4,0.7-6,2.2
	c-1.6,1.5-2.4,3.3-2.4,5.6c0,1.9,0.6,3.5,1.7,4.7c1.2,1.2,3.2,2.2,5.9,3c1.4,0.4,2.3,0.8,2.8,1.2c0.5,0.4,0.7,1,0.7,1.8
	c0,0.7-0.3,1.3-0.8,1.7c-0.5,0.5-1.2,0.7-2,0.7c-0.8,0-1.6-0.3-2.1-0.8c-0.5-0.5-0.9-1.4-1.1-2.4h-6.1c0.1,2.6,1,4.6,2.7,6.2
	c1.7,1.6,3.8,2.4,6.4,2.4s4.7-0.8,6.3-2.4c1.6-1.6,2.5-3.6,2.5-6.1c0-2-0.6-3.5-1.6-4.7C131.9,20.4,130,19.4,127.4,18.6z"/>
<rect x="107.6" y="1" width="5.9" height="32.9"/>
</svg>
