<?xml version="1.0" encoding="utf-8"?>
<!-- Generated by IcoMoon.io -->
<!DOCTYPE svg PUBLIC "-//W3C//DTD SVG 1.1//EN" "http://www.w3.org/Graphics/SVG/1.1/DTD/svg11.dtd">
<svg version="1.1" xmlns="http://www.w3.org/2000/svg" xmlns:xlink="http://www.w3.org/1999/xlink" width="3024" height="1024" viewBox="0 0 3024 1024">
<g id="icomoon-ignore">
</g>
<path d="M1136.31 990.968h171.768v-720.103h-171.768v720.103zM753.135 746.529c-59.458 66.065-138.735 92.49-231.226 92.49s-171.768-33.032-237.832-99.097c-66.065-66.065-99.097-145.342-99.097-237.832s33.032-171.768 99.097-237.832 145.342-99.097 237.832-99.097c52.852 0 99.097 13.213 145.342 39.639s79.277 52.852 105.703 99.097h218.013c-39.639-92.49-99.097-165.161-184.981-218.013s-184.981-79.277-284.077-79.277c-145.342 0-264.258 52.852-363.355 145.342s-151.948 218.013-151.948 356.748 52.852 257.652 151.948 356.748c99.097 99.097 224.619 145.342 369.961 145.342v0c145.342 0 264.258-52.852 363.355-145.342 66.065-66.065 112.31-125.523 132.129-198.194h-211.406c-13.213 26.426-33.032 59.458-59.458 79.277zM1136.31 184.981h171.768v-158.555h-171.768v158.555zM2913.445 792.774c-52.852 0-99.097 46.245-99.097 105.703 0 52.852 46.245 105.703 99.097 105.703 59.458 0 99.097-46.245 99.097-105.703s-46.245-105.703-99.097-105.703zM2450.994 541.729c-46.245-13.213-72.671-26.426-92.49-39.639s-19.819-26.426-19.819-39.639c0-19.819 6.606-33.032 19.819-46.245s26.426-13.213 52.852-13.213c19.819 0 33.032 6.606 46.245 13.213s19.819 26.426 26.426 46.245h171.768c-6.606-59.458-26.426-112.31-72.671-158.555-46.245-39.639-99.097-59.458-165.161-59.458-72.671 0-132.129 19.819-178.374 66.065s-66.065 99.097-66.065 165.161c0 52.852 13.213 105.703 52.852 138.735 33.032 33.032 92.49 66.065 171.768 85.884 39.639 13.213 66.065 26.426 79.277 39.639s19.819 26.426 19.819 52.852c0 19.819-6.606 39.639-26.426 52.852-13.213 13.213-33.032 19.819-59.458 19.819s-46.245-6.606-59.458-19.819c-13.213-13.213-26.426-39.639-33.032-72.671h-178.374c6.606 79.277 33.032 138.735 79.277 184.981 52.852 46.245 112.31 72.671 191.587 72.671 72.671 0 138.735-19.819 184.981-72.671 46.245-46.245 72.671-105.703 72.671-178.374 0-59.458-13.213-105.703-46.245-138.735-39.639-46.245-99.097-72.671-171.768-99.097zM1631.794 310.503l-6.606 13.213v-52.852h-165.161v720.103h171.768v-422.813c0-52.852 13.213-99.097 46.245-125.523 26.426-19.819 66.065-33.032 112.31-39.639v-165.161h-13.213c-59.458 6.606-112.31 26.426-145.342 72.671zM1869.626 990.968h171.768v-964.542h-171.768v964.542zM409.6 568.155h627.613v-165.161h-627.613v165.161z"></path>
</svg>
