<?xml version="1.0" encoding="utf-8"?>
<!-- Generated by IcoMoon.io -->
<!DOCTYPE svg PUBLIC "-//W3C//DTD SVG 1.1//EN" "http://www.w3.org/Graphics/SVG/1.1/DTD/svg11.dtd">
<svg version="1.1" xmlns="http://www.w3.org/2000/svg" xmlns:xlink="http://www.w3.org/1999/xlink" width="42" height="32" viewBox="0 0 42 32">
<path fill="#444444" d="M12.774 12.647h19.864v5.238h-19.864v-5.238z"></path>
<path fill="#444444" d="M23.76 23.569c-1.916 2.108-4.407 2.938-7.345 2.938s-5.429-1.022-7.537-3.13c-2.108-2.108-3.13-4.663-3.13-7.601s1.022-5.429 3.13-7.537c2.108-2.108 4.599-3.13 7.537-3.13 1.661 0 3.13 0.447 4.599 1.277s2.491 1.661 3.385 3.13h6.898c-1.277-2.938-3.13-5.238-5.876-6.898s-5.876-2.555-9.006-2.555c-4.599 0-8.367 1.661-11.561 4.599s-4.79 6.962-4.79 11.369c0 4.407 1.661 8.176 4.854 11.369s7.154 4.599 11.752 4.599 8.367-1.661 11.561-4.599c2.108-2.108 3.577-3.96 4.216-6.323h-6.77c-0.447 0.83-1.086 1.852-1.916 2.491z"></path>
<path fill="#444444" d="M38.323 24.91c-1.661 0-3.13 1.469-3.13 3.385 0 1.661 1.469 3.385 3.13 3.385 1.916 0 3.13-1.469 3.13-3.385s-1.469-3.385-3.13-3.385z"></path>
</svg>
