<?xml version="1.0" encoding="utf-8"?>
<!-- Generator: Adobe Illustrator 19.2.1, SVG Export Plug-In . SVG Version: 6.00 Build 0)  -->
<svg version="1.1" id="Calque_1" xmlns="http://www.w3.org/2000/svg" xmlns:xlink="http://www.w3.org/1999/xlink" x="0px" y="0px"
	 viewBox="0 0 1327 1024" enable-background="new 0 0 1327 1024" xml:space="preserve">
<path fill="#444444" d="M407.5,403.5h636.9v168H407.5V403.5z"/>
<path fill="#444444" d="M759.8,753.7c-61.4,67.6-141.3,94.2-235.5,94.2s-174.1-32.8-241.7-100.4S182.3,598,182.3,503.8
	S215,329.7,282.6,262.2s147.5-100.4,241.7-100.4c53.3,0,100.4,14.3,147.5,40.9c47.1,26.6,79.9,53.3,108.5,100.4h221.2
	c-40.9-94.2-100.4-168-188.4-221.2S624.6,0,524.3,0C376.8,0,256,53.3,153.6,147.5S0,370.7,0,512s53.3,262.2,155.6,364.5
	S385,1024,532.5,1024s268.3-53.3,370.7-147.5c67.6-67.6,114.7-127,135.2-202.7H821.3C806.9,700.4,786.4,733.2,759.8,753.7
	L759.8,753.7z"/>
<path fill="#444444" d="M1226.7,796.7c-53.3,0-100.4,47.1-100.4,108.5c0,53.3,47.1,108.5,100.4,108.5c61.4,0,100.4-47.1,100.4-108.5
	S1280,796.7,1226.7,796.7z"/>
</svg>
