<?xml version="1.0" encoding="utf-8"?>
<!-- Generator: Adobe Illustrator 19.2.1, SVG Export Plug-In . SVG Version: 6.00 Build 0)  -->
<svg version="1.1" id="Calque_1" xmlns="http://www.w3.org/2000/svg" xmlns:xlink="http://www.w3.org/1999/xlink" x="0px" y="0px"
	 viewBox="0 0 1024 1024" enable-background="new 0 0 1024 1024" xml:space="preserve">
<path fill="#444444" d="M964.9,0H78.4C39.7,0,0,22,0,60.2v882.8c0,38.7,39.7,81.1,78.4,81.1h886.5c38.7,0,59.1-42.9,59.1-81.6V60.2
	C1024,22,1003.6,0,964.9,0z M654.4,735.3c-61.7,58-135.4,91-225.8,91s-168.3-28.8-230-91c-61.2-61.7-94.1-136-94.1-223.3
	c0-86.8,32.9-165.3,94.6-223.3s135.4-91,225.8-91c61.7,0,123.4,16.7,176.7,49.7s90.4,78.4,115,136.5H581.3
	c-16.2-28.8-37.1-45.5-65.9-62.2S457.9,297,425,297c-57.5,0-106.6,20.9-147.9,62.2s-61.7,91-61.7,149s20.4,107.7,61.7,149
	c41.3,41.3,90.4,62.2,147.9,62.2s106.6-16.7,143.7-58c16.2-12.6,28.7-32.9,37.1-49.7h131.2C724.5,656.8,695.8,694,654.4,735.3
	L654.4,735.3z M744.9,549.7h-390V446.1h390V549.7z M857.8,822.7c-32.9,0-61.7-32.9-61.7-66.4c0-37.1,28.7-66.4,61.7-66.4
	s61.7,28.8,61.7,66.4C919.4,793.4,894.8,822.7,857.8,822.7z"/>
</svg>
