<?xml version="1.0" encoding="utf-8"?>
<!-- Generator: Adobe Illustrator 19.2.1, SVG Export Plug-In . SVG Version: 6.00 Build 0)  -->
<svg version="1.1" id="Calque_1" xmlns="http://www.w3.org/2000/svg" xmlns:xlink="http://www.w3.org/1999/xlink" x="0px" y="0px"
	 viewBox="0 0 3012 1024" enable-background="new 0 0 3012 1024" xml:space="preserve">
<path fill="#444444" d="M1123.4,999.1h174V268.4h-174V999.1z M740.7,750.6C681,815.2,601.5,845,507,845s-174-34.8-238.6-99.4S169,601.5,169,507
	s34.8-174,99.4-238.6S412.6,169,507,169c49.7,0,99.4,9.9,149.1,34.8c44.7,24.9,79.5,54.7,109.4,99.4h218.7
	c-39.8-89.5-99.4-164-183.9-218.7S616.4,0,512,0C367.8,0,248.5,49.7,149.1,149.1S0,367.8,0,507s49.7,258.5,154.1,357.9
	c99.4,99.4,223.7,149.1,367.8,149.1l0,0c144.2,0,263.5-49.7,362.9-149.1c64.6-64.6,109.4-124.3,134.2-198.8H810.3
	C780.4,695.9,760.5,725.7,740.7,750.6z M1123.4,183.9h174V24.9h-174V183.9z M2908,790.4c-54.7,0-104.4,44.7-104.4,104.4
	c0,54.7,44.7,104.4,104.4,104.4c54.7,0,104.4-44.7,104.4-104.4C3012.3,840.1,2962.6,790.4,2908,790.4z M2440.7,546.8
	c-44.7-14.9-74.6-24.9-89.5-34.8c-14.9-9.9-24.9-24.9-24.9-39.8c0-19.9,5-34.8,19.9-44.7c14.9-9.9,29.8-14.9,49.7-14.9
	s34.8,5,44.7,14.9c9.9,9.9,19.9,24.9,24.9,44.7h169c-5-64.6-29.8-114.3-74.6-159.1c-44.7-39.8-99.4-64.6-164-64.6
	c-69.6,0-129.2,19.9-179,64.6c-44.7,44.7-69.6,99.4-69.6,164c0,54.7,14.9,104.4,49.7,139.2c34.8,34.8,94.4,64.6,174,89.5
	c39.8,9.9,69.6,24.9,79.5,34.8c14.9,9.9,19.9,29.8,19.9,54.7c0,19.9-9.9,39.8-24.9,49.7c-14.9,14.9-34.8,19.9-59.7,19.9
	c-24.9,0-44.7-9.9-59.7-24.9s-24.9-39.8-29.8-69.6h-179c5,74.6,29.8,134.2,79.5,183.9c49.7,44.7,114.3,69.6,188.9,69.6
	c74.6,0,139.2-24.9,183.9-69.6c49.7-44.7,74.6-104.4,74.6-179c0-59.7-14.9-104.4-49.7-139.2C2574.9,596.5,2520.2,566.7,2440.7,546.8
	z M1620.5,313.2l-5,9.9v-54.7h-164v725.7h174V571.7c0-54.7,14.9-99.4,44.7-124.3c24.9-19.9,64.6-34.8,114.3-39.8v-164h-9.9
	C1705,243.6,1655.3,268.4,1620.5,313.2z M1859.1,999.1h174V24.9h-174V999.1z M392.7,571.7H1024v-169H392.7V571.7z"/>
</svg>
