<?xml version="1.0" encoding="utf-8"?>
<!-- Generator: Adobe Illustrator 19.2.1, SVG Export Plug-In . SVG Version: 6.00 Build 0)  -->
<svg version="1.1" id="Calque_1" xmlns="http://www.w3.org/2000/svg" xmlns:xlink="http://www.w3.org/1999/xlink" x="0px" y="0px"
	 viewBox="0 0 4304 1024" enable-background="new 0 0 4304 1024" xml:space="preserve">
<polygon fill="#444444" points="1323.3,827.4 1323.3,5.9 1106.2,5.9 1106.2,997.6 1514,997.6 1514,827.4 "/>
<path fill="#444444" d="M519.3,108.6C484.1,49.9,428.4,2.9,334.5,0H0v308.1v85.1v604.4h223V542.8c73.4-11.7,132,20.5,132,91c0,0,0,220.1,0,264.1
	c0,44,17.6,79.2,44,99.8h211.3c-38.1-46.9-44-73.4-44-108.6V669c0-111.5-82.2-190.7-143.8-190.7c61.6-2.9,140.8-93.9,140.8-225.9
	c0-23.5-2.9-44-8.8-70.4h140.8v815.7h220.1V181.9h167.2V5.9H519.3V108.6z M220.1,396.1v-8.8v-85.1V161.4
	c82.2,0,129.1,26.4,129.1,114.4S308.1,399,220.1,396.1z"/>
<rect fill="#444444" x="1701.8" y="404.9" width="627.9" height="167.2"/>
<rect fill="#444444" x="2426.5" y="32.3" width="173.1" height="158.4"/>
<path fill="#444444" d="M2045.1,751.1c-61.6,64.6-137.9,96.8-231.8,96.8c-93.9,0-173.1-32.3-237.7-96.8c-67.5-64.6-96.8-143.8-96.8-237.7
	s32.3-173.1,96.8-237.7s143.8-96.8,237.7-96.8c49.9,0,99.8,11.7,146.7,35.2c44,23.5,82.2,55.7,108.6,96.8h217.1
	c-38.1-91-99.8-164.3-184.8-217.1c-85.1-55.7-181.9-82.2-287.5-82.2c-140.8,0-264.1,49.9-360.9,146.7
	c-23.5,23.5-46.9,49.9-64.6,76.3v542.8h196.6v181.9c73.4,35.2,152.6,55.7,240.6,55.7c140.8,0,264.1-49.9,360.9-146.7
	c67.5-64.6,111.5-126.2,132-199.5h-208.3C2086.1,698.3,2068.5,727.7,2045.1,751.1z"/>
<rect fill="#444444" x="2426.5" y="272.9" width="173.1" height="724.7"/>
<path fill="#444444" d="M4201.6,792.2c-55.7,0-102.7,46.9-102.7,102.7c0,55.7,46.9,102.7,102.7,102.7c55.7,0,102.7-46.9,102.7-102.7
	C4304.3,839.2,4257.4,792.2,4201.6,792.2z"/>
<path fill="#444444" d="M2922.4,313.9l-8.8,11.7v-52.8h-161.4v724.7h173.1V575.1c0-55.7,14.7-99.8,44-126.2c26.4-20.5,61.6-35.2,111.5-38.1V246.5
	h-11.7C3004.5,246.5,2954.6,269.9,2922.4,313.9z"/>
<path fill="#444444" d="M3738,545.7c-44-14.7-73.4-26.4-91-35.2c-17.6-8.8-23.5-23.5-23.5-41.1s5.9-32.3,17.6-44c14.7-11.7,29.3-17.6,49.9-17.6
	c17.6,0,35.2,5.9,46.9,14.7c11.7,8.8,20.5,23.5,23.5,46.9h170.2c-2.9-61.6-29.3-114.4-73.4-155.5c-44-41.1-99.8-61.6-161.4-61.6
	c-70.4,0-129.1,20.5-176,64.6s-70.4,96.8-70.4,164.3c0,55.7,17.6,102.7,49.9,137.9c35.2,35.2,93.9,64.6,173.1,88
	c41.1,11.7,67.5,23.5,82.2,35.2c14.7,11.7,20.5,29.3,20.5,52.8c0,20.5-8.8,38.1-23.5,49.9c-14.7,14.7-35.2,20.5-58.7,20.5
	s-46.9-8.8-61.6-23.5s-26.4-41.1-32.3-70.4h-179c2.9,76.3,29.3,135,79.2,181.9c49.9,46.9,111.5,70.4,187.8,70.4
	s137.9-23.5,184.8-70.4c46.9-46.9,73.4-105.6,73.4-179c0-58.7-17.6-102.7-46.9-137.9C3870.1,598.6,3814.3,569.2,3738,545.7z"/>
<rect fill="#444444" x="3157.1" y="29.3" width="173.1" height="965.3"/>
</svg>
