<?xml version="1.0" encoding="utf-8"?>
<!-- Generator: Adobe Illustrator 18.1.1, SVG Export Plug-In . SVG Version: 6.00 Build 0)  -->
<svg version="1.1" id="Calque_1" xmlns="http://www.w3.org/2000/svg" xmlns:xlink="http://www.w3.org/1999/xlink" x="0px" y="0px"
	 viewBox="0 0 61.3 35" enable-background="new 0 0 61.3 35" xml:space="preserve">
<path d="M23.1,26.9h3.5V12.2h-3.5V26.9z M15.4,21.9c-1.2,1.3-2.8,1.9-4.7,1.9c-1.9,0-3.5-0.7-4.8-2c-1.3-1.3-2-2.9-2-4.8
	c0-1.9,0.7-3.5,2-4.8s2.9-2,4.8-2c1,0,2,0.2,3,0.7c0.9,0.5,1.6,1.1,2.2,2h4.4c-0.8-1.8-2-3.3-3.7-4.4c-1.7-1.1-3.7-1.7-5.8-1.7
	c-2.9,0-5.3,1-7.3,3s-3,4.4-3,7.2s1,5.2,3.1,7.2c2,2,4.5,3,7.4,3l0,0c2.9,0,5.3-1,7.3-3c1.3-1.3,2.2-2.5,2.7-4h-4.2
	C16.2,20.8,15.8,21.4,15.4,21.9z M23.1,10.5h3.5V7.3h-3.5V10.5z M59,22.7c-1.1,0-2.1,0.9-2.1,2.1c0,1.1,0.9,2.1,2.1,2.1
	c1.1,0,2.1-0.9,2.1-2.1C61.1,23.7,60.1,22.7,59,22.7z M49.6,17.8c-0.9-0.3-1.5-0.5-1.8-0.7c-0.3-0.2-0.5-0.5-0.5-0.8
	c0-0.4,0.1-0.7,0.4-0.9c0.3-0.2,0.6-0.3,1-0.3c0.4,0,0.7,0.1,0.9,0.3s0.4,0.5,0.5,0.9h3.4c-0.1-1.3-0.6-2.3-1.5-3.2
	c-0.9-0.8-2-1.3-3.3-1.3c-1.4,0-2.6,0.4-3.6,1.3c-0.9,0.9-1.4,2-1.4,3.3c0,1.1,0.3,2.1,1,2.8c0.7,0.7,1.9,1.3,3.5,1.8
	c0.8,0.2,1.4,0.5,1.6,0.7c0.3,0.2,0.4,0.6,0.4,1.1c0,0.4-0.2,0.8-0.5,1c-0.3,0.3-0.7,0.4-1.2,0.4s-0.9-0.2-1.2-0.5
	c-0.3-0.3-0.5-0.8-0.6-1.4h-3.6c0.1,1.5,0.6,2.7,1.6,3.7c1,0.9,2.3,1.4,3.8,1.4s2.8-0.5,3.7-1.4c1-0.9,1.5-2.1,1.5-3.6
	c0-1.2-0.3-2.1-1-2.8C52.3,18.8,51.2,18.2,49.6,17.8z M33.1,13.1L33,13.3v-1.1h-3.3v14.6h3.5v-8.5c0-1.1,0.3-2,0.9-2.5
	c0.5-0.4,1.3-0.7,2.3-0.8v-3.3h-0.2C34.8,11.7,33.8,12.2,33.1,13.1z M37.9,26.9h3.5V7.3h-3.5V26.9z M8.4,18.3h12.7v-3.4H8.4V18.3z"
	/>
</svg>
