<?xml version="1.0" encoding="utf-8"?>
<!-- Generated by IcoMoon.io -->
<!DOCTYPE svg PUBLIC "-//W3C//DTD SVG 1.1//EN" "http://www.w3.org/Graphics/SVG/1.1/DTD/svg11.dtd">
<svg version="1.1" xmlns="http://www.w3.org/2000/svg" xmlns:xlink="http://www.w3.org/1999/xlink" width="32" height="32" viewBox="0 0 32 32">
<path fill="#444444" d="M15.98 4.147c-6.559 0-11.875 5.307-11.875 11.853s5.317 11.854 11.875 11.854c6.559 0 11.876-5.307 11.876-11.854s-5.316-11.853-11.876-11.853zM19.495 11.12c0 0-1.188 0-1.66 0-0.586 0-0.708 0.24-0.708 0.845 0 0.504 0 1.462 0 1.462h2.368l-0.228 2.566h-2.14v7.666h-3.067v-7.633h-1.595v-2.599h1.595c0 0 0-0.374 0-2.046 0-1.921 1.029-2.924 3.311-2.924 0.374 0 2.123 0 2.123 0v2.663z"></path>
</svg>
