<?xml version="1.0" encoding="utf-8"?>
<!-- Generated by IcoMoon.io -->
<!DOCTYPE svg PUBLIC "-//W3C//DTD SVG 1.1//EN" "http://www.w3.org/Graphics/SVG/1.1/DTD/svg11.dtd">
<svg version="1.1" xmlns="http://www.w3.org/2000/svg" xmlns:xlink="http://www.w3.org/1999/xlink" width="32" height="32" viewBox="0 0 32 32">
<path fill="#444444" d="M30.154 0h-27.704c-1.209 0-2.45 0.686-2.45 1.879v27.573c0 1.209 1.241 2.532 2.45 2.532h27.704c1.209 0 1.846-1.339 1.846-2.548v-27.557c0-1.192-0.637-1.879-1.846-1.879zM20.451 22.967c-1.927 1.813-4.231 2.842-7.057 2.842s-5.26-0.898-7.187-2.842c-1.911-1.927-2.94-4.247-2.94-6.975 0-2.712 1.029-5.162 2.957-6.975s4.231-2.842 7.057-2.842c1.928 0 3.855 0.523 5.521 1.552s2.826 2.45 3.594 4.263h-4.231c-0.506-0.898-1.16-1.421-2.058-1.944s-1.797-0.768-2.826-0.768c-1.797 0-3.332 0.653-4.623 1.944s-1.928 2.842-1.928 4.655c0 1.813 0.637 3.365 1.928 4.655s2.826 1.944 4.623 1.944c1.797 0 3.332-0.523 4.492-1.813 0.506-0.392 0.898-1.029 1.16-1.552h4.1c-0.392 1.405-1.29 2.565-2.581 3.855zM23.277 17.168h-12.186v-3.234h12.186v3.234zM26.805 25.695c-1.029 0-1.927-1.029-1.927-2.075 0-1.16 0.898-2.075 1.927-2.075s1.927 0.898 1.927 2.075c0 1.16-0.768 2.075-1.927 2.075z"></path>
</svg>
