<?xml version="1.0" encoding="utf-8"?>
<!-- Generated by IcoMoon.io -->
<!DOCTYPE svg PUBLIC "-//W3C//DTD SVG 1.1//EN" "http://www.w3.org/Graphics/SVG/1.1/DTD/svg11.dtd">
<svg version="1.1" xmlns="http://www.w3.org/2000/svg" xmlns:xlink="http://www.w3.org/1999/xlink" width="95" height="32" viewBox="0 0 95 32">
<path fill="#444444" d="M35.51 30.968h5.368v-22.503h-5.368v22.503zM23.535 23.329c-1.858 2.065-4.335 2.89-7.226 2.89s-5.368-1.032-7.432-3.097c-2.065-2.065-3.097-4.542-3.097-7.432s1.032-5.368 3.097-7.432 4.542-3.097 7.432-3.097c1.652 0 3.097 0.413 4.542 1.239s2.477 1.652 3.303 3.097h6.813c-1.239-2.89-3.097-5.161-5.781-6.813s-5.781-2.477-8.877-2.477c-4.542 0-8.258 1.652-11.355 4.542s-4.748 6.813-4.748 11.148 1.652 8.052 4.748 11.148c3.097 3.097 7.019 4.542 11.561 4.542v0c4.542 0 8.258-1.652 11.355-4.542 2.065-2.065 3.51-3.923 4.129-6.194h-6.606c-0.413 0.826-1.032 1.858-1.858 2.477zM35.51 5.781h5.368v-4.955h-5.368v4.955zM91.045 24.774c-1.652 0-3.097 1.445-3.097 3.303 0 1.652 1.445 3.303 3.097 3.303 1.858 0 3.097-1.445 3.097-3.303s-1.445-3.303-3.097-3.303zM76.594 16.929c-1.445-0.413-2.271-0.826-2.89-1.239s-0.619-0.826-0.619-1.239c0-0.619 0.206-1.032 0.619-1.445s0.826-0.413 1.652-0.413c0.619 0 1.032 0.206 1.445 0.413s0.619 0.826 0.826 1.445h5.368c-0.206-1.858-0.826-3.51-2.271-4.955-1.445-1.239-3.097-1.858-5.161-1.858-2.271 0-4.129 0.619-5.574 2.065s-2.065 3.097-2.065 5.161c0 1.652 0.413 3.303 1.652 4.335 1.032 1.032 2.89 2.065 5.368 2.684 1.239 0.413 2.065 0.826 2.477 1.239s0.619 0.826 0.619 1.652c0 0.619-0.206 1.239-0.826 1.652-0.413 0.413-1.032 0.619-1.858 0.619s-1.445-0.206-1.858-0.619c-0.413-0.413-0.826-1.239-1.032-2.271h-5.574c0.206 2.477 1.032 4.335 2.477 5.781 1.652 1.445 3.51 2.271 5.987 2.271 2.271 0 4.335-0.619 5.781-2.271 1.445-1.445 2.271-3.303 2.271-5.574 0-1.858-0.413-3.303-1.445-4.335-1.239-1.445-3.097-2.271-5.368-3.097zM50.994 9.703l-0.206 0.413v-1.652h-5.161v22.503h5.368v-13.213c0-1.652 0.413-3.097 1.445-3.923 0.826-0.619 2.065-1.032 3.51-1.239v-5.161h-0.413c-1.858 0.206-3.51 0.826-4.542 2.271zM58.426 30.968h5.368v-30.142h-5.368v30.142zM12.8 17.755h19.613v-5.161h-19.613v5.161z"></path>
</svg>
