<?xml version="1.0" encoding="utf-8"?>
<!-- Generator: Adobe Illustrator 18.1.1, SVG Export Plug-In . SVG Version: 6.00 Build 0)  -->
<svg version="1.1" id="Calque_1" xmlns="http://www.w3.org/2000/svg" xmlns:xlink="http://www.w3.org/1999/xlink" x="0px" y="0px"
	 viewBox="75 -75 200 200" enable-background="new 75 -75 200 200" xml:space="preserve">
<path d="M177.7-48.9c-40.8,0-74,33.1-74,73.9c0,30.3,17.2,56.2,43.2,67.7c-0.6-5.9,0-14.2,1.4-20.2c1.4-5.8,8.7-37,8.7-37
	s-2.2-4.5-2.2-11.1c0-10.4,6-18.1,13.5-18.1c6.4,0,9.4,4.8,9.4,10.5c0,6.4-4.1,15.9-6.2,24.8c-1.8,7.4,3.7,13.5,11,13.5
	c13.2,0,23.4-14,23.4-34.1c0-17.8-12.8-30.3-31.1-30.3c-21.2,0-33.6,15.9-33.6,32.3c0,6.4,2.5,13.3,5.5,17c0.6,0.7,0.7,1.4,0.5,2.1
	c-0.6,2.4-1.8,7.4-2.1,8.4c-0.3,1.4-1.1,1.7-2.5,1c-9.3-4.3-15.1-17.9-15.1-28.8c0-23.5,17.1-45.1,49.2-45.1
	c25.8,0,45.9,18.4,45.9,43c0,25.7-16.2,46.3-38.6,46.3c-7.5,0-14.6-3.9-17.1-8.5c0,0-3.7,14.2-4.6,17.7c-1.6,6.2-5.8,13.8-8.8,18.8
	c7.6,2.6,15.7,4,24.1,4c40.8,0,74-33.1,74-73.9C251.6-15.8,218.5-48.9,177.7-48.9z"/>
</svg>
