<?xml version="1.0" encoding="utf-8"?>
<!-- Generated by IcoMoon.io -->
<!DOCTYPE svg PUBLIC "-//W3C//DTD SVG 1.1//EN" "http://www.w3.org/Graphics/SVG/1.1/DTD/svg11.dtd">
<svg version="1.1" xmlns="http://www.w3.org/2000/svg" xmlns:xlink="http://www.w3.org/1999/xlink" width="32" height="32" viewBox="0 0 32 32">
<path fill="#444444" d="M25.719 10.481c-0.678 0-1.345 0.143-1.961 0.418-0.846-1.505-2.465-2.477-4.217-2.477-0.637 0-1.267 0.126-1.851 0.368-1.112-1.222-2.664-1.913-4.327-1.913-2.761 0-5.107 1.892-5.711 4.55-1.803 0.717-3.008 2.45-3.039 4.419-0.006 0.341 0.267 0.623 0.608 0.627 0.004 0 0.006 0 0.010 0 0.337 0 0.612-0.27 0.618-0.608 0.024-1.561 1.039-2.921 2.525-3.384l0.364-0.113 0.062-0.376c0.368-2.247 2.287-3.879 4.564-3.879 1.446 0 2.784 0.662 3.671 1.817l0.322 0.419 0.465-0.254c0.524-0.286 1.118-0.437 1.721-0.437 1.501 0 2.82 0.908 3.359 2.312l0.269 0.702 0.637-0.401c0.575-0.363 1.237-0.555 1.912-0.555 1.986 0 3.602 1.616 3.602 3.602 0 2.231-2.068 4-4.349 3.523l-0.443-0.093-0.222 0.394c-0.73 1.296-2.103 2.101-3.585 2.101-0.936 0-1.817-0.309-2.553-0.892l-0.527-0.419-0.372 0.561c-0.624 0.941-1.673 1.54-2.807 1.603-0.34 0.017-0.602 0.308-0.583 0.65 0.017 0.329 0.289 0.584 0.615 0.584 0.012 0 0.023 0 0.035-0.001 1.308-0.071 2.533-0.676 3.383-1.649 0.844 0.524 1.802 0.798 2.808 0.798 1.781 0 3.441-0.893 4.431-2.357 2.888 0.337 5.402-1.95 5.403-4.804 0-2.668-2.17-4.838-4.837-4.838z"></path>
<path fill="#444444" d="M16.965 15.238c0-1.702-1.387-3.089-3.089-3.089-1.704 0-3.089 1.387-3.089 3.089 0 0.341 0.276 0.618 0.618 0.618s0.618-0.276 0.618-0.618c0-1.022 0.831-1.853 1.853-1.853s1.853 0.831 1.853 1.853c0 1.022-0.831 1.854-1.853 1.854h-12.356v1.235h12.356c1.703 0 3.089-1.385 3.089-3.089z"></path>
<path fill="#444444" d="M10.168 18.945h-8.649v1.236h8.649c1.022 0 1.853 0.831 1.853 1.853s-0.831 1.853-1.853 1.853-1.853-0.832-1.853-1.853c0-0.342-0.276-0.617-0.618-0.617s-0.618 0.276-0.618 0.617c0 1.703 1.385 3.089 3.089 3.089 1.703 0 3.089-1.386 3.089-3.089s-1.387-3.089-3.089-3.089z"></path>
</svg>
