<?xml version="1.0" encoding="utf-8"?>
<!-- Generated by IcoMoon.io -->
<!DOCTYPE svg PUBLIC "-//W3C//DTD SVG 1.1//EN" "http://www.w3.org/Graphics/SVG/1.1/DTD/svg11.dtd">
<svg version="1.1" xmlns="http://www.w3.org/2000/svg" xmlns:xlink="http://www.w3.org/1999/xlink" width="32" height="32" viewBox="0 0 32 32">
<path fill="#444444" d="M26.477 5.98c-1.054 0-2.042 0.309-2.876 0.834-0.776-2.038-2.728-3.478-5.044-3.478-0.931 0-1.823 0.245-2.574 0.663-1.235-1.606-3.17-2.643-5.347-2.643-3.342 0-6.11 2.443-6.624 5.643-2.209 0.682-3.804 2.738-3.804 5.155 0 2.997 2.427 5.412 5.413 5.412 0.389 0 0.775-0.035 1.146-0.124 0.788 2.011 2.739 3.436 5.030 3.436 1.896 0 3.541-0.961 4.503-2.417 1.047 0.81 2.348 1.304 3.771 1.304 2.262 0 4.241-1.241 5.289-3.094 0.368 0.088 0.74 0.122 1.116 0.122 2.996 0 5.412-2.416 5.412-5.402-0-2.997-2.416-5.413-5.413-5.413zM26.477 15.399c-0.277 0-0.556-0.030-0.834-0.091l-0.995-0.215-0.498 0.897c-0.833 1.48-2.404 2.382-4.078 2.382-1.054 0-2.047-0.343-2.882-1.018l-1.203-0.935-0.838 1.27c-0.744 1.117-2.006 1.796-3.351 1.796-1.657 0-3.125-0.993-3.729-2.541l-0.434-1.135-1.174 0.271c-0.279 0.062-0.56 0.093-0.839 0.093-2.211 0-4.007-1.795-4.007-4.017 0-1.764 1.13-3.297 2.815-3.823l0.822-0.261 0.14-0.852c0.419-2.584 2.63-4.457 5.245-4.457 1.668 0 3.212 0.759 4.233 2.089l0.717 0.957 1.053-0.584c0.586-0.312 1.261-0.482 1.917-0.482 1.641 0 3.152 1.036 3.741 2.569l0.617 1.594 1.43-0.912c0.647-0.403 1.387-0.608 2.132-0.608 2.222 0 4.017 1.795 4.017 4.006s-1.795 4.006-4.017 4.006z"></path>
<path fill="#444444" d="M4.105 27.44c-0.522 0.522-0.522 1.356 0 1.857 0.511 0.522 1.346 0.521 1.857 0 0.511-0.501 4.907-6.652 5.217-7.085-0.433 0.31-6.562 4.727-7.074 5.228z"></path>
<path fill="#444444" d="M9.783 27.347c-0.615 0.615-0.604 1.602 0 2.195 0.604 0.615 1.581 0.615 2.184 0 0.615-0.593 5.81-7.832 6.158-8.353-0.5 0.37-7.739 5.565-8.342 6.158z"></path>
<path fill="#444444" d="M16.671 26.198c-0.44 0.461-0.439 1.179 0 1.64 0.46 0.461 1.2 0.46 1.64 0 0.461-0.461 4.333-5.875 4.61-6.25-0.375 0.277-5.789 4.149-6.249 4.61z"></path>
<path fill="#444444" d="M2.111 23.443c-0.323 0.313-0.323 0.836 0 1.149 0.313 0.334 0.836 0.334 1.16 0 0.313-0.313 3.062-4.145 3.25-4.399-0.265 0.188-4.097 2.916-4.41 3.25z"></path>
<path fill="#444444" d="M22.451 27.654c0.312 0.334 0.836 0.312 1.149 0 0.334-0.313 3.062-4.145 3.25-4.399-0.254 0.188-4.086 2.916-4.399 3.25-0.334 0.313-0.334 0.836 0 1.149z"></path>
</svg>
