<?xml version="1.0" encoding="utf-8"?>
<!-- Generated by IcoMoon.io -->
<!DOCTYPE svg PUBLIC "-//W3C//DTD SVG 1.1//EN" "http://www.w3.org/Graphics/SVG/1.1/DTD/svg11.dtd">
<svg version="1.1" xmlns="http://www.w3.org/2000/svg" xmlns:xlink="http://www.w3.org/1999/xlink" width="32" height="32" viewBox="0 0 32 32">
<path fill="#444444" d="M11.953 26.226c-0.053-0.084-0.171-0.116-0.263-0.066l-0.508 0.268 0.069-0.239c0.027-0.092-0.033-0.19-0.136-0.215s-0.208 0.031-0.236 0.125l-0.17 0.576-0.329 0.175 0.245-0.837c0.028-0.095-0.033-0.192-0.136-0.218s-0.209 0.033-0.236 0.125l-0.344 1.177-0.69 0.364v-0.729l0.943-0.862c0.076-0.067 0.074-0.181-0.001-0.248-0.075-0.069-0.196-0.069-0.272 0l-0.67 0.612v-0.346l0.46-0.422c0.077-0.070 0.075-0.181-0.001-0.25-0.075-0.067-0.195-0.067-0.27 0l-0.188 0.174v-0.535c0-0.096-0.19-0.174-0.296-0.174s-0.297 0.078-0.297 0.174v0.535l-0.089-0.174c-0.075-0.067-0.148-0.067-0.224 0-0.073 0.069-0.149 0.18-0.073 0.25l0.387 0.422v0.346l-0.572-0.612c-0.074-0.069-0.148-0.069-0.223 0-0.074 0.067-0.15 0.181-0.074 0.248l0.869 0.862v0.729l-0.591-0.364-0.297-1.177c-0.027-0.092-0.108-0.15-0.211-0.125s-0.153 0.122-0.124 0.218l0.253 0.837-0.327-0.175-0.168-0.576c-0.027-0.095-0.133-0.151-0.236-0.125s-0.164 0.123-0.135 0.215l0.068 0.239-0.506-0.268c-0.092-0.049-0.21-0.018-0.264 0.066s-0.022 0.19 0.070 0.24l0.507 0.266-0.259 0.065c-0.103 0.025-0.164 0.12-0.137 0.214 0.022 0.079 0.1 0.131 0.186 0.131 0.016 0 0.035-0.002 0.050-0.005l0.633-0.155 0.33 0.172-0.92 0.225c-0.102 0.025-0.163 0.123-0.135 0.215 0.024 0.079 0.1 0.131 0.186 0.131 0.016 0 0.034-0.002 0.051-0.006l1.292-0.316 0.692 0.364-0.692 0.365-1.292-0.316c-0.104-0.025-0.21 0.030-0.237 0.125-0.028 0.092 0.032 0.189 0.135 0.214l0.92 0.223-0.33 0.174-0.633-0.154c-0.102-0.026-0.208 0.030-0.236 0.125-0.027 0.094 0.033 0.19 0.137 0.215l0.259 0.065-0.507 0.266c-0.092 0.049-0.124 0.157-0.070 0.24 0.036 0.056 0.101 0.088 0.168 0.088 0.032 0 0.066-0.007 0.096-0.021l0.506-0.268-0.068 0.236c-0.029 0.095 0.033 0.192 0.136 0.217 0.016 0.004 0.033 0.006 0.050 0.006 0.084 0 0.162-0.052 0.186-0.131l0.169-0.576 0.329-0.175-0.245 0.838c-0.028 0.095 0.033 0.193 0.136 0.215 0.016 0.006 0.034 0.008 0.050 0.008 0.085 0 0.163-0.052 0.186-0.13l0.246-1.178 0.591-0.364v0.729l-0.844 0.862c-0.075 0.067-0.025 0.178 0.049 0.248 0.038 0.033 0.112 0.051 0.163 0.051s0.012-0.018 0.048-0.051l0.585-0.612v0.346l-0.363 0.422c-0.073 0.070-0.023 0.18 0.050 0.251 0.038 0.033 0.113 0.051 0.163 0.051s0.012-0.018 0.050-0.051l0.1-0.175v0.533c0 0.098 0.19 0.177 0.297 0.177s0.296-0.079 0.296-0.177v-0.533l0.186 0.175c0.038 0.033 0.088 0.051 0.136 0.051 0.049 0 0.099-0.018 0.136-0.051 0.076-0.070 0.078-0.181 0.002-0.251l-0.46-0.422v-0.346l0.669 0.612c0.038 0.033 0.087 0.051 0.135 0.051 0.050 0 0.099-0.018 0.137-0.051 0.076-0.070 0.077-0.181 0.001-0.248l-0.943-0.862v-0.729l0.69 0.364 0.344 1.178c0.024 0.078 0.101 0.13 0.186 0.13 0.016 0 0.034-0.002 0.050-0.008 0.103-0.023 0.165-0.12 0.136-0.215l-0.246-0.838 0.329 0.175 0.171 0.577c0.023 0.079 0.101 0.13 0.185 0.13 0.016 0 0.034-0.002 0.051-0.006 0.103-0.025 0.163-0.123 0.136-0.217l-0.069-0.236 0.508 0.268c0.030 0.014 0.064 0.021 0.096 0.021 0.066 0 0.132-0.031 0.167-0.088 0.053-0.083 0.023-0.19-0.069-0.24l-0.508-0.266 0.261-0.065c0.103-0.025 0.163-0.121 0.136-0.215-0.028-0.095-0.133-0.151-0.236-0.125l-0.633 0.154-0.33-0.174 0.92-0.223c0.104-0.025 0.164-0.122 0.136-0.214-0.028-0.095-0.133-0.151-0.236-0.125l-1.293 0.316-0.692-0.365 0.692-0.364 1.293 0.316c0.016 0.003 0.034 0.006 0.050 0.006 0.085 0 0.164-0.052 0.186-0.131 0.027-0.092-0.033-0.19-0.136-0.215l-0.92-0.225 0.33-0.172 0.633 0.155c0.016 0.004 0.033 0.005 0.050 0.005 0.086 0 0.164-0.052 0.186-0.131 0.027-0.094-0.033-0.189-0.136-0.214l-0.261-0.065 0.508-0.266c0.092-0.049 0.122-0.156 0.069-0.239z"></path>
<path fill="#444444" d="M26.856 27.248c-0.052-0.083-0.169-0.113-0.263-0.063l-0.505 0.266 0.068-0.236c0.027-0.095-0.033-0.192-0.136-0.217-0.103-0.026-0.209 0.032-0.237 0.125l-0.168 0.576-0.331 0.175 0.244-0.838c0.030-0.096-0.032-0.19-0.136-0.214-0.103-0.026-0.209 0.030-0.236 0.122l-0.402 1.178-0.75 0.364v-0.725l1.002-0.865c0.075-0.066 0.104-0.178 0.031-0.247-0.076-0.070-0.243-0.070-0.319 0l-0.713 0.612v-0.347l0.519-0.421c0.077-0.070 0.104-0.181 0.028-0.25-0.075-0.068-0.239-0.068-0.315 0l-0.233 0.174v-0.533c0-0.097-0.189-0.177-0.295-0.177s-0.298 0.079-0.298 0.177v0.533l-0.030-0.174c-0.076-0.068-0.117-0.068-0.193 0-0.075 0.070-0.196 0.181-0.12 0.25l0.343 0.421v0.347l-0.511-0.612c-0.076-0.070-0.12-0.070-0.196 0-0.075 0.069-0.192 0.181-0.118 0.247l0.825 0.865v0.725l-0.531-0.364-0.266-1.178c-0.028-0.092-0.095-0.148-0.197-0.122-0.104 0.024-0.143 0.119-0.116 0.214l0.256 0.838-0.327-0.175-0.165-0.576c-0.027-0.093-0.132-0.152-0.235-0.125-0.103 0.025-0.165 0.122-0.138 0.217l0.070 0.236-0.506-0.266c-0.093-0.049-0.21-0.020-0.263 0.063s-0.022 0.191 0.069 0.24l0.51 0.266-0.26 0.065c-0.103 0.025-0.167 0.122-0.137 0.215 0.021 0.078 0.099 0.131 0.186 0.131 0.015 0 0.033-0.002 0.050-0.005l0.632-0.156 0.331 0.176-0.922 0.222c-0.103 0.025-0.164 0.123-0.135 0.217 0.023 0.080 0.101 0.132 0.186 0.132 0.017 0 0.032-0.005 0.050-0.008l1.294-0.316 0.691 0.364-0.691 0.364-1.294-0.315c-0.103-0.026-0.209 0.030-0.236 0.125-0.029 0.092 0.032 0.19 0.135 0.215l0.922 0.226-0.331 0.172-0.632-0.155c-0.103-0.026-0.209 0.032-0.236 0.124-0.030 0.095 0.033 0.19 0.137 0.215l0.26 0.065-0.51 0.266c-0.090 0.049-0.121 0.157-0.069 0.24 0.035 0.056 0.099 0.090 0.166 0.090 0.032 0 0.068-0.009 0.097-0.024l0.506-0.266-0.070 0.236c-0.027 0.092 0.036 0.189 0.139 0.214 0.015 0.004 0.032 0.006 0.051 0.006 0.084 0 0.162-0.052 0.185-0.132l0.168-0.576 0.331-0.174-0.248 0.837c-0.028 0.095 0.036 0.192 0.139 0.218 0.014 0.004 0.032 0.005 0.050 0.005 0.084 0 0.162-0.052 0.186-0.131l0.187-1.177 0.531-0.365v0.729l-0.786 0.862c-0.076 0.067 0.004 0.181 0.079 0.247 0.040 0.036 0.128 0.052 0.178 0.052s-0.042-0.016-0.003-0.052l0.532-0.612v0.345l-0.302 0.422c-0.076 0.070 0.004 0.181 0.079 0.25 0.036 0.034 0.128 0.051 0.177 0.051 0.047 0-0.042-0.017-0.005-0.051l0.050-0.174v0.535c0 0.096 0.192 0.174 0.298 0.174s0.295-0.079 0.295-0.174v-0.535l0.245 0.174c0.039 0.034 0.118 0.051 0.166 0.051 0.050 0 0.113-0.017 0.152-0.051 0.073-0.070 0.025-0.181-0.051-0.25l-0.513-0.421v-0.346l0.729 0.612c0.037 0.036 0.114 0.052 0.163 0.052 0.051 0 0.116-0.016 0.152-0.052 0.076-0.067 0.025-0.181-0.050-0.247l-0.995-0.862v-0.729l0.75 0.365 0.373 1.177c0.024 0.079 0.115 0.131 0.202 0.131 0.014 0 0.039-0.001 0.056-0.005 0.103-0.025 0.166-0.123 0.139-0.218l-0.243-0.838 0.332 0.175 0.169 0.577c0.023 0.078 0.101 0.131 0.185 0.131 0.017 0 0.036-0.002 0.052-0.006 0.103-0.025 0.163-0.123 0.136-0.214l-0.068-0.236 0.505 0.266c0.030 0.015 0.065 0.024 0.097 0.024 0.066 0 0.132-0.034 0.166-0.090 0.054-0.083 0.023-0.191-0.067-0.24l-0.509-0.266 0.259-0.065c0.104-0.025 0.163-0.12 0.136-0.215-0.028-0.092-0.134-0.15-0.236-0.124l-0.633 0.155-0.33-0.172 0.921-0.226c0.103-0.025 0.163-0.123 0.136-0.215-0.027-0.096-0.132-0.151-0.236-0.125l-1.294 0.315-0.69-0.364 0.69-0.364 1.294 0.316c0.015 0.003 0.032 0.008 0.050 0.008 0.084 0 0.163-0.052 0.186-0.132 0.027-0.094-0.032-0.192-0.136-0.217l-0.921-0.222 0.33-0.176 0.633 0.156c0.017 0.003 0.035 0.005 0.049 0.005 0.085 0 0.163-0.052 0.187-0.131 0.027-0.092-0.033-0.189-0.136-0.215l-0.259-0.065 0.509-0.266c0.091-0.049 0.122-0.157 0.068-0.24z"></path>
<path fill="#444444" d="M18.783 25.050c-0.033-0.054-0.109-0.073-0.17-0.043l-0.321 0.172 0.045-0.152c0.015-0.058-0.022-0.122-0.088-0.136-0.065-0.017-0.134 0.017-0.149 0.079l-0.111 0.367-0.21 0.11 0.156-0.532c0.019-0.061-0.019-0.121-0.085-0.139-0.064-0.014-0.133 0.021-0.151 0.079l-0.286 0.751-0.505 0.232v-0.464l0.67-0.549c0.044-0.045 0.079-0.114 0.032-0.158-0.049-0.044-0.177-0.044-0.225 0l-0.476 0.39v-0.219l0.36-0.271c0.049-0.042 0.081-0.114 0.032-0.158s-0.176-0.045-0.221 0l-0.172 0.109v-0.339c0-0.061 0.070-0.112 0-0.112-0.069 0 0 0.050 0 0.112v0.339l-0.179-0.109c-0.048-0.045-0.155-0.045-0.203 0-0.045 0.044-0.004 0.116 0.044 0.158l0.338 0.271v0.219l-0.487-0.39c-0.045-0.044-0.154-0.044-0.2 0-0.048 0.044-0.007 0.114 0.042 0.158l0.645 0.549v0.464l-0.497-0.232-0.25-0.751c-0.018-0.058-0.099-0.093-0.164-0.079-0.065 0.018-0.111 0.078-0.094 0.139l0.153 0.532-0.213-0.11-0.108-0.367c-0.017-0.062-0.085-0.096-0.152-0.079-0.065 0.014-0.103 0.078-0.085 0.136l0.043 0.152-0.321-0.172c-0.060-0.030-0.135-0.011-0.168 0.043-0.035 0.054-0.013 0.12 0.045 0.154l0.323 0.168-0.166 0.042c-0.065 0.014-0.103 0.077-0.088 0.135 0.016 0.051 0.065 0.082 0.121 0.082 0.009 0 0.020-0 0.031-0.003l0.403-0.1 0.211 0.11-0.586 0.144c-0.065 0.014-0.104 0.077-0.085 0.136 0.014 0.051 0.062 0.084 0.118 0.084 0.010 0 0.020-0.001 0.031-0.003l0.822-0.202 0.441 0.231-0.441 0.232-0.822-0.2c-0.066-0.017-0.132 0.018-0.149 0.080-0.019 0.058 0.020 0.118 0.085 0.137l0.586 0.141-0.211 0.113-0.403-0.099c-0.065-0.018-0.132 0.017-0.152 0.079-0.016 0.059 0.023 0.12 0.088 0.137l0.166 0.041-0.323 0.169c-0.058 0.030-0.079 0.1-0.045 0.153 0.022 0.035 0.064 0.056 0.106 0.056 0.020 0 0.042-0.004 0.062-0.013l0.321-0.171-0.044 0.152c-0.019 0.059 0.021 0.119 0.086 0.136 0.011 0.002 0.021 0.004 0.032 0.004 0.054 0 0.104-0.033 0.119-0.083l0.107-0.367 0.21-0.109-0.157 0.531c-0.017 0.059 0.022 0.123 0.087 0.137 0.011 0.005 0.022 0.006 0.032 0.006 0.055 0 0.104-0.035 0.12-0.086l0.277-0.748 0.497-0.232v0.464l-0.658 0.548c-0.048 0.042-0.076 0.114-0.029 0.158 0.024 0.019 0.039 0.032 0.071 0.032 0.033 0 0.115-0.013 0.139-0.032l0.477-0.39v0.22l-0.35 0.268c-0.049 0.044-0.077 0.117-0.032 0.158 0.025 0.023 0.042 0.035 0.073 0.035s0.115-0.012 0.137-0.035l0.172-0.109v0.34c0 0.063-0.069 0.113 0 0.113 0.070 0 0-0.050 0-0.113v-0.34l0.186 0.109c0.024 0.023 0.091 0.035 0.122 0.035s0.078-0.012 0.102-0.035c0.048-0.041-0.011-0.113-0.060-0.158l-0.351-0.268v-0.22l0.494 0.39c0.025 0.019 0.087 0.032 0.118 0.032 0.033 0 0.082-0.013 0.104-0.032 0.048-0.044-0.009-0.116-0.057-0.158l-0.659-0.548v-0.464l0.505 0.232 0.253 0.748c0.016 0.051 0.080 0.086 0.135 0.086 0.012 0 0.029-0.001 0.041-0.006 0.064-0.015 0.108-0.078 0.089-0.137l-0.155-0.532 0.211 0.11 0.111 0.367c0.013 0.051 0.063 0.083 0.116 0.083 0.012 0 0.022-0.002 0.033-0.004 0.066-0.017 0.103-0.077 0.088-0.136l-0.045-0.152 0.321 0.171c0.020 0.009 0.042 0.013 0.064 0.013 0.041 0 0.083-0.021 0.106-0.056 0.033-0.054 0.012-0.123-0.045-0.153l-0.322-0.169 0.164-0.041c0.067-0.017 0.104-0.077 0.086-0.137-0.015-0.062-0.084-0.096-0.148-0.079l-0.404 0.099-0.21-0.113 0.587-0.141c0.064-0.018 0.105-0.078 0.087-0.137-0.019-0.062-0.084-0.097-0.152-0.080l-0.82 0.2-0.441-0.232 0.441-0.231 0.82 0.202c0.012 0.002 0.023 0.003 0.032 0.003 0.054 0 0.104-0.032 0.12-0.083 0.018-0.059-0.023-0.122-0.087-0.137l-0.587-0.144 0.21-0.11 0.404 0.1c0.010 0.002 0.019 0.003 0.031 0.003 0.054 0 0.105-0.031 0.117-0.082 0.018-0.058-0.019-0.121-0.086-0.135l-0.164-0.042 0.322-0.168c0.058-0.033 0.079-0.1 0.046-0.153z"></path>
<path fill="#444444" d="M18.475 4.103c0.243 0.045 0.478-0.116 0.524-0.36l0.573-3.086c0.047-0.244-0.114-0.478-0.359-0.523-0.243-0.046-0.477 0.116-0.523 0.358l-0.574 3.087c-0.043 0.244 0.117 0.477 0.36 0.523z"></path>
<path fill="#444444" d="M24.766 11.518c-0.891 0-1.721 0.26-2.424 0.702-0.153-0.396-0.363-0.762-0.612-1.097 0.002-0.010 0.005-0.018 0.006-0.028 0.451-2.436-1.154-4.777-3.591-5.23-1.908-0.354-3.744 0.567-4.671 2.151-0.641-0.252-1.338-0.396-2.068-0.396-2.818 0-5.152 2.058-5.592 4.753-1.858 0.578-3.205 2.31-3.205 4.357 0 2.521 2.044 4.562 4.563 4.562 0.332 0 0.656-0.039 0.967-0.105 0.665 1.697 2.312 2.902 4.245 2.902 1.59 0 2.987-0.814 3.803-2.046 0.875 0.691 1.976 1.108 3.177 1.108 1.914 0 3.58-1.053 4.459-2.611 0.306 0.063 0.621 0.1 0.944 0.1 2.521 0 4.563-2.042 4.563-4.563s-2.042-4.562-4.563-4.562zM24.766 19.457c-0.231 0-0.467-0.022-0.701-0.071l-0.847-0.179-0.424 0.755c-0.699 1.238-2.015 2.009-3.43 2.009-0.892 0-1.735-0.297-2.438-0.854l-1.011-0.801-0.713 1.076c-0.629 0.948-1.682 1.516-2.817 1.516-1.398 0-2.634-0.846-3.144-2.152l-0.368-0.94-0.985 0.215c-0.238 0.052-0.478 0.078-0.716 0.078-1.863 0-3.379-1.515-3.379-3.377 0-1.488 0.953-2.786 2.373-3.227l0.697-0.218 0.118-0.72c0.356-2.18 2.218-3.763 4.425-3.763 1.403 0 2.701 0.643 3.562 1.762l0.616 0.804 0.888-0.485c0.493-0.27 1.053-0.412 1.616-0.412 1.386 0 2.654 0.873 3.152 2.171l0.517 1.344 1.217-0.768c0.541-0.34 1.162-0.52 1.794-0.52 1.865 0 3.381 1.516 3.381 3.379-0 1.861-1.516 3.377-3.381 3.377z"></path>
<path fill="#444444" d="M14.663 4.081c0.082 0.233 0.339 0.357 0.573 0.274 0.233-0.082 0.355-0.339 0.273-0.573l-1.047-2.958c-0.083-0.234-0.34-0.357-0.572-0.273-0.233 0.082-0.357 0.338-0.273 0.571l1.047 2.96z"></path>
<path fill="#444444" d="M11.922 6.244c0.189 0.161 0.472 0.139 0.633-0.050s0.139-0.471-0.051-0.632l-2.384-2.042c-0.19-0.16-0.47-0.138-0.633 0.050-0.16 0.189-0.138 0.472 0.049 0.633l2.386 2.040z"></path>
<path fill="#444444" d="M23.248 8.184c0.082 0.233 0.338 0.355 0.573 0.273l2.957-1.047c0.235-0.082 0.357-0.34 0.274-0.571-0.081-0.234-0.338-0.357-0.571-0.274l-2.961 1.046c-0.234 0.083-0.354 0.34-0.272 0.573z"></path>
<path fill="#444444" d="M22.041 5.453l2.040-2.384c0.161-0.19 0.138-0.473-0.051-0.633-0.186-0.161-0.47-0.139-0.631 0.048l-2.039 2.386c-0.163 0.189-0.14 0.472 0.047 0.632 0.191 0.161 0.472 0.139 0.634-0.050z"></path>
</svg>
