<?xml version="1.0" encoding="utf-8"?>
<!-- Generated by IcoMoon.io -->
<!DOCTYPE svg PUBLIC "-//W3C//DTD SVG 1.1//EN" "http://www.w3.org/Graphics/SVG/1.1/DTD/svg11.dtd">
<svg version="1.1" xmlns="http://www.w3.org/2000/svg" xmlns:xlink="http://www.w3.org/1999/xlink" width="32" height="32" viewBox="0 0 32 32">
<path fill="#444444" d="M13.654 6.489c0.078 0.37 0.444 0.607 0.813 0.529 0.37-0.078 0.608-0.442 0.53-0.812l-0.993-4.695c-0.078-0.37-0.444-0.607-0.814-0.529-0.368 0.078-0.607 0.442-0.529 0.812l0.993 4.695z"></path>
<path fill="#444444" d="M9.069 9.218c0.253 0.281 0.687 0.303 0.97 0.051 0.28-0.253 0.304-0.687 0.049-0.967l-3.208-3.57c-0.252-0.282-0.685-0.304-0.967-0.052-0.281 0.254-0.304 0.688-0.051 0.968l3.207 3.57z"></path>
<path fill="#444444" d="M1.9 12.386l4.561 1.487c0.362 0.117 0.749-0.079 0.867-0.44 0.118-0.358-0.080-0.746-0.442-0.862l-4.561-1.489c-0.36-0.117-0.747 0.080-0.865 0.438-0.117 0.362 0.080 0.749 0.439 0.866z"></path>
<path fill="#444444" d="M31.008 20.434l-4.566-1.487c-0.361-0.117-0.747 0.079-0.866 0.438-0.116 0.36 0.080 0.747 0.442 0.866l4.561 1.486c0.36 0.117 0.749-0.078 0.864-0.44 0.12-0.359-0.077-0.746-0.436-0.863z"></path>
<path fill="#444444" d="M31.881 13.148c-0.078-0.37-0.444-0.607-0.812-0.529l-4.695 0.991c-0.372 0.078-0.607 0.444-0.53 0.815 0.079 0.369 0.444 0.606 0.813 0.528l4.692-0.992c0.372-0.078 0.61-0.443 0.532-0.812z"></path>
<path fill="#444444" d="M28.182 5.871c-0.252-0.282-0.687-0.305-0.969-0.052l-3.567 3.205c-0.282 0.255-0.305 0.688-0.052 0.971 0.253 0.28 0.684 0.305 0.968 0.050l3.568-3.206c0.284-0.253 0.307-0.688 0.053-0.968z"></path>
<path fill="#444444" d="M19.428 7.285c0.36 0.115 0.748-0.081 0.866-0.442l1.486-4.56c0.119-0.361-0.080-0.749-0.44-0.864-0.357-0.119-0.746 0.078-0.862 0.438l-1.487 4.561c-0.115 0.361 0.079 0.749 0.438 0.867z"></path>
<path fill="#444444" d="M21.642 20.846c1.334-1.564 1.976-3.688 1.518-5.854-0.784-3.706-4.422-6.074-8.125-5.29-3.452 0.73-5.71 3.942-5.372 7.373-0.614-0.277-1.286-0.45-2.003-0.45-2.44 0-4.459 1.782-4.841 4.115-1.606 0.5-2.774 2-2.774 3.771 0 2.181 1.768 3.949 3.949 3.949 0.288 0 0.567-0.033 0.837-0.091 0.575 1.47 2.002 2.512 3.676 2.512 1.377 0 2.587-0.704 3.293-1.77 0.756 0.598 1.709 0.959 2.748 0.959 1.658 0 3.1-0.912 3.86-2.261 0.265 0.055 0.536 0.086 0.818 0.086 2.18 0 3.947-1.769 3.947-3.948 0-1.266-0.605-2.38-1.532-3.103zM19.227 26.932c-0.205 0-0.413-0.020-0.62-0.064l-0.691-0.146-0.347 0.615c-0.616 1.092-1.774 1.77-3.021 1.77-0.787 0-1.53-0.259-2.149-0.75l-0.823-0.653-0.578 0.876c-0.558 0.838-1.489 1.339-2.491 1.339-1.236 0-2.325-0.747-2.778-1.9l-0.299-0.764-0.803 0.175c-0.212 0.046-0.425 0.070-0.634 0.070-1.646 0-2.986-1.342-2.986-2.987 0-1.315 0.843-2.46 2.098-2.85l0.568-0.178 0.096-0.589c0.315-1.913 1.951-3.306 3.891-3.306 0.821 0 1.588 0.27 2.241 0.728 0.328 0.23 0.636 0.491 0.89 0.822l0.502 0.654 0.724-0.395c0.434-0.237 0.928-0.362 1.427-0.362 1.224 0 2.343 0.77 2.784 1.917l0.421 1.094 0.993-0.625c0.478-0.3 1.026-0.46 1.585-0.46 0.649 0 1.246 0.214 1.738 0.569 0.752 0.542 1.247 1.42 1.247 2.418 0 1.644-1.34 2.983-2.984 2.983z"></path>
</svg>
