<?xml version="1.0" encoding="utf-8"?>
<!-- Generated by IcoMoon.io -->
<!DOCTYPE svg PUBLIC "-//W3C//DTD SVG 1.1//EN" "http://www.w3.org/Graphics/SVG/1.1/DTD/svg11.dtd">
<svg version="1.1" xmlns="http://www.w3.org/2000/svg" xmlns:xlink="http://www.w3.org/1999/xlink" width="32" height="32" viewBox="0 0 32 32">
<path fill="#444444" d="M19.111 6.192c0.278 0.052 0.547-0.132 0.598-0.41l0.654-3.523c0.052-0.278-0.132-0.546-0.41-0.597s-0.545 0.132-0.597 0.41l-0.656 3.523c-0.051 0.278 0.132 0.545 0.41 0.596z"></path>
<path fill="#444444" d="M14.76 6.168c0.093 0.266 0.386 0.407 0.654 0.312 0.266-0.095 0.406-0.387 0.311-0.654l-1.194-3.378c-0.096-0.266-0.388-0.406-0.654-0.312s-0.406 0.386-0.312 0.652l1.195 3.379z"></path>
<path fill="#444444" d="M11.631 8.637c0.216 0.184 0.539 0.158 0.724-0.056 0.183-0.215 0.158-0.538-0.058-0.722l-2.722-2.329c-0.216-0.184-0.537-0.158-0.722 0.057-0.184 0.215-0.159 0.539 0.055 0.721l2.724 2.329z"></path>
<path fill="#444444" d="M24.559 10.85c0.094 0.266 0.385 0.406 0.654 0.311l3.376-1.194c0.269-0.094 0.407-0.388 0.312-0.653-0.093-0.267-0.386-0.407-0.651-0.313l-3.379 1.194c-0.267 0.095-0.406 0.388-0.312 0.654z"></path>
<path fill="#444444" d="M23.181 7.734l2.328-2.722c0.184-0.216 0.158-0.539-0.057-0.722-0.213-0.184-0.536-0.159-0.721 0.055l-2.328 2.724c-0.183 0.217-0.158 0.539 0.056 0.723 0.216 0.183 0.538 0.158 0.722-0.057z"></path>
<path fill="#444444" d="M26.333 14.317c-0.684 0-1.33 0.14-1.931 0.375-0.318 0.125-0.628 0.268-0.915 0.45-0.16-0.417-0.373-0.806-0.627-1.165 0.397-2.708-1.41-5.268-4.124-5.772-2.080-0.387-4.083 0.557-5.182 2.218-0.398-0.194-0.816-0.354-1.253-0.466-0.529-0.136-1.081-0.213-1.651-0.213-3.307 0-6.045 2.417-6.565 5.58-2.178 0.678-3.76 2.711-3.76 5.113 0 2.957 2.396 5.354 5.355 5.354 0.391 0 0.768-0.044 1.136-0.124 0.778 1.993 2.714 3.406 4.983 3.406 1.865 0 3.506-0.955 4.464-2.401 1.025 0.812 2.318 1.302 3.727 1.302 2.247 0 4.204-1.237 5.234-3.065 0.358 0.075 0.728 0.116 1.109 0.116 2.957 0 5.353-2.397 5.353-5.353-0-2.958-2.396-5.356-5.353-5.356zM26.333 23.72c-0.278 0-0.56-0.030-0.841-0.088l-0.937-0.197-0.47 0.834c-0.836 1.48-2.404 2.399-4.096 2.399-1.065 0-2.073-0.352-2.915-1.018l-1.115-0.885-0.785 1.187c-0.754 1.137-2.017 1.816-3.375 1.816-1.676 0-3.153-1.011-3.765-2.575l-0.406-1.037-1.089 0.236c-0.288 0.063-0.575 0.094-0.858 0.094-2.232 0-4.049-1.816-4.049-4.048 0-1.782 1.143-3.335 2.843-3.865l0.771-0.24 0.129-0.797c0.425-2.597 2.644-4.484 5.276-4.484 0.412 0 0.814 0.048 1.204 0.138 1.197 0.275 2.267 0.956 3.041 1.963l0.679 0.886 0.984-0.536c0.587-0.321 1.257-0.491 1.933-0.491 1.35 0 2.596 0.697 3.34 1.791 0.042 0.090 0.091 0.175 0.127 0.268 0.013-0.008 0.027-0.014 0.041-0.022 0.103 0.179 0.193 0.366 0.269 0.562l0.569 1.484 1.346-0.847c0.648-0.408 1.391-0.624 2.15-0.624 2.23 0 4.047 1.816 4.047 4.049-0 2.231-1.817 4.046-4.047 4.046z"></path>
</svg>
