<?xml version="1.0" encoding="utf-8"?>
<!-- Generated by IcoMoon.io -->
<!DOCTYPE svg PUBLIC "-//W3C//DTD SVG 1.1//EN" "http://www.w3.org/Graphics/SVG/1.1/DTD/svg11.dtd">
<svg version="1.1" xmlns="http://www.w3.org/2000/svg" xmlns:xlink="http://www.w3.org/1999/xlink" width="32" height="32" viewBox="0 0 32 32">
<path fill="#444444" d="M29.241 13.552c-0.929 1.127-2.122 1.961-3.446 2.453-0.484-1.821-2.129-3.165-4.093-3.165-0.546 0-1.052 0.113-1.535 0.295-0.246 0.1-0.497 0.215-0.727 0.359-0.602-1.591-2.143-2.72-3.951-2.72-0.065 0-0.134 0.006-0.204 0.008-0.224-0.739-0.351-1.527-0.351-2.344 0-2.931 1.598-5.633 4.155-7.055l2.472-1.369-2.804 0.315c-4.836 0.534-8.607 4.228-9.377 8.896-0.031-0.006-0.062-0.007-0.099-0.007-2.617 0-4.783 1.913-5.193 4.42-1.724 0.533-2.978 2.147-2.978 4.042 0 2.34 1.897 4.238 4.238 4.238 0.308 0 0.61-0.033 0.901-0.094 0.616 1.578 2.148 2.693 3.945 2.693 1.476 0 2.775-0.757 3.534-1.9 0.808 0.643 1.831 1.038 2.951 1.038 1.585 0 2.988-0.784 3.856-1.982 4.449-0.252 8.386-3.298 9.679-7.603l0.817-2.707-1.79 2.188zM16.357 2.088c-1.615 1.69-2.551 3.955-2.551 6.352 0 0.883 0.13 1.741 0.364 2.555-0.245 0.078-0.481 0.175-0.703 0.295-0.711-0.921-1.717-1.604-2.875-1.9-0.029-0.010-0.058-0.013-0.088-0.023 0.556-3.294 2.791-6.043 5.852-7.279zM16.68 22.615c-0.844 0-1.645-0.273-2.313-0.8l-0.88-0.701-0.619 0.938c-0.598 0.902-1.6 1.435-2.672 1.435-1.328 0-2.497-0.796-2.981-2.041l-0.321-0.82-0.862 0.183c-0.23 0.053-0.46 0.079-0.682 0.079-1.767 0-3.203-1.435-3.203-3.208 0-1.408 0.905-2.636 2.25-3.057l0.612-0.19 0.102-0.63c0.336-2.048 2.079-3.537 4.153-3.549 0.005 0 0.014-0.001 0.019-0.001 0.329 0 0.649 0.040 0.957 0.112 0.048 0.008 0.1 0.028 0.148 0.037 0.888 0.242 1.678 0.759 2.255 1.515l0.538 0.701 0.782-0.424c0.169-0.098 0.356-0.17 0.546-0.23 0.318-0.102 0.645-0.16 0.98-0.16 0.070 0 0.133 0.012 0.201 0.015 1.232 0.082 2.339 0.875 2.784 2.043l0.457 1.177 0.385-0.245 0.676-0.425c0.518-0.322 1.105-0.495 1.71-0.495 1.494 0 2.751 1.035 3.101 2.424 0.061 0.244 0.096 0.506 0.096 0.783 0 0.12-0.005 0.238-0.024 0.355-0.177 1.602-1.531 2.841-3.173 2.841-0.225 0-0.452-0.025-0.668-0.065l-0.748-0.152-0.277 0.502-0.088 0.152c-0.204 0.368-0.468 0.674-0.777 0.941-0.673 0.605-1.548 0.958-2.466 0.958zM25.62 18.695c0.189-0.473 0.302-0.996 0.308-1.545 0.745-0.242 1.448-0.583 2.096-1.008-0.643 1-1.463 1.857-2.404 2.553z"></path>
<path fill="#444444" d="M21.089 6.31l-1.186-2.003-0.216 2.312-2.272 0.506 2.141 0.993-0.207 2.38 1.542-1.751 2.129 0.908-1.191-2.035 1.522-1.811z"></path>
<path fill="#444444" d="M25.823 10.168l0.512 1.060 0.223-1.181 1.181-0.192-1.035-0.556 0.207-1.166-0.85 0.819-1.046-0.556 0.498 1.093-0.86 0.849z"></path>
<path fill="#444444" d="M9.381 26.325c-0.055-0.085-0.172-0.114-0.262-0.062l-0.502 0.264 0.065-0.235c0.028-0.091-0.032-0.195-0.134-0.211-0.103-0.027-0.206 0.030-0.234 0.121l-0.171 0.567-0.325 0.173 0.246-0.827c0.028-0.091-0.037-0.195-0.14-0.221-0.102-0.016-0.207 0.041-0.235 0.132l-0.34 1.17-0.686 0.358v-0.726l0.937-0.854c0.074-0.065 0.073-0.178-0.001-0.243-0.074-0.075-0.193-0.075-0.267 0l-0.669 0.601v-0.336l0.456-0.427c0.080-0.065 0.074-0.178-0.001-0.243-0.074-0.075-0.192-0.075-0.267 0l-0.188 0.173v-0.529c0-0.104-0.189-0.175-0.293-0.175s-0.294 0.071-0.294 0.175v0.529l-0.088-0.173c-0.075-0.075-0.147-0.075-0.227 0-0.074 0.064-0.148 0.178-0.074 0.243l0.388 0.427v0.336l-0.569-0.601c-0.074-0.075-0.147-0.075-0.221 0-0.074 0.065-0.153 0.177-0.074 0.243l0.864 0.854v0.726l-0.587-0.358-0.299-1.17c-0.023-0.091-0.106-0.148-0.208-0.132-0.103 0.026-0.149 0.13-0.121 0.221l0.25 0.827-0.324-0.173-0.17-0.567c-0.028-0.091-0.132-0.148-0.234-0.121-0.102 0.016-0.162 0.12-0.134 0.211l0.070 0.235-0.506-0.264c-0.090-0.052-0.207-0.023-0.263 0.062-0.050 0.085-0.019 0.196 0.071 0.237l0.501 0.264-0.255 0.061c-0.103 0.026-0.163 0.13-0.14 0.221 0.025 0.071 0.101 0.126 0.187 0.126 0.016 0 0.032-0.002 0.052-0.004l0.629-0.151 0.325 0.174-0.916 0.217c-0.097 0.027-0.162 0.12-0.133 0.221 0.025 0.071 0.101 0.125 0.187 0.125 0.015 0 0.032-0.002 0.048-0.004l1.285-0.316 0.687 0.368-0.687 0.358-1.285-0.317c-0.103-0.026-0.207 0.030-0.235 0.122-0.029 0.102 0.037 0.194 0.133 0.221l0.916 0.217-0.325 0.173-0.629-0.151c-0.101-0.027-0.211 0.029-0.24 0.121-0.023 0.091 0.037 0.195 0.14 0.221l0.255 0.062-0.501 0.264c-0.090 0.052-0.121 0.152-0.071 0.237 0.038 0.057 0.101 0.088 0.17 0.088 0.032 0 0.063-0.005 0.093-0.025l0.506-0.264-0.070 0.234c-0.028 0.092 0.032 0.195 0.134 0.221 0.016 0.003 0.032 0.004 0.053 0.004 0.080 0 0.161-0.054 0.182-0.136l0.171-0.567 0.325-0.174-0.246 0.828c-0.023 0.102 0.037 0.195 0.14 0.221 0.016 0.003 0.032 0.004 0.048 0.004 0.086 0 0.162-0.054 0.187-0.136l0.246-1.17 0.587-0.358v0.727l-0.843 0.854c-0.074 0.065-0.021 0.178 0.053 0.253 0.035 0.032 0.108 0.044 0.161 0.044 0.047 0 0.007-0.011 0.047-0.044l0.583-0.611v0.336l-0.363 0.427c-0.074 0.064-0.026 0.178 0.048 0.242 0.040 0.033 0.113 0.054 0.161 0.054 0.053 0 0.013-0.021 0.053-0.054l0.101-0.174v0.54c0 0.093 0.189 0.175 0.294 0.175s0.293-0.082 0.293-0.175v-0.54l0.187 0.174c0.035 0.033 0.087 0.054 0.134 0.054s0.099-0.021 0.134-0.054c0.074-0.065 0.081-0.178 0.002-0.242l-0.456-0.426v-0.337l0.668 0.611c0.035 0.032 0.086 0.044 0.134 0.044s0.099-0.011 0.134-0.044c0.074-0.075 0.076-0.188 0.001-0.253l-0.937-0.854v-0.727l0.686 0.358 0.34 1.17c0.025 0.081 0.101 0.136 0.187 0.136 0.016 0 0.032-0.001 0.047-0.004 0.108-0.026 0.167-0.119 0.14-0.221l-0.246-0.828 0.325 0.174 0.172 0.567c0.025 0.081 0.101 0.136 0.187 0.136 0.016 0 0.032-0.001 0.048-0.004 0.103-0.026 0.162-0.13 0.134-0.221l-0.065-0.234 0.502 0.264c0.030 0.020 0.061 0.025 0.098 0.025 0.063 0 0.131-0.031 0.164-0.088 0.055-0.085 0.024-0.185-0.071-0.237l-0.502-0.264 0.255-0.062c0.102-0.026 0.167-0.13 0.139-0.221s-0.133-0.148-0.234-0.121l-0.629 0.151-0.33-0.173 0.916-0.217c0.103-0.027 0.162-0.119 0.135-0.221-0.028-0.092-0.132-0.148-0.234-0.122l-1.286 0.317-0.687-0.358 0.687-0.368 1.286 0.316c0.015 0.002 0.031 0.004 0.047 0.004 0.085 0 0.162-0.054 0.187-0.125 0.028-0.102-0.032-0.195-0.135-0.221l-0.916-0.217 0.33-0.174 0.629 0.151c0.015 0.002 0.031 0.004 0.047 0.004 0.086 0 0.162-0.054 0.187-0.126 0.028-0.091-0.037-0.195-0.139-0.221l-0.255-0.061 0.502-0.264c0.096-0.042 0.126-0.152 0.071-0.237z"></path>
<path fill="#444444" d="M24.197 27.344c-0.054-0.085-0.172-0.114-0.262-0.062l-0.501 0.264 0.066-0.235c0.028-0.102-0.032-0.195-0.129-0.221-0.108-0.027-0.207 0.030-0.235 0.132l-0.17 0.567-0.326 0.174 0.24-0.828c0.028-0.102-0.031-0.195-0.139-0.221-0.097-0.027-0.206 0.029-0.235 0.131l-0.393 1.171-0.75 0.358v-0.726l0.996-0.854c0.079-0.064 0.108-0.177 0.028-0.253-0.069-0.065-0.237-0.065-0.317 0l-0.707 0.611v-0.348l0.519-0.416c0.070-0.065 0.098-0.178 0.029-0.243-0.079-0.075-0.237-0.075-0.316 0l-0.232 0.173v-0.539c0-0.093-0.184-0.175-0.293-0.175s-0.294 0.082-0.294 0.175v0.539l-0.030-0.173c-0.080-0.075-0.117-0.075-0.197 0-0.069 0.065-0.187 0.178-0.117 0.243l0.344 0.416v0.348l-0.505-0.611c-0.080-0.065-0.128-0.065-0.197 0-0.079 0.075-0.197 0.188-0.118 0.253l0.821 0.854v0.726l-0.528-0.358-0.264-1.171c-0.028-0.102-0.091-0.158-0.198-0.131-0.097 0.026-0.145 0.119-0.116 0.221l0.257 0.828-0.323-0.174-0.169-0.567c-0.028-0.102-0.126-0.159-0.234-0.132-0.097 0.026-0.157 0.119-0.128 0.221l0.065 0.235-0.501-0.264c-0.1-0.052-0.217-0.023-0.263 0.062-0.055 0.085-0.024 0.185 0.066 0.237l0.502 0.265-0.26 0.061c-0.097 0.027-0.157 0.12-0.13 0.221 0.025 0.071 0.096 0.125 0.182 0.125 0.021 0 0.032-0.001 0.053-0.004l0.623-0.151 0.336 0.174-0.921 0.216c-0.097 0.027-0.157 0.12-0.128 0.211 0.015 0.082 0.096 0.136 0.182 0.136 0.021 0 0.031-0.002 0.053-0.004l1.285-0.316 0.683 0.358-0.683 0.368-1.285-0.316c-0.108-0.027-0.207 0.030-0.234 0.121-0.029 0.091 0.031 0.194 0.128 0.221l0.921 0.217-0.336 0.174-0.623-0.151c-0.107-0.027-0.207 0.030-0.235 0.121s0.032 0.195 0.13 0.21l0.26 0.072-0.502 0.265c-0.090 0.041-0.121 0.152-0.066 0.237 0.034 0.057 0.096 0.088 0.159 0.088 0.031 0 0.074-0.004 0.103-0.026l0.501-0.264-0.065 0.235c-0.028 0.091 0.032 0.194 0.129 0.21 0.021 0.003 0.032 0.014 0.054 0.014 0.085 0 0.156-0.054 0.181-0.136l0.171-0.566 0.326-0.174-0.241 0.828c-0.028 0.092 0.032 0.195 0.129 0.211 0.020 0.013 0.042 0.014 0.053 0.014 0.085 0 0.167-0.054 0.182-0.136l0.193-1.17 0.528-0.358v0.726l-0.784 0.854c-0.069 0.065 0.003 0.178 0.082 0.243 0.035 0.032 0.123 0.053 0.176 0.053s-0.036-0.022-0.002-0.053l0.529-0.611v0.346l-0.299 0.427c-0.079 0.065 0.003 0.178 0.072 0.242 0.045 0.033 0.134 0.054 0.176 0.054 0.052 0-0.037-0.021-0.002-0.054l0.053-0.173v0.529c0 0.104 0.184 0.175 0.294 0.175s0.293-0.071 0.293-0.175v-0.529l0.241 0.173c0.045 0.033 0.116 0.054 0.168 0.054 0.053 0 0.115-0.021 0.149-0.054 0.080-0.064 0.026-0.177-0.043-0.242l-0.515-0.426v-0.347l0.727 0.611c0.035 0.032 0.115 0.053 0.157 0.053 0.053 0 0.115-0.022 0.16-0.053 0.069-0.065 0.026-0.178-0.053-0.243l-0.991-0.854v-0.726l0.75 0.358 0.364 1.17c0.025 0.081 0.116 0.136 0.202 0.136 0.020 0 0.047-0.001 0.057-0.014 0.108-0.017 0.17-0.12 0.141-0.211l-0.24-0.828 0.327 0.174 0.171 0.567c0.014 0.081 0.096 0.136 0.181 0.136 0.011 0 0.032-0.012 0.054-0.014 0.097-0.016 0.157-0.12 0.129-0.21l-0.066-0.235 0.501 0.264c0.030 0.021 0.062 0.026 0.093 0.026 0.074 0 0.136-0.031 0.169-0.088 0.055-0.085 0.025-0.196-0.065-0.237l-0.512-0.265 0.26-0.072c0.108-0.016 0.167-0.119 0.14-0.21s-0.138-0.148-0.234-0.121l-0.635 0.151-0.325-0.174 0.911-0.217c0.108-0.026 0.167-0.13 0.139-0.221s-0.127-0.148-0.234-0.121l-1.285 0.316-0.683-0.368 0.683-0.358 1.285 0.316c0.021 0.003 0.032 0.004 0.053 0.004 0.085 0 0.157-0.054 0.182-0.136 0.028-0.091-0.031-0.184-0.139-0.211l-0.911-0.216 0.325-0.174 0.635 0.151c0.010 0.003 0.032 0.004 0.052 0.004 0.076 0 0.157-0.054 0.182-0.125 0.028-0.102-0.032-0.194-0.14-0.221l-0.26-0.061 0.512-0.265c0.090-0.052 0.12-0.152 0.065-0.237z"></path>
<path fill="#444444" d="M16.17 25.156c-0.035-0.056-0.11-0.067-0.168-0.037l-0.321 0.161 0.044-0.149c0.021-0.059-0.019-0.119-0.081-0.129-0.069-0.020-0.138 0.012-0.154 0.071l-0.106 0.37-0.207 0.113 0.152-0.539c0.016-0.059-0.019-0.119-0.087-0.13-0.063-0.021-0.132 0.013-0.148 0.072l-0.281 0.751-0.507 0.231v-0.463l0.667-0.549c0.045-0.038 0.077-0.115 0.031-0.154s-0.175-0.038-0.221 0l-0.477 0.385v-0.214l0.36-0.266c0.047-0.049 0.078-0.115 0.031-0.164-0.046-0.039-0.174-0.039-0.22 0l-0.171 0.112v-0.343c0-0.060 0.070-0.103 0-0.103-0.064 0 0 0.042 0 0.103v0.343l-0.176-0.112c-0.046-0.039-0.151-0.039-0.203 0-0.046 0.049-0.003 0.115 0.043 0.164l0.336 0.266v0.214l-0.483-0.385c-0.046-0.038-0.15-0.038-0.203 0-0.046 0.039-0.003 0.115 0.044 0.154l0.641 0.549v0.463l-0.495-0.231-0.248-0.751c-0.016-0.059-0.094-0.092-0.162-0.072-0.063 0.011-0.108 0.071-0.092 0.13l0.15 0.539-0.208-0.113-0.111-0.37c-0.016-0.059-0.081-0.092-0.149-0.071-0.063 0.011-0.103 0.071-0.086 0.129l0.043 0.149-0.32-0.161c-0.059-0.030-0.133-0.019-0.165 0.037s-0.014 0.12 0.045 0.15l0.321 0.17-0.163 0.037c-0.068 0.021-0.102 0.081-0.087 0.14 0.015 0.053 0.063 0.084 0.118 0.084 0.012 0 0.019-0 0.030-0.002l0.398-0.105 0.213 0.112-0.583 0.144c-0.068 0.021-0.103 0.080-0.086 0.14 0.014 0.043 0.061 0.085 0.117 0.085 0.012 0 0.019-0.011 0.031-0.013l0.818-0.191 0.438 0.221-0.438 0.232-0.818-0.202c-0.063-0.010-0.132 0.023-0.148 0.082s0.018 0.119 0.086 0.14l0.583 0.143-0.213 0.102-0.398-0.094c-0.068-0.011-0.132 0.022-0.149 0.081-0.015 0.059 0.020 0.119 0.087 0.13l0.163 0.047-0.321 0.171c-0.059 0.030-0.077 0.095-0.045 0.15 0.020 0.034 0.062 0.057 0.104 0.057 0.024 0 0.043-0.003 0.060-0.020l0.32-0.171-0.044 0.159c-0.016 0.058 0.024 0.119 0.087 0.129 0.012 0.001 0.024 0.003 0.031 0.003 0.056 0 0.103-0.031 0.117-0.074l0.111-0.37 0.208-0.112-0.158 0.528c-0.016 0.059 0.024 0.13 0.087 0.141 0.012 0.002 0.024 0.002 0.031 0.002 0.055 0 0.108-0.031 0.117-0.084l0.277-0.74 0.495-0.231v0.463l-0.656 0.538c-0.046 0.049-0.075 0.115-0.029 0.164 0.026 0.024 0.042 0.031 0.073 0.031 0.036 0 0.114-0.007 0.14-0.031l0.473-0.385v0.214l-0.35 0.266c-0.047 0.049-0.075 0.115-0.029 0.164 0.026 0.014 0.042 0.032 0.072 0.032s0.114-0.017 0.14-0.032l0.166-0.112v0.332c0 0.070-0.064 0.113 0 0.113 0.070 0 0-0.042 0-0.113v-0.332l0.187 0.112c0.026 0.014 0.088 0.032 0.119 0.032s0.076-0.017 0.102-0.032c0.046-0.049-0.011-0.115-0.058-0.164l-0.35-0.266v-0.214l0.493 0.385c0.021 0.024 0.088 0.031 0.118 0.031s0.077-0.007 0.103-0.031c0.046-0.049-0.011-0.116-0.058-0.164l-0.656-0.538v-0.463l0.507 0.231 0.25 0.74c0.015 0.053 0.077 0.084 0.133 0.084 0.012 0 0.029-0.001 0.041-0.002 0.063-0.011 0.106-0.081 0.089-0.141l-0.156-0.529 0.213 0.113 0.106 0.37c0.014 0.043 0.067 0.074 0.117 0.074 0.012 0 0.024-0.001 0.037-0.003 0.062-0.010 0.103-0.071 0.081-0.129l-0.044-0.159 0.321 0.171c0.023 0.017 0.041 0.020 0.066 0.020 0.038 0 0.079-0.023 0.103-0.057 0.039-0.055 0.016-0.12-0.042-0.15l-0.322-0.171 0.163-0.047c0.063-0.010 0.103-0.070 0.087-0.13s-0.086-0.092-0.148-0.081l-0.404 0.094-0.207-0.102 0.583-0.143c0.063-0.021 0.104-0.081 0.088-0.14-0.022-0.059-0.086-0.092-0.154-0.082l-0.812 0.202-0.438-0.232 0.438-0.221 0.812 0.191c0.012 0.001 0.025 0.013 0.036 0.013 0.050 0 0.103-0.042 0.118-0.084 0.016-0.059-0.025-0.119-0.088-0.14l-0.583-0.144 0.207-0.112 0.404 0.105c0.007 0.002 0.019 0.002 0.030 0.002 0.051 0 0.104-0.031 0.118-0.084 0.016-0.059-0.024-0.119-0.087-0.14l-0.163-0.037 0.322-0.17c0.059-0.030 0.082-0.095 0.043-0.15z"></path>
</svg>
