<?xml version="1.0" encoding="utf-8"?>
<!-- Generator: Adobe Illustrator 19.2.0, SVG Export Plug-In . SVG Version: 6.00 Build 0)  -->
<svg version="1.1" id="Calque_1" xmlns="http://www.w3.org/2000/svg" xmlns:xlink="http://www.w3.org/1999/xlink" x="0px" y="0px"
	 viewBox="0 0 1024 1024" style="enable-background:new 0 0 1024 1024;" xml:space="preserve">
<style type="text/css">
	.st0{fill:#454545;}
</style>
<g id="Lozenge">
	<g>
		<path class="st0" d="M1013.8,310.4c0,0-10-70.6-40.7-101.6c-38.9-40.8-82.6-41-102.6-43.4C727.2,155,512.2,155,512.2,155h-0.4
			c0,0-214.9,0-358.2,10.4c-20,2.4-63.6,2.6-102.6,43.4c-30.7,31.1-40.7,101.6-40.7,101.6S0,393.2,0,476.1v77.7
			c0,82.9,10.2,165.7,10.2,165.7s10,70.6,40.7,101.6c39,40.8,90.1,39.5,112.9,43.8c81.9,7.9,348.2,10.3,348.2,10.3
			s215.2-0.3,358.5-10.7c20-2.4,63.7-2.6,102.6-43.4c30.7-31.1,40.7-101.6,40.7-101.6s10.2-82.9,10.2-165.7v-77.7
			C1024,393.2,1013.8,310.4,1013.8,310.4z M406.3,647.9l0-287.7l276.7,144.4L406.3,647.9z"/>
	</g>
</g>
</svg>
