<?xml version="1.0" encoding="utf-8"?>
<!-- Generator: Adobe Illustrator 19.2.0, SVG Export Plug-In . SVG Version: 6.00 Build 0)  -->
<svg version="1.1" id="Calque_1" xmlns="http://www.w3.org/2000/svg" xmlns:xlink="http://www.w3.org/1999/xlink" x="0px" y="0px"
	 viewBox="0 0 1024 1024" style="enable-background:new 0 0 1024 1024;" xml:space="preserve">
<style type="text/css">
	.st0{fill:#444444;}
</style>
<g>
	<path class="st0" d="M428.3,388.6c-0.3,3,0,229.5,0,229.5l220-114L428.3,388.6z"/>
	<path class="st0" d="M964,0H60C27,0,0,27,0,60v904c0,33,27,60,60,60h904c33,0,60-27,60-60V60C1024,27,997,0,964,0z M911.4,673.6
		c-5.8,70.6-43.9,110.9-114.3,116.1s-308.4,16.7-562.4,0.3c-86.7-1.7-115.9-60.3-122.3-115.7c-6.4-55.4-14.3-233.8,0-325.6
		c14.3-91.8,54.3-114.4,161-118.4c106.7-4,321.3-8,465.3-0.7c88.6,4.5,158,6,172.5,119.1C926.5,467.7,917.5,599.1,911.4,673.6z"/>
</g>
</svg>
