<?xml version="1.0" encoding="utf-8"?>
<!-- Generator: Adobe Illustrator 19.2.0, SVG Export Plug-In . SVG Version: 6.00 Build 0)  -->
<svg version="1.1" id="Calque_1" xmlns="http://www.w3.org/2000/svg" xmlns:xlink="http://www.w3.org/1999/xlink" x="0px" y="0px"
	 viewBox="0 0 1024 1024" style="enable-background:new 0 0 1024 1024;" xml:space="preserve">
<style type="text/css">
	.st0{fill:none;}
	.st1{fill:#444444;}
</style>
<g>
	<path class="st0" d="M879,268.2c-31-32.5-65.7-32.6-81.7-34.5c-114-8.2-285.1-8.2-285.1-8.2h-0.4c0,0-171.1,0-285.1,8.2
		c-15.9,1.9-50.7,2.1-81.7,34.5c-24.4,24.7-32.4,80.9-32.4,80.9s-8.2,66-8.2,131.9v61.8c0,66,8.2,131.9,8.2,131.9s8,56.2,32.4,80.9
		c31,32.5,71.7,31.4,89.9,34.8c65.2,6.3,277.1,8.2,277.1,8.2s171.3-0.3,285.3-8.5c15.9-1.9,50.7-2.1,81.7-34.5
		c24.4-24.7,32.4-80.9,32.4-80.9s8.1-66,8.1-131.9V481c0-66-8.1-131.9-8.1-131.9S903.4,292.9,879,268.2z M428.5,618.5V389l220,115.5
		L428.5,618.5z"/>
	<path class="st1" d="M964,0H60C27,0,0,27,0,60v904c0,33,27,60,60,60h904c33,0,60-27,60-60V60C1024,27,997,0,964,0z M919.5,542.8
		c0,66-8.1,131.9-8.1,131.9s-8,56.2-32.4,80.9c-31,32.5-65.7,32.6-81.7,34.5c-114,8.2-285.3,8.5-285.3,8.5s-211.9-1.9-277.1-8.2
		C216.8,787,176,788,145,755.6c-24.4-24.7-32.4-80.9-32.4-80.9s-8.2-66-8.2-131.9V481c0-66,8.2-131.9,8.2-131.9s8-56.2,32.4-80.9
		c31-32.5,65.7-32.6,81.7-34.5c114.1-8.2,285.1-8.2,285.1-8.2h0.4c0,0,171.1,0,285.1,8.2c15.9,1.9,50.7,2.1,81.7,34.5
		c24.4,24.7,32.4,80.9,32.4,80.9s8.1,66,8.1,131.9V542.8z"/>
	<polygon class="st1" points="428.5,618.5 648.5,504.5 428.5,389 	"/>
</g>
</svg>
