<?xml version="1.0" encoding="utf-8"?>
<!-- Generator: Adobe Illustrator 19.2.1, SVG Export Plug-In . SVG Version: 6.00 Build 0)  -->
<svg version="1.1" id="Calque_1" xmlns="http://www.w3.org/2000/svg" xmlns:xlink="http://www.w3.org/1999/xlink" x="0px" y="0px"
	 viewBox="0 0 1024 1024" enable-background="new 0 0 1024 1024" xml:space="preserve">
<path fill="#444444" d="M512,0C229.6,0,0,229.6,0,512s229.6,512,512,512s512-229.6,512-512S794.4,0,512,0z M854.3,518.2
	c0,55.7-6.9,111.3-6.9,111.3s-6.9,47.4-26.8,68c-26.1,27.5-55,27.5-68.7,28.9c-95.5,6.9-239.2,6.9-239.2,6.9s-177.3-1.4-232.3-6.9
	c-15.1-2.8-49.5-2.1-75.6-29.6c-20.6-20.6-26.8-68-26.8-68s-6.9-55.7-6.9-111.3v-52.2c0-55.7,6.9-111.3,6.9-111.3
	s6.9-47.4,26.8-68.1c26.1-27.5,55-27.5,68.7-28.9c95.5-6.9,239.2-6.9,239.2-6.9l0,0c0,0,143.6,0,239.2,6.9
	c13.1,1.4,42.6,2.1,68.7,28.9c20.6,20.6,26.8,68.1,26.8,68.1s6.9,55.7,6.9,111.3V518.2z M441.9,584.2l0.7,4.1l182.1-99.7L442,391.8
	L441.9,584.2L441.9,584.2z"/>
</svg>
