<?xml version="1.0" encoding="utf-8"?>
<!-- Generated by IcoMoon.io -->
<!DOCTYPE svg PUBLIC "-//W3C//DTD SVG 1.1//EN" "http://www.w3.org/Graphics/SVG/1.1/DTD/svg11.dtd">
<svg version="1.1" xmlns="http://www.w3.org/2000/svg" xmlns:xlink="http://www.w3.org/1999/xlink" width="32" height="32" viewBox="0 0 32 32">
<path fill="#444444" d="M15.707 13.165c-0.018-0.736-0.21-1.491-0.471-2.177-0.1-0.267-0.118-0.532-0.105-0.8l-0.254-0.011c0 0 0 0-0-0l0.254 0.011c0.030-0.569 0.213-1.139 0.096-1.706-0.276-1.336-1.424-1.803-2.658-1.94-0.077-0.009-0.156-0.019-0.233-0.028l-0.065 0.549c0.46 0.046 0.915 0.152 1.336 0.35 0.516 0.243 0.796 0.644 1.033 1.131h-0c-0.764-1.426-2.797-1.246-4.147-1.011-1.253 0.219-2.413 0.62-3.711 0.554-0.61-0.031-1.561-0.285-2.185-0.758-1.39 2.107-2.201 4.631-2.201 7.346 0 0.668 0.048 1.322 0.142 1.964 1.534-0.445 2.897-1.411 4.021-2.527 0.667-0.662 1.201-1.402 1.773-2.144 0.79-1.025 1.649-2.065 2.744-2.778 0.787-0.51 2.189-0.836 3.139-0.419h0c0.042 0.019 0.085 0.039 0.126 0.061 0.109 0.059 0.211 0.128 0.306 0.211-0.788-0.369-1.912-0.128-2.652 0.217-0.953 0.447-1.791 1.154-2.491 1.934-0.74 0.831-1.35 1.77-2.092 2.603-0.998 1.118-2.003 2.15-3.366 2.834-0.379 0.191-0.894 0.468-1.396 0.651 0.404 2.048 1.278 3.927 2.504 5.521 1.168-0.678 2.044-2.112 2.7-3.158 1.202-1.914 1.922-4.071 2.886-6.101 0.472-0.988 0.991-1.977 1.666-2.841 0.334-0.427 0.74-0.909 1.255-1.117 0.202-0.080 0.434-0.132 0.651-0.074 0.408 0.104 0.41 0.33 0.566 0.666-1.252-1.545-2.694 1.683-3.166 2.532-0.43 0.772-0.802 1.572-1.159 2.379-0.533 1.202-0.994 2.436-1.61 3.598-0.558 1.057-1.228 2.061-1.997 2.975-0.436 0.517-0.918 1.102-1.493 1.519 2.029 2.45 4.913 4.163 8.196 4.681 0.141-0.907 0.294-1.896-0.219-2.714-0.506-0.81-1.611-0.715-2.396-0.471-0.34 0.104-0.592 0.291-0.959 0.139-0.668-0.272-0.369-1.586-0.25-2.123 0.097-0.44 0.3-1.317 0.781-1.48 0.592-0.2 1.195 0.28 1.777 0.353 0.309 0.037 0.553-0.023 0.745-0.283 0.275-0.37 0.027-0.893 0.358-1.23 0.234-0.236 0.27 0.006 0.513-0.069 0.479-0.144 0.091-0.909-0.009-0.86 0.26-0.124 0.71-0.102 0.838-0.416 0.106-0.263-0.163-0.586-0.037-0.873 0.184-0.416 0.816-0.503 0.844-1.020 0.031-0.594-0.721-1.018-0.566-1.647 0.169-0.671 0.659-1.265 0.64-2.003zM14.14 15.502l0.134 0.131c0 0-1.005 0.157-1.684-0.52 0 0 0.917-0.617 2.117-0.617l-0.336 0.14c0 0 0.073 0.564-0.23 0.865zM12.187 14.089c0.080-0.085 1.769-1.886 2.957-0.703-0.073-0.030-1.37-0.492-2.957 0.703z"></path>
<path fill="#444444" d="M7.968 7.512c1.257-0.163 2.501-0.499 3.778-0.478 0.174 0.002 0.351 0.011 0.525 0.030l0.065-0.549c-1.163-0.139-2.261-0.345-3.329-0.868-0.662-0.323-1.118-0.911-1.36-1.582-1.055 0.805-1.984 1.762-2.758 2.842 0.768 0.738 1.99 0.747 3.079 0.606z"></path>
<path fill="#444444" d="M17.786 8.771v0c0.949-0.417 2.351-0.091 3.138 0.42 1.096 0.712 1.955 1.752 2.744 2.778 0.571 0.742 1.106 1.482 1.773 2.144 1.124 1.116 2.487 2.083 4.021 2.527 0.094-0.641 0.143-1.296 0.143-1.964 0-2.715-0.81-5.239-2.201-7.346-0.623 0.473-1.575 0.727-2.184 0.758-1.298 0.065-2.457-0.336-3.711-0.554-1.35-0.235-3.383-0.415-4.147 1.011 0.237-0.488 0.518-0.888 1.033-1.131 0.421-0.198 0.876-0.304 1.335-0.35v0c0.174-0.019 0.351-0.028 0.525-0.030 1.276-0.020 2.52 0.315 3.778 0.478 1.088 0.14 2.31 0.131 3.079-0.606-0.773-1.080-1.703-2.037-2.758-2.842-0.241 0.672-0.698 1.26-1.36 1.582-1.068 0.523-2.166 0.729-3.329 0.868v-0c-0.078 0.009-0.156 0.019-0.234 0.028-1.233 0.137-2.381 0.605-2.658 1.94-0.117 0.567 0.066 1.136 0.096 1.706 0.013 0.267-0.005 0.532-0.105 0.8-0.261 0.686-0.453 1.441-0.472 2.177-0.018 0.738 0.471 1.332 0.64 2.003 0.156 0.628-0.597 1.053-0.565 1.647 0.027 0.517 0.66 0.604 0.843 1.020 0.127 0.287-0.143 0.61-0.037 0.873 0.128 0.314 0.578 0.291 0.838 0.416-0.1-0.048-0.487 0.716-0.010 0.861 0.243 0.074 0.28-0.167 0.513 0.068 0.332 0.336 0.084 0.859 0.358 1.229 0.193 0.26 0.436 0.32 0.745 0.283 0.583-0.073 1.186-0.553 1.776-0.353 0.48 0.163 0.685 1.041 0.782 1.48 0.118 0.538 0.417 1.851-0.25 2.123-0.367 0.152-0.619-0.035-0.959-0.139-0.784-0.244-1.89-0.339-2.396 0.471-0.514 0.818-0.36 1.806-0.219 2.714 3.283-0.518 6.167-2.231 8.196-4.681-0.575-0.417-1.057-1.002-1.493-1.519-0.77-0.914-1.439-1.917-1.997-2.975-0.616-1.163-1.078-2.396-1.61-3.598-0.356-0.807-0.729-1.608-1.159-2.379-0.471-0.849-1.913-4.077-3.165-2.532 0.155-0.335 0.157-0.562 0.565-0.665 0.217-0.058 0.449-0.006 0.652 0.074 0.515 0.207 0.921 0.69 1.255 1.117 0.675 0.864 1.194 1.853 1.666 2.841 0.964 2.031 1.683 4.188 2.885 6.101 0.657 1.046 1.532 2.48 2.7 3.158 1.226-1.594 2.099-3.473 2.503-5.521-0.503-0.183-1.018-0.46-1.396-0.651-1.363-0.684-2.368-1.716-3.366-2.834-0.742-0.833-1.352-1.771-2.092-2.603-0.699-0.78-1.537-1.487-2.49-1.934-0.74-0.345-1.864-0.586-2.652-0.217 0.095-0.083 0.196-0.152 0.306-0.211 0.041-0.023 0.084-0.042 0.126-0.061zM17.727 15.634l0.133-0.131c-0.302-0.301-0.229-0.865-0.229-0.865l-0.336-0.14c1.2 0 2.117 0.617 2.117 0.617-0.679 0.677-1.684 0.52-1.684 0.52zM19.813 14.089c-1.586-1.195-2.884-0.733-2.956-0.703 1.186-1.183 2.877 0.618 2.956 0.703z"></path>
</svg>
