<?xml version="1.0" encoding="utf-8"?>
<!-- Generated by IcoMoon.io -->
<!DOCTYPE svg PUBLIC "-//W3C//DTD SVG 1.1//EN" "http://www.w3.org/Graphics/SVG/1.1/DTD/svg11.dtd">
<svg version="1.1" xmlns="http://www.w3.org/2000/svg" xmlns:xlink="http://www.w3.org/1999/xlink" width="32" height="32" viewBox="0 0 32 32">
<path fill="#444444" d="M24.096 20.703c-0.304 0.216-0.676 0.095-0.676 0.095-0.501 0.237-0.827 0.159-1.025 0.019-0.206-0.142-0.281-0.35-0.281-0.35s1.030-0.261 1.099-0.33c0.073-0.071 1.063 0.166 1.152 0.251 0.086 0.088 0.109 0.957 0.109 0.957l-0.425 0.089-0.25-0.057-0.075-0.016-0.036-0.443c0.393 0 0.407-0.216 0.407-0.216z"></path>
<path fill="#444444" d="M21.972 23.231c0.305 0.305 0.599-0.044 0.599-0.044 0.063 0.063 0.208 0.077 0.208 0.077-1.372 1.185-0.923 2.327-0.923 2.327-0.231-1.698 2.201-2.976 2.201-2.976l0.273-0.274h-0.44c-0.557 0.997-1.154 0.714-1.154 0.714s0.335-0.547 0.525-0.987c0.189-0.44 1.321-0.586 1.678-0.586s0.252 1.321 0.252 1.678c0 0.356-2.024 3.21-2.024 3.21l-0.384 1.411c-0.656 0.12-1.33 0.196-2.015 0.218 0.223-0.474 0.544-1.233 0.7-2.008 0 0-0.788-1.385-0.788-2.046s1.259-2.359 0.914-3.272c0 0 0.368-0.075 0.645 0.15 0.227 0.188 0.391 0.581 0.235 1.391l-0.431 0.87-0.072 0.147z"></path>
<path fill="#444444" d="M22.996 22.255c-0.627 1.209-0.82 0.893-0.82 0.893 0.649-1.157 0.677-1.553 0.677-1.553 0.45-0.177 0.912-0.067 0.912-0.067-0.503 0.181-0.567 0.34-0.567 0.34l-0.202 0.387z"></path>
<path fill="#444444" d="M17.054 18.105l-0.079-0.178c0.364-0.364 0.307-0.825 0.307-0.825 0.036-0.035 0.337-0.135 0.337-0.135-1.007 0-1.846 0.337-1.846 0.337 0.458 0.106 1.233 0.76 1.282 0.8zM18.185 15.415c-0.941-0.695-2.203 0.447-2.263 0.503 1.342-0.796 2.033-0.208 2.033-0.208 0.168 0 0.23-0.295 0.23-0.295zM13.519 26.155c-1.22-0.717-2.319-1.623-3.259-2.679 0.201-0.417 0.538-0.75 0.708-1.198 0.13-0.344 0.007-0.825 0.268-1.105 0.21-0.224 0.592-0.207 0.863-0.302 0.329-0.117 0.688-0.275 0.927-0.536 0.354-0.387 0.496-1 0.555-1.507 0.104-0.879 0.077-1.938 0.994-2.441 0.401-0.219 0.794-0.291 1.095-0.661 0.566-0.696-0.252-2.319 1.074-2.441 0.272-0.025 0.456 0.119 0.686-0.088 0.223-0.2 0.052-0.622 0.394-0.724 0.327-0.097 0.719 0.452 0.721 0.747 0.001-0.013 0.001-0.028 0-0.043v-0.001l0.124-0.005c0.124 0.707 0.28 1.416 0.285 2.139 0 0.008 0 0.018 0 0.027 0 0.515-0.142 0.867-0.414 1.3-0.215 0.34-0.359 0.705-0.359 1.083 0 0.187 0.037 0.377 0.116 0.568 0.095 0.223 0.42 0.425 0.444 0.647 0 0.016 0.001 0.031 0.001 0.046 0 0.372-0.488 0.488-0.736 0.652-0.358 0.236-0.239 0.518-0.285 0.873-0.046 0.352-0.544 0.375-0.621 0.675-0.002 0.011-0.003 0.023-0.003 0.033 0 0.103 0.118 0.186 0.118 0.282 0 0.008-0.001 0.017-0.005 0.028-0.042 0.175-0.296 0.134-0.422 0.229-0.172 0.128-0.15 0.215-0.18 0.396-0.070 0.403-0.084 0.763-0.588 0.843-0.38 0.058-0.652-0.097-0.971-0.249-0.651-0.311-1.308-0.501-1.762 0.251-0.183 0.306-0.267 0.714-0.267 1.132 0 0.491 0.117 0.992 0.319 1.348 0.050 0.089 0.104 0.165 0.165 0.228 0.059 0.064 0.122 0.115 0.187 0.153 0.017 0.010 0.033 0.020 0.051 0.028l-0.172 0.301c-0.016-0.010-0.035-0.020-0.051-0.029z"></path>
<path fill="#444444" d="M18.668 13.172l-0.124 0.005c-0.015-0.47-0.581-1.511-1.056-0.922-0.241 0.302 0.048 0.606-0.5 0.666-0.454 0.050-0.968 0.121-1.264 0.523-0.379 0.516-0.030 1.292-0.334 1.872-0.367 0.696-1.097 0.699-1.512 1.272-0.433 0.599-0.611 1.305-0.688 2.030-0.064 0.612-0.22 1.046-0.623 1.518-0.393 0.456-0.965 0.376-1.453 0.658-0.501 0.29-0.35 0.582-0.382 1.067-0.034 0.544-0.516 0.839-0.785 1.253-0.964-1.162-1.739-2.487-2.28-3.929 0.152-0.341 0.408-0.635 0.751-0.771 0.519-0.206 1.127 0.231 1.67-0.055 0.692-0.364 0.86-1.343 1.25-1.953 0.462-0.72 0.723-0.288 1.393-0.481 0.541-0.157 0.768-0.927 1.035-1.357 0.229-0.374 0.6-0.9 1.103-0.976-0.61 0.072-0.977 0.459-1.406 0.91-0.276 0.292-0.637 0.888-1.015 1.034-0.31 0.118-0.557-0.097-0.846-0.002-0.476 0.155-0.735 1.042-0.953 1.442-0.245 0.45-0.599 1.020-1.17 1.057-0.567 0.036-0.957-0.262-1.495 0.141-0.192 0.144-0.351 0.346-0.473 0.574-0.465-1.38-0.717-2.861-0.717-4.399 0-0.046 0.002-0.091 0.002-0.136 0.806-0.739 1.943-1.092 2.987-0.603 0.577 0.268 1.245 0.198 1.776-0.19 0.64-0.468 1.289-1.349 2.192-1.071 0.444 0.135 0.652 0.174 1.098 0 0.272-0.11 0.65-0.365 0.835 0.016-0.384-0.791-0.625-0.143-1.267-0.265-0.577-0.11-0.943-0.371-1.545-0.105-0.783 0.35-1.37 1.107-2.224 1.317-0.517 0.129-0.91-0.231-1.411-0.306-1.002-0.15-1.754 0.184-2.431 0.757 0.104-2.506 0.877-4.836 2.144-6.816 1.386 0.099 3.041-0.145 3.473 1.428 0.192 0.703 0.29 1.841 1.166 2.016 0.534 0.105 1.064-0.28 1.617-0.147 0.386 0.090 0.689 0.394 1.080 0.48 0.361 0.078 1.135 0.045 1.088 0.62 0.154-1.013-0.4-0.656-1.154-0.992-0.478-0.21-0.444-0.536-1.076-0.518-0.634 0.021-1.628 0.359-1.932-0.437-0.296-0.774-0.409-2.038-1.249-2.445-0.792-0.382-1.83-0.326-2.721-0.446 0.575-0.825 1.236-1.583 1.973-2.259l0.025 0.026c0.742 0.268 1.858 0.465 2.457 1.001 0.017 0.018 0.036 0.036 0.053 0.053 0.114 0.121 0.157 0.245 0.157 0.374 0 0.401-0.43 0.822-0.43 1.229 0 0.108 0.030 0.216 0.108 0.323 0.031 0.040 0.065 0.079 0.1 0.113 0.445 0.42 1.247 0.275 1.632 0.699 0.077 0.087 0.136 0.193 0.171 0.332 0.079 0.3 0.092 0.46 0.241 0.617 0.069 0.073 0.164 0.142 0.306 0.225 0.727 0.419 1.663 0.596 2.259 1.218 0.039 0.041 0.077 0.085 0.114 0.132 0.403 0.504 0.604 0.938 0.604 1.406 0 0.355-0.116 0.731-0.345 1.176z"></path>
<path fill="#444444" d="M17.585 26.919c0 0.262-0.033 0.534-0.082 0.79-1.403-0.3-2.725-0.821-3.933-1.525l0.172-0.301c0.278 0.141 0.609 0.098 0.969-0.040 0.639-0.248 1.293-0.683 2.004-0.449 0.186 0.062 0.337 0.156 0.457 0.273 0.306 0.303 0.414 0.767 0.414 1.251z"></path>
<path fill="#444444" d="M21.942 20.559c0 0 0.308-0.69-0.383-1.106 0 0-0.276 0.68 0.383 1.106z"></path>
<path fill="#444444" d="M22.713 19.047c0 0 0.147 0.936-0.611 1.122 0 0-0.202-0.867 0.611-1.122z"></path>
<path fill="#444444" d="M21.995 19.604c0 0 0.289-0.769-0.399-0.985-0 0-0.267 0.726 0.399 0.985z"></path>
<path fill="#444444" d="M22.787 18.279c0 0 0.057 0.816-0.65 0.857 0 0-0.205-0.623 0.65-0.857z"></path>
<path fill="#444444" d="M22.059 18.698c0 0 0.488-0.559-0.331-1.037 0 0-0.299 0.951 0.331 1.037z"></path>
<path fill="#444444" d="M22.33 18.277c0 0 0.602 0.174 0.776-1.1-0 0-1.057 0.47-0.776 1.1z"></path>
<path fill="#444444" d="M22.242 17.807c0 0 0.492-0.589-0.309-1.309 0 0-0.507 1.137 0.309 1.309z"></path>
<path fill="#444444" d="M22.489 17.337c0 0 0.728 0.024 0.66-1.146 0 0-0.944 0.386-0.66 1.146z"></path>
<path fill="#444444" d="M22.372 16.742c0 0 0.442-0.443-0.14-1.21 0 0-0.508 0.963 0.14 1.21z"></path>
<path fill="#444444" d="M22.642 16.321c0 0 0.592 0.096 0.553-1.043 0 0-0.824 0.226-0.553 1.043z"></path>
<path fill="#444444" d="M22.517 15.678c0 0 0.586-0.378-0.132-1.040 0 0-0.309 0.812 0.132 1.040z"></path>
<path fill="#444444" d="M22.854 15.221c0 0 0.4-0.022 0.38-0.985 0 0-0.684 0.407-0.38 0.985z"></path>
<path fill="#444444" d="M22.694 14.726c0 0 0.525-0.492-0.135-1.025 0 0-0.307 0.806 0.135 1.025z"></path>
<path fill="#444444" d="M23.022 14.181c0 0 0.523-0.29 0.168-1.111-0-0-0.626 0.576-0.168 1.111z"></path>
</svg>
