<?xml version="1.0" encoding="utf-8"?>
<!-- Generated by IcoMoon.io -->
<!DOCTYPE svg PUBLIC "-//W3C//DTD SVG 1.1//EN" "http://www.w3.org/Graphics/SVG/1.1/DTD/svg11.dtd">
<svg version="1.1" xmlns="http://www.w3.org/2000/svg" xmlns:xlink="http://www.w3.org/1999/xlink" width="32" height="32" viewBox="0 0 32 32">
<path fill="#444444" d="M30.202 9.865c-0.62-1.467-1.931-1.703-1.931-1.703 0 0.627-0.716 0.932-0.716 0.932 0.35-0.348 0.265-1.083 0.265-1.083-1.612-0.528-3.249 0.146-3.249 0.146 0.433 0.769 0.265 1.491 0.265 1.491-0.131-0.783-0.818-1.179-0.818-1.179-1.564 0.554-2.341 1.962-2.341 1.962 1.041 0 1.643 0.758 1.643 0.758-0.914-0.482-2.021 0-2.021 0-0.479 1.424 0.85 2.601 0.85 2.601 0.408 0.353 0.85 0.562 1.277 0.683 0.421-0.277 1.040-0.865 1.226-2 0 0 0.355 1.143-0.587 2.12 0.932 0.093 1.673-0.167 1.673-0.167 1.211-0.448 1.723-1.211 1.891-1.989-0.76-0.993-2.015-0.832-2.015-0.832s0.94-0.593 2.082 0.176c0.004-1.049-0.455-1.965-0.455-1.965s-2.526-0.168-2.742 2.046c0 0-0.795-2.038 2.285-2.407 0.272-0.022 0.518-0.022 0.743 0 2.82 0.264 2.098 3.754 2.098 3.754 0.649-0.65 1.171-1.942 0.576-3.345z"></path>
<path fill="#444444" d="M21.158 13.456c-0.411 0.312-1.359 0.921-2.558 0.955 0.734-0.348 1.497-0.867 2.274-1.602-0.278-0.909-0.057-1.669-0.057-1.669 0.381-1.159 1.079-1.95 1.816-2.49 1.316-0.961 2.757-1.12 2.757-1.12-0.947-0.6-1.876-0.88-2.758-0.944 0.074 0.87-0.177 1.715-0.177 1.715 0-0.758-0.247-1.327-0.514-1.722-1.201 0.063-2.299 0.506-3.215 1.053 1.657 0.91 1.659 2.786 1.659 2.786-0.269-1.352-1.493-2.009-2.378-2.313-1.267 0.913-2.044 1.895-2.044 1.895s-0.777-0.982-2.045-1.896c-0.884 0.304-2.108 0.962-2.376 2.313 0 0 0.001-1.876 1.658-2.786-0.917-0.548-2.014-0.99-3.216-1.053-0.265 0.395-0.513 0.964-0.513 1.722 0 0-0.253-0.845-0.178-1.715-0.882 0.063-1.81 0.344-2.758 0.944 0 0 3.513 0.386 4.573 3.61 0 0 0.217 0.745-0.050 1.644 0.358 0.356 1.169 1.083 2.295 1.61-1.321-0.028-2.222-0.675-2.566-0.972-0.21 0.373-0.521 0.748-0.979 1.089 0 0-0.625 1.010 0.819 1.973 0 0-0.24-0.674 0-1.348 0 0 0.192 2.117 1.973 2.357s1.781 2.697 1.781 2.697-0.529-1.3-1.876-1.588c-1.348-0.289-1.348-1.349-1.348-1.349s-0.194 1.829 2.117 6.161c0 0 0.288 2.167 2.689 2.167s2.688-2.167 2.688-2.167c2.311-4.332 2.119-6.161 2.119-6.161s0 1.060-1.348 1.349c-1.348 0.288-1.877 1.588-1.877 1.588s0-2.456 1.781-2.697c1.782-0.241 1.975-2.357 1.975-2.357 0.24 0.674 0 1.348 0 1.348 1.443-0.963 0.817-1.973 0.817-1.973-0.444-0.33-0.749-0.694-0.959-1.054zM15.962 15.425c0 0-0.415-0.237-0.676-0.715 0 0 0.676 0.264 0.676-0.225 0 0.488 0.675 0.225 0.675 0.225-0.261 0.478-0.675 0.715-0.675 0.715z"></path>
<path fill="#444444" d="M10.626 11.189c0 0-1.107-0.482-2.021 0 0 0 0.601-0.758 1.642-0.758 0 0-0.776-1.408-2.34-1.962 0 0-0.686 0.397-0.819 1.179 0 0-0.168-0.722 0.264-1.491 0 0-1.637-0.674-3.247-0.146 0 0-0.085 0.734 0.263 1.083 0 0-0.715-0.305-0.715-0.932 0 0-1.31 0.236-1.931 1.703-0.594 1.403-0.073 2.696 0.578 3.345 0 0-0.723-3.488 2.094-3.755 0.224-0.021 0.472-0.021 0.745 0.001 3.080 0.369 2.287 2.407 2.287 2.407-0.217-2.214-2.744-2.046-2.744-2.046s-0.457 0.916-0.455 1.965c1.142-0.769 2.083-0.176 2.083-0.176s-1.255-0.161-2.016 0.832c0.168 0.777 0.68 1.541 1.891 1.989 0 0 0.741 0.26 1.673 0.167-0.94-0.976-0.585-2.12-0.585-2.12 0.186 1.135 0.804 1.723 1.225 2 0.428-0.121 0.867-0.331 1.277-0.683 0 0 1.328-1.177 0.85-2.601z"></path>
</svg>
