<?xml version="1.0" encoding="utf-8"?>
<!-- Generated by IcoMoon.io -->
<!DOCTYPE svg PUBLIC "-//W3C//DTD SVG 1.1//EN" "http://www.w3.org/Graphics/SVG/1.1/DTD/svg11.dtd">
<svg version="1.1" xmlns="http://www.w3.org/2000/svg" xmlns:xlink="http://www.w3.org/1999/xlink" width="32" height="32" viewBox="0 0 32 32">
<path fill="#444444" d="M28.271 20.918c0.006-0.009 0.015-0.016 0.021-0.025h-0.032l-4.401-9.994c0.532-0.014 0.8-0.392 0.8-0.392 0.613-0.951-0.197-1.561-0.235-1.589 0.372 0.373 0.148 0.768 0.148 0.768-0.707 1.173-1.947-0.217-1.947-0.217-2.533-3.122-5.493-1.73-5.493-1.73-1.34-0.823-0.26-1.709-0.26-1.709-0.714 0-0.872-1.817-0.872-1.817s-0.159 1.817-0.873 1.817c0 0 1.081 0.886-0.259 1.709 0 0-2.96-1.393-5.493 1.73 0 0-1.238 1.39-1.946 0.217 0 0-0.225-0.394 0.148-0.768-0.038 0.028-0.848 0.638-0.235 1.589 0 0 0.267 0.378 0.799 0.392l-4.4 9.994h-0.033c0.007 0.009 0.015 0.016 0.022 0.025l-0.019 0.043h0.056c0.097 0.123 0.196 0.245 0.303 0.36h4.845l-4.516 0.328c1.005 0.921 2.343 1.484 3.813 1.484 1.808 0 3.416-0.852 4.449-2.172h0.043l-0.015-0.035c0.009-0.010 0.018-0.021 0.026-0.032h-0.041l-0.010-0.024-4.392-9.974c0.375-0.031 0.861-0.242 1.461-0.841 0 0 3.384-3.354 5.503 0.54 0 0 0.585 6.174-0.362 11.162 0.284 0.207 0.668 0.397 1.128 0.397 0 0-0.639 0.351-1.251 0.205-0.414 1.884-1.069 3.546-2.087 4.564 0 0 0.642 0.974 3.339 0.974 2.695 0 3.338-0.974 3.338-0.974-0.287-0.287-0.545-0.626-0.776-1.004-2.562 1.095-4.317 0.031-4.317 0.031 2.149 0.369 3.406-0.116 4.042-0.522-0.223-0.438-0.419-0.917-0.59-1.428-1.444 0.852-2.479 0.296-2.479 0.296 1.086 0 1.836-0.537 2.27-0.98-1.439-5.149-0.723-12.721-0.723-12.721 2.119-3.894 5.503-0.54 5.503-0.54 0.599 0.599 1.087 0.81 1.461 0.841l-4.403 9.999h-0.040c0.008 0.011 0.017 0.021 0.026 0.032l-0.016 0.036h0.044c1.032 1.321 2.641 2.172 4.448 2.172 1.466 0 2.802-0.56 3.806-1.478l-4.602-0.334h4.938c0.107-0.115 0.206-0.237 0.303-0.36h0.056l-0.019-0.044zM8.141 11.219v9.612h-4.232l4.232-9.612zM8.271 11.219l4.232 9.612h-4.232v-9.612zM23.859 20.831v-9.612l4.232 9.612h-4.232zM23.729 11.218v9.613h-4.233l4.233-9.613z"></path>
</svg>
