<?xml version="1.0" encoding="utf-8"?>
<!-- Generated by IcoMoon.io -->
<!DOCTYPE svg PUBLIC "-//W3C//DTD SVG 1.1//EN" "http://www.w3.org/Graphics/SVG/1.1/DTD/svg11.dtd">
<svg version="1.1" xmlns="http://www.w3.org/2000/svg" xmlns:xlink="http://www.w3.org/1999/xlink" width="32" height="32" viewBox="0 0 32 32">
<path fill="#444444" d="M18.736 14.457c0 0-0.732-1.605-2.993-1.163 0 0-2.536 1.044-2.895 3.169 0 0 1.045 1.451 3.949 0.317 0 0-0.182 1.906 3.946 1.316 0 0-2.268-0.227-2.268-1.36 0 0-0.090-0.975 1.203-1.241 0 0 1.36-0.313 2.222 1.015-0 0 0.165-2.217-3.163-2.053z"></path>
<path fill="#444444" d="M17.115 12.925c0 0 1.067-1.659 3.039-1.27 0 0-1.935-1.55-4.127 1.1 0 0-3.36-0.692-4.494 3.164 0 0-4.037 0.965-4.037 1.769 0 0 0 0.59 0.589 0.59 0 0 2.11-1.463 4.31-1.951 0 0 0.907-3.401 4.72-3.401z"></path>
<path fill="#444444" d="M6.013 19.328c0 0.318 0.805 0.583 0.805 0.583l0.992-1.429-0.752-0.353c-0.204 0.204-1.045 0.882-1.045 1.2z"></path>
<path fill="#444444" d="M5.745 19.711c0 0-0.517 1.38-0.349 2.11 0 0 0.473 0.436 0.742 0.167 0 0 0.664-1.61 0.515-1.76 0 0-0.825-0.761-0.908-0.517z"></path>
<path fill="#444444" d="M5.375 22.197c-0.431 0.1 0.023 2.165 0.023 2.165 0.51-0.238 0.556-1.916 0.556-1.916-0.182-0.294-0.579-0.249-0.579-0.249z"></path>
<path fill="#444444" d="M14.926 12.358c-4.527-0.566-4.833 3.062-4.833 3.062-0.51 0-3.912 0.545-3.912 0.545 0 0.714 0.68 1.020 0.68 1.020 0.34-0.34 4.142-1.207 4.142-1.207 1.531-3.708 4.877-3.318 4.877-3.318 1.088-1.598 2.449-1.564 2.449-1.564-2.144-0.443-3.402 1.462-3.402 1.462z"></path>
<path fill="#444444" d="M5.242 18.357c0 0 0.238 0.035 1.14-1.208 0 0-0.411-1.163-0.646-0.884l-1.089 1.292 0.034 0.238 0.561 0.561z"></path>
<path fill="#444444" d="M4.455 18.138c-0.256 0.072-0.354 0.624-0.428 0.834-0.16 0.457-0.282 0.937-0.291 0.933 0.246 0.086 0.438 0.201 0.705 0.129 0.276-0.074 0.239-0.372 0.327-0.575 0.101-0.233 0.366-0.403 0.39-0.668 0.022-0.236-0.487-0.714-0.704-0.652z"></path>
<path fill="#444444" d="M3.525 20.698c-0.045 0.476-0.134 1.184 0.004 1.652 0.068 0.23 0.454-0.421 0.49-0.515 0.114-0.306 0.341-0.796 0.356-1.167 0.002-0.059 0-0.115-0.010-0.167-0.095-0.52-0.799-0.222-0.839 0.197z"></path>
<path fill="#444444" d="M9.719 18.278c0.431 0.431 1.316 0.226 1.316 0.226 0.362 0 2.132-1.224 2.132-1.224l-0.499-0.5c-2.359 0-2.949 1.497-2.949 1.497z"></path>
<path fill="#444444" d="M8.732 21.684c0 0 1.191 0.137 1.327 0 0 0 0.193-2.011 0.545-2.795 0 0-0.647-0.198-1.021-0.198 0 0-1.565 2.62-0.851 2.993z"></path>
<path fill="#444444" d="M10.195 22.020c-0.341-0.34-1.531 0.442-1.531 0.442-0.291 1.001 2.313 2.5 2.773 2.5s0.833-0.834 0.833-0.834c-1.123-0.271-2.075-2.109-2.075-2.109z"></path>
<path fill="#444444" d="M12.134 24.775c0 0 0.987 1.565 2.724 0.953 1.735-0.612 5.137 0.782 5.137 0.782-4.898-5.512-7.861-1.735-7.861-1.735z"></path>
<path fill="#444444" d="M14.688 26.034c-1.091 0.238-2.077-0.408-2.077-0.408 1.327 3.231 5.786 2.109 5.786 2.109-3.199 0-3.709-1.701-3.709-1.701z"></path>
<path fill="#444444" d="M17.477 13.073c0.34 0 0.783 0.442 0.783 0.442 0-0.335 1.616-0.834 1.769-0.987 0.153-0.152-0.374-0.577-0.374-0.577-1.258 0-2.178 1.122-2.178 1.122z"></path>
<path fill="#444444" d="M20.369 12.46c0 0 0.782-0.033 1.292-0.033 0 0 0.34-0.681 0.17-0.681s-1.572 0.008-1.769 0.204l0.306 0.51z"></path>
<path fill="#444444" d="M21.9 12.427c0.062 0.417 1.599 0.32 1.599 0.32l0.374-0.49c-1.905-1.055-1.973 0.17-1.973 0.17z"></path>
<path fill="#444444" d="M25.949 13.038c1.021-0.306 3.912 1.906 3.912 1.906-3.606-5.341-5.92-2.382-5.92-2.382s0.987 0.783 2.008 0.476z"></path>
<path fill="#444444" d="M25.404 13.311c-0.579 0-1.361-0.408-1.361-0.408 0.103 3.436 4.593 2.449 4.593 2.449-3.606-0.306-3.231-2.041-3.231-2.041z"></path>
<path fill="#444444" d="M13.529 6.122c-0.725-0.272-0.589-0.908-0.589-0.908 0.453-1.269 1.724 0.862 1.724 0.862-0.594-2.376-1.986-1.985-2.327-1.848-0.064 0.15-0.119 0.343-0.16 0.575 0.024 0.003 0.037 0.004 0.037 0.004 0 1.225 1.316 1.316 1.316 1.316z"></path>
<path fill="#444444" d="M11.576 12.654c0 0-0.525 0.062-1.245 0.033-1.013 0.517-1.373 1.597-1.486 2.067 0.557 0.201 0.976 0.394 0.976 0.394 0.17-1.871 1.755-2.494 1.755-2.494z"></path>
<path fill="#444444" d="M7.682 14.404c0.277 0.063 0.56 0.146 0.828 0.233 0.119-0.425 0.485-1.414 1.407-1.977-0.238-0.021-0.487-0.053-0.74-0.1-1.037 0.54-1.384 1.419-1.495 1.844z"></path>
<path fill="#444444" d="M6.028 14.336c0.094 0.11 0.094 0.11 0.094 0.11 0.35-0.092 0.931-0.013 1.213-0.109 0.13-0.438 0.503-1.317 1.455-1.861-0.273-0.070-0.546-0.158-0.805-0.273-1.349 0.431-1.803 1.516-1.956 2.134z"></path>
<path fill="#444444" d="M5.188 12.952c0.193 0.453 0.411 0.81 0.595 1.069 0.182-0.547 0.67-1.508 1.906-1.964-0.21-0.115-0.407-0.252-0.584-0.409-1.075 0.165-1.653 0.858-1.918 1.305z"></path>
<path fill="#444444" d="M6.879 11.418c-0.253-0.29-0.447-0.644-0.551-1.077-0.708-0.117-1.238-0.009-1.594 0.13-0.024 0.774 0.099 1.448 0.281 2.011 0.264-0.343 0.824-0.875 1.864-1.064z"></path>
<path fill="#444444" d="M6.265 10.008c-0.037-0.295-0.038-0.621 0.007-0.984 0.040-0.189 0.088-0.369 0.141-0.54-0.407-0.292-0.838-0.387-1.17-0.404-0.004 0.014-0.010 0.025-0.015 0.036-0.254 0.663-0.395 1.278-0.457 1.849 0.344-0.081 0.841-0.114 1.494 0.043z"></path>
<path fill="#444444" d="M11.703 4.785c0.014-0.2 0.059-0.409 0.099-0.572-0.649-0.034-1.673 0.034-2.747 0.381 0.116 0.171 0.243 0.395 0.312 0.628 0.914-0.361 1.802-0.431 2.336-0.436z"></path>
<path fill="#444444" d="M8.99 5.385c-0.050-0.245-0.207-0.489-0.33-0.652-0.597 0.232-1.197 0.558-1.741 1.008 0.222 0.18 0.501 0.414 0.713 0.618 0.418-0.43 0.886-0.744 1.358-0.974z"></path>
<path fill="#444444" d="M7.408 6.608c-0.236-0.205-0.538-0.461-0.749-0.638-0.496 0.464-0.933 1.040-1.267 1.76 0.326 0.064 0.756 0.193 1.123 0.449 0.23-0.635 0.539-1.151 0.893-1.571z"></path>
<path fill="#444444" d="M13.438 12.088c0.363 0 1.272 0.021 1.272 0.021 0.846-1.261 1.86-1.323 1.86-1.323-2.136-0.613-3.132 1.302-3.132 1.302z"></path>
<path fill="#444444" d="M14.551 10.658c0 0-1.703-0.454-2.723 1.791 0 0 0.862-0.317 1.27-0.317 0-0 0.751-1.427 1.453-1.474z"></path>
<path fill="#444444" d="M5.455 15.057c0 0-0.272 0.227 0.431 0.772 0 0 1.479-0.287 3.743-0.567l-0.93-0.34c0 0-2.811 0.023-3.243 0.136z"></path>
<path fill="#444444" d="M4.368 16.036c-0.055 0.088-0.104 0.168-0.148 0.221-0.128 0.158-0.272 0.255-0.282 0.482-0.005 0.102 0.073 0.205 0.105 0.298 0.028 0.083 0.038 0.244 0.121 0.276 0.378 0.145 1.141-0.885 1.278-1.126 0.155-0.274-0.106-0.665-0.396-0.733-0.277-0.065-0.505 0.303-0.677 0.582z"></path>
<path fill="#444444" d="M3.583 18.872c0.181-0.3 0.454-0.677 0.434-1.044-0.004-0.075-0.234-0.692-0.239-0.689-0.376 0.19-0.596 0.654-0.738 1.023-0.134 0.348-0.343 0.799 0.208 0.932 0.048 0.012 0.086 0.016 0.118 0.011 0.107-0.015 0.142-0.108 0.218-0.233z"></path>
<path fill="#444444" d="M2.599 19.422c-0.114 0.203-0.107 0.583-0.137 0.857-0.005 0.045-0.010 0.087-0.018 0.125-0.007 0.036 0.009 0.798 0.17 0.66 0.281-0.243 0.333-0.493 0.458-0.826 0.084-0.226 0.321-0.571 0.18-0.817-0.133-0.23-0.522-0.231-0.654 0z"></path>
<path fill="#444444" d="M5.262 14.977c0 0 0.782-0.187 3.079-0.187 0 0-0.901-0.255-1.055-0.255s-1.991 0.034-2.211 0.034c0 0-0.159 0.176 0.187 0.408z"></path>
<path fill="#444444" d="M3.712 16.076c0.235 0.232 0.476-0.257 0.618-0.432 0.146-0.182 0.377-0.275 0.534-0.445 0.186-0.202 0.006-0.441-0.231-0.465-0.386-0.036-1.244 0.916-0.96 1.298 0.013 0.016 0.025 0.031 0.039 0.044z"></path>
<path fill="#444444" d="M3.321 17.149c0.135-0.17 0.411-0.409 0.425-0.639 0.017-0.269-0.335-0.405-0.517-0.255-0.179 0.15-0.739 1.049-0.559 1.274 0.212 0.263 0.533-0.232 0.65-0.379z"></path>
<path fill="#444444" d="M2.819 17.954c-0.096-0.23-0.33-0.359-0.455-0.144-0.104 0.178-0.072 0.417-0.127 0.61-0.054 0.198-0.12 0.356-0.092 0.577 0.015 0.116 0.375-0.329 0.388-0.347 0.113-0.168 0.379-0.474 0.286-0.696z"></path>
</svg>
