<?xml version="1.0" encoding="utf-8"?>
<!-- Generated by IcoMoon.io -->
<!DOCTYPE svg PUBLIC "-//W3C//DTD SVG 1.1//EN" "http://www.w3.org/Graphics/SVG/1.1/DTD/svg11.dtd">
<svg version="1.1" xmlns="http://www.w3.org/2000/svg" xmlns:xlink="http://www.w3.org/1999/xlink" width="32" height="32" viewBox="0 0 32 32">
<path fill="#444444" d="M5.201 10.69c-0.088-0.106-0.176-0.222-0.263-0.357 0 0 0.084 0.181 0.263 0.357z"></path>
<path fill="#444444" d="M24.028 13.199c-2.367-0.575-3.902-0.397-5.147-1.972 2.181-2.785 3.398-3.614 3.398-3.614l0.049 1.652 2.040-4.226-4.663 2.526 1.846-0.243c-0.942 0.774-1.99 1.973-3.045 3.359-0.397-0.655-0.768-1.531-1.132-2.727-1.765-5.797-5.343-4.372-8.5 0.486-2.045 3.146-3.195 2.719-3.671 2.251 0.746 0.897 1.519 0.786 2.376 0.159l2.209 11.892c-0.311 0.716-1.739 3.573-1.739 3.573 0.6-0.6 1.879-1.124 2.172-1.239l0.009 0.046 0.102-0.010c0.45 0.583 0.632 2.708 0.632 2.708 0-0.729 0.558-2.036 0.946-2.857l9.26-0.88c-0.543 1.895 0.528 2.912 0.528 2.912-1.311-2.769 0.304-3.413 3.401-6.509 3.132-3.133 2.331-6.46-1.069-7.287zM11.398 21.991l-1.493 0.679-2.211-11.908c0.979-0.76 2.072-2.147 3.365-3.44 3.197-3.197 4.602-0.066 5.288 2.969 0.211 0.935 0.498 1.642 0.855 2.186-3.047 4.377-5.803 9.515-5.803 9.515zM23.348 20.777c-1.23 1.23-1.859 2.291-2.141 3.172l-9.234 0.876c0.174-0.362 0.3-0.6 0.3-0.6l-0.34-1.991c2.192-4.085 4.094-7.085 5.649-9.266 0.966 1.054 2.319 1.254 3.969 1.397 2.817 0.243 5.756 2.452 1.798 6.412z"></path>
</svg>
