<?xml version="1.0" encoding="utf-8"?>
<!-- Generator: Adobe Illustrator 19.2.1, SVG Export Plug-In . SVG Version: 6.00 Build 0)  -->
<svg version="1.1" id="Calque_1" xmlns="http://www.w3.org/2000/svg" xmlns:xlink="http://www.w3.org/1999/xlink" x="0px" y="0px"
	 viewBox="0 0 4754 1024" enable-background="new 0 0 4754 1024" xml:space="preserve">
<path fill="#444444" d="M93.1,417.4h147.7v77.1H93.1V626H0V269.7h250.4v77.1H93.1L93.1,417.4z"/>
<path fill="#444444" d="M577.8,269.7v237.5c0,93.1-44.9,122-147.7,122c-141.2,0-157.3-35.3-157.3-122V269.7h93.1V504
	c0,41.7,22.5,41.7,61,41.7c41.7,0,54.6-3.2,54.6-44.9V269.7L577.8,269.7L577.8,269.7z"/>
<path fill="#444444" d="M693.3,626H597V269.7h160.5l102.7,272.8h3.2l-6.4-272.8h96.3V626H789.6l-99.5-272.8h-3.2L693.3,626z"/>
<path fill="#444444" d="M1511.9,565l-16.1,61h-99.5l105.9-356.3h144.4L1755.8,626h-96.3l-19.2-61H1511.9L1511.9,565z M1576.1,340.3
	L1576.1,340.3l-44.9,154.1h86.7L1576.1,340.3z"/>
<path fill="#444444" d="M1303.3,626h64.2l28.9-89.9c-6.4-25.7-28.9-41.7-61-41.7v-3.2c67.4-16.1,67.4-51.4,67.4-109.1
	c0-89.9-41.7-105.9-122-105.9h-183v356.3h93.1v-93.1h73.8c28.9,0,38.5,19.2,38.5,44.9L1303.3,626L1303.3,626z M1264.7,449.5h-73.8
	v-96.3h73.8c32.1,0,38.5,9.6,38.5,41.7C1306.5,433.4,1306.5,449.5,1264.7,449.5z"/>
<path fill="#444444" d="M2076.9,269.7h93.1V626h-93.1C2076.9,626,2076.9,269.7,2076.9,269.7z"/>
<path fill="#444444" d="M2202.1,497.6v-99.5c0-109.1,67.4-131.6,163.7-131.6c96.3,0,163.7,19.2,163.7,131.6v99.5
	c0,109.1-67.4,131.6-163.7,131.6C2269.5,629.2,2202.1,606.7,2202.1,497.6z M2433.2,488v-80.2c0-51.4-16.1-57.8-67.4-57.8
	c-48.1,0-64.2,6.4-67.4,57.8V488c0,54.6,16.1,57.8,67.4,57.8C2417.1,545.7,2433.2,539.3,2433.2,488z"/>
<path fill="#444444" d="M1909.9,269.7h-179.8V443l54.6,183h138c99.5,0,131.6-44.9,131.6-141.2v-73.8
	C2051.2,308.2,2006.2,269.7,1909.9,269.7z M1954.9,481.5c0,38.5-12.8,61-48.1,61h-83.5V353.2h83.5c32.1,0,48.1,9.6,48.1,54.6V481.5
	L1954.9,481.5z"/>
<path fill="#444444" d="M3845.6,491.2v9.6c0,38.5,0,73.8-32.1,99.5c-32.1,25.7-70.6,25.7-112.4,25.7c-96.3,0-166.9-3.2-166.9-134.8
	v-89.9c0-115.5,64.2-134.8,166.9-134.8c96.3,0,141.2,9.6,144.4,115.5v12.8h-96.3v-9.6c-3.2-32.1-25.7-35.3-57.8-35.3
	c-54.6,0-57.8,16.1-57.8,67.4v54.6c0,51.4,3.2,73.8,57.8,73.8c38.5,0,57.8-3.2,57.8-44.9v-9.6L3845.6,491.2L3845.6,491.2z"/>
<path fill="#444444" d="M3957.9,545.8h147.7v83.5h-240.8V272.9h93.1L3957.9,545.8z"/>
<path fill="#444444" d="M4426.6,269.7V504c0,93.1-44.9,122-147.7,122c-141.2,0-157.3-35.3-157.3-122V269.7h93.1V504
	c0,38.5,22.5,41.7,61,41.7c38.5,0,54.6-3.2,54.6-44.9V269.7L4426.6,269.7L4426.6,269.7z"/>
<path fill="#444444" d="M4449.1,269.7h186.2c70.6,0,112.4,12.8,112.4,89.9c0,44.9-9.6,73.8-54.6,80.2v3.2c51.4,3.2,61,35.3,61,80.2
	c0,86.7-41.7,99.5-115.5,99.5h-186.2V269.7L4449.1,269.7z M4542.2,410.9h67.4c32.1,0,41.7-6.4,41.7-35.3c0-22.5-3.2-28.9-28.9-28.9
	h-80.2C4542.2,346.7,4542.2,410.9,4542.2,410.9z M4542.2,545.8h70.6c32.1,0,44.9-6.4,44.9-35.3s-9.6-32.1-41.7-32.1h-73.8V545.8z"/>
<path fill="#444444" d="M3319.1,35.4c0,6.4,6.4,19.2,12.8,35.3c19.2,44.9,57.8,73.8,96.3,89.9l22.5,6.4v157.3
	c-19.2,3.2-38.5,16.1-51.4,28.9c-19.2,22.5-19.2,57.8-19.2,99.5c0,22.5,9.6,44.9,22.5,73.8c19.2,32.1,22.5,80.2,22.5,112.4
	c0,64.2-19.2,115.5-61,157.3c-19.2,19.2-38.5,35.3-54.6,48.1c-44.9,35.3-109.1,64.2-160.5,89.9c-6.4,3.2-61,28.9-122,57.8l-122-61
	c-51.4-25.7-115.5-54.6-160.5-89.9c-16.1-12.8-32.1-28.9-54.6-48.1c-38.5-41.7-61-93.1-61-157.3c0-32.1,3.2-77.1,22.5-112.4
	c12.8-28.9,22.5-48.1,22.5-73.8c0-38.5,0-77.1-19.2-99.5c-9.6-9.6-32.1-22.5-51.4-28.9V163.8l25.7-3.2
	c38.5-16.1,77.1-41.7,96.3-89.9c6.4-16.1,9.6-28.9,12.8-35.3H2950c0,3.2,0,6.4,0,9.6c0,32.1,25.7,67.4,77.1,67.4l0,0l0,0l0,0
	c51.4,0,77.1-38.5,77.1-67.4c0-3.2,0-6.4,0-9.6L3319.1,35.4L3319.1,35.4z M3348,0h-282.5l6.4,35.3c0,3.2,0,3.2,0,6.4
	c0,12.8-12.8,32.1-41.7,32.1c-32.1,0-41.7-19.2-41.7-32.1c0-3.2,0-6.4,0-6.4V0H2706l-6.4,28.9c0,3.2-3.2,9.6-9.6,28.9
	c-16.1,38.5-48.1,57.8-73.8,70.6l-22.5,6.4l-25.7,6.4v211.8l25.7,6.4c12.8,3.2,25.7,12.8,32.1,19.2c9.6,12.8,9.6,44.9,9.6,73.8
	c0,12.8-6.4,28.9-16.1,51.4l-3.2,3.2c-16.1,32.1-25.7,73.8-25.7,128.4c0,70.6,22.5,131.6,70.6,179.8c22.5,22.5,41.7,38.5,57.8,51.4
	c41.7,32.1,96.3,57.8,144.4,83.5c6.4,3.2,12.8,6.4,22.5,9.6l0,0l0,0l122,57.8l16.1,6.4l16.1-6.4c44.9-22.5,86.7-41.7,109.1-51.4
	c6.4-3.2,12.8-6.4,16.1-6.4l0,0l0,0c6.4-3.2,12.8-6.4,22.5-9.6c48.1-22.5,102.7-51.4,144.4-83.5c16.1-12.8,35.3-28.9,57.8-51.4
	c44.9-48.1,70.6-109.1,70.6-179.8c0-54.6-9.6-96.3-25.7-128.4l-3.2-3.2c-9.6-22.5-16.1-38.5-16.1-51.4c0-28.9,0-61,9.6-73.8
	c6.4-6.4,22.5-16.1,32.1-19.2l25.7-6.4V141.2l-25.7-6.4l-19.2-6.4c-25.7-9.6-57.8-28.9-73.8-67.4c-6.4-19.2-9.6-28.9-9.6-28.9
	L3348,0L3348,0z"/>
<path fill="#444444" d="M3030.2,799.3l16.1,44.9l51.4,3.2l-41.7,28.9l16.1,48.1l-41.7-28.9l-41.7,28.9l16.1-48.1l-38.5-28.9
	l48.1-3.2L3030.2,799.3z"/>
<path fill="#444444" d="M2895.4,285.7h83.5L2889,616.4h-122l-86.7-330.6h80.2l64.2,256.8h3.2C2828,542.5,2895.4,285.7,2895.4,285.7z
	"/>
<path fill="#444444" d="M3072,616.4V285.7h163.7c77.1,0,105.9,35.3,105.9,122c0,93.1-19.2,125.2-105.9,125.2h-73.8v83.5L3072,616.4
	L3072,616.4z M3213.2,452.7c32.1,0,38.5-6.4,38.5-48.1c0-35.3-6.4-44.9-38.5-44.9h-54.6v93.1H3213.2z"/>
<path fill="#444444" d="M3011,285.7l-61,211.8v118.8h89.9V285.7L3011,285.7z"/>
</svg>
