<?xml version="1.0" encoding="utf-8"?>
<!-- Generator: Adobe Illustrator 18.1.1, SVG Export Plug-In . SVG Version: 6.00 Build 0)  -->
<svg version="1.1" id="Calque_1" xmlns="http://www.w3.org/2000/svg" xmlns:xlink="http://www.w3.org/1999/xlink" x="0px" y="0px"
	 viewBox="0 0 86.9 35" enable-background="new 0 0 86.9 35" xml:space="preserve">
<g>
	<g>
		<path d="M43.5,6.1c-2.9,0-5.8,0.1-8.6,0.2C32.1,3,27.9,0.8,23.1,0.8c-6.4,0-11.9,3.9-14.2,9.4c-5.2,1.7-8.3,3.7-8.3,5.9
			c0,2.2,3.1,4.2,8.3,5.9c2.3,5.5,7.8,9.4,14.2,9.4c4.8,0,9-2.1,11.8-5.5c2.8,0.1,5.6,0.2,8.6,0.2c23.7,0,42.9-4.5,42.9-10
			C86.4,10.6,67.2,6.1,43.5,6.1z M2,16.1c0-1.7,2.3-3.3,6.4-4.7c-0.4,1.5-0.7,3-0.7,4.6c0,1.7,0.3,3.3,0.8,4.8
			C4.4,19.5,2,17.9,2,16.1z M16.5,14.4h-2.4v5.4h-2.4l0,0h-0.1v-5.4h-1.2v-1.9h1.2v-0.6c0-2,1-2.6,3.1-2.6c0.7,0,1.2,0.1,1.7,0.1
			v0.1l0,0v1.7l0,0l0,0c-0.4,0-0.7,0-1,0c-1,0-1.3,0.2-1.3,1v0.4h2.4v0.1l0,0L16.5,14.4L16.5,14.4z M26,19.8h-2.6V19v-0.4v0
			c-0.4,1-1.4,1.3-2.7,1.3l0,0c-1,0-2.1,0-2.9-0.7c-0.5-0.5-0.9-1.2-0.9-2.5v-4.2h2.6v0.1l0,0v4.1c0,0.3,0.1,0.6,0.3,0.7l0,0
			c0.3,0.2,0.7,0.3,1.3,0.3h0.6c1.1,0,1.8-0.5,1.8-1.6v-3.7H26v0.1l0,0L26,19.8L26,19.8z M33.3,19.8v-4.2c0-0.2-0.1-0.4-0.2-0.6
			c-0.2-0.3-0.7-0.5-1.5-0.5h-0.6c-1.1,0-1.8,0.5-1.8,1.6v3.7h-2.6v-7.3h2.6v0.1l0,0v1l0.1-0.2c0.5-0.8,1.3-1.1,2.6-1.1
			c1,0,2.3,0,3.1,0.9l0,0c0.4,0.5,0.7,1.2,0.7,2.3v4.2L33.3,19.8z M43.4,24.9c-2.6,0-5.2-0.1-7.7-0.1c1.7-2.5,2.7-5.4,2.7-8.7
			c0-3.1-1-6.1-2.6-8.5c2.4-0.1,5-0.1,7.5-0.1c22.9,0,41.4,3.9,41.4,8.7S66.3,24.9,43.4,24.9z M43.9,12.6h-1c-0.7,0-1.3,0.2-1.7,0.6
			c0,0-0.1,0.1-0.1,0.1v-0.5c0-0.1,0-0.1,0-0.1h-1.3v6.9h1.4v-4.3c0-0.7,0.4-1.4,1.5-1.4h0.7c1.1,0,1.6,0.1,1.9,0.4
			c0.2,0.3,0.2,0.7,0.2,1.3V16h1.3v-1c0-0.8-0.1-1.3-0.5-1.7C45.8,12.8,45.1,12.6,43.9,12.6z M66.1,12.2h1.4v-1.5h-1.4V12.2z
			 M66.1,19.5h1.4v-6.9h-1.4V19.5z M73.6,12.6h-1.5c-1.7,0-3.7,0.3-3.7,2.8v1.4c0,1,0.3,1.6,0.7,2c0.7,0.7,1.9,0.8,3,0.8h1.5
			c1.7,0,3.7-0.3,3.7-2.8v-1.4c0-0.9-0.2-1.5-0.6-1.9C76,12.7,74.7,12.6,73.6,12.6z M75.9,16.8c0,1.4-0.8,1.7-2,1.7h-2.2
			c-0.7,0-1.2-0.1-1.5-0.4c-0.3-0.2-0.5-0.7-0.5-1.3v-1.3c0-1.4,0.8-1.7,2-1.7h2.2c0.7,0,1.3,0.1,1.7,0.5c0.2,0.3,0.3,0.6,0.3,1.2
			V16.8z M52.4,12.6h-1.7c-2,0-2.9,0.5-2.9,1.8v0.5h1.4v-0.4c0-0.4,0.1-0.7,1.5-0.7h1.6c1.2,0,1.8,0.1,2,0.4
			c0.1,0.2,0.2,0.4,0.2,0.7c0,0,0,0.4,0,0.8c-0.4-0.4-1.1-0.5-2.2-0.5h-1.8c-1.8,0-3.1,0.1-3.1,1.8v0.4c0,0.8,0.2,1.3,0.6,1.7
			c0.4,0.3,0.9,0.4,1.6,0.4h2.6c1.2,0,1.8-0.1,2.2-0.4v0.3c0,0.1,0,0.1,0,0.1h1.4V15c0-0.7-0.2-1.3-0.5-1.6
			C54.8,12.7,53.6,12.6,52.4,12.6z M54.5,17.6c0,0.7-0.5,0.8-2.6,0.8h-1.4c-0.7,0-1.1-0.1-1.3-0.2C49,18.1,49,17.8,49,17.6v-0.2
			c0-0.7,0.2-0.9,1.6-0.9h1.7c1.3,0,2,0.1,2.2,0.4c0.1,0.1,0.1,0.3,0.1,0.4L54.5,17.6L54.5,17.6z M54.7,19.4L54.7,19.4
			C54.7,19.4,54.7,19.3,54.7,19.4L54.7,19.4z M63.8,13.2c-0.4-0.4-1-0.6-1.9-0.6h-1.7c-2.6,0-3.6,0.8-3.6,3v1.2
			c0,1.1,0.3,1.8,0.8,2.2c0.7,0.6,1.7,0.7,2.7,0.7h1.5c1,0,1.8-0.3,2.2-0.8v0.3c0,0.2,0,0.4,0,0.4h1.3v-8.9h-1.4
			C63.8,10.7,63.8,12.4,63.8,13.2z M63.8,16.7c0,1.2-0.6,1.7-2,1.7h-1.8c-0.8,0-1.3-0.1-1.6-0.4c-0.4-0.3-0.4-0.7-0.4-1.4v-1.3
			c0-1.4,0.7-1.6,2.1-1.6h1.5c0.9,0,1.5,0.1,1.9,0.5c0.2,0.2,0.3,0.6,0.3,1.1V16.7z M64,19L64,19L64,19L64,19z M39.5,30.1h-0.3V33
			H41v-0.3h-1.4V30.1z M41.4,33h1.8v-0.3h-1.5v-1.1h1.4v-0.3h-1.4v-1h1.5v-0.3h-1.8V33z M46.2,31.4c-0.5,0-0.8,0-0.8-0.5
			c0-0.4,0.1-0.5,0.7-0.5c0.6,0,0.7,0,0.7,0.5h0.3c0-0.8-0.4-0.8-1-0.8c-0.7,0-1,0.1-1,0.8c0,0.8,0.5,0.7,1,0.7
			c0.5,0,0.7-0.1,0.7,0.5s-0.2,0.6-0.8,0.6s-0.7,0-0.7-0.6h-0.3c-0.1,0.8,0.3,0.9,1,0.9s1.1,0,1.1-0.8
			C47.2,31.4,46.9,31.4,46.2,31.4z M49,30.1h-0.4c-0.7,0-0.9,0.2-0.9,1v1c0,0.7,0.2,1,0.9,1H49c0.7,0,0.9-0.3,0.9-1v-1
			C49.9,30.4,49.7,30.1,49,30.1z M49.6,32.1c0,0.6-0.2,0.7-0.6,0.7h-0.4c-0.4,0-0.6-0.1-0.6-0.7v-1c0-0.6,0.1-0.7,0.6-0.7H49
			c0.5,0,0.6,0.1,0.6,0.7V32.1z M52.6,32.8L52.6,32.8L51,30.1h-0.5V33h0.3v-2.6l0,0l1.6,2.6h0.5v-2.9h-0.3V32.8z M56.5,30.1h-1.4V33
			h1.5c0.8,0,1-0.4,1-1.2v-0.6C57.6,30.4,57.3,30.1,56.5,30.1z M56.9,31.9c0,0.3-0.1,0.5-0.4,0.5h-0.7v-1.5h0.7
			c0.3,0,0.4,0.1,0.4,0.4V31.9z M58.8,30.1L57.9,33h0.8l0.1-0.5h1L60,33h0.8l-0.9-2.9L58.8,30.1z M59,32l0.4-1.2l0,0l0.4,1.2H59z
			 M63.3,32.4L63.3,32.4l-0.8-2.2h-1.3V33h0.7l-0.1-2.2h0l0.8,2.2h1.3v-2.9h-0.7L63.3,32.4z M66.2,32c0,0.3-0.1,0.4-0.5,0.4
			c-0.4,0-0.5-0.2-0.5-0.6v-0.4c0-0.4,0-0.5,0.5-0.5c0.3,0,0.4,0,0.4,0.3v0.1H67v-0.1c0-0.9-0.4-1-1.2-1c-0.8,0-1.3,0.1-1.3,1.1V32
			c0,1.1,0.6,1.1,1.3,1.1c0.3,0,0.6,0,0.9-0.2S67,32.3,67,32v-0.1L66.2,32L66.2,32L66.2,32z M68.3,31.8h1.2v-0.5h-1.2v-0.5h1.3v-0.6
			h-2V33h2v-0.6h-1.3V31.8z M70.2,33H71V32h1.2v-0.6H71v-0.6h1.2v-0.6h-2V33z M73.5,30.1h-0.7V33h1.9v-0.7h-1.2V30.1z M76.4,30.1
			c-0.8,0-1.3,0.2-1.3,1.1V32c0,0.9,0.5,1.1,1.3,1.1s1.3-0.2,1.3-1.1v-0.8C77.7,30.3,77.1,30.1,76.4,30.1z M76.9,31.9
			c0,0.4-0.1,0.5-0.5,0.5c-0.4,0-0.5,0-0.5-0.5v-0.7c0-0.4,0.1-0.5,0.5-0.5c0.4,0,0.5,0,0.5,0.5V31.9z M79.4,30.1
			c-0.8,0-1.3,0.2-1.3,1.1V32c0,0.9,0.5,1.1,1.3,1.1s1.3-0.2,1.3-1.1v-0.8C80.7,30.3,80.2,30.1,79.4,30.1z M79.9,31.9
			c0,0.4-0.1,0.5-0.5,0.5c-0.4,0-0.5,0-0.5-0.5v-0.7c0-0.4,0.1-0.5,0.5-0.5c0.4,0,0.5,0,0.5,0.5V31.9z M83.7,31c0-0.7-0.3-0.9-1-0.9
			h-1.5v2.9H82v-0.8h0.6c0.2,0,0.3,0.1,0.3,0.4v0.4h0.7v-0.6c0-0.3-0.2-0.5-0.5-0.5v-0.1C83.7,31.8,83.7,31.5,83.7,31z M82.6,31.6
			H82v-0.8h0.6c0.2,0,0.3,0.1,0.3,0.3C82.9,31.5,82.9,31.6,82.6,31.6z"/>
	</g>
</g>
</svg>