<?xml version="1.0" encoding="utf-8"?>
<!-- Generator: Adobe Illustrator 24.3.0, SVG Export Plug-In . SVG Version: 6.00 Build 0)  -->
<svg version="1.1" id="Calque_1" xmlns="http://www.w3.org/2000/svg" xmlns:xlink="http://www.w3.org/1999/xlink" x="0px" y="0px"
	 viewBox="0 0 2720 1024" style="enable-background:new 0 0 2720 1024;" xml:space="preserve">
<style type="text/css">
	.st0{fill:#444444;}
</style>
<g>
	<g>
		<path class="st0" d="M1360.6,168.8c-91.9,0-183.9,3.2-272.6,6.3C999.2,70.5,866.1,0.8,713.9,0.8c-202.9,0-377.3,123.6-450.2,298
			C98.9,352.7,0.6,416.1,0.6,485.9s98.3,133.2,263.1,187c72.9,174.4,247.3,298,450.2,298c152.2,0,285.3-66.6,374.1-174.4
			c88.8,3.2,177.5,6.3,272.6,6.3c751.4,0,1360-142.7,1360-317S2112,168.8,1360.6,168.8z M45,485.9c0-53.9,72.9-104.6,202.9-149
			c-12.7,47.6-22.2,95.1-22.2,145.8c0,53.9,9.5,104.6,25.4,152.2C121.1,593.6,45,542.9,45,485.9z M504.7,432h-76.1v171.2h-76.1l0,0
			h-3.2V432h-38v-60.2h38v-19c0-63.4,31.7-82.4,98.3-82.4c22.2,0,38,3.2,53.9,3.2v3.2l0,0v53.9l0,0l0,0c-12.7,0-22.2,0-31.7,0
			c-31.7,0-41.2,6.3-41.2,31.7v12.7h76.1v3.2l0,0L504.7,432L504.7,432z M805.9,603.2h-82.4v-25.4v-12.7l0,0
			c-12.7,31.7-44.4,41.2-85.6,41.2l0,0c-31.7,0-66.6,0-91.9-22.2c-15.9-15.9-28.5-38-28.5-79.3V371.7h82.4v3.2l0,0v130
			c0,9.5,3.2,19,9.5,22.2l0,0c9.5,6.3,22.2,9.5,41.2,9.5h19c34.9,0,57.1-15.9,57.1-50.7V368.6H806v3.2l0,0L805.9,603.2L805.9,603.2z
			 M1037.3,603.2V470c0-6.3-3.2-12.7-6.3-19c-6.3-9.5-22.2-15.9-47.6-15.9h-19c-34.9,0-57.1,15.9-57.1,50.7v117.3h-82.4V371.7h82.4
			v3.2l0,0v31.7l3.2-6.3c15.9-25.4,41.2-34.9,82.4-34.9c31.7,0,72.9,0,98.3,28.5l0,0c12.7,15.9,22.2,38,22.2,72.9V600L1037.3,603.2z
			 M1357.5,764.8c-82.4,0-164.9-3.2-244.1-3.2c53.9-79.3,85.6-171.2,85.6-275.8c0-98.3-31.7-193.4-82.4-269.5
			c76.1-3.2,158.5-3.2,237.8-3.2c726,0,1312.5,123.6,1312.5,275.8S2083.5,764.8,1357.5,764.8z M1373.3,374.9h-31.7
			c-22.2,0-41.2,6.3-53.9,19l-3.2,3.2v-15.9c0-3.2,0-3.2,0-3.2h-41.2v218.7h44.4V460.5c0-22.2,12.7-44.4,47.6-44.4h22.2
			c34.9,0,50.7,3.2,60.2,12.7c6.3,9.5,6.3,22.2,6.3,41.2v12.7h41.2V451c0-25.4-3.2-41.2-15.9-53.9
			C1433.6,381.2,1411.4,374.9,1373.3,374.9z M2077.1,362.2h44.4v-47.6h-44.4V362.2z M2077.1,593.6h44.4V374.9h-44.4V593.6z
			 M2314.9,374.9h-47.6c-53.9,0-117.3,9.5-117.3,88.8V508c0,31.7,9.5,50.7,22.2,63.4c22.2,22.2,60.2,25.4,95.1,25.4h47.6
			c53.9,0,117.3-9.5,117.3-88.8v-44.4c0-28.5-6.3-47.6-19-60.2C2391,378.1,2349.8,374.9,2314.9,374.9z M2387.8,508
			c0,44.4-25.4,53.9-63.4,53.9h-69.7c-22.2,0-38-3.2-47.6-12.7c-9.5-6.3-15.9-22.2-15.9-41.2v-41.2c0-44.4,25.4-53.9,63.4-53.9h69.7
			c22.2,0,41.2,3.2,53.9,15.9c6.3,9.5,9.5,19,9.5,38V508H2387.8z M1642.8,374.9h-53.9c-63.4,0-91.9,15.9-91.9,57.1v15.9h44.4v-12.7
			c0-12.7,3.2-22.2,47.6-22.2h50.7c38,0,57.1,3.2,63.4,12.7c3.2,6.3,6.3,12.7,6.3,22.2c0,0,0,12.7,0,25.4
			c-12.7-12.7-34.9-15.9-69.7-15.9h-57.1c-57.1,0-98.3,3.2-98.3,57.1v12.7c0,25.4,6.3,41.2,19,53.9c12.7,9.5,28.5,12.7,50.7,12.7
			h82.4c38,0,57.1-3.2,69.7-12.7v9.5c0,3.2,0,3.2,0,3.2h44.4V451c0-22.2-6.3-41.2-15.9-50.7C1718.9,378.1,1680.8,374.9,1642.8,374.9
			z M1709.4,533.4c0,22.2-15.9,25.4-82.4,25.4h-44.4c-22.2,0-34.9-3.2-41.2-6.3c-6.3-3.2-6.3-12.7-6.3-19v-6.3
			c0-22.2,6.3-28.5,50.7-28.5h53.9c41.2,0,63.4,3.2,69.7,12.7c3.2,3.2,3.2,9.5,3.2,12.7L1709.4,533.4L1709.4,533.4z M1715.7,590.5
			L1715.7,590.5C1715.7,590.5,1715.7,587.3,1715.7,590.5L1715.7,590.5z M2004.2,393.9c-12.7-12.7-31.7-19-60.2-19h-53.9
			c-82.4,0-114.1,25.4-114.1,95.1v38c0,34.9,9.5,57.1,25.4,69.7c22.2,19,53.9,22.2,85.6,22.2h47.6c31.7,0,57.1-9.5,69.7-25.4v9.5
			c0,6.3,0,12.7,0,12.7h41.2v-282H2001C2004.2,314.7,2004.2,368.6,2004.2,393.9z M2004.2,504.9c0,38-19,53.9-63.4,53.9h-57.1
			c-25.4,0-41.2-3.2-50.7-12.7c-12.7-9.5-12.7-22.2-12.7-44.4v-41.2c0-44.4,22.2-50.7,66.6-50.7h47.6c28.5,0,47.6,3.2,60.2,15.9
			c6.3,6.3,9.5,19,9.5,34.9V504.9z M2010.6,577.8L2010.6,577.8L2010.6,577.8L2010.6,577.8z"/>
	</g>
</g>
</svg>
