<?xml version="1.0" encoding="utf-8"?>
<!-- Generator: Adobe Illustrator 19.2.1, SVG Export Plug-In . SVG Version: 6.00 Build 0)  -->
<svg version="1.1" id="Calque_1" xmlns="http://www.w3.org/2000/svg" xmlns:xlink="http://www.w3.org/1999/xlink" x="0px" y="0px"
	 viewBox="0 0 1024 1024" enable-background="new 0 0 1024 1024" xml:space="preserve">
<path fill="#444444" d="M963.8,0H78.3C39.1,0,0,21.1,0,60.2v882.5c0,39.2,39.2,81.3,78.3,81.3h885.5c39.2,0,60.2-42.2,60.2-81.3
	V60.2C1024,21.1,1002.9,0,963.8,0z M277.1,472.8h-84.3v192.8h-90.4V472.8H60.2v-66.3h42.2v-21.1c0-72.3,33.1-93.4,111.4-93.4
	c24.1,0,42.2,3,60.2,3v66.3c-12,0-27.1-3-36.1-3c-36.1,0-45.2,6-45.2,33.1v12h84.3L277.1,472.8L277.1,472.8z M614.4,668.6h-90.4
	v-42.2c-15.1,36.1-48.2,45.2-96.4,45.2c-33.1,0-75.3,0-102.4-27.1c-18.1-18.1-30.1-45.2-30.1-90.4V403.6h90.4v150.6
	c0,12,3,21.1,12,27.1c9,9,24.1,12,45.2,12h21.1c39.2,0,60.2-18.1,60.2-57.2V403.6h90.4V668.6L614.4,668.6z M963.8,668.6h-90.4V518
	c0-9-3-15.1-6-21.1c-9-12-27.1-15.1-51.2-15.1h-21.1c-39.2,0-60.2,18.1-60.2,57.2v132.5h-90.4v-262h90.4v42.2l6-9
	c18.1-30.1,48.2-39.2,93.4-39.2c36.1,0,81.3,0,108.4,30.1c15.1,18.1,27.1,42.2,27.1,84.3v150.6L963.8,668.6z"/>
</svg>
