<?xml version="1.0" encoding="utf-8"?>
<!-- Generated by IcoMoon.io -->
<!DOCTYPE svg PUBLIC "-//W3C//DTD SVG 1.1//EN" "http://www.w3.org/Graphics/SVG/1.1/DTD/svg11.dtd">
<svg version="1.1" xmlns="http://www.w3.org/2000/svg" xmlns:xlink="http://www.w3.org/1999/xlink" width="2720" height="1024" viewBox="0 0 2720 1024">
<g id="icomoon-ignore">
</g>
<path d="M1355.075 169.734c-92.328 0-181.858 1.865-268.59 6.528-88.597-105.384-221.96-172.532-371.177-172.532-200.51 0-373.042 121.239-445.785 294.703-164.138 52.226-261.129 115.643-261.129 185.588 0 69.013 96.991 133.362 261.129 185.588 72.743 172.532 245.275 293.77 445.785 293.77 149.217 0 282.579-67.148 371.177-172.532 86.732 3.73 177.195 6.528 269.523 6.528 744.219 0 1347.614-139.891 1347.614-313.355-0.933-174.397-604.328-314.288-1348.546-314.288zM53.158 484.954c0-54.091 73.676-104.452 200.51-146.419-13.989 45.698-22.383 94.193-22.383 143.621 0 52.226 8.393 102.587 24.248 150.149-127.767-42.9-202.375-93.26-202.375-147.352zM507.337 430.863h-76.474v169.734h-81.137v-170.667h-36.372v-59.687h36.372v-17.719c0-63.417 30.776-82.069 97.923-82.069 21.45 0 38.237 1.865 54.091 1.865v58.754c0 0 0 0 0 0v0c-11.191 0-23.315-0.933-32.641-0.933-31.709 0-40.102 6.528-40.102 29.843v11.191h76.474v59.687zM805.77 600.597h-80.204v-36.372c-13.989 31.709-42.9 40.102-85.8 40.102v0c-29.843 0-67.148-0.933-92.328-23.315-16.787-14.922-27.046-39.169-27.046-78.339v-131.497h80.204v132.43c0 10.259 3.73 17.719 10.259 23.315 0 0 0 0 0 0 8.393 6.528 22.383 9.326 41.035 9.326h18.652c34.506 0 55.024-16.787 55.024-50.361v-115.643h80.204v230.353zM1036.124 600.597v-131.497c0-7.461-1.865-13.989-6.528-19.585-7.461-9.326-22.383-14.922-45.698-14.922h-18.652c-34.506 0-55.024 16.787-55.024 50.361v115.643h-80.204v-229.421h80.204v36.372l3.73-6.528c14.922-26.113 41.967-33.574 82.069-33.574 31.709 0 70.878 0.933 96.058 27.046 0 0 0.933 0.933 0.933 0.933 13.989 14.922 22.383 38.237 22.383 73.676v131.497h-79.271zM1353.209 759.14c-82.069 0-162.273-1.865-240.612-4.663 54.091-77.406 85.8-170.667 85.8-272.321 0-98.856-29.843-191.184-82.069-266.725 76.474-2.798 155.745-4.663 236.882-4.663 718.106 0 1300.051 123.104 1300.051 274.186s-581.945 274.186-1300.051 274.186zM1368.131 373.042h-31.709c-23.315 0-41.035 6.528-53.158 18.652-0.933 0.933-2.798 1.865-4.663 4.663v-14.922c0-2.798 0-4.663 0-4.663h-41.967v215.432h43.832v-135.228c0-20.517 13.056-44.765 48.495-44.765h21.45c33.574 0 50.361 1.865 58.754 13.056 5.596 8.393 7.461 20.517 7.461 41.035v13.989h41.967v-29.843c0-24.248-4.663-41.035-15.854-53.158-13.989-17.719-38.237-24.248-74.608-24.248zM2064.787 361.851h43.832v-47.563h-43.832v47.563zM2064.787 591.271h43.832v-216.364h-43.832v216.364zM2299.803 373.042h-48.495c-54.091 0-116.576 10.259-116.576 88.597v44.765c0 29.843 9.326 50.361 23.315 63.417 23.315 21.45 59.687 25.18 93.26 25.18h48.495c54.091 0 116.576-10.259 116.576-88.597v-44.765c0-27.046-7.461-45.698-19.585-58.754-22.383-25.18-61.552-29.843-96.991-29.843zM2372.546 504.539c0 43.832-24.248 52.226-62.485 52.226h-69.013c-20.517 0-37.304-2.798-47.563-11.191-9.326-7.461-14.922-20.517-14.922-41.035v-41.035c0-43.832 24.248-52.226 62.485-52.226h69.013c23.315 0 41.967 3.73 52.226 15.854 6.528 8.393 10.259 19.585 10.259 36.372v41.035zM1633.923 373.042h-54.091c-63.417 0-89.53 16.787-89.53 57.821v14.922h43.832v-12.124c0-12.124 3.73-22.383 45.698-22.383h50.361c36.372 0 55.956 2.798 64.35 13.989 3.73 5.596 5.596 13.056 5.596 23.315 0 0 0 13.989 0 25.18-13.989-13.989-33.574-16.787-68.080-16.787h-55.024c-56.889 0-96.991 3.73-96.991 56.889v13.989c0 24.248 5.596 41.035 18.652 52.226 11.191 10.259 27.978 13.989 51.293 13.989h81.137c39.169 0 56.889-2.798 68.080-13.989v8.393c0 1.865 0 2.798 0 2.798h43.832v-142.689c0-23.315-6.528-40.102-16.787-51.293-17.719-21.45-55.024-24.248-92.328-24.248zM1701.071 531.585c0 20.517-16.787 25.18-80.204 25.18h-44.765c-23.315 0-35.439-2.798-41.967-6.528-6.528-4.663-7.461-12.124-7.461-20.517v-7.461c0-20.517 7.461-27.046 51.293-27.046h52.226c41.967 0 61.552 2.798 68.080 13.056 2.798 3.73 3.73 8.393 3.73 13.989v9.326zM1705.734 585.676v0c0 0 0-0.933 0 0v0zM1992.976 391.694c-11.191-13.056-29.843-18.652-60.619-18.652h-52.226c-83.002 0-111.913 24.248-111.913 94.193v36.372c0 33.574 9.326 55.024 24.248 68.080 21.45 19.585 53.158 23.315 84.867 23.315h47.563c32.641 0 55.956-8.393 69.013-24.248v9.326c0 5.596 0 12.124 0 12.124h41.967v-277.916h-43.832c0.933 0 0.933 52.226 0.933 77.406zM1992.976 502.674c0 38.237-17.719 54.091-61.552 54.091h-55.024c-24.248 0-40.102-3.73-49.428-11.191-11.191-8.393-13.989-23.315-13.989-42.9v-40.102c0-43.832 20.517-51.293 65.282-51.293h45.698c28.911 0 48.495 2.798 59.687 16.787 6.528 7.461 9.326 19.585 9.326 35.439v39.169zM1999.505 574.485v0 0c0 0 0 0 0 0zM1231.038 924.211h-10.259v90.463h55.024v-9.326h-44.765v-81.137zM1288.86 1014.674h56.889v-9.326h-46.63v-33.574h44.765v-8.393h-44.765v-30.776h46.63v-9.326h-56.889v91.395zM1440.874 964.313c-16.787-0.933-24.248 0.933-24.248-16.787 0-12.124 2.798-14.922 22.383-14.922 18.652 0 21.45 0.933 22.383 16.787h10.259c0.933-24.248-13.056-25.18-31.709-25.18-21.45 0-32.641 1.865-32.641 26.113s14.922 21.45 32.641 23.315c15.854 0.933 23.315-1.865 23.315 15.854s-5.596 17.719-24.248 17.719c-18.652 0-22.383 0-22.383-19.585h-10.259c-1.865 26.113 10.259 28.911 32.641 28.911s34.506-0.933 34.506-26.113c-0.933-26.113-11.191-25.18-32.641-26.113zM1527.607 923.279h-12.124c-22.383 0-28.911 7.461-28.911 30.776v32.641c0 21.45 7.461 29.843 28.911 29.843h12.124c21.45 0 28.911-8.393 28.911-29.843v-32.641c0-22.383-6.528-29.843-28.911-30.776zM1546.259 986.696c0 17.719-5.596 20.517-18.652 20.517h-12.124c-13.056 0-18.652-1.865-18.652-20.517v-32.641c0-17.719 3.73-21.45 18.652-21.45h12.124c14.922 0 18.652 3.73 18.652 21.45v32.641zM1641.384 1007.213v0l-49.428-83.002h-16.787v90.463h10.259v-82.069l49.428 82.069h16.787v-90.463h-10.259v83.002zM1763.556 924.211h-44.765v90.463h48.495c24.248 0 32.641-12.124 32.641-36.372v-18.652c-0.933-26.113-12.124-35.439-36.372-35.439zM1774.747 978.302c0 9.326-2.798 15.854-12.124 15.854h-20.517v-48.495h20.517c8.393 0 12.124 2.798 12.124 13.989v18.652zM1834.434 924.211l-26.113 90.463h24.248l4.663-15.854h31.709l4.663 15.854h24.248l-27.046-90.463h-36.372zM1841.894 982.033l11.191-39.169 11.191 39.169h-22.383zM1975.257 994.157h-0.933l-25.18-69.945h-40.102v90.463h23.315l-1.865-69.945h0.933l25.18 69.945h40.102v-90.463h-23.315l1.865 69.945zM2068.517 982.965c0 10.259-4.663 11.191-14.922 11.191-13.989 0-14.922-5.596-14.922-18.652v-13.989c0-13.056 0.933-16.787 14.922-16.787 8.393 0 13.989 0.933 13.989 8.393v3.73h24.248v-3.73c-0.933-27.046-12.124-29.843-36.372-29.843-26.113 0-41.967 4.663-41.967 34.506v23.315c0 33.574 17.719 34.506 41.967 34.506 10.259 0 19.585 0 27.978-6.528s8.393-15.854 8.393-26.113v-2.798h-24.248v2.798zM2133.8 977.37h37.304v-16.787h-37.304v-16.787h40.102v-19.585h-63.417v90.463h64.35v-19.585h-41.035v-17.719zM2194.419 1014.674h23.315v-33.574h36.372v-19.585h-36.372v-17.719h39.169v-19.585h-62.485v90.463zM2297.005 924.211h-23.315v90.463h60.619v-21.45h-37.304v-69.013zM2386.536 923.279c-24.248 0-41.035 5.596-41.035 33.574v26.113c0 27.978 16.787 33.574 41.035 33.574s41.035-5.596 41.035-33.574v-26.113c0-27.978-16.787-33.574-41.035-33.574zM2403.322 980.168c0 13.989-4.663 14.922-16.787 14.922s-15.854-0.933-16.787-14.922v-20.517c0-13.056 4.663-14.922 16.787-14.922s16.787 0.933 16.787 14.922v20.517zM2482.594 923.279c-24.248 0-41.035 5.596-41.035 33.574v26.113c0 27.978 16.787 33.574 41.035 33.574s41.035-5.596 41.035-33.574v-26.113c-0.933-27.978-17.719-33.574-41.035-33.574zM2498.448 980.168c0 13.989-4.663 14.922-16.787 14.922s-15.854-0.933-16.787-14.922v-20.517c0-13.056 4.663-14.922 16.787-14.922s16.787 0.933 16.787 14.922v20.517zM2615.956 952.189c0-22.383-10.259-27.046-30.776-27.046h-45.698v90.463h23.315v-24.248h18.652c7.461 0 10.259 4.663 9.326 11.191v13.056h23.315v-18.652c0-10.259-6.528-15.854-15.854-15.854v-1.865c17.719-3.73 17.719-12.124 17.719-27.046zM2581.45 969.909h-18.652v-24.248h18.652c7.461 0 10.259 1.865 10.259 10.259 0 10.259 0 13.989-10.259 13.989z"></path>
</svg>
