<?xml version="1.0" encoding="utf-8"?>
<!-- Generator: Adobe Illustrator 19.2.1, SVG Export Plug-In . SVG Version: 6.00 Build 0)  -->
<svg version="1.1" id="Calque_1" xmlns="http://www.w3.org/2000/svg" xmlns:xlink="http://www.w3.org/1999/xlink" x="0px" y="0px"
	 viewBox="0 0 2441 1024" enable-background="new 0 0 2441 1024" xml:space="preserve">
<path fill="#444444" d="M112.7,1013.7h245.7V491.5h232.1V307.2H358.4v-34.1c0-71.7,23.9-92.2,119.5-92.2c30.7,0,64.8,3.4,99,3.4V6.8
	c-51.2,0-99-6.8-167.3-6.8C204.8,0,109.2,58,109.2,252.6v54.6H0v184.3h112.6L112.7,1013.7L112.7,1013.7z"/>
<path fill="#444444" d="M989.9,1024c129.7,0,218.5-27.3,259.4-122.9v-3.4v119.5h245.7v-710h-245.7v355
	c0,102.4-61.4,153.6-167.3,153.6h-54.6c-58,0-99-10.2-126.3-30.7c-20.5-17.1-30.7-40.9-30.7-71.7V307.2H624.7v406.2
	c0,119.5,34.1,194.6,81.9,238.9C785.1,1020.6,897.8,1024,989.9,1024L989.9,1024z"/>
<path fill="#444444" d="M2368.9,382.3c-75.1-81.9-194.6-85.3-293.5-85.3c-119.5,0-201.4,20.5-249.2,102.4l-13.6,20.5V307.2h-242.3
	v706.6h245.7v-355c0-102.4,61.4-153.6,167.3-153.6h54.6c71.7,0,116.1,13.6,140,44.4c13.6,17.1,17.1,34.1,17.1,58v406.2h245.7V607.6
	C2437.2,498.4,2409.9,426.7,2368.9,382.3L2368.9,382.3z"/>
</svg>
