<?xml version="1.0" encoding="utf-8"?>
<!-- Generator: Adobe Illustrator 19.2.1, SVG Export Plug-In . SVG Version: 6.00 Build 0)  -->
<svg version="1.1" id="Calque_1" xmlns="http://www.w3.org/2000/svg" xmlns:xlink="http://www.w3.org/1999/xlink" x="0px" y="0px"
	 viewBox="0 0 1354 1024" enable-background="new 0 0 1354 1024" xml:space="preserve">
<path fill="#444444" d="M1353.4,312.2l0.5-170.3l-25.8-7.5c-40.3-16.1-81.1-45.7-103.2-95.1c-7-18.3-11.3-31.7-12.9-39.2H985.4
	c0.5,2.7-0.5,5.9-0.5,9.1c0,33.9-27.9,73.6-83.8,73.6s-86.5-39.8-86.5-73.6c0-3.2-1.1-5.9-0.5-9.1H586.8l-0.5,2.7
	c-2.7,11.3-12.9,50-42.4,83.3c-3.2,3.8-6.5,8.1-9.7,12.4c-9.1,9.1-17.2,14-25.3,17.2c-15.6,9.1-40.8,22.6-63.4,26.9v90.3
	c-13.4-2.1-27.4-3.2-41.4-3.2c-171.4,0-285.3,163.8-125.7,452.9c53.7,97.8-58,120.9-171.4,146.1C-9,854.8,0.2,914.9,0.2,1024h808.5
	c0-15.6,0-30.6,0-44.6c24.2,11.3,55.9,26.9,91.3,44.6c67.2-32.3,123.6-58,132.2-62.3c55.3-27.9,124.1-59.7,173-96.2
	c17.2-12.9,36-30.1,57.5-51.6c42.4-44,63.9-99.9,63.9-167.1c0-34.9-3.8-83.8-23.1-119.8c-13.4-29.5-24.7-52.7-24.7-77.9
	c0-43,0.5-82.7,22-106.4C1311.5,330.4,1333.6,317.5,1353.4,312.2L1353.4,312.2z M1278.2,321.3l-0.5,0.5
	c-30.1,32.8-30.1,82.7-30.1,126.8c0,29.5,11.3,54.8,24.7,83.8l2.7,5.9l1.1,2.1c12.9,23.6,19.4,60.2,19.4,105.8
	c0,59.7-18.3,108-55.3,146.1c-19.9,20.4-38.1,36.5-53.7,48.4c-39.8,29.5-96.2,57.5-145.1,81.7l-22.6,11.3c-2.1,1.1-7.5,3.2-15,7
	c-21,9.7-59.1,27.4-103.7,48.9c-37.6-18.3-69.8-33.9-92.4-44.6c-3.8-60.7-22-98.3-106.4-117.1c-60.7-14-119.3-26.9-153.7-50
	c-10.8-12.4-15-19.4-16.1-21.5l-1.6-1.6l-1.1-1.6c-3.2-4.3-9.1-21-12.9-31.1c1.1-11.8,4.8-25.8,13.4-40.8
	c135.4-250.9,70.9-402.4-54.3-442.1v-74.7c18.8-7,36.5-16.1,47.3-22.6c9.1-4.3,21-10.8,33.3-23.1l1.1-1.1c3.8-4.3,7-8.6,10.2-12.9
	c22.6-26.3,35.5-55.3,42.4-74.7h177.3c10.8,43,52.1,82.7,113.9,82.7s102.1-39.2,111.7-82.7h177.3c2.1,5.9,4.3,12.4,7,19.9l1.1,2.1
	c28.5,63.4,80.6,95.1,119.8,110.7l1.1,0.5l1.6,0.5l3.8,1.1l-0.5,126.8C1306.1,299.3,1290,310.1,1278.2,321.3L1278.2,321.3
	L1278.2,321.3z"/>
<path fill="#444444" d="M786.1,539.9l85.4-312.7h-79l-63.4,240.7H727l-61.8-240.7h-77.9l84.9,312.7H786.1z"/>
<path fill="#444444" d="M1041.3,459.9h69.8c82.2,0,101-30.1,101-117.7c0-81.7-27.4-114.4-101-114.4H956.4V540h84.9L1041.3,459.9
	L1041.3,459.9z M1041.3,299.8h50c30.6,0,35.5,10.2,35.5,41.9c0,40.3-4.3,44-35.5,45.7h-50V299.8z"/>
<path fill="#444444" d="M842.5,539.9h85.4V227.2H900l-57.5,199.9V539.9z"/>
<path fill="#444444" d="M690.4,679.6c0,19.9-9.1,21-27.9,21c-27.4,0-28.5-9.7-28.5-34.9v-26.3c0-24.2,2.7-31.7,28.5-31.7
	c15.6,0,26.3,1.1,27.9,16.1v6.5h47.3v-6.5c-1.1-50.5-22.6-54.8-69.8-54.8c-50,0-80.6,8.1-80.6,63.4v43.5c0,61.3,33.9,63.4,80.6,63.4
	c19.9,0,38.7,0,54.3-12.4c15.6-12.9,15.6-29.5,15.6-47.8v-4.8h-47.3V679.6L690.4,679.6z"/>
<path fill="#444444" d="M877.9,700h-73.6V568.9h-46.8v170.3h120.3V700z"/>
<path fill="#444444" d="M999.3,678.5c0,19.9-7,21.5-26.3,21.5s-30.6,0-30.6-19.4V568.9h-47.3v112.8c0,40.8,7.5,57.5,77.4,57.5
	c51,0,73-12.4,73-57.5V568.9h-46.8v109.6H999.3z"/>
<path fill="#444444" d="M1184.2,653.8v-1.6c23.1-3.8,27.4-17.7,27.4-39.2c0-37.1-20.4-43.5-55.3-43.5h-92.4v170.3h93.5
	c37.1,0,57.5-5.9,57.5-47.3C1214.8,670.5,1210.5,655.4,1184.2,653.8z M1111.1,606h39.2c12.9,0.5,14.5,4.3,14.5,14.5
	c0,13.4-3.8,16.1-20.4,16.1h-33.9V606H1111.1z M1146,702.2h-35.5v-33.3h36.5c15,0,20.4,2.1,20.4,16.1
	C1168,698.9,1161.6,702.2,1146,702.2L1146,702.2z"/>
<path fill="#444444" d="M913.4,882.7l-10.8-31.1l-10.8,31.1l-33.3,0.5l26.3,20.4l-9.7,31.7l27.4-19.4l27.4,19.4l-9.7-31.7l26.3-20.4
	L913.4,882.7z"/>
</svg>
