<?xml version="1.0" encoding="utf-8"?>
<!-- Generated by IcoMoon.io -->
<!DOCTYPE svg PUBLIC "-//W3C//DTD SVG 1.1//EN" "http://www.w3.org/Graphics/SVG/1.1/DTD/svg11.dtd">
<svg version="1.1" xmlns="http://www.w3.org/2000/svg" xmlns:xlink="http://www.w3.org/1999/xlink" width="85" height="32" viewBox="0 0 85 32">
<path fill="#444444" d="M42.346 5.304c-2.885 0-5.683 0.058-8.393 0.204-2.769-3.293-6.936-5.392-11.599-5.392-6.266 0-11.658 3.789-13.931 9.209-5.129 1.632-8.16 3.614-8.16 5.8 0 2.157 3.031 4.168 8.16 5.8 2.273 5.392 7.665 9.18 13.931 9.18 4.663 0 8.831-2.098 11.599-5.392 2.71 0.117 5.537 0.204 8.423 0.204 23.257 0 42.113-4.372 42.113-9.792-0.029-5.45-18.885-9.822-42.142-9.822zM1.661 15.155c0-1.69 2.302-3.264 6.266-4.576-0.437 1.428-0.699 2.944-0.699 4.488 0 1.632 0.262 3.206 0.758 4.692-3.993-1.341-6.324-2.914-6.324-4.605zM15.854 13.464h-2.39v5.304h-2.536v-5.333h-1.137v-1.865h1.137v-0.554c0-1.982 0.962-2.565 3.060-2.565 0.67 0 1.195 0.058 1.69 0.058v1.836c0 0 0 0 0 0v0c-0.35 0-0.729-0.029-1.020-0.029-0.991 0-1.253 0.204-1.253 0.933v0.35h2.39v1.865zM25.18 18.769h-2.506v-1.137c-0.437 0.991-1.341 1.253-2.681 1.253v0c-0.933 0-2.098-0.029-2.885-0.729-0.525-0.466-0.845-1.224-0.845-2.448v-4.109h2.506v4.138c0 0.321 0.117 0.554 0.321 0.729 0 0 0 0 0 0 0.262 0.204 0.699 0.291 1.282 0.291h0.583c1.078 0 1.72-0.525 1.72-1.574v-3.614h2.506v7.199zM32.379 18.769v-4.109c0-0.233-0.058-0.437-0.204-0.612-0.233-0.291-0.699-0.466-1.428-0.466h-0.583c-1.078 0-1.72 0.525-1.72 1.574v3.614h-2.506v-7.169h2.506v1.137l0.117-0.204c0.466-0.816 1.311-1.049 2.565-1.049 0.991 0 2.215 0.029 3.002 0.845 0 0 0.029 0.029 0.029 0.029 0.437 0.466 0.699 1.195 0.699 2.302v4.109h-2.477zM42.288 23.723c-2.565 0-5.071-0.058-7.519-0.146 1.69-2.419 2.681-5.333 2.681-8.51 0-3.089-0.933-5.974-2.565-8.335 2.39-0.087 4.867-0.146 7.403-0.146 22.441 0 40.627 3.847 40.627 8.568s-18.186 8.568-40.627 8.568zM42.754 11.658h-0.991c-0.729 0-1.282 0.204-1.661 0.583-0.029 0.029-0.087 0.058-0.146 0.146v-0.466c0-0.087 0-0.146 0-0.146h-1.311v6.732h1.37v-4.226c0-0.641 0.408-1.399 1.515-1.399h0.67c1.049 0 1.574 0.058 1.836 0.408 0.175 0.262 0.233 0.641 0.233 1.282v0.437h1.311v-0.933c0-0.758-0.146-1.282-0.495-1.661-0.437-0.554-1.195-0.758-2.331-0.758zM64.525 11.308h1.37v-1.486h-1.37v1.486zM64.525 18.477h1.37v-6.761h-1.37v6.761zM71.869 11.658h-1.515c-1.69 0-3.643 0.321-3.643 2.769v1.399c0 0.933 0.291 1.574 0.729 1.982 0.729 0.67 1.865 0.787 2.914 0.787h1.515c1.69 0 3.643-0.321 3.643-2.769v-1.399c0-0.845-0.233-1.428-0.612-1.836-0.699-0.787-1.924-0.933-3.031-0.933zM74.142 15.767c0 1.37-0.758 1.632-1.953 1.632h-2.157c-0.641 0-1.166-0.087-1.486-0.35-0.291-0.233-0.466-0.641-0.466-1.282v-1.282c0-1.37 0.758-1.632 1.953-1.632h2.157c0.729 0 1.311 0.117 1.632 0.495 0.204 0.262 0.321 0.612 0.321 1.137v1.282zM51.060 11.658h-1.69c-1.982 0-2.798 0.525-2.798 1.807v0.466h1.37v-0.379c0-0.379 0.117-0.699 1.428-0.699h1.574c1.137 0 1.749 0.087 2.011 0.437 0.117 0.175 0.175 0.408 0.175 0.729 0 0 0 0.437 0 0.787-0.437-0.437-1.049-0.525-2.127-0.525h-1.72c-1.778 0-3.031 0.117-3.031 1.778v0.437c0 0.758 0.175 1.282 0.583 1.632 0.35 0.321 0.874 0.437 1.603 0.437h2.536c1.224 0 1.778-0.087 2.127-0.437v0.262c0 0.058 0 0.087 0 0.087h1.37v-4.459c0-0.729-0.204-1.253-0.525-1.603-0.554-0.67-1.719-0.758-2.885-0.758zM53.158 16.612c0 0.641-0.525 0.787-2.506 0.787h-1.399c-0.729 0-1.107-0.087-1.311-0.204-0.204-0.146-0.233-0.379-0.233-0.641v-0.233c0-0.641 0.233-0.845 1.603-0.845h1.632c1.311 0 1.923 0.087 2.127 0.408 0.087 0.117 0.117 0.262 0.117 0.437v0.291zM53.304 18.302v0c0 0 0-0.029 0 0v0zM62.281 12.24c-0.35-0.408-0.933-0.583-1.894-0.583h-1.632c-2.594 0-3.497 0.758-3.497 2.944v1.137c0 1.049 0.291 1.72 0.758 2.127 0.67 0.612 1.661 0.729 2.652 0.729h1.486c1.020 0 1.749-0.262 2.157-0.758v0.291c0 0.175 0 0.379 0 0.379h1.311v-8.685h-1.37c0.029 0 0.029 1.632 0.029 2.419zM62.281 15.709c0 1.195-0.554 1.69-1.923 1.69h-1.72c-0.758 0-1.253-0.117-1.545-0.35-0.35-0.262-0.437-0.729-0.437-1.341v-1.253c0-1.37 0.641-1.603 2.040-1.603h1.428c0.903 0 1.515 0.087 1.865 0.525 0.204 0.233 0.291 0.612 0.291 1.107v1.224zM62.485 17.953v0 0c0 0 0 0 0 0zM38.47 28.882h-0.321v2.827h1.719v-0.291h-1.399v-2.536zM40.277 31.709h1.778v-0.291h-1.457v-1.049h1.399v-0.262h-1.399v-0.962h1.457v-0.291h-1.778v2.856zM45.027 30.135c-0.525-0.029-0.758 0.029-0.758-0.525 0-0.379 0.087-0.466 0.699-0.466 0.583 0 0.67 0.029 0.699 0.525h0.321c0.029-0.758-0.408-0.787-0.991-0.787-0.67 0-1.020 0.058-1.020 0.816s0.466 0.67 1.020 0.729c0.495 0.029 0.729-0.058 0.729 0.495s-0.175 0.554-0.758 0.554c-0.583 0-0.699 0-0.699-0.612h-0.321c-0.058 0.816 0.321 0.903 1.020 0.903s1.078-0.029 1.078-0.816c-0.029-0.816-0.35-0.787-1.020-0.816zM47.738 28.852h-0.379c-0.699 0-0.903 0.233-0.903 0.962v1.020c0 0.67 0.233 0.933 0.903 0.933h0.379c0.67 0 0.903-0.262 0.903-0.933v-1.020c0-0.699-0.204-0.933-0.903-0.962zM48.321 30.834c0 0.554-0.175 0.641-0.583 0.641h-0.379c-0.408 0-0.583-0.058-0.583-0.641v-1.020c0-0.554 0.117-0.67 0.583-0.67h0.379c0.466 0 0.583 0.117 0.583 0.67v1.020zM51.293 31.475v0l-1.545-2.594h-0.525v2.827h0.321v-2.565l1.545 2.565h0.525v-2.827h-0.321v2.594zM55.111 28.882h-1.399v2.827h1.515c0.758 0 1.020-0.379 1.020-1.137v-0.583c-0.029-0.816-0.379-1.107-1.137-1.107zM55.461 30.572c0 0.291-0.087 0.495-0.379 0.495h-0.641v-1.515h0.641c0.262 0 0.379 0.087 0.379 0.437v0.583zM57.326 28.882l-0.816 2.827h0.758l0.146-0.495h0.991l0.146 0.495h0.758l-0.845-2.827h-1.137zM57.559 30.689l0.35-1.224 0.35 1.224h-0.699zM61.727 31.067h-0.029l-0.787-2.186h-1.253v2.827h0.729l-0.058-2.186h0.029l0.787 2.186h1.253v-2.827h-0.729l0.058 2.186zM64.641 30.718c0 0.321-0.146 0.35-0.466 0.35-0.437 0-0.466-0.175-0.466-0.583v-0.437c0-0.408 0.029-0.525 0.466-0.525 0.262 0 0.437 0.029 0.437 0.262v0.117h0.758v-0.117c-0.029-0.845-0.379-0.933-1.137-0.933-0.816 0-1.311 0.146-1.311 1.078v0.729c0 1.049 0.554 1.078 1.311 1.078 0.321 0 0.612 0 0.874-0.204s0.262-0.495 0.262-0.816v-0.087h-0.758v0.087zM66.681 30.543h1.166v-0.525h-1.166v-0.525h1.253v-0.612h-1.982v2.827h2.011v-0.612h-1.282v-0.554zM68.576 31.709h0.729v-1.049h1.137v-0.612h-1.137v-0.554h1.224v-0.612h-1.953v2.827zM71.781 28.882h-0.729v2.827h1.894v-0.67h-1.166v-2.157zM74.579 28.852c-0.758 0-1.282 0.175-1.282 1.049v0.816c0 0.874 0.525 1.049 1.282 1.049s1.282-0.175 1.282-1.049v-0.816c0-0.874-0.525-1.049-1.282-1.049zM75.104 30.63c0 0.437-0.146 0.466-0.525 0.466s-0.495-0.029-0.525-0.466v-0.641c0-0.408 0.146-0.466 0.525-0.466s0.525 0.029 0.525 0.466v0.641zM77.581 28.852c-0.758 0-1.282 0.175-1.282 1.049v0.816c0 0.874 0.525 1.049 1.282 1.049s1.282-0.175 1.282-1.049v-0.816c-0.029-0.874-0.554-1.049-1.282-1.049zM78.076 30.63c0 0.437-0.146 0.466-0.525 0.466s-0.495-0.029-0.525-0.466v-0.641c0-0.408 0.146-0.466 0.525-0.466s0.525 0.029 0.525 0.466v0.641zM81.749 29.756c0-0.699-0.321-0.845-0.962-0.845h-1.428v2.827h0.729v-0.758h0.583c0.233 0 0.321 0.146 0.291 0.35v0.408h0.729v-0.583c0-0.321-0.204-0.495-0.495-0.495v-0.058c0.554-0.117 0.554-0.379 0.554-0.845zM80.67 30.31h-0.583v-0.758h0.583c0.233 0 0.321 0.058 0.321 0.321 0 0.321 0 0.437-0.321 0.437z"></path>
</svg>
