<?xml version="1.0" encoding="utf-8"?>
<!-- Generated by IcoMoon.io -->
<!DOCTYPE svg PUBLIC "-//W3C//DTD SVG 1.1//EN" "http://www.w3.org/Graphics/SVG/1.1/DTD/svg11.dtd">
<svg version="1.1" xmlns="http://www.w3.org/2000/svg" xmlns:xlink="http://www.w3.org/1999/xlink" width="75" height="32" viewBox="0 0 75 32">
<path fill="#444444" d="M6.871 29.835h6.776v-14.4h6.4v-5.082h-6.4v-0.941c0-1.976 0.659-2.541 3.294-2.541 0.847 0 1.788 0.094 2.729 0.094v-4.894c-1.412 0-2.729-0.188-4.612-0.188-5.647 0-8.282 1.6-8.282 6.965v1.506h-3.012v5.082h3.106v14.4z"></path>
<path fill="#444444" d="M31.059 30.118c3.576 0 6.024-0.753 7.153-3.388v-0.094 3.294h6.776v-19.576h-6.776v9.788c0 2.824-1.694 4.235-4.612 4.235h-1.506c-1.6 0-2.729-0.282-3.482-0.847-0.565-0.471-0.847-1.129-0.847-1.976v-11.2h-6.776v11.2c0 3.294 0.941 5.365 2.259 6.588 2.165 1.882 5.271 1.976 7.812 1.976z"></path>
<path fill="#444444" d="M69.082 12.424c-2.071-2.259-5.365-2.353-8.094-2.353-3.294 0-5.553 0.565-6.871 2.824l-0.376 0.565v-3.106h-6.682v19.482h6.776v-9.788c0-2.824 1.694-4.235 4.612-4.235h1.506c1.976 0 3.2 0.376 3.859 1.224 0.376 0.471 0.471 0.941 0.471 1.6v11.2h6.776v-11.2c-0.094-3.012-0.847-4.988-1.976-6.212z"></path>
</svg>
