<?xml version="1.0" encoding="utf-8"?>
<!-- Generated by IcoMoon.io -->
<!DOCTYPE svg PUBLIC "-//W3C//DTD SVG 1.1//EN" "http://www.w3.org/Graphics/SVG/1.1/DTD/svg11.dtd">
<svg version="1.1" xmlns="http://www.w3.org/2000/svg" xmlns:xlink="http://www.w3.org/1999/xlink" width="38" height="32" viewBox="0 0 38 32">
<path fill="#444444" d="M32.941 0h-27.671c-1.224 0-2.447 0.659-2.447 1.882v27.576c0 1.224 1.224 2.541 2.447 2.541h27.671c1.224 0 1.882-1.318 1.882-2.541v-27.576c0-1.224-0.659-1.882-1.882-1.882zM11.482 14.776h-2.635v6.024h-2.824v-6.024h-1.318v-2.071h1.318v-0.659c0-2.259 1.035-2.918 3.482-2.918 0.753 0 1.318 0.094 1.882 0.094v2.071c-0.376 0-0.847-0.094-1.129-0.094-1.129 0-1.412 0.188-1.412 1.035v0.376h2.635v2.165zM22.024 20.894h-2.824v-1.318c-0.471 1.129-1.506 1.412-3.012 1.412-1.035 0-2.353 0-3.2-0.847-0.565-0.565-0.941-1.412-0.941-2.824v-4.706h2.824v4.706c0 0.376 0.094 0.659 0.376 0.847 0.282 0.282 0.753 0.376 1.412 0.376h0.659c1.224 0 1.882-0.565 1.882-1.788v-4.141h2.824v8.282zM32.941 20.894h-2.824v-4.706c0-0.282-0.094-0.471-0.188-0.659-0.282-0.376-0.847-0.471-1.6-0.471h-0.659c-1.224 0-1.882 0.565-1.882 1.788v4.141h-2.824v-8.188h2.824v1.318l0.188-0.282c0.565-0.941 1.506-1.224 2.918-1.224 1.129 0 2.541 0 3.388 0.941 0.471 0.565 0.847 1.318 0.847 2.635v4.706z"></path>
</svg>
