<?xml version="1.0" encoding="utf-8"?>
<!-- Generated by IcoMoon.io -->
<!DOCTYPE svg PUBLIC "-//W3C//DTD SVG 1.1//EN" "http://www.w3.org/Graphics/SVG/1.1/DTD/svg11.dtd">
<svg version="1.1" xmlns="http://www.w3.org/2000/svg" xmlns:xlink="http://www.w3.org/1999/xlink" width="127" height="32" viewBox="0 0 127 32">
<path fill="#444444" d="M2.266 13.433h3.936v2.054h-3.936v3.508h-2.481v-9.498h6.674v2.054h-4.193z"></path>
<path fill="#444444" d="M15.187 9.497v6.332c0 2.481-1.198 3.252-3.936 3.252-3.765 0-4.193-0.941-4.193-3.252v-6.332h2.481v6.246c0 1.112 0.599 1.112 1.626 1.112 1.112 0 1.455-0.086 1.455-1.198v-6.161h2.567z"></path>
<path fill="#444444" d="M18.267 18.995h-2.567v-9.498h4.278l2.738 7.273h0.086l-0.171-7.273h2.567v9.498h-4.364l-2.653-7.273h-0.086z"></path>
<path fill="#444444" d="M40.087 17.369l-0.428 1.626h-2.653l2.824-9.498h3.85l2.909 9.498h-2.567l-0.513-1.626h-3.423zM41.798 11.379v0l-1.198 4.107h2.31l-1.112-4.107z"></path>
<path fill="#444444" d="M34.525 18.995h1.711l0.77-2.396c-0.171-0.685-0.77-1.112-1.626-1.112v-0.086c1.797-0.428 1.797-1.369 1.797-2.909 0-2.396-1.112-2.824-3.252-2.824h-4.877v9.498h2.481v-2.481h1.968c0.77 0 1.027 0.513 1.027 1.198v1.112zM33.498 14.289h-1.968v-2.567h1.968c0.856 0 1.027 0.257 1.027 1.112 0.086 1.027 0.086 1.455-1.027 1.455z"></path>
<path fill="#444444" d="M55.147 9.497h2.481v9.498h-2.481v-9.498z"></path>
<path fill="#444444" d="M58.484 15.572v-2.653c0-2.909 1.797-3.508 4.364-3.508s4.364 0.513 4.364 3.508v2.653c0 2.909-1.797 3.508-4.364 3.508s-4.364-0.599-4.364-3.508zM64.644 15.315v-2.139c0-1.369-0.428-1.54-1.797-1.54-1.283 0-1.711 0.171-1.797 1.54v2.139c0 1.455 0.428 1.54 1.797 1.54s1.797-0.171 1.797-1.54z"></path>
<path fill="#444444" d="M50.697 9.497h-4.792v4.621l1.455 4.877h3.679c2.653 0 3.508-1.198 3.508-3.765v-1.968c-0.086-2.738-1.283-3.765-3.85-3.765zM51.895 15.144c0 1.027-0.342 1.626-1.283 1.626h-2.225v-5.048h2.225c0.856 0 1.283 0.257 1.283 1.455v1.968z"></path>
<path fill="#444444" d="M102.294 15.401v0.257c0 1.027 0 1.968-0.856 2.653s-1.882 0.685-2.995 0.685c-2.567 0-4.45-0.086-4.45-3.594v-2.396c0-3.080 1.711-3.594 4.45-3.594 2.567 0 3.765 0.257 3.85 3.080v0.342h-2.567v-0.257c-0.086-0.856-0.685-0.941-1.54-0.941-1.455 0-1.54 0.428-1.54 1.797v1.455c0 1.369 0.086 1.968 1.54 1.968 1.027 0 1.54-0.086 1.54-1.198v-0.257h2.567z"></path>
<path fill="#444444" d="M105.289 16.856h3.936v2.225h-6.418v-9.498h2.481z"></path>
<path fill="#444444" d="M117.781 9.497v6.246c0 2.481-1.198 3.252-3.936 3.252-3.765 0-4.193-0.941-4.193-3.252v-6.246h2.481v6.246c0 1.027 0.599 1.112 1.626 1.112s1.455-0.086 1.455-1.198v-6.161h2.567z"></path>
<path fill="#444444" d="M118.38 9.497h4.963c1.882 0 2.995 0.342 2.995 2.396 0 1.198-0.257 1.968-1.455 2.139v0.086c1.369 0.086 1.626 0.941 1.626 2.139 0 2.31-1.112 2.653-3.080 2.653h-4.963v-9.412zM120.862 13.262h1.797c0.856 0 1.112-0.171 1.112-0.941 0-0.599-0.086-0.77-0.77-0.77h-2.139v1.711zM120.862 16.856h1.882c0.856 0 1.198-0.171 1.198-0.941s-0.257-0.856-1.112-0.856h-1.968v1.797z"></path>
<path fill="#444444" d="M88.261 3.251c0 0.171 0.171 0.513 0.342 0.941 0.513 1.198 1.54 1.968 2.567 2.396l0.599 0.171v4.193c-0.513 0.086-1.027 0.428-1.369 0.77-0.513 0.599-0.513 1.54-0.513 2.653 0 0.599 0.257 1.198 0.599 1.968 0.513 0.856 0.599 2.139 0.599 2.995 0 1.711-0.513 3.080-1.626 4.193-0.513 0.513-1.027 0.941-1.455 1.283-1.198 0.941-2.909 1.711-4.278 2.396-0.171 0.086-1.626 0.77-3.252 1.54l-3.252-1.626c-1.369-0.685-3.080-1.455-4.278-2.396-0.428-0.342-0.856-0.77-1.455-1.283-1.027-1.112-1.626-2.481-1.626-4.193 0-0.856 0.086-2.054 0.599-2.995 0.342-0.77 0.599-1.283 0.599-1.968 0-1.027 0-2.054-0.513-2.653-0.257-0.257-0.856-0.599-1.369-0.77v-4.193l0.685-0.086c1.027-0.428 2.054-1.112 2.567-2.396 0.171-0.428 0.257-0.77 0.342-0.941h5.647c0 0.086 0 0.171 0 0.257 0 0.856 0.685 1.797 2.054 1.797 0 0 0 0 0 0v0c0 0 0 0 0 0 1.369 0 2.054-1.027 2.054-1.797 0-0.086 0-0.171 0-0.257h5.733zM89.031 2.309h-7.53l0.171 0.941c0 0.086 0 0.086 0 0.171 0 0.342-0.342 0.856-1.112 0.856-0.856 0-1.112-0.513-1.112-0.856 0-0.086 0-0.171 0-0.171v-0.941h-7.53l-0.171 0.77c0 0.086-0.086 0.257-0.257 0.77-0.428 1.027-1.283 1.54-1.968 1.882l-0.599 0.171-0.685 0.171v5.647l0.685 0.171c0.342 0.086 0.685 0.342 0.856 0.513 0.257 0.342 0.257 1.198 0.257 1.968 0 0.342-0.171 0.77-0.428 1.369l-0.086 0.086c-0.428 0.856-0.685 1.968-0.685 3.423 0 1.882 0.599 3.508 1.882 4.792 0.599 0.599 1.112 1.027 1.54 1.369 1.112 0.856 2.567 1.54 3.85 2.225 0.171 0.086 0.342 0.171 0.599 0.257v0 0l3.252 1.54 0.428 0.171 0.428-0.171c1.198-0.599 2.31-1.112 2.909-1.369 0.171-0.086 0.342-0.171 0.428-0.171v0 0c0.171-0.086 0.342-0.171 0.599-0.257 1.283-0.599 2.738-1.369 3.85-2.225 0.428-0.342 0.941-0.77 1.54-1.369 1.198-1.283 1.882-2.909 1.882-4.792 0-1.455-0.257-2.567-0.685-3.423l-0.086-0.086c-0.257-0.599-0.428-1.027-0.428-1.369 0-0.77 0-1.626 0.257-1.968 0.171-0.171 0.599-0.428 0.856-0.513l0.685-0.171v-5.647l-0.685-0.171-0.513-0.171c-0.685-0.257-1.54-0.77-1.968-1.797-0.171-0.513-0.257-0.77-0.257-0.77l-0.171-0.856z"></path>
<path fill="#444444" d="M80.56 23.615l0.428 1.198 1.369 0.086-1.112 0.77 0.428 1.283-1.112-0.77-1.112 0.77 0.428-1.283-1.027-0.77 1.283-0.086z"></path>
<path fill="#444444" d="M76.966 9.925h2.225l-2.396 8.813h-3.252l-2.31-8.813h2.139l1.711 6.845h0.086l1.797-6.845z"></path>
<path fill="#444444" d="M81.672 18.738v-8.813h4.364c2.054 0 2.824 0.941 2.824 3.252 0 2.481-0.513 3.337-2.824 3.337h-1.968v2.225h-2.396zM85.437 14.374c0.856 0 1.027-0.171 1.027-1.283 0-0.941-0.171-1.198-1.027-1.198h-1.455v2.481h1.455z"></path>
<path fill="#444444" d="M80.046 9.925l-1.626 5.647v3.166h2.396v-8.813z"></path>
</svg>
