<?xml version="1.0" encoding="utf-8"?>
<!-- Generator: Adobe Illustrator 19.2.0, SVG Export Plug-In . SVG Version: 6.00 Build 0)  -->
<svg version="1.1" id="Calque_1" xmlns="http://www.w3.org/2000/svg" xmlns:xlink="http://www.w3.org/1999/xlink" x="0px" y="0px"
	 viewBox="0 0 1024 1024" style="enable-background:new 0 0 1024 1024;" xml:space="preserve">
<style type="text/css">
	.st0{fill:#454545;}
</style>
<g>
	<polygon class="st0" points="894.2,718.9 894.2,163.6 748.2,163.6 748.2,834.3 1024,834.3 1024,718.9 	"/>
	<path class="st0" d="M351.5,232.4c-23-40.4-61.2-71.4-124.3-72.4H0v209.1v57.7v407.4h151.4V527.8c48.7-7.2,88.3,14.4,88.3,61.3
		c0,0,0,147.8,0,178.5c0,30.6,12.6,54.1,28.8,66.7H411c-25.2-32.5-28.8-48.7-30.6-73.9c0,0,0-147.8,0-149.6
		c0-75.7-55.9-128-97.4-128c41.5-1.8,95.6-63.1,95.6-153.2c0-15-1.3-29.4-6-46.7l94.3-0.2v551.7h149.6V282.6h113.6v-119H351.5
		L351.5,232.4z M149.6,428.6v-5.4v-57.7v-97.4c55.9,0,86.5,18,86.5,77.5C236.2,406.4,207.3,430.4,149.6,428.6z"/>
</g>
</svg>
