<?xml version="1.0" encoding="utf-8"?>
<!-- Generator: Adobe Illustrator 19.2.1, SVG Export Plug-In . SVG Version: 6.00 Build 0)  -->
<svg version="1.1" id="Calque_1" xmlns="http://www.w3.org/2000/svg" xmlns:xlink="http://www.w3.org/1999/xlink" x="0px" y="0px"
	 viewBox="0 0 1695 1024" enable-background="new 0 0 1695 1024" xml:space="preserve">
<g>
	<polygon fill="#444444" points="1469.8,835.7 1469.8,5.9 1218.2,5.9 1218.2,1021.1 1694.9,1021.1 1694.9,835.7 	"/>
	<path fill="#444444" d="M569.4,103C542.9,41.2,450.2,5.9,384,5.9h-92.7H0v1015.2h247.2V575.3h39.7h4.4h53c35.3,8.8,44.1,48.6,44.1,119.2v97.1
		c0,141.2,8.8,181,66.2,233.9H693c-57.4-35.3-66.2-75-66.2-176.6V729.8c0-189.8-53-203-136.8-242.8
		c110.3-53,132.4-110.3,132.4-220.7c0-22.1-8.8-48.6-13.2-70.6h145.7v834.2h251.6V195.7h185.4V5.9H569.4V103z M251.6,186.9h35.3
		l4.4-4.4c66.2-4.4,97.1,61.8,97.1,128c0,61.8-26.5,105.9-97.1,105.9c0,0,0,0-4.4,0h-35.3C251.6,416.4,251.6,186.9,251.6,186.9z"/>
</g>
</svg>
