<?xml version="1.0" encoding="utf-8"?>
<!-- Generator: Adobe Illustrator 19.2.1, SVG Export Plug-In . SVG Version: 6.00 Build 0)  -->
<svg version="1.1" id="Calque_1" xmlns="http://www.w3.org/2000/svg" xmlns:xlink="http://www.w3.org/1999/xlink" x="0px" y="0px"
	 viewBox="0 0 1024 1024" enable-background="new 0 0 1024 1024" xml:space="preserve">
<path fill="#444444" d="M267.7,380.9c-0.7,0.2-1.1,0.5-1.8,0.5h-15.1v105.9l16-0.5c0.6,0,0.8-0.1,1.5-0.3
	c32.2-0.1,43.5-19.2,43.5-47.8C311.7,410,296.8,378.2,267.7,380.9L267.7,380.9z"/>
<path fill="#444444" d="M968.4,0h-907C29.1,0,0,29.4,0,61.7v907c0,32.4,29.1,55.3,61.4,55.3h907c32.3,0,55.6-23,55.6-55.3v-907
	C1024,29.4,1000.7,0,968.4,0z M903.8,762.8H684.4V381.4H574.7v381.4h-78.4v-376l-75.7,0.2c2.7,9.8-3.1,21.2-3.1,31.9
	c0,51.2-10.6,75.8-59.6,100.5c38.2,18.4,61.8,24.6,61.8,110.3l0.4,54.7c-0.7,45.4,4.9,62.7,30,78.4H343.3
	c-25.2-26.1-40.3-41-40.3-104.2v-43.5c0-31,5.3-45.6-9.8-45.6h-44.5l2.4,197.2l-110.1-3.2v-450h167.8c30,0,77.7,7.9,88.2,35.5v-35.5
	h381.4v355.3h125.4V762.8L903.8,762.8z"/>
</svg>
