<?xml version="1.0" encoding="utf-8"?>
<!-- Generator: Adobe Illustrator 19.2.1, SVG Export Plug-In . SVG Version: 6.00 Build 0)  -->
<svg version="1.1" id="Calque_1" xmlns="http://www.w3.org/2000/svg" xmlns:xlink="http://www.w3.org/1999/xlink" x="0px" y="0px"
	 viewBox="0 0 2165 1024" enable-background="new 0 0 2165 1024" xml:space="preserve">
<path fill="#444444" d="M336.4,267.9c-20.4-35.9-72.1-59.5-111.3-59.5H0v599.8l146.7-1.4l-0.1-262.7h58.1
	c19.6,7,29.8,30.4,29.8,70.8v56.7c0,82.3,2.8,106.4,35.6,136.9h139.7c-32.9-20.3-40.2-43.6-39.4-102.7l-0.7-71.4
	c0-111.7-31-120-81-144c64-32.2,77.5-64.4,77.5-131.1c0-14-2.4-28.9-5.9-41.6l88.2-0.3v491.3h142.7V320.3h112.2V208.5h-367V267.9
	L336.4,267.9z M171.3,447.5c-0.8,0.2-3.5,0.2-4.4,0.2l-24.1,0.4V310h26.2c0.8,0,1.5-0.3,2.3-0.5c38.1-3.5,57.3,37.9,57.3,75.4
	C228.5,422.1,213.3,447.3,171.3,447.5z"/>
<path fill="#444444" d="M866.6,208.4h-153v600h285.4V696.5H866.5L866.6,208.4z"/>
<path fill="#444444" d="M1547.2,991.7c-249.1,0-451.1-214.8-451.1-479.7s202-479.7,451.1-479.7c180.9,0,336.8,113.2,408.7,276.6
	h35.2C1917.2,127.2,1747,0,1548.9,0c-266,0-481.6,229.2-481.6,512s215.6,512,481.6,512c199.4,0,370.6-128.9,443.7-312.6h-35.2
	C1886.3,876.8,1729.3,991.7,1547.2,991.7L1547.2,991.7z"/>
<path fill="#444444" d="M1829.3,413.7v114c0,11.3,1.8,21.8,5.5,31.4c3.7,9.6,8.9,17.9,15.7,24.9c6.8,7,15.1,12.4,24.9,16.3
	s20.8,5.8,33.1,5.8c12.2,0,23.2-2,33-5.8c9.8-3.9,18-9.4,24.9-16.3c6.8-7,12.1-15.2,15.7-24.9c3.7-9.6,5.5-20.1,5.5-31.4v-114h-35.5
	v114c0,7.3-1,13.8-3,19.7c-2,5.9-4.8,10.9-8.5,15c-3.7,4.1-8.3,7.3-13.7,9.6c-5.4,2.3-11.5,3.5-18.4,3.5c-6.8,0-13-1.2-18.4-3.5
	c-5.4-2.3-10-5.5-13.8-9.7c-3.7-4.1-6.6-9.2-8.6-15c-2-5.8-3-12.5-3-19.7V413.7h-35.5L1829.3,413.7z"/>
<path fill="#444444" d="M1224.5,417.8V604h102.1v-11.5H1238V417.8L1224.5,417.8z"/>
<path fill="#444444" d="M1701.4,413.7V604h111.8v-29.2h-76.3V413.7H1701.4z"/>
<path fill="#444444" d="M2125.9,505.8c5.9-2,11-4.5,15.2-7.4c4.3-2.9,7.8-6.1,10.6-9.7c2.8-3.5,4.8-7.4,6.2-11.5
	c1.4-4.1,2-8.3,2-12.8c0-7.8-1.4-14.8-4-21.1c-2.6-6.2-6.8-11.5-12.5-15.9s-12.9-7.8-21.8-10.2s-19.6-3.5-32.1-3.5h-65.7V604h72
	c11.1,0,20.9-1.4,29.5-4.3c8.6-2.8,15.9-6.6,21.8-11.7c5.9-5,10.4-10.8,13.5-17.7c3-6.8,4.6-14.3,4.6-22.4
	C2165.2,525.7,2152.1,511.5,2125.9,505.8L2125.9,505.8z M2059.2,441.1L2059.2,441.1h30.2c12,0,20.8,2.1,26.4,6.3
	c5.6,4.2,8.5,11.2,8.5,21.2c0,9.6-3.1,16.5-9.3,20.9s-15.4,6.6-27.5,6.6h-28.3L2059.2,441.1L2059.2,441.1z M2128.3,558.5
	c-1.2,3.5-3.1,6.6-5.8,9.2c-2.6,2.6-6.3,4.7-10.8,6.3c-4.5,1.6-10,2.4-16.6,2.4h-35.9v-55.8h35.8c6.2,0,11.6,0.6,16.1,1.8
	c4.5,1.2,8.1,3,10.9,5.4c2.8,2.4,4.9,5.2,6.2,8.4c1.4,3.3,2,7,2,11.1C2130.2,551.2,2129.6,555,2128.3,558.5L2128.3,558.5z"/>
<path fill="#444444" d="M1470.1,429v-11.2h-112V604h112v-11.2h-98.3v-77.7h81.9v-10.9h-81.9V429L1470.1,429z"/>
<path fill="#444444" d="M1561,459.5c5.2-5.8,11.2-10.2,18.3-13.1c7.1-3,14.9-4.5,23.4-4.5c5,0,9.4,0.4,13.3,1.1
	c3.9,0.7,7.2,1.7,10.1,2.8c2.9,1.1,5.4,2.3,7.7,3.6c2.2,1.3,4.1,2.5,5.8,3.6c1.6,1.1,3.2,2,4.6,2.8c1.4,0.7,2.8,1.2,4.1,1.2
	c2,0,3.5-0.4,4.5-1.2s2-1.7,2.7-2.8l11.9-16.5c-7.6-7.4-16.7-13.4-27.5-17.9s-23.1-6.8-37-6.8c-14,0-26.8,2.4-38.3,7.2
	c-11.5,4.8-21.5,11.5-29.8,20.1c-8.3,8.6-14.8,18.8-19.3,30.7s-6.8,25-6.8,39.3c0,14.1,2.1,27.2,6.4,39.1
	c4.3,11.9,10.4,22.2,18.4,30.8c8,8.6,17.7,15.3,28.9,20.1c11.2,4.8,24.1,7.3,38.2,7.3c15.9,0,29.4-2.5,40.7-7.7s20.9-12.4,28.6-22
	l-14-15.1c-1.5-1.5-3.3-2.2-5.2-2.2c-1.1,0-2,0.3-3,0.7c-1,0.5-1.9,1.2-2.8,1.9c-2.9,2.6-5.8,4.9-8.7,6.6s-6.1,3.3-9.4,4.4
	c-3.3,1.2-6.9,2-10.8,2.5c-3.9,0.5-8.3,0.8-13.1,0.8c-8.1,0-15.7-1.6-22.7-4.5c-7-3-13.1-7.4-18.4-13.1c-5.2-5.7-9.3-12.7-12.3-21.1
	s-4.5-17.8-4.5-28.5c0-10.6,1.4-20.1,4.2-28.4C1552,472.2,1556,465.2,1561,459.5L1561,459.5z"/>
</svg>
