<?xml version="1.0" encoding="utf-8"?>
<!-- Generator: Adobe Illustrator 18.1.1, SVG Export Plug-In . SVG Version: 6.00 Build 0)  -->
<svg version="1.1" id="Calque_1" xmlns="http://www.w3.org/2000/svg" xmlns:xlink="http://www.w3.org/1999/xlink" x="0px" y="0px"
	 viewBox="0 0 38.4 35" enable-background="new 0 0 38.4 35" xml:space="preserve">
<g>
	<polygon points="33.3,24.7 33.3,5.9 27.6,5.9 27.6,28.9 38.4,28.9 38.4,24.7 	"/>
	<path d="M12.9,8.1c-0.6-1.4-2.7-2.2-4.2-2.2H6.6H0v23l5.6,0l0-10.1h0.9h0.1h1.2c0.8,0.2,1,1.1,1,2.7v2.2c0,3.2,0.2,4.1,1.5,5.3h5.4
		c-1.3-0.8-1.5-1.7-1.5-4l0-2.7c0-4.3-1.2-4.6-3.1-5.5c2.5-1.2,3-2.5,3-5c0-0.5-0.2-1.1-0.3-1.6l3.3,0v18.9h5.7V10.2H27V5.9H12.9
		V8.1z M5.7,10h0.8c0,0,0.1-0.1,0.1-0.1c1.5-0.1,2.2,1.4,2.2,2.9c0,1.4-0.6,2.4-2.2,2.4c0,0,0,0-0.1,0l-0.8,0V10z"/>
</g>
</svg>