<?xml version="1.0" encoding="utf-8"?>
<!-- Generator: Adobe Illustrator 19.2.1, SVG Export Plug-In . SVG Version: 6.00 Build 0)  -->
<svg version="1.1" id="Calque_1" xmlns="http://www.w3.org/2000/svg" xmlns:xlink="http://www.w3.org/1999/xlink" x="0px" y="0px"
	 viewBox="0 0 1490 1024" enable-background="new 0 0 1490 1024" xml:space="preserve">
<g id="icomoon-ignore">
</g>
<path fill="#444444" d="M1098.5,711.4c-71.4,165.2-227.7,279.8-410,279.8c-14.1,0-28.3-0.7-42.4-2.2c0-64.7-6.7-102-85.6-119.8
	c-92.3-20.8-178.6-39.4-136.9-116.8C550.1,517.2,457,391.4,323.1,391.4c-27.5,0-52.8,5.2-75.2,15.6
	C293.3,192.7,472.7,32.7,687.7,32.7c180.8,0,336.4,113.1,408.6,276.1h35C1057.6,127.3,887.2,0,689.2,0
	C450.3,0,252.4,184.6,214.4,427.2c-63.3,53.6-79.6,165.2,8.2,324.5c43.2,77.4-46.1,96-136.9,116.8C-6.6,889.3,0.1,937.7,0.1,1024
	h644.5c0-1.5,0-2.2,0-3.7c14.1,1.5,29,2.2,43.9,2.2c199.4,0,370.6-128.7,443.5-312.6h-33.5L1098.5,711.4z"/>
<path fill="#444444" d="M1154.3,413.8v113.9c0,11.2,1.5,21.6,5.2,31.3s8.9,17.9,15.6,24.6c6.7,6.7,14.9,12.7,24.6,16.4s20.8,6,32.7,6
	s23.1-2.2,32.7-6s17.9-9.7,24.6-16.4s11.9-14.9,15.6-24.6c3.7-9.7,5.2-20.1,5.2-31.3V413.8h-35.7v113.9c0,7.4-0.7,14.1-3,19.3
	c-2.2,6-4.5,11.2-8.2,14.9c-3.7,4.5-8.2,7.4-13.4,9.7c-5.2,2.2-11.2,3.7-18.6,3.7c-6.7,0-12.7-1.5-18.6-3.7
	c-5.2-2.2-9.7-5.2-13.4-9.7s-6.7-8.9-8.9-14.9c-2.2-6-3-12.7-3-19.3V413.8C1190.1,413.8,1154.3,413.8,1154.3,413.8L1154.3,413.8z"/>
<path fill="#444444" d="M550.1,418.2v186h102v-11.9h-88.6V418.2H550.1z"/>
<path fill="#444444" d="M1026.3,413.8v190.5H1138v-29.8h-75.9V413.8L1026.3,413.8z"/>
<path fill="#444444" d="M1450.5,506c6-2.2,11.2-4.5,14.9-7.4c4.5-3,7.4-6,10.4-9.7c3-3.7,4.5-7.4,6-11.2c1.5-3.7,2.2-8.2,2.2-12.7
	c0-7.4-1.5-14.9-3.7-20.8c-3-6-6.7-11.2-12.7-15.6s-12.7-7.4-21.6-10.4c-8.9-2.2-19.3-3.7-32-3.7h-65.5V605h72.2
	c11.2,0,20.8-1.5,29.8-4.5c8.9-3,15.6-6.7,21.6-11.9c6-5.2,10.4-11.2,13.4-17.9c3-6.7,4.5-14.1,4.5-22.3
	C1490,525.4,1476.6,511.3,1450.5,506L1450.5,506z M1384.3,441.3L1384.3,441.3h30.5c11.9,0,20.8,2.2,26,6c6,4.5,8.2,11.2,8.2,20.8
	c0,9.7-3,16.4-8.9,20.8c-6,4.5-15.6,6.7-27.5,6.7h-28.3V441.3L1384.3,441.3z M1452.8,558.1c-1.5,3.7-3,6.7-6,8.9
	c-3,3-6,4.5-10.4,6.7c-4.5,1.5-9.7,2.2-16.4,2.2h-35.7v-55.1h35.7c6,0,11.9,0.7,16.4,1.5c4.5,1.5,8.2,3,11.2,5.2
	c3,2.2,5.2,5.2,6,8.2c1.5,3,2.2,6.7,2.2,11.2C1455,551.4,1454.2,555.2,1452.8,558.1L1452.8,558.1z"/>
<path fill="#444444" d="M795.6,429.4v-11.2H684v186h111.6v-11.2h-98.2V515h81.9v-10.4h-81.9v-75.2H795.6z"/>
<path fill="#444444" d="M886.4,459.2c5.2-6,11.2-10.4,18.6-13.4s14.9-4.5,23.1-4.5c5.2,0,9.7,0.7,13.4,0.7c3.7,0.7,7.4,1.5,10.4,3
	c3,0.7,5.2,2.2,7.4,3.7c2.2,1.5,4.5,2.2,6,3.7c1.5,0.7,3,2.2,4.5,3c1.5,0.7,3,1.5,3.7,1.5c2.2,0,3.7-0.7,4.5-1.5s2.2-1.5,3-3
	l11.9-16.4c-7.4-7.4-16.4-13.4-27.5-17.9c-10.4-4.5-23.1-6.7-37.2-6.7c-14.1,0-26.8,2.2-38,7.4c-11.2,4.5-21.6,11.2-29.8,20.1
	c-8.2,8.9-14.9,18.6-19.3,30.5c-4.5,11.9-6.7,25.3-6.7,39.4c0,14.1,2.2,26.8,6.7,38.7c4.5,11.9,10.4,22.3,18.6,30.5
	c8.2,8.9,17.9,15.6,29,20.1c11.2,4.5,23.8,7.4,38,7.4c15.6,0,29-2.2,40.9-7.4c11.2-5.2,20.8-12.7,28.3-22.3l-14.1-14.9
	c-1.5-1.5-3-2.2-5.2-2.2c-0.7,0-2.2,0-3,0.7c-0.7,0.7-2.2,1.5-3,2.2c-3,3-6,5.2-8.9,6.7s-6,3-9.7,4.5c-3,1.5-6.7,2.2-11.2,2.2
	c-3.7,0.7-8.2,0.7-13.4,0.7c-8.2,0-15.6-1.5-22.3-4.5s-13.4-7.4-18.6-13.4c-5.2-6-8.9-12.7-12.7-20.8c-3-8.2-4.5-17.9-4.5-28.3
	c0-10.4,1.5-20.1,4.5-28.3C877.5,472.6,881.2,465.1,886.4,459.2L886.4,459.2z"/>
</svg>
