<?xml version="1.0" encoding="utf-8"?>
<!-- Generated by IcoMoon.io -->
<!DOCTYPE svg PUBLIC "-//W3C//DTD SVG 1.1//EN" "http://www.w3.org/Graphics/SVG/1.1/DTD/svg11.dtd">
<svg version="1.1" xmlns="http://www.w3.org/2000/svg" xmlns:xlink="http://www.w3.org/1999/xlink" width="1024" height="1024" viewBox="0 0 1024 1024">
<g id="icomoon-ignore">
</g>
<path d="M855.040 691.2v-455.68h-138.24v558.080h261.12v-102.4z"></path>
<path d="M358.4 288.63c-15.36-33.562-66.007-53.11-102.497-53.11h-209.823v557.875l136.74-0.717-0.128-244.838h54.17c18.284 5.12 24.264 27.192 24.264 64.891v52.951c0 76.902 6.047 99.42 36.71 127.918h130.191c-30.664-19-37.453-40.76-36.664-95.99l-0.599-66.693c0-104.315-28.928-112.077-75.489-134.513 59.581-30.095 72.202-60.16 72.202-122.496 0-13.041-3.901-27.003-7.188-38.907l80.512-0.348v458.947h138.24v-455.68h102.4v-102.4h-343.040v53.11zM184.32 332.8h19.19c0.778 0 1.372-2.708 2.15-2.908 35.502-3.267 53.366 34.237 53.366 69.304 0 34.719-14.177 57.656-53.366 57.83-0.778 0.189-0.691-0.108-1.469-0.108l-19.871 0.108v-124.227z"></path>
</svg>
