<?xml version="1.0" encoding="utf-8"?>
<!-- Generator: Adobe Illustrator 19.2.1, SVG Export Plug-In . SVG Version: 6.00 Build 0)  -->
<svg version="1.1" id="Calque_1" xmlns="http://www.w3.org/2000/svg" xmlns:xlink="http://www.w3.org/1999/xlink" x="0px" y="0px"
	 viewBox="0 0 1024 1024" enable-background="new 0 0 1024 1024" xml:space="preserve">
<path fill="#444444" d="M957.8,0H73.4C34.9,0,0,29.1,0,67.5v881.3c0,38.4,34.9,75.2,73.4,75.2h884.3c38.5,0,66.2-36.8,66.2-75.2
	V67.5C1024,29.1,996.3,0,957.8,0z M847,338c0.3,7.1,0.5,14.1,0.5,21.2c0,216.7-172,466.6-486.5,466.6c-96.6,0-186.4-27.2-262.1-73.7
	c13.4,1.5,27,2.3,40.8,2.3c80.1,0,153.8-26.2,212.3-70.2c-74.8-1.3-138-48.7-159.7-113.9c10.4,2,21.1,3,32.2,3
	c15.5,0,28.8-2.1,43.2-5.8c-78.2-15.1-139-81.4-139-160.8c0-0.7,0-1.4,0-2.1c26.8,12.3,51.3,19.7,79.3,20.5
	c-45.9-29.4-75.2-79.6-75.2-136.5c0-30.1,8.9-58.2,23.6-82.4c84.3,99.2,210.6,164.5,352.7,171.3c-2.9-12-4.4-24.5-4.4-37.4
	c0-90.6,76.6-164,171.1-164c49.2,0,93.6,20,124.8,51.8c39-7.3,75.6-21,108.6-39.8c-12.8,38.3-39.8,70.4-75.2,90.7
	c34.6-4,67.6-12.8,98.2-25.8C909.4,286,880.4,314.9,847,338L847,338z"/>
</svg>
