<?xml version="1.0" encoding="utf-8"?>
<!-- Generated by IcoMoon.io -->
<!DOCTYPE svg PUBLIC "-//W3C//DTD SVG 1.1//EN" "http://www.w3.org/Graphics/SVG/1.1/DTD/svg11.dtd">
<svg version="1.1" xmlns="http://www.w3.org/2000/svg" xmlns:xlink="http://www.w3.org/1999/xlink" width="32" height="32" viewBox="0 0 32 32">
<path fill="#444444" d="M16.020 4.173c-6.556 0-11.87 5.304-11.87 11.847s5.314 11.848 11.87 11.848c6.555 0 11.869-5.305 11.869-11.848s-5.314-11.847-11.869-11.847zM21.989 13.979c0.174 3.865-2.714 8.174-7.825 8.174-1.555 0-3.001-0.455-4.22-1.235 1.461 0.172 2.918-0.232 4.076-1.137-1.205-0.023-2.221-0.816-2.572-1.909 0.431 0.083 0.856 0.058 1.243-0.046-1.324-0.266-2.238-1.456-2.208-2.729 0.371 0.206 0.796 0.33 1.247 0.344-1.226-0.818-1.573-2.433-0.852-3.669 1.358 1.663 3.386 2.757 5.674 2.872-0.402-1.719 0.905-3.374 2.682-3.374 0.791 0 1.507 0.334 2.009 0.868 0.627-0.123 1.216-0.352 1.748-0.667-0.206 0.642-0.642 1.18-1.211 1.52 0.557-0.066 1.088-0.214 1.582-0.432-0.37 0.55-0.836 1.035-1.374 1.422z"></path>
</svg>
