<?xml version="1.0" encoding="utf-8"?>
<!-- Generator: Adobe Illustrator 19.2.1, SVG Export Plug-In . SVG Version: 6.00 Build 0)  -->
<svg version="1.1" id="Calque_1" xmlns="http://www.w3.org/2000/svg" xmlns:xlink="http://www.w3.org/1999/xlink" x="0px" y="0px"
	 viewBox="0 0 1024 1024" enable-background="new 0 0 1024 1024" xml:space="preserve">
<path fill="#444444" d="M1023.9,199.4c-37.7,16.5-78.2,27.6-120.7,32.6c43.4-25.6,76.7-66.1,92.4-114.4
	c-40.6,23.7-85.5,40.9-133.4,50.2c-38.3-40.1-92.9-65.3-153.4-65.3c-116,0-210.1,92.6-210.1,206.8c0,16.2,1.9,31.9,5.5,47.1
	c-174.6-8.6-329.4-90.9-433-216c-18.1,30.5-28.4,66-28.4,103.9c0,71.7,37.1,135,93.5,172.1c-34.5-1.1-66.9-10.4-95.2-25.9
	c0,0.8,0,1.7,0,2.6c0,100.1,72.4,183.7,168.5,202.7c-17.6,4.7-36.2,7.3-55.3,7.3c-13.6,0-26.7-1.3-39.5-3.8
	c26.7,82.2,104.3,142,196.2,143.6c-71.9,55.5-162.5,88.5-260.9,88.5c-17,0-33.7-1-50.1-2.9c93,58.7,203.4,92.9,322.1,92.9
	c386.4,0,597.7-315.1,597.7-588.3c0-9-0.2-17.9-0.6-26.8C960.2,277.4,995.9,240.9,1023.9,199.4L1023.9,199.4z"/>
</svg>
