<?xml version="1.0" encoding="utf-8"?>
<!-- Generated by IcoMoon.io -->
<!DOCTYPE svg PUBLIC "-//W3C//DTD SVG 1.1//EN" "http://www.w3.org/Graphics/SVG/1.1/DTD/svg11.dtd">
<svg version="1.1" xmlns="http://www.w3.org/2000/svg" xmlns:xlink="http://www.w3.org/1999/xlink" width="32" height="32" viewBox="0 0 32 32">
<path fill="#444444" d="M29.384 0.32h-26.392c-1.151 0-2.192 0.89-2.192 2.067v26.991c0 1.177 1.041 2.303 2.192 2.303h26.392c1.15 0 1.976-1.126 1.976-2.303v-26.991c0-1.177-0.826-2.067-1.976-2.067zM26.078 10.673c0.010 0.216 0.015 0.432 0.015 0.65 0 6.637-5.133 14.289-14.518 14.289-2.882 0-5.564-0.832-7.822-2.257 0.399 0.046 0.805 0.070 1.217 0.070 2.39 0 4.59-0.802 6.337-2.15-2.233-0.040-4.117-1.492-4.766-3.489 0.311 0.060 0.631 0.092 0.96 0.092 0.464 0 0.86-0.063 1.288-0.177-2.334-0.461-4.149-2.492-4.149-4.924 0-0.022 0-0.044 0-0.064 0.8 0.376 1.531 0.602 2.368 0.628-1.37-0.901-2.243-2.439-2.243-4.18 0-0.921 0.265-1.783 0.705-2.524 2.517 3.038 6.284 5.037 10.525 5.247-0.088-0.369-0.13-0.751-0.13-1.144 0-2.774 2.286-5.023 5.105-5.023 1.467 0 2.794 0.611 3.725 1.586 1.163-0.225 2.255-0.643 3.24-1.218-0.381 1.173-1.189 2.157-2.244 2.778 1.033-0.121 2.016-0.391 2.931-0.79-0.683 1.007-1.549 1.892-2.545 2.6z"></path>
</svg>
