<?xml version="1.0" encoding="utf-8"?>
<!-- Generator: Adobe Illustrator 19.2.1, SVG Export Plug-In . SVG Version: 6.00 Build 0)  -->
<svg version="1.1" id="Calque_1" xmlns="http://www.w3.org/2000/svg" xmlns:xlink="http://www.w3.org/1999/xlink" x="0px" y="0px"
	 viewBox="0 0 1024 1024" enable-background="new 0 0 1024 1024" xml:space="preserve">
<path fill="#444444" d="M512,0C229.2,0,0,228.8,0,511s229.2,511.1,512,511.1c282.8,0,512-228.8,512-511.1S794.8,0,512,0z M769.5,423
	C777,589.7,652.4,775.6,432,775.6c-67.1,0-129.5-19.6-182-53.3c63,7.4,125.9-10,175.8-49c-52-1-95.8-35.2-110.9-82.3
	c18.6,3.6,36.9,2.5,53.6-2c-57.1-11.5-96.5-62.8-95.2-117.7c16,8.9,34.3,14.2,53.8,14.8c-52.9-35.3-67.9-104.9-36.8-158.3
	c58.6,71.7,146.1,118.9,244.8,123.9c-17.3-74.2,39-145.5,115.7-145.5c34.1,0,65,14.4,86.7,37.4c27-5.3,52.5-15.2,75.4-28.8
	c-8.9,27.7-27.7,50.9-52.2,65.6c24-2.8,46.9-9.2,68.2-18.6C812.8,385.5,792.7,406.4,769.5,423L769.5,423z"/>
</svg>
