<?xml version="1.0" encoding="utf-8"?>
<!-- Generator: Adobe Illustrator 19.2.1, SVG Export Plug-In . SVG Version: 6.00 Build 0)  -->
<svg version="1.1" id="Calque_1" xmlns="http://www.w3.org/2000/svg" xmlns:xlink="http://www.w3.org/1999/xlink" x="0px" y="0px"
	 viewBox="0 0 1072 1024" enable-background="new 0 0 1072 1024" xml:space="preserve">
<path fill="#444444" d="M243.2,1024V333.1H13.6V1024H243.2z M128.4,238.8c80,0,129.9-53.1,129.9-119.4C256.8,51.6,208.4,0,129.9,0
	C51.3,0,0,51.6,0,119.4c0,66.3,49.8,119.4,126.9,119.4H128.4z"/>
<path fill="#444444" d="M370.3,1024h229.7V638.2c0-20.6,1.5-41.3,7.5-56c16.6-41.3,54.4-84,117.8-84c83.1,0,116.3,63.4,116.3,156.3
	V1024h229.6V627.8c0-212.2-113.3-311-264.4-311c-123.9,0-178.3,69.3-208.5,116.4h1.5V333.1H370.3C373.3,397.9,370.3,1024,370.3,1024
	L370.3,1024z"/>
</svg>
