<?xml version="1.0" encoding="utf-8"?>
<!-- Generator: Adobe Illustrator 19.2.1, SVG Export Plug-In . SVG Version: 6.00 Build 0)  -->
<svg version="1.1" id="Calque_1" xmlns="http://www.w3.org/2000/svg" xmlns:xlink="http://www.w3.org/1999/xlink" x="0px" y="0px"
	 viewBox="0 0 1024 1024" enable-background="new 0 0 1024 1024" xml:space="preserve">
<path fill="#444444" d="M950.1,0H80.2C38.6,0,0,27.7,0,68.4v880c0,40.7,38.6,75.6,80.2,75.6h869.9c41.7,0,73.9-34.9,73.9-75.6v-880
	C1024,27.7,991.7,0,950.1,0z M318.7,851.6H167.2V391.8h151.5V851.6z M237.1,323.9h-1c-51.7,0-85.2-33.9-85.2-78.4
	c0-45.5,34.5-79.2,87.2-79.2s85.2,33.3,86.2,78.8C324.3,289.6,290.9,323.9,237.1,323.9L237.1,323.9z M867.3,851.6H710.5V606.5
	c0-62.3-19.6-104.9-75.4-104.9c-42.6,0-69.2,28.7-80.3,56.4c-4.1,9.9-6.3,23.8-6.3,37.6v256H399.5c0,0,2-412.7,0-459.8h149.1v64.7
	c31.3-31.6,58.2-76.6,140.1-76.6c101.5,0,178.6,66.3,178.6,208.8L867.3,851.6L867.3,851.6z"/>
<path fill="#444444" d="M553.7,458.1v-1.6c-0.3,0.5-0.7,1-1,1.6H553.7z"/>
</svg>
