<?xml version="1.0" encoding="utf-8"?>
<!-- Generated by IcoMoon.io -->
<!DOCTYPE svg PUBLIC "-//W3C//DTD SVG 1.1//EN" "http://www.w3.org/Graphics/SVG/1.1/DTD/svg11.dtd">
<svg version="1.1" xmlns="http://www.w3.org/2000/svg" xmlns:xlink="http://www.w3.org/1999/xlink" width="32" height="32" viewBox="0 0 32 32">
<path fill="#444444" d="M7.439 30.988v-20.226h-6.722v20.226h6.722zM4.079 8.002c2.343 0 3.803-1.554 3.803-3.495-0.044-1.984-1.46-3.495-3.759-3.495-2.3 0-3.803 1.511-3.803 3.495 0 1.94 1.459 3.495 3.715 3.495h0.044z"></path>
<path fill="#444444" d="M11.159 30.988h6.723v-11.295c0-0.604 0.043-1.208 0.221-1.64 0.486-1.208 1.592-2.46 3.449-2.46 2.433 0 3.405 1.856 3.405 4.574v10.82h6.722v-11.597c0-6.212-3.316-9.103-7.739-9.103-3.627 0-5.219 2.028-6.103 3.408h0.045v-2.933h-6.723c0.088 1.897 0 20.226 0 20.226v0z"></path>
</svg>
