<?xml version="1.0" encoding="utf-8"?>
<!-- Generator: Adobe Illustrator 19.2.1, SVG Export Plug-In . SVG Version: 6.00 Build 0)  -->
<svg version="1.1" id="Calque_1" xmlns="http://www.w3.org/2000/svg" xmlns:xlink="http://www.w3.org/1999/xlink" x="0px" y="0px"
	 viewBox="0 0 1024 1024" enable-background="new 0 0 1024 1024" xml:space="preserve">
<path fill="#444444" d="M512,0C229.2,0,0,229.2,0,512s229.2,512,512,512c282.8,0,512-229.2,512-512S794.8,0,512,0z M365.4,763.3
	H250.2V417.7h115.2C365.4,417.7,365.4,763.3,365.4,763.3z M373.9,314.4c0,33-24.9,56.2-64.8,56.2h-0.7c-38.4,0-63.2-23.2-63.2-56.2
	c0-33.7,25.6-57.9,64.8-57.9c39.1,0,63.2,24.9,64,58.7c0,0.1,0-0.5,0-0.4C373.9,314.9,373.9,314.3,373.9,314.4L373.9,314.4z
	 M779.1,763.3H663.9V584.1c0-46.2-16.5-77.8-57.8-77.8c-15.8,0-28.7,5.4-38.4,13.4c-9.5,7.9-15.9,18.3-20.1,28.5
	c-3,7.3-4.2,17.6-4.2,27.9v187.3H429.6c0,0,1.5-308.9,0-345.6h113.8v55.1c15.7-23.4,42.8-56.9,103.5-56.9
	c75.3,0,132.1,49.2,132.1,154.9L779.1,763.3L779.1,763.3z"/>
</svg>
