<?xml version="1.0" encoding="utf-8"?>
<!-- Generated by IcoMoon.io -->
<!DOCTYPE svg PUBLIC "-//W3C//DTD SVG 1.1//EN" "http://www.w3.org/Graphics/SVG/1.1/DTD/svg11.dtd">
<svg version="1.1" xmlns="http://www.w3.org/2000/svg" xmlns:xlink="http://www.w3.org/1999/xlink" width="32" height="32" viewBox="0 0 32 32">
<path fill="#444444" d="M15.98 4.12c-6.586 0-11.924 5.338-11.924 11.924s5.338 11.924 11.924 11.924c6.585 0 11.924-5.339 11.924-11.924s-5.339-11.924-11.924-11.924zM12.565 21.897h-2.683v-8.049h2.683v8.049zM12.763 11.442c0 0.769-0.579 1.31-1.508 1.31h-0.017c-0.894 0-1.472-0.54-1.472-1.31 0-0.786 0.596-1.348 1.508-1.348 0.911 0 1.472 0.58 1.49 1.367 0 0.002-0-0.011-0-0.009s0-0.012 0-0.010zM22.2 21.897h-2.683v-4.173c0-1.076-0.385-1.811-1.347-1.813-0.368 0.001-0.668 0.126-0.895 0.311-0.222 0.184-0.371 0.426-0.467 0.664-0.070 0.171-0.097 0.41-0.097 0.65v4.361h-2.65c0 0 0.035-7.195 0-8.049h2.65v1.284c0.366-0.546 0.996-1.324 2.411-1.324 1.753 0 3.077 1.146 3.077 3.608v4.481z"></path>
</svg>
