<?xml version="1.0" encoding="utf-8"?>
<!-- Generator: Adobe Illustrator 19.2.1, SVG Export Plug-In . SVG Version: 6.00 Build 0)  -->
<svg version="1.1" id="Calque_1" xmlns="http://www.w3.org/2000/svg" xmlns:xlink="http://www.w3.org/1999/xlink" x="0px" y="0px"
	 viewBox="0 0 1024 1024" enable-background="new 0 0 1024 1024" xml:space="preserve">
<path fill="#444444" d="M967.4,0H56.5C25.3,0,0,25.3,0,56.6v910.9c0,31.2,25.3,56.5,56.5,56.5h490.4V627.5H413.5V472.9h133.4v-114
	c0-132.2,80.8-204.3,198.7-204.3c56.5,0,105.1,4.2,119.2,6.1V299l-81.8,0c-64.2,0-76.6,30.5-76.6,75.2v98.7h153l-19.9,154.5H706.5
	V1024h260.9c31.2,0,56.5-25.3,56.5-56.5V56.5C1024,25.3,998.7,0,967.4,0L967.4,0z"/>
</svg>
