<?xml version="1.0" encoding="utf-8"?>
<!-- Generator: Adobe Illustrator 19.2.1, SVG Export Plug-In . SVG Version: 6.00 Build 0)  -->
<svg version="1.1" id="Layer_1" xmlns="http://www.w3.org/2000/svg" xmlns:xlink="http://www.w3.org/1999/xlink" x="0px" y="0px"
	 viewBox="0 0 1024 1024" enable-background="new 0 0 1024 1024" xml:space="preserve">
<g>
	<path fill="#444444" d="M1024,960c0,35.3-28.7,64-64,64H64c-35.3,0-64-28.7-64-64V64C0,28.7,28.7,0,64,0h896c35.3,0,64,28.7,64,64
		V960z"/>
	<path id="f" fill="#FFFFFF" d="M704,1024V640h128l32-160H704v-64c0-64,32.1-96,96-96h64V160c-32,0-71.7,0-128,0
		c-117.6,0-192,92.2-192,224v96H416v160h128v384H704z"/>
</g>
</svg>
