<?xml version="1.0" encoding="utf-8"?>
<!-- Generator: Adobe Illustrator 19.2.1, SVG Export Plug-In . SVG Version: 6.00 Build 0)  -->
<svg version="1.1" id="Calque_1" xmlns="http://www.w3.org/2000/svg" xmlns:xlink="http://www.w3.org/1999/xlink" x="0px" y="0px"
	 viewBox="0 0 1024 1024" enable-background="new 0 0 1024 1024" xml:space="preserve">
<path fill="#444444" d="M512,0C229.2,0,0,229.2,0,512s229.2,512,512,512c282.8,0,512-229.2,512-512S794.8,0,512,0z M663.5,301.2
	c0,0-51.2,0-71.6,0c-25.3,0-30.5,10.4-30.5,36.5c0,21.8,0,63.1,0,63.1h102.1l-9.8,110.8h-92.3v331.1H429.2V513.1h-68.8V400.8h68.8
	c0,0,0-16.2,0-88.4c0-83,44.4-126.3,142.8-126.3c16.1,0,91.5,0,91.5,0L663.5,301.2L663.5,301.2z"/>
</svg>
