<?xml version="1.0" encoding="utf-8"?>
<!-- Generated by IcoMoon.io -->
<!DOCTYPE svg PUBLIC "-//W3C//DTD SVG 1.1//EN" "http://www.w3.org/Graphics/SVG/1.1/DTD/svg11.dtd">
<svg version="1.1" xmlns="http://www.w3.org/2000/svg" xmlns:xlink="http://www.w3.org/1999/xlink" width="32" height="32" viewBox="0 0 32 32">
<path fill="#444444" d="M29.949 0.32h-27.899c-0.956 0-1.731 0.775-1.731 1.731v27.898c0 0.956 0.775 1.731 1.731 1.731h15.020v-12.144h-4.087v-4.733h4.087v-3.491c0-4.050 2.474-6.256 6.087-6.256 1.731 0 3.218 0.128 3.652 0.186v4.233l-2.506 0.001c-1.965 0-2.346 0.934-2.346 2.304v3.022h4.687l-0.61 4.733h-4.076v12.144h7.992c0.956 0 1.731-0.775 1.731-1.731v-27.898c0-0.956-0.775-1.731-1.731-1.731z"></path>
</svg>
