<?xml version="1.0" encoding="utf-8"?>
<!-- Generated by IcoMoon.io -->
<!DOCTYPE svg PUBLIC "-//W3C//DTD SVG 1.1//EN" "http://www.w3.org/Graphics/SVG/1.1/DTD/svg11.dtd">
<svg version="1.1" xmlns="http://www.w3.org/2000/svg" xmlns:xlink="http://www.w3.org/1999/xlink" width="32" height="32" viewBox="0 0 32 32">
<path fill="#444444" d="M14.516 12.877v7.176c0 0.73 0.662 1.321 1.48 1.321s1.48-0.591 1.48-1.321v-7.176c0-0.73-0.663-1.321-1.48-1.321s-1.48 0.592-1.48 1.321zM31.279 27.957c-0.602-1.138-12.747-23.882-13.786-25.822-0.683-1.275-2.31-1.253-2.993 0-0.763 1.397-12.97 24.227-13.818 25.881-0.622 1.21 0.065 2.798 1.48 2.798h27.628c1.285 0 2.24-1.437 1.488-2.857zM4.15 27.849l11.845-22.21 11.844 22.21h-23.689zM15.996 22.82c-0.818 0-1.48 0.628-1.48 1.402s0.662 1.403 1.48 1.403c0.817 0 1.48-0.627 1.48-1.403s-0.663-1.402-1.48-1.402z"></path>
</svg>
