<?xml version="1.0" encoding="utf-8"?>
<!-- Generated by IcoMoon.io -->
<!DOCTYPE svg PUBLIC "-//W3C//DTD SVG 1.1//EN" "http://www.w3.org/Graphics/SVG/1.1/DTD/svg11.dtd">
<svg version="1.1" xmlns="http://www.w3.org/2000/svg" xmlns:xlink="http://www.w3.org/1999/xlink" width="32" height="32" viewBox="0 0 32 32">
<path fill="#444444" d="M16.971 16.016l-7.289 7.731c-0.732 0.778-0.732 2.038 0 2.815l0.664 0.704c0.733 0.779 1.92 0.779 2.653 0l8.579-9.102c0.015-0.013 0.032-0.016 0.044-0.028l0.663-0.703c0.369-0.393 0.551-0.906 0.549-1.416 0.002-0.511-0.18-1.025-0.549-1.417l-0.663-0.7c-0.013-0.016-0.031-0.021-0.044-0.036l-8.579-9.099c-0.733-0.775-1.92-0.775-2.653 0l-0.664 0.702c-0.732 0.778-0.732 2.037 0 2.818l7.289 7.73z"></path>
</svg>
