<?xml version="1.0" encoding="utf-8"?>
<!-- Generated by IcoMoon.io -->
<!DOCTYPE svg PUBLIC "-//W3C//DTD SVG 1.1//EN" "http://www.w3.org/Graphics/SVG/1.1/DTD/svg11.dtd">
<svg version="1.1" xmlns="http://www.w3.org/2000/svg" xmlns:xlink="http://www.w3.org/1999/xlink" width="32" height="32" viewBox="0 0 32 32">
<path fill="#444444" d="M15.998 27.866c6.541 0 11.842-5.313 11.842-11.866s-5.301-11.866-11.842-11.866c-6.54 0-11.838 5.313-11.838 11.866s5.298 11.866 11.838 11.866zM15.998 25.888c-5.44 0-9.868-4.436-9.868-9.888s4.428-9.889 9.868-9.889c5.441 0 9.868 4.437 9.868 9.889s-4.427 9.888-9.868 9.888zM15.398 19.669c0.163 0.171 0.38 0.256 0.593 0.254 0.216 0.002 0.43-0.083 0.593-0.254l0.295-0.309c0.005-0.006 0.008-0.013 0.012-0.020l3.847-3.998c0.329-0.343 0.329-0.896 0-1.237l-0.293-0.31c-0.327-0.34-0.855-0.34-1.18 0l-3.275 3.398-3.241-3.398c-0.327-0.34-0.857-0.34-1.183 0l-0.295 0.31c-0.325 0.342-0.325 0.895 0 1.237l3.816 3.998c0.007 0.006 0.009 0.014 0.012 0.020l0.296 0.31z"></path>
</svg>
