<?xml version="1.0" encoding="utf-8"?>
<!-- Generated by IcoMoon.io -->
<!DOCTYPE svg PUBLIC "-//W3C//DTD SVG 1.1//EN" "http://www.w3.org/Graphics/SVG/1.1/DTD/svg11.dtd">
<svg version="1.1" xmlns="http://www.w3.org/2000/svg" xmlns:xlink="http://www.w3.org/1999/xlink" width="32" height="32" viewBox="0 0 32 32">
<path fill="#444444" d="M15.998 4.134c-6.54 0-11.838 5.313-11.838 11.866s5.299 11.866 11.838 11.866c6.541 0 11.842-5.313 11.842-11.866s-5.301-11.866-11.842-11.866zM15.998 25.888c-5.44 0-9.868-4.437-9.868-9.889s4.428-9.888 9.868-9.888c5.441 0 9.868 4.436 9.868 9.888s-4.427 9.889-9.868 9.889zM16.892 12.661c-0.005-0.007-0.007-0.014-0.012-0.020l-0.295-0.309c-0.163-0.171-0.377-0.256-0.593-0.254-0.214-0.002-0.431 0.083-0.593 0.254l-0.296 0.309c-0.003 0.006-0.006 0.014-0.012 0.020l-3.816 3.998c-0.325 0.343-0.325 0.896 0 1.237l0.295 0.31c0.326 0.34 0.856 0.34 1.183 0l3.241-3.398 3.275 3.398c0.324 0.34 0.852 0.34 1.18 0l0.293-0.31c0.329-0.342 0.329-0.895 0-1.237l-3.847-3.998z"></path>
</svg>
