<?xml version="1.0" encoding="utf-8"?>
<!-- Generator: Adobe Illustrator 18.1.1, SVG Export Plug-In . SVG Version: 6.00 Build 0)  -->
<svg version="1.1" id="Layer_1" xmlns="http://www.w3.org/2000/svg" xmlns:xlink="http://www.w3.org/1999/xlink" x="0px" y="0px"
	 viewBox="-187 286.6 44.2 50" enable-background="new -187 286.6 44.2 50" xml:space="preserve">
<path d="M-150.8,288.6c0.1,0.4,0.3,0.9,0.6,1.8c1,2.2,2.8,3.6,4.6,4.3l1.2,0.3l0,7.7c-0.9,0.2-1.9,0.8-2.4,1.3c-1,1.1-1,2.9-1,4.8
	c0,1.1,0.5,2.2,1.1,3.5c0.9,1.6,1,3.8,1,5.4c0,3-1,5.6-2.9,7.5c-1,1-1.8,1.8-2.6,2.3c-2.2,1.6-5.3,3.1-7.8,4.3
	c-0.4,0.2-2.9,1.4-5.9,2.8l-5.8-2.8c-2.5-1.2-5.6-2.7-7.8-4.3c-0.8-0.6-1.6-1.4-2.6-2.3c-1.9-2-2.9-4.5-2.9-7.5c0-1.6,0.2-3.8,1-5.4
	c0.6-1.3,1.1-2.4,1.1-3.5c0-1.9,0-3.7-1-4.8c-0.5-0.5-1.5-1.1-2.4-1.3l0-7.7l1.2-0.3c1.8-0.7,3.6-2.1,4.6-4.3
	c0.3-0.8,0.5-1.4,0.6-1.8h10.2c0,0.1,0,0.3,0,0.4c0,1.5,1.2,3.3,3.8,3.3c0,0,0,0,0,0h0c0,0,0,0,0,0c2.5,0,3.8-1.8,3.8-3.3
	c0-0.1,0-0.3,0-0.4H-150.8 M-149.5,286.9h-1.4h-10.2h-2l0.3,1.8c0,0.1,0,0.2,0,0.3c0,0.6-0.6,1.6-2.1,1.6c-1.5,0-2.1-1-2.1-1.6
	c0-0.1,0-0.2,0-0.3l0.3-1.8h-2h-10.2h-1.4l-0.3,1.4c0,0.1-0.1,0.5-0.5,1.5c-0.9,1.9-2.4,2.8-3.6,3.3l-1.1,0.3l-1.2,0.4l0,1.3l0,7.7
	l0,1.3l1.3,0.3c0.6,0.1,1.3,0.6,1.6,0.9c0.5,0.6,0.5,2.2,0.5,3.6c0,0.7-0.4,1.4-0.8,2.5l-0.1,0.2c-0.8,1.5-1.2,3.6-1.2,6.2
	c0,3.5,1.1,6.4,3.4,8.7c1,1,1.9,1.9,2.8,2.5c2,1.5,4.7,2.8,7,4c0.3,0.2,0.7,0.3,1,0.5l0,0l0,0l5.8,2.8l0.7,0.4l0.7-0.4
	c2.2-1.1,4.2-2,5.2-2.5c0.4-0.2,0.6-0.3,0.7-0.3l0,0l0,0c0.3-0.2,0.7-0.3,1-0.5c2.3-1.2,5-2.5,7-4c0.8-0.6,1.8-1.5,2.8-2.5
	c2.2-2.3,3.4-5.2,3.4-8.7c0-2.6-0.4-4.6-1.2-6.2l-0.1-0.2c-0.5-1.1-0.8-1.8-0.8-2.5c0-1.4,0-3,0.5-3.6c0.3-0.3,1-0.7,1.6-0.9
	l1.3-0.3l0-1.3l0-7.7l0-1.3l-1.2-0.4l-1.1-0.3c-1.2-0.5-2.8-1.5-3.6-3.3c-0.4-1-0.5-1.3-0.5-1.5L-149.5,286.9L-149.5,286.9z"/>
<polygon points="-164.3,325.3 -163.5,327.6 -161.1,327.7 -163,329.2 -162.3,331.5 -164.3,330.1 -166.3,331.5 -165.6,329.2 
	-167.6,327.7 -165.1,327.6 "/>
<g>
	<path d="M-170.2,295.5h4.1l-4.4,16.2h-5.9l-4.4-16.2h4l3.2,12.5h0.1L-170.2,295.5z"/>
	<path d="M-161.7,311.7v-16.2h8c3.8,0,5.2,1.7,5.2,5.9c0,4.6-1,6.1-5.2,6.1h-3.6v4.2H-161.7z M-154.7,303.8c1.6-0.1,1.8-0.3,1.8-2.4
		c0-1.7-0.2-2.2-1.8-2.2h-2.6v4.5H-154.7z"/>
	<polygon points="-164.6,295.5 -167.6,305.9 -167.6,311.7 -163.2,311.7 -163.2,295.5 	"/>
</g>
<g>
	<path d="M-173.1,318.7v0.3c0,1,0,1.8-0.8,2.5c-0.8,0.6-1.8,0.6-2.8,0.6c-2.4,0-4.2-0.1-4.2-3.3v-2.3c0-2.9,1.6-3.3,4.2-3.3
		c2.4,0,3.6,0.2,3.6,2.9v0.3h-2.4v-0.3c-0.1-0.8-0.6-0.8-1.4-0.8c-1.4,0-1.5,0.4-1.5,1.6v1.4c0,1.3,0.1,1.8,1.5,1.8
		c1,0,1.5-0.1,1.5-1.1v-0.3H-173.1z"/>
	<path d="M-169.6,320h3.8v2.1h-6.3v-8.8h2.4V320z"/>
	<path d="M-157.1,313.2v5.9c0,2.3-1.1,3-3.8,3c-3.6,0-4-0.9-4-3v-5.9h2.4v5.8c0,1,0.6,1,1.6,1c1,0,1.4-0.1,1.4-1.1v-5.7H-157.1z"/>
	<path d="M-156.1,313.2h4.8c1.8,0,2.9,0.3,2.9,2.3c0,1.1-0.2,1.9-1.4,2v0.1c1.3,0.1,1.6,0.9,1.6,2c0,2.2-1,2.5-3,2.5h-4.8V313.2z
		 M-153.7,316.8h1.8c0.9,0,1.1-0.1,1.1-0.8c0-0.5-0.1-0.7-0.8-0.8h-2V316.8z M-153.7,320.2h1.8c0.8,0,1.1-0.2,1.1-0.9
		c0-0.7-0.3-0.8-1.1-0.8h-1.9V320.2z"/>
</g>
</svg>
