<?xml version="1.0" encoding="utf-8"?>
<!-- Generated by IcoMoon.io -->
<!DOCTYPE svg PUBLIC "-//W3C//DTD SVG 1.1//EN" "http://www.w3.org/Graphics/SVG/1.1/DTD/svg11.dtd">
<svg version="1.1" xmlns="http://www.w3.org/2000/svg" xmlns:xlink="http://www.w3.org/1999/xlink" width="512" height="512" viewBox="0 0 512 512"><g id="icomoon-ignore">
</g>
<path d="M495.435 182.671l0.193-61.253-9.274-2.705c-14.492-5.796-29.178-16.424-37.099-34.201-2.512-6.57-4.058-11.4-4.637-14.106h-81.542c0.193 0.966-0.193 2.126-0.193 3.284 0 12.174-10.048 26.472-30.144 26.472s-31.11-14.299-31.11-26.471c0-1.159-0.386-2.126-0.193-3.284h-81.736l-0.194 0.966c-0.966 4.058-4.637 17.971-15.265 29.95-1.159 1.353-2.319 2.898-3.478 4.444-3.285 3.284-6.183 5.024-9.082 6.183-5.603 3.284-14.685 8.115-22.801 9.662v32.462c-4.831-0.773-9.855-1.159-14.879-1.159-61.639 0-102.603 58.935-45.215 162.891 19.322 35.167-20.868 43.476-61.639 52.558-41.737 9.468-38.452 31.11-38.452 70.334h290.807c0-5.603 0-11.014 0-16.038 8.695 4.058 20.096 9.662 32.849 16.038 24.154-11.594 44.442-20.868 47.534-22.414 19.902-10.048 44.635-21.449 62.219-34.588 6.183-4.637 12.947-10.82 20.675-18.55 15.265-15.845 22.994-35.94 22.994-60.094 0-12.56-1.353-30.144-8.309-43.089-4.83-10.627-8.889-18.936-8.889-28.018 0-15.458 0.193-29.756 7.922-38.259 3.865-4.444 11.787-9.082 18.935-11.014zM468.384 185.955l-0.193 0.194c-10.82 11.787-10.82 29.756-10.82 45.601 0 10.627 4.058 19.709 8.889 30.144l0.966 2.125 0.386 0.773c4.637 8.502 6.957 21.642 6.957 38.065 0 21.449-6.57 38.839-19.902 52.558-7.149 7.342-13.719 13.139-19.322 17.39-14.299 10.627-34.588 20.675-52.171 29.37l-8.115 4.058c-0.773 0.386-2.705 1.159-5.411 2.512-7.536 3.478-21.255 9.855-37.293 17.584-13.526-6.57-25.119-12.173-33.235-16.038-1.353-21.834-7.922-35.361-38.259-42.123-21.834-5.024-42.897-9.662-55.263-17.971-3.864-4.444-5.411-6.957-5.797-7.729l-0.579-0.579-0.386-0.579c-1.159-1.546-3.285-7.536-4.637-11.207 0.386-4.252 1.739-9.274 4.831-14.685 48.694-90.237 25.506-144.727-19.516-159.026v-26.858c6.763-2.512 13.139-5.797 17.004-8.115 3.285-1.546 7.536-3.865 11.98-8.309l0.386-0.386c1.353-1.546 2.512-3.091 3.672-4.638 8.115-9.468 12.753-19.903 15.265-26.859h63.764c3.865 15.459 18.743 29.757 40.964 29.757s36.713-14.105 40.191-29.757h63.764c0.773 2.126 1.546 4.444 2.512 7.15l0.386 0.773c10.241 22.801 28.983 34.201 43.089 39.805l0.386 0.194 0.579 0.194 1.353 0.386-0.193 45.601c-6.183 2.705-11.98 6.57-16.231 10.627v0z"></path>
<path d="M291.388 264.599l30.724-112.459h-28.404l-22.801 86.566h-0.773l-22.221-86.566h-28.018l30.53 112.459z"></path>
<path d="M383.171 235.808h25.119c29.564 0 36.327-10.821 36.327-42.317 0-29.37-9.855-41.157-36.327-41.157h-55.649v112.264h30.529v-28.791zM383.171 178.226h17.971c11.014 0 12.753 3.672 12.753 15.072 0 14.492-1.546 15.845-12.753 16.424h-17.971v-31.496z"></path>
<path d="M311.676 264.599h30.724v-112.459h-10.048l-20.675 71.881z"></path>
<path d="M256.993 314.838c0 7.149-3.285 7.536-10.048 7.536-9.855 0-10.241-3.478-10.241-12.56v-9.468c0-8.695 0.966-11.401 10.241-11.401 5.603 0 9.468 0.386 10.048 5.796v2.319h17.004v-2.319c-0.386-18.163-8.115-19.709-25.119-19.709-17.97 0-28.984 2.899-28.984 22.801v15.651c0 22.028 12.173 22.801 28.984 22.801 7.15 0 13.912 0 19.516-4.444 5.603-4.637 5.603-10.627 5.603-17.197v-1.739h-17.004v1.932z"></path>
<path d="M324.43 322.18h-26.471v-47.147h-16.81v61.253h43.283z"></path>
<path d="M368.099 314.451c0 7.149-2.512 7.729-9.468 7.729s-11.014 0-11.014-6.957v-40.191h-17.004v40.577c0 14.685 2.705 20.675 27.825 20.675 18.357 0 26.279-4.444 26.279-20.675v-40.577h-16.81v39.418z"></path>
<path d="M434.57 305.563v-0.579c8.309-1.353 9.855-6.377 9.855-14.106 0-13.332-7.342-15.651-19.902-15.651h-33.235v61.253h33.622c13.332 0 20.675-2.125 20.675-17.004 0-7.922-1.546-13.332-11.014-13.911zM408.291 288.366h14.106c4.637 0.193 5.217 1.546 5.217 5.217 0 4.83-1.353 5.796-7.342 5.796h-12.173v-11.014zM420.85 322.953h-12.753v-11.98h13.139c5.411 0 7.342 0.773 7.342 5.797 0.193 5.024-2.125 6.183-7.729 6.183z"></path>
<path d="M337.183 387.877l-3.865-11.207-3.865 11.207-11.98 0.193 9.468 7.342-3.478 11.399 9.855-6.957 9.855 6.957-3.478-11.401 9.468-7.342z"></path>
</svg>
