<?xml version="1.0" encoding="utf-8"?>
<!-- Generated by IcoMoon.io -->
<!DOCTYPE svg PUBLIC "-//W3C//DTD SVG 1.1//EN" "http://www.w3.org/Graphics/SVG/1.1/DTD/svg11.dtd">
<svg version="1.1" xmlns="http://www.w3.org/2000/svg" xmlns:xlink="http://www.w3.org/1999/xlink" width="32" height="32" viewBox="0 0 32 32">
<path fill="#444444" d="M29.162 0.32h-26.425c-1.152 0-1.936 1.133-1.936 2.312v27.026c0 1.178 0.784 2.022 1.936 2.022h26.425c1.152 0 2.038-0.844 2.038-2.022v-27.026c0-1.179-0.886-2.312-2.038-2.312zM12.589 22.867l-4.964 1.629 1.229-4.055c-1.087-1.135-1.765-2.723-1.765-4.445 0-4.069 3.907-7.365 8.727-7.365s8.727 3.297 8.727 7.365c-0 4.524-5.048 8.742-11.953 6.87z"></path>
</svg>
