<?xml version="1.0" encoding="utf-8"?>
<!-- Generated by IcoMoon.io -->
<!DOCTYPE svg PUBLIC "-//W3C//DTD SVG 1.1//EN" "http://www.w3.org/Graphics/SVG/1.1/DTD/svg11.dtd">
<svg version="1.1" xmlns="http://www.w3.org/2000/svg" xmlns:xlink="http://www.w3.org/1999/xlink" width="32" height="32" viewBox="0 0 32 32">
<path fill="#444444" d="M0.080 6.952c0-0.601 0-1.203 0-1.804 0.107-0.025 0.214-0.073 0.321-0.073 1.804-0.004 3.608-0.003 5.412-0.003 0.101 0 0.202 0 0.32 0-0.029-0.45-0.057-0.855-0.082-1.26-0.080-1.27-0.159-2.541-0.239-3.811 6.81 0 13.62 0 20.431 0-0.002 0.124 0.001 0.248-0.007 0.371-0.097 1.472-0.197 2.944-0.294 4.417-0.006 0.084-0.001 0.17-0.001 0.277 0.127 0 0.232 0 0.337 0 1.768 0 3.535-0 5.303 0.001 0.114 0 0.227 0.019 0.341 0.029 0 0.884 0 1.769 0 2.653-0.016 0.077-0.035 0.154-0.048 0.231-0.162 1.002-0.243 2.024-0.498 3.001-1.131 4.342-3.677 7.544-7.799 9.412-0.858 0.389-1.77 0.656-2.65 0.999-0.233 0.091-0.469 0.221-0.651 0.389-0.868 0.799-1.835 1.409-3.001 1.66-0.223 0.048-0.309 0.176-0.308 0.392 0.004 0.628 0.001 1.256 0.009 1.884 0.006 0.502 0.16 0.963 0.482 1.347 0.231 0.277 0.485 0.54 0.759 0.775 0.994 0.857 2.146 1.452 3.333 1.991 0.304 0.138 0.596 0.307 0.88 0.483 0.296 0.184 0.499 0.438 0.401 0.817-0.101 0.391-0.338 0.661-0.758 0.716-0.227 0.030-0.458 0.043-0.687 0.043-3.573 0.007-7.146 0.011-10.719 0.015-0.212 0-0.426 0.007-0.636-0.014-0.397-0.041-0.728-0.323-0.809-0.666-0.077-0.326 0.064-0.628 0.424-0.867 0.206-0.136 0.421-0.259 0.641-0.372 0.534-0.274 1.082-0.523 1.608-0.812 0.909-0.5 1.782-1.056 2.484-1.835 0.5-0.555 0.749-1.207 0.723-1.963-0.017-0.512-0.015-1.025-0.010-1.537 0.002-0.217-0.063-0.345-0.294-0.392-1.123-0.233-2.070-0.802-2.898-1.574-0.287-0.268-0.603-0.439-0.98-0.544-1.663-0.464-3.223-1.158-4.641-2.152-3.661-2.567-5.513-6.174-6.039-10.538-0.068-0.559-0.108-1.122-0.161-1.683zM2.049 7c-0.011 0.237-0.037 0.457-0.027 0.675 0.021 0.45 0.022 0.905 0.1 1.346 0.554 3.142 2.037 5.789 4.333 7.983 0.818 0.782 1.749 1.403 2.84 1.753 0.101 0.033 0.206 0.057 0.328 0.090-0.329-0.755-0.663-1.457-0.943-2.18-1.16-2.998-1.791-6.126-2.232-9.298-0.047-0.338-0.12-0.407-0.461-0.406-1.149 0.001-2.298 0.003-3.447 0.008-0.157 0.001-0.314 0.018-0.493 0.029zM30.016 6.996c-0.128-0.008-0.224-0.020-0.32-0.020-1.212-0.004-2.423-0.008-3.635-0.010-0.371-0.001-0.395 0.030-0.457 0.393-0.228 1.341-0.431 2.687-0.699 4.020-0.505 2.51-1.239 4.949-2.396 7.246-0.033 0.066-0.052 0.138-0.097 0.258 2.067-0.852 3.743-2.12 5.032-3.88 1.735-2.37 2.48-5.063 2.572-8.006z"></path>
</svg>
