<?xml version="1.0" encoding="utf-8"?>
<!-- Generated by IcoMoon.io -->
<!DOCTYPE svg PUBLIC "-//W3C//DTD SVG 1.1//EN" "http://www.w3.org/Graphics/SVG/1.1/DTD/svg11.dtd">
<svg version="1.1" xmlns="http://www.w3.org/2000/svg" xmlns:xlink="http://www.w3.org/1999/xlink" width="32" height="32" viewBox="0 0 32 32">
<path fill="#444444" d="M1.163 27.085c3.549-3.561 7.12-7.145 10.752-10.79 1.116 0.853 2.303 1.719 3.438 2.647 0.498 0.408 0.837 0.455 1.362 0.018 1.129-0.941 2.325-1.802 3.418-2.637 3.617 3.612 7.182 7.173 10.775 10.762-9.892-0-19.832-0-29.746-0z"></path>
<path fill="#444444" d="M31.101 4.738c-2.812 2.161-5.42 4.168-8.031 6.172-2.139 1.642-4.283 3.279-6.42 4.924-0.336 0.258-0.599 0.474-1.055 0.122-4.738-3.666-9.493-7.309-14.241-10.961-0.046-0.035-0.068-0.101-0.167-0.256 9.93 0 19.794 0 29.914 0z"></path>
<path fill="#444444" d="M9.603 14.507c-2.969 2.984-5.833 5.863-8.724 8.769 0-5.053 0-10.132 0-15.46 3.027 2.322 5.914 4.535 8.724 6.691z"></path>
<path fill="#444444" d="M22.512 14.494c2.767-2.121 5.656-4.335 8.694-6.664 0 5.309 0 10.406 0 15.444-2.861-2.889-5.731-5.788-8.694-8.78z"></path>
</svg>
