<?xml version="1.0" encoding="utf-8"?>
<!-- Generated by IcoMoon.io -->
<!DOCTYPE svg PUBLIC "-//W3C//DTD SVG 1.1//EN" "http://www.w3.org/Graphics/SVG/1.1/DTD/svg11.dtd">
<svg version="1.1" xmlns="http://www.w3.org/2000/svg" xmlns:xlink="http://www.w3.org/1999/xlink" width="32" height="32" viewBox="0 0 32 32">
<path fill="#444444" d="M15.973 0.053c-8.807 0-15.946 7.14-15.946 15.946s7.14 15.947 15.946 15.947c8.807 0 15.947-7.139 15.947-15.947s-7.139-15.946-15.947-15.946zM15.942 28.039c-6.666 0-12.070-5.404-12.070-12.070s5.404-12.071 12.070-12.071c6.666 0 12.070 5.404 12.070 12.071s-5.404 12.070-12.070 12.070z"></path>
<path fill="#444444" d="M15.975 12.535c-0.88 0-1.594 0.738-1.594 1.647v8.947c0 0.909 0.714 1.647 1.594 1.647s1.593-0.737 1.593-1.647v-8.947c0-0.909-0.713-1.647-1.593-1.647z"></path>
<path fill="#444444" d="M17.568 8.984c0 0.966-0.714 1.749-1.594 1.749s-1.594-0.783-1.594-1.749c0-0.966 0.714-1.749 1.594-1.749s1.594 0.783 1.594 1.749z"></path>
</svg>
