<?xml version="1.0" encoding="utf-8"?>
<!-- Generated by IcoMoon.io -->
<!DOCTYPE svg PUBLIC "-//W3C//DTD SVG 1.1//EN" "http://www.w3.org/Graphics/SVG/1.1/DTD/svg11.dtd">
<svg version="1.1" xmlns="http://www.w3.org/2000/svg" xmlns:xlink="http://www.w3.org/1999/xlink" width="32" height="32" viewBox="0 0 32 32">
<path fill="#444444" d="M2.43 7.66h27.153c1.071 0 1.94-0.87 1.94-1.943s-0.869-1.943-1.94-1.943h-27.153c-1.070 0-1.94 0.87-1.94 1.943s0.869 1.943 1.94 1.943zM29.583 14.136h-27.153c-1.070 0-1.94 0.872-1.94 1.944 0 1.071 0.869 1.943 1.94 1.943h27.153c1.071 0 1.94-0.872 1.94-1.943 0-1.073-0.869-1.944-1.94-1.944zM29.583 24.5h-27.153c-1.070 0-1.94 0.871-1.94 1.943 0 1.074 0.869 1.943 1.94 1.943h27.153c1.071 0 1.94-0.869 1.94-1.943 0-1.072-0.869-1.943-1.94-1.943z"></path>
</svg>
