<?xml version="1.0" encoding="utf-8"?>
<!-- Generated by IcoMoon.io -->
<!DOCTYPE svg PUBLIC "-//W3C//DTD SVG 1.1//EN" "http://www.w3.org/Graphics/SVG/1.1/DTD/svg11.dtd">
<svg version="1.1" xmlns="http://www.w3.org/2000/svg" xmlns:xlink="http://www.w3.org/1999/xlink" width="32" height="32" viewBox="0 0 32 32">
<path fill="#444444" d="M14.728 11.856c-1.598 0-2.898 1.292-2.898 2.88 0 1.587 1.3 2.879 2.898 2.879s2.898-1.291 2.898-2.879c0-1.589-1.3-2.88-2.898-2.88zM16.322 15.371h-1.352v1.357h-0.867v-1.357h-1.351v-0.86h1.351v-1.351h0.867v1.351h1.352v0.86zM16 4.16c-6.561 0-11.88 5.318-11.88 11.879s5.32 11.878 11.88 11.878c6.561 0 11.88-5.318 11.88-11.878s-5.319-11.879-11.88-11.879zM19.839 21.989l-3.338-3.316c-2.844 1.268-6.115-0.799-6.115-3.936 0-2.379 1.948-4.314 4.341-4.314 3.209 0 5.288 3.348 3.913 6.181l3.31 3.288c0.082 0.976-1.163 2.176-2.112 2.097z"></path>
</svg>
