<?xml version="1.0" encoding="utf-8"?>
<!-- Generated by IcoMoon.io -->
<!DOCTYPE svg PUBLIC "-//W3C//DTD SVG 1.1//EN" "http://www.w3.org/Graphics/SVG/1.1/DTD/svg11.dtd">
<svg version="1.1" xmlns="http://www.w3.org/2000/svg" xmlns:xlink="http://www.w3.org/1999/xlink" width="32" height="32" viewBox="0 0 32 32">
<path fill="#444444" d="M19.77 0.073c0.12 0 0.239 0 0.359 0 0.014 0.010 0.026 0.025 0.041 0.030 1.368 0.379 2.187 1.281 2.477 2.656 0.245 1.16 0.154 2.326-0.151 3.453-0.448 1.654-0.981 3.285-1.473 4.928-0.071 0.236-0.141 0.477-0.17 0.72-0.043 0.363 0.127 0.599 0.484 0.67 0.292 0.058 0.593 0.096 0.89 0.096 2.214 0.004 4.428-0.004 6.643-0.004 0.213 0 0.43 0.008 0.637 0.050 1.198 0.24 1.984 1.077 2.188 2.311 0.177 1.075-0.37 2.143-1.405 2.743-0.117 0.067-0.232 0.135-0.373 0.216 0.214 0.105 0.4 0.188 0.578 0.284 0.595 0.323 1.079 0.752 1.303 1.417 0.048 0.144 0.088 0.29 0.131 0.436 0 0.24 0 0.479 0 0.718-0.017 0.048-0.042 0.094-0.050 0.143-0.123 0.809-0.562 1.396-1.263 1.798-0.152 0.087-0.311 0.162-0.494 0.256 0.158 0.102 0.294 0.185 0.426 0.276 0.985 0.676 1.356 1.589 1.116 2.753-0.202 0.978-0.751 1.629-1.757 1.837-0.217 0.045-0.436 0.081-0.655 0.119-0.26 0.045-0.52 0.088-0.854 0.144 0.126 0.073 0.177 0.102 0.227 0.132 0.746 0.454 1.091 1.288 0.875 2.116-0.22 0.844-0.902 1.385-1.808 1.382-3.972-0.014-7.949 0.131-11.91-0.295-1.044-0.112-2.086-0.246-3.123-0.404-0.885-0.135-1.76-0.332-2.644-0.476-0.495-0.081-0.998-0.111-1.521-0.167-0.017-0.281-0.047-0.552-0.047-0.822-0.006-4.017-0.009-8.034-0.012-12.051-0-0.905-0.063-0.835 0.814-1.099 1.336-0.401 2.408-1.153 3.126-2.372 0.234-0.397 0.48-0.788 0.728-1.176 1.098-1.72 2.164-3.461 3.483-5.031 0.74-0.881 1.229-1.912 1.496-3.030 0.283-1.186 0.522-2.383 0.771-3.577 0.114-0.547 0.334-1.001 0.917-1.179z"></path>
<path fill="#444444" d="M7.53 23.645c0 2.282 0 4.564-0.001 6.846 0 0.137-0.001 0.274-0.011 0.41-0.050 0.684-0.377 1.006-1.064 1.018-0.769 0.012-1.538 0.006-2.308 0.006-0.983 0-1.966-0.001-2.949-0.003-0.752-0.002-1.123-0.366-1.123-1.114-0.002-4.752-0.003-9.504-0.002-14.257 0-0.837 0.352-1.188 1.183-1.189 1.692-0.001 3.385-0.001 5.077 0 0.838 0.001 1.189 0.344 1.19 1.181 0.004 2.368 0.001 4.735 0.001 7.103 0.002 0 0.004 0 0.006 0z"></path>
</svg>
