<?xml version="1.0" encoding="utf-8"?>
<!-- Generated by IcoMoon.io -->
<!DOCTYPE svg PUBLIC "-//W3C//DTD SVG 1.1//EN" "http://www.w3.org/Graphics/SVG/1.1/DTD/svg11.dtd">
<svg version="1.1" xmlns="http://www.w3.org/2000/svg" xmlns:xlink="http://www.w3.org/1999/xlink" width="32" height="32" viewBox="0 0 32 32">
<path fill="#444444" d="M16.070 19.314c-0.346 0.333-0.346 0.875 0 1.21l0.315 0.302c0.347 0.337 0.908 0.337 1.256 0l4.059-3.946c0.008-0.004 0.015-0.007 0.021-0.013l0.314-0.303c0.174-0.167 0.26-0.387 0.258-0.608 0.002-0.219-0.084-0.442-0.258-0.609l-0.314-0.304c-0.006-0.004-0.015-0.006-0.021-0.013l-4.059-3.914c-0.348-0.333-0.91-0.333-1.256 0l-0.315 0.303c-0.346 0.334-0.346 0.878 0 1.213l2.307 2.222h-13.767c-0.413 0-0.747 0.335-0.747 0.747v0.498c0 0.413 0.335 0.747 0.747 0.747h13.996l-2.536 2.468zM24.267 4.143h-14.16c-1.936 0-3.505 1.569-3.505 3.505v5.212h1.992v-5.479c0-0.688 0.558-1.245 1.245-1.245h14.695c0.688 0 1.245 0.558 1.245 1.245v17.185c0 0.688-0.557 1.245-1.245 1.245h-14.695c-0.688 0-1.245-0.557-1.245-1.245v-5.23h-1.992v4.963c0 1.936 1.569 3.505 3.505 3.505h14.16c1.936 0 3.505-1.569 3.505-3.505v-16.65c-0-1.936-1.569-3.505-3.505-3.505z"></path>
</svg>
