<?xml version="1.0" encoding="utf-8"?>
<!-- Generated by IcoMoon.io -->
<!DOCTYPE svg PUBLIC "-//W3C//DTD SVG 1.1//EN" "http://www.w3.org/Graphics/SVG/1.1/DTD/svg11.dtd">
<svg version="1.1" xmlns="http://www.w3.org/2000/svg" xmlns:xlink="http://www.w3.org/1999/xlink" width="32" height="32" viewBox="0 0 32 32">
<path fill="#444444" d="M15.939 5.409c-0.747 0-1.477 0.045-2.187 0.129 0.345 0.564 0.604 1.185 0.757 1.848 0.477-0.041 0.955-0.061 1.43-0.061 5.773 0 10.47 3.83 10.47 8.538 0 2.101-1.007 4.206-2.763 5.776-1.951 1.744-4.657 2.705-7.62 2.705-1.345 0-2.746-0.195-4.164-0.579l-0.554-0.15-4.091 1.342 1.001-3.302-0.775-0.809c-1.254-1.309-1.973-3.125-1.973-4.983 0-0.496 0.037-0.964 0.102-1.411-0.64-0.319-1.219-0.74-1.712-1.247-0.198 0.822-0.306 1.707-0.306 2.658 0 2.446 0.962 4.697 2.506 6.309l-1.745 5.755 7.046-2.312c1.635 0.443 3.198 0.646 4.665 0.646 7.327 0 12.299-5.048 12.299-10.397 0-5.775-5.545-10.454-12.386-10.454z"></path>
<path fill="#444444" d="M6.88 4.16h2.56v9.44h-2.56v-9.44z"></path>
<path fill="#444444" d="M13.318 7.45l0.012 2.668-9.908 0.045-0.012-2.668 9.908-0.045z"></path>
</svg>
