<?xml version="1.0" encoding="utf-8"?>
<!-- Generator: Adobe Illustrator 18.0.0, SVG Export Plug-In . SVG Version: 6.00 Build 0)  -->
<svg version="1.1" id="Calque_1" xmlns="http://www.w3.org/2000/svg" xmlns:xlink="http://www.w3.org/1999/xlink" x="0px" y="0px"
	 viewBox="1047 682 6 36" enable-background="new 1047 682 6 36" xml:space="preserve">
<image display="none" overflow="visible" enable-background="new    " width="326" height="63" xlink:href="7009042B0E36D994.jpeg"  transform="matrix(40 0 0 40 -7370.02 -562.296)">
</image>
<g>
	<path d="M3766.2,0h-1376h-12v12v1376v12h12h1376h12v-12V12V0H3766.2L3766.2,0z M3738.2,504c0,4,0,8,0,12v28l-4,28c-4,32-8,56-16,80
		c-4,24-12,48-24,80l-4,8c-4,12-8,20-12,32c0,4-4,4-4,8c-4,4-4,8-8,12l-8,20c-4,8-4,12-8,16l-4,4c0,4-4,4-4,8c-4,4-4,8-8,12
		s-4,8-8,12c-4,8-12,20-16,28c-16,28-36,52-52,76c-16,20-40,48-64,72c-8,12-20,20-32,32l-4,4c-8,8-16,12-24,20c-4,4-8,8-12,12
		c-48,40-100,80-152,108c-24,12-52,28-84,44c-8,4-20,8-28,12c-4,4-8,4-12,4c-4,4-8,4-12,4s-4,4-8,4h-4c-4,4-12,4-16,8
		c-56,20-112,32-168,36c-24,4-48,4-76,4l0,0h-4h-28l-28-4c-4,0-8,0-12,0s-4,0-8,0c-20-4-40-8-68-12c-12-4-20-8-32-8c-4,0-8-4-8-4
		c-8-4-12-4-20-8c-32-16-64-32-88-52c-4-4-8-4-12-8l-4-4l-4-4c-4-4-8-4-8-8c-4-4-4-4-8-8s-8-8-12-12l-16-16l0,0l0,0l-4-28
		c-4-4-8-8-8-12c-4-4-4-4-8-8s-4-8-8-8l-4-4c0-4-4-4-4-4c-4-4-4-8-8-12c-16-24-28-60-36-92c0-8,0-16-4-24c0-4,0-8-4-12
		c-4-8-4-20-4-32c-4-24-4-48-4-68v-8c0-4,0-8,0-12v-28l4-28c4-32,8-56,16-80c4-24,12-48,24-80l4-8c4-12,8-20,12-32c0-4,4-4,4-8
		c4-4,4-8,8-12l8-20c4-4,4-12,8-16l4,4c0-4,4-4,4-8c4-4,4-8,8-12s4-8,8-12c4-8,12-20,16-28c16-28,36-52,52-76c16-20,40-48,64-72
		c8-8,20-20,28-28l4-4c8-8,16-12,24-20c4-4,8-8,12-12c48-40,100-80,152-108c24-12,52-28,84-44c8-4,20-8,28-12c4-4,8-4,12-4
		c4-4,8-4,12-4l12-8c4-4,12-4,16-8c56-20,112-32,168-36c24-4,48-4,76-4h4h28l28,4c4,0,8,0,12,0s4,0,8,0c20,4,40,8,68,12
		c12,4,20,8,32,8c4,0,8,4,8,4c8,4,12,4,16,8c32,16,64,32,88,52c4,8,8,12,8,16l4,4l4,4c4,4,8,4,8,8c4,4,4,4,8,8c4,4,8,8,12,12l16,16
		l0,0l0,0l16,16c4,4,8,8,8,12c4,4,8,8,8,8c4,4,4,8,8,8l4,4c0,4,4,4,4,4c4,4,4,8,8,12c16,24,28,60,36,92c4,8,4,12,4,20c0,4,0,8,4,12
		c4,8,4,20,4,32c4,24,4,48,4,68L3738.2,504z"/>
	<path d="M3674.2,284c-4-4-4-8-4-12s-4-4-4-4l-4-4c-4-4-4-8-8-12c-4-4-4-8-8-8c-4-4-8-8-8-12l-12-16l-16-16c-4-4-8-8-12-12s-4-4-8-8
		s-4-4-8-8l-4-4l-4-4c-4-4-8-4-12-8c-24-16-52-32-84-44c-36-12-76-24-120-28c-4,0-4,0-8,0s-8,0-12,0h-36h-20c-24,0-52,4-76,4
		c-52,8-104,20-160,40c-52,16-104,44-160,76c-52,28-100,60-148,104c-4,0-8,8-12,8c-8,8-16,16-20,20l-4,4c-12,8-20,20-32,28
		c-12,16-28,32-44,56c0,0,0,0-4,4h144c108,0,124,64,112,148s-108,124-108,124c24,12,52,56,72,84c20,28,52,96,56,112h-96
		c0-8-16-44-48-92s-64-68-84-68l4-56c80-12,108-64,112-104s-16-84-32-84h-76l-60,404h-88l68-436c0,4-4,4-4,8c-32,40-56,80-76,120
		c-28,52-48,104-60,152c-8,24-12,52-16,76l-4,28l-4,28c0,4,0,8,0,12c0,4,0,4,0,8c0,44,4,88,12,124c8,32,20,64,32,92c4,4,4,8,4,12
		s4,4,4,4l4,4c4,4,4,8,4,8s4,4,4,8c4,4,8,8,8,12l12,16l20,16c4,4,8,8,12,12s4,4,8,8s4,4,8,8l4,4l4,4c4,4,8,4,8,8c24,16,52,32,84,44
		c36,12,76,24,120,28c4,0,4,0,8,0s8,0,12,0h28h28c24,0,52-4,76-4c52-8,104-20,160-40c52-16,104-44,160-76c52-32,100-68,148-108
		c4-4,8-8,12-12c8-8,16-12,20-20l4-4c8-8,20-20,28-28c24-24,44-48,60-68c12-16,24-32,36-48c0,0,0-4,4-4h-192c0,0,108-160,136-216
		s40-80,36-120s-32-100-168-24l8-64c0,0,56-40,116-52c60-12,116-4,132,52c16,60,4,132-44,212c-48,80-64,100-68,108c-4,8-16,20,8,20
		c16,0,64,0,92,0c0-4,4-4,4-4c4-4,4-12,8-16c28-52,48-104,60-152c8-24,12-52,16-76l4-36v-16c0-4,0-8,0-12s0-4,0-8c0-44-4-88-12-124
		C3698.2,340,3686.2,308,3674.2,284z M3070.2,564c-4,32-52,332-52,332h-96c0,0,60-396,60-400c0-8-4-12-12-12h-80l8-60h280l-8,60
		C3078.2,484,3078.2,520,3070.2,564z M3362.2,896h-228l72-468h88c0,0-48,324-52,336c-4,28-8,64,36,64c20,0,88,0,88,0L3362.2,896z"/>
</g>
<g id="LAtmJy.tif">
	
		<image overflow="visible" width="1356" height="906" id="Layer_0_4_" xlink:href="7009042B0E36D994.png"  transform="matrix(1 0 0 1 1213.5018 -403.4494)">
	</image>
</g>
<circle cx="1050" cy="685" r="3"/>
<circle opacity="0.3" cx="1050" cy="695" r="3"/>
<circle opacity="0.1" cx="1050" cy="705" r="3"/>
<circle opacity="5.000000e-02" cx="1050" cy="715" r="3"/>
</svg>
