<?xml version="1.0" encoding="utf-8"?>
<!-- Generated by IcoMoon.io -->
<!DOCTYPE svg PUBLIC "-//W3C//DTD SVG 1.1//EN" "http://www.w3.org/Graphics/SVG/1.1/DTD/svg11.dtd">
<svg version="1.1" xmlns="http://www.w3.org/2000/svg" xmlns:xlink="http://www.w3.org/1999/xlink" width="32" height="32" viewBox="0 0 32 32">
<path fill="#444444" d="M16 6.483c2.548 0 4.95 0.994 6.754 2.798 1.801 1.794 2.793 4.185 2.793 6.719 0 2.541-0.992 4.924-2.793 6.726-1.803 1.804-4.206 2.798-6.754 2.798-2.555 0-4.95-0.994-6.754-2.798-1.8-1.801-2.786-4.184-2.786-6.726 0-2.534 0.985-4.925 2.786-6.719 1.804-1.804 4.2-2.798 6.754-2.798zM16 4.15c-6.542 0-11.84 5.306-11.84 11.85s5.298 11.843 11.84 11.843 11.84-5.299 11.84-11.843c0-6.544-5.297-11.85-11.84-11.85v0zM13.156 21.894v-11.491l9.25 5.746-9.25 5.745z"></path>
</svg>
