<?xml version="1.0" encoding="utf-8"?>
<!-- Generated by IcoMoon.io -->
<!DOCTYPE svg PUBLIC "-//W3C//DTD SVG 1.1//EN" "http://www.w3.org/Graphics/SVG/1.1/DTD/svg11.dtd">
<svg version="1.1" xmlns="http://www.w3.org/2000/svg" xmlns:xlink="http://www.w3.org/1999/xlink" width="32" height="32" viewBox="0 0 32 32">
<path fill="#444444" d="M24.774 9.246v-5.050h-17.508v5.050h-3.072v11.651h3.072v6.947h17.508v-6.947h3.072v-11.651h-3.072zM22.479 25.55h-12.917v-7.405h12.917v7.405zM22.479 9.246h-12.917v-2.754h12.917v2.754zM25.569 12.16c-0.384 0-0.694-0.31-0.694-0.694s0.31-0.694 0.694-0.694c0.383 0 0.695 0.311 0.695 0.694s-0.312 0.694-0.695 0.694zM18.336 23.149h-7.303v-1.293h7.303v1.293zM21.072 20.763h-10.038v-1.292h10.038v1.292z"></path>
</svg>
