<?xml version="1.0" encoding="utf-8"?>
<!-- Generated by IcoMoon.io -->
<!DOCTYPE svg PUBLIC "-//W3C//DTD SVG 1.1//EN" "http://www.w3.org/Graphics/SVG/1.1/DTD/svg11.dtd">
<svg version="1.1" xmlns="http://www.w3.org/2000/svg" xmlns:xlink="http://www.w3.org/1999/xlink" width="32" height="32" viewBox="0 0 32 32">
<path fill="#444444" d="M17.666 16.332c0 0.945-0.036 1.622-0.106 2.029s-0.28 0.75-0.627 1.030c-0.348 0.28-0.864 0.42-1.548 0.42-0.674 0-1.205-0.148-1.594-0.444s-0.633-0.689-0.737-1.178c-0.060-0.304-0.090-0.969-0.090-1.996v-6.47h-2.412v3.041c-0.082-0.667-0.3-1.232-0.654-1.693-0.461-0.6-1.035-0.99-1.719-1.169-0.446-0.119-1.402-0.179-2.868-0.179h-3.871v11.945h2.412v-4.506h1.572c1.092 0 1.926-0.057 2.502-0.171 0.424-0.092 0.84-0.281 1.251-0.566s0.748-0.677 1.014-1.178c0.185-0.347 0.304-0.752 0.361-1.212v2.060c0 1.336 0.078 2.347 0.236 3.032 0.108 0.461 0.334 0.903 0.676 1.323s0.808 0.763 1.398 1.027c0.589 0.263 1.454 0.395 2.595 0.395 0.946 0 1.712-0.121 2.298-0.362s1.056-0.566 1.406-0.973c0.351-0.408 0.591-0.907 0.721-1.5s0.195-1.605 0.195-3.039v-6.274h-2.411v6.608zM7.832 14.361c-0.182 0.266-0.433 0.461-0.753 0.587s-0.957 0.187-1.908 0.187h-1.319v-3.389h1.165c0.869 0 1.448 0.027 1.736 0.082 0.391 0.070 0.714 0.247 0.969 0.529s0.383 0.641 0.383 1.076c-0 0.353-0.091 0.662-0.273 0.929zM30.046 16.406c-0.391-0.511-0.951-0.872-1.679-1.084 0.517-0.234 0.925-0.584 1.227-1.052s0.452-0.98 0.452-1.54c0-0.516-0.122-0.982-0.367-1.397-0.244-0.416-0.55-0.748-0.916-0.998s-0.783-0.414-1.247-0.492c-0.464-0.079-1.169-0.118-2.114-0.118h-4.775v11.945h4.066c1.538-0.011 2.507-0.038 2.91-0.082 0.64-0.071 1.181-0.259 1.618-0.566s0.783-0.717 1.035-1.23c0.253-0.514 0.379-1.042 0.379-1.585 0-0.69-0.196-1.29-0.587-1.801zM23.038 11.713h1.385c1.136 0 1.822 0.013 2.061 0.040 0.402 0.049 0.705 0.189 0.909 0.42s0.306 0.531 0.306 0.9c0 0.385-0.118 0.697-0.354 0.933s-0.561 0.378-0.973 0.427c-0.228 0.028-0.812 0.041-1.753 0.041h-1.581v-2.762zM27.801 19.107c-0.225 0.252-0.517 0.411-0.876 0.476-0.234 0.049-0.785 0.074-1.655 0.074h-2.233v-3.194h1.947c1.097 0 1.811 0.057 2.139 0.171 0.329 0.114 0.58 0.296 0.754 0.546 0.174 0.25 0.261 0.554 0.261 0.913 0 0.424-0.112 0.762-0.338 1.015z"></path>
</svg>
