<?xml version="1.0" encoding="utf-8"?>
<!-- Generated by IcoMoon.io -->
<!DOCTYPE svg PUBLIC "-//W3C//DTD SVG 1.1//EN" "http://www.w3.org/Graphics/SVG/1.1/DTD/svg11.dtd">
<svg version="1.1" xmlns="http://www.w3.org/2000/svg" xmlns:xlink="http://www.w3.org/1999/xlink" width="32" height="32" viewBox="0 0 32 32">
<path fill="#444444" d="M31.644 11.668c0-2.492-0.645-4.485-1.937-5.978s-2.98-2.24-5.069-2.24c-1.773 0-3.166 0.556-4.176 1.667s-1.516 2.498-1.516 4.16c0 1.482 0.46 2.745 1.381 3.789s2.1 1.566 3.536 1.566c0.27 0 0.831-0.056 1.684-0.169 0.248 0 0.539 0.101 0.876 0.303 0.337 0.18 0.505 0.561 0.505 1.145 0 1.706-0.909 3.491-2.728 5.355-1.032 1.032-2.627 2.312-4.783 3.839l0.809 1.516c4.311-2.223 7.292-4.676 8.942-7.359s2.476-5.215 2.476-7.595v0zM13.053 11.668c0-2.492-0.651-4.485-1.953-5.978s-2.964-2.24-4.985-2.24c-1.773 0-3.177 0.533-4.209 1.6s-1.549 2.476-1.549 4.227c0 1.504 0.466 2.772 1.398 3.805s2.105 1.549 3.52 1.549c0.269 0 0.831-0.056 1.684-0.169 0.427 0 0.763 0.146 1.010 0.438s0.37 0.673 0.37 1.145c0 1.639-0.954 3.412-2.863 5.321-1.078 1.077-2.627 2.324-4.648 3.738l0.808 1.516c4.109-2.111 7.039-4.502 8.79-7.174s2.627-5.265 2.627-7.78v0z"></path>
</svg>
