<?xml version="1.0" encoding="utf-8"?>
<!-- Generated by IcoMoon.io -->
<!DOCTYPE svg PUBLIC "-//W3C//DTD SVG 1.1//EN" "http://www.w3.org/Graphics/SVG/1.1/DTD/svg11.dtd">
<svg version="1.1" xmlns="http://www.w3.org/2000/svg" xmlns:xlink="http://www.w3.org/1999/xlink" width="32" height="32" viewBox="0 0 32 32">
<path fill="#444444" d="M16.079 1.2c-8.206 0-14.883 6.676-14.883 14.883s6.676 14.883 14.883 14.883c8.207 0 14.883-6.676 14.883-14.883s-6.677-14.883-14.883-14.883zM16.079 29.526c-7.412 0-13.443-6.030-13.443-13.443s6.030-13.443 13.443-13.443c7.412 0 13.443 6.030 13.443 13.443s-6.031 13.443-13.443 13.443z"></path>
<path fill="#444444" d="M16.223 6.264c-3.825 0-6.174 2.696-6.174 5.576h2.322c0-1.92 1.475-3.363 3.852-3.363 2.459 0 3.688 1.215 3.688 3.182 0 1.42-0.738 2.11-2.022 3.12-1.694 1.284-3.169 2.383-3.169 5.361v0.66h2.24v-0.66c0-1.967 0.875-2.65 2.295-3.688 1.339-0.984 2.964-2.225 2.964-4.875 0-2.95-2.199-5.312-5.996-5.312z"></path>
<path fill="#444444" d="M14.4 23.040h2.72v2.72h-2.72v-2.72z"></path>
</svg>
