<?xml version="1.0" encoding="utf-8"?>
<!-- Generated by IcoMoon.io -->
<!DOCTYPE svg PUBLIC "-//W3C//DTD SVG 1.1//EN" "http://www.w3.org/Graphics/SVG/1.1/DTD/svg11.dtd">
<svg version="1.1" xmlns="http://www.w3.org/2000/svg" xmlns:xlink="http://www.w3.org/1999/xlink" width="32" height="32" viewBox="0 0 32 32">
<path fill="#444444" d="M8.517 11.986c-0.020 0.005-0.035 0.014-0.054 0.014h-0.463v3.242l0.49-0.014c0.019 0 0.026-0.003 0.045-0.008 0.986-0.004 1.332-0.589 1.332-1.463 0-0.881-0.458-1.854-1.351-1.772z"></path>
<path fill="#444444" d="M29.976 0.32h-27.776c-0.99 0-1.88 0.9-1.88 1.889v27.776c0 0.991 0.891 1.695 1.88 1.695h27.776c0.99 0 1.704-0.704 1.704-1.695v-27.776c0-0.989-0.714-1.889-1.704-1.889zM28 23.68h-6.72v-11.68h-3.36v11.68h-2.4v-11.516l-2.318 0.007c0.083 0.299-0.096 0.649-0.096 0.977 0 1.568-0.325 2.32-1.824 3.077 1.171 0.565 1.894 0.753 1.894 3.377l0.013 1.676c-0.020 1.389 0.149 1.921 0.92 2.401h-3.275c-0.771-0.8-1.234-1.256-1.234-3.191v-1.331c0-0.949 0.161-1.398-0.299-1.398h-1.362l0.072 6.040-3.371-0.099v-13.782h5.14c0.918 0 2.38 0.243 2.7 1.087v-1.087h11.68v10.88h3.84v2.88z"></path>
</svg>
