<?xml version="1.0" encoding="utf-8"?>
<!-- Generated by IcoMoon.io -->
<!DOCTYPE svg PUBLIC "-//W3C//DTD SVG 1.1//EN" "http://www.w3.org/Graphics/SVG/1.1/DTD/svg11.dtd">
<svg version="1.1" xmlns="http://www.w3.org/2000/svg" xmlns:xlink="http://www.w3.org/1999/xlink" width="32" height="32" viewBox="0 0 32 32">
<path fill="#444444" d="M29.417 0.32h-26.64c-1.276 0-2.457 0.849-2.457 2.094v26.951c0 1.245 1.181 2.315 2.457 2.315h26.64c1.276 0 2.263-1.070 2.263-2.315v-26.951c0-1.245-0.988-2.094-2.263-2.094zM10.080 26.4h-4.64v-14.080h4.64v14.080zM7.582 10.24h-0.031c-1.584 0-2.609-1.037-2.609-2.4 0-1.394 1.056-2.427 2.671-2.427s2.609 1.020 2.64 2.413c0 1.363-1.025 2.413-2.671 2.413zM26.88 26.4h-4.8v-7.506c0-1.909-0.6-3.212-2.308-3.212-1.304 0-2.118 0.879-2.459 1.727-0.125 0.303-0.192 0.728-0.192 1.152v7.839h-4.565c0 0 0.062-12.64 0-14.080h4.565v1.981c0.96-0.968 1.783-2.346 4.29-2.346 3.107 0 5.47 2.030 5.47 6.393v8.051z"></path>
<path fill="#444444" d="M17.277 14.349v-0.048c-0.010 0.016-0.022 0.032-0.031 0.048h0.031z"></path>
</svg>
