<?xml version="1.0" encoding="utf-8"?>
<!-- Generated by IcoMoon.io -->
<!DOCTYPE svg PUBLIC "-//W3C//DTD SVG 1.1//EN" "http://www.w3.org/Graphics/SVG/1.1/DTD/svg11.dtd">
<svg version="1.1" xmlns="http://www.w3.org/2000/svg" xmlns:xlink="http://www.w3.org/1999/xlink" width="32" height="32" viewBox="0 0 32 32">
<path fill="#444444" d="M29.605 6.459c-0.043-0.091-0.091-0.172-0.135-0.253-0.027-0.043-0.054-0.086-0.075-0.135-0.022-0.038-0.043-0.081-0.065-0.118-0.043-0.075-0.081-0.145-0.124-0.21-0.048-0.075-0.097-0.145-0.14-0.21-0.075-0.118-0.14-0.215-0.205-0.296l-0.307-0.404-0.355-0.361c-0.070-0.075-0.161-0.156-0.269-0.242-0.059-0.048-0.124-0.108-0.188-0.161-0.054-0.054-0.118-0.102-0.188-0.151-0.038-0.027-0.075-0.054-0.113-0.086-0.038-0.027-0.081-0.059-0.118-0.091-0.070-0.059-0.145-0.113-0.226-0.167-0.549-0.393-1.222-0.754-1.954-1.039-0.834-0.328-1.766-0.554-2.777-0.667-0.043-0.005-0.091-0.011-0.14-0.016-0.086-0.011-0.172-0.022-0.258-0.027l-0.813-0.043-0.425-0.005c-0.554 0.016-1.152 0.043-1.744 0.129-1.157 0.145-2.395 0.447-3.682 0.894-1.168 0.409-2.363 0.974-3.666 1.728-1.179 0.7-2.32 1.523-3.391 2.449-0.097 0.086-0.194 0.172-0.291 0.258-0.167 0.145-0.339 0.301-0.495 0.452l-0.075 0.075c-0.221 0.215-0.452 0.436-0.667 0.662-0.339 0.339-0.673 0.716-1.087 1.211 0 0-0.027 0.032-0.065 0.081h3.321c2.449 0 2.874 1.491 2.584 3.402-0.291 1.905-2.514 2.81-2.514 2.81 0.544 0.296 1.233 1.286 1.663 1.943s1.238 2.158 1.243 2.573h-2.239c0-0.167-0.371-1.017-1.125-2.083-0.754-1.060-1.459-1.539-1.949-1.588l0.183-1.292c1.852-0.28 2.438-1.426 2.53-2.411s-0.339-1.943-0.775-1.943h-1.593l-1.405 9.323h-2.045l1.513-9.974c-0.038 0.054-0.075 0.102-0.102 0.145-0.716 0.958-1.292 1.868-1.76 2.767-0.63 1.206-1.103 2.39-1.41 3.515-0.172 0.587-0.28 1.168-0.377 1.717l-0.086 0.624-0.054 0.608c-0.005 0.086-0.005 0.172-0.011 0.253 0 0.048-0.005 0.097-0.005 0.14-0.032 1.017 0.059 1.975 0.264 2.847 0.183 0.77 0.441 1.486 0.748 2.078 0.043 0.091 0.086 0.172 0.135 0.253 0.027 0.043 0.054 0.091 0.075 0.135 0.022 0.038 0.048 0.081 0.070 0.124 0.043 0.075 0.081 0.145 0.124 0.205 0.048 0.075 0.097 0.145 0.14 0.21 0.075 0.118 0.14 0.215 0.205 0.296l0.307 0.404 0.355 0.361c0.070 0.075 0.161 0.156 0.269 0.242 0.059 0.048 0.124 0.108 0.188 0.161 0.059 0.054 0.124 0.102 0.194 0.156 0.038 0.027 0.070 0.054 0.108 0.086 0.038 0.027 0.075 0.059 0.118 0.091 0.070 0.059 0.145 0.113 0.226 0.167 0.549 0.393 1.222 0.754 1.954 1.039 0.834 0.328 1.766 0.549 2.777 0.667 0.048 0.005 0.097 0.011 0.145 0.016 0.086 0.011 0.167 0.022 0.253 0.027l0.614 0.038 0.63 0.005c0.554-0.016 1.152-0.043 1.744-0.129 1.157-0.145 2.395-0.447 3.676-0.894 1.168-0.409 2.363-0.974 3.666-1.728 1.179-0.7 2.32-1.529 3.396-2.454 0.091-0.086 0.188-0.172 0.291-0.258 0.167-0.145 0.339-0.301 0.495-0.452l0.081-0.075c0.221-0.21 0.452-0.431 0.667-0.662 0.522-0.527 0.99-1.087 1.383-1.566 0.291-0.371 0.565-0.737 0.824-1.098 0.016-0.022 0.038-0.048 0.054-0.081h-4.527c0 0 2.444-3.703 3.073-4.968 0.635-1.265 0.904-1.873 0.818-2.751-0.081-0.877-0.716-2.261-3.897-0.554l0.226-1.443c0 0 1.319-0.947 2.6-1.157s2.6-0.124 2.987 1.211 0.086 3.041-0.985 4.882-1.416 2.309-1.523 2.519c-0.108 0.21-0.339 0.479 0.21 0.49 0.345 0.005 1.432 0.005 2.115 0.005 0.032-0.048 0.048-0.081 0.048-0.081 0.065-0.118 0.129-0.237 0.194-0.361 0.63-1.206 1.103-2.39 1.41-3.515 0.172-0.587 0.28-1.173 0.377-1.717l0.102-0.829 0.032-0.409c0.005-0.086 0.005-0.167 0.011-0.253 0-0.048 0.005-0.097 0.005-0.145 0.032-1.017-0.059-1.975-0.264-2.847-0.167-0.764-0.425-1.48-0.737-2.072zM15.847 12.848c-0.108 0.775-1.157 7.595-1.157 7.595h-2.18c0 0 1.389-9.032 1.41-9.172 0.022-0.151-0.054-0.237-0.248-0.237h-1.814l0.221-1.319h6.201l-0.226 1.324c-2.024-0.011-2.078 0.877-2.207 1.809zM22.467 20.443h-5.178l1.642-10.728h2.040c0 0-1.141 7.385-1.179 7.719-0.075 0.651-0.205 1.437 0.85 1.475 0.468 0.016 2.013 0.032 2.013 0.032l-0.188 1.502z"></path>
<path fill="#444444" d="M31.769 0h-31.769v31.995h32.043v-31.995h-0.275zM31.182 11.53c0 0.097 0 0.188 0 0.275l-0.032 0.635-0.065 0.657c-0.097 0.705-0.21 1.276-0.35 1.803-0.129 0.544-0.312 1.125-0.576 1.841l-0.070 0.183c-0.097 0.242-0.194 0.495-0.312 0.743-0.022 0.048-0.043 0.097-0.065 0.145-0.048 0.113-0.097 0.215-0.145 0.312l-0.221 0.447c-0.065 0.135-0.135 0.264-0.199 0.382l-0.129 0.242c-0.054 0.102-0.108 0.199-0.161 0.296-0.059 0.097-0.113 0.188-0.167 0.28-0.118 0.205-0.242 0.414-0.382 0.619-0.382 0.614-0.818 1.195-1.233 1.728-0.404 0.495-0.888 1.077-1.426 1.631-0.226 0.242-0.468 0.479-0.71 0.71l-0.065 0.059c-0.172 0.172-0.345 0.323-0.527 0.484l-0.022 0.022c-0.081 0.075-0.167 0.151-0.253 0.226-1.12 0.958-2.304 1.809-3.526 2.524-0.554 0.318-1.216 0.678-1.895 0.98-0.215 0.102-0.441 0.194-0.657 0.285-0.102 0.043-0.199 0.081-0.301 0.124-0.108 0.043-0.215 0.081-0.318 0.118-0.054 0.022-0.253 0.091-0.253 0.091-0.135 0.048-0.269 0.102-0.404 0.145-1.292 0.441-2.589 0.727-3.838 0.856-0.517 0.059-1.060 0.086-1.722 0.086h-0.102l-0.657-0.027-0.635-0.059c-0.091-0.011-0.183-0.022-0.269-0.038l-0.145-0.022c-0.479-0.065-0.969-0.167-1.539-0.323-0.242-0.075-0.474-0.151-0.694-0.226-0.081-0.032-0.156-0.065-0.231-0.091-0.145-0.054-0.28-0.108-0.414-0.167-0.748-0.334-1.437-0.737-1.986-1.173-0.086-0.059-0.167-0.129-0.237-0.188-0.043-0.038-0.075-0.065-0.113-0.091-0.038-0.032-0.065-0.059-0.097-0.086-0.075-0.065-0.145-0.124-0.21-0.194-0.059-0.059-0.118-0.118-0.172-0.172-0.108-0.102-0.194-0.188-0.269-0.275l-0.339-0.382-0.334-0.388c-0.075-0.086-0.145-0.183-0.231-0.301-0.048-0.070-0.097-0.135-0.145-0.199-0.059-0.070-0.108-0.151-0.156-0.231-0.027-0.043-0.043-0.070-0.065-0.102-0.027-0.043-0.054-0.081-0.075-0.124-0.059-0.091-0.113-0.178-0.161-0.275-0.345-0.597-0.651-1.335-0.872-2.126-0.043-0.14-0.075-0.28-0.108-0.431-0.016-0.075-0.038-0.156-0.054-0.237-0.043-0.231-0.086-0.474-0.129-0.727-0.075-0.597-0.108-1.098-0.102-1.577v-0.14c0-0.091 0-0.183 0-0.275l0.032-0.635 0.065-0.651c0.097-0.705 0.21-1.281 0.344-1.803 0.135-0.544 0.318-1.13 0.576-1.841l0.070-0.178c0.097-0.248 0.194-0.501 0.312-0.748 0.022-0.054 0.048-0.102 0.070-0.156 0.043-0.102 0.091-0.205 0.14-0.301l0.226-0.452c0.059-0.129 0.129-0.253 0.199-0.377l0.129-0.237c0.054-0.102 0.108-0.199 0.161-0.296 0.059-0.097 0.113-0.188 0.167-0.28 0.118-0.205 0.242-0.414 0.382-0.619 0.382-0.614 0.818-1.195 1.233-1.728 0.404-0.495 0.888-1.077 1.426-1.631 0.226-0.242 0.468-0.479 0.705-0.705l0.065-0.065c0.172-0.167 0.35-0.328 0.522-0.484 0.097-0.086 0.183-0.167 0.275-0.248 1.114-0.958 2.304-1.809 3.531-2.53 0.554-0.318 1.216-0.678 1.895-0.98 0.215-0.102 0.441-0.199 0.657-0.285 0.102-0.043 0.199-0.081 0.301-0.124 0.108-0.043 0.215-0.081 0.318-0.124l0.248-0.091c0.135-0.048 0.269-0.102 0.409-0.145 1.297-0.441 2.589-0.727 3.838-0.856 0.517-0.059 1.060-0.086 1.717-0.086h0.108l0.657 0.027 0.635 0.059c0.091 0.011 0.183 0.022 0.269 0.038 0.048 0.005 0.097 0.016 0.145 0.022 0.479 0.065 0.969 0.167 1.539 0.323 0.242 0.075 0.474 0.151 0.694 0.226 0.081 0.032 0.151 0.059 0.221 0.086l0.016 0.005c0.14 0.054 0.275 0.108 0.409 0.167 0.748 0.334 1.437 0.737 1.986 1.173 0.086 0.059 0.161 0.124 0.237 0.188 0.043 0.038 0.075 0.065 0.108 0.091 0.038 0.032 0.065 0.059 0.097 0.081 0.075 0.065 0.145 0.124 0.21 0.194 0.059 0.059 0.113 0.113 0.172 0.167 0.108 0.102 0.194 0.188 0.269 0.28l0.339 0.382 0.334 0.388c0.075 0.086 0.151 0.183 0.231 0.301 0.048 0.070 0.097 0.129 0.145 0.199 0.059 0.070 0.108 0.151 0.156 0.231 0.022 0.032 0.043 0.070 0.065 0.102 0.027 0.048 0.054 0.086 0.081 0.129 0.054 0.081 0.108 0.167 0.156 0.269 0.345 0.597 0.651 1.335 0.872 2.126 0.043 0.14 0.075 0.285 0.108 0.431 0.016 0.075 0.038 0.156 0.054 0.237 0.043 0.231 0.086 0.474 0.124 0.721 0.075 0.597 0.108 1.098 0.102 1.577v0.151z"></path>
</svg>
