<?xml version="1.0" encoding="utf-8"?>
<!-- Generated by IcoMoon.io -->
<!DOCTYPE svg PUBLIC "-//W3C//DTD SVG 1.1//EN" "http://www.w3.org/Graphics/SVG/1.1/DTD/svg11.dtd">
<svg version="1.1" xmlns="http://www.w3.org/2000/svg" xmlns:xlink="http://www.w3.org/1999/xlink" width="28" height="32" viewBox="0 0 28 32">
<path fill="#444444" d="M28.050 27.931h-27.803v-27.755h27.798v27.755zM28.297-0.076h-28.297v28.25h28.292v-28.25z"></path>
<path fill="#444444" d="M0.718 30.208h-0.399v1.792h0.989v-0.295h-0.589z"></path>
<path fill="#444444" d="M2.453 31.201h0.585v-0.276h-0.585v-0.442h0.632v-0.276h-1.032v1.792h1.055v-0.276h-0.656z"></path>
<path fill="#444444" d="M5.471 30.641c0-0.124 0.076-0.19 0.204-0.19 0.162 0 0.185 0.138 0.185 0.271h0.385c0.029-0.376-0.166-0.537-0.551-0.537-0.48 0-0.623 0.223-0.623 0.504 0 0.532 0.794 0.551 0.794 0.875 0 0.124-0.067 0.204-0.2 0.204-0.219 0-0.223-0.143-0.223-0.314h-0.395c-0.019 0.309 0.071 0.585 0.561 0.585 0.299 0 0.661-0.052 0.661-0.518 0-0.57-0.799-0.542-0.799-0.879z"></path>
<path fill="#444444" d="M7.762 30.179c-0.651 0-0.651 0.452-0.651 0.927 0 0.471 0 0.927 0.651 0.927s0.651-0.456 0.651-0.927c0-0.475 0-0.927-0.651-0.927zM7.762 31.762c-0.223 0-0.252-0.2-0.252-0.656 0-0.461 0.029-0.656 0.252-0.656s0.252 0.2 0.252 0.656c0 0.456-0.033 0.656-0.252 0.656z"></path>
<path fill="#444444" d="M10.348 31.449h-0.005l-0.504-1.241h-0.532v1.792h0.366v-1.307h0.005l0.518 1.307h0.518v-1.792h-0.366z"></path>
<path fill="#444444" d="M13.495 30.208h-0.713v1.792h0.395v-0.732h0.295c0.461 0 0.528-0.323 0.528-0.528 0-0.323-0.143-0.532-0.504-0.532zM13.4 30.997h-0.219v-0.513h0.2c0.176 0 0.219 0.124 0.219 0.271-0.005 0.119-0.086 0.242-0.2 0.242z"></path>
<path fill="#444444" d="M15.444 30.179c-0.651 0-0.651 0.452-0.651 0.927 0 0.471 0 0.927 0.651 0.927s0.651-0.456 0.651-0.927c0-0.475 0-0.927-0.651-0.927zM15.444 31.762c-0.223 0-0.252-0.2-0.252-0.656 0-0.461 0.029-0.656 0.252-0.656s0.252 0.2 0.252 0.656c0 0.456-0.029 0.656-0.252 0.656z"></path>
<path fill="#444444" d="M17.702 30.208h-0.713v1.792h0.395v-0.732h0.295c0.461 0 0.528-0.323 0.528-0.528-0.005-0.323-0.143-0.532-0.504-0.532zM17.602 30.997h-0.219v-0.513h0.2c0.176 0 0.219 0.124 0.219 0.271 0 0.119-0.081 0.242-0.2 0.242z"></path>
<path fill="#444444" d="M18.966 31.206h0.642v0.252h-0.642v-0.252z"></path>
<path fill="#444444" d="M21.276 31.121v-0.005c0.257-0.038 0.352-0.209 0.352-0.437 0-0.304-0.171-0.471-0.442-0.471h-0.732v1.792h0.395v-0.742h0.1c0.304 0 0.28 0.181 0.28 0.395 0 0.119-0.009 0.238 0.043 0.347h0.385c-0.038-0.076-0.043-0.414-0.043-0.528 0.009-0.318-0.247-0.337-0.337-0.352zM21.029 30.983h-0.176v-0.499h0.176c0.124 0 0.2 0.067 0.2 0.238 0 0.114-0.043 0.261-0.2 0.261z"></path>
<path fill="#444444" d="M23.13 30.179c-0.651 0-0.651 0.452-0.651 0.927 0 0.471 0 0.927 0.651 0.927s0.651-0.456 0.651-0.927c0-0.475 0-0.927-0.651-0.927zM23.13 31.762c-0.223 0-0.252-0.2-0.252-0.656 0-0.461 0.029-0.656 0.252-0.656s0.252 0.2 0.252 0.656c0 0.456-0.033 0.656-0.252 0.656z"></path>
<path fill="#444444" d="M25.302 31.762c-0.223 0-0.252-0.2-0.252-0.656 0-0.461 0.029-0.656 0.252-0.656 0.119 0 0.162 0.090 0.162 0.328h0.385c0.014-0.385-0.147-0.594-0.551-0.594-0.651 0-0.651 0.452-0.651 0.927 0 0.471 0 0.927 0.651 0.927 0.371 0 0.57-0.152 0.57-0.632h-0.39c0 0.133 0.009 0.357-0.176 0.357z"></path>
<path fill="#444444" d="M27.974 30.208h-0.433l-0.461 0.77h-0.009v-0.77h-0.395v1.792h0.395v-0.917h0.009l0.452 0.917h0.442l-0.528-0.989z"></path>
<path fill="#444444" d="M16.138 8.509h-5.476l-0.195 1.165h1.602c0.166 0 0.233 0.071 0.219 0.209-0.014 0.124-1.245 8.095-1.245 8.095h1.925c0 0 0.927-6.023 1.022-6.702 0.114-0.822 0.162-1.611 1.944-1.592l0.204-1.174z"></path>
<path fill="#444444" d="M17.474 15.32c0.033-0.295 1.041-6.816 1.041-6.816h-1.802l-1.45 9.469h4.573l0.166-1.321c0 0-1.364-0.014-1.778-0.029-0.932-0.029-0.818-0.723-0.751-1.302z"></path>
<path fill="#444444" d="M27.441 8.589c-0.033-0.223-0.071-0.437-0.109-0.637-0.019-0.071-0.033-0.138-0.048-0.209-0.029-0.124-0.057-0.257-0.095-0.38-0.2-0.699-0.466-1.35-0.77-1.878-0.043-0.086-0.090-0.162-0.138-0.238-0.024-0.038-0.048-0.071-0.071-0.114-0.019-0.029-0.038-0.062-0.057-0.090-0.048-0.076-0.090-0.143-0.138-0.204-0.043-0.057-0.086-0.114-0.128-0.176-0.076-0.105-0.138-0.19-0.204-0.266l-0.295-0.342-0.295-0.337c-0.067-0.076-0.143-0.157-0.238-0.247-0.048-0.048-0.1-0.095-0.152-0.147-0.057-0.062-0.119-0.114-0.185-0.171-0.029-0.024-0.052-0.048-0.086-0.071-0.029-0.024-0.057-0.048-0.095-0.081-0.067-0.057-0.133-0.119-0.209-0.166-0.485-0.38-1.093-0.742-1.754-1.036-0.119-0.052-0.238-0.1-0.361-0.147l-0.014-0.005c-0.062-0.024-0.124-0.048-0.195-0.076-0.195-0.067-0.399-0.133-0.613-0.2-0.509-0.138-0.941-0.228-1.359-0.285-0.043-0.005-0.086-0.010-0.128-0.019-0.076-0.010-0.157-0.024-0.238-0.033l-0.561-0.052-0.599-0.029h-0.095c-0.58 0-1.065 0.024-1.516 0.076-1.103 0.114-2.248 0.366-3.389 0.756-0.124 0.038-0.242 0.081-0.361 0.128l-0.219 0.081c-0.095 0.033-0.185 0.071-0.28 0.109-0.086 0.038-0.171 0.071-0.266 0.109-0.195 0.081-0.39 0.162-0.58 0.252-0.599 0.266-1.184 0.585-1.673 0.865-1.084 0.637-2.134 1.388-3.118 2.234-0.076 0.071-0.157 0.143-0.242 0.219-0.152 0.138-0.309 0.276-0.461 0.428l-0.057 0.057c-0.209 0.2-0.423 0.409-0.623 0.623-0.475 0.485-0.903 0.998-1.26 1.436-0.366 0.475-0.756 0.989-1.089 1.526-0.119 0.181-0.228 0.366-0.337 0.547-0.048 0.081-0.095 0.162-0.147 0.247-0.048 0.086-0.095 0.171-0.143 0.261l-0.114 0.209c-0.057 0.109-0.119 0.219-0.176 0.333l-0.2 0.399c-0.043 0.086-0.081 0.176-0.124 0.266-0.019 0.048-0.043 0.095-0.062 0.138-0.105 0.219-0.19 0.442-0.276 0.661l-0.062 0.157c-0.228 0.627-0.39 1.146-0.509 1.621-0.124 0.461-0.219 0.965-0.304 1.592l-0.057 0.575-0.029 0.561c-0.005 0.081 0 0.162 0 0.242v0.124c-0.005 0.423 0.024 0.865 0.090 1.393 0.033 0.223 0.071 0.437 0.114 0.637 0.019 0.071 0.033 0.138 0.048 0.209 0.029 0.133 0.057 0.257 0.095 0.38 0.2 0.699 0.466 1.35 0.77 1.873 0.043 0.086 0.090 0.162 0.143 0.242 0.024 0.033 0.043 0.071 0.067 0.109 0.019 0.029 0.033 0.052 0.057 0.090 0.048 0.076 0.090 0.143 0.138 0.204 0.043 0.057 0.086 0.114 0.128 0.176 0.076 0.105 0.138 0.19 0.204 0.266l0.295 0.342 0.299 0.337c0.067 0.076 0.143 0.152 0.238 0.242 0.048 0.048 0.1 0.1 0.152 0.152 0.057 0.062 0.119 0.114 0.185 0.171 0.029 0.024 0.052 0.048 0.086 0.076 0.029 0.024 0.062 0.052 0.1 0.081 0.062 0.057 0.133 0.119 0.209 0.166 0.485 0.38 1.093 0.742 1.754 1.036 0.119 0.052 0.238 0.1 0.366 0.147 0.067 0.024 0.133 0.052 0.204 0.081 0.195 0.067 0.399 0.133 0.613 0.2 0.509 0.138 0.941 0.228 1.359 0.285l0.128 0.019c0.076 0.009 0.157 0.024 0.238 0.033l0.561 0.052 0.58 0.024h0.090c0.58 0 1.065-0.024 1.521-0.076 1.108-0.114 2.248-0.366 3.389-0.756 0.124-0.038 0.242-0.081 0.357-0.128 0 0 0.171-0.067 0.223-0.081 0.095-0.033 0.185-0.067 0.28-0.105 0.086-0.038 0.176-0.076 0.266-0.109 0.19-0.081 0.39-0.162 0.58-0.252 0.599-0.266 1.179-0.585 1.673-0.865 1.079-0.637 2.13-1.383 3.113-2.229 0.076-0.067 0.147-0.133 0.223-0.2l0.019-0.019c0.162-0.143 0.309-0.276 0.466-0.428l0.057-0.052c0.209-0.204 0.428-0.414 0.627-0.627 0.475-0.485 0.903-0.998 1.26-1.436 0.366-0.471 0.751-0.984 1.089-1.526 0.119-0.181 0.228-0.366 0.337-0.542 0.048-0.081 0.095-0.162 0.147-0.247 0.048-0.086 0.095-0.171 0.143-0.261l0.114-0.214c0.057-0.109 0.119-0.219 0.176-0.337l0.195-0.395c0.043-0.090 0.081-0.176 0.128-0.276 0.019-0.043 0.038-0.086 0.057-0.128 0.105-0.219 0.19-0.442 0.276-0.656l0.062-0.162c0.233-0.627 0.395-1.146 0.509-1.621 0.124-0.461 0.219-0.965 0.309-1.592l0.057-0.58 0.029-0.561c0.005-0.076 0.005-0.157 0-0.242v-0.124c0.005-0.418-0.024-0.86-0.090-1.393zM26.966 9.973c0 0.043-0.005 0.086-0.005 0.128 0 0.071-0.005 0.147-0.009 0.219l-0.029 0.357-0.090 0.727c-0.081 0.48-0.181 0.993-0.328 1.507-0.271 0.989-0.684 2.030-1.241 3.090-0.052 0.105-0.109 0.209-0.166 0.314 0 0-0.024 0.043-0.067 0.109-0.608 0-1.493 0.005-1.787-0.005-0.485-0.009-0.28-0.247-0.185-0.433s0.399-0.594 1.345-2.225 1.212-3.133 0.87-4.311c-0.342-1.179-1.507-1.255-2.638-1.070s-2.296 1.022-2.296 1.022l-0.2 1.274c2.809-1.507 3.365-0.285 3.437 0.49s-0.166 1.312-0.723 2.429c-0.556 1.117-2.714 4.383-2.714 4.383h3.912c-0.009 0.009-0.014 0.019-0.024 0.029-0.223 0.318-0.471 0.646-0.723 0.97-0.347 0.423-0.761 0.913-1.222 1.378-0.19 0.2-0.39 0.395-0.585 0.58l-0.071 0.067c-0.133 0.133-0.285 0.261-0.433 0.395-0.086 0.076-0.176 0.157-0.257 0.228-0.946 0.818-1.949 1.545-2.985 2.158-1.146 0.665-2.201 1.16-3.228 1.521-1.131 0.395-2.22 0.661-3.237 0.789-0.523 0.076-1.046 0.1-1.531 0.109l-0.551-0.005-0.542-0.033c-0.076-0.005-0.147-0.014-0.219-0.024l-0.124-0.014c-0.889-0.1-1.706-0.299-2.438-0.585-0.642-0.252-1.236-0.566-1.716-0.913-0.067-0.043-0.133-0.095-0.2-0.147-0.033-0.029-0.071-0.057-0.1-0.076-0.033-0.024-0.067-0.052-0.1-0.076-0.057-0.043-0.114-0.086-0.162-0.133-0.057-0.052-0.114-0.1-0.166-0.147-0.090-0.076-0.171-0.147-0.233-0.214l-0.314-0.314-0.271-0.357c-0.052-0.067-0.109-0.157-0.176-0.257-0.038-0.057-0.076-0.119-0.124-0.185-0.038-0.052-0.067-0.109-0.105-0.176-0.019-0.038-0.043-0.076-0.062-0.105-0.019-0.038-0.043-0.081-0.067-0.119-0.038-0.067-0.081-0.138-0.119-0.219-0.257-0.513-0.485-1.141-0.642-1.811-0.181-0.765-0.257-1.602-0.233-2.496 0-0.043 0.005-0.086 0.005-0.128 0-0.076 0.005-0.147 0.010-0.219l0.043-0.532 0.076-0.547c0.081-0.48 0.181-0.993 0.328-1.507 0.271-0.989 0.685-2.030 1.236-3.090 0.409-0.794 0.917-1.588 1.55-2.438 0.005-0.005 0.005-0.009 0.010-0.014l-1.312 8.656h1.802l1.236-8.233h1.407c0.38 0 0.765 0.846 0.685 1.716s-0.599 1.882-2.234 2.13l-0.162 1.141c0.433 0.048 1.055 0.466 1.721 1.402s0.993 1.692 0.993 1.84h1.977c-0.009-0.366-0.718-1.687-1.098-2.272-0.38-0.58-0.989-1.455-1.469-1.716 0 0 1.963-0.799 2.22-2.481s-0.114-2.999-2.282-2.999h-2.838c0.014-0.014 0.019-0.024 0.019-0.024 0.361-0.433 0.661-0.761 0.955-1.065 0.19-0.2 0.39-0.395 0.585-0.585l0.067-0.067c0.138-0.133 0.29-0.271 0.437-0.399 0.086-0.076 0.176-0.152 0.257-0.228 0.946-0.818 1.949-1.54 2.985-2.158 1.146-0.665 2.201-1.16 3.228-1.521 1.131-0.395 2.22-0.661 3.237-0.789 0.523-0.076 1.046-0.1 1.531-0.109l0.371 0.005 0.718 0.033c0.076 0.005 0.152 0.014 0.223 0.024 0.043 0.005 0.081 0.010 0.124 0.014 0.889 0.1 1.706 0.299 2.439 0.585 0.642 0.252 1.231 0.566 1.716 0.913 0.067 0.043 0.128 0.090 0.195 0.143 0.038 0.029 0.071 0.057 0.105 0.081s0.062 0.048 0.1 0.076c0.057 0.043 0.114 0.086 0.162 0.128 0.057 0.052 0.109 0.1 0.166 0.147 0.090 0.081 0.171 0.147 0.233 0.214l0.309 0.314 0.271 0.356c0.052 0.067 0.109 0.157 0.176 0.257 0.038 0.057 0.076 0.119 0.124 0.19 0.038 0.052 0.071 0.114 0.105 0.176 0.019 0.038 0.038 0.071 0.057 0.105 0.019 0.038 0.043 0.081 0.067 0.119 0.038 0.067 0.081 0.138 0.119 0.223 0.271 0.518 0.499 1.146 0.656 1.821 0.181 0.761 0.257 1.597 0.233 2.491z"></path>
</svg>
