<svg xmlns="http://www.w3.org/2000/svg" viewBox="0 0 1024 1024"><defs><style>.cls-1{fill:#444;fill-rule:evenodd;}</style></defs><title>Artboard 1</title><g id="WhatsApp_Logo" data-name="WhatsApp Logo"><g id="WA_Logo" data-name="WA Logo"><path class="cls-1" d="M869,153.05C774.28,58.25,648.36,6,514.2,6,237.78,6,12.81,230.93,12.7,507.44A500.56,500.56,0,0,0,79.64,758.16L8.49,1018l265.86-69.74a501,501,0,0,0,239.65,61h.21c276.39,0,501.39-225,501.5-501.49C1015.76,373.84,963.65,247.84,869,153.05ZM514.21,924.64H514a416.3,416.3,0,0,1-212.16-58.1l-15.22-9L128.9,898.89,171,745.07,161.1,729.3A415.83,415.83,0,0,1,97.37,507.47c.09-229.82,187.08-416.8,417-416.8,111.34,0,216,43.45,294.7,122.24s122,183.52,122,294.9C930.94,737.64,744,924.64,514.21,924.64ZM742.85,612.45c-12.53-6.27-74.14-36.58-85.63-40.77S637.38,565.42,629,578s-32.37,40.77-39.68,49.13-14.62,9.41-27.15,3.14S509.3,610.72,461.43,568c-37.25-33.23-62.4-74.26-69.71-86.81s-.78-19.32,5.5-25.57C402.85,450,409.75,441,416,433.7s8.36-12.55,12.53-20.91,2.09-15.68-1-22-28.19-67.95-38.64-93c-10.17-24.43-20.5-21.12-28.19-21.51-7.3-.36-15.66-.44-24-.44s-21.93,3.14-33.41,15.68-43.86,42.87-43.86,104.54,44.9,121.26,51.17,129.63S398.91,660.62,524.61,714.9a719.07,719.07,0,0,0,71.44,26.39c30,9.55,57.33,8.2,78.92,5,24.08-3.6,74.14-30.31,84.59-59.58s10.44-54.36,7.3-59.59S755.38,618.73,742.85,612.45Z"/></g></g></svg>