<?xml version="1.0" encoding="utf-8"?>
<!-- Generated by IcoMoon.io -->
<!DOCTYPE svg PUBLIC "-//W3C//DTD SVG 1.1//EN" "http://www.w3.org/Graphics/SVG/1.1/DTD/svg11.dtd">
<svg version="1.1" xmlns="http://www.w3.org/2000/svg" xmlns:xlink="http://www.w3.org/1999/xlink" width="32" height="32" viewBox="0 0 32 32">
<path fill="#444444" d="M30.572 7.101c-1.072 0.469-2.225 0.785-3.436 0.927 1.236-0.729 2.184-1.882 2.631-3.257-1.156 0.675-2.435 1.164-3.798 1.428-1.091-1.143-2.646-1.859-4.366-1.859-3.304 0-5.982 2.636-5.982 5.888 0 0.461 0.053 0.909 0.156 1.341-4.971-0.245-9.379-2.589-12.329-6.15-0.515 0.868-0.809 1.88-0.809 2.959 0 2.042 1.055 3.844 2.661 4.901-0.981-0.031-1.904-0.296-2.71-0.736 0 0.024 0 0.049 0 0.075 0 2.851 2.062 5.231 4.798 5.772-0.502 0.134-1.031 0.207-1.575 0.207-0.386 0-0.761-0.037-1.125-0.107 0.761 2.339 2.97 4.042 5.587 4.089-2.047 1.579-4.627 2.52-7.428 2.52-0.483 0-0.96-0.028-1.427-0.082 2.648 1.67 5.791 2.645 9.169 2.645 11.001 0 17.018-8.97 17.018-16.75 0-0.255-0.006-0.51-0.017-0.762 1.168-0.829 2.183-1.866 2.984-3.047z"></path>
</svg>
