<?xml version="1.0" encoding="utf-8"?>
<!-- Generator: Adobe Illustrator 24.0.0, SVG Export Plug-In . SVG Version: 6.00 Build 0)  -->
<svg version="1.1" id="Calque_1" xmlns="http://www.w3.org/2000/svg" xmlns:xlink="http://www.w3.org/1999/xlink" x="0px" y="0px"
	 viewBox="0 0 26 26" style="enable-background:new 0 0 26 26;" xml:space="preserve">
<style type="text/css">
	.st0{fill:#444444;}
</style>
<g>
	<path class="st0" d="M24.5,13.5h-2h-0.2v0.2c0,2.5-1,4.9-2.7,6.6c-1.8,1.8-4.1,2.7-6.6,2.7c-2.5,0-4.8-1-6.6-2.7
		c-1.8-1.8-2.7-4.1-2.7-6.6c0-2.5,1-4.9,2.7-6.6c1.7-1.7,3.9-2.6,6.2-2.7v1.2v0.6l0.4-0.4l2.3-2.3l0.2-0.2l-0.2-0.2l-2.3-2.3
		l-0.4-0.4v0.6v0.9c-3,0.1-5.8,1.3-8,3.5c-2.2,2.3-3.4,5.2-3.4,8.4c0,3.2,1.2,6.2,3.4,8.4c2.2,2.3,5.2,3.5,8.3,3.5
		c3.1,0,6.1-1.2,8.3-3.5c2.2-2.3,3.4-5.2,3.4-8.4v-0.2H24.5z"/>
	<path class="st0" d="M12.9,7L12.9,7c-1.3,0-2.4,0.4-3.1,1.2v0h0c-0.5,0.5-0.8,1.2-0.7,1.9h0l0,10.4h2.7l0-10.3
		c0.1-0.4,0.4-0.6,0.7-0.7c0.2-0.1,0.3-0.1,0.5-0.2c0.1,0,0.1,0,0.1,0c0,0,0,0,0,0c1-0.1,1.7,0.1,2.2,0.6c0.4,0.3,0.5,0.8,0.6,1.1
		c0.1,0.4,0.1,0.6,0.1,0.6l0,0l0,0l0,0c0,1-0.3,1.7-0.9,2c-0.4,0.2-0.9,0.3-1.4,0.3c-0.5,0-0.9,0-0.9,0l0,0l-0.2,0l-0.3,0v0.3V16
		v0.2l0.2,0l0.2,0c0.7,0,1.4,0,2.2,0l0,0c1.2-0.1,2.1-0.6,2.7-1.5c0.6-0.8,0.8-1.8,0.8-2.6c0-0.8-0.1-1.4-0.1-1.5l0,0
		c-0.1-0.9-0.4-1.6-1-2.2c-0.5-0.6-1.2-1-2.1-1.2C14.2,6.9,13,7,12.9,7z"/>
</g>
</svg>
