<?xml version="1.0" encoding="utf-8"?>
<!-- Generator: Adobe Illustrator 24.0.0, SVG Export Plug-In . SVG Version: 6.00 Build 0)  -->
<svg version="1.1" id="Calque_1" xmlns="http://www.w3.org/2000/svg" xmlns:xlink="http://www.w3.org/1999/xlink" x="0px" y="0px"
	 viewBox="0 0 4288 1024" style="enable-background:new 0 0 4288 1024;" xml:space="preserve">
<style type="text/css">
	.st0{fill-rule:evenodd;clip-rule:evenodd;fill:#444444;}
</style>
<path class="st0" d="M1484.4,804.3c-32.9,0-65.7-6.1-98.4-18.1c-32.7-12.1-61.9-30.2-87.6-54.4l64.8-78c18,15.4,37.9,28.1,59.8,37.8
	c21.9,9.8,43.3,14.7,64.4,14.7c23.7,0,41.3-4.4,52.9-13.1c11.6-8.7,17.4-20.6,17.4-35.5c0-7.7-1.7-14.4-5-20.1
	c-3.3-5.7-8.2-10.7-14.7-15.1c-6.4-4.4-14.2-8.5-23.2-12.4c-9-3.9-18.9-8.1-29.7-12.7l-65.6-27.8c-12.9-5.1-25.3-11.8-37.4-20.1
	c-12.1-8.2-22.9-17.9-32.4-29c-9.5-11.1-17.1-23.9-22.8-38.6c-5.7-14.7-8.5-31.3-8.5-49.8c0-20.6,4.4-40,13.1-58.3
	c8.7-18.3,21.1-34.2,37-47.9c15.9-13.6,34.8-24.3,56.7-32c21.9-7.7,45.9-11.6,72.2-11.6c29.3,0,58.3,5.7,86.8,17
	c28.6,11.3,53.6,27.8,75.2,49.4l-57.9,71.8c-16.5-12.9-32.9-22.8-49.4-29.7c-16.5-7-34.7-10.4-54.8-10.4c-19.6,0-35.1,4-46.7,12
	c-11.6,8-17.4,19.2-17.4,33.6c0,7.7,1.9,14.3,5.8,19.7c3.9,5.4,9.3,10.3,16.2,14.7c6.9,4.4,15,8.5,24.3,12.3
	c9.3,3.9,19.3,8.1,30.1,12.7l64.8,26.2c30.9,12.4,55.2,29.3,72.9,51c17.8,21.6,26.6,50.2,26.6,85.7c0,21.1-4.2,41.1-12.7,59.8
	c-8.5,18.8-20.8,35.3-37,49.4c-16.2,14.2-36.2,25.5-59.8,34C1541,800,1514.3,804.3,1484.4,804.3z"/>
<path class="st0" d="M1902,804.3c-32.9,0-65.7-6.1-98.4-18.1c-32.7-12.1-61.9-30.2-87.6-54.4l64.8-78c18,15.4,37.9,28.1,59.8,37.8
	c21.9,9.8,43.3,14.7,64.4,14.7c23.6,0,41.3-4.4,52.9-13.1c11.6-8.7,17.4-20.6,17.4-35.5c0-7.7-1.7-14.4-5-20.1
	c-3.4-5.7-8.2-10.7-14.7-15.1c-6.4-4.4-14.2-8.5-23.2-12.4c-9-3.9-18.9-8.1-29.7-12.7l-65.6-27.8c-12.9-5.1-25.3-11.8-37.4-20.1
	c-12.1-8.2-22.9-17.9-32.4-29c-9.5-11.1-17.1-23.9-22.8-38.6c-5.7-14.7-8.5-31.3-8.5-49.8c0-20.6,4.4-40,13.1-58.3
	c8.7-18.3,21.1-34.2,37-47.9c15.9-13.6,34.8-24.3,56.7-32c21.9-7.7,45.9-11.6,72.2-11.6c29.3,0,58.3,5.7,86.8,17
	c28.5,11.3,53.6,27.8,75.2,49.4l-57.9,71.8c-16.5-12.9-32.9-22.8-49.4-29.7c-16.5-7-34.7-10.4-54.8-10.4c-19.6,0-35.1,4-46.7,12
	c-11.6,8-17.4,19.2-17.4,33.6c0,7.7,1.9,14.3,5.8,19.7c3.9,5.4,9.3,10.3,16.2,14.7c6.9,4.4,15,8.5,24.3,12.3
	c9.3,3.9,19.3,8.1,30.1,12.7l64.8,26.2c30.9,12.4,55.2,29.3,72.9,51c17.8,21.6,26.6,50.2,26.6,85.7c0,21.1-4.2,41.1-12.7,59.8
	c-8.5,18.8-20.8,35.3-37,49.4c-16.2,14.2-36.2,25.5-59.8,34C1958.6,800,1931.8,804.3,1902,804.3z"/>
<path class="st0" d="M2154.4,783.4V282.3h121.6l79.3,222.9c5,14.9,9.8,30.1,14.3,45.7c4.6,15.6,9.3,31.1,14.4,46.5h3
	c5-15.4,9.7-30.9,14-46.5c4.3-15.6,8.9-30.9,14-45.7l77.8-222.9h120.9v501.1h-101.2V599.7c0-12.3,0.5-25.9,1.5-40.7
	c1-14.9,2.3-29.8,3.8-45c1.5-15.1,3-30,4.5-44.6c1.5-14.6,3-28,4.5-40.3h-3l-40,119.1l-70.3,191.4h-61.2l-70.3-191.4l-39.3-119.1h-3
	c1.5,12.3,3,25.7,4.5,40.3c1.5,14.6,3,29.5,4.5,44.6c1.5,15.1,2.8,30.1,3.8,45c1,14.9,1.5,28.4,1.5,40.7v183.7H2154.4z"/>
<path class="st0" d="M2739,783.4V282.3h305.7v95.3h-195.5v100.7h166.3v94.5h-166.3v115.3h203v95.3H2739z"/>
<path class="st0" d="M3249.8,692h21.7c21.7,0,41.4-2.8,59-8.4c17.6-5.6,32.6-14.7,45-27.3c12.4-12.5,22.1-29.1,29.1-49.6
	c7-20.5,10.5-45.8,10.5-76.1c0-29.7-3.5-54.7-10.5-74.9c-7-20.2-16.7-36.4-29.1-48.4c-12.4-12-27.4-20.6-45-25.7
	c-17.6-5.1-37.3-7.7-59-7.7h-21.7V692z M3135.7,783.4V282.3h142.8c38.8,0,73.8,4.9,104.8,14.6c31,9.7,57.7,24.7,80,45
	c22.3,20.2,39.3,46,51.2,77.2c11.9,31.3,17.9,68.4,17.9,111.4c0,43-6,80.4-17.9,112.2c-11.9,31.8-28.7,58-50.5,78.8
	c-21.7,20.8-47.7,36.3-78,46.5c-30.3,10.3-64,15.4-101.3,15.4H3135.7z"/>
<g>
	<path class="st0" d="M3636.7,783.4h104.4V282.3h-104.4V783.4z"/>
	<path class="st0" d="M3980.6,529.8l-12,46.1h104.2l-11.2-46.1c-7-25.1-13.8-51.7-20.2-79.9c-6.5-28.2-13-55.3-19.5-81.5h-3
		c-6,26.6-12.1,53.9-18.4,81.8C3994.2,478.2,3987.6,504.7,3980.6,529.8z M3803.8,783.4l152.9-501.1h132.7l152.9,501.1h-116.9
		l-30-119.1h-149.1l-30,119.1H3803.8z"/>
	<path class="st0" d="M1103.6,583l-52.3-210l-3,0l-51.5,210.2L1103.6,583z M557,58.9l0.6-48l94.8,95.5l-97.2,92.9l0.7-56.9
		c0,0-144.7-21.4-275,76.5c0,0-80.9,60.6-119.6,155.1c0,0-24.3,49-31.5,128.5c0,0-10.2,79.9,19.6,160.7c0,0,25.1,82.9,93.2,151.2
		c0,0,37,43.4,115,79.5c0,0,77.1,36.1,154.6,34.8c0,0,82.2,4.3,169.9-43c0,0,74.9-37.4,127.7-114.3c0,0,34.8-35.4,86-199l88.9-286.8
		h136.1l156.9,507.5h-120l-30.8-120.6H973.7c0,0-31.2,96-106.9,181.5c0,0-63.9,74.8-147.3,111.3c0,0-80,46-205.7,47.7
		c0,0-100.1,0-186.9-41.2c0,0-89.8-37-155-110.9c0,0-63.4-62.3-102.6-173.6c0,0-24.7-67.5-23.4-160.7c0,0-0.9-82.1,36.2-179.2
		c0,0,34.9-85.9,102.6-152.1c0,0,50.2-54.1,131.1-92.8C315.8,102.6,422.7,49.1,557,58.9z"/>
	<path class="st0" d="M401,804.3l-0.3-417.8c0,0-1.1-66.3,73.1-91c0,0,39.5-15.9,110-12.7c0,0,72.7,1.4,116,26.4
		c0,0,40.2,18.5,61,58.5c0,0,14.1,20.7,15.5,67.1c0,0,1.9,42.6-7.2,71.9c0,0-6.1,33-35.8,66.8c0,0-28.6,35.8-81.6,46.6
		c0,0-45.2,11.3-117.6,7.6l0.6-93.3c0,0,36.8,8.1,76-1c0,0,49.7-8.2,55.8-54.3c0,0,6.7-35.8-2.8-53.4c0,0-9.9-28.9-49.5-37.2
		c0,0-28.7-8.4-78.5-2.1c0,0-14,2.6-19,19.9c0,0-1.3,6.2-1.5,12.8v385.2H401z"/>
</g>
</svg>
