<?xml version="1.0" encoding="utf-8"?>
<!-- Generator: Adobe Illustrator 19.1.0, SVG Export Plug-In . SVG Version: 6.00 Build 0)  -->
<svg version="1.1" id="Calque_1" xmlns="http://www.w3.org/2000/svg" xmlns:xlink="http://www.w3.org/1999/xlink" x="0px" y="0px"
	 viewBox="206 -116 1024 1024" style="enable-background:new 206 -116 1024 1024;" xml:space="preserve">
<style type="text/css">
	.st0{fill:#444444;}
</style>
<g id="layer1" transform="translate(0,-552.36218)">
	<path id="rect2995" class="st0" d="M318.4,451.8c-55.6,0-98,45.8-98,98V1344c0,55.6,45.7,98,98,98h794.1c55.6,0,98-45.8,98-98
		V549.9c0-55.6-45.7-98-98-98H318.4z M733.4,559.7c173.2,0,284.3,124.2,284.3,258.2c0,176.5-98,310.4-245.1,310.4
		c-49,0-94.8-26.1-111.1-55.6c0,0-26.1,104.6-32.7,124.2c-19.6,71.9-78.4,140.5-81.7,147.1c-3.3,3.3-9.8,3.3-9.8-3.3
		c0-9.8-16.3-98,0-169.9c9.8-35.9,58.8-245.1,58.8-245.1s-13.1-29.4-13.1-71.9c0-65.4,39.2-117.6,88.2-117.6
		c42.5,0,62.1,29.4,62.1,68.6c0,42.5-26.1,104.6-39.2,160.1c-9.8,49,22.9,88.2,71.9,88.2c85,0,143.8-111.1,143.8-238.6
		c0-98-65.4-173.2-186.3-173.2c-137.2,0-222.2,101.3-222.2,215.7c0,39.2,13.1,68.6,29.4,88.2c9.8,9.8,9.8,13.1,6.5,26.1
		c-3.3,9.8-6.5,29.4-9.8,35.9c-3.3,13.1-13.1,16.3-22.9,9.8c-62.1-26.1-91.5-94.8-91.5-173.2C409.9,713.3,517.7,559.7,733.4,559.7z"
		/>
</g>
<g>
	<path class="st0" d="M1163.1-118.1H279.6c-40.2,0-73.6,29.4-73.6,68.6v882.3c0,39.2,33.5,75.2,73.6,75.2h883.5
		c40.2,0,66.9-35.9,66.9-75.2V-49.5C1230-88.7,1199.9-118.1,1163.1-118.1z M778.2,574.7c-50.2,0-97-26.1-113.8-55.6
		c0,0-26.8,104.6-33.5,124.2c-20.1,71.9-80.3,140.5-83.7,147.1c-3.3,3.3-10,3.3-10-3.3c0-9.8-16.7-98,0-169.9
		c10-35.9,60.2-245.1,60.2-245.1s-13.4-29.4-13.4-71.9c0-65.4,40.2-117.6,90.4-117.6c43.5,0,63.6,29.4,63.6,68.6
		c0,42.5-26.8,104.6-40.2,160.1c-10,49,23.4,88.2,73.6,88.2c87,0,147.2-111.1,147.2-238.6c0-98-66.9-173.2-190.7-173.2
		c-140.5,0-227.6,101.3-227.6,215.7c0,39.2,13.4,68.6,30.1,88.2c10,9.8,10,13.1,6.7,26.1c-3.3,9.8-6.7,29.4-10,35.9
		c-6.7,6.5-16.7,9.8-26.8,6.5c-63.6-26.1-93.7-94.8-93.7-173.2c0-127.4,110.4-281,331.3-281c177.4,0,291.1,124.2,291.1,258.2
		C1025.9,440.7,925.5,574.7,778.2,574.7z"/>
</g>
</svg>
