<?xml version="1.0" encoding="utf-8"?>
<!-- Generator: Adobe Illustrator 19.2.0, SVG Export Plug-In . SVG Version: 6.00 Build 0)  -->
<svg version="1.1" xmlns="http://www.w3.org/2000/svg" xmlns:xlink="http://www.w3.org/1999/xlink" width="32" height="32" viewBox="0 0 32 32">
<g id="layer1" transform="translate(0,-552.36218)">
    <path fill="#444444" id="rect2995" class="st0" d="M3.9,553.2c-1.7,0-3,1.4-3,3v24.3c0,1.7,1.4,3,3,3h24.3c1.7,0,3-1.4,3-3v-24.3c0-1.7-1.4-3-3-3
H3.9z M16.6,556.5c5.3,0,8.7,3.8,8.7,7.9c0,5.4-3,9.5-7.5,9.5c-1.5,0-2.9-0.8-3.4-1.7c0,0-0.8,3.2-1,3.8c-0.6,2.2-2.4,4.3-2.5,4.5
c-0.1,0.1-0.3,0.1-0.3-0.1c0-0.3-0.5-3,0-5.2c0.3-1.1,1.8-7.5,1.8-7.5s-0.4-0.9-0.4-2.2c0-2,1.2-3.6,2.7-3.6c1.3,0,1.9,0.9,1.9,2.1
c0,1.3-0.8,3.2-1.2,4.9c-0.3,1.5,0.7,2.7,2.2,2.7c2.6,0,4.4-3.4,4.4-7.3c0-3-2-5.3-5.7-5.3c-4.2,0-6.8,3.1-6.8,6.6
c0,1.2,0.4,2.1,0.9,2.7c0.3,0.3,0.3,0.4,0.2,0.8c-0.1,0.3-0.2,0.9-0.3,1.1c-0.1,0.4-0.4,0.5-0.7,0.3c-1.9-0.8-2.8-2.9-2.8-5.3
C6.7,561.2,10,556.5,16.6,556.5z"/>
</g>
<g>
    <path fill="#444444" class="st0" d="M29.4,0.3H3c-1.2,0-2.2,0.9-2.2,2.1v27c0,1.2,1,2.3,2.2,2.3h26.4c1.2,0,2-1.1,2-2.3v-27
C31.4,1.2,30.5,0.3,29.4,0.3z M17.9,21.5c-1.5,0-2.9-0.8-3.4-1.7c0,0-0.8,3.2-1,3.8c-0.6,2.2-2.4,4.3-2.5,4.5
c-0.1,0.1-0.3,0.1-0.3-0.1c0-0.3-0.5-3,0-5.2c0.3-1.1,1.8-7.5,1.8-7.5s-0.4-0.9-0.4-2.2c0-2,1.2-3.6,2.7-3.6c1.3,0,1.9,0.9,1.9,2.1
c0,1.3-0.8,3.2-1.2,4.9c-0.3,1.5,0.7,2.7,2.2,2.7c2.6,0,4.4-3.4,4.4-7.3c0-3-2-5.3-5.7-5.3c-4.2,0-6.8,3.1-6.8,6.6
c0,1.2,0.4,2.1,0.9,2.7c0.3,0.3,0.3,0.4,0.2,0.8c-0.1,0.3-0.2,0.9-0.3,1.1C10.2,18,9.9,18.1,9.6,18c-1.9-0.8-2.8-2.9-2.8-5.3
c0-3.9,3.3-8.6,9.9-8.6c5.3,0,8.7,3.8,8.7,7.9C25.3,17.4,22.3,21.5,17.9,21.5z"/>
</g>
</svg>
