<?xml version="1.0" encoding="utf-8"?>
<!-- Generator: Adobe Illustrator 19.2.0, SVG Export Plug-In . SVG Version: 6.00 Build 0)  -->
<svg version="1.1" id="Calque_1" xmlns="http://www.w3.org/2000/svg" xmlns:xlink="http://www.w3.org/1999/xlink" x="0px" y="0px"
	 viewBox="0 0 1024 1024" style="enable-background:new 0 0 1024 1024;" xml:space="preserve">
<style type="text/css">
	.st0{fill:#444444;}
</style>
<path class="st0" d="M541.5,0C262,0,121,200.4,121,367.4c0,101.2,38.3,191.2,120.5,224.7c13.5,5.5,25.5,0.2,29.5-14.7
	c2.7-10.3,9.1-36.4,12-47.2c3.9-14.7,2.4-19.9-8.5-32.8c-23.7-27.9-38.8-64.1-38.8-115.3c0-148.6,111.3-281.7,289.7-281.7
	c158,0,244.8,96.5,244.8,225.4c0,169.6-75.1,312.7-186.5,312.7c-61.6,0-107.6-50.9-92.9-113.3c17.7-74.5,51.9-154.9,51.9-208.7
	c0-48.1-25.9-88.3-79.4-88.3c-62.9,0-113.5,65.1-113.5,152.2c0,55.5,18.8,93.1,18.8,93.1S304.3,746.2,293,794
	c-22.5,95.1-3.4,211.7-1.8,223.5c1,7,9.9,8.6,14,3.4c5.8-7.6,80.7-100.1,106.2-192.5c7.2-26.2,41.4-161.7,41.4-161.7
	c20.5,39,80.2,73.3,143.7,73.3C785.7,740.1,914,567.7,914,337C914,162.5,766.2,0,541.5,0z"/>
</svg>
