<?xml version="1.0" encoding="utf-8"?>
<!-- Generator: Adobe Illustrator 19.2.0, SVG Export Plug-In . SVG Version: 6.00 Build 0)  -->
<svg version="1.1" id="Calque_1" xmlns="http://www.w3.org/2000/svg" xmlns:xlink="http://www.w3.org/1999/xlink" x="0px" y="0px"
	 viewBox="0 0 1024 1024" style="enable-background:new 0 0 1024 1024;" xml:space="preserve">
<style type="text/css">
	.st0{fill:#444444;}
</style>
<g>
	<path class="st0" d="M950.1,0H80.2C38.6,0,0,27.7,0,68.4v880c0,40.7,38.6,75.6,80.2,75.6h869.9c41.7,0,73.9-34.9,73.9-75.6v-880
		C1024,27.7,991.7,0,950.1,0z M574.9,696.9c-50.3,0-97.7-27.2-113.9-58.1c0,0-27.1,107.4-32.8,128.1
		c-20.2,73.2-79.6,146.5-84.1,152.5c-3.2,4.2-10.3,2.9-11.1-2.7c-1.3-9.3-16.4-101.7,1.4-177.1c8.9-37.8,59.9-254,59.9-254
		s-14.9-29.8-14.9-73.7c0-69.1,40-120.6,89.9-120.6c42.4,0,62.9,31.8,62.9,70c0,42.6-27.1,106.3-41.1,165.4
		c-11.7,49.5,24.8,89.8,73.6,89.8c88.3,0,147.8-113.4,147.8-247.8c0-102.1-68.8-178.6-193.9-178.6C377.2,190,289,295.4,289,413.2
		c0,40.6,12,69.3,30.8,91.4c8.6,10.2,9.8,14.3,6.7,26c-2.3,8.6-7.4,29.2-9.5,37.4c-3.1,11.8-12.7,16-23.3,11.7
		c-65.1-26.6-95.4-97.9-95.4-178.1c0-132.4,111.7-291.2,333.1-291.2c178,0,295.1,128.8,295.1,267
		C826.4,560.3,724.7,696.9,574.9,696.9z"/>
</g>
</svg>
