<?xml version="1.0" encoding="utf-8"?>
<!-- Generator: Adobe Illustrator 19.2.1, SVG Export Plug-In . SVG Version: 6.00 Build 0)  -->
<svg version="1.1" id="Calque_1" xmlns="http://www.w3.org/2000/svg" xmlns:xlink="http://www.w3.org/1999/xlink" x="0px" y="0px"
	 viewBox="0 0 1024 1024" enable-background="new 0 0 1024 1024" xml:space="preserve">
<path fill="#444444" d="M512.3,0C229.9,0,0,229.3,0,512c0,209.9,119.1,389.4,299.1,469c-4.2-40.9,0-98.4,9.7-140
	c9.7-40.2,60.2-256.3,60.2-256.3s-15.2-31.2-15.2-76.9c0-72.1,41.5-125.4,93.5-125.4c44.3,0,65.1,33.3,65.1,72.7
	c0,44.3-28.4,110.2-42.9,171.8c-12.5,51.3,25.6,93.5,76.2,93.5c91.4,0,162-97,162-236.3c0-123.3-88.6-209.9-215.3-209.9
	c-146.8,0-232.6,110.2-232.6,223.8c0,44.3,17.3,92.1,38.1,117.8c4.2,4.8,4.8,9.7,3.5,14.5c-4.2,16.6-12.5,51.3-14.5,58.2
	c-2.1,9.7-7.6,11.8-17.3,6.9c-64.4-29.8-104.5-124-104.5-199.5c0-162.8,118.4-312.5,340.6-312.5c178.6,0,317.8,127.5,317.8,297.9
	c0,178.1-112.2,320.8-267.3,320.8c-51.9,0-101.1-27-118.4-58.9c0,0-25.6,98.4-31.8,122.6c-11.1,43-40.2,95.6-60.9,130.3
	c52.6,18,108.7,27.7,166.9,27.7c282.5,0,512.3-229.3,512.3-512C1024,229.3,794.8,0,512.3,0z"/>
</svg>
