<?xml version="1.0" encoding="utf-8"?>
<!-- Generated by IcoMoon.io -->
<!DOCTYPE svg PUBLIC "-//W3C//DTD SVG 1.1//EN" "http://www.w3.org/Graphics/SVG/1.1/DTD/svg11.dtd">
<svg version="1.1" xmlns="http://www.w3.org/2000/svg" xmlns:xlink="http://www.w3.org/1999/xlink" width="32" height="32" viewBox="0 0 32 32">
<path fill="#444444" d="M26.337 10c-0.974 0-1.88 0.284-2.648 0.768-0.718-1.87-2.526-3.2-4.648-3.2-0.864 0-1.675 0.219-2.383 0.606-1.133-1.475-2.91-2.431-4.913-2.431-3.080 0-5.63 2.248-6.112 5.193-2.027 0.632-3.5 2.491-3.5 4.726 0 0.236 0.038 0.017 0.069 0.657h0.12c0.456 0 0.686 0 0.915 0 0.050 0 0.1 0 0.154 0-0.015 0-0.041-0.376-0.041-0.515 0-1.658 1.063-3.159 2.645-3.652l0.717-0.251 0.121-0.754c0.396-2.419 2.462-4.18 4.912-4.18 1.555 0 2.994 0.708 3.95 1.951l0.633 0.824 0.913-0.499c0.548-0.299 1.171-0.458 1.8-0.458 1.546 0 2.957 0.972 3.513 2.42l0.531 1.381 1.254-0.788c0.603-0.379 1.295-0.58 2-0.58 2.077 0 3.767 1.65 3.767 3.728 0 0.069-0.016 0.161-0.021 0.161-0.084 2.034-1.141 3.101-2.576 3.457 0.244 0.305 0.462 0.638 0.66 0.991 1.784-0.742 3.063-2.508 3.144-4.448 0.002 0 0.010-0.094 0.010-0.161 0-2.752-2.231-4.945-4.983-4.945z"></path>
<path fill="#444444" d="M25.604 17.76h-22.951c-0.288 0-0.521 0.456-0.521 0.72s0.233 0.72 0.521 0.72h22.951c0.288 0 0.521-0.455 0.521-0.72s-0.233-0.72-0.521-0.72z"></path>
<path fill="#444444" d="M25.57 20.16h-24.455c-0.308 0-0.556 0.367-0.556 0.72 0 0.354 0.248 0.72 0.556 0.72h24.455c0.308 0 0.556-0.366 0.556-0.72-0-0.353-0.248-0.72-0.556-0.72z"></path>
<path fill="#444444" d="M22.242 22.56h-19.662c-0.248 0-0.447 0.367-0.447 0.72s0.2 0.72 0.447 0.72h19.662c0.247 0 0.447-0.367 0.447-0.72s-0.2-0.72-0.447-0.72z"></path>
</svg>
