<?xml version="1.0" encoding="utf-8"?>
<!-- Generated by IcoMoon.io -->
<!DOCTYPE svg PUBLIC "-//W3C//DTD SVG 1.1//EN" "http://www.w3.org/Graphics/SVG/1.1/DTD/svg11.dtd">
<svg version="1.1" xmlns="http://www.w3.org/2000/svg" xmlns:xlink="http://www.w3.org/1999/xlink" width="32" height="32" viewBox="0 0 32 32">
<path fill="#444444" d="M18.283 6.003c0.265 0.050 0.521-0.126 0.571-0.392l0.624-3.364c0.050-0.266-0.126-0.521-0.392-0.57s-0.52 0.126-0.57 0.391l-0.625 3.365c-0.049 0.266 0.125 0.521 0.392 0.57z"></path>
<path fill="#444444" d="M14.127 5.981c0.090 0.254 0.369 0.388 0.625 0.298 0.254-0.090 0.388-0.369 0.297-0.624l-1.14-3.226c-0.091-0.255-0.37-0.388-0.625-0.298-0.253 0.090-0.388 0.369-0.298 0.623l1.141 3.228z"></path>
<path fill="#444444" d="M11.139 8.338c0.206 0.176 0.514 0.151 0.69-0.053s0.15-0.514-0.056-0.689l-2.6-2.224c-0.207-0.175-0.513-0.151-0.69 0.054-0.175 0.205-0.152 0.515 0.053 0.689l2.602 2.224z"></path>
<path fill="#444444" d="M23.486 10.452c0.090 0.254 0.368 0.388 0.625 0.298l3.224-1.141c0.257-0.090 0.389-0.37 0.298-0.624-0.089-0.255-0.369-0.389-0.623-0.299l-3.226 1.141c-0.255 0.091-0.388 0.371-0.298 0.625z"></path>
<path fill="#444444" d="M22.17 7.476l2.223-2.6c0.177-0.206 0.152-0.515-0.054-0.69-0.205-0.176-0.513-0.152-0.689 0.053l-2.224 2.602c-0.174 0.207-0.15 0.515 0.054 0.69 0.206 0.175 0.515 0.151 0.69-0.055z"></path>
<path fill="#444444" d="M30.288 18.938c0-0.020 0.007-0.038 0.007-0.059 0-2.825-2.289-5.115-5.113-5.115-0.653 0-1.271 0.135-1.844 0.358-0.304 0.119-0.601 0.256-0.874 0.429-0.153-0.398-0.357-0.77-0.599-1.113 0.379-2.586-1.347-5.032-3.939-5.513-1.986-0.369-3.9 0.532-4.949 2.118-0.38-0.185-0.778-0.338-1.196-0.445-0.505-0.13-1.032-0.203-1.578-0.203-3.159 0-5.774 2.308-6.27 5.329-2.081 0.648-3.592 2.589-3.592 4.884 0 2.825 2.289 5.114 5.115 5.114 0.373 0 0.734-0.043 1.084-0.119 0.743 1.904 2.592 3.253 4.76 3.253 0.747 0 1.452-0.168 2.091-0.456 0.734 1.022 1.923 1.694 3.277 1.694 1.41 0 2.651-0.722 3.374-1.815 0.776 0.614 1.753 0.984 2.818 0.984 1.699 0 3.177-0.935 3.957-2.317 0.27 0.057 0.55 0.088 0.838 0.088 2.235 0 4.047-1.812 4.047-4.046 0-1.224-0.555-2.309-1.413-3.052zM25.181 22.744c-0.266 0-0.535-0.028-0.803-0.084l-0.895-0.188-0.448 0.796c-0.798 1.414-2.297 2.292-3.912 2.292-1.017 0-1.98-0.336-2.784-0.973l-1.065-0.845-0.749 1.134c-0.64 0.965-1.664 1.58-2.794 1.707-0.141 0.016-0.284 0.027-0.43 0.027-1.601 0-3.012-0.965-3.597-2.459l-0.388-0.991-1.040 0.226c-0.275 0.060-0.549 0.090-0.82 0.090-2.132 0-3.867-1.735-3.867-3.867 0-1.703 1.092-3.186 2.715-3.692l0.736-0.229 0.124-0.761c0.406-2.481 2.526-4.282 5.039-4.282 0.393 0 0.777 0.046 1.151 0.132 1.143 0.263 2.165 0.913 2.904 1.875l0.648 0.846 0.94-0.512c0.561-0.307 1.201-0.469 1.846-0.469 1.291 0 2.481 0.667 3.191 1.713 0.040 0.085 0.087 0.166 0.121 0.255 0.012-0.008 0.026-0.014 0.038-0.021 0.099 0.171 0.184 0.35 0.257 0.537l0.372 0.97 0.173 0.447 0.468-0.294 0.136-0.087 0.681-0.428c0.62-0.39 1.329-0.595 2.053-0.595 1.891 0 3.463 1.369 3.794 3.167 0.043 0.228 0.072 0.46 0.072 0.699 0 2.131-1.735 3.864-3.866 3.864z"></path>
</svg>
