<?xml version="1.0" encoding="utf-8"?>
<!-- Generated by IcoMoon.io -->
<!DOCTYPE svg PUBLIC "-//W3C//DTD SVG 1.1//EN" "http://www.w3.org/Graphics/SVG/1.1/DTD/svg11.dtd">
<svg version="1.1" xmlns="http://www.w3.org/2000/svg" xmlns:xlink="http://www.w3.org/1999/xlink" width="32" height="32" viewBox="0 0 32 32">
<path fill="#444444" d="M24.238 12.302c-0.313 0-0.62 0.045-0.916 0.108 0.053-0.286 0.090-0.577 0.090-0.878 0-2.697-2.187-4.883-4.885-4.883-1.904 0-3.546 1.090-4.35 2.679-0.814-0.485-1.759-0.77-2.773-0.77-2.708 0-4.95 1.978-5.373 4.567-1.784 0.556-3.079 2.22-3.079 4.187 0 2.418 1.962 4.383 4.384 4.383 0.319 0 0.629-0.037 0.928-0.1 0.639 1.629 2.223 2.787 4.080 2.787 1.527 0 2.869-0.783 3.656-1.965 0.837 0.666 1.896 1.064 3.049 1.064 1.84 0 3.443-1.012 4.286-2.508 0.29 0.061 0.593 0.094 0.904 0.094 2.423 0 4.384-1.961 4.384-4.383 0-2.421-1.961-4.383-4.384-4.383zM24.238 19.618c-0.202 0-0.406-0.021-0.608-0.066l-1.038-0.217-0.523 0.926c-0.616 1.090-1.773 1.77-3.021 1.77-0.786 0-1.529-0.26-2.148-0.752l-1.24-0.983-0.873 1.319c-0.546 0.825-1.459 1.315-2.444 1.315-1.213 0-2.285-0.732-2.729-1.867l-0.451-1.151-1.209 0.265c-0.205 0.042-0.413 0.065-0.619 0.065-1.618 0-2.932-1.312-2.932-2.929 0-1.294 0.827-2.418 2.059-2.803l0.854-0.266 0.145-0.884c0.319-1.943 1.977-3.352 3.943-3.352 1.249 0 2.406 0.573 3.173 1.572l0.755 0.983 1.087-0.594c0.434-0.235 0.906-0.355 1.405-0.355 1.202 0 2.301 0.757 2.733 1.884l0.63 1.649 1.496-0.941c0.471-0.296 1.009-0.452 1.555-0.452 1.617 0 2.934 1.317 2.934 2.932 0 1.618-1.317 2.934-2.934 2.934z"></path>
<path fill="#444444" d="M5.068 29.698c-0.417 0.417-0.416 1.092 0 1.51 0.414 0.414 1.091 0.413 1.506 0 0.416-0.418 3.982-5.39 4.234-5.741-0.351 0.251-5.326 3.819-5.74 4.232z"></path>
<path fill="#444444" d="M9.67 29.624c-0.491 0.491-0.49 1.287 0 1.777 0.489 0.493 1.286 0.493 1.776 0 0.49-0.49 4.696-6.354 4.994-6.769-0.414 0.299-6.28 4.503-6.77 4.993z"></path>
<path fill="#444444" d="M15.258 28.687c-0.365 0.369-0.365 0.961 0 1.33 0.369 0.367 0.963 0.367 1.332 0 0.365-0.369 3.515-4.754 3.734-5.065-0.311 0.221-4.697 3.367-5.066 3.735z"></path>
<path fill="#444444" d="M3.453 26.451c-0.259 0.26-0.259 0.682 0 0.939s0.679 0.258 0.938 0c0.259-0.257 2.481-3.357 2.637-3.576-0.218 0.157-3.316 2.378-3.575 2.637z"></path>
<path fill="#444444" d="M19.931 29.872c0.26 0.26 0.682 0.26 0.941 0 0.259-0.258 2.481-3.357 2.637-3.578-0.221 0.157-3.318 2.379-3.578 2.638s-0.26 0.682 0 0.94z"></path>
<path fill="#444444" d="M20.435 0.079c-0.268-0.041-0.517 0.14-0.559 0.406l-0.537 3.376c-0.044 0.266 0.139 0.517 0.407 0.559 0.264 0.042 0.516-0.139 0.559-0.405l0.537-3.376c0.040-0.267-0.142-0.516-0.406-0.559z"></path>
<path fill="#444444" d="M15.283 0.966c-0.097-0.252-0.381-0.377-0.631-0.282-0.253 0.097-0.379 0.38-0.282 0.631l1.221 3.192c0.099 0.252 0.381 0.378 0.632 0.282 0.25-0.098 0.376-0.38 0.281-0.63l-1.222-3.193z"></path>
<path fill="#444444" d="M10.632 4.028c-0.209-0.169-0.516-0.137-0.687 0.072s-0.137 0.516 0.071 0.687l2.656 2.153c0.211 0.17 0.518 0.137 0.688-0.072s0.137-0.517-0.073-0.687l-2.655-2.152z"></path>
<path fill="#444444" d="M29.158 7.152c-0.096-0.252-0.378-0.377-0.63-0.281l-3.192 1.224c-0.253 0.097-0.378 0.379-0.282 0.632 0.099 0.251 0.382 0.377 0.633 0.281l3.189-1.223c0.253-0.097 0.381-0.379 0.282-0.632z"></path>
<path fill="#444444" d="M25.744 2.447c-0.208-0.17-0.516-0.138-0.688 0.071l-2.152 2.655c-0.168 0.21-0.134 0.517 0.074 0.689 0.208 0.169 0.514 0.136 0.688-0.073l2.151-2.655c0.17-0.21 0.136-0.519-0.071-0.687z"></path>
</svg>
