<?xml version="1.0" encoding="utf-8"?>
<!-- Generated by IcoMoon.io -->
<!DOCTYPE svg PUBLIC "-//W3C//DTD SVG 1.1//EN" "http://www.w3.org/Graphics/SVG/1.1/DTD/svg11.dtd">
<svg version="1.1" xmlns="http://www.w3.org/2000/svg" xmlns:xlink="http://www.w3.org/1999/xlink" width="32" height="32" viewBox="0 0 32 32">
<path fill="#444444" d="M29.837 16.663c-0.97 1.182-2.218 2.057-3.611 2.571-0.5-1.906-2.228-3.315-4.291-3.315-0.568 0-1.104 0.116-1.602 0.311-0.264 0.103-0.521 0.223-0.759 0.373-0.641-1.667-2.252-2.852-4.144-2.852-0.072 0-0.143 0.010-0.214 0.013-0.238-0.779-0.368-1.604-0.368-2.46 0-3.069 1.67-5.901 4.359-7.394l2.584-1.433-2.937 0.327c-5.069 0.564-9.024 4.434-9.827 9.323-0.034-0.001-0.067-0.003-0.101-0.003-2.744 0-5.016 2.005-5.447 4.63-1.807 0.563-3.12 2.249-3.12 4.242 0 2.453 1.988 4.442 4.443 4.442 0.324 0 0.637-0.036 0.942-0.103 0.646 1.654 2.252 2.826 4.135 2.826 1.548 0 2.908-0.792 3.703-1.992 0.85 0.674 1.923 1.080 3.092 1.080 1.665 0 3.137-0.82 4.041-2.076 4.667-0.257 8.789-3.454 10.149-7.964l0.855-2.84-1.882 2.292zM16.333 4.649c-1.688 1.769-2.671 4.143-2.671 6.655 0 0.929 0.135 1.827 0.382 2.677-0.256 0.084-0.504 0.184-0.737 0.31-0.742-0.966-1.796-1.679-3.011-1.991-0.030-0.008-0.061-0.013-0.092-0.021 0.583-3.457 2.925-6.339 6.129-7.631zM25.271 20.737c-0.187 1.676-1.612 2.983-3.335 2.983-0.231 0-0.465-0.025-0.698-0.073l-0.777-0.164-0.39 0.692c-0.214 0.38-0.492 0.708-0.807 0.99-0.705 0.63-1.621 1.001-2.591 1.001-0.884 0-1.72-0.292-2.419-0.844l-0.925-0.734-0.652 0.985c-0.626 0.943-1.674 1.506-2.8 1.506-1.391 0-2.616-0.838-3.124-2.137l-0.337-0.86-0.903 0.196c-0.239 0.052-0.477 0.078-0.712 0.078-1.852 0-3.359-1.507-3.359-3.359 0-1.479 0.948-2.767 2.359-3.207l0.64-0.199 0.107-0.661c0.352-2.147 2.181-3.707 4.354-3.719 0.008 0 0.016-0.001 0.023-0.001 0.341 0 0.675 0.040 0.999 0.115 0.053 0.012 0.104 0.029 0.157 0.043 0.929 0.25 1.758 0.794 2.366 1.585l0.563 0.735 0.816-0.445c0.182-0.1 0.377-0.176 0.575-0.24 0.331-0.106 0.678-0.168 1.029-0.168 0.071 0 0.14 0.012 0.209 0.017 1.294 0.083 2.453 0.916 2.924 2.14l0.472 1.231 0.407-0.255 0.71-0.447c0.538-0.339 1.154-0.517 1.784-0.517 1.568 0 2.885 1.083 3.252 2.541 0.066 0.262 0.105 0.536 0.105 0.818 0 0.127-0.008 0.251-0.022 0.374zM26.041 22.055c0.206-0.5 0.322-1.046 0.332-1.618 0.772-0.259 1.51-0.61 2.192-1.056-0.673 1.043-1.534 1.948-2.524 2.674z"></path>
<path fill="#444444" d="M21.292 9.076l-1.236-2.1-0.234 2.425-2.378 0.528 2.249 1.040-0.219 2.493 1.613-1.833 2.23 0.952-1.245-2.136 1.598-1.897z"></path>
<path fill="#444444" d="M26.255 13.12l0.545 1.107 0.227-1.236 1.244-0.203-1.092-0.582 0.218-1.22-0.892 0.858-1.092-0.584 0.523 1.145-0.909 0.89z"></path>
</svg>
