<?xml version="1.0" encoding="utf-8"?>
<!-- Generated by IcoMoon.io -->
<!DOCTYPE svg PUBLIC "-//W3C//DTD SVG 1.1//EN" "http://www.w3.org/Graphics/SVG/1.1/DTD/svg11.dtd">
<svg version="1.1" xmlns="http://www.w3.org/2000/svg" xmlns:xlink="http://www.w3.org/1999/xlink" width="32" height="32" viewBox="0 0 32 32">
<path fill="#444444" d="M26.428 6.24c-1.054 0-2.042 0.309-2.876 0.834-0.775-2.027-2.728-3.478-5.044-3.478-0.931 0-1.823 0.245-2.584 0.663-1.224-1.607-3.157-2.643-5.336-2.643-3.341 0-6.11 2.443-6.624 5.643-2.209 0.682-3.804 2.738-3.804 5.166 0 2.986 2.427 5.402 5.413 5.402 0.389 0 0.775-0.035 1.145-0.124 0.789 2.011 2.739 3.436 5.029 3.436 1.886 0 3.542-0.961 4.509-2.417 1.042 0.831 2.344 1.304 3.767 1.304 2.262 0 4.241-1.241 5.289-3.095 0.368 0.088 0.74 0.122 1.116 0.122 2.996-0 5.412-2.416 5.412-5.402s-2.416-5.412-5.412-5.412zM26.428 15.659c-0.277 0-0.556-0.030-0.834-0.091l-0.995-0.215-0.519 0.897c-0.812 1.48-2.383 2.382-4.057 2.382-1.054 0-2.047-0.343-2.882-1.018l-1.204-0.935-0.849 1.27c-0.744 1.118-1.995 1.796-3.341 1.796-1.656 0-3.124-0.993-3.728-2.541l-0.434-1.124-1.163 0.261c-0.29 0.061-0.57 0.092-0.85 0.092-2.211 0-4.007-1.795-4.007-4.006 0-1.764 1.13-3.308 2.815-3.833l0.822-0.251 0.139-0.863c0.42-2.584 2.63-4.457 5.245-4.457 1.668 0 3.202 0.759 4.223 2.089l0.728 0.957 1.052-0.573c0.586-0.323 1.261-0.492 1.917-0.492 1.641 0 3.152 1.036 3.741 2.569l0.617 1.594 1.43-0.901c0.647-0.403 1.387-0.618 2.132-0.618 2.222 0 4.017 1.795 4.017 4.006s-1.795 4.006-4.017 4.006z"></path>
<path fill="#444444" d="M11.237 23.675c-0.062-0.095-0.202-0.127-0.31-0.067l-0.603 0.311 0.079-0.279c0.042-0.12-0.034-0.22-0.157-0.25s-0.248 0.033-0.279 0.131l-0.201 0.681-0.388 0.213 0.283-0.991c0.042-0.12-0.034-0.22-0.157-0.25s-0.248 0.033-0.279 0.152l-0.404 1.394-0.819 0.433v-0.866l1.115-1.021c0.092-0.089 0.091-0.216-0.001-0.305-0.092-0.068-0.232-0.068-0.324 0l-0.791 0.738v-0.426l0.543-0.497c0.092-0.068 0.091-0.216-0-0.284-0.092-0.089-0.232-0.089-0.323 0l-0.219 0.192v-0.623c0-0.121-0.23-0.214-0.354-0.214s-0.354 0.093-0.354 0.214v0.623l-0.107-0.192c-0.081-0.089-0.172-0.089-0.264 0-0.081 0.068-0.173 0.216-0.081 0.284l0.452 0.497v0.426l-0.68-0.738c-0.081-0.068-0.172-0.068-0.264 0-0.081 0.089-0.173 0.216-0.081 0.305l1.024 1.021v0.866l-0.698-0.433-0.354-1.394c-0.031-0.12-0.125-0.183-0.248-0.152s-0.184 0.13-0.142 0.25l0.296 0.991-0.387-0.213-0.2-0.681c-0.031-0.099-0.156-0.162-0.279-0.131s-0.199 0.13-0.157 0.25l0.079 0.279-0.603-0.311c-0.109-0.061-0.248-0.029-0.31 0.067s-0.029 0.241 0.080 0.28l0.602 0.333-0.309 0.066c-0.123 0.031-0.188 0.152-0.157 0.25 0.019 0.093 0.112 0.155 0.218 0.155 0.017 0 0.044-0.001 0.061-0.002l0.745-0.185 0.399 0.213-1.096 0.253c-0.123 0.031-0.188 0.152-0.156 0.271 0.030 0.093 0.112 0.155 0.218 0.155 0.016 0 0.044-0.001 0.061-0.024l1.532-0.372 0.82 0.432-0.82 0.433-1.532-0.372c-0.124-0.031-0.248 0.033-0.279 0.152s0.033 0.219 0.156 0.25l1.096 0.275-0.399 0.192-0.745-0.163c-0.123-0.031-0.247 0.032-0.279 0.131-0.031 0.12 0.034 0.241 0.157 0.271l0.309 0.066-0.602 0.311c-0.109 0.061-0.142 0.186-0.080 0.281 0.045 0.085 0.122 0.118 0.2 0.118 0.033 0 0.077-0.003 0.11-0.030l0.603-0.311-0.079 0.279c-0.042 0.098 0.034 0.22 0.157 0.25 0.017 0.002 0.044 0.003 0.061 0.003 0.095 0 0.188-0.062 0.218-0.155l0.201-0.681 0.388-0.192-0.283 0.991c-0.042 0.099 0.034 0.219 0.157 0.25 0.017 0.001 0.044 0.002 0.061 0.002 0.096 0 0.188-0.062 0.218-0.155l0.293-1.394 0.698-0.433v0.865l-0.994 1.022c-0.092 0.089-0.031 0.216 0.050 0.304 0.046 0.034 0.137 0.040 0.198 0.040s0.015-0.006 0.050-0.040l0.695-0.737v0.405l-0.432 0.497c-0.081 0.089-0.020 0.216 0.061 0.305 0.046 0.034 0.137 0.062 0.198 0.062s0.015-0.028 0.061-0.062l0.112-0.213v0.644c0 0.121 0.23 0.214 0.354 0.214s0.354-0.093 0.354-0.214v-0.644l0.218 0.213c0.046 0.034 0.107 0.062 0.157 0.062 0.061 0 0.122-0.028 0.167-0.062 0.092-0.089 0.093-0.216 0.001-0.305l-0.543-0.497v-0.405l0.791 0.737c0.046 0.034 0.106 0.040 0.156 0.040 0.061 0 0.121-0.006 0.168-0.040 0.092-0.089 0.092-0.216 0.001-0.304l-1.115-1.022v-0.865l0.819 0.433 0.404 1.394c0.030 0.093 0.122 0.155 0.218 0.155 0.017 0 0.044-0.001 0.061-0.002 0.123-0.031 0.199-0.152 0.157-0.25l-0.283-1.012 0.388 0.213 0.201 0.682c0.030 0.093 0.122 0.155 0.218 0.155 0.017 0 0.044-0.001 0.061-0.003 0.123-0.030 0.199-0.152 0.157-0.25l-0.079-0.279 0.603 0.311c0.032 0.027 0.077 0.030 0.11 0.030 0.078 0 0.155-0.033 0.2-0.118 0.062-0.095 0.029-0.22-0.079-0.281l-0.603-0.311 0.309-0.066c0.123-0.031 0.188-0.152 0.157-0.271-0.032-0.099-0.156-0.162-0.279-0.131l-0.745 0.163-0.399-0.192 1.096-0.275c0.124-0.031 0.188-0.13 0.157-0.25s-0.156-0.183-0.279-0.152l-1.532 0.372-0.82-0.433 0.82-0.432 1.532 0.372c0.017 0.023 0.044 0.024 0.061 0.024 0.106 0 0.199-0.062 0.218-0.155 0.031-0.12-0.034-0.241-0.157-0.272l-1.096-0.253 0.399-0.213 0.745 0.185c0.017 0.001 0.044 0.002 0.061 0.002 0.106 0 0.199-0.062 0.218-0.155 0.031-0.098-0.034-0.219-0.157-0.25l-0.309-0.066 0.603-0.333c0.109-0.039 0.141-0.185 0.079-0.28z"></path>
<path fill="#444444" d="M28.903 24.883c-0.062-0.095-0.191-0.127-0.31-0.067l-0.592 0.312 0.068-0.279c0.031-0.12-0.034-0.22-0.157-0.25s-0.248 0.033-0.279 0.152l-0.19 0.682-0.399 0.192 0.283-0.991c0.032-0.099-0.034-0.22-0.157-0.25s-0.248 0.032-0.279 0.152l-0.468 1.394-0.894 0.432v-0.865l1.18-1.022c0.092-0.089 0.123-0.216 0.032-0.305-0.070-0.068-0.28-0.068-0.372 0l-0.839 0.738v-0.405l0.618-0.518c0.092-0.068 0.123-0.216 0.032-0.284-0.092-0.089-0.28-0.089-0.372 0l-0.277 0.192v-0.623c0-0.121-0.219-0.214-0.343-0.214s-0.365 0.093-0.365 0.214v0.623l-0.033-0.192c-0.092-0.089-0.129-0.089-0.221 0-0.091 0.068-0.242 0.216-0.15 0.284l0.404 0.518v0.405l-0.594-0.738c-0.092-0.068-0.15-0.068-0.242 0-0.091 0.089-0.221 0.216-0.129 0.305l0.966 1.022v0.865l-0.623-0.432-0.312-1.394c-0.031-0.12-0.12-0.183-0.243-0.152s-0.16 0.151-0.128 0.25l0.307 0.991-0.397-0.192-0.189-0.682c-0.031-0.12-0.155-0.183-0.279-0.152s-0.209 0.13-0.178 0.25l0.090 0.279-0.592-0.312c-0.119-0.061-0.248-0.029-0.31 0.067-0.062 0.116-0.029 0.241 0.069 0.302l0.613 0.312-0.309 0.066c-0.123 0.031-0.188 0.152-0.157 0.271 0.009 0.093 0.101 0.155 0.218 0.155 0.006 0 0.034-0.022 0.061-0.023l0.745-0.185 0.377 0.213-1.085 0.274c-0.123 0.030-0.189 0.13-0.157 0.25 0.030 0.093 0.123 0.155 0.218 0.155 0.027 0 0.034-0.001 0.061-0.003l1.542-0.372 0.81 0.432-0.81 0.412-1.542-0.372c-0.123-0.031-0.248 0.054-0.279 0.153-0.032 0.12 0.034 0.219 0.157 0.25l1.085 0.275-0.377 0.213-0.745-0.185c-0.123-0.031-0.247 0.032-0.279 0.152-0.031 0.098 0.034 0.219 0.157 0.25l0.309 0.066-0.613 0.312c-0.098 0.061-0.131 0.185-0.069 0.302 0.035 0.063 0.101 0.096 0.19 0.096 0.033 0 0.088-0.003 0.121-0.030l0.592-0.312-0.089 0.279c-0.031 0.12 0.055 0.219 0.178 0.25 0.006 0.002 0.034 0.003 0.061 0.003 0.095 0 0.188-0.062 0.218-0.155l0.19-0.681 0.399-0.192-0.304 0.991c-0.032 0.099 0.055 0.219 0.178 0.25 0.006 0.002 0.034 0.002 0.061 0.002 0.095 0 0.188-0.062 0.218-0.155l0.218-1.394 0.623-0.433v0.866l-0.93 1.021c-0.092 0.089 0.002 0.216 0.093 0.305 0.057 0.034 0.154 0.062 0.215 0.062s-0.057-0.028-0.001-0.062l0.623-0.738v0.405l-0.347 0.518c-0.092 0.068 0.002 0.216 0.093 0.284 0.035 0.055 0.154 0.062 0.193 0.062 0.061 0-0.036-0.006-0.001-0.062l0.061-0.192v0.623c0 0.121 0.24 0.214 0.365 0.214s0.343-0.093 0.343-0.214v-0.623l0.283 0.192c0.057 0.055 0.149 0.062 0.21 0.062s0.127-0.006 0.184-0.062c0.071-0.068 0.031-0.216-0.061-0.284l-0.615-0.497v-0.426l0.866 0.738c0.035 0.034 0.128 0.062 0.188 0.062s0.148-0.028 0.184-0.062c0.092-0.089 0.030-0.216-0.061-0.305l-1.177-1.021v-0.866l0.894 0.433 0.436 1.394c0.030 0.093 0.128 0.155 0.245 0.155 0.006 0 0.036-0.001 0.063-0.002 0.123-0.031 0.19-0.152 0.158-0.25l-0.282-0.991 0.399 0.192 0.19 0.682c0.030 0.093 0.123 0.155 0.218 0.155 0.027 0 0.055-0.001 0.062-0.003 0.123-0.030 0.188-0.13 0.157-0.25l-0.068-0.279 0.592 0.312c0.033 0.027 0.087 0.030 0.121 0.030 0.068 0 0.155-0.033 0.19-0.096 0.063-0.116 0.030-0.241-0.068-0.302l-0.613-0.312 0.309-0.066c0.123-0.030 0.188-0.152 0.157-0.25-0.032-0.12-0.156-0.183-0.279-0.152l-0.745 0.185-0.398-0.213 1.106-0.275c0.123-0.031 0.188-0.131 0.157-0.25-0.031-0.099-0.156-0.183-0.279-0.153l-1.542 0.372-0.809-0.412 0.809-0.432 1.542 0.372c0.006 0.002 0.034 0.003 0.061 0.003 0.095 0 0.188-0.062 0.218-0.155 0.031-0.12-0.034-0.22-0.157-0.25l-1.106-0.274 0.398-0.213 0.745 0.185c0.027 0.002 0.055 0.023 0.061 0.023 0.096 0 0.188-0.062 0.218-0.155 0.031-0.12-0.034-0.241-0.157-0.271l-0.309-0.066 0.613-0.312c0.098-0.060 0.131-0.186 0.068-0.301z"></path>
<path fill="#444444" d="M19.339 22.281c-0.034-0.063-0.125-0.090-0.211-0.037l-0.375 0.191 0.059-0.184c0.006-0.065-0.029-0.13-0.117-0.157-0.067-0.027-0.156 0.029-0.162 0.093l-0.146 0.434-0.248 0.126 0.185-0.623c0.028-0.065-0.008-0.151-0.096-0.157-0.067-0.027-0.156 0.008-0.183 0.093l-0.34 0.873-0.592 0.277v-0.533l0.8-0.671c0.039-0.037 0.093-0.128 0.033-0.186-0.060-0.037-0.214-0.037-0.274 0l-0.559 0.464v-0.252l0.431-0.312c0.061-0.059 0.094-0.149 0.033-0.186-0.060-0.059-0.214-0.059-0.252 0l-0.212 0.126v-0.403c0-0.087 0.089-0.148 0-0.148s0 0.061 0 0.148v0.403l-0.215-0.126c-0.060-0.059-0.185-0.059-0.245 0-0.039 0.037-0.002 0.128 0.058 0.186l0.402 0.312v0.252l-0.584-0.464c-0.039-0.037-0.183-0.037-0.228 0-0.057 0.059-0.016 0.149 0.043 0.186l0.768 0.671v0.533l-0.588-0.277-0.299-0.873c-0.020-0.086-0.117-0.12-0.194-0.093-0.077 0.006-0.126 0.092-0.109 0.157l0.184 0.623-0.259-0.126-0.125-0.434c-0.017-0.065-0.096-0.12-0.184-0.093-0.077 0.027-0.113 0.093-0.096 0.157l0.048 0.184-0.375-0.191c-0.075-0.054-0.167-0.026-0.2 0.037-0.044 0.063-0.016 0.152 0.049 0.184l0.385 0.19-0.2 0.057c-0.077 0.027-0.124 0.092-0.107 0.157 0.027 0.061 0.077 0.095 0.151 0.095 0.004 0 0.018-0 0.033-0.001l0.479-0.1 0.248 0.126-0.696 0.159c-0.077 0.027-0.124 0.093-0.106 0.157 0.027 0.061 0.077 0.116 0.15 0.116 0.004 0 0.019-0.001 0.033-0.002l0.974-0.244 0.525 0.277-0.525 0.277-0.974-0.245c-0.078-0.027-0.156 0.029-0.183 0.093-0.017 0.065 0.029 0.151 0.106 0.157l0.696 0.18-0.248 0.126-0.479-0.121c-0.077-0.006-0.156 0.028-0.184 0.093-0.017 0.065 0.029 0.151 0.107 0.157l0.2 0.057-0.385 0.191c-0.064 0.054-0.093 0.122-0.049 0.184 0.019 0.056 0.066 0.085 0.124 0.085 0.019 0 0.048-0.023 0.076-0.027l0.375-0.212-0.048 0.184c-0.028 0.065 0.019 0.151 0.096 0.157 0.015 0.022 0.029 0.023 0.044 0.023 0.063 0 0.124-0.055 0.14-0.116l0.125-0.434 0.248-0.126-0.186 0.643c-0.017 0.065 0.029 0.13 0.107 0.158 0.015 0.001 0.029 0.001 0.033 0.001 0.073 0 0.125-0.033 0.147-0.095l0.329-0.895 0.588-0.277v0.555l-0.779 0.65c-0.057 0.059-0.089 0.128-0.033 0.187 0.031 0.029 0.040 0.033 0.075 0.033 0.052 0 0.147-0.004 0.177-0.033l0.56-0.464v0.273l-0.407 0.312c-0.060 0.037-0.092 0.128-0.053 0.186 0.030 0.030 0.058 0.034 0.091 0.034s0.148-0.004 0.157-0.034l0.212-0.126v0.403c0 0.065-0.089 0.126 0 0.126s0-0.061 0-0.126v-0.403l0.218 0.126c0.030 0.030 0.118 0.034 0.151 0.034s0.093-0.004 0.123-0.034c0.039-0.059-0.025-0.149-0.085-0.186l-0.407-0.312v-0.273l0.587 0.464c0.030 0.029 0.096 0.033 0.129 0.033 0.054 0 0.115-0.004 0.124-0.033 0.060-0.059-0.004-0.128-0.064-0.187l-0.776-0.65v-0.555l0.592 0.277 0.306 0.895c0.027 0.061 0.094 0.095 0.157 0.095 0.025 0 0.032-0 0.057-0.001 0.067-0.027 0.125-0.093 0.097-0.158l-0.185-0.644 0.248 0.126 0.147 0.434c0.005 0.061 0.066 0.116 0.129 0.116 0.025 0 0.029-0.001 0.034-0.023 0.088-0.006 0.123-0.092 0.117-0.157l-0.059-0.184 0.375 0.212c0.028 0.004 0.057 0.027 0.087 0.027 0.037 0 0.095-0.029 0.124-0.085 0.034-0.063 0.005-0.13-0.059-0.184l-0.375-0.191 0.189-0.057c0.088-0.006 0.123-0.093 0.096-0.157-0.006-0.065-0.095-0.099-0.162-0.093l-0.49 0.121-0.248-0.126 0.706-0.18c0.067-0.006 0.124-0.092 0.096-0.157s-0.095-0.12-0.184-0.093l-0.964 0.245-0.525-0.277 0.525-0.277 0.964 0.244c0.025 0.001 0.029 0.002 0.033 0.002 0.063 0 0.124-0.055 0.15-0.095 0.028-0.086-0.029-0.151-0.096-0.179l-0.706-0.159 0.248-0.126 0.49 0.1c0.004 0.001 0.008 0.001 0.033 0.001 0.063 0 0.124-0.034 0.129-0.095 0.028-0.065-0.008-0.13-0.096-0.157l-0.189-0.057 0.375-0.19c0.064-0.033 0.093-0.122 0.059-0.184z"></path>
</svg>
