<?xml version="1.0" encoding="utf-8"?>
<!-- Generated by IcoMoon.io -->
<!DOCTYPE svg PUBLIC "-//W3C//DTD SVG 1.1//EN" "http://www.w3.org/Graphics/SVG/1.1/DTD/svg11.dtd">
<svg version="1.1" xmlns="http://www.w3.org/2000/svg" xmlns:xlink="http://www.w3.org/1999/xlink" width="32" height="32" viewBox="0 0 32 32">
<path fill="#444444" d="M21.532 5.979l-1.101-1.869-0.208 2.158-2.116 0.47 2.001 0.926-0.194 2.219 1.435-1.632 1.985 0.847-1.108-1.901 1.421-1.688z"></path>
<path fill="#444444" d="M25.95 9.579l0.485 0.985 0.202-1.1 1.107-0.181-0.972-0.518 0.194-1.086-0.794 0.764-0.973-0.519 0.466 1.019-0.809 0.792z"></path>
<path fill="#444444" d="M4.169 29.879c-0.423 0.423-0.422 1.107 0 1.529s1.107 0.421 1.528 0c0.421-0.423 4.041-5.469 4.296-5.825-0.356 0.255-5.403 3.875-5.824 4.296z"></path>
<path fill="#444444" d="M8.838 29.804c-0.498 0.498-0.497 1.305 0 1.802 0.497 0.499 1.306 0.499 1.802 0 0.497-0.497 4.766-6.449 5.066-6.869-0.419 0.301-6.371 4.569-6.868 5.067z"></path>
<path fill="#444444" d="M14.51 28.853c-0.372 0.372-0.372 0.976 0 1.349 0.373 0.372 0.977 0.371 1.349 0 0.372-0.373 3.566-4.826 3.791-5.139-0.316 0.225-4.767 3.418-5.14 3.79z"></path>
<path fill="#444444" d="M2.531 26.584c-0.263 0.264-0.263 0.69 0 0.953s0.689 0.263 0.952 0c0.263-0.263 2.517-3.406 2.675-3.629-0.221 0.159-3.364 2.413-3.627 2.676z"></path>
<path fill="#444444" d="M19.253 30.053c0.263 0.263 0.69 0.263 0.952 0 0.263-0.262 2.518-3.406 2.676-3.628-0.222 0.158-3.365 2.413-3.629 2.675-0.263 0.264-0.263 0.69 0 0.952z"></path>
<path fill="#444444" d="M30.813 10.693l-1.676 2.040c-0.39 0.475-0.835 0.887-1.316 1.244-0.854-1.132-2.187-1.866-3.689-1.866-0.761 0-1.51 0.192-2.183 0.559-0.761-1.654-2.415-2.743-4.216-2.743-0.539 0-1.074 0.1-1.58 0.285-0.226-0.711-0.36-1.464-0.36-2.249 0-2.732 1.487-5.253 3.88-6.582l2.3-1.275-2.614 0.291c-4.383 0.487-7.816 3.757-8.664 7.933-2.472 0.281-4.491 2.157-4.971 4.693-1.863 0.673-3.103 2.456-3.103 4.493 0 2.628 2.090 4.765 4.66 4.765 0.248 0 0.499-0.022 0.748-0.063 0.753 1.713 2.394 2.807 4.244 2.807 1.463 0 2.828-0.698 3.708-1.882 0.876 0.63 1.899 0.962 2.976 0.962 1.8 0 3.475-0.962 4.419-2.527 0.252 0.042 0.505 0.064 0.756 0.064 2.569 0 4.658-2.137 4.658-4.764 0-0.31-0.031-0.611-0.086-0.904 0.578-0.832 1.045-1.751 1.346-2.752l0.762-2.527zM17.117 2.039c-1.503 1.575-2.378 3.688-2.378 5.924 0 0.551 0.060 1.087 0.163 1.608-0.893-0.733-1.977-1.17-3.135-1.258 0.655-2.844 2.66-5.189 5.35-6.275zM24.133 20.259c-0.228 0-0.458-0.025-0.685-0.074l-0.765-0.165-0.384 0.698c-0.681 1.236-1.961 2.004-3.341 2.004-0.871 0-1.694-0.295-2.379-0.851l-0.91-0.739-0.641 0.991c-0.615 0.951-1.644 1.518-2.754 1.518-1.367 0-2.573-0.844-3.073-2.152l-0.331-0.867-0.887 0.198c-0.235 0.052-0.47 0.078-0.701 0.078-1.821 0-3.302-1.518-3.302-3.383 0-1.489 0.932-2.787 2.319-3.23l0.629-0.201 0.106-0.665c0.348-2.171 2.158-3.747 4.305-3.747 1.364 0 2.625 0.64 3.463 1.756l0.555 0.741 0.8-0.448c0.481-0.268 1.027-0.411 1.578-0.411 1.355 0 2.593 0.873 3.080 2.172l0.465 1.24 1.099-0.708c0.528-0.341 1.135-0.521 1.754-0.521 1.82 0 3.302 1.517 3.302 3.383 0 1.864-1.481 3.382-3.302 3.382z"></path>
</svg>
