<?xml version="1.0" encoding="utf-8"?>
<!-- Generated by IcoMoon.io -->
<!DOCTYPE svg PUBLIC "-//W3C//DTD SVG 1.1//EN" "http://www.w3.org/Graphics/SVG/1.1/DTD/svg11.dtd">
<svg version="1.1" xmlns="http://www.w3.org/2000/svg" xmlns:xlink="http://www.w3.org/1999/xlink" width="32" height="32" viewBox="0 0 32 32">
<path fill="#444444" d="M19.964 10.030l-1.386-2.355-0.262 2.718-2.665 0.592 2.52 1.167-0.245 2.796 1.808-2.057 2.501 1.068-1.396-2.393 1.792-2.127z"></path>
<path fill="#444444" d="M25.529 14.564l0.61 1.241 0.255-1.385 1.395-0.228-1.225-0.652 0.246-1.368-1.001 0.963-1.224-0.656 0.585 1.284-1.018 0.999z"></path>
<path fill="#444444" d="M29.544 18.536c-1.128 1.374-2.59 2.383-4.223 2.948 0.058-0.279 0.087-0.568 0.087-0.863 0-2.369-1.92-4.287-4.288-4.287-0.547 0-1.063 0.111-1.546 0.3-0.256 0.099-0.505 0.216-0.732 0.358-0.621-1.609-2.175-2.751-4.002-2.751-0.667 0-1.296 0.152-1.858 0.423-0.158-0.687-0.243-1.401-0.243-2.135 0-3.44 1.872-6.615 4.887-8.289l2.896-1.606-3.293 0.366c-5.593 0.622-9.979 4.836-10.974 10.196-1.537 0.74-2.665 2.201-2.95 3.942-1.744 0.543-3.010 2.17-3.010 4.095 0 2.368 1.919 4.29 4.287 4.29 0.313 0 0.618-0.038 0.911-0.1 0.624 1.596 2.173 2.728 3.99 2.728 1.309 0 2.478-0.585 3.264-1.509 1.759 0.935 3.764 1.466 5.892 1.466 5.508 0 10.467-3.682 12.057-8.956l0.959-3.185-2.109 2.57zM14.403 5.068c-1.894 1.983-2.994 4.643-2.994 7.46 0 0.337 0.016 0.672 0.047 1-0.478-0.308-1.006-0.543-1.572-0.688-0.424-0.109-0.865-0.171-1.324-0.171-0.288 0-0.573 0.024-0.847 0.069 0.878-3.479 3.375-6.332 6.689-7.671zM13.706 25.407l-0.893-0.709-0.213 0.322-0.415 0.629c-0.108 0.162-0.23 0.311-0.361 0.452-0.608 0.635-1.449 1.002-2.343 1.002-1.344 0-2.525-0.809-3.015-2.062l-0.325-0.832-0.872 0.188c-0.232 0.052-0.461 0.079-0.689 0.079-1.787 0-3.241-1.456-3.241-3.244 0-1.427 0.917-2.671 2.277-3.095l0.617-0.193 0.103-0.638c0.191-1.172 0.84-2.163 1.745-2.805 0.421-0.298 0.897-0.521 1.409-0.651 0.343-0.088 0.702-0.136 1.070-0.136 0.331 0 0.652 0.041 0.965 0.109 0.841 0.196 1.603 0.639 2.195 1.287 0.085 0.092 0.164 0.186 0.241 0.286l0.545 0.709 0.786-0.428c0.471-0.256 1.006-0.391 1.548-0.391 1.331 0 2.544 0.836 3.024 2.080l0.458 1.19 0.391-0.247 0.686-0.43c0.518-0.329 1.113-0.5 1.72-0.5 1.787 0 3.243 1.454 3.243 3.242 0 0.42-0.081 0.82-0.226 1.188-0.244 0.613-0.668 1.135-1.208 1.5-0.517 0.349-1.139 0.553-1.81 0.553-0.222 0-0.448-0.024-0.671-0.070l-0.75-0.157-0.378 0.666c-0.668 1.183-1.925 1.921-3.282 1.921-0.851-0-1.657-0.28-2.333-0.815zM18.637 26.778c-0.153 0-0.305-0.005-0.456-0.010 0.863-0.432 1.58-1.115 2.050-1.953 0.288 0.060 0.582 0.094 0.888 0.094 1.463 0 2.753-0.733 3.529-1.852 1.238-0.283 2.412-0.781 3.47-1.475-2.041 3.162-5.609 5.196-9.482 5.196z"></path>
</svg>
