<?xml version="1.0" encoding="utf-8"?>
<!-- Generated by IcoMoon.io -->
<!DOCTYPE svg PUBLIC "-//W3C//DTD SVG 1.1//EN" "http://www.w3.org/Graphics/SVG/1.1/DTD/svg11.dtd">
<svg version="1.1" xmlns="http://www.w3.org/2000/svg" xmlns:xlink="http://www.w3.org/1999/xlink" width="32" height="32" viewBox="0 0 32 32">
<path fill="#444444" d="M15.952 6.355c0.38 0 0.69-0.31 0.69-0.69v-4.821c0-0.381-0.31-0.69-0.69-0.69s-0.689 0.309-0.689 0.69v4.821c0 0.38 0.308 0.69 0.689 0.69z"></path>
<path fill="#444444" d="M10.187 7.395c0.191 0.33 0.612 0.443 0.942 0.251 0.328-0.189 0.441-0.61 0.252-0.942l-2.412-4.175c-0.19-0.331-0.612-0.443-0.941-0.252-0.33 0.19-0.443 0.611-0.253 0.941l2.411 4.177z"></path>
<path fill="#444444" d="M7.345 10.238l-4.176-2.413c-0.329-0.19-0.75-0.077-0.94 0.251-0.19 0.331-0.077 0.753 0.251 0.942l4.176 2.411c0.331 0.192 0.752 0.079 0.943-0.251 0.189-0.33 0.077-0.751-0.254-0.94z"></path>
<path fill="#444444" d="M6.306 15.998c-0.001-0.379-0.309-0.688-0.689-0.688h-4.823c-0.38 0-0.689 0.308-0.689 0.688s0.309 0.69 0.689 0.69h4.823c0.38 0 0.689-0.309 0.689-0.69z"></path>
<path fill="#444444" d="M6.656 20.571l-4.175 2.412c-0.33 0.189-0.443 0.61-0.253 0.94 0.191 0.33 0.612 0.443 0.941 0.254l4.176-2.412c0.33-0.192 0.443-0.613 0.254-0.943-0.192-0.33-0.612-0.443-0.943-0.252z"></path>
<path fill="#444444" d="M11.13 24.354c-0.33-0.189-0.752-0.079-0.942 0.252l-2.411 4.175c-0.19 0.329-0.078 0.752 0.251 0.941 0.33 0.191 0.752 0.079 0.941-0.25l2.412-4.177c0.189-0.332 0.077-0.752-0.252-0.941z"></path>
<path fill="#444444" d="M15.952 25.646c-0.38 0.001-0.689 0.309-0.689 0.69v4.822c0 0.38 0.308 0.69 0.689 0.69s0.69-0.309 0.69-0.688v-4.823c-0.001-0.38-0.31-0.689-0.69-0.69z"></path>
<path fill="#444444" d="M21.717 24.607c-0.191-0.33-0.613-0.443-0.942-0.252s-0.442 0.61-0.252 0.941l2.411 4.175c0.19 0.331 0.612 0.443 0.941 0.252 0.33-0.189 0.443-0.612 0.254-0.94l-2.412-4.176z"></path>
<path fill="#444444" d="M29.424 22.983l-4.176-2.412c-0.331-0.188-0.753-0.077-0.943 0.252-0.189 0.329-0.076 0.751 0.255 0.943l4.174 2.408c0.33 0.192 0.752 0.078 0.942-0.25 0.191-0.332 0.078-0.753-0.251-0.942z"></path>
<path fill="#444444" d="M31.11 15.31h-4.822c-0.381 0-0.69 0.311-0.691 0.69 0.002 0.38 0.309 0.688 0.691 0.688h4.82c0.382 0 0.69-0.309 0.69-0.688 0-0.38-0.308-0.69-0.688-0.69z"></path>
<path fill="#444444" d="M25.248 11.428l4.175-2.41c0.331-0.19 0.444-0.611 0.252-0.941-0.189-0.33-0.611-0.443-0.94-0.253l-4.175 2.41c-0.33 0.191-0.443 0.614-0.253 0.944s0.611 0.442 0.942 0.25z"></path>
<path fill="#444444" d="M20.774 7.647c0.33 0.189 0.751 0.077 0.942-0.254l2.409-4.175c0.192-0.33 0.078-0.752-0.252-0.941-0.328-0.191-0.75-0.079-0.94 0.251l-2.411 4.176c-0.189 0.331-0.077 0.752 0.252 0.943z"></path>
<path fill="#444444" d="M15.952 9.11c-3.804 0-6.889 3.085-6.889 6.89s3.085 6.889 6.889 6.889c3.805 0 6.89-3.085 6.89-6.889s-3.085-6.89-6.89-6.89zM15.952 21.512c-3.039 0-5.511-2.472-5.511-5.511 0-3.040 2.472-5.513 5.511-5.513s5.512 2.473 5.512 5.513c0 3.039-2.473 5.511-5.512 5.511z"></path>
</svg>
