<?xml version="1.0" encoding="utf-8"?>
<!-- Generated by IcoMoon.io -->
<!DOCTYPE svg PUBLIC "-//W3C//DTD SVG 1.1//EN" "http://www.w3.org/Graphics/SVG/1.1/DTD/svg11.dtd">
<svg version="1.1" xmlns="http://www.w3.org/2000/svg" xmlns:xlink="http://www.w3.org/1999/xlink" width="32" height="32" viewBox="0 0 32 32">
<path fill="#444444" d="M29.216 19.837c-2.241 2.732-5.551 4.296-9.079 4.296-6.474 0-11.742-5.267-11.742-11.741 0-4.263 2.32-8.197 6.054-10.27l3.589-1.99-4.080 0.454c-7.903 0.879-13.863 7.544-13.863 15.502 0 8.605 7 15.606 15.607 15.606 6.826 0 12.969-4.563 14.939-11.098l1.189-3.944-2.614 3.184zM15.702 30.047c-7.697 0-13.96-6.26-13.96-13.959 0-5.817 3.558-10.86 8.716-12.94-2.346 2.457-3.71 5.754-3.71 9.245 0 7.381 6.007 13.388 13.39 13.388 2.636 0 5.164-0.764 7.313-2.169-2.527 3.917-6.949 6.436-11.748 6.436z"></path>
<path fill="#444444" d="M17.346 9.297l-1.718-2.917-0.325 3.368-3.302 0.733 3.124 1.444-0.304 3.463 2.24-2.546 3.097 1.322-1.728-2.966 2.219-2.635z"></path>
<path fill="#444444" d="M24.24 14.915l0.756 1.537 0.316-1.717 1.728-0.282-1.517-0.809 0.302-1.695-1.238 1.192-1.518-0.81 0.727 1.59-1.262 1.236z"></path>
</svg>
