<?xml version="1.0" encoding="utf-8"?>
<!-- Generated by IcoMoon.io -->
<!DOCTYPE svg PUBLIC "-//W3C//DTD SVG 1.1//EN" "http://www.w3.org/Graphics/SVG/1.1/DTD/svg11.dtd">
<svg version="1.1" xmlns="http://www.w3.org/2000/svg" xmlns:xlink="http://www.w3.org/1999/xlink" width="32" height="32" viewBox="0 0 32 32">
<path fill="#444444" d="M19.098 5.811c0.34 0.072 0.676-0.166 0.761-0.508l0.802-4.406c0.063-0.343-0.157-0.678-0.518-0.744-0.34-0.067-0.677 0.162-0.739 0.511l-0.825 4.408c-0.062 0.342 0.178 0.677 0.518 0.739z"></path>
<path fill="#444444" d="M13.661 5.781c0.121 0.336 0.477 0.517 0.814 0.395 0.335-0.121 0.505-0.488 0.395-0.822l-1.499-4.216c-0.111-0.336-0.477-0.507-0.813-0.393-0.335 0.118-0.506 0.485-0.396 0.818l1.498 4.218z"></path>
<path fill="#444444" d="M9.754 8.872c0.264 0.23 0.675 0.198 0.905-0.074 0.23-0.264 0.188-0.673-0.075-0.903l-3.401-2.911c-0.273-0.229-0.673-0.199-0.904 0.074-0.229 0.263-0.198 0.673 0.064 0.903l3.411 2.911z"></path>
<path fill="#444444" d="M31.345 9.715c-0.12-0.336-0.488-0.506-0.823-0.385l-4.225 1.488c-0.336 0.121-0.496 0.489-0.396 0.814 0.12 0.335 0.487 0.516 0.824 0.395l4.225-1.498c0.336-0.11 0.505-0.477 0.395-0.813z"></path>
<path fill="#444444" d="M24.183 7.74l2.91-3.401c0.241-0.273 0.21-0.674-0.064-0.903s-0.673-0.199-0.913 0.068l-2.91 3.408c-0.219 0.271-0.189 0.674 0.085 0.903 0.272 0.229 0.674 0.198 0.892-0.075z"></path>
<path fill="#444444" d="M25.439 16.103c-0.672 0-1.29 0.139-1.875 0.367 0.065-0.217 0.156-0.444 0.19-0.676 0.644-3.476-1.652-6.815-5.116-7.459-2.906-0.548-5.68 0.98-6.906 3.509-0.52-0.136-1.057-0.212-1.621-0.212-3.231 0-5.91 2.37-6.417 5.455-2.128 0.668-3.675 2.657-3.675 4.993 0 2.903 2.343 5.236 5.235 5.236 0.383 0 0.752-0.036 1.112-0.122 0.757 1.956 2.654 3.335 4.863 3.335 1.834 0 3.43-0.924 4.375-2.344 0.99 0.786 2.266 1.272 3.644 1.272 2.182 0 4.106-1.199 5.115-3.001 0.341 0.087 0.706 0.121 1.076 0.121 2.885 0 5.236-2.354 5.236-5.236-0-2.883-2.352-5.236-5.236-5.236zM25.439 25.291c-0.274 0-0.55-0.030-0.825-0.089l-0.917-0.187-0.459 0.823c-0.803 1.441-2.335 2.333-3.989 2.333-1.041 0-2.023-0.339-2.854-0.985l-1.093-0.86-0.766 1.149c-0.736 1.119-1.975 1.769-3.306 1.769-1.633 0-3.079-0.983-3.676-2.514l-0.398-1.012-1.060 0.241c-0.288 0.061-0.565 0.093-0.841 0.093-2.183 0-3.954-1.776-3.954-3.973 0-1.724 1.119-3.252 2.776-3.772l0.751-0.242 0.125-0.77c0.422-2.541 2.586-4.38 5.158-4.38 0.41 0 0.796 0.047 1.179 0.136 1.166 0.264 2.219 0.935 2.972 1.916l0.671 0.86 0.953-0.521c0.58-0.308 1.226-0.476 1.896-0.476 1.623 0 3.097 1.025 3.68 2.533l0.575 1.463 0.465-0.305 0.851-0.522c0.619-0.399 1.352-0.612 2.089-0.612 2.177 0 3.953 1.776 3.953 3.953-0 2.176-1.776 3.951-3.954 3.951z"></path>
</svg>
