<?xml version="1.0" encoding="utf-8"?>
<!-- Generated by IcoMoon.io -->
<!DOCTYPE svg PUBLIC "-//W3C//DTD SVG 1.1//EN" "http://www.w3.org/Graphics/SVG/1.1/DTD/svg11.dtd">
<svg version="1.1" xmlns="http://www.w3.org/2000/svg" xmlns:xlink="http://www.w3.org/1999/xlink" width="32" height="32" viewBox="0 0 32 32">
<path fill="#444444" d="M13.876 26.426l-4.902-4.209 3.772-3.59-1.168-0.026-5.333 3.481 5.366 5.115-4.152 2.71 1.169 1.308 5.333-4.763-0.111-0.003z"></path>
<path fill="#444444" d="M20.998 27.124l0.029-0.024-4.903-4.209 3.772-3.589-1.168-0.027-5.333 3.482 5.367 5.115-4.152 2.711 1.168 1.308 5.333-4.763z"></path>
<path fill="#444444" d="M24.281 4.91c-0.162-0.259-0.523-0.347-0.806-0.198l-1.554 0.815 0.215-0.723c0.082-0.287-0.103-0.583-0.418-0.66-0.316-0.077-0.639 0.096-0.724 0.382l-0.518 1.764-1.011 0.531 0.754-2.564c0.085-0.288-0.103-0.584-0.418-0.66-0.314-0.077-0.64 0.094-0.724 0.38l-1.053 3.606-2.11 1.116v-2.231l2.888-2.64c0.23-0.211 0.226-0.551-0.005-0.763-0.23-0.209-0.6-0.209-0.831 0l-2.053 1.879v-1.061l1.407-1.293c0.234-0.212 0.228-0.554-0.004-0.763-0.229-0.21-0.596-0.21-0.827 0l-0.576 0.53v-1.633c0-0.298-0.58-0.538-0.906-0.538-0.325 0-0.905 0.24-0.905 0.538v1.633l-0.273-0.53c-0.233-0.21-0.453-0.21-0.686 0-0.229 0.208-0.46 0.55-0.229 0.763l1.188 1.293v1.061l-1.752-1.879c-0.231-0.209-0.453-0.209-0.685 0-0.228 0.212-0.46 0.552-0.228 0.763l2.665 2.64v2.232l-1.81-1.116-0.907-3.606c-0.083-0.286-0.33-0.457-0.645-0.38-0.318 0.075-0.467 0.371-0.382 0.66l0.775 2.564-1.002-0.531-0.514-1.764c-0.084-0.286-0.407-0.459-0.721-0.382-0.315 0.077-0.501 0.373-0.416 0.66l0.211 0.723-1.55-0.815c-0.283-0.149-0.643-0.060-0.808 0.198-0.164 0.256-0.065 0.586 0.218 0.734l1.551 0.816-0.795 0.195c-0.316 0.077-0.503 0.374-0.419 0.658 0.070 0.243 0.31 0.4 0.571 0.4 0.051 0 0.103-0.006 0.152-0.016l1.939-0.476 1.009 0.533-2.815 0.684c-0.314 0.078-0.501 0.374-0.415 0.661 0.071 0.242 0.31 0.401 0.57 0.401 0.048 0 0.101-0.007 0.154-0.020l3.954-0.966 2.118 1.115-2.118 1.115-3.954-0.968c-0.318-0.077-0.642 0.094-0.724 0.383-0.086 0.286 0.1 0.581 0.415 0.658l2.815 0.688-1.009 0.531-1.939-0.47c-0.312-0.079-0.638 0.092-0.723 0.378-0.083 0.288 0.103 0.583 0.419 0.66l0.795 0.195-1.551 0.815c-0.283 0.15-0.382 0.481-0.218 0.737 0.11 0.173 0.307 0.272 0.514 0.272 0.1 0 0.2-0.025 0.294-0.073l1.55-0.817-0.211 0.724c-0.084 0.287 0.104 0.584 0.419 0.66 0.050 0.013 0.101 0.020 0.153 0.020 0.26 0 0.499-0.159 0.569-0.401l0.518-1.764 1.010-0.532-0.754 2.564c-0.084 0.288 0.103 0.583 0.418 0.66 0.051 0.012 0.104 0.018 0.153 0.018 0.261 0 0.501-0.159 0.571-0.399l0.754-3.606 1.811-1.116v2.229l-2.588 2.641c-0.23 0.21-0.077 0.551 0.152 0.761 0.118 0.104 0.344 0.157 0.496 0.157 0.151 0 0.035-0.052 0.15-0.157l1.791-1.877v1.062l-1.112 1.294c-0.228 0.209-0.076 0.551 0.153 0.76 0.115 0.108 0.344 0.159 0.495 0.159 0.153 0 0.034-0.051 0.152-0.159l0.312-0.53v1.636c0 0.295 0.581 0.538 0.905 0.538 0.326 0 0.906-0.243 0.906-0.538v-1.636l0.572 0.53c0.116 0.108 0.266 0.159 0.415 0.159 0.15 0 0.302-0.051 0.415-0.159 0.231-0.209 0.238-0.551 0.007-0.76l-1.41-1.294v-1.062l2.050 1.877c0.117 0.104 0.264 0.157 0.414 0.157 0.153 0 0.301-0.052 0.42-0.157 0.23-0.21 0.235-0.551 0.005-0.761l-2.888-2.641v-2.229l2.11 1.116 1.055 3.606c0.071 0.239 0.307 0.399 0.57 0.399 0.051 0 0.103-0.006 0.152-0.018 0.316-0.077 0.503-0.372 0.418-0.66l-0.756-2.566 1.009 0.533 0.521 1.765c0.070 0.24 0.309 0.4 0.568 0.4 0.053 0 0.103-0.007 0.156-0.020 0.315-0.076 0.5-0.373 0.418-0.66l-0.215-0.724 1.554 0.817c0.092 0.048 0.194 0.073 0.295 0.073 0.204 0 0.402-0.1 0.511-0.272 0.163-0.256 0.068-0.587-0.214-0.737l-1.554-0.815 0.797-0.195c0.313-0.077 0.5-0.372 0.417-0.66-0.085-0.287-0.411-0.457-0.724-0.378l-1.939 0.47-1.008-0.531 2.812-0.688c0.318-0.078 0.504-0.372 0.42-0.658-0.085-0.289-0.408-0.46-0.723-0.383l-3.957 0.968-2.118-1.115 2.118-1.115 3.957 0.966c0.050 0.013 0.102 0.020 0.152 0.020 0.26 0 0.5-0.159 0.571-0.4 0.084-0.289-0.102-0.584-0.42-0.663l-2.812-0.685 1.008-0.533 1.939 0.476c0.050 0.010 0.101 0.016 0.152 0.016 0.261 0 0.5-0.157 0.572-0.4 0.083-0.284-0.103-0.582-0.417-0.658l-0.797-0.195 1.554-0.816c0.282-0.149 0.377-0.478 0.214-0.734z"></path>
</svg>
