<?xml version="1.0" encoding="utf-8"?>
<!-- Generated by IcoMoon.io -->
<!DOCTYPE svg PUBLIC "-//W3C//DTD SVG 1.1//EN" "http://www.w3.org/Graphics/SVG/1.1/DTD/svg11.dtd">
<svg version="1.1" xmlns="http://www.w3.org/2000/svg" xmlns:xlink="http://www.w3.org/1999/xlink" width="32" height="32" viewBox="0 0 32 32">
<path fill="#444444" d="M26.44 7.143c-0.974 0-1.881 0.284-2.65 0.768-0.718-1.871-2.528-3.202-4.651-3.202-0.864 0-1.676 0.22-2.385 0.607-1.133-1.476-2.912-2.432-4.916-2.432-3.082 0-5.633 2.25-6.116 5.196-2.028 0.632-3.502 2.479-3.502 4.716 0 0.236 0.038 0.324 0.070 0.644h0.12c0.456 0 0.687 0 0.915 0 0.050 0 0.1 0 0.155 0-0.015 0-0.041-0.363-0.041-0.502 0-1.66 1.063-3.154 2.647-3.648l0.717-0.248 0.121-0.753c0.396-2.421 2.463-4.182 4.914-4.182 1.556 0 2.996 0.71 3.953 1.953l0.633 0.825 0.914-0.5c0.548-0.299 1.171-0.458 1.801-0.458 1.547 0 2.959 0.973 3.515 2.421l0.531 1.382 1.254-0.789c0.603-0.379 1.295-0.58 2.001-0.58 2.078 0 3.769 1.652 3.769 3.731 0 0.069-0.016 0.161-0.021 0.161-0.084 2.035-1.142 3.103-2.578 3.46 0.244 0.305 0.463 0.638 0.66 0.992 1.785-0.742 3.064-2.51 3.146-4.451 0.003 0 0.010-0.094 0.010-0.161 0-2.754-2.233-4.948-4.987-4.948z"></path>
<path fill="#444444" d="M25.707 14.88h-22.965c-0.288 0-0.522 0.455-0.522 0.72s0.233 0.72 0.522 0.72h22.965c0.288 0 0.522-0.455 0.522-0.72s-0.233-0.72-0.522-0.72z"></path>
<path fill="#444444" d="M25.672 17.28h-24.47c-0.308 0-0.556 0.367-0.556 0.72s0.248 0.72 0.556 0.72h24.47c0.308 0 0.556-0.366 0.556-0.72s-0.248-0.72-0.556-0.72z"></path>
<path fill="#444444" d="M22.342 19.68h-19.675c-0.248 0-0.447 0.367-0.447 0.72s0.2 0.72 0.447 0.72h19.674c0.247 0 0.446-0.366 0.446-0.72s-0.199-0.72-0.446-0.72z"></path>
<path fill="#444444" d="M10.971 24.097c-0.058-0.093-0.188-0.125-0.29-0.071l-0.558 0.293 0.077-0.26c0.030-0.103-0.037-0.21-0.15-0.237s-0.23 0.034-0.26 0.137l-0.186 0.634-0.363 0.191 0.271-0.921c0.030-0.104-0.037-0.21-0.15-0.237s-0.23 0.034-0.26 0.137l-0.379 1.296-0.758 0.401v-0.802l1.038-0.949c0.083-0.076 0.081-0.198-0.002-0.274s-0.216-0.075-0.299 0l-0.738 0.675v-0.381l0.506-0.465c0.084-0.076 0.082-0.199-0.001-0.274s-0.214-0.075-0.297 0l-0.207 0.191v-0.587c0-0.107-0.208-0.193-0.325-0.193s-0.325 0.086-0.325 0.193v0.587l-0.098-0.191c-0.084-0.075-0.163-0.075-0.246 0-0.082 0.075-0.165 0.198-0.082 0.274l0.427 0.465v0.381l-0.63-0.675c-0.083-0.075-0.163-0.075-0.246 0s-0.165 0.198-0.082 0.274l0.958 0.949v0.802l-0.651-0.401-0.326-1.296c-0.030-0.103-0.119-0.164-0.232-0.137s-0.168 0.134-0.137 0.237l0.279 0.921-0.36-0.191-0.184-0.634c-0.030-0.103-0.147-0.165-0.259-0.137s-0.18 0.134-0.149 0.237l0.076 0.26-0.557-0.293c-0.101-0.053-0.231-0.022-0.29 0.071-0.059 0.092-0.023 0.21 0.078 0.264l0.557 0.293-0.286 0.070c-0.114 0.028-0.181 0.134-0.151 0.237 0.025 0.088 0.111 0.144 0.205 0.144 0.018 0 0.037-0.002 0.054-0.006l0.697-0.171 0.363 0.191-1.012 0.246c-0.113 0.028-0.18 0.134-0.149 0.238 0.025 0.087 0.111 0.144 0.205 0.144 0.017 0 0.037-0.002 0.055-0.007l1.422-0.347 0.761 0.4-0.761 0.401-1.422-0.348c-0.114-0.028-0.23 0.034-0.26 0.138-0.031 0.103 0.036 0.209 0.149 0.237l1.012 0.247-0.363 0.191-0.697-0.169c-0.112-0.028-0.229 0.033-0.26 0.136s0.037 0.21 0.151 0.237l0.286 0.070-0.557 0.293c-0.102 0.054-0.137 0.173-0.078 0.265 0.039 0.062 0.11 0.098 0.184 0.098 0.036 0 0.072-0.009 0.106-0.026l0.557-0.293-0.076 0.26c-0.030 0.103 0.038 0.21 0.151 0.237 0.018 0.005 0.036 0.007 0.055 0.007 0.093 0 0.179-0.057 0.205-0.144l0.186-0.634 0.363-0.191-0.271 0.922c-0.030 0.103 0.037 0.21 0.15 0.237 0.018 0.004 0.038 0.007 0.055 0.007 0.094 0 0.18-0.057 0.205-0.143l0.271-1.296 0.651-0.401v0.801l-0.93 0.949c-0.083 0.076-0.028 0.198 0.055 0.274 0.042 0.038 0.123 0.057 0.178 0.057s0.013-0.019 0.054-0.057l0.644-0.675v0.382l-0.4 0.465c-0.082 0.075-0.027 0.198 0.055 0.273 0.041 0.038 0.124 0.057 0.178 0.057s0.012-0.019 0.055-0.057l0.112-0.191v0.588c0 0.106 0.208 0.194 0.325 0.194s0.325-0.087 0.325-0.194v-0.588l0.206 0.191c0.042 0.038 0.096 0.057 0.149 0.057s0.108-0.019 0.149-0.057c0.083-0.075 0.085-0.198 0.002-0.273l-0.507-0.465v-0.382l0.737 0.675c0.042 0.038 0.095 0.057 0.149 0.057s0.108-0.019 0.151-0.057c0.083-0.076 0.084-0.198 0.002-0.274l-1.038-0.949v-0.801l0.758 0.401 0.379 1.296c0.026 0.086 0.11 0.143 0.205 0.143 0.018 0 0.037-0.003 0.054-0.007 0.114-0.028 0.181-0.134 0.15-0.237l-0.272-0.922 0.363 0.192 0.187 0.634c0.025 0.086 0.111 0.144 0.204 0.144 0.019 0 0.037-0.002 0.056-0.007 0.113-0.027 0.18-0.134 0.15-0.237l-0.077-0.26 0.558 0.293c0.033 0.017 0.070 0.026 0.106 0.026 0.073 0 0.144-0.036 0.183-0.098 0.059-0.092 0.024-0.211-0.077-0.265l-0.558-0.293 0.287-0.070c0.113-0.028 0.18-0.134 0.15-0.237s-0.148-0.164-0.26-0.136l-0.697 0.169-0.363-0.191 1.011-0.247c0.114-0.028 0.181-0.134 0.151-0.237s-0.147-0.165-0.26-0.138l-1.423 0.348-0.761-0.401 0.761-0.4 1.423 0.347c0.018 0.005 0.037 0.007 0.055 0.007 0.093 0 0.18-0.057 0.205-0.144 0.030-0.104-0.037-0.21-0.151-0.238l-1.011-0.246 0.363-0.191 0.697 0.171c0.018 0.004 0.036 0.006 0.055 0.006 0.094 0 0.18-0.056 0.206-0.144 0.030-0.102-0.037-0.209-0.15-0.237l-0.287-0.070 0.558-0.293c0.101-0.053 0.136-0.172 0.077-0.264z"></path>
<path fill="#444444" d="M27.368 25.222c-0.058-0.092-0.188-0.124-0.29-0.071l-0.557 0.294 0.077-0.261c0.030-0.103-0.037-0.209-0.15-0.237s-0.23 0.033-0.26 0.137l-0.186 0.634-0.363 0.191 0.27-0.922c0.031-0.103-0.037-0.209-0.15-0.237-0.113-0.028-0.23 0.033-0.261 0.136l-0.443 1.297-0.824 0.4v-0.801l1.103-0.949c0.082-0.075 0.114-0.198 0.030-0.273s-0.264-0.076-0.348 0l-0.786 0.675v-0.382l0.57-0.464c0.084-0.076 0.114-0.198 0.031-0.274s-0.263-0.076-0.346 0l-0.256 0.191v-0.587c0-0.106-0.209-0.194-0.325-0.194s-0.325 0.087-0.325 0.194v0.587l-0.034-0.191c-0.083-0.076-0.13-0.076-0.214 0-0.082 0.076-0.214 0.198-0.13 0.274l0.378 0.464v0.382l-0.565-0.675c-0.083-0.076-0.131-0.076-0.214 0s-0.213 0.198-0.131 0.273l0.91 0.949v0.801l-0.586-0.4-0.294-1.297c-0.030-0.103-0.103-0.164-0.216-0.136s-0.159 0.133-0.128 0.237l0.281 0.922-0.358-0.191-0.183-0.634c-0.030-0.104-0.146-0.165-0.259-0.137s-0.18 0.134-0.149 0.237l0.077 0.261-0.557-0.294c-0.101-0.054-0.231-0.022-0.29 0.071s-0.023 0.211 0.078 0.264l0.558 0.294-0.286 0.070c-0.113 0.028-0.181 0.134-0.151 0.237 0.026 0.086 0.111 0.144 0.205 0.144 0.019 0 0.037-0.002 0.055-0.006l0.696-0.17 0.363 0.192-1.012 0.246c-0.113 0.028-0.181 0.135-0.149 0.238 0.025 0.087 0.111 0.144 0.205 0.144 0.018 0 0.037-0.003 0.055-0.008l1.421-0.347 0.762 0.4-0.762 0.401-1.421-0.348c-0.114-0.028-0.23 0.034-0.26 0.137-0.032 0.102 0.036 0.21 0.149 0.237l1.012 0.247-0.363 0.191-0.696-0.17c-0.113-0.028-0.23 0.033-0.26 0.137s0.038 0.21 0.151 0.237l0.286 0.069-0.558 0.294c-0.101 0.053-0.136 0.172-0.078 0.264 0.040 0.062 0.111 0.097 0.184 0.097 0.036 0 0.073-0.008 0.106-0.026l0.557-0.294-0.076 0.261c-0.030 0.103 0.037 0.209 0.15 0.237 0.018 0.005 0.036 0.008 0.056 0.008 0.093 0 0.179-0.057 0.204-0.145l0.186-0.634 0.363-0.19-0.271 0.921c-0.030 0.103 0.037 0.21 0.15 0.238 0.018 0.004 0.037 0.006 0.055 0.006 0.094 0 0.18-0.057 0.205-0.144l0.206-1.296 0.586-0.401v0.802l-0.865 0.949c-0.083 0.075 0.004 0.198 0.087 0.274 0.042 0.037 0.14 0.057 0.195 0.057s-0.044-0.020-0.003-0.057l0.587-0.675v0.381l-0.335 0.465c-0.083 0.076 0.005 0.198 0.087 0.274 0.041 0.038 0.14 0.056 0.195 0.056s-0.045-0.018-0.003-0.056l0.056-0.19v0.587c0 0.107 0.209 0.193 0.325 0.193s0.325-0.087 0.325-0.193v-0.587l0.271 0.19c0.042 0.038 0.128 0.056 0.181 0.056s0.125-0.018 0.166-0.056c0.083-0.076 0.028-0.198-0.056-0.274l-0.563-0.464v-0.382l0.802 0.675c0.042 0.037 0.127 0.057 0.181 0.057s0.125-0.020 0.167-0.057c0.083-0.076 0.027-0.199-0.055-0.274l-1.095-0.949v-0.802l0.824 0.401 0.411 1.296c0.026 0.087 0.127 0.144 0.222 0.144 0.017 0 0.045-0.002 0.062-0.006 0.114-0.028 0.184-0.135 0.154-0.238l-0.269-0.922 0.364 0.191 0.187 0.635c0.025 0.087 0.111 0.144 0.204 0.144 0.018 0 0.037-0.003 0.057-0.008 0.113-0.027 0.18-0.134 0.15-0.237l-0.077-0.261 0.557 0.294c0.034 0.018 0.070 0.026 0.106 0.026 0.074 0 0.145-0.035 0.183-0.097 0.059-0.092 0.025-0.211-0.076-0.264l-0.558-0.294 0.285-0.069c0.113-0.027 0.18-0.134 0.15-0.237s-0.147-0.165-0.26-0.137l-0.697 0.17-0.362-0.191 1.011-0.247c0.114-0.028 0.18-0.135 0.15-0.237-0.030-0.103-0.147-0.165-0.26-0.137l-1.422 0.348-0.761-0.401 0.761-0.4 1.422 0.347c0.018 0.005 0.037 0.008 0.055 0.008 0.094 0 0.18-0.057 0.205-0.144 0.030-0.103-0.037-0.21-0.15-0.238l-1.011-0.246 0.362-0.192 0.697 0.17c0.017 0.004 0.036 0.006 0.053 0.006 0.095 0 0.181-0.057 0.206-0.144 0.030-0.103-0.037-0.209-0.15-0.237l-0.285-0.070 0.558-0.294c0.102-0.053 0.136-0.172 0.077-0.264z"></path>
<path fill="#444444" d="M18.484 22.802c-0.037-0.060-0.12-0.079-0.185-0.045l-0.355 0.187 0.049-0.166c0.019-0.065-0.024-0.133-0.095-0.151-0.073-0.017-0.148 0.022-0.166 0.087l-0.119 0.404-0.231 0.122 0.172-0.587c0.019-0.066-0.024-0.133-0.096-0.151s-0.147 0.022-0.165 0.088l-0.314 0.824-0.557 0.255v-0.509l0.735-0.604c0.052-0.048 0.088-0.127 0.036-0.175s-0.193-0.048-0.247 0l-0.524 0.429v-0.242l0.396-0.296c0.054-0.048 0.090-0.126 0.036-0.174-0.052-0.048-0.192-0.048-0.245 0l-0.187 0.121v-0.374c0-0.068 0.075-0.123 0-0.123s0 0.055 0 0.123v0.374l-0.196-0.121c-0.052-0.048-0.17-0.048-0.223 0-0.052 0.048-0.005 0.126 0.047 0.174l0.372 0.296v0.242l-0.534-0.429c-0.053-0.048-0.169-0.048-0.223 0-0.052 0.048-0.005 0.126 0.048 0.175l0.71 0.604v0.509l-0.548-0.255-0.275-0.824c-0.019-0.065-0.108-0.105-0.181-0.088s-0.123 0.085-0.103 0.151l0.168 0.587-0.233-0.122-0.119-0.404c-0.019-0.066-0.094-0.105-0.167-0.087s-0.114 0.085-0.095 0.151l0.048 0.166-0.355-0.187c-0.065-0.034-0.148-0.014-0.185 0.045s-0.015 0.134 0.050 0.168l0.355 0.187-0.182 0.044c-0.072 0.018-0.114 0.085-0.096 0.151 0.017 0.055 0.071 0.092 0.131 0.092 0.011 0 0.023-0.001 0.035-0.004l0.442-0.109 0.232 0.122-0.645 0.157c-0.072 0.018-0.114 0.085-0.095 0.15 0.016 0.056 0.070 0.093 0.13 0.093 0.012 0 0.023-0.002 0.035-0.005l0.905-0.221 0.484 0.255-0.484 0.256-0.905-0.222c-0.073-0.017-0.146 0.022-0.165 0.088s0.023 0.133 0.095 0.151l0.645 0.157-0.232 0.122-0.442-0.108c-0.072-0.018-0.147 0.021-0.166 0.087-0.018 0.066 0.024 0.134 0.096 0.151l0.182 0.045-0.355 0.187c-0.065 0.034-0.087 0.11-0.050 0.169 0.025 0.039 0.070 0.061 0.117 0.061 0.024 0 0.046-0.005 0.068-0.016l0.355-0.187-0.049 0.166c-0.020 0.065 0.024 0.133 0.096 0.151 0.012 0.002 0.023 0.004 0.035 0.004 0.060 0 0.114-0.036 0.131-0.091l0.119-0.403 0.231-0.122-0.172 0.585c-0.020 0.067 0.024 0.134 0.095 0.152 0.012 0.003 0.024 0.004 0.036 0.004 0.059 0 0.115-0.036 0.13-0.091l0.306-0.825 0.548-0.256v0.51l-0.726 0.603c-0.052 0.048-0.084 0.127-0.032 0.175 0.027 0.024 0.045 0.036 0.080 0.036s0.124-0.012 0.151-0.036l0.526-0.43v0.243l-0.388 0.296c-0.053 0.048-0.084 0.126-0.032 0.174 0.027 0.025 0.045 0.037 0.080 0.037s0.124-0.012 0.151-0.037l0.188-0.121v0.375c0 0.068-0.075 0.123 0 0.123s0-0.055 0-0.123v-0.374l0.205 0.121c0.027 0.025 0.098 0.037 0.132 0.037s0.086-0.012 0.113-0.037c0.052-0.048-0.010-0.126-0.063-0.174l-0.387-0.296v-0.243l0.543 0.43c0.027 0.024 0.097 0.036 0.132 0.036s0.087-0.012 0.115-0.036c0.052-0.048-0.011-0.126-0.064-0.175l-0.725-0.603v-0.51l0.557 0.256 0.278 0.825c0.016 0.055 0.088 0.091 0.149 0.091 0.011 0 0.032-0.001 0.043-0.004 0.072-0.018 0.12-0.085 0.1-0.152l-0.17-0.586 0.232 0.123 0.12 0.403c0.016 0.055 0.070 0.091 0.13 0.091 0.011 0 0.023-0.002 0.037-0.004 0.071-0.017 0.113-0.085 0.095-0.151l-0.049-0.166 0.355 0.187c0.022 0.011 0.045 0.016 0.068 0.016 0.047 0 0.092-0.022 0.117-0.061 0.037-0.059 0.015-0.134-0.049-0.169l-0.356-0.187 0.182-0.045c0.072-0.017 0.114-0.085 0.095-0.151s-0.094-0.104-0.165-0.087l-0.443 0.108-0.231-0.122 0.644-0.157c0.072-0.018 0.115-0.085 0.096-0.151s-0.093-0.105-0.166-0.088l-0.904 0.222-0.484-0.256 0.484-0.255 0.904 0.221c0.012 0.003 0.024 0.005 0.035 0.005 0.060 0 0.114-0.037 0.131-0.092 0.019-0.066-0.024-0.133-0.096-0.151l-0.644-0.157 0.231-0.122 0.443 0.109c0.012 0.003 0.023 0.004 0.034 0.004 0.060 0 0.115-0.037 0.131-0.092 0.019-0.065-0.023-0.133-0.095-0.151l-0.182-0.044 0.356-0.187c0.064-0.034 0.087-0.109 0.049-0.169z"></path>
</svg>
