<?xml version="1.0" encoding="utf-8"?>
<!-- Generated by IcoMoon.io -->
<!DOCTYPE svg PUBLIC "-//W3C//DTD SVG 1.1//EN" "http://www.w3.org/Graphics/SVG/1.1/DTD/svg11.dtd">
<svg version="1.1" xmlns="http://www.w3.org/2000/svg" xmlns:xlink="http://www.w3.org/1999/xlink" width="32" height="32" viewBox="0 0 32 32">
<path fill="#444444" d="M26.271 7.138c-1.052 0-2.031 0.311-2.86 0.839-0.775-2.049-2.723-3.503-5.020-3.503-0.93 0-1.81 0.239-2.573 0.664-1.222-1.616-3.142-2.663-5.307-2.663-3.325 0-6.079 2.463-6.597 5.687-2.192 0.692-3.781 2.766-3.781 5.213 0 3.016 2.411 5.458 5.383 5.458 0.39 0 0.772-0.040 1.141-0.125 0.505 1.314 1.497 2.37 2.751 2.958l0.313-1.359c-0.8-0.447-1.446-1.17-1.799-2.088l-0.419-1.087-1.14 0.252c-0.278 0.062-0.565 0.094-0.847 0.094-2.223 0-4.027-1.838-4.027-4.101 0-1.811 1.138-3.383 2.831-3.92l0.798-0.25 0.135-0.827c0.423-2.635 2.636-4.547 5.257-4.547 1.662 0 3.202 0.774 4.227 2.125l0.709 0.937 1.029-0.568c0.592-0.327 1.237-0.495 1.915-0.495 1.679 0 3.144 1.033 3.753 2.631l0.59 1.56 1.41-0.898c0.643-0.412 1.38-0.629 2.128-0.629 2.217 0 4.026 1.839 4.026 4.101s-1.808 4.104-4.026 4.104c-0.275 0-0.554-0.030-0.832-0.090l-0.983-0.212-0.489 0.882c-0.805 1.452-2.299 2.367-3.928 2.412l-0.32 1.359c0.059 0.009 0.117 0.013 0.176 0.013 2.256 0 4.223-1.26 5.262-3.129 0.363 0.081 0.734 0.12 1.113 0.12 2.975 0 5.382-2.444 5.382-5.46-0-3.011-2.407-5.456-5.382-5.456z"></path>
<path fill="#444444" d="M21.473 13.685h-7.685l-2.624 8.145h1.942l-3.143 8.601 8.585-9.965h-1.942z"></path>
</svg>
