<?xml version="1.0" encoding="utf-8"?>
<!-- Generated by IcoMoon.io -->
<!DOCTYPE svg PUBLIC "-//W3C//DTD SVG 1.1//EN" "http://www.w3.org/Graphics/SVG/1.1/DTD/svg11.dtd">
<svg version="1.1" xmlns="http://www.w3.org/2000/svg" xmlns:xlink="http://www.w3.org/1999/xlink" width="32" height="32" viewBox="0 0 32 32">
<path fill="#444444" d="M17.126 23.52h-1.675l4.196-6.24h-6.626l-2.265 7.040h1.675l-2.71 7.603z"></path>
<path fill="#444444" d="M3.748 31.168c0.424 0.422 1.111 0.422 1.534 0 0.424-0.425 4.057-5.491 4.313-5.85-0.357 0.257-5.423 3.89-5.847 4.314s-0.423 1.111 0 1.536z"></path>
<path fill="#444444" d="M14.131 28.601c-0.375 0.374-0.374 0.979 0 1.354 0.373 0.374 0.98 0.373 1.353 0 0.374-0.375 3.58-4.844 3.804-5.16-0.315 0.227-4.784 3.432-5.157 3.806z"></path>
<path fill="#444444" d="M2.104 26.324c-0.264 0.265-0.264 0.692 0 0.957 0.264 0.263 0.692 0.263 0.956 0 0.263-0.264 2.527-3.42 2.686-3.643-0.223 0.16-3.379 2.423-3.643 2.686z"></path>
<path fill="#444444" d="M18.892 29.807c0.264 0.264 0.692 0.263 0.956 0 0.264-0.264 2.528-3.42 2.686-3.643-0.222 0.159-3.377 2.422-3.642 2.686s-0.264 0.692 0 0.957z"></path>
<path fill="#444444" d="M21.65 5.813l-1.066-1.809-0.201 2.089-2.049 0.455 1.937 0.896-0.188 2.149 1.389-1.58 1.922 0.82-1.073-1.84 1.376-1.635z"></path>
<path fill="#444444" d="M25.927 9.297l0.47 0.954 0.196-1.065 1.071-0.175-0.94-0.501 0.188-1.052-0.769 0.739-0.942-0.503 0.451 0.986-0.783 0.767z"></path>
<path fill="#444444" d="M30.635 10.376l-1.622 1.974c-0.418 0.51-0.899 0.95-1.424 1.32-0.838-1.221-2.229-2.021-3.807-2.021-0.907 0-1.751 0.269-2.465 0.726-0.67-1.767-2.353-3.022-4.33-3.022-0.232 0-0.46 0.022-0.683 0.056-0.131-0.538-0.207-1.097-0.207-1.675 0-2.644 1.439-5.085 3.756-6.371l2.226-1.235-2.53 0.282c-4.119 0.459-7.374 3.453-8.312 7.325-0.339-0.063-0.685-0.106-1.042-0.106-2.867 0-5.24 2.124-5.69 4.905-1.887 0.596-3.258 2.383-3.258 4.493 0 2.599 2.077 4.707 4.639 4.707 0.338 0 0.667-0.037 0.984-0.108 0.436 1.129 1.292 2.042 2.37 2.551l0.272-1.174c-0.689-0.389-1.246-1.009-1.55-1.798l-0.363-0.941-0.984 0.22c-0.24 0.054-0.486 0.081-0.73 0.081-1.913 0-3.47-1.587-3.47-3.537 0-1.56 0.981-2.917 2.44-3.378l0.688-0.217 0.115-0.712c0.367-2.273 2.274-3.923 4.535-3.923 1.432 0 2.76 0.668 3.642 1.832l0.612 0.807 0.886-0.489c0.512-0.283 1.069-0.427 1.652-0.427 1.443 0 2.712 0.89 3.235 2.267l0.511 1.347 1.213-0.776c0.553-0.353 1.188-0.541 1.835-0.541 1.912 0 3.469 1.587 3.469 3.536s-1.556 3.537-3.469 3.537c-0.236 0-0.477-0.025-0.717-0.076l-0.846-0.18-0.421 0.756c-0.697 1.254-1.988 2.040-3.392 2.083l-0.269 1.172c0.050 0.002 0.098 0.007 0.148 0.007 1.948 0 3.641-1.086 4.535-2.695 0.311 0.067 0.631 0.103 0.961 0.103 2.561 0 4.639-2.107 4.639-4.707 0-0.192-0.015-0.38-0.037-0.566 0.663-0.881 1.184-1.876 1.513-2.967l0.737-2.446zM12.216 8.001c0.65-2.721 2.58-4.962 5.161-6.003-1.455 1.524-2.302 3.57-2.302 5.735 0 0.668 0.088 1.315 0.24 1.937-0.187 0.074-0.371 0.157-0.545 0.254-0.652-0.862-1.536-1.534-2.554-1.923z"></path>
</svg>
