<?xml version="1.0" encoding="utf-8"?>
<!-- Generated by IcoMoon.io -->
<!DOCTYPE svg PUBLIC "-//W3C//DTD SVG 1.1//EN" "http://www.w3.org/Graphics/SVG/1.1/DTD/svg11.dtd">
<svg version="1.1" xmlns="http://www.w3.org/2000/svg" xmlns:xlink="http://www.w3.org/1999/xlink" width="32" height="32" viewBox="0 0 32 32">
<path fill="#444444" d="M25.176 11.697c-0.924 0-1.784 0.274-2.511 0.739-0.168-0.446-0.402-0.858-0.686-1.23 0.013-0.050 0.030-0.1 0.039-0.153 0.453-2.439-1.155-4.784-3.595-5.236-1.962-0.365-3.848 0.621-4.751 2.288-0.716-0.318-1.504-0.503-2.337-0.503-2.92 0-5.338 2.163-5.795 4.996-1.923 0.607-3.319 2.428-3.319 4.578 0 2.647 2.116 4.793 4.726 4.793 0.344 0 0.679-0.037 1.003-0.11 0.444 1.151 1.315 2.080 2.413 2.599l0.277-1.196c-0.702-0.395-1.27-1.028-1.579-1.832l-0.369-0.958-1.002 0.223c-0.244 0.055-0.496 0.083-0.744 0.083-1.95 0-3.535-1.615-3.535-3.602 0-1.59 0.999-2.972 2.486-3.441l0.701-0.221 0.117-0.725c0.373-2.315 2.316-3.995 4.619-3.995 1.459 0 2.811 0.68 3.711 1.867l0.623 0.823 0.903-0.499c0.521-0.288 1.088-0.435 1.683-0.435 1.472 0 2.762 0.907 3.296 2.31l0.52 1.372 1.237-0.791c0.563-0.36 1.211-0.551 1.868-0.551 1.948 0 3.535 1.616 3.535 3.602s-1.586 3.603-3.535 3.603c-0.241 0-0.486-0.026-0.73-0.078l-0.862-0.184-0.429 0.771c-0.709 1.277-2.023 2.078-3.453 2.121l-0.277 1.194c0.051 0.004 0.101 0.009 0.152 0.009 1.983 0 3.709-1.107 4.62-2.746 0.318 0.069 0.644 0.105 0.979 0.105 2.611 0 4.726-2.144 4.726-4.794 0-2.647-2.115-4.794-4.726-4.794z"></path>
<path fill="#444444" d="M18.396 22.56h-1.706l4.274-5.6h-6.749l-2.306 6.72h1.706l-2.76 7.592z"></path>
<path fill="#444444" d="M18.754 4.051c0.244 0.045 0.477-0.116 0.524-0.36l0.573-3.090c0.047-0.244-0.115-0.48-0.359-0.524s-0.479 0.115-0.522 0.359l-0.578 3.092c-0.043 0.244 0.115 0.479 0.362 0.524z"></path>
<path fill="#444444" d="M14.935 4.030c0.082 0.234 0.339 0.357 0.573 0.274 0.233-0.083 0.356-0.339 0.273-0.574l-1.046-2.963c-0.084-0.233-0.34-0.356-0.575-0.273-0.233 0.082-0.355 0.339-0.274 0.572l1.049 2.964z"></path>
<path fill="#444444" d="M12.191 6.196c0.189 0.161 0.473 0.138 0.635-0.050 0.16-0.189 0.139-0.472-0.052-0.633l-2.389-2.044c-0.189-0.161-0.471-0.138-0.634 0.050s-0.139 0.473 0.049 0.632l2.39 2.044z"></path>
<path fill="#444444" d="M23.531 8.137c0.082 0.232 0.339 0.356 0.575 0.273l2.961-1.046c0.237-0.083 0.356-0.34 0.272-0.573-0.081-0.235-0.337-0.358-0.571-0.275l-2.965 1.048c-0.232 0.083-0.355 0.34-0.273 0.573z"></path>
<path fill="#444444" d="M22.324 5.404l2.041-2.389c0.162-0.189 0.139-0.473-0.051-0.634-0.187-0.161-0.469-0.139-0.631 0.049l-2.044 2.389c-0.16 0.19-0.138 0.473 0.050 0.635s0.473 0.138 0.634-0.051z"></path>
<path fill="#444444" d="M4.768 31.581c0.432 0.431 1.132 0.431 1.563 0 0.432-0.432 4.133-5.594 4.393-5.959-0.364 0.262-5.525 3.963-5.957 4.395-0.43 0.431-0.43 1.132 0 1.564z"></path>
<path fill="#444444" d="M15.346 28.965c-0.382 0.381-0.381 0.998 0 1.38 0.38 0.38 0.997 0.38 1.38 0 0.381-0.382 3.644-4.933 3.875-5.256-0.322 0.23-4.875 3.495-5.254 3.876z"></path>
<path fill="#444444" d="M3.094 26.645c-0.269 0.269-0.269 0.705 0 0.975 0.268 0.268 0.705 0.268 0.974 0 0.267-0.269 2.573-3.482 2.736-3.711-0.227 0.162-3.442 2.468-3.71 2.736z"></path>
<path fill="#444444" d="M20.195 30.195c0.269 0.27 0.704 0.269 0.973 0s2.574-3.484 2.736-3.712c-0.225 0.163-3.44 2.469-3.709 2.738s-0.269 0.705 0 0.974z"></path>
</svg>
